<svg width="50" height="50" viewBox="0 0 61 64" fill="none" xmlns="http://www.w3.org/2000/svg">
<g clip-path="url(#clip0_770_788)">
<path d="M22.8553 0C23.4222 0 23.9892 0 24.5561 0C24.6856 0.05 24.8152 0.1 24.9448 0.133333C26.6456 0.583333 27.9252 1.61667 28.654 3.26667C28.8322 3.66667 29.0428 3.75 29.4315 3.75C34.6471 3.73333 39.879 3.75 45.0946 3.75C46.7629 3.75 47.3946 4.4 47.3946 6.11667C47.3946 24.5667 47.3946 43.0167 47.4108 61.4667C47.4108 62.6333 47.1031 63.4833 46.0502 63.9833C31.1485 63.9833 16.2467 63.9833 1.34497 63.9833C0.292129 63.4833 -0.015625 62.6333 -0.015625 61.4667C0.0167701 42.9833 0.0167701 24.5 0.0167701 6C0.0167701 4.45 0.697068 3.75 2.20344 3.75C7.45145 3.75 12.6833 3.75 17.9313 3.76667C18.3848 3.76667 18.5954 3.65 18.7897 3.21667C19.3081 2.03333 20.1503 1.15 21.2842 0.6C21.7863 0.35 22.337 0.2 22.8553 0ZM3.70981 7.53333C3.70981 25.1167 3.70981 42.6667 3.70981 60.2167C17.0728 60.2167 30.3872 60.2167 43.7178 60.2167C43.7178 42.6333 43.7178 25.1 43.7178 7.55C41.2881 7.55 38.8909 7.55 36.4613 7.55C36.4613 9.3 36.4613 11 36.4613 12.7167C36.4613 14.3167 35.7972 15 34.2584 15C27.2611 15 20.2475 15 13.2502 15C11.6142 15 10.9663 14.3333 10.9663 12.6667C10.9663 10.9667 10.9663 9.26667 10.9663 7.53333C8.50429 7.53333 6.12325 7.53333 3.70981 7.53333ZM32.8006 7.5C31.0189 7.5 29.302 7.5 27.585 7.5C26.3216 7.5 25.6413 6.85 25.5279 5.55C25.4307 4.5 24.6695 3.75 23.6976 3.75C22.7257 3.75 21.9807 4.51667 21.8835 5.56667C21.7863 6.81667 21.0898 7.48333 19.875 7.5C18.32 7.5 16.765 7.5 15.1939 7.5C14.9995 7.5 14.8051 7.5 14.627 7.5C14.627 8.8 14.627 10 14.627 11.2167C20.701 11.2167 26.7265 11.2167 32.8006 11.2167C32.8006 9.98333 32.8006 8.78333 32.8006 7.5Z" fill="white"/>
<path d="M29.1069 23.3669C26.5477 23.3669 23.9885 23.3835 21.4293 23.3669C20.3927 23.3669 19.6152 22.7169 19.4208 21.8335C19.2588 21.0169 19.761 20.1335 20.6356 19.8169C20.9596 19.7002 21.3321 19.6502 21.6885 19.6502C26.6287 19.6335 31.569 19.6335 36.5092 19.6502C38.2424 19.6502 39.279 20.9835 38.6149 22.3169C38.21 23.1002 37.5135 23.4169 36.5902 23.4002C34.0958 23.3502 31.6014 23.3669 29.1069 23.3669Z" fill="white"/>
<path d="M29.1064 30.8664C26.5472 30.8664 23.9879 30.8831 21.4287 30.8664C20.3921 30.8664 19.6146 30.2164 19.4364 29.3164C19.2745 28.4998 19.7766 27.6164 20.6512 27.2998C20.9752 27.1831 21.3477 27.1331 21.7041 27.1331C26.6443 27.1164 31.5846 27.1164 36.5249 27.1331C38.339 27.1331 39.3756 28.6331 38.5333 29.9664C38.096 30.6331 37.4319 30.8831 36.6058 30.8831C34.0952 30.8498 31.6008 30.8664 29.1064 30.8664Z" fill="white"/>
<path d="M29.3328 38.1165C26.725 38.1165 24.1172 38.1165 21.5094 38.1165C20.4889 38.1165 19.7762 37.6499 19.4847 36.8665C19.2255 36.1832 19.4847 35.3832 20.2136 34.9999C20.6185 34.7832 21.153 34.6165 21.6228 34.6165C26.7736 34.5832 31.9244 34.5999 37.0752 34.5999C38.4196 34.5999 39.3429 35.3665 39.3267 36.3832C39.3105 37.4165 38.3872 38.1165 37.0104 38.1165C34.4674 38.1165 31.9082 38.1165 29.3328 38.1165Z" fill="white"/>
<path d="M29.1064 45.8664C26.5472 45.8664 23.9879 45.8831 21.4287 45.8664C20.3921 45.8664 19.6146 45.2164 19.4364 44.3164C19.2745 43.4998 19.7766 42.6164 20.6512 42.2998C20.9752 42.1831 21.3477 42.1331 21.7041 42.1331C26.6443 42.1164 31.5846 42.1164 36.5249 42.1331C38.339 42.1331 39.3756 43.6331 38.5333 44.9664C38.096 45.6331 37.4319 45.8831 36.6058 45.8831C34.0952 45.8498 31.6008 45.8664 29.1064 45.8664Z" fill="white"/>
<path d="M29.0416 53.3664C26.4986 53.3664 23.9717 53.3831 21.4287 53.3664C20.3921 53.3664 19.6146 52.7164 19.4364 51.8164C19.2745 50.9998 19.7766 50.1164 20.6512 49.7998C20.9752 49.6831 21.3477 49.6331 21.7041 49.6331C26.6443 49.6164 31.5846 49.6164 36.5249 49.6331C38.339 49.6331 39.3756 51.1331 38.5333 52.4664C38.096 53.1331 37.4319 53.3831 36.6058 53.3831C34.0628 53.3498 31.5522 53.3664 29.0416 53.3664Z" fill="white"/>
<path d="M15.3543 21.5169C15.3543 22.5335 14.4473 23.3835 13.3458 23.4002C12.2282 23.4169 11.2887 22.5169 11.3211 21.4835C11.3373 20.4669 12.2768 19.6169 13.362 19.6335C14.4473 19.6335 15.3543 20.4835 15.3543 21.5169Z" fill="white"/>
<path d="M13.3167 27.1335C14.4182 27.1169 15.3414 27.9502 15.3576 28.9835C15.3738 30.0335 14.4506 30.9169 13.3329 30.9002C12.2477 30.9002 11.3244 30.0502 11.3244 29.0169C11.3082 28.0002 12.2153 27.1335 13.3167 27.1335Z" fill="white"/>
<path d="M13.428 34.6331C14.5618 34.6831 15.4365 35.5998 15.3555 36.6498C15.2745 37.6665 14.3027 38.4665 13.2174 38.3998C12.116 38.3165 11.2737 37.4331 11.3223 36.4165C11.3709 35.3998 12.3428 34.5665 13.428 34.6331Z" fill="white"/>
<path d="M15.3541 43.9835C15.3703 45.0002 14.4794 45.8669 13.378 45.9002C12.2603 45.9335 11.3047 45.0502 11.3047 44.0169C11.3047 43.0002 12.2117 42.1502 13.3132 42.1335C14.4146 42.1169 15.3379 42.9502 15.3541 43.9835Z" fill="white"/>
<path d="M15.3574 51.4834C15.3736 52.5 14.4827 53.3667 13.3813 53.3834C12.2637 53.4 11.3242 52.5334 11.3242 51.4834C11.3242 50.4667 12.2475 49.6167 13.3489 49.6167C14.4341 49.6167 15.3412 50.4667 15.3574 51.4834Z" fill="white"/>
<path d="M61.0005 46.7167C58.2793 46.75 55.6229 46.7834 52.9017 46.8167C52.7235 37.3667 52.5454 27.95 52.3672 18.4667C55.0722 18.4334 57.7286 18.4 60.466 18.3667C60.6441 27.8 60.8223 37.2167 61.0005 46.7167Z" fill="white"/>
<path d="M60.4342 16.9831C57.7292 17.0165 55.0728 17.0498 52.3192 17.0831C52.3192 15.8665 52.2544 14.6831 52.3678 13.5165C52.4488 12.5998 53.2101 11.9831 54.1333 11.9498C55.5749 11.8998 57.0165 11.8831 58.4419 11.8998C59.5433 11.9165 60.2722 12.7165 60.3694 13.8498C60.3856 14.1165 60.3856 14.3831 60.4018 14.6665C60.4018 15.4165 60.418 16.1665 60.4342 16.9831Z" fill="white"/>
<path d="M53.1758 48.4163C55.7512 48.383 58.2132 48.3663 60.7886 48.333C59.5738 50.933 58.4076 53.4497 57.1766 56.1163C55.816 53.4997 54.5202 50.9997 53.1758 48.4163Z" fill="white"/>
</g>
<defs>
<clipPath id="clip0_770_788">
<rect width="61" height="64" fill="white"/>
</clipPath>
</defs>
</svg>
