<svg width="66" height="55" viewBox="0 0 66 55" fill="none" xmlns="http://www.w3.org/2000/svg">
<g clip-path="url(#clip0_770_813)">
<path d="M0 54.7352C0.397192 53.0786 0.860582 51.3557 1.25777 49.6991C4.03811 38.169 6.81846 26.6389 9.5988 15.175C9.665 14.7774 9.79739 14.5786 10.2608 14.5786C20.3892 14.5786 30.5176 14.5786 40.7121 14.5786C40.8445 14.5786 40.9107 14.5786 41.1755 14.6449C40.7121 15.0425 40.3811 15.3075 40.0502 15.5726C39.2558 16.169 38.5938 17.0304 37.7332 17.3617C36.8726 17.6931 35.8134 17.428 34.8205 17.428C27.5386 17.428 20.1906 17.428 12.9087 17.428C12.6439 17.428 12.3791 17.428 12.0481 17.428C9.2678 28.9581 6.42126 40.4883 3.64092 52.0846C22.6399 52.0846 41.5065 52.0846 60.5055 52.0846C60.2407 51.0244 59.9759 50.0304 59.7773 49.0364C57.4604 39.3617 55.0772 29.687 52.7603 20.0786C52.6279 19.5485 52.7603 19.2834 53.1575 18.9521C53.8195 18.4883 54.349 17.9581 55.0772 17.3617C58.1224 29.9521 61.1675 42.4762 64.2126 55.0003C63.8154 55.0003 63.5507 55.0003 63.2859 55.0003C42.3671 55.0003 21.5145 55.0003 0.661986 55.0003C0.46339 55.0003 0.264794 55.0003 0 55.0003C0 54.934 0 54.8015 0 54.7352Z" fill="white"/>
<path d="M39.3888 28.958C37.5352 26.7712 35.6817 24.5845 33.8281 22.3977C41.2424 16.1026 48.7228 9.80739 56.2033 3.51221C58.0568 5.69895 59.8442 7.8857 61.7639 10.0724C54.2835 16.3676 46.8693 22.6628 39.3888 28.958Z" fill="white"/>
<path d="M10.4609 45.5907C10.7257 44.3979 10.9243 43.2051 11.1891 42.0123C11.5863 40.2232 11.9835 38.434 12.3145 36.5786C12.3807 36.3135 12.4469 36.1147 12.7779 36.1147C16.3526 36.1147 19.9273 36.1147 23.4359 36.1147C23.4359 36.1147 23.5021 36.1147 23.5683 36.181C23.4359 37.1087 23.2373 38.0364 23.1049 39.0304C22.7739 41.0846 22.4429 43.0726 22.1119 45.1268C22.0457 45.3919 21.9795 45.5907 21.6485 45.5907C17.9414 45.5907 14.3005 45.5907 10.5933 45.5907C10.5933 45.6569 10.5933 45.6569 10.4609 45.5907ZM14.3005 38.5003C13.9695 40.1569 13.6385 41.7473 13.3075 43.3376C15.6244 43.3376 17.9414 43.3376 20.1921 43.3376C20.4569 41.681 20.7217 40.0906 20.9865 38.5003C18.7358 38.5003 16.5512 38.5003 14.3005 38.5003Z" fill="white"/>
<path d="M25.8164 23.0603C25.4854 23.2591 25.1544 23.4579 24.8235 23.6567C23.3009 24.8494 21.5797 25.3133 19.66 25.0482C18.9318 24.982 18.1374 24.982 17.4092 25.0482C17.2106 25.0482 17.0782 25.247 16.9458 25.3795C16.8796 25.5121 16.8796 25.6446 16.8134 25.7771C16.5486 27.0362 16.2838 28.2952 16.019 29.6205C16.4162 29.6205 16.7472 29.6205 17.1444 29.6205C18.7332 29.6205 20.3881 29.6205 21.9769 29.6205C22.3741 29.6205 22.6389 29.5542 22.6389 29.0904C22.6389 28.4277 22.9699 28.0301 23.5657 27.7651C24.0953 27.5 24.5587 27.1687 25.1544 26.8374C25.0882 27.3675 25.022 27.8314 24.8896 28.2952C24.6911 29.2892 24.5587 30.3494 24.3601 31.3434C24.3601 31.4759 24.0953 31.741 23.9629 31.741C20.4543 31.741 16.9458 31.741 13.5035 31.741C13.5035 31.741 13.4373 31.741 13.3711 31.6747C13.9669 28.7591 14.5627 25.8434 15.2247 22.9277C18.7332 22.9277 22.2417 22.9277 25.7502 22.9277C25.7502 22.9277 25.7502 22.994 25.8164 23.0603Z" fill="white"/>
<path d="M62.8224 9.1447C60.9688 6.95795 59.1815 4.77121 57.2617 2.58446C58.2547 1.78928 59.1153 0.994099 60.1083 0.331448C60.9026 -0.264937 61.9618 0.000123027 62.6238 0.729039C63.6168 1.85554 64.6098 3.04832 65.6027 4.24109C66.3309 5.1688 66.1985 6.2953 65.3379 7.09049C65.1393 7.28928 64.9408 7.48808 64.676 7.62061C64.0802 8.08446 63.4844 8.61458 62.8224 9.1447Z" fill="white"/>
<path d="M32.7665 23.6567C34.5539 25.711 36.2089 27.7652 37.9962 29.8194C35.0835 30.5483 32.3032 31.211 29.3242 31.9399C30.4496 29.1567 31.575 26.4399 32.7665 23.6567Z" fill="white"/>
<path d="M20.1909 29.024C19.3303 28.0963 18.4697 27.1686 17.543 26.2409C18.0726 25.9096 18.5359 25.6445 18.9993 25.3132C19.5289 25.7771 19.9923 26.2409 20.5219 26.771C22.1769 25.7771 23.8318 24.8493 25.4206 23.9216C26.0164 23.524 26.4798 23.4578 27.0094 24.0542C27.208 24.253 27.4066 24.3855 27.6714 24.6506C25.1558 26.1084 22.7065 27.5662 20.1909 29.024Z" fill="white"/>
</g>
<defs>
<clipPath id="clip0_770_813">
<rect width="66" height="55" fill="white"/>
</clipPath>
</defs>
</svg>
