<svg width="16" height="24" viewBox="0 0 16 24" fill="none" xmlns="http://www.w3.org/2000/svg">
<path fill-rule="evenodd" clip-rule="evenodd" d="M2.73999 4.56H5.37999H10.66H13.26V0L10.66 4.56L8.01999 0L5.37999 4.56L2.73999 0V4.56Z" fill="#00B086"/>
<path d="M13.26 5.35999H2.73999V6.95999H13.26V5.35999Z" fill="#00B086"/>
<path fill-rule="evenodd" clip-rule="evenodd" d="M5.59997 7.76001C5.1905 11.6467 4.80038 14.3565 4.05225 16.8H11.9477C11.1996 14.3565 10.8094 11.6467 10.4 7.76001H5.59997Z" fill="#374957"/>
<path fill-rule="evenodd" clip-rule="evenodd" d="M3.79121 17.6C3.511 18.4072 3.18542 19.1956 2.80005 20H5.60005H10.4H13.2C12.8147 19.1956 12.4891 18.4072 12.2089 17.6H3.79121Z" fill="#374957"/>
<path d="M0 24C0 22.2327 1.43269 20.8 3.2 20.8H12.8C14.5673 20.8 16 22.2327 16 24H0Z" fill="#374957"/>
</svg>
