<svg width="16" height="24" viewBox="0 0 16 24" fill="none" xmlns="http://www.w3.org/2000/svg">
<path d="M9.68675 9.86085C9.92639 8.22919 10.1335 6.82036 9.78772 5.58383C9.5721 4.81214 9.05573 3.68764 7.10365 2.57227L1.17047 6.3123L1.17047 8.43711L6.19223 8.43954C4.35663 11.151 2.88869 14.0901 2.83213 17.2L9.73632 17.2C9.02349 14.3817 9.37474 11.9866 9.68706 9.86085L9.68675 9.86085Z" fill="#374957"/>
<path d="M7.54425 -2.10871e-07L7.54425 1.94947C9.18006 2.89528 10.1322 3.99696 10.5187 5.3793C10.9077 6.77108 10.69 8.25419 10.4375 9.97138C10.1289 12.0721 9.78067 14.4457 10.52 17.2L12.2783 17.2C9.98808 10.7126 16.3014 4.11872 7.54425 -2.10871e-07Z" fill="#00B086"/>
<rect x="4.80005" y="18" width="6.4" height="2" fill="#00B086"/>
<path d="M0 24C0 22.2327 1.43269 20.8 3.2 20.8H12.8C14.5673 20.8 16 22.2327 16 24H0Z" fill="#374957"/>
</svg>
