<svg width="244" height="294" viewBox="0 0 244 294" fill="none" xmlns="http://www.w3.org/2000/svg">
<path opacity="0.25" fill-rule="evenodd" clip-rule="evenodd" d="M263.207 132.782C276.707 118.684 285 99.5603 285 78.5C285 35.1456 249.854 0 206.5 0C167.976 0 135.933 27.7506 129.272 64.3523C120.013 61.5225 110.184 60 100 60C44.7715 60 0 104.772 0 160C0 215.228 44.7715 260 100 260C103.827 260 107.603 259.785 111.318 259.367C109.803 265.495 109 271.904 109 278.5C109 322.407 144.593 358 188.5 358C232.407 358 268 322.407 268 278.5C268 267.539 265.782 257.096 261.77 247.596C277.295 233.086 287 212.426 287 189.5C287 167.29 277.892 147.207 263.207 132.782Z" fill="#00B086"/>
<path d="M51.7969 184.143C51.489 184.249 51.0853 183.964 50.6998 183.229L50.0451 181.254C49.917 180.437 50.071 179.969 50.3905 179.873C50.7101 179.777 51.1099 180.074 51.4993 180.796L52.1449 182.744C52.2627 183.555 52.1191 184.029 51.7969 184.141V184.143Z" fill="#00B086"/>
<path d="M55.1488 192.488C54.8512 192.619 54.4242 192.367 53.9792 191.666L53.1628 189.751C52.9661 188.947 53.0813 188.469 53.3918 188.347C53.7023 188.225 54.1254 188.489 54.5743 189.178L55.3791 191.066C55.5641 191.864 55.4606 192.349 55.1488 192.488Z" fill="#00B086"/>
<path d="M59.2372 200.502C58.9539 200.662 58.5062 200.449 57.9964 199.792L57.0054 197.956C56.735 197.173 56.8062 196.686 57.105 196.538C57.4026 196.39 57.8502 196.615 58.36 197.259L59.3355 199.063C59.593 199.841 59.5348 200.334 59.2385 200.501L59.2372 200.502Z" fill="#00B086"/>
<path d="M64.1136 208.076C63.8484 208.264 63.3813 208.099 62.8069 207.495L61.6295 205.768C61.2789 205.016 61.2996 204.525 61.5816 204.349C61.8637 204.171 62.3308 204.351 62.9052 204.939L64.0619 206.635C64.3983 207.382 64.3918 207.879 64.1149 208.076H64.1136Z" fill="#00B086"/>
<path d="M69.8134 215.058C69.5727 215.275 69.0901 215.166 68.4497 214.631L67.0782 213.051C66.6422 212.343 66.6073 211.854 66.8674 211.648C67.1274 211.441 67.6126 211.566 68.2504 212.084L69.5934 213.633C70.0139 214.336 70.0656 214.831 69.8134 215.059V215.058Z" fill="#00B086"/>
<path d="M76.3456 221.28C76.136 221.526 75.643 221.478 74.9379 221.029L73.3711 219.633C72.8471 218.985 72.7488 218.505 72.9804 218.267C73.212 218.03 73.7114 218.093 74.41 218.527L75.9419 219.893C76.4504 220.536 76.5655 221.02 76.3456 221.28Z" fill="#00B086"/>
<path d="M83.6983 226.537C83.5275 226.811 83.0346 226.836 82.2687 226.491L80.5117 225.331C79.8971 224.764 79.7302 224.303 79.9269 224.037C80.1223 223.77 80.6268 223.762 81.3811 224.09L83.0941 225.221C83.6906 225.785 83.8769 226.249 83.697 226.537H83.6983Z" fill="#00B086"/>
<path d="M91.7598 230.655C91.633 230.951 91.1492 231.047 90.3405 230.82L88.4283 229.931C87.7361 229.462 87.5006 229.032 87.6546 228.739C87.8085 228.445 88.3054 228.364 89.101 228.577L90.9654 229.442C91.6395 229.912 91.8931 230.344 91.7611 230.655H91.7598Z" fill="#00B086"/>
<path d="M100.362 233.504C100.285 233.818 99.8216 233.987 98.9871 233.886L96.9571 233.301C96.1989 232.943 95.9001 232.553 96.0074 232.24C96.1135 231.926 96.5922 231.77 97.4112 231.858L99.3868 232.428C100.126 232.789 100.445 233.177 100.362 233.504Z" fill="#00B086"/>
<path d="M109.322 234.924C109.299 235.245 108.872 235.489 108.031 235.527L105.927 235.283C105.117 235.055 104.759 234.721 104.812 234.395C104.865 234.07 105.313 233.836 106.134 233.787L108.177 234.023C108.966 234.257 109.347 234.586 109.323 234.924H109.322Z" fill="#00B086"/>
<path d="M118.383 234.734C118.422 235.054 118.048 235.371 117.227 235.561L115.112 235.704C114.274 235.626 113.86 235.362 113.853 235.033C113.847 234.703 114.244 234.392 115.041 234.196L117.088 234.057C117.905 234.144 118.341 234.398 118.383 234.734Z" fill="#00B086"/>
<path d="M127.229 232.781C127.333 233.086 127.035 233.478 126.271 233.84L124.231 234.429C123.385 234.49 122.923 234.299 122.852 233.977C122.781 233.654 123.11 233.286 123.86 232.964L125.826 232.396C126.64 232.307 127.119 232.463 127.229 232.783V232.781Z" fill="#00B086"/>
<path d="M135.466 229.054C135.632 229.332 135.418 229.77 134.743 230.269L132.863 231.238C132.063 231.498 131.578 231.421 131.44 231.12C131.301 230.819 131.539 230.378 132.189 229.882L134.005 228.947C134.789 228.702 135.291 228.764 135.465 229.054H135.466Z" fill="#00B086"/>
<path d="M142.801 223.782C143.017 224.022 142.894 224.495 142.33 225.114L140.677 226.429C139.944 226.839 139.452 226.857 139.257 226.59C139.062 226.322 139.206 225.844 139.749 225.231L141.349 223.958C142.071 223.567 142.574 223.528 142.802 223.78L142.801 223.782Z" fill="#00B086"/>
<path d="M148.994 217.215C149.253 217.411 149.222 217.897 148.786 218.613L147.413 220.214C146.772 220.754 146.292 220.864 146.048 220.639C145.805 220.414 145.857 219.914 146.271 219.212L147.6 217.662C148.234 217.142 148.721 217.01 148.993 217.215H148.994Z" fill="#00B086"/>
<path d="M153.809 209.606C154.101 209.748 154.165 210.231 153.876 211.015L152.84 212.845C152.316 213.496 151.866 213.695 151.584 213.52C151.301 213.344 151.255 212.845 151.525 212.077L152.528 210.307C153.049 209.677 153.502 209.456 153.809 209.606Z" fill="#00B086"/>
<path d="M156.992 201.216C157.308 201.296 157.469 201.755 157.346 202.58L156.704 204.581C156.322 205.324 155.924 205.606 155.611 205.489C155.299 205.373 155.153 204.893 155.26 204.089L155.88 202.159C156.261 201.44 156.661 201.131 156.991 201.217L156.992 201.216Z" fill="#00B086"/>
<path d="M158.311 192.34C158.637 192.352 158.894 192.765 158.953 193.598L158.76 195.691C158.549 196.499 158.221 196.859 157.891 196.811C157.561 196.762 157.314 196.324 157.244 195.516L157.43 193.498C157.646 192.714 157.97 192.329 158.311 192.34Z" fill="#00B086"/>
<path d="M157.678 183.393C157.999 183.335 158.34 183.686 158.576 184.487L158.836 186.572C158.804 187.405 158.561 187.828 158.227 187.849C157.895 187.871 157.559 187.496 157.317 186.719L157.066 184.709C157.109 183.896 157.342 183.452 157.678 183.392V183.393Z" fill="#00B086"/>
<path d="M155.128 174.786C155.428 174.66 155.836 174.929 156.242 175.662L156.951 177.645C157.101 178.467 156.955 178.93 156.634 179.022C156.313 179.114 155.905 178.819 155.5 178.113L154.816 176.204C154.682 175.402 154.813 174.917 155.127 174.787L155.128 174.786Z" fill="#00B086"/>
<path d="M150.661 166.978C150.922 166.785 151.381 166.952 151.949 167.572L153.109 169.34C153.449 170.105 153.415 170.588 153.124 170.75C152.833 170.913 152.365 170.718 151.806 170.127L150.693 168.432C150.375 167.685 150.385 167.183 150.659 166.98L150.661 166.978Z" fill="#00B086"/>
<path d="M144.343 160.551C144.536 160.301 145.056 160.306 145.775 160.753L147.343 162.189C147.867 162.851 147.956 163.329 147.716 163.558C147.475 163.788 146.974 163.715 146.287 163.279L144.79 161.909C144.282 161.278 144.128 160.825 144.342 160.552L144.343 160.551Z" fill="#00B086"/>
<path d="M136.455 156.157C136.573 155.856 137.05 155.758 137.865 155.989L139.797 156.89C140.495 157.365 140.722 157.793 140.558 158.081C140.393 158.367 139.89 158.446 139.101 158.236L137.258 157.376C136.592 156.907 136.332 156.473 136.455 156.157Z" fill="#00B086"/>
<path d="M127.644 154.072C127.675 153.751 128.108 153.528 128.956 153.533L131.059 153.885C131.86 154.155 132.197 154.506 132.118 154.827C132.039 155.149 131.576 155.357 130.758 155.366L128.747 155.03C127.978 154.757 127.609 154.407 127.642 154.072H127.644Z" fill="#00B086"/>
<path d="M118.597 154.431C118.536 154.116 118.885 153.747 119.699 153.494C120.404 153.393 121.113 153.315 121.823 153.26C122.672 153.33 123.095 153.613 123.107 153.942C123.12 154.275 122.728 154.565 121.942 154.766C121.266 154.817 120.59 154.892 119.92 154.988C119.109 154.963 118.663 154.766 118.598 154.431H118.597Z" fill="#00B086"/>
<path d="M110.08 157.428C109.922 157.149 110.134 156.688 110.832 156.194C111.472 155.879 112.126 155.59 112.788 155.325C113.622 155.138 114.112 155.285 114.22 155.596C114.331 155.91 114.044 156.301 113.36 156.726C112.732 156.976 112.115 157.25 111.51 157.547C110.733 157.772 110.248 157.725 110.08 157.428Z" fill="#00B086"/>
<path d="M103.074 163.072C102.828 162.865 102.866 162.359 103.347 161.656C103.839 161.142 104.352 160.647 104.885 160.173C105.607 159.714 106.12 159.691 106.327 159.947C106.538 160.205 106.402 160.667 105.905 161.297C105.403 161.743 104.919 162.209 104.456 162.694C103.806 163.169 103.336 163.293 103.073 163.072H103.074Z" fill="#00B086"/>
<path d="M98.51 170.783C98.2059 170.677 98.0558 170.192 98.2564 169.363C98.5333 168.707 98.8386 168.064 99.1711 167.435C99.6861 166.756 100.158 166.557 100.443 166.724C100.733 166.894 100.766 167.374 100.524 168.134C100.211 168.725 99.9254 169.329 99.6667 169.943C99.2306 170.613 98.836 170.895 98.5113 170.781L98.51 170.783Z" fill="#00B086"/>
<path d="M97.3216 179.619C97.0047 179.65 96.6579 179.271 96.4936 178.427C96.4729 177.713 96.491 176.998 96.5454 176.286C96.7472 175.454 97.1095 175.091 97.4355 175.137C97.7693 175.183 97.9867 175.612 98.0669 176.4C98.0164 177.06 97.9996 177.722 98.019 178.384C97.9026 179.166 97.6684 179.586 97.3216 179.618V179.619Z" fill="#00B086"/>
<path d="M100.043 188.125C99.7608 188.281 99.2937 188.071 98.7969 187.377C98.4799 186.74 98.1914 186.088 97.9352 185.424C97.7592 184.591 97.9249 184.108 98.2405 184.01C98.5614 183.909 98.9457 184.203 99.361 184.884C99.6016 185.505 99.8707 186.115 100.168 186.713C100.391 187.478 100.344 187.958 100.044 188.125H100.043Z" fill="#00B086"/>
<path d="M105.706 195.098C105.49 195.336 104.981 195.286 104.284 194.797C103.774 194.303 103.283 193.791 102.81 193.261C102.355 192.546 102.333 192.04 102.59 191.836C102.853 191.628 103.32 191.764 103.954 192.263C104.402 192.765 104.869 193.251 105.353 193.721C105.824 194.375 105.935 194.846 105.706 195.098Z" fill="#00B086"/>
<path d="M113.242 200.066C113.104 200.358 112.612 200.437 111.798 200.177C111.151 199.878 110.56 199.478 109.945 199.122C109.295 198.577 109.107 198.124 109.293 197.85C109.48 197.576 109.983 197.546 110.741 197.834C111.327 198.172 111.887 198.554 112.505 198.838C113.152 199.323 113.388 199.76 113.243 200.066H113.242Z" fill="#00B086"/>
<path d="M121.876 202.759C121.82 203.076 121.371 203.268 120.526 203.203L118.455 202.705C117.675 202.38 117.366 202.006 117.467 201.69C117.567 201.375 118.045 201.199 118.861 201.249L120.843 201.725C121.592 202.051 121.934 202.425 121.876 202.758V202.759Z" fill="#00B086"/>
<path d="M130.929 203.188C130.954 203.509 130.566 203.806 129.732 203.95L127.601 203.98C126.764 203.857 126.368 203.572 126.385 203.241C126.401 202.912 126.818 202.623 127.623 202.47L129.667 202.441C130.477 202.573 130.901 202.85 130.927 203.186L130.929 203.188Z" fill="#00B086"/>
<path d="M139.83 201.433C139.934 201.739 139.63 202.119 138.855 202.459L136.794 202.997C135.951 203.078 135.497 202.896 135.432 202.571C135.368 202.247 135.702 201.867 136.445 201.526L138.424 201.011C139.241 200.944 139.721 201.112 139.83 201.433Z" fill="#00B086"/>
<path d="M147.998 197.566C148.176 197.836 147.98 198.278 147.318 198.799L145.461 199.829C144.666 200.116 144.182 200.05 144.04 199.752C143.896 199.454 144.124 199.003 144.754 198.49L146.53 197.505C147.303 197.24 147.81 197.283 147.996 197.566H147.998Z" fill="#00B086"/>
<path d="M154.835 191.7C155.08 191.912 155.015 192.397 154.53 193.087L153.043 194.596C152.328 195.058 151.831 195.111 151.612 194.861C151.394 194.611 151.504 194.13 151.998 193.495L153.421 192.048C154.084 191.575 154.578 191.477 154.834 191.7H154.835Z" fill="#00B086"/>
<path d="M160.033 184.354C160.318 184.508 160.36 184.994 160.036 185.764L158.916 187.547C158.363 188.175 157.905 188.352 157.632 188.163C157.359 187.973 157.335 187.473 157.641 186.719L158.722 184.996C159.271 184.391 159.734 184.19 160.034 184.354H160.033Z" fill="#00B086"/>
<path d="M163.723 176.153C164.03 176.261 164.158 176.733 163.977 177.546L163.198 179.489C162.766 180.202 162.346 180.459 162.041 180.324C161.736 180.19 161.623 179.705 161.789 178.905L162.548 177.012C162.982 176.318 163.4 176.041 163.722 176.153H163.723Z" fill="#00B086"/>
<path d="M166.217 167.516C166.536 167.587 166.722 168.042 166.65 168.868L166.132 170.887C165.798 171.646 165.414 171.959 165.093 171.868C164.772 171.777 164.596 171.311 164.657 170.497L165.166 168.513C165.505 167.767 165.884 167.442 166.217 167.516Z" fill="#00B086"/>
<path d="M167.849 158.682C168.171 158.73 168.397 159.17 168.397 159.997L168.058 162.043C167.791 162.825 167.435 163.171 167.107 163.112C166.778 163.053 166.562 162.608 166.553 161.787L166.888 159.761C167.161 158.986 167.51 158.632 167.848 158.682H167.849Z" fill="#00B086"/>
<path d="M169.056 149.773C169.379 149.814 169.619 150.249 169.648 151.073L169.382 153.124C169.144 153.912 168.8 154.273 168.468 154.229C168.137 154.186 167.906 153.751 167.868 152.928L168.133 150.881C168.38 150.094 168.715 149.731 169.054 149.773H169.056Z" fill="#00B086"/>
<path d="M170.277 140.867C170.599 140.915 170.834 141.357 170.852 142.179L170.558 144.216C170.308 144.998 169.96 145.358 169.629 145.315C169.298 145.271 169.071 144.835 169.046 144.009L169.341 141.959C169.598 141.171 169.938 140.817 170.276 140.868L170.277 140.867Z" fill="#00B086"/>
<path d="M171.947 132.043C172.264 132.116 172.47 132.573 172.438 133.39L172.019 135.397C171.721 136.16 171.35 136.499 171.022 136.439C170.694 136.38 170.494 135.934 170.522 135.106L170.947 133.069C171.255 132.299 171.616 131.967 171.949 132.044L171.947 132.043Z" fill="#00B086"/>
<path d="M174.514 123.434C174.82 123.546 174.97 124.025 174.843 124.832L174.197 126.769C173.814 127.49 173.406 127.788 173.085 127.695C172.764 127.603 172.618 127.139 172.741 126.317L173.402 124.335C173.798 123.602 174.194 123.316 174.514 123.434Z" fill="#00B086"/>
<path d="M178.314 115.288C178.597 115.448 178.669 115.948 178.419 116.722L177.481 118.531C176.991 119.182 176.539 119.417 176.237 119.28C175.933 119.143 175.859 118.664 176.11 117.869L177.076 116.006C177.583 115.339 178.018 115.12 178.314 115.289V115.288Z" fill="#00B086"/>
<path d="M183.606 108.017C183.847 108.235 183.812 108.74 183.411 109.446L182.128 111.017C181.518 111.552 181.026 111.693 180.753 111.501C180.481 111.309 180.505 110.83 180.916 110.1L182.25 108.464C182.885 107.912 183.354 107.788 183.606 108.017Z" fill="#00B086"/>
<path d="M188.868 103.355C189.059 103.617 189.053 103.99 188.782 104.369L187.885 105.062C187.448 105.231 187.08 105.144 186.864 104.892C186.648 104.641 186.644 104.284 186.924 103.889L187.863 103.163C188.32 102.989 188.668 103.08 188.867 103.355H188.868Z" fill="#00B086"/>
<path d="M152.436 156.603C152.046 155.04 151.836 153.408 151.836 151.736C151.836 140.626 160.946 131.614 172.176 131.614C172.246 131.614 172.316 131.614 172.386 131.614C176.106 126.065 182.486 122.404 189.726 122.404C197.396 122.404 204.096 126.52 207.696 132.633C217.356 135.561 224.376 144.455 224.376 154.971C224.376 155.999 224.306 157.009 224.166 158.008C226.906 160.877 227.796 165.279 226.326 169.176L222.586 179.059C222.056 178.782 221.506 178.535 220.916 178.357C220.186 178.139 219.426 177.991 218.626 177.951L213.626 177.704C212.236 177.496 211.006 177.081 209.926 176.507C207.106 177.684 204.006 178.337 200.746 178.337C196.326 178.337 192.196 177.13 188.656 175.043C187.826 175.092 186.976 175.122 186.126 175.122C180.356 175.122 175.026 173.885 170.646 171.788C170.586 171.788 170.526 171.788 170.476 171.778C170.126 172.174 169.756 172.56 169.356 172.906C169.346 172.896 169.326 172.886 169.316 172.876C169.236 172.975 169.146 173.054 169.066 173.143C167.296 174.627 165.096 175.607 162.346 175.735L157.346 175.488C156.556 175.448 155.776 175.518 155.026 175.666C154.426 175.785 153.856 175.973 153.296 176.2L150.586 165.991C149.706 162.677 150.456 159.185 152.426 156.613L152.436 156.603Z" fill="#250F5B"/>
<path d="M222.586 179.612C222.656 179.612 222.716 179.602 222.786 179.573C222.936 179.513 223.056 179.404 223.106 179.256L226.846 169.373C228.356 165.387 227.536 160.885 224.756 157.829C224.876 156.859 224.936 155.9 224.936 154.98C224.936 144.474 218.166 135.343 208.066 132.187C204.226 125.816 197.216 121.869 189.726 121.869C182.656 121.869 176.086 125.302 172.096 131.079C160.616 131.129 151.296 140.378 151.296 151.745C151.296 153.337 151.486 154.94 151.856 156.493C149.866 159.224 149.196 162.805 150.076 166.129L152.786 176.338C152.826 176.486 152.926 176.615 153.076 176.684C153.216 176.753 153.386 176.763 153.536 176.704C154.126 176.466 154.656 176.308 155.166 176.199C155.906 176.051 156.646 176.001 157.346 176.031L162.346 176.278C165.076 176.15 167.446 175.23 169.456 173.558L169.606 173.4C169.656 173.38 169.706 173.35 169.756 173.311C170.066 173.034 170.386 172.727 170.686 172.4C175.256 174.547 180.596 175.675 186.156 175.675C186.936 175.675 187.726 175.655 188.556 175.606C192.256 177.752 196.476 178.89 200.786 178.89C203.956 178.89 207.026 178.296 209.936 177.119C211.056 177.683 212.276 178.059 213.576 178.257L218.626 178.514C219.326 178.554 220.056 178.682 220.776 178.9C221.276 179.048 221.786 179.266 222.346 179.563C222.426 179.602 222.516 179.622 222.606 179.622L222.586 179.612ZM189.716 122.957C196.886 122.957 203.596 126.776 207.216 132.919C207.286 133.038 207.396 133.127 207.536 133.166C217.276 136.124 223.826 144.889 223.826 154.98C223.826 155.929 223.756 156.928 223.626 157.947C223.606 158.106 223.656 158.274 223.776 158.393C226.406 161.143 227.206 165.307 225.816 168.997L222.296 178.316C221.886 178.128 221.486 177.97 221.096 177.851C220.286 177.604 219.466 177.465 218.676 177.426L213.676 177.179C212.466 176.991 211.276 176.615 210.216 176.041C210.066 175.962 209.896 175.952 209.736 176.021C206.896 177.208 203.886 177.812 200.776 177.812C196.616 177.812 192.536 176.704 188.966 174.597C188.866 174.537 188.766 174.508 188.646 174.517C187.776 174.577 186.956 174.597 186.146 174.597C180.656 174.597 175.386 173.459 170.916 171.312C170.856 171.283 170.786 171.263 170.716 171.263H170.556C170.376 171.233 170.206 171.302 170.096 171.441C169.786 171.787 169.476 172.114 169.156 172.4C169.066 172.43 168.986 172.48 168.926 172.549C168.896 172.588 168.856 172.628 168.826 172.658C168.776 172.707 168.736 172.757 168.686 172.806C166.936 174.26 164.786 175.091 162.356 175.21L157.416 174.963C156.626 174.923 155.796 174.982 154.966 175.151C154.566 175.23 154.156 175.339 153.716 175.487L151.166 165.861C150.346 162.775 150.996 159.441 152.916 156.958C153.016 156.83 153.056 156.651 153.016 156.493C152.626 154.94 152.426 153.347 152.426 151.755C152.426 140.962 161.306 132.177 172.216 132.177H172.306H172.406C172.626 132.157 172.766 132.088 172.876 131.93C176.646 126.311 182.956 122.957 189.756 122.957H189.716Z" fill="#250F5B"/>
<path d="M165.836 201.268H206.816V244.686H165.836V201.268Z" fill="#F9C7EF"/>
<path d="M165.826 245.229H206.806C207.106 245.229 207.356 244.982 207.356 244.685V201.267C207.356 200.96 207.106 200.723 206.806 200.723H165.826C165.516 200.723 165.276 200.97 165.276 201.267V244.685C165.276 244.992 165.526 245.229 165.826 245.229ZM206.266 244.141H166.386V201.821H206.266V244.141Z" fill="#250F5B"/>
<path d="M178.226 211.575C178.226 211.575 195.756 223.466 206.786 224.634V203.424L178.226 211.575Z" fill="#250F5B"/>
<path d="M145.576 177.198C145.886 171.173 151.066 166.544 157.156 166.85L159.756 166.979L158.636 188.782L156.036 188.654C149.946 188.347 145.266 183.223 145.576 177.198Z" fill="#F9C7EF"/>
<path d="M158.636 189.327C158.926 189.327 159.176 189.099 159.186 188.813L160.306 167.009C160.326 166.713 160.086 166.455 159.786 166.436L157.186 166.307C154.096 166.159 151.126 167.197 148.826 169.245C146.526 171.293 145.176 174.112 145.016 177.169C144.856 180.226 145.916 183.164 147.996 185.439C150.066 187.714 152.916 189.05 156.006 189.198L158.606 189.327C158.606 189.327 158.626 189.327 158.636 189.327ZM159.176 167.494L158.116 188.209L156.066 188.11C153.266 187.972 150.696 186.765 148.816 184.707C146.936 182.649 145.986 179.998 146.126 177.228C146.266 174.458 147.486 171.916 149.566 170.056C151.646 168.196 154.336 167.257 157.126 167.395L159.176 167.494Z" fill="#250F5B"/>
<path d="M218.626 169.927C224.716 170.234 229.396 175.358 229.086 181.383C228.776 187.408 223.596 192.037 217.506 191.731L214.906 191.602L216.026 169.799L218.626 169.927Z" fill="#F9C7EF"/>
<path d="M218.076 192.304C220.946 192.304 223.686 191.265 225.836 189.346C228.136 187.298 229.486 184.479 229.646 181.422C229.966 175.11 225.036 169.709 218.656 169.393L216.056 169.264C215.786 169.254 215.496 169.482 215.476 169.778L214.356 191.582C214.356 191.73 214.396 191.869 214.496 191.977C214.596 192.086 214.736 192.146 214.876 192.155L217.476 192.284C217.676 192.294 217.876 192.304 218.076 192.304ZM218.596 170.481C224.366 170.768 228.826 175.655 228.536 181.363C228.396 184.133 227.176 186.675 225.096 188.535C223.016 190.395 220.336 191.334 217.536 191.196L215.486 191.097L216.546 170.382L218.596 170.481Z" fill="#250F5B"/>
<path d="M158.636 188.782L159.756 166.979L159.986 162.577C160.076 160.757 160.356 158.996 160.776 157.284C176.616 159.659 193.146 155.781 206.406 145.77C208.796 150.864 212.026 155.524 215.936 159.57C216.246 161.459 216.356 163.408 216.256 165.406L216.026 169.808L214.906 191.612L214.866 192.334C214.076 207.707 200.846 219.529 185.306 218.757C169.766 217.975 157.816 204.888 158.596 189.515L158.636 188.792V188.782Z" fill="#F9C7EF"/>
<path d="M186.756 219.331C201.936 219.331 214.646 207.52 215.426 192.354L216.806 165.427C216.906 163.448 216.806 161.45 216.486 159.481C216.466 159.372 216.416 159.273 216.336 159.184C212.436 155.148 209.266 150.558 206.906 145.533C206.836 145.384 206.696 145.275 206.536 145.236C206.376 145.196 206.196 145.236 206.066 145.335C193.286 154.98 176.806 159.135 160.856 156.741C160.576 156.701 160.306 156.879 160.236 157.147C159.796 158.917 159.526 160.738 159.426 162.538L158.046 189.466C157.246 205.116 169.456 218.49 185.276 219.282C185.766 219.311 186.256 219.321 186.746 219.321L186.756 219.331ZM215.416 159.818C215.696 161.658 215.796 163.527 215.706 165.367L214.326 192.295C213.556 207.341 200.586 218.955 185.346 218.194C170.136 217.432 158.396 204.572 159.166 189.525L159.206 188.803L160.546 162.597C160.626 161.024 160.846 159.442 161.206 157.888C177.066 160.124 193.406 156.029 206.206 146.601C208.556 151.439 211.656 155.88 215.426 159.808L215.416 159.818Z" fill="#250F5B"/>
<path d="M177.616 176.297C177.556 177.484 176.536 178.395 175.336 178.335C174.136 178.276 173.216 177.267 173.276 176.08C173.336 174.893 174.356 173.982 175.556 174.042C176.756 174.101 177.676 175.11 177.616 176.297Z" fill="#250F5B"/>
<path d="M202.926 177.573C202.866 178.76 201.846 179.67 200.646 179.611C199.446 179.551 198.526 178.542 198.586 177.355C198.646 176.168 199.666 175.258 200.866 175.317C202.066 175.377 202.986 176.386 202.926 177.573Z" fill="#250F5B"/>
<path d="M153.726 180.066C153.846 180.066 153.956 180.027 154.056 179.957L156.116 178.434C156.336 178.266 156.476 178.009 156.476 177.732C156.476 177.455 156.356 177.197 156.136 177.019L153.976 175.318C153.736 175.13 153.396 175.169 153.196 175.407C153.006 175.644 153.046 175.991 153.286 176.179L155.246 177.722L153.396 179.097C153.156 179.275 153.106 179.621 153.286 179.859C153.396 180.007 153.556 180.076 153.726 180.076V180.066Z" fill="#250F5B"/>
<path d="M220.426 183.421C220.576 183.421 220.726 183.361 220.836 183.243C221.046 183.025 221.026 182.679 220.806 182.471L219.106 180.928L221.206 179.592C221.466 179.424 221.536 179.088 221.376 178.84C221.206 178.583 220.866 178.514 220.616 178.672L218.296 180.156C218.056 180.304 217.906 180.552 217.886 180.829C217.866 181.106 217.966 181.373 218.176 181.561L220.066 183.282C220.176 183.381 220.306 183.431 220.436 183.431L220.426 183.421Z" fill="#250F5B"/>
<path d="M180.366 161.419C179.746 161.854 178.836 161.963 177.966 162.111C177.086 162.24 176.206 162.398 175.446 162.557C174.686 162.715 173.816 162.933 172.966 163.16C172.116 163.378 171.236 163.645 170.496 163.496C169.786 163.358 169.356 162.636 169.916 161.508C170.436 160.42 172.116 159.005 174.636 158.461C177.146 157.937 179.236 158.56 180.136 159.351C181.086 160.153 180.966 161.003 180.366 161.409V161.419Z" fill="#250F5B"/>
<path d="M196.816 162.091C197.386 162.586 198.276 162.783 199.126 163.021C199.986 163.238 200.846 163.486 201.586 163.713C202.326 163.951 203.166 164.248 203.996 164.564C204.826 164.861 205.666 165.217 206.416 165.148C207.136 165.088 207.646 164.406 207.196 163.229C206.786 162.091 205.266 160.518 202.816 159.727C200.366 158.955 198.236 159.361 197.256 160.063C196.226 160.765 196.266 161.616 196.816 162.091Z" fill="#250F5B"/>
<path d="M176.986 188.039C177.636 187.465 178.606 187.445 179.326 187.93C180.636 188.81 183.436 190.314 187.106 190.156C188.006 190.116 188.616 191.076 188.356 191.927C187.776 193.806 185.936 196.833 180.946 195.339C174.866 193.519 175.296 189.552 176.986 188.049V188.039Z" fill="#F9F8F6"/>
<path d="M183.426 196.28C187.236 196.28 188.536 193.183 188.876 192.075C189.066 191.462 188.936 190.799 188.546 190.285C188.186 189.82 187.646 189.573 187.076 189.592C183.596 189.741 180.916 188.326 179.626 187.465C178.676 186.822 177.426 186.892 176.606 187.624C175.576 188.534 175.116 190.018 175.426 191.393C175.686 192.53 176.716 194.628 180.776 195.835C181.766 196.131 182.646 196.26 183.426 196.26V196.28ZM187.156 190.7C187.426 190.7 187.596 190.868 187.676 190.967C187.856 191.195 187.906 191.492 187.826 191.769C187.296 193.5 185.706 196.191 181.106 194.816C178.496 194.034 176.876 192.748 176.516 191.175C176.246 189.958 176.796 188.949 177.356 188.455C177.806 188.059 178.486 188.029 179.016 188.385C180.406 189.325 183.316 190.868 187.126 190.7C187.126 190.7 187.146 190.7 187.156 190.7Z" fill="#250F5B"/>
<path d="M190.316 184.676C191.176 184.676 191.986 184.31 192.556 183.657C193.186 182.935 193.426 181.985 193.206 181.055L190.116 167.829C190.046 167.532 189.746 167.354 189.456 167.423C189.156 167.492 188.976 167.789 189.046 168.076L192.136 181.302C192.276 181.886 192.126 182.48 191.726 182.935C191.326 183.39 190.756 183.617 190.146 183.568L184.156 183.053C183.856 183.034 183.586 183.251 183.556 183.548C183.526 183.845 183.756 184.112 184.056 184.142L190.046 184.656C190.136 184.656 190.226 184.666 190.316 184.666V184.676Z" fill="#250F5B"/>
<path d="M189.716 208.924C189.716 208.924 188.106 207.173 184.826 208.855Z" fill="#E6B7B1"/>
<path d="M189.716 209.469C189.846 209.469 189.986 209.419 190.096 209.32C190.316 209.112 190.336 208.776 190.126 208.558C190.046 208.469 188.186 206.521 184.566 208.371C184.296 208.509 184.186 208.835 184.326 209.112C184.466 209.38 184.796 209.488 185.066 209.35C187.896 207.896 189.246 209.251 189.296 209.3C189.406 209.409 189.556 209.469 189.696 209.469H189.716Z" fill="#250F5B"/>
<path d="M109.49 153.507C134.613 153.507 154.98 133.359 154.98 108.505C154.98 83.6517 134.613 63.5039 109.49 63.5039C84.3666 63.5039 64 83.6517 64 108.505C64 133.359 84.3666 153.507 109.49 153.507Z" fill="#FF6262"/>
<path d="M105.72 89.1057V92.6175L107.55 92.7857C107.8 93.9629 108.27 95.061 108.91 96.0305L107.74 97.4352L110.25 99.9183L111.67 98.7608C112.65 99.4038 113.76 99.8688 114.95 100.106L115.12 101.917H118.67L118.84 100.106C120.03 99.8589 121.14 99.3939 122.12 98.7608L123.54 99.9183L126.05 97.4352L124.88 96.0305C125.52 95.061 126 93.9629 126.24 92.7857L128.07 92.6175V89.1057L126.24 88.9375C125.99 87.7603 125.52 86.6622 124.88 85.6927L126.05 84.288L123.54 81.8049L122.12 82.9624C121.14 82.3292 120.03 81.8544 118.84 81.617L118.67 79.8066H115.12L114.95 81.617C113.76 81.8643 112.65 82.3292 111.67 82.9624L110.25 81.8049L107.74 84.288L108.91 85.6927C108.27 86.6622 107.79 87.7603 107.55 88.9375L105.72 89.1057ZM116.89 86.1082C119.54 86.1082 121.7 88.2351 121.7 90.8665C121.7 93.498 119.55 95.6249 116.89 95.6249C114.23 95.6249 112.08 93.498 112.08 90.8665C112.08 88.2351 114.23 86.1082 116.89 86.1082Z" fill="#F5F5F5"/>
<path d="M108.01 114.727C108.94 114.539 109.81 114.173 110.58 113.669L111.69 114.579L113.66 112.63L112.74 111.532C113.25 110.77 113.62 109.91 113.81 108.99L115.24 108.861V106.111L113.81 105.982C113.62 105.062 113.25 104.202 112.74 103.44L113.66 102.342L111.69 100.393L110.58 101.303C109.81 100.799 108.94 100.433 108.01 100.245L107.88 98.8301H105.1L104.97 100.245C104.04 100.433 103.17 100.799 102.4 101.303L101.29 100.393L99.3201 102.342L100.24 103.44C99.7301 104.202 99.3701 105.062 99.1701 105.982L97.7401 106.111V108.861L99.1701 108.99C99.3601 109.91 99.7301 110.77 100.24 111.532L99.3201 112.63L101.29 114.579L102.4 113.669C103.17 114.173 104.04 114.539 104.97 114.727L105.1 116.142H107.88L108.01 114.727ZM102.72 107.486C102.72 105.428 104.41 103.757 106.49 103.757C108.57 103.757 110.26 105.428 110.26 107.486C110.26 109.544 108.57 111.216 106.49 111.216C104.41 111.216 102.72 109.544 102.72 107.486Z" fill="#F5F5F5"/>
<path d="M100.77 99.2051L101.54 100.125L103.47 98.8193L102.88 97.7706C103.42 97.2167 103.86 96.5637 104.16 95.8416L105.36 95.9504L105.79 93.6751L104.63 93.3487C104.62 92.5573 104.45 91.7955 104.15 91.0833L105.08 90.3215L103.76 88.4123L102.7 88.9959C102.14 88.4617 101.48 88.0265 100.75 87.7297L100.86 86.5426L98.56 86.1172L98.23 87.2647C97.43 87.2746 96.66 87.4428 95.94 87.7396L95.17 86.8196L93.24 88.1254L93.83 89.174C93.29 89.728 92.85 90.371 92.55 91.103L91.35 90.9942L90.92 93.2695L92.08 93.596C92.09 94.3874 92.26 95.1491 92.56 95.8614L91.63 96.6231L92.95 98.5324L94.01 97.9487C94.57 98.4829 95.22 98.9182 95.96 99.215L95.85 100.402L98.15 100.827L98.48 99.6799C99.28 99.67 100.05 99.5018 100.77 99.2051ZM95.25 92.8837C95.57 91.1822 97.23 90.0643 98.95 90.3908C100.67 90.7073 101.8 92.3495 101.47 94.051C101.15 95.7526 99.49 96.8704 97.77 96.544C96.05 96.2274 94.92 94.5852 95.25 92.8837Z" fill="#F5F5F5"/>
<path opacity="0.4" d="M131.74 131.465H87.23C85.54 131.465 84.16 130.109 84.16 128.428C84.16 126.756 85.53 125.391 87.23 125.391H131.74C133.43 125.391 134.81 126.746 134.81 128.428C134.81 130.099 133.44 131.465 131.74 131.465Z" fill="black"/>
<path d="M87.24 130.476C86.1 130.476 85.17 129.556 85.17 128.429C85.17 127.301 86.1 126.381 87.24 126.381H114.75C115.89 126.381 116.82 127.301 116.82 128.429C116.82 129.556 115.89 130.476 114.75 130.476H87.24Z" fill="#F5F5F5"/>
</svg>
