<svg width="244" height="305" viewBox="0 0 244 305" fill="none" xmlns="http://www.w3.org/2000/svg">
<path opacity="0.5" fill-rule="evenodd" clip-rule="evenodd" d="M263.207 132.782C276.707 118.684 285 99.5603 285 78.5C285 35.1456 249.854 0 206.5 0C167.976 0 135.933 27.7506 129.272 64.3523C120.013 61.5225 110.184 60 100 60C44.7715 60 0 104.772 0 160C0 215.228 44.7715 260 100 260C103.827 260 107.603 259.785 111.318 259.367C109.803 265.495 109 271.904 109 278.5C109 322.407 144.593 358 188.5 358C232.407 358 268 322.407 268 278.5C268 267.539 265.782 257.096 261.77 247.596C277.295 233.086 287 212.426 287 189.5C287 167.29 277.892 147.207 263.207 132.782Z" fill="#00B086"/>
<g opacity="0.75">
<path d="M169.679 293.535L136.56 259.364C136.345 259.138 136.345 258.776 136.572 258.56C136.798 258.345 137.149 258.345 137.376 258.572L169.724 291.939L205.661 258.221L248.256 291.248C248.505 291.441 248.551 291.792 248.358 292.041C248.166 292.29 247.815 292.335 247.566 292.143L205.74 259.704L169.69 293.524L169.679 293.535Z" fill="#121936"/>
<path d="M136.967 267.935C141.92 267.935 145.935 263.92 145.935 258.967C145.935 254.015 141.92 250 136.967 250C132.015 250 128 254.015 128 258.967C128 263.92 132.015 267.935 136.967 267.935Z" fill="#DB504A"/>
<path d="M214.651 258.967C214.651 263.915 210.642 267.935 205.683 267.935C200.724 267.935 196.716 263.927 196.716 258.967C196.716 254.008 200.724 250 205.683 250C210.642 250 214.651 254.008 214.651 258.967Z" fill="#DB504A"/>
<path d="M178.554 293.149C179.348 288.26 176.028 283.654 171.14 282.861C166.251 282.067 161.645 285.387 160.851 290.275C160.058 295.164 163.378 299.77 168.266 300.564C173.155 301.357 177.761 298.038 178.554 293.149Z" fill="#FBC108"/>
<path d="M256.81 292.802C257.415 287.886 253.921 283.411 249.006 282.805C244.09 282.2 239.615 285.694 239.01 290.61C238.404 295.525 241.898 300 246.814 300.606C251.729 301.211 256.205 297.717 256.81 292.802Z" fill="#FBC108"/>
</g>
<g opacity="0.75">
<path d="M279.651 183.23C282.7 180.561 282.955 175.653 278.463 170.52L226.491 111.17C221.999 106.037 215.884 104.04 212.835 106.709C209.787 109.378 210.963 115.699 215.455 120.831L267.427 180.182C271.918 185.314 276.603 185.899 279.651 183.23Z" fill="#576184"/>
<path d="M275.57 185.109C275.066 185.109 274.543 185.053 274.014 184.941C271.725 184.449 269.367 182.875 267.19 180.393L215.217 121.042C210.62 115.792 209.457 109.253 212.623 106.479C215.796 103.704 222.117 105.72 226.714 110.97L278.686 170.327C280.845 172.797 282.058 175.379 282.183 177.792C282.301 180.032 281.474 182.048 279.844 183.472C278.606 184.561 277.144 185.115 275.557 185.115L275.57 185.109ZM216.294 105.825C215.025 105.825 213.899 106.18 213.04 106.939C210.128 109.49 211.317 115.63 215.69 120.626L267.662 179.976C269.747 182.359 271.992 183.864 274.145 184.325C276.129 184.748 277.965 184.294 279.445 182.993C280.926 181.699 281.679 179.858 281.573 177.811C281.455 175.534 280.298 173.083 278.226 170.719L226.254 111.368C223.174 107.847 219.323 105.825 216.294 105.825Z" fill="#353148"/>
<path d="M228.897 114.242L218.605 123.255C217.215 124.472 215.104 124.328 213.89 122.943L210.095 118.609C208.878 117.219 209.018 115.103 210.408 113.886L220.7 104.873C222.09 103.656 224.201 103.8 225.414 105.185L229.209 109.519C230.427 110.909 230.283 113.02 228.897 114.233L228.897 114.242Z" fill="#DB504A"/>
<path d="M216.406 124.39C216.325 124.39 216.244 124.39 216.157 124.384C215.181 124.322 214.291 123.88 213.65 123.146L209.855 118.81C208.53 117.292 208.679 114.978 210.197 113.652L220.487 104.638C221.221 103.997 222.167 103.68 223.138 103.742C224.114 103.804 225.004 104.246 225.645 104.98L229.44 109.316C230.08 110.05 230.404 110.99 230.335 111.967C230.273 112.943 229.832 113.833 229.097 114.474L218.801 123.488C218.129 124.079 217.283 124.397 216.4 124.397L216.406 124.39ZM222.895 104.358C222.161 104.358 221.458 104.619 220.898 105.111L210.608 114.125C209.351 115.226 209.221 117.149 210.322 118.405L214.117 122.742C214.652 123.351 215.392 123.718 216.195 123.768C217.01 123.824 217.787 123.557 218.391 123.022L228.687 114.007C229.297 113.472 229.664 112.732 229.713 111.929C229.769 111.12 229.502 110.343 228.967 109.733L225.172 105.397C224.637 104.787 223.896 104.42 223.094 104.37C223.026 104.37 222.957 104.364 222.889 104.364L222.895 104.358Z" fill="#121936"/>
<path d="M227.772 115.077C227.685 115.077 227.598 115.039 227.535 114.971L220.848 107.25C220.736 107.12 220.748 106.927 220.879 106.809C221.009 106.697 221.202 106.709 221.32 106.84L228.008 114.56C228.12 114.691 228.108 114.884 227.977 114.996C227.921 115.045 227.847 115.07 227.772 115.07V115.077Z" fill="#121936"/>
<path d="M225.053 117.951C224.966 117.951 224.879 117.914 224.816 117.846L221.476 113.989C221.364 113.858 221.376 113.665 221.507 113.547C221.637 113.435 221.83 113.447 221.942 113.578L225.283 117.435C225.395 117.566 225.383 117.759 225.252 117.871C225.196 117.92 225.121 117.945 225.047 117.945L225.053 117.951Z" fill="#121936"/>
<path d="M163.562 109.06C177.61 125.104 202.01 126.722 218.054 112.674C234.099 98.6268 235.716 74.2272 221.669 58.1826C207.621 42.1318 183.222 40.5143 167.177 54.5619C151.132 68.6156 149.515 93.009 163.562 109.06ZM172.621 60.4285C185.349 49.28 204.703 50.5678 215.852 63.2965C227 76.0251 225.713 95.3793 212.984 106.528C200.255 117.676 180.901 116.388 169.753 103.66C158.604 90.9312 159.892 71.5769 172.621 60.4285Z" fill="#121936"/>
<path opacity="0.47" d="M168.95 104.263C180.534 117.49 200.647 118.827 213.879 107.243C227.106 95.6593 228.443 75.5461 216.859 62.3136C205.275 49.081 185.162 47.7497 171.93 59.3336C158.703 70.9175 157.366 91.0308 168.95 104.263Z" fill="white"/>
<path opacity="0.69" d="M182.805 70.0277C185.828 73.4805 191.085 73.8289 194.538 70.8053C197.991 67.7818 198.339 62.5249 195.316 59.0721C192.292 55.6193 187.035 55.2709 183.582 58.2944C180.13 61.318 179.781 66.5749 182.805 70.0277Z" fill="white"/>
</g>
<g opacity="0.75">
<path d="M92.5 227C59.6462 227 33 200.366 33 167.5C33 134.634 59.6339 108 92.5 108C93.2484 108 92.8435 226.988 92.5 226.988V227Z" fill="#FBC108"/>
<path d="M156.993 167.512C156.993 134.658 130.359 108.012 97.4927 108.012C97.1124 108.012 97.0265 137.05 97.0878 167.757C97.0878 167.978 156.98 167.757 156.98 167.512H156.993Z" fill="#DB504A"/>
<path d="M98.4499 217.111C97.9346 217.111 97.6565 209.554 97.6156 194.44C97.6034 188.931 97.6034 183.423 97.6156 179.289C97.6238 174.292 97.8446 171.793 98.2781 171.793C142.136 171.707 142.419 171.989 142.688 172.259C142.799 172.37 142.872 172.541 142.872 172.701C142.872 197.188 122.949 217.111 98.4621 217.111H98.4499ZM98.8547 173.02C98.7443 177.89 98.867 211.357 99.0142 215.884C122.385 215.578 141.351 196.611 141.633 173.241C138.714 173.057 122.741 172.971 98.8547 173.02Z" fill="#121936"/>
</g>
<path d="M103.767 207.012C107.44 199.166 115.257 194.593 123.374 194.636C123.188 190.992 123.874 187.248 125.517 183.718C129.519 175.186 138.064 170.256 146.925 170.442C149.526 149.735 167.175 133.715 188.582 133.715C209.99 133.715 227.739 149.82 230.254 170.613C239.943 169.356 249.746 174.386 254.119 183.718C255.777 187.248 256.449 190.992 256.263 194.636C264.394 194.593 272.197 199.166 275.87 207.012C280.557 217.015 276.87 228.791 267.681 234.464C265.58 243.467 259.55 251.47 250.532 255.7C236.313 262.374 219.636 257.358 211.233 244.611C211.076 244.653 210.918 244.696 210.761 244.739C204.316 248.769 196.713 251.099 188.553 251.099C180.965 251.099 173.848 249.069 167.718 245.554C159.129 257.601 142.938 262.202 129.076 255.7C120.058 251.47 114.028 243.467 111.927 234.464C102.738 228.805 99.051 217.03 103.738 207.012H103.767Z" fill="#291C5B"/>
<path d="M142.323 259.344C152.169 259.344 161.773 254.771 167.946 246.468C174.249 249.955 181.365 251.798 188.582 251.798C196.513 251.798 204.245 249.612 210.976 245.453C219.736 258.244 236.77 262.931 250.847 256.329C259.664 252.199 266.023 244.396 268.31 234.893C277.742 228.919 281.271 216.843 276.513 206.697C272.954 199.109 265.352 194.164 256.992 193.921C257.063 190.306 256.291 186.676 254.748 183.403C250.446 174.214 240.886 168.812 230.854 169.827C227.953 148.791 209.904 133 188.568 133C167.232 133 149.24 148.734 146.296 169.713C137.136 169.77 128.776 175.086 124.874 183.403C123.331 186.676 122.573 190.306 122.631 193.921C114.27 194.164 106.668 199.109 103.109 206.697C98.3507 216.843 101.88 228.905 111.312 234.893C113.613 244.382 119.958 252.184 128.776 256.329C133.134 258.372 137.736 259.344 142.295 259.344H142.323ZM167.746 244.839C167.532 244.839 167.303 244.939 167.175 245.139C158.614 257.129 142.738 261.302 129.404 255.057C120.887 251.07 114.785 243.496 112.641 234.292C112.598 234.107 112.484 233.949 112.327 233.849C103.324 228.305 99.9083 216.886 104.41 207.297C107.825 200.023 115.228 195.322 123.288 195.322C123.317 195.322 123.359 195.322 123.388 195.322C123.574 195.322 123.76 195.25 123.902 195.107C124.031 194.964 124.103 194.779 124.103 194.593C123.917 190.963 124.646 187.305 126.189 184.003C129.947 176.001 138.107 170.927 146.939 171.128H146.953C147.311 171.128 147.611 170.87 147.654 170.513C150.24 149.934 167.846 134.415 188.611 134.415C209.375 134.415 227.081 150.006 229.596 170.699C229.625 170.885 229.711 171.056 229.868 171.17C230.011 171.285 230.197 171.342 230.397 171.313C240.086 170.056 249.389 175.172 253.533 184.018C255.077 187.305 255.791 190.963 255.62 194.607C255.62 194.793 255.677 194.993 255.82 195.122C255.948 195.265 256.148 195.379 256.334 195.336C256.363 195.336 256.406 195.336 256.434 195.336C264.494 195.336 271.897 200.023 275.312 207.297C279.8 216.886 276.398 228.305 267.395 233.849C267.238 233.949 267.124 234.107 267.081 234.292C264.937 243.496 258.835 251.055 250.318 255.057C236.699 261.43 220.193 256.786 211.904 244.224C211.733 243.967 211.404 243.853 211.104 243.939C211.033 243.967 210.961 243.981 210.89 243.996L210.647 244.053C210.647 244.053 210.533 244.096 210.475 244.124C203.93 248.212 196.37 250.369 188.639 250.369C181.451 250.369 174.363 248.483 168.146 244.925C168.032 244.867 167.918 244.825 167.803 244.825L167.746 244.839Z" fill="#291C5B"/>
<path d="M222.223 185.932H223.309C230.54 185.932 236.399 191.791 236.399 199.022C236.399 206.253 230.54 212.112 223.309 212.112H222.137C222.18 211.355 222.223 210.597 222.223 209.84V185.932Z" fill="#F174A9"/>
<path d="M222.137 212.827H223.309C230.911 212.827 237.099 206.639 237.099 199.037C237.099 191.434 230.911 185.246 223.309 185.246H222.223C221.837 185.246 221.522 185.56 221.522 185.946V209.855C221.522 210.598 221.494 211.341 221.437 212.084C221.437 212.284 221.494 212.47 221.622 212.613C221.751 212.756 221.937 212.841 222.137 212.841V212.827ZM223.309 186.647C230.14 186.647 235.699 192.206 235.699 199.037C235.699 205.868 230.14 211.427 223.309 211.427H222.88C222.908 210.912 222.923 210.383 222.923 209.855V186.647H223.309Z" fill="#291C5B"/>
<path d="M150.283 185.934H151.369V209.842C151.369 210.614 151.397 211.357 151.455 212.114H150.283C143.052 212.114 137.192 206.255 137.192 199.024C137.192 191.793 143.052 185.934 150.283 185.934Z" fill="#F174A9"/>
<path d="M150.283 212.828H151.455C151.655 212.828 151.841 212.742 151.969 212.599C152.098 212.456 152.169 212.27 152.155 212.07C152.112 211.327 152.069 210.584 152.069 209.841V185.933C152.069 185.547 151.755 185.232 151.369 185.232H150.283C142.68 185.232 136.492 191.42 136.492 199.023C136.492 206.626 142.68 212.813 150.283 212.813V212.828ZM150.712 211.413H150.283C143.452 211.413 137.893 205.854 137.893 199.023C137.893 192.192 143.452 186.633 150.283 186.633H150.669V209.841C150.669 210.37 150.683 210.899 150.712 211.413Z" fill="#291C5B"/>
<path d="M164.245 174.729C165.603 171.728 166.131 168.57 165.903 165.512C174.506 168.899 184.238 165.583 189.039 157.838C190.954 160.939 193.784 163.526 197.356 165.155C201.286 166.941 205.502 167.255 209.418 166.369C209.232 173.786 213.405 180.932 220.579 184.19C221.122 184.433 221.665 184.647 222.222 184.833V209.856C222.222 210.628 222.194 211.371 222.136 212.128C220.965 230.635 205.588 245.268 186.796 245.268C168.003 245.268 152.627 230.62 151.455 212.128C151.412 211.371 151.369 210.613 151.369 209.856V185.333C156.857 184.004 161.715 180.274 164.245 174.729Z" fill="#F174A9"/>
<path d="M186.796 245.968C205.803 245.968 221.637 231.12 222.837 212.156C222.88 211.384 222.923 210.613 222.923 209.841V184.818C222.923 184.518 222.737 184.246 222.451 184.146C221.865 183.946 221.351 183.746 220.879 183.532C214.163 180.474 209.947 173.743 210.133 166.369C210.133 166.154 210.047 165.94 209.875 165.812C209.704 165.669 209.49 165.626 209.275 165.669C205.331 166.555 201.315 166.154 197.657 164.497C194.327 162.982 191.569 160.553 189.654 157.451C189.397 157.037 188.711 157.037 188.454 157.451C183.795 164.983 174.435 168.084 166.175 164.84C165.946 164.754 165.689 164.783 165.503 164.925C165.303 165.068 165.203 165.297 165.217 165.54C165.431 168.57 164.888 171.642 163.617 174.414C161.273 179.559 156.757 183.275 151.226 184.618C150.912 184.689 150.683 184.975 150.683 185.304V209.827C150.683 210.613 150.712 211.384 150.769 212.142C151.97 231.091 167.804 245.954 186.81 245.954L186.796 245.968ZM221.522 185.318V209.841C221.522 210.584 221.494 211.327 221.437 212.07C220.279 230.291 205.059 244.553 186.796 244.553C168.533 244.553 153.313 230.277 152.155 212.07C152.112 211.327 152.07 210.584 152.07 209.841V185.861C157.786 184.304 162.43 180.374 164.874 175C166.089 172.328 166.689 169.413 166.646 166.512C174.935 169.27 184.038 166.255 189.025 159.095C191.04 161.996 193.798 164.297 197.042 165.769C200.715 167.441 204.716 167.927 208.689 167.212C208.832 174.815 213.305 181.66 220.265 184.818C220.651 184.99 221.051 185.161 221.494 185.318H221.522Z" fill="#291C5B"/>
<path d="M227.838 201.682C228.039 201.682 228.239 201.596 228.381 201.425C228.624 201.125 228.582 200.682 228.296 200.439L226.209 198.695L228.61 196.98C228.925 196.752 228.996 196.309 228.767 195.994C228.539 195.68 228.11 195.608 227.781 195.837L225.08 197.766C224.795 197.966 224.623 198.295 224.609 198.638C224.609 198.995 224.737 199.324 225.009 199.538L227.381 201.511C227.51 201.625 227.667 201.668 227.824 201.668L227.838 201.682Z" fill="#291C5B"/>
<path d="M146.553 201.681C146.71 201.681 146.867 201.624 146.996 201.524L149.368 199.552C149.639 199.323 149.782 198.995 149.768 198.652C149.768 198.309 149.582 197.98 149.296 197.78L146.596 195.851C146.281 195.622 145.838 195.694 145.609 196.008C145.381 196.322 145.452 196.765 145.767 196.994L148.168 198.709L146.081 200.452C145.781 200.695 145.738 201.138 145.995 201.438C146.138 201.61 146.338 201.696 146.538 201.696L146.553 201.681Z" fill="#291C5B"/>
<path d="M176.45 194.964C176.45 196.408 175.278 197.565 173.849 197.565C172.42 197.565 171.248 196.393 171.248 194.964C171.248 193.535 172.42 192.363 173.849 192.363C175.278 192.363 176.45 193.535 176.45 194.964Z" fill="#291C5B"/>
<path d="M205.617 194.263C205.617 195.706 204.445 196.864 203.016 196.864C201.587 196.864 200.415 195.692 200.415 194.263C200.415 192.834 201.587 191.662 203.016 191.662C204.445 191.662 205.617 192.834 205.617 194.263Z" fill="#291C5B"/>
<path d="M179.25 176.157C178.535 176.728 177.449 176.9 176.42 177.143C175.377 177.357 174.334 177.6 173.434 177.843C172.533 178.086 171.504 178.4 170.49 178.729C169.475 179.043 168.446 179.429 167.56 179.286C166.703 179.172 166.131 178.315 166.746 176.914C167.303 175.571 169.232 173.742 172.205 172.941C175.177 172.155 177.721 172.784 178.85 173.684C180.036 174.599 179.95 175.628 179.25 176.171V176.157Z" fill="#291C5B"/>
<path d="M198.986 175.971C199.7 176.543 200.786 176.714 201.815 176.957C202.859 177.172 203.902 177.415 204.802 177.658C205.702 177.9 206.731 178.215 207.746 178.544C208.761 178.858 209.79 179.244 210.676 179.101C211.533 178.987 212.105 178.129 211.49 176.729C210.933 175.385 209.004 173.556 206.031 172.756C203.059 171.97 200.515 172.599 199.386 173.499C198.2 174.414 198.286 175.442 198.986 175.986V175.971Z" fill="#291C5B"/>
<path d="M174.878 209.383C175.592 208.754 176.664 208.74 177.45 209.283C178.879 210.283 181.937 211.984 185.967 211.841C186.953 211.812 187.611 212.87 187.311 213.827C186.653 215.9 184.595 219.244 179.122 217.529C172.463 215.442 172.991 211.027 174.863 209.383H174.878Z" fill="#F9F8F6"/>
<path d="M181.938 218.715C186.125 218.715 187.597 215.286 187.983 214.042C188.211 213.328 188.068 212.556 187.625 211.97C187.211 211.427 186.611 211.127 185.939 211.156C182.152 211.27 179.222 209.684 177.836 208.712C176.764 207.969 175.35 208.026 174.392 208.855C173.22 209.884 172.692 211.556 173.02 213.128C173.292 214.414 174.421 216.8 178.908 218.201C180.037 218.558 181.052 218.715 181.923 218.715H181.938ZM186.01 212.556C186.253 212.556 186.411 212.699 186.511 212.813C186.682 213.042 186.739 213.342 186.654 213.614C186.053 215.5 184.324 218.415 179.351 216.858C176.536 215.972 174.778 214.542 174.421 212.828C174.149 211.513 174.749 210.427 175.35 209.912C175.807 209.498 176.522 209.484 177.05 209.869C178.579 210.927 181.78 212.685 185.996 212.556H186.01Z" fill="#291C5B"/>
<path d="M188.854 206.354C190.226 206.354 191.512 205.811 192.484 204.81C193.584 203.667 194.07 202.124 193.842 200.552L191.855 187.504C191.812 187.19 191.498 186.961 191.184 187.019C190.869 187.061 190.641 187.362 190.698 187.69L192.684 200.738C192.87 201.938 192.484 203.124 191.641 204.01C190.798 204.882 189.626 205.311 188.425 205.182L184.996 204.796C184.667 204.753 184.381 204.996 184.353 205.311C184.324 205.639 184.553 205.925 184.867 205.954L188.297 206.34C188.483 206.354 188.683 206.368 188.869 206.368L188.854 206.354Z" fill="#201A58"/>
<path d="M199.772 202.338H208.032C212.134 202.338 215.478 198.994 215.478 194.892V190.634C215.478 189.405 214.477 188.404 213.248 188.404H197.043C195.285 188.404 193.856 189.833 193.856 191.591V196.421C193.856 199.68 196.514 202.338 199.772 202.338ZM213.248 189.576C213.834 189.576 214.306 190.048 214.306 190.634V194.892C214.306 198.351 211.49 201.166 208.032 201.166H199.772C197.157 201.166 195.028 199.037 195.028 196.421V191.591C195.028 190.476 195.928 189.576 197.043 189.576H213.248Z" fill="white"/>
<path d="M170.476 202.338H178.736C181.995 202.338 184.653 199.68 184.653 196.421V191.591C184.653 189.833 183.224 188.404 181.466 188.404H165.26C164.031 188.404 163.031 189.405 163.031 190.634V194.892C163.031 198.994 166.375 202.338 170.476 202.338ZM181.466 189.576C182.581 189.576 183.481 190.476 183.481 191.591V196.421C183.481 199.037 181.352 201.166 178.736 201.166H170.476C167.018 201.166 164.203 198.351 164.203 194.892V190.634C164.203 190.048 164.674 189.576 165.26 189.576H181.466Z" fill="white"/>
<path d="M184.539 193.778C184.639 193.778 184.753 193.749 184.839 193.692C190.012 190.563 193.142 193.492 193.27 193.607C193.499 193.835 193.87 193.821 194.099 193.607C194.328 193.378 194.328 193.006 194.099 192.778C194.056 192.735 190.212 189.076 184.238 192.692C183.967 192.863 183.867 193.221 184.038 193.492C184.153 193.678 184.338 193.778 184.539 193.778Z" fill="white"/>
</svg>
