<svg width="244" height="305" viewBox="0 0 244 305" fill="none" xmlns="http://www.w3.org/2000/svg">
<path opacity="0.5" fill-rule="evenodd" clip-rule="evenodd" d="M263.207 132.782C276.707 118.684 285 99.5603 285 78.5C285 35.1456 249.854 0 206.5 0C167.976 0 135.933 27.7506 129.272 64.3523C120.013 61.5225 110.184 60 100 60C44.7715 60 0 104.772 0 160C0 215.228 44.7715 260 100 260C103.827 260 107.603 259.785 111.318 259.367C109.803 265.495 109 271.904 109 278.5C109 322.407 144.593 358 188.5 358C232.407 358 268 322.407 268 278.5C268 267.539 265.782 257.096 261.77 247.596C277.295 233.086 287 212.426 287 189.5C287 167.29 277.892 147.207 263.207 132.782Z" fill="#00B086"/>
<path d="M237.431 89.6813L234.843 148L215.446 127.783C215.446 127.783 237.51 88.0458 237.667 88.7016L236.82 88.0007C237.473 87.8162 213.221 126.274 213.221 126.274L186 119.273L236.073 88.6811L237.431 89.6813Z" fill="#00B086"/>
<path d="M125 142.917V216.877C125 220.148 122.349 222.794 119.083 222.794H52.9224C49.6514 222.794 47 220.148 47 216.877V142.917C47 139.646 49.6509 137 52.9224 137H119.083C122.349 137 125 139.645 125 142.917Z" fill="#E1EBFF"/>
<path d="M91.566 208.417C91.566 209.959 90.6055 211.282 89.25 211.804V216.71C89.25 217.078 89.102 217.407 88.8601 217.644C88.6242 217.88 88.295 218.028 87.9324 218.028C87.2026 218.028 86.6097 217.441 86.6097 216.71V211.804C85.2542 211.277 84.2992 209.959 84.2992 208.417C84.2992 206.413 85.9239 204.783 87.9328 204.783C89.9418 204.783 91.5665 206.413 91.5665 208.417H91.566Z" fill="#C7D6F2"/>
<path d="M113.933 197.144C113.933 199.275 112.219 201.035 110.043 201.035H61.9605C59.8299 201.035 58.0702 199.275 58.0702 197.144C58.0702 195.014 59.8299 193.254 61.9605 193.254H110.043C112.219 193.254 113.933 194.967 113.933 197.144Z" fill="white"/>
<path d="M58.0701 184.176C58.0701 181.998 59.8298 180.285 61.9604 180.285H110.042C112.219 180.285 113.933 181.999 113.933 184.176C113.933 186.354 112.219 188.067 110.042 188.067H61.9604C59.8298 188.067 58.0701 186.307 58.0701 184.176Z" fill="white"/>
<path d="M86.002 175.603C77.6178 175.603 70.7963 168.782 70.7963 160.397C70.7963 152.012 77.6182 145.191 86.002 145.191C94.3857 145.191 101.208 152.012 101.208 160.397C101.208 168.782 94.3857 175.603 86.002 175.603ZM86.002 145.895C78.0058 145.895 71.5001 152.401 71.5001 160.397C71.5001 168.393 78.0058 174.899 86.002 174.899C93.9981 174.899 100.504 168.393 100.504 160.397C100.504 152.401 93.9981 145.895 86.002 145.895Z" fill="#C7D6F2"/>
<path d="M86.0021 173.361C93.1617 173.361 98.9657 167.557 98.9657 160.397C98.9657 153.238 93.1617 147.434 86.0021 147.434C78.8425 147.434 73.0385 153.238 73.0385 160.397C73.0385 167.557 78.8425 173.361 86.0021 173.361Z" fill="white"/>
<path d="M81.3574 155.324C81.3574 152.762 83.4404 150.686 86.0025 150.686C88.5646 150.686 90.6407 152.762 90.6407 155.324C90.6407 157.886 88.5646 159.969 86.0025 159.969C83.4404 159.969 81.3574 157.893 81.3574 155.324Z" fill="#C7D6F2"/>
<path d="M94.0044 164.726C92.7164 167.886 89.6197 170.11 86.0022 170.11C82.3848 170.11 79.288 167.885 78 164.726C77.4021 163.262 78.4926 161.65 80.0761 161.65H91.921C93.5045 161.65 94.6024 163.262 94.004 164.726H94.0044Z" fill="#C7D6F2"/>
<path d="M242.575 231.284C242.575 231.284 242.62 231.227 242.642 231.193C244.718 229.536 246.308 227.235 247.063 224.483C248.958 217.558 244.875 210.407 237.939 208.512C237.353 208.354 236.766 208.253 236.191 208.174C230.924 201.723 227.608 195.158 216.476 194.64C212.179 194.448 207.904 195.914 204.904 198.993C204.487 199.422 204.103 199.895 203.743 200.38C203.449 200.775 197.787 200.426 197.021 200.493C191.584 201.012 184.569 201.982 181.073 206.674C180.306 207.7 179.731 208.828 179.268 210.012C170.787 211.332 163.501 217.58 161.29 226.423C159.531 233.472 161.38 240.577 165.677 245.788C164.741 247.457 163.997 249.284 163.512 251.235C160.557 263.033 167.73 274.977 179.528 277.932C191.325 280.887 203.269 273.714 206.224 261.916C207.363 257.348 206.991 252.747 205.412 248.664C214.457 246.16 220.311 237.385 219.138 228.081C223.92 228.554 228.454 225.532 229.762 220.783C233.112 222.904 235.65 226.073 237.037 229.75C231.815 229.682 227.044 233.178 225.724 238.468C224.179 244.637 227.935 250.897 234.104 252.442C240.274 253.987 246.533 250.232 248.079 244.062C249.364 238.931 246.985 233.765 242.608 231.261L242.575 231.284Z" fill="#291C5B"/>
<path d="M184.885 279.228C183.047 279.228 181.186 279.002 179.347 278.54C167.234 275.506 159.858 263.19 162.881 251.088C163.332 249.272 164.02 247.513 164.911 245.855C160.557 240.362 158.967 233.076 160.67 226.275C162.858 217.534 169.952 210.97 178.806 209.459C179.302 208.263 179.877 207.226 180.565 206.312C183.983 201.722 190.468 200.515 196.953 199.883C197.235 199.861 197.889 199.883 199.017 199.906C200.325 199.94 202.705 200.007 203.337 199.883C203.72 199.376 204.081 198.936 204.453 198.564C207.476 195.462 211.886 193.804 216.499 194.018C226.356 194.47 230.338 199.624 234.544 205.083C235.187 205.906 235.83 206.752 236.507 207.587C237.105 207.677 237.612 207.778 238.097 207.902C241.605 208.861 244.537 211.128 246.342 214.286C248.146 217.444 248.609 221.121 247.65 224.628C246.951 227.177 245.564 229.422 243.601 231.17C247.819 233.99 249.883 239.234 248.643 244.208C247.019 250.704 240.409 254.663 233.913 253.039C227.416 251.415 223.458 244.806 225.082 238.309C226.379 233.132 230.834 229.467 236.09 229.14C234.804 226.174 232.706 223.591 230.078 221.741C228.522 226.038 224.383 228.847 219.803 228.723C220.582 237.779 214.875 246.317 206.19 249.047C207.668 253.231 207.882 257.708 206.799 262.039C205.333 267.904 201.668 272.844 196.479 275.957C192.915 278.089 188.923 279.194 184.874 279.194L184.885 279.228ZM197.37 201.113C197.235 201.113 197.122 201.113 197.066 201.113C190.863 201.71 184.693 202.838 181.558 207.045C180.881 207.959 180.317 208.996 179.832 210.237C179.753 210.44 179.562 210.598 179.347 210.632C170.832 211.951 163.975 218.222 161.877 226.58C160.241 233.132 161.832 240.17 166.14 245.392C166.309 245.595 166.332 245.866 166.208 246.092C165.272 247.761 164.561 249.543 164.099 251.392C161.234 262.829 168.215 274.468 179.652 277.333C185.19 278.72 190.942 277.863 195.848 274.931C200.743 271.987 204.205 267.318 205.592 261.78C206.664 257.483 206.393 253.028 204.803 248.9C204.735 248.731 204.747 248.55 204.826 248.392C204.904 248.234 205.051 248.122 205.22 248.077C213.916 245.674 219.623 237.114 218.495 228.17C218.473 227.978 218.54 227.798 218.664 227.662C218.8 227.527 218.98 227.459 219.172 227.482C223.717 227.933 227.913 225.057 229.131 220.647C229.187 220.455 229.323 220.297 229.503 220.23C229.683 220.162 229.898 220.173 230.056 220.286C233.473 222.452 236.146 225.745 237.578 229.568C237.646 229.76 237.624 229.974 237.499 230.144C237.387 230.313 237.195 230.426 236.981 230.414C236.936 230.414 236.879 230.414 236.834 230.414C231.826 230.414 227.495 233.787 226.277 238.659C224.822 244.49 228.375 250.411 234.206 251.877C240.037 253.332 245.958 249.78 247.425 243.949C248.609 239.234 246.477 234.249 242.248 231.847C242.101 231.756 241.988 231.621 241.954 231.452C241.909 231.283 241.943 231.114 242.033 230.967C242.045 230.944 242.09 230.888 242.101 230.877C242.135 230.809 242.169 230.787 242.236 230.73C244.3 229.083 245.755 226.884 246.443 224.335C247.312 221.143 246.894 217.805 245.248 214.94C243.612 212.064 240.951 210.011 237.759 209.143C237.263 209.008 236.733 208.906 236.09 208.827C235.932 208.805 235.785 208.726 235.684 208.602C234.939 207.688 234.24 206.775 233.541 205.884C229.334 200.436 225.702 195.733 216.42 195.304C212.145 195.112 208.096 196.624 205.322 199.477C204.961 199.849 204.6 200.278 204.216 200.797C203.912 201.214 203.348 201.316 198.949 201.192C198.34 201.18 197.731 201.158 197.348 201.158L197.37 201.113Z" fill="#291C5B"/>
<path d="M240.454 271.874L239.236 240.869C239.214 232.331 235.706 224.617 230.055 219.057C230.01 219.553 229.931 220.06 229.807 220.557C228.465 225.925 223.029 229.185 217.66 227.843C213.916 226.907 211.198 223.963 210.352 220.455C210.183 220.297 210.025 220.139 209.867 219.97C209.822 220.963 209.686 221.967 209.427 222.959C207.419 230.967 199.31 235.839 191.291 233.832C190.885 233.73 190.49 233.595 190.096 233.471C192.092 242.234 183.622 249.633 178.298 257.291L177.847 241.016C177.847 240.362 177.903 239.719 177.937 239.065L175.535 238.907C167.978 238.433 161.459 244.163 160.986 251.719C160.512 259.276 166.241 265.795 173.798 266.269L176.37 266.427C176.911 266.46 177.441 266.449 177.971 266.427C178.095 269.957 178.794 273.329 180.024 276.453C180.633 278.021 181.388 279.51 182.234 280.931V305.416H225.093V294.183C234.104 290.642 240.477 282.826 240.443 271.84L240.454 271.874Z" fill="#F174A9"/>
<path d="M200.901 295.016C207.262 298.828 217.424 304.253 224.8 305.043C224.8 301.569 224.969 297.971 224.8 294.543C224.574 294.407 224.349 294.419 224.112 294.543C217.785 297.971 202.728 296.11 200.901 295.016Z" fill="#291C5B"/>
<path d="M225.319 305.619L224.743 305.563C217.446 304.784 207.6 299.641 200.63 295.468L201.16 294.577C202.919 295.626 217.841 297.352 223.852 294.092C224.247 293.878 224.664 293.878 225.048 294.092L225.296 294.239V294.521C225.431 296.833 225.386 299.247 225.352 301.593C225.33 302.754 225.319 303.905 225.319 305.044V305.619ZM204.295 296.393C210.589 299.946 218.281 303.634 224.281 304.457C224.281 303.499 224.303 302.54 224.315 301.57C224.349 299.405 224.382 297.171 224.292 295.028C219.341 297.668 209.686 297.25 204.295 296.393Z" fill="#291C5B"/>
<path d="M207.442 253.976C207.16 255.194 205.942 255.961 204.724 255.679C203.506 255.397 202.739 254.179 203.021 252.961C203.303 251.743 204.521 250.976 205.739 251.258C206.957 251.54 207.724 252.758 207.442 253.976Z" fill="#291C5B"/>
<path d="M231.037 253.446C230.755 254.665 229.537 255.431 228.319 255.15C227.1 254.868 226.333 253.649 226.615 252.431C226.897 251.213 228.115 250.446 229.334 250.728C230.552 251.01 231.319 252.228 231.037 253.446Z" fill="#291C5B"/>
<path d="M171.509 255.375C171.283 255.375 171.057 255.25 170.956 255.036C170.798 254.732 170.922 254.359 171.238 254.202L173.347 253.141L171.655 251.224C171.43 250.965 171.452 250.57 171.712 250.344C171.971 250.119 172.366 250.141 172.591 250.401L174.497 252.566C174.7 252.792 174.779 253.108 174.723 253.401C174.667 253.705 174.475 253.953 174.193 254.1L171.791 255.307C171.7 255.352 171.61 255.375 171.509 255.375Z" fill="#291C5B"/>
<path d="M211.355 237.431C210.634 237.769 209.686 237.713 208.761 237.713C207.837 237.69 206.9 237.69 206.088 237.713C205.276 237.735 204.34 237.803 203.415 237.893C202.49 237.961 201.543 238.085 200.81 237.792C200.099 237.521 199.795 236.686 200.584 235.615C201.329 234.577 203.314 233.404 205.998 233.314C208.682 233.224 210.713 234.261 211.491 235.243C212.314 236.258 212.043 237.104 211.344 237.431H211.355Z" fill="#291C5B"/>
<path d="M202.005 238.592C201.509 238.592 201.024 238.536 200.584 238.367C200.088 238.175 199.716 237.78 199.569 237.284C199.445 236.844 199.434 236.133 200.088 235.242C200.934 234.047 203.099 232.795 205.987 232.682C208.885 232.581 211.085 233.709 211.998 234.848C212.675 235.682 212.698 236.382 212.596 236.821C212.483 237.329 212.122 237.758 211.626 237.983C210.859 238.344 209.968 238.333 209.088 238.321H208.761C207.791 238.299 206.889 238.299 206.111 238.321C205.333 238.344 204.419 238.412 203.483 238.502L203.145 238.524C202.772 238.558 202.389 238.581 202.017 238.581L202.005 238.592ZM206.314 233.934C206.212 233.934 206.122 233.934 206.021 233.934C203.573 234.024 201.746 235.051 201.092 235.975C200.81 236.359 200.697 236.697 200.765 236.934C200.799 237.058 200.889 237.148 201.035 237.205C201.554 237.408 202.31 237.351 203.032 237.295L203.37 237.273C204.329 237.182 205.265 237.115 206.066 237.092C206.855 237.07 207.791 237.058 208.773 237.092H209.088C209.855 237.103 210.577 237.115 211.085 236.878C211.186 236.833 211.322 236.731 211.367 236.562C211.423 236.325 211.288 235.998 211.006 235.648C210.34 234.803 208.603 233.945 206.303 233.945L206.314 233.934Z" fill="#291C5B"/>
<path d="M236.394 242.426C235.796 241.896 234.871 241.671 233.992 241.411C233.101 241.163 232.198 240.892 231.431 240.633C230.664 240.374 229.785 240.047 228.928 239.697C228.07 239.37 227.191 238.975 226.412 239.043C225.657 239.099 225.115 239.81 225.567 241.062C225.973 242.268 227.54 243.96 230.089 244.829C232.638 245.686 234.883 245.28 235.909 244.569C236.992 243.836 236.969 242.945 236.394 242.438V242.426Z" fill="#291C5B"/>
<path d="M232.943 245.935C232.007 245.935 230.969 245.777 229.886 245.416C227.146 244.48 225.443 242.652 224.969 241.254C224.597 240.216 224.811 239.551 225.059 239.167C225.341 238.739 225.815 238.457 226.356 238.423C227.18 238.355 228.025 238.682 228.838 238.998L229.142 239.122C230.022 239.483 230.879 239.799 231.623 240.058C232.345 240.307 233.225 240.566 234.15 240.825L234.477 240.927C235.311 241.164 236.169 241.412 236.8 241.987C237.218 242.348 237.432 242.856 237.398 243.386C237.364 243.837 237.15 244.502 236.248 245.111C235.526 245.607 234.353 245.968 232.943 245.968V245.935ZM226.593 239.664C226.593 239.664 226.503 239.664 226.469 239.664C226.3 239.675 226.187 239.731 226.119 239.844C225.984 240.047 225.995 240.408 226.153 240.848C226.525 241.931 227.969 243.442 230.292 244.243C232.605 245.021 234.646 244.694 235.56 244.062C235.932 243.814 236.157 243.532 236.169 243.284C236.18 243.104 236.078 242.98 235.988 242.901C235.571 242.528 234.883 242.325 234.15 242.111L233.823 242.021C232.887 241.761 231.996 241.491 231.24 241.243C230.473 240.983 229.593 240.656 228.702 240.284L228.398 240.171C227.766 239.923 227.123 239.675 226.593 239.675V239.664Z" fill="#291C5B"/>
<path d="M219.126 244.523L219.329 250.433C219.408 252.689 221.303 254.46 223.559 254.37C224.687 254.324 225.634 255.216 225.679 256.343C225.713 257.257 225.555 258.137 225.251 258.937C224.033 262.141 220.232 263.528 217.029 262.332L214.502 261.475" fill="#F174A9"/>
<path d="M219.42 263.393C218.551 263.393 217.671 263.246 216.814 262.919L214.31 262.073C213.983 261.961 213.814 261.611 213.916 261.284C214.028 260.957 214.378 260.788 214.705 260.889L217.232 261.746C220.22 262.863 223.615 261.464 224.675 258.712C224.957 257.968 225.093 257.178 225.059 256.366C225.025 255.588 224.36 254.979 223.593 255.002C220.976 255.092 218.811 253.051 218.72 250.456L218.517 244.546C218.506 244.208 218.777 243.915 219.115 243.904C219.431 243.881 219.747 244.163 219.758 244.501L219.961 250.411C220.029 252.317 221.664 253.829 223.548 253.75C225.014 253.693 226.254 254.855 226.311 256.321C226.345 257.303 226.187 258.25 225.837 259.152C224.833 261.78 222.228 263.393 219.42 263.393Z" fill="#291C5B"/>
<path d="M209.912 271.638C209.912 271.638 209.822 271.638 209.777 271.627C200.675 269.529 201.611 263.428 201.622 263.36C201.679 263.022 201.994 262.796 202.344 262.852C202.682 262.909 202.908 263.236 202.852 263.563C202.818 263.766 202.152 268.593 210.059 270.409C210.397 270.488 210.6 270.826 210.521 271.153C210.453 271.447 210.194 271.638 209.912 271.638Z" fill="#291C5B"/>
</svg>
