<svg width="16" height="16" viewBox="0 0 16 16" fill="none" xmlns="http://www.w3.org/2000/svg">
<path fill-rule="evenodd" clip-rule="evenodd" d="M11.664 9.46339L9.4553 10.7346C9.0653 10.5996 7.94405 10.1474 6.9188 9.12214C5.95656 8.15989 5.55456 7.09714 5.43681 6.72589L6.71105 4.51264L3.93831 0.702637L3.64581 0.875137C2.45931 1.57114 1.58781 2.44114 0.906057 3.61414L0.862557 3.73339C0.477057 5.79064 1.65381 8.82364 3.79056 11.2806C6.10881 13.9461 9.11705 15.4476 12.105 15.4476C12.24 15.4476 12.375 15.4454 12.51 15.4386L12.5993 15.4349L12.6765 15.3914C13.878 14.7179 14.751 13.8449 15.4238 12.6434L15.585 12.3546L11.664 9.46339Z" fill="#374957"/>
</svg>
