<svg width="16" height="16" viewBox="0 0 16 16" fill="none" xmlns="http://www.w3.org/2000/svg">
<path d="M15.9087 4.58669L0 4.66069V4.00002C0.00105857 3.11629 0.352588 2.26906 0.97748 1.64417C1.60237 1.01928 2.4496 0.667746 3.33333 0.666687H5.01867C5.32893 0.666945 5.63493 0.73905 5.91267 0.877354L8.01667 1.93335C8.10965 1.9779 8.21156 2.0007 8.31467 2.00002H12.6667C13.4198 2.00152 14.1502 2.25802 14.739 2.72774C15.3277 3.19745 15.74 3.85269 15.9087 4.58669ZM16 5.92002V12C15.9989 12.8838 15.6474 13.731 15.0225 14.3559C14.3976 14.9808 13.5504 15.3323 12.6667 15.3334H3.33333C2.4496 15.3323 1.60237 14.9808 0.97748 14.3559C0.352588 13.731 0.00105857 12.8838 0 12L0 5.99402L16 5.92002ZM10.6667 10.6667C10.6667 10.4899 10.5964 10.3203 10.4714 10.1953C10.3464 10.0703 10.1768 10 10 10H8.66667V8.66669C8.66667 8.48988 8.59643 8.32031 8.47141 8.19528C8.34638 8.07026 8.17681 8.00002 8 8.00002C7.82319 8.00002 7.65362 8.07026 7.5286 8.19528C7.40357 8.32031 7.33333 8.48988 7.33333 8.66669V10H6C5.82319 10 5.65362 10.0703 5.5286 10.1953C5.40357 10.3203 5.33333 10.4899 5.33333 10.6667C5.33333 10.8435 5.40357 11.0131 5.5286 11.1381C5.65362 11.2631 5.82319 11.3334 6 11.3334H7.33333V12.6667C7.33333 12.8435 7.40357 13.0131 7.5286 13.1381C7.65362 13.2631 7.82319 13.3334 8 13.3334C8.17681 13.3334 8.34638 13.2631 8.47141 13.1381C8.59643 13.0131 8.66667 12.8435 8.66667 12.6667V11.3334H10C10.1768 11.3334 10.3464 11.2631 10.4714 11.1381C10.5964 11.0131 10.6667 10.8435 10.6667 10.6667Z" fill="white"/>
<path d="M8 8.66669V12.6667" stroke="#FBC108" stroke-width="2" stroke-linecap="round"/>
<path d="M10 10.6667L6 10.6667" stroke="#FBC108" stroke-width="2" stroke-linecap="round"/>
</svg>
