<svg width="18" height="18" viewBox="0 0 18 18" fill="none" xmlns="http://www.w3.org/2000/svg">
<g clip-path="url(#clip0_1_5421)">
<path d="M9 4.5C8.40326 4.5 7.83097 4.73705 7.40901 5.15901C6.98705 5.58097 6.75 6.15326 6.75 6.75V15.75C6.75 16.3467 6.98705 16.919 7.40901 17.341C7.83097 17.7629 8.40326 18 9 18C9.59674 18 10.169 17.7629 10.591 17.341C11.0129 16.919 11.25 16.3467 11.25 15.75V6.75C11.25 6.15326 11.0129 5.58097 10.591 5.15901C10.169 4.73705 9.59674 4.5 9 4.5Z" fill="#374957"/>
<path d="M15.75 0C15.1533 0 14.581 0.237053 14.159 0.65901C13.7371 1.08097 13.5 1.65326 13.5 2.25V15.75C13.5 16.3467 13.7371 16.919 14.159 17.341C14.581 17.7629 15.1533 18 15.75 18C16.3467 18 16.919 17.7629 17.341 17.341C17.7629 16.919 18 16.3467 18 15.75V2.25C18 1.65326 17.7629 1.08097 17.341 0.65901C16.919 0.237053 16.3467 0 15.75 0V0ZM16.5 15.75C16.5 15.9489 16.421 16.1397 16.2803 16.2803C16.1397 16.421 15.9489 16.5 15.75 16.5C15.5511 16.5 15.3603 16.421 15.2197 16.2803C15.079 16.1397 15 15.9489 15 15.75V2.25C15 2.05109 15.079 1.86032 15.2197 1.71967C15.3603 1.57902 15.5511 1.5 15.75 1.5C15.9489 1.5 16.1397 1.57902 16.2803 1.71967C16.421 1.86032 16.5 2.05109 16.5 2.25V15.75Z" fill="#374957"/>
<path d="M2.25 9C1.65326 9 1.08097 9.23705 0.65901 9.65901C0.237053 10.081 0 10.6533 0 11.25L0 15.75C0 16.3467 0.237053 16.919 0.65901 17.341C1.08097 17.7629 1.65326 18 2.25 18C2.84674 18 3.41903 17.7629 3.84099 17.341C4.26295 16.919 4.5 16.3467 4.5 15.75V11.25C4.5 10.6533 4.26295 10.081 3.84099 9.65901C3.41903 9.23705 2.84674 9 2.25 9Z" fill="#374957"/>
</g>
<defs>
<clipPath id="clip0_1_5421">
<rect width="18" height="18" fill="white"/>
</clipPath>
</defs>
</svg>
