<svg width="16" height="16" viewBox="0 0 16 16" fill="none" xmlns="http://www.w3.org/2000/svg">
<g clip-path="url(#clip0_1_5238)">
<path d="M4.66667 0H2.66667C1.19391 0 0 1.19391 0 2.66667V4.66667C0 6.13943 1.19391 7.33333 2.66667 7.33333H4.66667C6.13943 7.33333 7.33333 6.13943 7.33333 4.66667V2.66667C7.33333 1.19391 6.13943 0 4.66667 0Z" fill="white"/>
<path d="M13.3332 0H11.3332C9.86041 0 8.6665 1.19391 8.6665 2.66667V4.66667C8.6665 6.13943 9.86041 7.33334 11.3332 7.33334H13.3332C14.8059 7.33334 15.9998 6.13943 15.9998 4.66667V2.66667C15.9998 1.19391 14.8059 0 13.3332 0Z" fill="white"/>
<path d="M4.66667 8.6665H2.66667C1.19391 8.6665 0 9.86041 0 11.3332V13.3332C0 14.8059 1.19391 15.9998 2.66667 15.9998H4.66667C6.13943 15.9998 7.33333 14.8059 7.33333 13.3332V11.3332C7.33333 9.86041 6.13943 8.6665 4.66667 8.6665Z" fill="white"/>
<path d="M13.3332 8.6665H11.3332C9.86041 8.6665 8.6665 9.86041 8.6665 11.3332V13.3332C8.6665 14.8059 9.86041 15.9998 11.3332 15.9998H13.3332C14.8059 15.9998 15.9998 14.8059 15.9998 13.3332V11.3332C15.9998 9.86041 14.8059 8.6665 13.3332 8.6665Z" fill="#FBC108"/>
</g>
<defs>
<clipPath id="clip0_1_5238">
<rect width="16" height="16" fill="white"/>
</clipPath>
</defs>
</svg>
