<svg width="16" height="16" viewBox="0 0 16 16" fill="none" xmlns="http://www.w3.org/2000/svg">
<path d="M0.778075 9.88592L3.36407 12.4719C3.62892 12.7277 4.05095 12.7204 4.30673 12.4555C4.55626 12.1972 4.55626 11.7876 4.30673 11.5292L1.72073 8.94324C1.64389 8.86489 1.57676 8.77758 1.52073 8.68324C1.53073 8.68324 1.53873 8.68858 1.54873 8.68858L12.0047 8.66724C12.3729 8.66724 12.6714 8.36877 12.6714 8.00058C12.6714 7.63239 12.3729 7.33393 12.0047 7.33393L1.55273 7.35527C1.53408 7.35527 1.51873 7.36461 1.50073 7.36592C1.55986 7.25314 1.63486 7.14942 1.72339 7.05792L4.30939 4.47193C4.57423 4.21614 4.58158 3.79411 4.32579 3.52927C4.07001 3.26442 3.64798 3.25708 3.38314 3.51286C3.37758 3.51824 3.37211 3.52371 3.36673 3.52927L0.780731 6.11527C-0.2603 7.15661 -0.2603 8.84461 0.78073 9.88592L0.778075 9.88592Z" fill="#FBC108"/>
<path d="M11.3307 1.33334L12.664 1.33334C13.7686 1.33334 14.664 2.22878 14.664 3.33334L14.664 12.6667C14.664 13.7712 13.7686 14.6667 12.664 14.6667L11.3307 14.6667C10.9625 14.6667 10.664 14.9651 10.664 15.3333C10.664 15.7015 10.9624 16 11.3307 16L12.664 16C14.504 15.9978 15.9951 14.5067 15.9973 12.6667L15.9973 3.33331C15.9951 1.49331 14.504 0.00218855 12.664 6.62264e-07L11.3306 5.457e-07C10.9624 5.13512e-07 10.664 0.298469 10.664 0.666657C10.664 1.03484 10.9624 1.33334 11.3307 1.33334Z" fill="#374957"/>
</svg>
