<svg width="16" height="16" viewBox="0 0 16 16" fill="none" xmlns="http://www.w3.org/2000/svg">
<path d="M0.93596 12C1.4874 12.9571 2.7103 13.2859 3.66737 12.7344C3.66802 12.7341 3.66865 12.7337 3.6693 12.7333L3.96596 12.562C4.52596 13.0411 5.16965 13.4127 5.86462 13.658V14C5.86462 15.1046 6.76005 16 7.86462 16C8.96918 16 9.86462 15.1046 9.86462 14V13.658C10.5597 13.4123 11.2034 13.0403 11.7633 12.5607L12.0613 12.7327C13.0186 13.2849 14.2423 12.9566 14.7946 11.9993C15.3469 11.042 15.0186 9.81825 14.0613 9.26597L13.7653 9.09531C13.8985 8.37028 13.8985 7.62703 13.7653 6.90197L14.0613 6.73131C15.0186 6.17903 15.3469 4.95528 14.7946 3.99797C14.2423 3.04069 13.0186 2.71234 12.0613 3.26463L11.7646 3.43597C11.2041 2.95744 10.5599 2.58656 9.86462 2.342V2C9.86462 0.895437 8.96918 0 7.86462 0C6.76005 0 5.86462 0.895437 5.86462 2V2.342C5.16955 2.58772 4.52583 2.95972 3.96596 3.43934L3.66796 3.26669C2.71065 2.71438 1.4869 3.04272 0.934616 4C0.382335 4.95728 0.710647 6.18106 1.66796 6.73334L1.96396 6.904C1.83071 7.62903 1.83071 8.37228 1.96396 9.09734L1.66796 9.268C0.713304 9.82175 0.386054 11.0431 0.93596 12ZM7.86462 5.33334C9.33737 5.33334 10.5313 6.52725 10.5313 8C10.5313 9.47275 9.33737 10.6667 7.86462 10.6667C6.39187 10.6667 5.19796 9.47275 5.19796 8C5.19796 6.52725 6.39187 5.33334 7.86462 5.33334Z" fill="white"/>
<ellipse cx="7.99984" cy="7.99996" rx="3.33333" ry="3.33333" fill="#FBC108"/>
</svg>
