<svg width="17" height="17" viewBox="0 0 17 17" fill="none" xmlns="http://www.w3.org/2000/svg">
<path d="M16.6148 0.385192C16.4928 0.263079 16.348 0.166207 16.1885 0.100113C16.0291 0.0340194 15.8582 0 15.6856 0C15.513 0 15.342 0.0340194 15.1826 0.100113C15.0231 0.166207 14.8783 0.263079 14.7563 0.385192L13 2.142L14.858 4L16.6148 2.24369C16.7369 2.12171 16.8338 1.97685 16.8999 1.8174C16.966 1.65796 17 1.48704 17 1.31444C17 1.14184 16.966 0.970928 16.8999 0.811481C16.8338 0.652034 16.7369 0.507177 16.6148 0.385192Z" fill="#FBC108"/>
<path d="M6.22386 9.01207C5.8671 9.36873 5.66661 9.85249 5.6665 10.357V11.3333H6.64284C7.1473 11.3332 7.63107 11.1327 7.98773 10.7759L14.3332 4.43049L12.5693 2.66663L6.22386 9.01207Z" fill="#FBC108"/>
<path d="M9.56774 2H5.66651C3.45737 2 1.6665 3.79086 1.6665 6V11.3333C1.6665 13.5425 3.45736 15.3333 5.6665 15.3333H10.9998C13.209 15.3333 14.9998 13.5425 14.9998 11.3333V8.66667" stroke="white" stroke-width="2" stroke-linecap="round"/>
</svg>
