<svg width="18" height="19" viewBox="0 0 18 19" fill="none" xmlns="http://www.w3.org/2000/svg">
<g clip-path="url(#clip0_1_5276)">
<path d="M5.56812 16.75C5.85886 17.4185 6.33854 17.9876 6.94823 18.3873C7.55792 18.787 8.27108 19 9.00012 19C9.72915 19 10.4423 18.787 11.052 18.3873C11.6617 17.9876 12.1414 17.4185 12.4321 16.75H5.56812Z" fill="#374957"/>
<path d="M16.7941 10.4118L15.4921 6.11951C15.0752 4.61827 14.1686 3.29934 12.9165 2.37213C11.6644 1.44493 10.1384 0.962597 8.58079 1.00172C7.02321 1.04084 5.52334 1.59917 4.31933 2.58806C3.11531 3.57696 2.27616 4.93973 1.9351 6.46001L0.9241 10.6128C0.789725 11.1646 0.782445 11.7397 0.902808 12.2947C1.02317 12.8498 1.26803 13.3702 1.61892 13.8168C1.9698 14.2634 2.41754 14.6245 2.92834 14.8727C3.43914 15.121 3.99966 15.25 4.5676 15.25H13.2053C13.7909 15.25 14.3683 15.1129 14.8914 14.8497C15.4144 14.5864 15.8685 14.2044 16.2174 13.7341C16.5662 13.2638 16.8001 12.7183 16.9002 12.1414C17.0004 11.5645 16.964 10.9721 16.7941 10.4118Z" fill="#374957"/>
</g>
<circle cx="14" cy="3" r="2.5" fill="#DB504A" stroke="white"/>
<defs>
<clipPath id="clip0_1_5276">
<rect width="18" height="18" fill="white" transform="translate(0 1)"/>
</clipPath>
</defs>
</svg>
