<svg width="178" height="33" viewBox="0 0 178 33" fill="none" xmlns="http://www.w3.org/2000/svg">
<path fill-rule="evenodd" clip-rule="evenodd" d="M21.6 12C20.2745 12 19.2 13.0745 19.2 14.4V21.6C19.2 22.9255 20.2745 24 21.6 24H22.8C24.1254 24 25.2 22.9255 25.2 21.6V14.4C25.2 13.0745 24.1254 12 22.8 12H21.6ZM21.6 13.2C20.9372 13.2 20.4 13.7373 20.4 14.4V21.6C20.4 22.2627 20.9372 22.8 21.6 22.8H22.8C23.4627 22.8 24 22.2627 24 21.6V14.4C24 13.7373 23.4627 13.2 22.8 13.2H21.6Z" fill="white"/>
<path d="M7.80005 15.5769C7.80005 15.2583 8.05835 15 8.37697 15H9.80005C10.3523 15 10.8 15.4477 10.8 16V30C9.14319 30 7.80005 28.6569 7.80005 27V15.5769Z" fill="#FBC108"/>
<path d="M11.4001 13C11.4001 12.4477 11.8479 12 12.4001 12H13.4001C13.9524 12 14.4001 12.4477 14.4001 13V30H11.4001V13Z" fill="#FBC108"/>
<path d="M15 19C15 18.4477 15.4477 18 16 18H17C17.5523 18 18 18.4477 18 19V30H15V19Z" fill="#FBC108"/>
<path d="M18.6001 11.8C18.6001 11.2478 19.0478 10.8 19.6001 10.8H21.0183C21.3396 10.8 21.6001 11.0605 21.6001 11.3819V27.0001C21.6001 28.6569 20.257 30 18.6001 30V11.8Z" fill="#FBC108"/>
<path fill-rule="evenodd" clip-rule="evenodd" d="M12.6 0C13.8747 0 14.9946 0.662515 15.6343 1.66199C16.156 1.36783 16.7584 1.2 17.4 1.2C19.2075 1.2 20.7039 2.53214 20.9609 4.2682C21.1669 4.22353 21.3807 4.2 21.6 4.2C23.2568 4.2 24.6 5.54315 24.6 7.2C24.6 8.85685 23.2568 10.2 21.6 10.2H19.2C18.5372 10.2 18 10.7373 18 11.4V15.9C18 16.7284 17.3284 17.4 16.5 17.4C15.6715 17.4 15 16.7284 15 15.9V12.6C15 11.9373 14.4627 11.4 13.8 11.4H12C11.3372 11.4 10.8 11.9373 10.8 12.6V12.9C10.8 13.7284 10.1284 14.4 9.29995 14.4C8.47152 14.4 7.79995 13.7284 7.79995 12.9V10.7575C5.76457 10.4663 4.19995 8.71588 4.19995 6.6C4.19995 4.2804 6.08036 2.4 8.39995 2.4C8.66653 2.4 8.92731 2.42484 9.1801 2.47232C9.65331 1.03644 11.0056 0 12.6 0ZM15 11.4V11.3168C14.8775 11.3703 14.7422 11.4 14.6 11.4H15ZM10.8 11.3168C10.9224 11.3703 11.0577 11.4 11.2 11.4H10.8V11.3168Z" fill="white"/>
<path d="M50.6609 7.2605H52.9027V12.9097C52.9027 13.7163 53.1258 14.3074 53.5719 14.6831C53.9976 15.0537 54.5408 15.2568 55.1022 15.2551C55.658 15.2592 56.1958 15.0555 56.6127 14.6831C57.0437 14.3017 57.2602 13.7105 57.2621 12.9097V7.2605H59.5208V17.2002H57.2621V16.0103C56.5901 16.8035 55.649 17.2002 54.4386 17.2002C53.4619 17.223 52.5114 16.8786 51.7705 16.2334C51.0308 15.5907 50.6609 14.5963 50.6609 13.25V7.2605Z" fill="white"/>
<path d="M68.4849 7.2605H70.6614L73.052 14.0458L75.4848 7.2605H77.6799L74.0927 17.2012H72.0324L68.4849 7.2605Z" fill="white"/>
<path d="M80.1049 8.66584C80.5428 8.20017 81.0737 7.83431 81.6621 7.5926C82.2505 7.35088 82.8829 7.23885 83.5173 7.26395C84.1345 7.23979 84.7493 7.35277 85.3187 7.59495C85.8882 7.83714 86.3984 8.20265 86.8136 8.66584C87.6439 9.60043 88.0581 10.7874 88.0562 12.2266V12.8519H80.949C81.0243 13.5347 81.342 14.1664 81.8429 14.6295C82.3316 15.0687 82.9667 15.3032 83.6197 15.2856C84.7268 15.2856 85.5488 14.8968 86.0857 14.1192L87.6051 15.2407C87.1853 15.8591 86.6127 16.355 85.9445 16.679C85.2201 17.0301 84.4255 17.2076 83.6225 17.1977C82.979 17.2229 82.3374 17.1112 81.7392 16.8697C81.1409 16.6282 80.5993 16.2624 80.1491 15.7959C79.7038 15.3206 79.3564 14.7602 79.1273 14.1474C78.8983 13.5345 78.7921 12.8815 78.8151 12.2266C78.7654 10.914 79.2289 9.63441 80.1049 8.66584ZM80.9684 11.4135H86.0027C85.9091 10.7679 85.6188 10.168 85.1724 9.69763C84.9547 9.47892 84.6949 9.30783 84.4093 9.19498C84.1237 9.08212 83.8182 9.0299 83.5118 9.04155C82.886 9.01845 82.2765 9.24612 81.8152 9.6752C81.3499 10.1442 81.052 10.7568 80.9684 11.4163V11.4135Z" fill="white"/>
<path d="M91.5541 7.2605L94.2105 14.1189L96.9109 7.2605H99.3474L93.7766 21.4615H91.4896L93.0788 17.4041L89.1382 7.2605H91.5541Z" fill="white"/>
<path d="M38 15.1421L39.5561 13.58C40.8627 14.7244 41.8356 15.0473 43.5288 15.0473C45.0069 15.0473 45.9433 14.3551 45.9433 13.3127V13.2741C45.9433 12.2868 45.3989 11.7546 42.8673 11.1644C39.9655 10.4585 38.3322 9.58704 38.3322 7.04445V7.00308C38.3322 4.63698 40.2813 3.00167 42.9816 3.00167C44.7793 2.966 46.2755 3.49723 48.1145 4.98834L46.6291 6.47945C45.4042 5.55563 44.1875 5.13888 42.9408 5.13888C41.528 5.13888 40.7223 5.85313 40.7223 6.77695V6.81556C40.7223 7.8883 41.3456 8.35159 43.9534 8.98586C46.8389 9.70562 48.3551 10.7535 48.3551 13.0424V13.081C48.3551 15.6622 46.3516 17.201 43.4907 17.201C41.3834 17.2159 39.5599 16.5774 38 15.1421Z" fill="white"/>
<path fill-rule="evenodd" clip-rule="evenodd" d="M63.9581 8.90913C64.1376 8.57911 64.3498 8.27335 64.5947 8.0429C65.4368 7.25041 66.4259 7.25654 67.1861 7.26125C67.2431 7.2616 67.2989 7.26195 67.3532 7.26195V9.2498C66.9288 9.22613 65.9103 9.32079 65.2313 9.88875C64.6404 10.3829 64.1524 11.0491 63.9581 12.5338V17.2012H61.8362V7.26195H63.9581V8.90913Z" fill="white"/>
<path d="M124.948 8.66584C125.386 8.20017 125.917 7.83431 126.505 7.5926C127.094 7.35088 127.726 7.23885 128.361 7.26395C128.978 7.23979 129.593 7.35277 130.162 7.59495C130.731 7.83714 131.242 8.20265 131.657 8.66584C132.487 9.60043 132.901 10.7874 132.899 12.2266V12.8519H125.792C125.868 13.5347 126.185 14.1664 126.686 14.6295C127.175 15.0687 127.81 15.3032 128.463 15.2856C129.57 15.2856 130.392 14.8968 130.929 14.1192L132.448 15.2407C132.029 15.8591 131.456 16.355 130.788 16.679C130.063 17.0301 129.269 17.2076 128.466 17.1977C127.822 17.2229 127.181 17.1112 126.582 16.8697C125.984 16.6282 125.443 16.2624 124.992 15.7959C124.547 15.3206 124.2 14.7602 123.971 14.1474C123.742 13.5345 123.635 12.8815 123.658 12.2266C123.609 10.914 124.072 9.63441 124.948 8.66584ZM125.812 11.4135H130.846C130.752 10.7679 130.462 10.168 130.016 9.69763C129.798 9.47892 129.538 9.30783 129.253 9.19498C128.967 9.08212 128.661 9.0299 128.355 9.04155C127.729 9.01845 127.12 9.24612 126.659 9.6752C126.193 10.1442 125.895 10.7568 125.812 11.4163V11.4135Z" fill="white"/>
<path d="M151.543 8.66584C151.981 8.20017 152.512 7.83431 153.1 7.5926C153.688 7.35088 154.321 7.23885 154.955 7.26395C155.572 7.23979 156.187 7.35277 156.757 7.59495C157.326 7.83714 157.836 8.20265 158.252 8.66584C159.082 9.60043 159.496 10.7874 159.494 12.2266V12.8519H152.387C152.462 13.5347 152.78 14.1664 153.281 14.6295C153.77 15.0687 154.405 15.3032 155.058 15.2856C156.165 15.2856 156.987 14.8968 157.524 14.1192L159.043 15.2407C158.623 15.8591 158.051 16.355 157.383 16.679C156.658 17.0301 155.864 17.2076 155.06 17.1977C154.417 17.2229 153.775 17.1112 153.177 16.8697C152.579 16.6282 152.037 16.2624 151.587 15.7959C151.142 15.3206 150.794 14.7602 150.565 14.1474C150.336 13.5345 150.23 12.8815 150.253 12.2266C150.203 10.914 150.667 9.63441 151.543 8.66584ZM152.406 11.4135H157.441C157.347 10.7679 157.057 10.168 156.61 9.69763C156.393 9.47892 156.133 9.30783 155.847 9.19498C155.562 9.08212 155.256 9.0299 154.95 9.04155C154.324 9.01845 153.714 9.24612 153.253 9.6752C152.788 10.1442 152.49 10.7568 152.406 11.4163V11.4135Z" fill="white"/>
<path d="M170.207 7.2605L172.863 14.1189L175.563 7.2605H178L172.429 21.4615H170.142L171.731 17.4041L167.791 7.2605H170.207Z" fill="white"/>
<path d="M103.992 3.0019H110.479C111.532 2.97194 112.556 3.35058 113.343 4.06042C113.732 4.42364 114.038 4.86887 114.238 5.36471C114.439 5.86056 114.53 6.39494 114.504 6.93019C114.504 8.24159 114.03 9.20994 113.082 9.83525C114.375 10.5017 115.021 11.6004 115.021 13.1314C115.041 13.6843 114.94 14.2348 114.726 14.744C114.513 15.2531 114.191 15.7084 113.784 16.0776C112.995 16.8149 111.956 17.2169 110.882 17.2008H103.992V3.0019ZM110.087 8.88258C110.604 8.9089 111.11 8.72833 111.497 8.37978C111.675 8.21204 111.816 8.00782 111.91 7.78069C112.004 7.55356 112.05 7.30874 112.043 7.06251C112.055 6.81324 112.015 6.56419 111.923 6.33232C111.832 6.10044 111.693 5.89118 111.515 5.71877C111.124 5.37747 110.619 5.20162 110.104 5.22774H106.383V8.89434L110.087 8.88258ZM106.383 14.9632H110.519C110.792 14.976 111.065 14.9302 111.32 14.8288C111.574 14.7275 111.805 14.5729 111.997 14.3751C112.179 14.1826 112.321 13.9552 112.415 13.7063C112.509 13.4574 112.553 13.192 112.545 12.9256C112.552 12.661 112.505 12.3978 112.409 12.1517C112.313 11.9057 112.169 11.6818 111.985 11.4936C111.794 11.2982 111.565 11.1451 111.313 11.0439C111.061 10.9427 110.79 10.8956 110.519 10.9055H106.383V14.9632Z" fill="white"/>
<path d="M136.338 7.2605L138.433 13.9099L140.714 7.2605H142.419L144.678 13.9099L146.764 7.2605H149.152L145.912 17.1896H143.676L141.544 10.8571L139.394 17.2012H137.156L133.981 7.2605H136.338Z" fill="white"/>
<path fill-rule="evenodd" clip-rule="evenodd" d="M119.411 8.90914C119.59 8.57911 119.803 8.27335 120.048 8.0429C120.89 7.25041 121.879 7.25654 122.639 7.26125C122.696 7.2616 122.752 7.26195 122.806 7.26195V9.2498C122.382 9.22613 121.363 9.32079 120.684 9.88875C120.093 10.3829 119.605 11.0491 119.411 12.5338V17.2012H117.289V7.26195H119.411V8.90914Z" fill="white"/>
<path fill-rule="evenodd" clip-rule="evenodd" d="M163.264 8.90914C163.443 8.57912 163.656 8.27335 163.901 8.0429C164.743 7.25041 165.732 7.25654 166.492 7.26125C166.549 7.2616 166.605 7.26195 166.659 7.26195V9.2498C166.235 9.22613 165.216 9.32079 164.537 9.88875C163.946 10.3829 163.458 11.0491 163.264 12.5338V17.2012H161.142V7.26195H163.264V8.90914Z" fill="white"/>
<path d="M43.9957 25.9614H43.3949C43.3501 25.7377 43.2692 25.531 43.152 25.3414C43.0369 25.1496 42.892 24.9824 42.7173 24.8396C42.5426 24.6969 42.3445 24.5861 42.1229 24.5072C41.9013 24.4284 41.6616 24.389 41.4038 24.389C40.9904 24.389 40.6133 24.4966 40.2724 24.7118C39.9336 24.927 39.6619 25.2434 39.4574 25.661C39.255 26.0765 39.1538 26.5857 39.1538 27.1887C39.1538 27.7959 39.255 28.3073 39.4574 28.7228C39.6619 29.1383 39.9336 29.4536 40.2724 29.6688C40.6133 29.8819 40.9904 29.9884 41.4038 29.9884C41.6616 29.9884 41.9013 29.949 42.1229 29.8702C42.3445 29.7913 42.5426 29.6816 42.7173 29.541C42.892 29.3982 43.0369 29.231 43.152 29.0392C43.2692 28.8474 43.3501 28.6397 43.3949 28.416H43.9957C43.9425 28.7164 43.8423 28.9966 43.6953 29.2565C43.5504 29.5143 43.3651 29.7402 43.1392 29.9341C42.9155 30.128 42.6577 30.2793 42.3658 30.3879C42.0739 30.4966 41.7532 30.5509 41.4038 30.5509C40.854 30.5509 40.3661 30.4135 39.94 30.1386C39.5138 29.8616 39.1793 29.4717 38.9364 28.9689C38.6957 28.466 38.5753 27.8726 38.5753 27.1887C38.5753 26.5047 38.6957 25.9114 38.9364 25.4085C39.1793 24.9057 39.5138 24.5168 39.94 24.242C40.3661 23.965 40.854 23.8265 41.4038 23.8265C41.7532 23.8265 42.0739 23.8808 42.3658 23.9895C42.6577 24.096 42.9155 24.2473 43.1392 24.4433C43.3651 24.6372 43.5504 24.8631 43.6953 25.1209C43.8423 25.3787 43.9425 25.6589 43.9957 25.9614ZM45.2813 30.4614V25.5523H45.8343V26.3066H45.8758C45.9738 26.0594 46.1443 25.8602 46.3872 25.7089C46.6322 25.5555 46.9092 25.4788 47.2181 25.4788C47.265 25.4788 47.3172 25.4799 47.3747 25.482C47.4323 25.4842 47.4802 25.4863 47.5186 25.4884V26.0669C47.493 26.0626 47.4482 26.0562 47.3843 26.0477C47.3204 26.0392 47.2512 26.0349 47.1766 26.0349C46.9209 26.0349 46.6929 26.0893 46.4926 26.1979C46.2945 26.3045 46.1379 26.4525 46.0228 26.6422C45.9078 26.8318 45.8502 27.0481 45.8502 27.291V30.4614H45.2813ZM49.8604 30.5733C49.5643 30.5733 49.2937 30.5158 49.0487 30.4007C48.8036 30.2835 48.6087 30.1152 48.4638 29.8957C48.3189 29.6741 48.2464 29.4057 48.2464 29.0903C48.2464 28.8474 48.2923 28.6429 48.3839 28.4767C48.4755 28.3105 48.6055 28.1741 48.7738 28.0676C48.9421 27.9611 49.1413 27.8769 49.3714 27.8151C49.6016 27.7533 49.8551 27.7054 50.1321 27.6713C50.407 27.6372 50.6392 27.6074 50.8288 27.5818C51.0206 27.5562 51.1665 27.5158 51.2667 27.4604C51.3668 27.405 51.4169 27.3155 51.4169 27.1919V27.0768C51.4169 26.7423 51.3168 26.4792 51.1165 26.2874C50.9183 26.0935 50.6328 25.9966 50.2599 25.9966C49.9062 25.9966 49.6175 26.0744 49.3938 26.2299C49.1722 26.3854 49.0167 26.5687 48.9272 26.7796L48.3871 26.5847C48.4979 26.3162 48.6513 26.1021 48.8473 25.9422C49.0433 25.7803 49.2628 25.6642 49.5057 25.5939C49.7486 25.5214 49.9947 25.4852 50.244 25.4852C50.4315 25.4852 50.6264 25.5097 50.8288 25.5587C51.0334 25.6077 51.223 25.693 51.3977 25.8144C51.5724 25.9337 51.7141 26.101 51.8228 26.3162C51.9315 26.5293 51.9858 26.7998 51.9858 27.128V30.4614H51.4169V29.6848H51.3817C51.3136 29.8297 51.2124 29.9703 51.0781 30.1067C50.9439 30.243 50.7756 30.3549 50.5732 30.4422C50.3707 30.5296 50.1332 30.5733 49.8604 30.5733ZM49.9371 30.0523C50.2397 30.0523 50.5018 29.9852 50.7234 29.851C50.945 29.7168 51.1154 29.5388 51.2347 29.3172C51.3562 29.0935 51.4169 28.8474 51.4169 28.579V27.8695C51.3743 27.9099 51.3029 27.9462 51.2028 27.9781C51.1048 28.0101 50.9908 28.0388 50.8608 28.0644C50.733 28.0878 50.6051 28.1081 50.4773 28.1251C50.3494 28.1422 50.2344 28.1571 50.1321 28.1699C49.8551 28.204 49.6186 28.2572 49.4226 28.3297C49.2266 28.4021 49.0763 28.5023 48.9719 28.6301C48.8675 28.7558 48.8153 28.9177 48.8153 29.1159C48.8153 29.4142 48.9219 29.6454 49.1349 29.8094C49.348 29.9714 49.6154 30.0523 49.9371 30.0523ZM55.519 25.5523V26.0477H53.106V25.5523H55.519ZM53.8603 30.4614V24.8332C53.8603 24.569 53.921 24.3464 54.0424 24.1653C54.166 23.9842 54.3269 23.8467 54.525 23.753C54.7232 23.6592 54.9331 23.6123 55.1547 23.6123C55.3038 23.6123 55.4274 23.6251 55.5254 23.6507C55.6255 23.6741 55.7044 23.6976 55.7619 23.721L55.5957 24.2196C55.5531 24.2068 55.5009 24.1919 55.4391 24.1748C55.3773 24.1578 55.2995 24.1493 55.2058 24.1493C54.9586 24.1493 54.7679 24.2185 54.6337 24.357C54.4995 24.4955 54.4324 24.6937 54.4324 24.9515L54.4292 30.4614H53.8603ZM58.588 25.5523V26.0477H56.2453V25.5523H58.588ZM56.9772 24.3762H57.5493V29.1798C57.5493 29.3844 57.5844 29.5452 57.6547 29.6624C57.7251 29.7775 57.8167 29.8595 57.9296 29.9085C58.0425 29.9554 58.1629 29.9788 58.2907 29.9788C58.3653 29.9788 58.4292 29.9746 58.4825 29.966C58.5358 29.9554 58.5827 29.9447 58.6231 29.9341L58.7446 30.4486C58.6892 30.4699 58.621 30.4891 58.54 30.5062C58.4591 30.5253 58.3589 30.5349 58.2396 30.5349C58.0308 30.5349 57.8295 30.4891 57.6356 30.3975C57.4438 30.3059 57.2861 30.1695 57.1626 29.9884C57.039 29.8073 56.9772 29.5825 56.9772 29.3141V24.3762ZM59.8864 30.4614V25.5523H60.4585V30.4614H59.8864ZM60.1772 24.7086C60.06 24.7086 59.9599 24.6692 59.8768 24.5903C59.7937 24.5094 59.7521 24.4124 59.7521 24.2995C59.7521 24.1866 59.7937 24.0907 59.8768 24.0119C59.9599 23.9309 60.06 23.8904 60.1772 23.8904C60.2944 23.8904 60.3945 23.9309 60.4776 24.0119C60.5607 24.0907 60.6023 24.1866 60.6023 24.2995C60.6023 24.4124 60.5607 24.5094 60.4776 24.5903C60.3945 24.6692 60.2944 24.7086 60.1772 24.7086ZM62.5319 27.3932V30.4614H61.963V25.5523H62.5159V26.3226H62.567C62.6821 26.0712 62.8611 25.8698 63.104 25.7185C63.349 25.5651 63.6515 25.4884 64.0116 25.4884C64.3419 25.4884 64.6317 25.5577 64.8809 25.6962C65.1324 25.8325 65.3273 26.0339 65.4658 26.3002C65.6064 26.5665 65.6768 26.8936 65.6768 27.2814V30.4614H65.1079V27.3165C65.1079 26.9138 64.9949 26.5953 64.7691 26.3609C64.5454 26.1266 64.2449 26.0094 63.8678 26.0094C63.61 26.0094 63.3809 26.0648 63.1807 26.1756C62.9804 26.2864 62.8216 26.4462 62.7045 26.655C62.5894 26.8616 62.5319 27.1077 62.5319 27.3932ZM69.0478 32.4046C68.7132 32.4046 68.4203 32.3609 68.1689 32.2736C67.9174 32.1883 67.7054 32.0712 67.5328 31.922C67.3603 31.7729 67.226 31.6056 67.1301 31.4202L67.5968 31.1134C67.6671 31.237 67.7608 31.3584 67.878 31.4778C67.9973 31.5971 68.1518 31.6962 68.3414 31.775C68.5332 31.8538 68.7686 31.8932 69.0478 31.8932C69.4824 31.8932 69.8329 31.7846 70.0993 31.5672C70.3677 31.3499 70.502 31.0122 70.502 30.5541V29.4483H70.4508C70.3848 29.5974 70.29 29.7466 70.1664 29.8957C70.0428 30.0427 69.8809 30.1653 69.6806 30.2633C69.4824 30.3613 69.2363 30.4103 68.9423 30.4103C68.5502 30.4103 68.2019 30.3133 67.8972 30.1195C67.5946 29.9256 67.356 29.6486 67.1813 29.2885C67.0087 28.9263 66.9224 28.4948 66.9224 27.9941C66.9224 27.4976 67.0066 27.0609 67.1749 26.6837C67.3453 26.3066 67.5829 26.0126 67.8876 25.8016C68.1923 25.5907 68.5471 25.4852 68.9519 25.4852C69.2523 25.4852 69.5016 25.5385 69.6998 25.645C69.8979 25.7494 70.0566 25.8794 70.176 26.0349C70.2974 26.1905 70.3922 26.3418 70.4604 26.4888H70.5179V25.5523H71.074V30.5893C71.074 31.0047 70.9856 31.3467 70.8088 31.6152C70.6319 31.8837 70.3912 32.0818 70.0865 32.2097C69.7818 32.3396 69.4355 32.4046 69.0478 32.4046ZM69.0094 29.8893C69.3248 29.8893 69.5943 29.8137 69.818 29.6624C70.0417 29.509 70.2132 29.2896 70.3326 29.004C70.4519 28.7185 70.5115 28.3787 70.5115 27.9845C70.5115 27.601 70.4529 27.2611 70.3358 26.965C70.2186 26.6667 70.0481 26.4323 69.8244 26.2619C69.6028 26.0893 69.3311 26.003 69.0094 26.003C68.6813 26.003 68.4043 26.0914 68.1784 26.2682C67.9526 26.4451 67.7821 26.6837 67.6671 26.9842C67.552 27.2824 67.4945 27.6159 67.4945 27.9845C67.4945 28.3595 67.5531 28.6908 67.6703 28.9785C67.7875 29.264 67.959 29.4877 68.1848 29.6496C68.4107 29.8094 68.6855 29.8893 69.0094 29.8893ZM75.1114 32.3023V25.5523H75.6643V26.4888H75.7314C75.7996 26.3418 75.8934 26.1915 76.0127 26.0381C76.132 25.8826 76.2897 25.7516 76.4857 25.645C76.6839 25.5385 76.9331 25.4852 77.2336 25.4852C77.6384 25.4852 77.9921 25.5918 78.2947 25.8048C78.5993 26.0158 78.8358 26.3119 79.0042 26.6933C79.1746 27.0726 79.2599 27.5147 79.2599 28.0197C79.2599 28.5268 79.1746 28.971 79.0042 29.3524C78.8358 29.7338 78.5993 30.031 78.2947 30.2441C77.9921 30.4572 77.6405 30.5637 77.24 30.5637C76.9438 30.5637 76.6956 30.5104 76.4953 30.4039C76.2971 30.2974 76.1363 30.1663 76.0127 30.0108C75.8912 29.8531 75.7975 29.6997 75.7314 29.5506H75.6803V32.3023H75.1114ZM75.6739 28.0101C75.6739 28.4064 75.7325 28.7579 75.8497 29.0648C75.969 29.3695 76.1395 29.6092 76.3611 29.7839C76.5848 29.9565 76.8554 30.0427 77.1729 30.0427C77.4988 30.0427 77.7737 29.9533 77.9974 29.7743C78.2233 29.5932 78.3948 29.3492 78.512 29.0424C78.6313 28.7356 78.691 28.3915 78.691 28.0101C78.691 27.6329 78.6324 27.2931 78.5152 26.9905C78.4001 26.688 78.2297 26.4483 78.0038 26.2714C77.778 26.0925 77.501 26.003 77.1729 26.003C76.8532 26.003 76.5816 26.0893 76.3579 26.2619C76.1341 26.4323 75.9637 26.6688 75.8465 26.9714C75.7314 27.2718 75.6739 27.618 75.6739 28.0101ZM82.4926 30.5637C82.0345 30.5637 81.6382 30.4572 81.3037 30.2441C80.9692 30.0289 80.7103 29.7317 80.5271 29.3524C80.346 28.971 80.2554 28.5321 80.2554 28.0356C80.2554 27.5413 80.346 27.1024 80.5271 26.7189C80.7103 26.3332 80.9628 26.0317 81.2845 25.8144C81.6084 25.5949 81.9823 25.4852 82.4063 25.4852C82.6727 25.4852 82.9294 25.5342 83.1766 25.6322C83.4237 25.7281 83.6453 25.8762 83.8414 26.0765C84.0395 26.2746 84.1961 26.525 84.3112 26.8275C84.4262 27.128 84.4838 27.4838 84.4838 27.895V28.1763H80.6485V27.6745H83.9021C83.9021 27.3592 83.8382 27.0758 83.7103 26.8244C83.5846 26.5708 83.4088 26.3705 83.183 26.2235C82.9593 26.0765 82.7004 26.003 82.4063 26.003C82.0953 26.003 81.8215 26.0861 81.585 26.2523C81.3485 26.4185 81.1631 26.6379 81.0289 26.9106C80.8968 27.1834 80.8296 27.4817 80.8275 27.8055V28.106C80.8275 28.4959 80.8946 28.8368 81.0289 29.1287C81.1652 29.4185 81.358 29.6432 81.6073 29.803C81.8566 29.9628 82.1517 30.0427 82.4926 30.0427C82.7249 30.0427 82.9284 30.0065 83.1031 29.9341C83.2799 29.8616 83.428 29.7647 83.5473 29.6432C83.6688 29.5197 83.7604 29.3844 83.8222 29.2373L84.3623 29.4131C84.2877 29.6198 84.1652 29.8105 83.9948 29.9852C83.8264 30.1599 83.6155 30.3006 83.3619 30.4071C83.1105 30.5115 82.8208 30.5637 82.4926 30.5637ZM85.7374 30.4614V25.5523H86.2903V26.3066H86.3319C86.4299 26.0594 86.6003 25.8602 86.8432 25.7089C87.0882 25.5555 87.3652 25.4788 87.6742 25.4788C87.7211 25.4788 87.7733 25.4799 87.8308 25.482C87.8883 25.4842 87.9363 25.4863 87.9746 25.4884V26.0669C87.949 26.0626 87.9043 26.0562 87.8404 26.0477C87.7765 26.0392 87.7072 26.0349 87.6326 26.0349C87.377 26.0349 87.149 26.0893 86.9487 26.1979C86.7505 26.3045 86.5939 26.4525 86.4789 26.6422C86.3638 26.8318 86.3063 27.0481 86.3063 27.291V30.4614H85.7374ZM91.2729 25.5523V26.0477H88.8599V25.5523H91.2729ZM89.6142 30.4614V24.8332C89.6142 24.569 89.6749 24.3464 89.7963 24.1653C89.9199 23.9842 90.0808 23.8467 90.2789 23.753C90.4771 23.6592 90.687 23.6123 90.9086 23.6123C91.0577 23.6123 91.1813 23.6251 91.2793 23.6507C91.3794 23.6741 91.4583 23.6976 91.5158 23.721L91.3496 24.2196C91.307 24.2068 91.2548 24.1919 91.193 24.1748C91.1312 24.1578 91.0534 24.1493 90.9597 24.1493C90.7125 24.1493 90.5218 24.2185 90.3876 24.357C90.2534 24.4955 90.1863 24.6937 90.1863 24.9515L90.1831 30.4614H89.6142ZM94.1909 30.5637C93.7328 30.5637 93.3365 30.4572 93.002 30.2441C92.6674 30.0289 92.4086 29.7317 92.2253 29.3524C92.0442 28.971 91.9537 28.5321 91.9537 28.0356C91.9537 27.5413 92.0442 27.1024 92.2253 26.7189C92.4086 26.3332 92.661 26.0317 92.9828 25.8144C93.3066 25.5949 93.6806 25.4852 94.1046 25.4852C94.3709 25.4852 94.6277 25.5342 94.8748 25.6322C95.122 25.7281 95.3436 25.8762 95.5396 26.0765C95.7377 26.2746 95.8944 26.525 96.0094 26.8275C96.1245 27.128 96.182 27.4838 96.182 27.895V28.1763H92.3468V27.6745H95.6003C95.6003 27.3592 95.5364 27.0758 95.4086 26.8244C95.2828 26.5708 95.1071 26.3705 94.8812 26.2235C94.6575 26.0765 94.3986 26.003 94.1046 26.003C93.7935 26.003 93.5197 26.0861 93.2832 26.2523C93.0467 26.4185 92.8613 26.6379 92.7271 26.9106C92.595 27.1834 92.5279 27.4817 92.5257 27.8055V28.106C92.5257 28.4959 92.5929 28.8368 92.7271 29.1287C92.8635 29.4185 93.0563 29.6432 93.3056 29.803C93.5549 29.9628 93.85 30.0427 94.1909 30.0427C94.4231 30.0427 94.6266 30.0065 94.8013 29.9341C94.9782 29.8616 95.1262 29.7647 95.2456 29.6432C95.367 29.5197 95.4586 29.3844 95.5204 29.2373L96.0605 29.4131C95.986 29.6198 95.8635 29.8105 95.693 29.9852C95.5247 30.1599 95.3137 30.3006 95.0602 30.4071C94.8088 30.5115 94.519 30.5637 94.1909 30.5637ZM99.3532 30.5637C98.9143 30.5637 98.5319 30.454 98.2059 30.2345C97.882 30.015 97.6306 29.7146 97.4516 29.3332C97.2726 28.9518 97.1831 28.5172 97.1831 28.0293C97.1831 27.5371 97.2737 27.0992 97.4548 26.7157C97.6381 26.3322 97.8916 26.0317 98.2155 25.8144C98.5393 25.5949 98.9154 25.4852 99.3437 25.4852C99.6718 25.4852 99.969 25.5491 100.235 25.677C100.502 25.8027 100.721 25.9806 100.894 26.2107C101.068 26.4387 101.178 26.705 101.223 27.0097H100.648C100.588 26.7327 100.444 26.4962 100.216 26.3002C99.9903 26.1021 99.7027 26.003 99.3532 26.003C99.04 26.003 98.7631 26.0882 98.5223 26.2587C98.2815 26.427 98.093 26.6624 97.9566 26.965C97.8224 27.2654 97.7552 27.6138 97.7552 28.0101C97.7552 28.4085 97.8213 28.7611 97.9534 29.068C98.0855 29.3726 98.2709 29.6113 98.5095 29.7839C98.7503 29.9565 99.0315 30.0427 99.3532 30.0427C99.5706 30.0427 99.7687 30.0023 99.9477 29.9213C100.129 29.8382 100.28 29.721 100.402 29.5697C100.525 29.4185 100.608 29.2384 100.651 29.0296H101.226C101.184 29.3258 101.078 29.59 100.91 29.8222C100.744 30.0523 100.527 30.2334 100.261 30.3655C99.9967 30.4976 99.6942 30.5637 99.3532 30.5637ZM104.379 25.5523V26.0477H102.036V25.5523H104.379ZM102.768 24.3762H103.34V29.1798C103.34 29.3844 103.375 29.5452 103.446 29.6624C103.516 29.7775 103.608 29.8595 103.721 29.9085C103.834 29.9554 103.954 29.9788 104.082 29.9788C104.156 29.9788 104.22 29.9746 104.274 29.966C104.327 29.9554 104.374 29.9447 104.414 29.9341L104.536 30.4486C104.48 30.4699 104.412 30.4891 104.331 30.5062C104.25 30.5253 104.15 30.5349 104.031 30.5349C103.822 30.5349 103.62 30.4891 103.427 30.3975C103.235 30.3059 103.077 30.1695 102.954 29.9884C102.83 29.8073 102.768 29.5825 102.768 29.3141V24.3762ZM108.32 30.4614V23.916H108.893V26.4888H108.944C109.008 26.3418 109.099 26.1905 109.219 26.0349C109.34 25.8794 109.499 25.7494 109.695 25.645C109.893 25.5385 110.142 25.4852 110.443 25.4852C110.845 25.4852 111.199 25.5918 111.504 25.8048C111.808 26.0158 112.046 26.3119 112.216 26.6933C112.387 27.0726 112.472 27.5147 112.472 28.0197C112.472 28.5268 112.387 28.971 112.216 29.3524C112.048 29.7338 111.812 30.031 111.507 30.2441C111.204 30.4572 110.853 30.5637 110.452 30.5637C110.154 30.5637 109.905 30.5104 109.704 30.4039C109.506 30.2974 109.346 30.1663 109.225 30.0108C109.104 29.8531 109.01 29.6997 108.944 29.5506H108.873V30.4614H108.32ZM108.883 28.0101C108.883 28.4064 108.942 28.7579 109.059 29.0648C109.178 29.3695 109.349 29.6092 109.57 29.7839C109.794 29.9565 110.064 30.0427 110.382 30.0427C110.708 30.0427 110.984 29.9533 111.21 29.7743C111.436 29.5932 111.607 29.3492 111.724 29.0424C111.841 28.7356 111.9 28.3915 111.9 28.0101C111.9 27.6329 111.841 27.2931 111.724 26.9905C111.609 26.688 111.439 26.4483 111.213 26.2714C110.987 26.0925 110.71 26.003 110.382 26.003C110.062 26.003 109.791 26.0893 109.567 26.2619C109.345 26.4323 109.176 26.6688 109.059 26.9714C108.942 27.2718 108.883 27.618 108.883 28.0101ZM114.291 23.916V30.4614H113.722V23.916H114.291ZM117.781 30.5637C117.323 30.5637 116.926 30.4572 116.592 30.2441C116.257 30.0289 115.998 29.7317 115.815 29.3524C115.634 28.971 115.544 28.5321 115.544 28.0356C115.544 27.5413 115.634 27.1024 115.815 26.7189C115.998 26.3332 116.251 26.0317 116.573 25.8144C116.896 25.5949 117.27 25.4852 117.694 25.4852C117.961 25.4852 118.218 25.5342 118.465 25.6322C118.712 25.7281 118.933 25.8762 119.129 26.0765C119.328 26.2746 119.484 26.525 119.599 26.8275C119.714 27.128 119.772 27.4838 119.772 27.895V28.1763H115.937V27.6745H119.19C119.19 27.3592 119.126 27.0758 118.998 26.8244C118.873 26.5708 118.697 26.3705 118.471 26.2235C118.247 26.0765 117.988 26.003 117.694 26.003C117.383 26.003 117.11 26.0861 116.873 26.2523C116.637 26.4185 116.451 26.6379 116.317 26.9106C116.185 27.1834 116.118 27.4817 116.116 27.8055V28.106C116.116 28.4959 116.183 28.8368 116.317 29.1287C116.453 29.4185 116.646 29.6432 116.895 29.803C117.145 29.9628 117.44 30.0427 117.781 30.0427C118.013 30.0427 118.216 30.0065 118.391 29.9341C118.568 29.8616 118.716 29.7647 118.835 29.6432C118.957 29.5197 119.048 29.3844 119.11 29.2373L119.65 29.4131C119.576 29.6198 119.453 29.8105 119.283 29.9852C119.115 30.1599 118.904 30.3006 118.65 30.4071C118.399 30.5115 118.109 30.5637 117.781 30.5637ZM121.594 27.3932V30.4614H121.025V25.5523H121.578V26.3226H121.63C121.745 26.0712 121.924 25.8698 122.166 25.7185C122.411 25.5651 122.714 25.4884 123.074 25.4884C123.404 25.4884 123.694 25.5577 123.943 25.6962C124.195 25.8325 124.39 26.0339 124.528 26.3002C124.669 26.5665 124.739 26.8936 124.739 27.2814V30.4614H124.17V27.3165C124.17 26.9138 124.057 26.5953 123.832 26.3609C123.608 26.1266 123.307 26.0094 122.93 26.0094C122.672 26.0094 122.443 26.0648 122.243 26.1756C122.043 26.2864 121.884 26.4462 121.767 26.655C121.652 26.8616 121.594 27.1077 121.594 27.3932ZM128.005 30.5637C127.602 30.5637 127.249 30.4572 126.947 30.2441C126.644 30.031 126.408 29.7338 126.237 29.3524C126.069 28.971 125.985 28.5268 125.985 28.0197C125.985 27.5147 126.069 27.0726 126.237 26.6933C126.408 26.3119 126.645 26.0158 126.95 25.8048C127.255 25.5918 127.61 25.4852 128.014 25.4852C128.313 25.4852 128.561 25.5385 128.759 25.645C128.957 25.7494 129.116 25.8794 129.235 26.0349C129.355 26.1905 129.447 26.3418 129.513 26.4888H129.564V23.916H130.137V30.4614H129.58V29.5506H129.513C129.447 29.6997 129.354 29.8531 129.232 30.0108C129.111 30.1663 128.95 30.2974 128.749 30.4039C128.551 30.5104 128.303 30.5637 128.005 30.5637ZM128.072 30.0427C128.389 30.0427 128.66 29.9565 128.884 29.7839C129.107 29.6092 129.278 29.3695 129.395 29.0648C129.514 28.7579 129.574 28.4064 129.574 28.0101C129.574 27.618 129.515 27.2718 129.398 26.9714C129.281 26.6688 129.111 26.4323 128.887 26.2619C128.663 26.0893 128.392 26.003 128.072 26.003C127.744 26.003 127.467 26.0925 127.241 26.2714C127.017 26.4483 126.847 26.688 126.73 26.9905C126.615 27.2931 126.557 27.6329 126.557 28.0101C126.557 28.3915 126.616 28.7356 126.733 29.0424C126.85 29.3492 127.02 29.5932 127.244 29.7743C127.47 29.9533 127.746 30.0427 128.072 30.0427ZM136.196 30.5637C135.772 30.5637 135.397 30.4561 135.071 30.2409C134.747 30.0257 134.494 29.7285 134.311 29.3492C134.127 28.9678 134.036 28.5278 134.036 28.0293C134.036 27.5264 134.127 27.0843 134.311 26.7029C134.494 26.3194 134.747 26.0211 135.071 25.808C135.397 25.5928 135.772 25.4852 136.196 25.4852C136.62 25.4852 136.994 25.5928 137.318 25.808C137.642 26.0232 137.895 26.3215 138.079 26.7029C138.264 27.0843 138.357 27.5264 138.357 28.0293C138.357 28.5278 138.265 28.9678 138.082 29.3492C137.899 29.7285 137.644 30.0257 137.318 30.2409C136.994 30.4561 136.62 30.5637 136.196 30.5637ZM136.196 30.0427C136.537 30.0427 136.826 29.9511 137.062 29.7679C137.299 29.5847 137.478 29.3407 137.599 29.036C137.723 28.7313 137.785 28.3957 137.785 28.0293C137.785 27.6628 137.723 27.3261 137.599 27.0193C137.478 26.7125 137.299 26.4664 137.062 26.281C136.826 26.0957 136.537 26.003 136.196 26.003C135.857 26.003 135.569 26.0957 135.33 26.281C135.094 26.4664 134.914 26.7125 134.79 27.0193C134.669 27.3261 134.608 27.6628 134.608 28.0293C134.608 28.3957 134.669 28.7313 134.79 29.036C134.914 29.3407 135.094 29.5847 135.33 29.7679C135.567 29.9511 135.855 30.0427 136.196 30.0427ZM141.625 25.5523V26.0477H139.212V25.5523H141.625ZM139.967 30.4614V24.8332C139.967 24.569 140.027 24.3464 140.149 24.1653C140.272 23.9842 140.433 23.8467 140.631 23.753C140.83 23.6592 141.04 23.6123 141.261 23.6123C141.41 23.6123 141.534 23.6251 141.632 23.6507C141.732 23.6741 141.811 23.6976 141.868 23.721L141.702 24.2196C141.66 24.2068 141.607 24.1919 141.546 24.1748C141.484 24.1578 141.406 24.1493 141.312 24.1493C141.065 24.1493 140.874 24.2185 140.74 24.357C140.606 24.4955 140.539 24.6937 140.539 24.9515L140.536 30.4614H139.967ZM145.298 30.4614V25.5523H145.871V30.4614H145.298ZM145.589 24.7086C145.472 24.7086 145.372 24.6692 145.289 24.5903C145.206 24.5094 145.164 24.4124 145.164 24.2995C145.164 24.1866 145.206 24.0907 145.289 24.0119C145.372 23.9309 145.472 23.8904 145.589 23.8904C145.706 23.8904 145.807 23.9309 145.89 24.0119C145.973 24.0907 146.014 24.1866 146.014 24.2995C146.014 24.4124 145.973 24.5094 145.89 24.5903C145.807 24.6692 145.706 24.7086 145.589 24.7086ZM147.944 27.3932V30.4614H147.375V25.5523H147.928V26.3226H147.979C148.094 26.0712 148.273 25.8698 148.516 25.7185C148.761 25.5651 149.064 25.4884 149.424 25.4884C149.754 25.4884 150.044 25.5577 150.293 25.6962C150.544 25.8325 150.739 26.0339 150.878 26.3002C151.019 26.5665 151.089 26.8936 151.089 27.2814V30.4614H150.52V27.3165C150.52 26.9138 150.407 26.5953 150.181 26.3609C149.957 26.1266 149.657 26.0094 149.28 26.0094C149.022 26.0094 148.793 26.0648 148.593 26.1756C148.392 26.2864 148.234 26.4462 148.117 26.655C148.002 26.8616 147.944 27.1077 147.944 27.3932ZM155.885 26.6294L155.364 26.7764C155.313 26.6294 155.241 26.4962 155.147 26.3769C155.053 26.2576 154.931 26.1628 154.779 26.0925C154.63 26.0222 154.445 25.987 154.223 25.987C153.891 25.987 153.618 26.0658 153.405 26.2235C153.192 26.3812 153.086 26.5847 153.086 26.8339C153.086 27.0449 153.158 27.2164 153.303 27.3485C153.45 27.4785 153.676 27.5818 153.98 27.6585L154.722 27.8407C155.133 27.9408 155.441 28.0996 155.646 28.3169C155.852 28.5342 155.956 28.807 155.956 29.1351C155.956 29.4121 155.879 29.6582 155.725 29.8734C155.572 30.0886 155.358 30.2579 155.083 30.3815C154.81 30.503 154.494 30.5637 154.134 30.5637C153.654 30.5637 153.259 30.4561 152.948 30.2409C152.637 30.0236 152.438 29.7104 152.35 29.3013L152.897 29.167C152.967 29.4589 153.105 29.6795 153.309 29.8286C153.516 29.9778 153.788 30.0523 154.124 30.0523C154.501 30.0523 154.803 29.9682 155.029 29.7998C155.255 29.6294 155.368 29.4163 155.368 29.1606C155.368 28.9625 155.301 28.7963 155.169 28.6621C155.037 28.5257 154.837 28.4256 154.569 28.3616L153.766 28.1699C153.34 28.0676 153.025 27.9057 152.82 27.6841C152.616 27.4625 152.513 27.1876 152.513 26.8595C152.513 26.5889 152.587 26.3513 152.734 26.1468C152.881 25.9401 153.083 25.7782 153.341 25.661C153.599 25.5438 153.893 25.4852 154.223 25.4852C154.673 25.4852 155.032 25.5875 155.3 25.792C155.571 25.9945 155.766 26.2736 155.885 26.6294ZM157.208 30.4614V25.5523H157.78V30.4614H157.208ZM157.498 24.7086C157.381 24.7086 157.281 24.6692 157.198 24.5903C157.115 24.5094 157.073 24.4124 157.073 24.2995C157.073 24.1866 157.115 24.0907 157.198 24.0119C157.281 23.9309 157.381 23.8904 157.498 23.8904C157.616 23.8904 157.716 23.9309 157.799 24.0119C157.882 24.0907 157.924 24.1866 157.924 24.2995C157.924 24.4124 157.882 24.5094 157.799 24.5903C157.716 24.6692 157.616 24.7086 157.498 24.7086ZM161.157 32.4046C160.823 32.4046 160.53 32.3609 160.278 32.2736C160.027 32.1883 159.815 32.0712 159.642 31.922C159.47 31.7729 159.335 31.6056 159.24 31.4202L159.706 31.1134C159.776 31.237 159.87 31.3584 159.987 31.4778C160.107 31.5971 160.261 31.6962 160.451 31.775C160.643 31.8538 160.878 31.8932 161.157 31.8932C161.592 31.8932 161.942 31.7846 162.209 31.5672C162.477 31.3499 162.611 31.0122 162.611 30.5541V29.4483H162.56C162.494 29.5974 162.399 29.7466 162.276 29.8957C162.152 30.0427 161.99 30.1653 161.79 30.2633C161.592 30.3613 161.346 30.4103 161.052 30.4103C160.66 30.4103 160.311 30.3133 160.007 30.1195C159.704 29.9256 159.465 29.6486 159.291 29.2885C159.118 28.9263 159.032 28.4948 159.032 27.9941C159.032 27.4976 159.116 27.0609 159.284 26.6837C159.455 26.3066 159.692 26.0126 159.997 25.8016C160.302 25.5907 160.656 25.4852 161.061 25.4852C161.362 25.4852 161.611 25.5385 161.809 25.645C162.007 25.7494 162.166 25.8794 162.285 26.0349C162.407 26.1905 162.502 26.3418 162.57 26.4888H162.627V25.5523H163.183V30.5893C163.183 31.0047 163.095 31.3467 162.918 31.6152C162.741 31.8837 162.501 32.0818 162.196 32.2097C161.891 32.3396 161.545 32.4046 161.157 32.4046ZM161.119 29.8893C161.434 29.8893 161.704 29.8137 161.927 29.6624C162.151 29.509 162.323 29.2896 162.442 29.004C162.561 28.7185 162.621 28.3787 162.621 27.9845C162.621 27.601 162.562 27.2611 162.445 26.965C162.328 26.6667 162.157 26.4323 161.934 26.2619C161.712 26.0893 161.441 26.003 161.119 26.003C160.791 26.003 160.514 26.0914 160.288 26.2682C160.062 26.4451 159.892 26.6837 159.776 26.9842C159.661 27.2824 159.604 27.6159 159.604 27.9845C159.604 28.3595 159.662 28.6908 159.78 28.9785C159.897 29.264 160.068 29.4877 160.294 29.6496C160.52 29.8094 160.795 29.8893 161.119 29.8893ZM165.258 27.3932V30.4614H164.69V23.916H165.258V26.3226H165.31C165.425 26.069 165.603 25.8666 165.843 25.7153C166.086 25.5641 166.393 25.4884 166.764 25.4884C167.096 25.4884 167.388 25.5566 167.639 25.693C167.891 25.8293 168.087 26.0307 168.228 26.297C168.368 26.5633 168.438 26.8915 168.438 27.2814V30.4614H167.866V27.3165C167.866 26.9117 167.753 26.5932 167.528 26.3609C167.304 26.1266 167.001 26.0094 166.62 26.0094C166.358 26.0094 166.125 26.0648 165.92 26.1756C165.715 26.2864 165.554 26.4462 165.434 26.655C165.317 26.8616 165.258 27.1077 165.258 27.3932ZM171.87 25.5523V26.0477H169.528V25.5523H171.87ZM170.259 24.3762H170.831V29.1798C170.831 29.3844 170.867 29.5452 170.937 29.6624C171.007 29.7775 171.099 29.8595 171.212 29.9085C171.325 29.9554 171.445 29.9788 171.573 29.9788C171.648 29.9788 171.711 29.9746 171.765 29.966C171.818 29.9554 171.865 29.9447 171.905 29.9341L172.027 30.4486C171.971 30.4699 171.903 30.4891 171.822 30.5062C171.741 30.5253 171.641 30.5349 171.522 30.5349C171.313 30.5349 171.112 30.4891 170.918 30.3975C170.726 30.3059 170.568 30.1695 170.445 29.9884C170.321 29.8073 170.259 29.5825 170.259 29.3141V24.3762ZM176.373 26.6294L175.852 26.7764C175.801 26.6294 175.728 26.4962 175.634 26.3769C175.541 26.2576 175.418 26.1628 175.267 26.0925C175.118 26.0222 174.932 25.987 174.711 25.987C174.378 25.987 174.106 26.0658 173.892 26.2235C173.679 26.3812 173.573 26.5847 173.573 26.8339C173.573 27.0449 173.645 27.2164 173.79 27.3485C173.937 27.4785 174.163 27.5818 174.468 27.6585L175.209 27.8407C175.62 27.9408 175.928 28.0996 176.133 28.3169C176.34 28.5342 176.443 28.807 176.443 29.1351C176.443 29.4121 176.366 29.6582 176.213 29.8734C176.059 30.0886 175.845 30.2579 175.57 30.3815C175.298 30.503 174.981 30.5637 174.621 30.5637C174.142 30.5637 173.747 30.4561 173.435 30.2409C173.124 30.0236 172.925 29.7104 172.838 29.3013L173.384 29.167C173.455 29.4589 173.592 29.6795 173.797 29.8286C174.003 29.9778 174.275 30.0523 174.612 30.0523C174.989 30.0523 175.29 29.9682 175.516 29.7998C175.742 29.6294 175.855 29.4163 175.855 29.1606C175.855 28.9625 175.789 28.7963 175.657 28.6621C175.525 28.5257 175.324 28.4256 175.056 28.3616L174.254 28.1699C173.828 28.0676 173.512 27.9057 173.308 27.6841C173.103 27.4625 173.001 27.1876 173.001 26.8595C173.001 26.5889 173.074 26.3513 173.221 26.1468C173.368 25.9401 173.571 25.7782 173.829 25.661C174.086 25.5438 174.38 25.4852 174.711 25.4852C175.16 25.4852 175.519 25.5875 175.788 25.792C176.058 25.9945 176.253 26.2736 176.373 26.6294Z" fill="#9E9E9E"/>
</svg>
