<svg width="14" height="13" viewBox="0 0 14 13" fill="none" xmlns="http://www.w3.org/2000/svg">
<path d="M2.8097 10.988C1.9317 10.1033 1.34105 8.97403 1.11502 7.74793C0.437803 4.08558 2.7651 0.728158 6.44187 0.080306C6.93827 -0.0119917 7.44618 -0.024822 7.9466 0.0422943C8.63796 0.145715 9.26365 0.509678 9.69555 1.05965C10.1275 1.60963 10.3329 2.30401 10.2698 3.0006C10.212 3.69221 9.89911 4.33758 9.39198 4.81109C8.88486 5.28459 8.2198 5.55235 7.52623 5.56225C5.32942 5.61927 3.53481 6.96703 3.01617 9.0238C2.85595 9.65925 2.87329 10.341 2.8097 10.988Z" fill="black"/>
<path d="M12.0617 1.88464C12.8777 2.69198 13.4658 3.7009 13.7663 4.80906C14.8795 8.87466 11.7627 12.9816 7.55077 12.9981C5.97749 13.0039 4.72135 11.7966 4.7007 10.2596C4.68005 8.69452 5.89325 7.45749 7.48388 7.42196C10.182 7.35998 12.2178 5.24289 12.1269 2.58621C12.122 2.3821 12.0914 2.17799 12.0617 1.88464Z" fill="black"/>
<circle cx="7.49805" cy="6.5" r="6.25" stroke="black" stroke-width="0.5"/>
</svg>
