<svg width="278" height="298" viewBox="0 0 278 298" fill="none" xmlns="http://www.w3.org/2000/svg">
<path d="M76.5112 270.836C76.87 270.654 84.8889 289.323 87.6232 295.786C88.1699 297.043 89.4321 297.575 90.6903 297.388C92.3072 297.02 94.8226 296.466 96.6185 295.916C98.2355 295.547 99.1259 293.923 98.5782 292.486C94.7357 280.811 90.3004 259.603 89.9447 260.325L76.5112 270.836Z" fill="black"/>
<path d="M199.215 241.365C198.855 241.367 200.048 261.693 200.625 268.528C200.632 269.787 199.92 271.051 198.662 271.238C197.045 271.607 194.529 272.16 192.733 272.71C191.116 273.079 189.671 272.008 189.483 270.569C187.617 258.343 181.924 237.502 182.646 237.858L199.215 241.365Z" fill="black"/>
<path d="M29.8622 163.311C22.5028 166.231 16.9694 173.999 17.1942 182.095C17.606 191.45 25.9277 199.861 35.2848 200.349C40.0608 218.136 56.0248 274.549 64.3175 277.742C70.2667 280.048 211.472 245.974 213.429 242.005C216.453 235.87 198.256 166.154 198.202 156.438C198.18 152.479 213.293 152.755 214.462 136.554C215.458 121.613 213.637 117.665 199.575 112.164C196.51 110.922 186.672 120.873 184.142 118.908C181.974 117.121 187.108 37.5583 172.98 20.1825C139.287 -21.7365 10.6591 9.56811 0.537608 65.7659C-2.08171 79.9958 27.8374 122.655 35.8743 144.564C38.0659 150.489 36.6648 157.335 32.1917 161.678C31.2963 162.403 30.5807 163.127 29.8622 163.311Z" fill="#FBC108"/>
<path d="M41.7347 130.856C56.6503 128.074 70.6464 121.698 82.4669 112.276C83.1834 111.732 82.0991 110.838 81.5624 111.381C69.9208 120.623 56.1046 126.997 41.368 129.599C40.4695 129.783 40.8363 131.041 41.7347 130.856Z" fill="white"/>
<path d="M41.7824 139.313C54.7162 136.002 66.007 128.382 76.9391 120.944C79.8062 118.948 82.6734 116.953 84.817 114.242C85.3527 113.519 84.2704 112.986 83.7337 113.528C81.2333 116.781 77.6476 118.96 74.2428 121.319C70.8379 123.677 67.4321 125.855 64.0263 128.033C57.0347 132.391 49.6794 136.03 41.5955 138.054C40.6971 138.239 41.0638 139.497 41.7824 139.313Z" fill="white"/>
<path d="M43.2919 151.541C59.0948 146.595 73.6196 138.237 85.9708 127.192C89.5505 123.933 92.7704 120.676 95.9884 117.059C96.525 116.517 95.6196 115.442 95.084 116.165C84.3588 128.46 70.9223 138.432 56.0288 145.172C51.7225 147.176 47.4143 148.819 42.9251 150.283C42.0267 150.468 42.3934 151.726 43.2919 151.541Z" fill="white"/>
<path d="M46.2349 163.76C65.2688 157.537 83.0205 147.181 98.2398 134.321C102.537 130.698 106.653 126.897 110.408 122.737C110.945 122.194 110.039 121.12 109.504 121.842C95.9123 136.313 79.2469 147.922 61.3043 156.299C56.2805 158.666 51.0748 160.674 45.6882 162.504C45.1506 162.867 45.5173 164.124 46.2349 163.76Z" fill="white"/>
<path d="M53.4965 175.056C71.0663 164.342 87.9076 152.012 103.303 138.431C107.599 134.629 111.715 130.827 115.831 126.845C116.367 126.303 115.463 125.408 114.926 125.951C100.436 140.427 84.137 153.293 67.1108 164.724C62.4508 167.809 57.6108 170.895 52.7709 173.98C52.0534 174.344 52.7799 175.6 53.4965 175.056Z" fill="white"/>
<path d="M74.3525 173.141C87.2553 164.252 98.5282 153.393 107.994 141.105C108.53 140.382 107.267 139.669 106.731 140.392C97.4438 152.499 86.17 163.179 73.626 171.885C72.9094 172.429 73.636 173.685 74.3525 173.141Z" fill="white"/>
<path d="M43.6613 121.308C57.4935 117.812 70.958 112.879 83.8748 106.509C84.7712 105.964 84.4024 104.347 83.505 104.712C70.5892 111.261 57.1248 116.195 43.2915 119.51C42.2132 119.696 42.583 121.494 43.6613 121.308Z" fill="white"/>
<path d="M77.329 61.9201C77.5379 67.1372 77.9736 80.8103 78.3624 86.0264C78.5573 88.7245 78.5733 91.6034 77.5069 93.9486C75.5502 97.9182 70.8811 99.3836 66.5699 100.487C66.0532 104.629 66.2271 103.548 66.7888 107.504C66.9726 108.222 66.9766 108.942 67.6992 109.478C68.2408 109.835 68.7805 109.832 69.3202 109.829C72.5591 109.991 73.4825 114.304 70.6124 115.76C68.9984 116.668 67.2025 117.218 65.4047 117.408C61.0894 117.792 56.5852 116.557 52.4389 114.961C51.8982 114.784 51.1767 114.428 50.8139 113.89C50.2712 113.354 50.2662 112.454 50.0824 111.735C49.5057 105.081 49.4977 103.641 49.8205 96.9815C46.7654 97.5383 43.1607 96.2987 41.7056 93.4277C40.2506 90.5568 41.6677 86.5902 44.7217 85.8535C45.2604 85.6705 46.1598 85.6655 46.3367 85.1247C46.5146 84.7638 46.5126 84.404 46.5106 84.0441C46.6695 80.2645 46.4196 67.67 46.5785 63.8904C56.4292 56.0982 65.7813 55.6863 76.4246 61.0254L77.329 61.9201Z" fill="white"/>
<path d="M76.43 61.9255C76.6389 67.1426 76.8487 72.5396 77.0576 77.7568C77.0716 80.2759 77.2645 82.614 77.4584 85.1321C77.6563 88.37 78.037 92.1466 75.7135 94.8586C73.39 97.5706 69.6184 98.6712 66.2055 99.5899C65.6669 99.7728 65.489 100.134 65.491 100.494C65.1452 103.015 65.1302 100.316 65.3251 103.014C65.3311 104.093 65.518 105.352 65.7039 106.43C65.8898 107.509 65.8958 108.589 66.4404 109.485C67.168 110.921 68.7869 110.912 70.227 111.084C71.3063 111.078 72.5685 111.611 72.3956 112.871C72.4006 113.771 71.6831 114.135 70.9655 114.499C69.8892 115.044 68.9928 115.589 67.7356 115.956C65.4011 116.689 62.8827 116.703 60.5422 116.356C58.2016 116.009 56.039 115.301 53.6955 114.415C52.6142 114.061 51.5329 113.707 51.346 112.448C50.9802 111.371 50.9732 110.111 50.9662 108.852C50.5755 103.276 50.5725 102.736 50.9002 96.9758C50.8962 96.2561 50.1747 95.9002 49.636 96.0832C46.7609 96.639 42.9753 95.2205 42.4176 91.9846C42.2297 90.5461 42.5815 89.1047 43.2951 88.021C43.6518 87.4792 44.1895 87.1164 44.7281 86.9334C45.4467 86.7495 46.1662 86.7455 46.7029 86.2027C47.7782 85.477 47.5913 84.2184 47.5853 83.1388C47.5793 82.0592 47.5733 80.9796 47.5673 79.9C47.5513 77.021 47.5363 74.322 47.5203 71.443C47.5064 68.9239 47.4924 66.4048 47.4784 63.8857C47.3005 64.2466 46.9417 64.4285 46.7638 64.7894C56.4687 63.116 64.7054 56.2325 74.5981 55.9976C75.8573 55.9906 75.8463 54.0113 74.5871 54.0183C64.3346 54.2552 56.0979 61.1387 46.2142 62.993C45.8544 62.995 45.4976 63.5368 45.4996 63.8967C45.3497 69.2958 45.5596 74.6928 45.4097 80.0919C45.4157 81.1715 45.4217 82.2511 45.4287 83.5107C45.4297 83.6906 45.4307 83.8705 45.4317 84.0505C45.4357 84.7702 45.0749 84.5923 44.5363 84.7752C43.8177 84.9591 43.1002 85.323 42.3826 85.6869C40.0541 87.4992 39.3536 90.922 40.4479 93.615C42.0858 97.0248 46.2312 98.4413 49.645 97.7026C49.2833 97.3447 48.7426 97.1678 48.3808 96.8099C48.0521 102.39 48.0551 102.93 48.4468 108.686C48.6387 110.844 48.2949 113.725 50.2817 115.153C51.1851 115.868 52.4463 116.221 53.5276 116.575C54.7898 117.108 56.051 117.46 57.3122 117.813C62.1761 119.046 67.5717 118.836 71.872 115.753C73.3061 114.845 74.0166 113.222 73.468 111.606C72.9193 109.989 71.6551 109.097 70.0361 109.105C69.4965 109.108 68.7769 109.112 68.2363 108.936C66.6163 108.765 66.9621 106.244 66.7752 104.985C66.3974 101.748 66.5883 103.726 66.9301 100.486C66.7522 100.846 66.3934 101.028 66.2155 101.389C69.4485 100.472 72.6814 99.5539 75.1878 97.3807C78.053 95.0256 78.9325 91.4219 78.9115 87.6432C78.6996 81.8863 78.4877 76.1294 78.2758 70.3724C78.08 67.4945 78.064 64.6155 77.8681 61.7375C78.2219 60.6559 76.2431 60.6669 76.43 61.9255Z" fill="black"/>
<path d="M83.8781 172.008C94.1866 181.847 107.185 190.232 121.391 189.253C130.922 188.661 139.71 183.753 146.689 177.237C153.669 170.72 178.87 141.25 185.116 132.218C194.775 154.657 207.644 172.04 228.939 184.337C231.798 180.903 243.396 163.744 246.979 161.025C246.802 161.565 201.037 116.115 196.681 109.301C195.773 107.687 194.685 106.073 193.06 105.003C190.893 103.575 188.193 103.23 185.496 103.425C180.821 103.811 176.515 105.994 172.391 108.357C155.354 117.808 139.952 130.31 124.005 141.555C122.392 142.643 120.6 143.913 118.443 144.285C115.567 144.66 112.681 143.237 110.154 141.811L83.8781 172.008Z" fill="black"/>
<path d="M117.183 144.112C127.898 130.017 140.057 116.814 152.036 103.612C156.149 99.0905 160.44 94.3882 166.001 91.4782C170.305 89.1151 175.337 88.1874 180.189 87.2608C201.032 83.0063 221.877 78.9318 242.721 74.6774C243.652 80.4303 247.523 97.1433 248.454 102.896C229.605 110.019 210.375 113.364 190.226 113.116C188.427 113.126 183.708 105.595 182.093 106.324C180.837 106.871 179.763 107.776 178.868 108.681C161.147 124.434 147.767 144.662 128.414 158.085L117.183 144.112Z" fill="black"/>
<path d="M242.57 80.2564C245.804 79.5186 249.038 78.7809 252.452 78.0422C254.069 77.6733 255.686 77.3044 257.483 76.9346C258.021 76.7516 258.741 76.7477 259.28 76.5647C260.716 76.0169 260.888 74.5764 260.88 73.1369C261.042 69.8971 261.024 66.6583 261.006 63.4194C260.997 61.8 260.989 60.3605 261.159 58.7401C261.154 57.8404 261.15 57.1207 261.325 56.22C261.323 55.8602 261.32 55.3204 261.498 54.9595C261.496 54.5996 261.491 53.6999 261.669 53.3391C262.024 52.4374 264.361 52.2445 265.441 52.2385L265.8 52.2365C266.159 52.0545 265.804 52.9562 265.799 52.0565C265.803 52.7763 266.168 53.674 266.352 54.3927C266.722 56.1901 267.271 57.8065 267.82 59.6028C269.839 66.7892 272.038 73.9747 274.416 81.1591C274.594 80.7982 274.952 80.4363 275.129 79.8955C266.33 82.8235 257.347 84.8527 248.364 86.882C247.285 87.0679 246.208 87.4338 244.95 87.6207C244.231 87.8047 242.795 88.3525 242.075 88.1765C242.255 88.3555 242.436 88.5344 242.616 88.5334C242.253 87.9956 242.427 86.915 242.424 86.3752C242.42 85.6554 242.235 84.7567 242.231 84.037C242.044 82.5985 242.035 80.9791 241.847 79.5406C241.66 78.2821 239.861 78.2921 239.868 79.5516C240.062 82.0697 240.255 84.4079 240.628 86.925C240.818 88.7233 240.828 90.5227 242.985 90.1508C245.322 89.7779 247.477 89.2262 249.813 88.6734C255.921 87.1999 261.849 85.7274 267.956 84.074C270.471 83.3403 273.165 82.6056 275.679 81.8718C276.218 81.6889 276.575 81.1471 276.392 80.6083C274.196 73.9627 272 67.1371 270.163 60.3096C269.614 58.6932 269.245 57.0757 268.877 55.4583C268.692 54.5596 268.508 53.8409 268.143 52.9432C267.96 52.4044 267.955 51.5047 267.413 51.1479C266.328 50.0742 264.171 50.4461 262.914 50.813C262.196 50.9969 261.297 51.1818 260.761 51.7246C259.865 52.4494 259.87 53.3491 259.696 54.4297C259.356 57.8504 259.376 61.4492 259.395 64.8679C259.404 66.4873 259.414 68.2867 259.423 69.9061C259.428 70.8058 259.432 71.5255 259.437 72.4252C259.441 73.1449 259.627 74.4035 258.91 74.7674C258.371 74.9503 257.653 75.1342 257.113 75.1372C256.215 75.3222 255.316 75.5071 254.598 75.691C250.645 76.6127 246.693 77.5344 242.74 78.456C240.762 78.6469 241.312 80.4433 242.57 80.2564Z" fill="black"/>
<path d="M67.6941 108.579C74.8775 106.379 82.062 104.36 89.4503 106.658C96.1171 108.601 101.897 112.887 107.496 116.815C110.928 119.315 114.539 121.814 117.792 124.495C118.335 125.032 119.054 124.848 119.409 124.126C123.137 115.108 127.585 106.266 132.575 97.7815C133.288 96.6979 131.484 95.6283 130.951 96.8908C125.962 105.556 121.514 114.398 117.608 123.776C118.147 123.593 118.686 123.41 119.225 123.407C113.083 118.763 106.941 114.119 100.442 110.016C94.3052 106.271 87.4536 103.43 80.2621 104.19C75.767 104.575 71.4567 105.859 67.1465 107.142C66.0671 107.148 66.6168 108.944 67.6941 108.579Z" fill="black"/>
<path d="M80.7067 119.123C82.6904 120.011 84.6732 120.72 86.8348 121.248C88.9964 121.776 91.1561 121.944 93.3177 122.472C94.5779 122.645 94.9427 123.542 95.6672 124.438C96.2119 125.335 96.9374 126.41 97.4821 127.307C98.7523 129.279 100.023 131.431 101.294 133.404C102.019 134.479 103.633 133.571 102.908 132.495C101.636 130.343 100.365 128.191 99.095 126.218C98.5494 125.142 97.8248 124.246 97.2792 123.169C96.7345 122.273 96.1899 121.376 95.1086 121.022C94.2071 120.667 93.1268 120.493 92.2264 120.318C91.1461 120.144 90.0657 119.97 88.8045 119.618C86.463 119.091 84.1205 118.384 81.776 117.317C80.5148 116.965 79.6244 118.589 80.7067 119.123Z" fill="black"/>
<path d="M71.9426 128.349L77.4521 116.262C78.1636 114.819 79.2369 113.733 80.674 113.365L92.5135 107.361C93.231 106.998 93.9496 106.814 94.6701 106.99C94.85 106.989 94.85 106.989 95.0299 106.988C95.3907 107.166 95.5715 107.344 95.9333 107.702C99.7349 112 110.403 121.837 106.992 123.116C105.914 123.302 104.831 122.588 103.926 121.693C101.033 119.01 97.9601 116.328 95.0669 113.645C97.6073 117.59 100.148 121.534 101.431 125.846C101.615 126.565 100.898 127.108 100.177 126.752C96.3851 124.254 93.307 120.673 91.4852 116.544C92.9402 119.415 96.7478 124.792 97.4844 127.847C97.6683 128.566 96.7718 129.111 96.2292 128.574C93.8797 126.608 89.3575 122.134 87.5437 119.445C88.4531 121.239 90.4458 123.748 90.9965 125.724C91.1814 126.623 91.1884 127.882 90.2879 127.707C89.9282 127.709 89.5664 127.351 89.3855 127.172C87.3948 125.024 84.5006 122.161 82.8686 119.831C82.8786 121.63 81.6294 123.437 79.8336 123.986C79.4748 124.168 79.115 124.17 78.9371 124.531C78.7592 124.892 78.7612 125.252 78.7632 125.612C78.9571 128.13 79.3299 130.467 79.5238 132.985L71.9426 128.349Z" fill="white"/>
<path d="M72.8435 128.884C74.2656 125.817 75.6867 122.57 77.1088 119.503C77.6415 118.241 78.1731 116.798 78.8867 115.715C79.7791 114.45 81.7549 113.899 83.19 113.171C86.4189 111.534 89.6469 109.717 93.0557 108.078C93.5943 107.895 94.133 107.712 94.6727 107.709C95.2133 107.886 95.5761 108.424 95.9389 108.962C96.6634 109.858 97.5678 110.752 98.4723 111.647C100.462 113.615 102.273 115.765 104.083 117.734C104.807 118.63 105.713 119.704 106.258 120.781C106.44 121.14 106.622 121.499 106.804 121.857C106.986 122.216 106.804 121.857 106.985 122.036C106.985 122.036 106.264 121.86 106.084 121.861C105.544 121.684 105.181 121.147 104.639 120.79C103.735 119.895 102.831 119 101.746 118.107C99.7574 116.318 97.7687 114.53 95.9598 112.741C95.2363 112.025 93.8022 112.933 94.3479 114.009C95.6181 115.981 96.8883 117.954 97.9786 119.927C98.5242 121.004 99.0689 121.9 99.4347 122.978C99.6176 123.517 99.9803 124.055 100.164 124.773C100.165 124.953 100.347 125.312 100.348 125.492C100.529 125.671 101.071 126.028 100.529 125.671C98.903 124.42 97.277 123.17 96.0088 121.557C94.5608 119.946 93.4704 117.973 92.56 115.998C92.0224 116.361 91.4847 116.724 90.946 116.907C91.8555 118.702 93.1247 120.494 94.214 122.287C94.7586 123.184 95.3043 124.261 95.8489 125.157C96.0308 125.516 96.7624 127.671 97.1221 127.669C97.302 127.668 96.5785 126.953 96.3976 126.774C96.0358 126.416 95.6751 126.238 95.3133 125.88C94.4099 125.165 93.6853 124.269 92.9618 123.554C91.5147 122.122 90.0666 120.511 88.9783 118.897C88.2527 117.822 86.6388 118.73 87.3643 119.806C88.0919 121.242 88.9983 122.496 89.7248 123.752C90.0886 124.469 90.4514 125.007 90.6352 125.726C90.6362 125.906 90.6382 126.266 90.6392 126.446C90.4604 126.627 90.6402 126.626 90.8191 126.445C90.6382 126.266 90.6383 126.266 90.4574 126.087C89.5509 124.832 88.2857 123.76 87.3803 122.685C86.294 121.432 85.2087 120.358 84.3023 119.103C83.7586 118.387 82.5004 118.574 82.5064 119.653C82.5134 120.913 81.7998 121.996 80.7235 122.542C79.8271 123.087 78.7478 123.093 78.395 124.354C78.0422 125.616 78.5909 127.232 78.5969 128.312C78.7848 129.751 78.9737 131.369 79.1615 132.807C79.3484 134.066 81.3272 134.055 81.1403 132.796C80.9524 131.358 80.7635 129.74 80.5756 128.301C80.5716 127.581 80.3878 126.863 80.3828 125.963C80.1979 125.064 80.1969 124.884 81.0943 124.519C83.2489 123.788 84.4971 121.801 84.4841 119.462C83.9455 119.645 83.2269 119.829 82.6883 120.012C83.9575 121.804 85.4056 123.416 87.0335 125.026C87.7571 125.742 88.4816 126.638 89.2052 127.353C89.7488 128.07 90.4714 128.606 91.5497 128.42C93.3455 127.87 92.9728 125.533 92.4261 124.276C91.5157 122.302 90.2465 120.51 89.1562 118.537C88.6185 118.899 88.0809 119.262 87.5422 119.445C88.9933 121.596 90.8031 123.566 92.7919 125.354C93.6963 126.249 94.6007 127.143 95.5042 127.858C96.4076 128.573 97.312 129.468 98.5672 128.741C100.719 127.469 98.1795 123.705 97.272 122.27C95.9998 119.938 94.3679 117.608 93.0957 115.276C92.55 114.199 90.936 115.108 91.4817 116.184C92.575 118.698 94.207 121.028 96.0168 122.997C96.9213 123.892 97.8257 124.786 98.91 125.68C99.8134 126.395 100.898 127.288 101.975 126.923C103.052 126.557 103.226 125.476 102.86 124.398C102.493 122.961 101.765 121.526 101.219 120.269C99.9433 117.397 98.1305 114.888 96.4975 112.378C95.9598 112.741 95.4222 113.104 94.8855 113.646C96.6944 115.436 98.6821 117.044 100.491 118.833C101.395 119.728 102.3 120.623 103.384 121.517C104.108 122.232 104.831 122.948 105.913 123.302C106.994 123.656 108.433 123.648 108.967 122.565C109.321 121.663 109.137 120.765 108.773 120.047C107.68 117.714 105.691 115.746 104.061 113.775C102.07 111.627 99.8993 109.48 97.9086 107.332C96.8223 106.078 95.9179 105.183 94.121 105.553C93.4025 105.737 92.6849 106.101 91.9674 106.465C89.9936 107.376 88.0209 108.466 86.0471 109.377C84.2533 110.287 82.6393 111.195 80.8444 111.925C78.8707 112.836 77.6175 113.922 76.7291 115.906C74.9512 119.695 73.1743 123.664 71.3965 127.452C70.505 128.897 72.3099 129.966 72.8435 128.884Z" fill="black"/>
<path d="M59.024 101.789C61.7233 101.954 64.4216 101.939 66.938 101.565C67.4777 101.562 67.8354 101.2 67.8324 100.66C67.8294 100.12 67.2868 99.5835 66.928 99.7654C64.2317 100.14 61.7133 100.154 59.014 99.9893C58.4744 99.9923 58.1176 100.534 58.1196 100.894C57.9427 101.435 58.4844 101.792 59.024 101.789Z" fill="black"/>
<path d="M59.7994 79.4721C59.6205 79.6531 59.6205 79.6531 59.6215 79.833C59.6225 80.0129 59.4426 80.0139 59.4436 80.1939C59.4446 80.3738 59.4456 80.5537 59.4456 80.5537C59.4466 80.7337 59.4476 80.9136 59.4476 80.9136C59.4486 81.0936 59.6285 81.0926 59.6295 81.2725C59.6295 81.2725 59.6305 81.4524 59.8104 81.4514C59.8104 81.4514 59.8114 81.6314 59.9912 81.6304C60.1721 81.8093 60.353 81.9882 60.7128 81.9862C60.8927 81.9852 60.8927 81.9852 61.0726 81.9842C61.2524 81.9832 61.2525 81.9832 61.4323 81.9822C61.6122 81.9812 61.6122 81.9812 61.7911 81.8003C61.971 81.7993 61.97 81.6194 62.1489 81.4384C62.1479 81.2585 62.3268 81.0776 62.3258 80.8976C62.3248 80.7177 62.3248 80.7177 62.3238 80.5378L62.3228 80.3578C62.3218 80.1779 62.1419 80.1789 62.1409 79.999C62.1399 79.819 61.96 79.82 61.959 79.6401C61.7781 79.4611 61.7781 79.4612 61.5972 79.2822C61.5972 79.2822 61.5972 79.2822 61.4173 79.2832C61.2375 79.2842 61.2365 79.1043 61.0566 79.1053C60.8767 79.1063 60.8767 79.1063 60.6968 79.1073C60.5169 79.1083 60.5169 79.1083 60.338 79.2892C60.1581 79.2902 60.1591 79.4701 59.9792 79.4711C59.9802 79.6511 59.8004 79.6521 59.8014 79.832L59.8024 80.0119C59.8034 80.1919 59.8044 80.3718 59.9852 80.5508C60.1661 80.7297 60.347 80.9086 60.5269 80.9076L60.7068 80.9066C60.7068 80.9066 60.5269 80.9076 60.5259 80.7277C60.5259 80.7277 60.7058 80.7267 60.7068 80.9066L60.5259 80.7277C60.5259 80.7277 60.5269 80.9076 60.7068 80.9066C60.7068 80.9066 60.7058 80.7267 60.5259 80.7277C60.5259 80.7277 60.5259 80.7277 60.5269 80.9076C60.7048 80.5468 60.8837 80.3658 61.0616 80.005C61.0616 80.005 61.2414 80.004 61.2405 79.824C61.2405 79.824 61.2405 79.824 61.0606 79.825L61.2405 79.824C61.2405 79.824 61.2405 79.824 61.0606 79.825L61.2405 79.824C61.2405 79.824 61.2405 79.824 61.0606 79.825C61.0606 79.825 61.2405 79.824 61.2414 80.004L61.0616 80.005L61.2424 80.1839C61.2424 80.1839 61.0626 80.1849 61.0616 80.005L61.2424 80.1839C61.2424 80.1839 61.2415 80.004 61.0616 80.005C61.0616 80.005 61.0626 80.1849 61.2424 80.1839C61.2424 80.1839 61.2424 80.1839 61.2414 80.004C61.2414 80.004 61.2425 80.1839 61.0626 80.1849C61.0626 80.1849 61.0626 80.1849 61.0616 80.005L60.8827 80.1859C61.0626 80.1849 61.0616 80.005 61.0606 79.825C61.0596 79.6451 61.0596 79.6451 61.0586 79.4651C61.0576 79.2852 61.0576 79.2852 61.0566 79.1053C61.0556 78.9253 60.8757 78.9263 60.8747 78.7464C60.6938 78.5675 60.5129 78.3885 60.1531 78.3905L59.9733 78.3915C60.1581 79.2902 59.9783 79.2912 59.7994 79.4721Z" fill="black"/>
<path d="M73.272 76.3384C73.0931 76.5193 73.0931 76.5193 73.0941 76.6992C73.0951 76.8792 72.9152 76.8802 72.9162 77.0601C72.9172 77.24 72.9182 77.42 72.9182 77.42C72.9192 77.5999 72.9202 77.7798 72.9202 77.7798C72.9212 77.9598 73.1011 77.9588 73.1021 78.1387C73.1021 78.1387 73.1031 78.3186 73.283 78.3176C73.283 78.3176 73.284 78.4976 73.4639 78.4966C73.6448 78.6755 73.8257 78.8545 74.1854 78.8525C74.3653 78.8515 74.3653 78.8515 74.5452 78.8505C74.7251 78.8495 74.7251 78.8495 74.905 78.8485C75.0849 78.8475 75.0849 78.8475 75.2638 78.6665C75.4436 78.6655 75.4426 78.4856 75.6215 78.3047C75.6205 78.1247 75.7994 77.9438 75.7984 77.7638C75.7974 77.5839 75.7974 77.5839 75.7964 77.404L75.7954 77.224C75.7944 77.0441 75.6145 77.0451 75.6135 76.8652C75.6125 76.6852 75.4327 76.6862 75.4317 76.5063C75.2508 76.3274 75.2508 76.3274 75.0699 76.1484C75.0699 76.1484 75.0699 76.1484 74.89 76.1494C74.7101 76.1504 74.7091 75.9705 74.5292 75.9715C74.3493 75.9725 74.3493 75.9725 74.1695 75.9735C73.9896 75.9745 73.9896 75.9745 73.8107 76.1554C73.6308 76.1564 73.6318 76.3364 73.4519 76.3374C73.4529 76.5173 73.273 76.5183 73.274 76.6982L73.275 76.8782C73.276 77.0581 73.277 77.238 73.4579 77.417C73.6388 77.5959 73.8197 77.7748 73.9996 77.7738L74.1794 77.7728C74.1794 77.7728 73.9996 77.7738 73.9986 77.5939C73.9986 77.5939 74.1784 77.5929 74.1794 77.7728L73.9986 77.5939C73.9986 77.5939 73.9996 77.7738 74.1794 77.7728C74.1794 77.7728 74.1785 77.5929 73.9986 77.5939C73.9986 77.5939 73.9986 77.5939 73.9996 77.7738C74.1775 77.413 74.3563 77.232 74.5342 76.8712C74.5342 76.8712 74.7141 76.8702 74.7131 76.6902C74.7131 76.6902 74.7131 76.6902 74.5332 76.6912L74.7131 76.6902C74.7131 76.6902 74.7131 76.6902 74.5332 76.6912L74.7131 76.6902C74.7131 76.6902 74.7131 76.6902 74.5332 76.6912C74.5332 76.6912 74.7131 76.6902 74.7141 76.8702L74.5342 76.8712L74.7151 77.0501C74.7151 77.0501 74.5352 77.0511 74.5342 76.8712L74.7151 77.0501C74.7151 77.0501 74.7141 76.8702 74.5342 76.8712C74.5342 76.8712 74.5352 77.0511 74.7151 77.0501C74.7151 77.0501 74.7151 77.0501 74.7141 76.8702C74.7141 76.8702 74.7151 77.0501 74.5352 77.0511C74.5352 77.0511 74.5352 77.0511 74.5342 76.8712L74.3553 77.0521C74.5352 77.0511 74.5342 76.8712 74.5332 76.6912C74.5322 76.5113 74.5322 76.5113 74.5312 76.3314C74.5302 76.1514 74.5302 76.1514 74.5292 75.9715C74.5282 75.7915 74.3483 75.7926 74.3473 75.6126C74.1664 75.4337 73.9856 75.2547 73.6258 75.2567L73.4459 75.2577C73.6298 75.9765 73.4509 76.1574 73.272 76.3384Z" fill="black"/>
<path d="M62.5614 90.9731C63.6437 91.5069 64.9049 91.8598 66.1661 92.2127C66.346 92.2117 66.7057 92.2097 66.8846 92.0287C67.0635 91.8478 67.2424 91.6669 67.2414 91.4869C67.4183 90.9461 67.0555 90.4083 66.5149 90.2314C65.9742 90.0544 65.4345 90.0574 64.714 89.8815C64.3542 89.8835 64.1733 89.7046 63.8126 89.5266L63.6327 89.5276C63.8126 89.5266 63.8126 89.5266 63.6327 89.5276C63.4528 89.5286 63.2719 89.3497 63.2719 89.3497C63.091 89.1708 62.7313 89.1728 62.5514 89.1738C62.3715 89.1748 62.0127 89.3567 62.0137 89.5366C62.0167 90.0764 62.2006 90.7952 62.5614 90.9731Z" fill="black"/>
<path d="M61.0172 72.4472C58.4978 72.2813 55.8065 73.5558 54.5593 75.722C54.3814 76.0829 54.3854 76.8026 54.926 76.9796C55.4667 77.1565 56.0064 77.1535 56.1832 76.6127C56.1822 76.4328 56.3621 76.4318 56.3611 76.2519C56.3601 76.0719 56.3621 76.4318 56.3611 76.2519C56.3611 76.2519 56.3611 76.2518 56.54 76.0709C56.7189 75.89 56.8978 75.709 57.0767 75.5281L57.2556 75.3472C57.4354 75.3462 57.4344 75.1662 57.6143 75.1652C57.7932 74.9843 58.152 74.8024 58.3319 74.8014L58.5118 74.8004C58.6916 74.7994 58.6906 74.6194 58.8705 74.6184C59.0504 74.6174 59.4092 74.4355 59.5891 74.4345L59.769 74.4335C59.5891 74.4345 59.9488 74.4325 59.769 74.4335C59.9488 74.4325 59.9488 74.4325 60.1287 74.4315C60.4885 74.4295 60.6684 74.4285 60.8483 74.4275C61.3879 74.4245 61.9246 73.8817 61.7427 73.5228C62.0985 72.8011 61.5568 72.4442 61.0172 72.4472Z" fill="black"/>
<path d="M72.5301 72.3837C72.71 72.3827 72.71 72.3827 72.71 72.3827L72.8899 72.3817C73.0698 72.3807 73.2497 72.3797 73.4295 72.3787C73.4295 72.3787 73.4296 72.3787 73.6094 72.3777C73.7893 72.3767 73.4295 72.3787 73.4295 72.3787L73.6094 72.3777C73.7893 72.3767 73.9692 72.3757 73.9702 72.5556C73.7893 72.3767 74.1501 72.5546 73.9702 72.5556C73.9702 72.5556 74.1501 72.5546 74.1511 72.7346C74.1511 72.7346 74.331 72.7336 74.332 72.9135C74.1511 72.7346 74.5119 72.9125 74.332 72.9135C74.5129 73.0925 74.5129 73.0925 74.6937 73.2714C74.8746 73.4503 75.2354 73.6283 75.4153 73.6273C75.5952 73.6263 75.9539 73.4443 76.1328 73.2634C76.3117 73.0825 76.4906 72.9015 76.4886 72.5417C76.4866 72.1818 76.3057 72.0028 76.1248 71.8239C75.5812 71.1072 74.8596 70.7513 73.9592 70.5764C73.0588 70.4014 72.1594 70.4064 71.2629 70.9512C70.7243 71.1342 70.7283 71.8539 70.9101 72.2128C71.4518 72.5696 71.9915 72.5666 72.5301 72.3837Z" fill="black"/>
<path d="M44.3908 90.8945C44.5707 90.8935 44.7516 91.0725 44.9315 91.0715C44.9315 91.0715 44.7516 91.0725 44.7506 90.8925C45.1114 91.0705 45.2912 91.0695 45.4731 91.4284L45.2922 91.2494C45.4731 91.4284 45.8339 91.6063 46.0158 91.9652L45.8349 91.7862C46.0158 91.9652 46.1977 92.324 46.3786 92.503C46.3786 92.503 46.3776 92.323 46.1977 92.324C46.3795 92.6829 46.3806 92.8628 46.3825 93.2227L46.3815 93.0428C46.3835 93.4026 46.3846 93.5826 46.7453 93.7605C46.9262 93.9395 47.1071 94.1184 47.4669 94.1164C47.6467 94.1154 48.0055 93.9335 48.1844 93.7525C48.3633 93.5716 48.5422 93.3907 48.5402 93.0308C48.5392 92.8508 48.5372 92.491 48.3563 92.312C48.3553 92.1321 48.1734 91.7732 47.9925 91.5943C47.8106 91.2354 47.6288 90.8766 47.267 90.5187C46.7233 89.8019 45.8219 89.4471 45.1004 89.0912C44.5597 88.9143 44.022 89.2771 43.8452 89.8179C43.6673 90.1788 43.8502 90.7176 44.3908 90.8945Z" fill="black"/>
<path d="M85.9224 118.914C88.4288 116.741 90.9362 114.748 93.8054 113.112C94.1632 112.751 94.3401 112.21 94.1582 111.851C93.9763 111.492 93.2547 111.136 92.897 111.498C90.0288 113.313 87.3425 115.488 84.6562 117.662C84.2984 118.024 84.3024 118.743 84.6642 119.101C84.8451 119.28 85.3848 119.277 85.9224 118.914Z" fill="black"/>
<path d="M262.023 52.0777C264.955 61.7782 267.708 71.6597 270.103 81.7231C270.47 82.9806 272.266 82.4308 271.899 81.1733C269.505 71.2898 266.932 61.4074 263.819 51.5279C263.452 50.2704 261.656 50.8202 262.023 52.0777Z" fill="black"/>
<path d="M259.536 57.8489C260.442 59.1034 261.887 60.175 263.327 60.347C263.507 60.346 263.867 60.344 264.046 60.163C264.225 59.9821 264.404 59.8012 264.403 59.6212C264.402 59.4413 264.4 59.0814 264.219 58.9025C264.038 58.7236 263.857 58.5446 263.677 58.5456C263.317 58.5476 262.957 58.3697 262.596 58.1917C262.596 58.1917 262.776 58.1907 262.777 58.3707C262.596 58.1917 262.416 58.1927 262.235 58.0138C262.055 58.0148 262.054 57.8349 261.874 57.8359C261.874 57.8359 261.874 57.8359 261.694 57.8369C261.514 57.6579 261.333 57.479 261.152 57.3001L260.971 57.1211C260.972 57.3011 261.152 57.3001 260.971 57.1211C260.971 57.1211 260.97 56.9412 260.79 56.9422C260.428 56.5843 259.887 56.2274 259.529 56.5893C259.35 56.7702 259.173 57.3111 259.536 57.8489Z" fill="black"/>
<path d="M268.265 74.8951C266.298 76.8854 265.413 79.5894 265.789 82.4664C265.792 83.0062 266.514 83.3621 267.052 83.1792C267.591 82.9962 267.768 82.4554 267.765 81.9156L267.764 81.7357C267.763 81.5557 267.762 81.3758 267.762 81.3758C267.76 81.0159 267.759 80.836 267.757 80.4761L267.756 80.2962L267.755 80.1163C267.754 79.9363 267.754 79.9363 267.753 79.7564C267.751 79.3965 267.93 79.2156 267.928 78.8557C267.927 78.6758 268.107 78.6748 268.106 78.4948L268.105 78.3149C268.283 78.134 268.281 77.7741 268.46 77.5932C268.817 77.0514 268.996 76.8704 269.533 76.3276C269.89 75.9658 269.886 75.246 269.525 74.8881C269.163 74.5303 268.623 74.5333 268.265 74.8951Z" fill="black"/>
<path d="M256.721 68.8413C258.171 70.8126 260.874 71.6973 263.208 70.7846C263.747 70.6017 264.103 70.0599 263.92 69.5211C263.738 68.9823 263.196 68.6254 262.657 68.8084C262.477 68.8094 262.298 68.9903 261.939 68.9923L261.759 68.9933C261.939 68.9923 261.759 68.9933 261.579 68.9943C261.399 68.9953 261.399 68.9953 261.219 68.9963C261.039 68.9973 261.039 68.9973 260.859 68.9983L260.68 68.9993C260.859 68.9983 260.68 68.9993 260.5 69.0003L260.32 69.0013C260.14 69.0023 260.14 69.0023 259.959 68.8233C259.779 68.8243 259.779 68.8243 259.598 68.6454C259.417 68.4665 259.237 68.4675 259.057 68.2885C259.057 68.2885 258.877 68.2895 258.876 68.1096L258.695 67.9307L258.514 67.7517C258.514 67.7517 258.152 67.3939 258.333 67.5728C257.971 67.2149 257.43 66.858 257.072 67.2199C256.715 67.7617 256.539 68.4825 256.721 68.8413Z" fill="black"/>
<path d="M257.058 64.8806C258.687 66.6709 261.389 67.3757 263.722 66.463C264.261 66.2801 264.618 65.7383 264.435 65.1995C264.252 64.6607 263.71 64.3038 263.172 64.4867C262.992 64.4877 262.633 64.6697 262.453 64.6707C262.273 64.6717 262.273 64.6717 262.093 64.6727C262.273 64.6717 261.913 64.6737 261.913 64.6737C261.734 64.6747 261.374 64.6767 261.194 64.6777L261.014 64.6787C260.834 64.6797 261.194 64.6777 261.014 64.6787C260.834 64.6797 260.834 64.6797 260.654 64.6807C260.474 64.6817 260.293 64.5027 259.934 64.5047L259.754 64.5057C259.574 64.5067 259.573 64.3268 259.393 64.3278C259.213 64.3288 259.212 64.1488 259.032 64.1498C259.032 64.1498 259.032 64.1498 258.851 63.9709C258.672 63.9719 259.032 64.1498 258.851 63.9709C258.671 63.792 258.49 63.613 258.309 63.4341C257.947 63.0762 257.227 63.0802 256.87 63.4421C256.693 63.9829 256.696 64.5227 257.058 64.8806Z" fill="black"/>
<path d="M255.49 74.0668C256.583 76.4 259.467 77.4636 261.982 76.9098C262.521 76.7269 262.878 76.185 262.695 75.6462C262.512 75.1074 261.97 74.7506 261.432 74.9335C261.252 74.9345 261.252 74.9345 261.072 74.9355C260.892 74.9365 260.532 74.9385 260.352 74.9395C260.352 74.9395 260.352 74.9395 260.172 74.9405L259.992 74.9415C259.813 74.9425 259.813 74.9425 259.633 74.9435C259.453 74.9445 259.453 74.9445 259.272 74.7656L259.092 74.7666C258.912 74.7676 259.272 74.7656 259.092 74.7666C258.911 74.5876 258.731 74.5886 258.371 74.4107C258.371 74.4107 258.191 74.4117 258.19 74.2317C258.19 74.2317 258.01 74.2327 258.009 74.0528L257.828 73.8739C257.828 73.8739 257.827 73.6939 257.647 73.6949C257.647 73.6949 257.646 73.515 257.466 73.516C257.465 73.3361 257.285 73.3371 257.284 73.1571C257.101 72.6183 256.382 72.6223 256.023 72.8043C255.304 72.9882 255.307 73.528 255.49 74.0668Z" fill="black"/>
<path d="M251.907 76.9649C253.001 79.6579 254.097 82.5309 254.832 85.4058C255.199 86.6634 256.995 86.1136 256.628 84.856C255.893 81.9811 254.797 79.1081 253.703 76.4151C253.52 75.8763 252.978 75.5194 252.44 75.7023C252.081 75.8843 251.545 76.607 251.907 76.9649Z" fill="black"/>
<path d="M243.491 83.6701C246.724 82.9323 250.137 82.0137 253.371 81.2759C254.628 80.9091 254.079 79.1127 252.822 79.4796C249.588 80.2173 246.175 81.136 242.941 81.8737C241.683 82.0606 242.232 83.857 243.491 83.6701Z" fill="black"/>
<path d="M233.895 169.915C236.069 172.602 238.241 175.109 240.415 177.796C241.501 179.049 242.589 180.483 243.675 181.736C244.038 182.274 244.401 182.812 244.942 183.169C246.206 184.062 247.642 183.334 248.898 182.787C254.639 180.056 260.378 176.965 266.302 174.593C266.84 174.41 267.202 174.768 267.745 175.305C268.287 175.842 268.831 176.558 269.195 177.276C269.196 177.456 269.379 177.995 269.376 177.455C269.377 177.635 268.66 178.179 268.481 178.36C268.124 178.722 267.945 178.902 267.587 179.264C266.334 180.351 265.08 181.438 263.828 182.704C258.28 187.773 252.912 193.021 247.546 198.449C248.085 198.446 248.445 198.444 248.985 198.441C242.473 192 236.497 184.835 230.701 177.85C229.977 176.954 229.252 176.058 228.528 175.163C227.985 174.626 226.9 173.552 226.716 172.834C226.717 173.014 226.719 173.373 226.54 173.554C226.897 173.013 227.794 172.648 228.333 172.465C229.05 172.101 229.767 171.557 230.305 171.194C231.739 170.287 232.994 169.56 234.428 168.652C235.503 167.926 234.415 166.313 233.519 167.038C231.368 168.309 229.397 169.76 227.245 171.031C225.811 171.939 224.018 172.849 225.467 174.64C226.916 176.431 228.365 178.223 229.995 180.193C233.979 185.029 238.143 189.685 242.306 194.34C244.116 196.309 245.926 198.278 247.736 200.248C248.097 200.606 248.817 200.602 249.175 200.24C254.004 195.175 259.013 190.288 264.204 185.581C265.456 184.315 266.709 183.228 268.142 181.96C268.678 181.418 269.395 180.874 269.931 180.331C270.469 179.968 271.007 179.605 271.363 179.063C272.075 177.62 270.625 175.649 269.721 174.754C269.178 174.217 268.634 173.5 267.913 173.145C266.83 172.611 265.934 173.156 265.036 173.52C261.806 174.798 258.755 176.254 255.886 177.89C254.451 178.618 252.836 179.346 251.402 180.254C250.685 180.618 249.967 180.982 249.25 181.346C248.532 181.709 247.457 182.435 246.736 182.259C246.195 182.082 245.651 181.186 245.289 180.828C244.745 180.111 244.203 179.574 243.659 178.857C240.944 175.814 238.407 172.589 235.692 169.545C234.602 167.571 233.17 168.839 233.895 169.915Z" fill="black"/>
<path d="M267.74 174.405C260.404 181.463 252.887 188.343 245.009 195.044C244.114 195.949 245.38 197.202 246.456 196.476C254.155 189.955 261.852 183.075 269.187 175.836C270.081 174.752 268.634 173.5 267.74 174.405Z" fill="black"/>
<path d="M261.624 174.619C260.913 176.062 260.742 177.683 261.111 179.3C261.294 179.839 261.835 180.196 262.374 180.013C262.912 179.83 263.269 179.288 263.086 178.749C263.085 178.569 262.904 178.39 262.903 178.211L262.902 178.031C262.902 178.031 262.902 178.031 262.901 177.851C262.899 177.491 262.898 177.311 262.896 176.951C262.896 176.951 262.896 176.951 262.895 176.771L262.894 176.591C262.893 176.411 262.892 176.231 263.072 176.23L263.071 176.05L263.07 175.87C263.071 176.05 263.071 176.05 263.07 175.87C263.07 175.87 263.07 175.87 263.069 175.69C263.069 175.69 263.068 175.511 263.248 175.51C263.426 175.149 263.422 174.429 262.881 174.252C262.341 174.075 261.802 174.258 261.624 174.619Z" fill="black"/>
<path d="M250.379 190.157C247.856 189.271 244.98 189.827 242.83 191.278C242.472 191.64 242.115 192.182 242.477 192.54C242.659 192.899 243.38 193.255 243.738 192.893C245.53 191.623 247.687 191.251 249.849 191.959C250.39 192.136 250.928 191.773 251.104 191.232C251.102 190.873 250.74 190.335 250.379 190.157Z" fill="black"/>
<path d="M250.485 177.38C249.418 179.546 249.794 182.422 251.602 184.032C251.964 184.39 252.683 184.386 253.041 184.024C253.399 183.662 253.395 182.942 253.033 182.584L252.852 182.405C252.852 182.405 252.852 182.405 252.671 182.227C252.49 182.048 252.489 181.868 252.308 181.689C252.307 181.509 252.127 181.51 252.126 181.33L252.125 181.15C252.124 180.97 251.944 180.791 251.942 180.431L251.941 180.251C251.94 180.071 251.942 180.431 251.941 180.251C251.94 180.071 251.94 180.071 251.939 179.891C251.938 179.711 251.936 179.352 251.935 179.172L251.934 178.992C251.933 178.812 251.933 178.812 251.932 178.632C251.931 178.452 251.931 178.452 252.109 178.271L252.108 178.091C252.285 177.55 252.282 177.01 251.742 176.833C251.381 176.656 250.662 176.839 250.485 177.38Z" fill="black"/>
<path d="M254.076 175.74C253.188 177.905 253.924 180.779 255.732 182.389C256.094 182.747 256.813 182.743 257.171 182.381C257.529 182.019 257.525 181.299 257.163 180.941C256.982 180.763 256.801 180.584 256.62 180.405C256.62 180.405 256.62 180.405 256.439 180.226C256.438 180.046 256.258 180.047 256.257 179.867C256.256 179.687 256.077 179.688 256.076 179.508L256.075 179.328C255.894 179.149 256.076 179.508 256.075 179.328C256.074 179.148 255.892 178.789 255.891 178.609C255.89 178.429 255.89 178.429 255.889 178.249C255.888 178.069 255.888 178.069 255.889 178.249L255.888 178.069C255.887 177.89 255.885 177.53 255.884 177.35L255.883 177.17L255.882 176.99L255.881 176.81C255.88 176.63 256.058 176.269 256.057 176.089C256.233 175.548 255.871 175.011 255.33 174.834C254.79 174.837 254.433 175.198 254.076 175.74Z" fill="black"/>
<path d="M245.275 178.489C243.848 180.656 244.045 183.714 245.854 185.503C246.216 185.861 246.935 185.857 247.293 185.495C247.651 185.133 247.648 184.593 247.285 184.056C247.285 184.056 247.284 183.876 247.104 183.877C246.923 183.698 247.105 184.057 247.104 183.877C247.103 183.697 246.923 183.698 246.922 183.518C246.921 183.338 246.741 183.339 246.74 183.159L246.739 182.979C246.738 182.799 246.74 183.159 246.739 182.979C246.738 182.799 246.556 182.44 246.555 182.26L246.554 182.08L246.553 181.9L246.552 181.721C246.551 181.541 246.549 181.181 246.548 181.001C246.547 180.821 246.547 180.821 246.548 181.001L246.547 180.821C246.546 180.641 246.546 180.641 246.545 180.461C246.544 180.281 246.544 180.281 246.723 180.1C246.723 180.1 246.902 179.919 246.722 179.92C246.901 179.739 246.899 179.379 247.078 179.198C247.436 178.837 247.072 178.119 246.711 177.941C246.171 177.764 245.632 177.947 245.275 178.489Z" fill="black"/>
<path d="M240.946 176.533C238.98 178.883 237.014 181.054 234.686 183.046C234.328 183.408 234.332 184.127 234.694 184.485C235.056 184.843 235.776 184.839 236.133 184.477C238.281 182.486 240.428 180.315 242.393 177.965C242.751 177.603 242.747 176.883 242.385 176.525C242.024 176.167 241.304 176.171 240.946 176.533Z" fill="black"/>
<path d="M228.697 173.182C231.232 176.047 233.765 178.733 236.299 181.597C236.661 181.955 237.381 181.951 237.739 181.589C238.096 181.228 238.093 180.688 237.731 180.15C235.196 177.285 232.663 174.6 230.128 171.735C229.767 171.377 229.047 171.381 228.689 171.743C228.332 172.105 228.336 172.825 228.697 173.182Z" fill="black"/>
<path d="M118.648 148.602C121.722 151.464 124.617 154.507 127.333 157.731C127.514 157.91 128.054 157.907 128.233 157.726C135.023 149.411 141.813 141.276 148.783 132.96C152.178 128.802 155.572 124.645 159.147 120.486C161.827 117.233 164.688 113.978 167.73 111.082C171.309 107.823 175.433 105.281 180.285 104.354C181.183 104.169 180.816 102.912 179.918 103.097C171.292 104.764 165.032 111.277 159.671 117.604C152.701 125.92 145.912 134.235 139.122 142.55C135.19 147.251 131.26 152.131 127.328 156.831C127.688 156.829 127.868 156.828 128.228 156.826C125.512 153.602 122.616 150.56 119.542 147.698C119 147.161 118.105 148.065 118.648 148.602Z" fill="white"/>
<path d="M120.128 91.0131L161.441 79.9871C164.674 79.0694 167.746 81.5716 167.764 84.8104L168.298 116.117C168.311 118.456 166.703 120.445 164.548 120.996L123.234 132.022C120.001 132.94 116.929 130.438 116.911 127.199L116.377 95.8923C116.365 93.7331 117.972 91.5649 120.128 91.0131Z" fill="white"/>
<path d="M120.181 132.939L80.1248 143.598C79.5722 141.262 80.8194 139.096 83.1539 138.363L117.462 129.175L120.181 132.939Z" fill="white"/>
<path d="M120.311 91.911C124.443 90.8084 128.754 89.7048 132.885 88.6022C140.071 86.7629 147.255 84.7437 154.441 82.9043C156.596 82.3525 158.752 81.8007 160.907 81.2489C161.446 81.066 161.805 80.8841 162.345 80.8811C164.682 80.6881 166.671 82.4765 166.864 84.8147C167.075 90.3916 167.105 95.7897 167.136 101.368C167.155 104.786 167.175 108.385 167.373 111.803C167.379 112.883 167.385 113.962 167.391 115.042C167.396 115.941 167.4 116.661 167.225 117.382C166.337 119.546 164.181 119.918 162.205 120.469C159.51 121.204 156.996 121.937 154.301 122.492C147.116 124.511 139.751 126.352 132.567 128.371C130.052 129.105 127.537 129.658 124.842 130.393C122.687 130.945 120.352 131.678 118.721 129.528C117.453 127.915 117.799 125.394 117.789 123.595C117.77 120.176 117.751 116.757 117.552 113.339C117.52 107.581 117.307 101.645 117.275 95.8866C117.265 94.0873 118.516 92.6408 120.311 91.911C121.568 91.5442 121.019 89.7478 119.762 90.1147C117.067 90.8494 115.281 93.1986 115.297 96.0775C115.3 96.6173 115.303 97.1571 115.305 97.517C115.322 100.576 115.339 103.635 115.356 106.694C115.393 113.351 115.61 120.008 115.647 126.666C115.654 127.925 115.84 129.004 116.386 130.08C117.658 132.412 120.543 133.656 123.058 132.922C124.495 132.554 125.752 132.188 127.009 131.821C134.015 129.982 141.2 128.143 148.205 126.125C153.593 124.655 158.983 123.366 164.191 121.897C167.246 121.161 169.03 118.632 168.834 115.574C168.82 113.055 168.806 110.535 168.792 108.016C168.752 100.819 168.532 93.6225 168.493 86.605C168.49 86.0652 168.486 85.3455 168.483 84.8057C168.47 82.4665 167.019 80.3153 164.854 79.2477C162.69 78.36 160.716 79.0907 158.74 79.6415C152.094 81.4778 145.447 83.1342 138.802 84.9706C132.694 86.624 126.767 88.2764 120.659 89.7498C120.299 89.7518 119.941 89.9338 119.581 89.9357C118.684 90.4806 119.234 92.2769 120.311 91.911Z" fill="black"/>
<path d="M119.816 132.041C115.326 133.325 110.835 134.43 106.345 135.714C99.1594 137.554 91.9749 139.573 84.7895 141.412C83.1725 141.781 81.5565 142.33 79.7597 142.7C80.1204 142.878 80.4822 143.236 81.0229 143.413C80.4732 141.616 81.7234 139.99 83.5193 139.44C84.0579 139.257 84.5966 139.074 85.1363 139.071C87.6507 138.337 90.1661 137.784 92.8603 137.049C99.5061 135.213 106.153 133.556 112.799 131.72C114.416 131.351 116.032 130.802 117.649 130.433C117.288 130.255 116.927 130.077 116.567 130.079C117.474 131.334 118.38 132.588 119.286 133.663C120.011 134.739 121.804 133.649 120.9 132.754C119.993 131.5 119.087 130.245 118.181 129.171C117.999 128.812 117.459 128.635 117.1 128.817C112.43 130.102 107.759 131.208 103.269 132.492C96.9817 134.147 90.6947 135.801 84.4077 137.456C83.8691 137.639 83.5093 137.641 82.9706 137.824C80.2763 138.558 78.4935 141.447 79.228 144.142C79.4109 144.681 79.9526 145.038 80.4912 144.855C84.9814 143.57 89.4725 142.466 93.9627 141.181C101.148 139.342 108.333 137.323 115.518 135.483C117.135 135.115 118.751 134.566 120.548 134.196C121.624 133.65 121.073 131.674 119.816 132.041Z" fill="black"/>
<path d="M142.521 106.543C144.31 104.734 146.099 102.925 147.708 101.116C147.167 100.939 146.626 100.762 146.087 100.765C146.638 102.922 147.189 104.898 147.92 107.053C147.922 107.413 148.103 107.592 148.105 107.952C148.463 107.59 148.821 107.228 149.358 106.685C147.196 106.157 145.034 105.63 143.053 105.101C142.693 105.103 142.512 104.924 142.152 104.926C141.611 104.749 141.074 105.112 140.897 105.653C140.72 106.193 141.083 106.731 141.623 106.908C143.785 107.436 145.947 107.964 147.928 108.493C148.288 108.491 148.469 108.67 148.829 108.668C149.549 108.843 150.265 108.12 150.081 107.401C149.529 105.245 148.979 103.268 148.247 101.113C148.245 100.753 148.064 100.574 148.062 100.215C147.878 99.4958 146.978 99.3209 146.441 99.8637C144.653 101.673 142.864 103.482 141.255 105.291C140.359 106.015 141.626 107.448 142.521 106.543Z" fill="black"/>
<path d="M160.573 85.5695L160.393 85.5705C160.573 85.5695 160.753 85.5685 160.932 85.5675C160.753 85.5685 160.753 85.5685 160.573 85.5695C160.753 85.5685 160.932 85.5675 161.113 85.7464C161.113 85.7464 160.933 85.7474 160.932 85.5675C161.112 85.5665 161.293 85.7454 161.474 85.9244L161.293 85.7454C161.474 85.9243 161.655 86.1033 161.836 86.2822L161.655 86.1033C161.836 86.2822 161.837 86.4622 162.018 86.6411C162.018 86.6411 162.017 86.4612 161.837 86.4622C161.838 86.6421 162.019 86.821 162.02 87.001L162.019 86.821C162.02 87.001 162.021 87.1809 162.022 87.3608C161.845 87.9016 162.208 88.4395 162.748 88.6164C163.289 88.7933 163.827 88.4305 164.004 87.8896C164.177 86.809 163.812 85.7314 163.088 85.0157C162.726 84.6578 162.185 84.3009 161.824 84.123C161.644 84.124 161.463 83.9451 161.283 83.9461C161.103 83.9471 160.923 83.9481 160.744 83.9491C160.564 83.9501 160.384 83.9511 160.204 83.9521C160.024 83.9531 159.665 84.135 159.666 84.3149C159.487 84.4959 159.489 84.8557 159.49 85.0357C159.491 85.2156 159.673 85.5745 159.853 85.5735C159.853 85.5735 160.033 85.5725 160.034 85.7524C160.213 85.5715 160.393 85.5705 160.573 85.5695Z" fill="black"/>
<path d="M121.553 121.055C121.021 122.318 121.029 123.757 121.574 124.834C122.301 126.09 123.384 126.803 124.823 126.795C125.543 126.791 126.262 126.787 126.98 126.423C127.518 126.241 127.515 125.521 127.333 125.162C126.97 124.624 126.43 124.627 126.071 124.809C126.071 124.809 126.071 124.809 125.892 124.81L125.712 124.811L125.532 124.812C125.532 124.812 125.532 124.812 125.352 124.813C125.532 124.812 125.532 124.812 125.352 124.813C125.172 124.814 124.992 124.815 124.992 124.815C124.992 124.815 124.992 124.815 124.812 124.816C124.632 124.817 124.452 124.818 124.451 124.638C124.451 124.638 124.451 124.638 124.272 124.639C124.272 124.639 124.092 124.64 124.091 124.46C123.911 124.461 123.91 124.281 123.73 124.282C123.549 124.103 123.911 124.461 123.73 124.282L123.549 124.103L123.368 123.924C123.187 123.745 123.369 124.104 123.368 123.924C123.367 123.744 123.187 123.745 123.186 123.565C123.186 123.565 123.186 123.565 123.185 123.386L123.184 123.206C123.183 123.026 123.182 122.846 123.002 122.847C123.001 122.667 123.003 123.027 123.002 122.847L123.001 122.667C123 122.487 122.999 122.307 122.999 122.307C123 122.487 123 122.487 122.999 122.307C122.999 122.307 122.999 122.307 122.998 122.127L122.997 121.947L122.996 121.767C122.996 121.767 122.996 121.767 122.995 121.587C123.172 121.046 123.169 120.507 122.629 120.33C122.45 120.511 121.73 120.515 121.553 121.055Z" fill="black"/>
<path d="M168.679 87.8646C165.271 89.6829 162.045 91.8601 159.181 94.3952C158.285 95.1199 157.575 96.7434 158.477 97.2782C159.019 97.635 159.736 97.2712 160.275 97.0882C162.249 96.1776 164.223 95.4468 166.197 94.5362C164.046 95.9876 162.077 97.6181 160.469 99.6063C159.753 100.33 159.221 101.593 160.124 102.307C160.847 102.843 161.743 102.298 162.281 101.935C164.072 100.666 165.864 99.3964 167.657 98.3068C165.508 99.9382 163.72 101.928 162.114 104.276C161.578 104.998 161.226 106.44 162.128 106.795C162.489 106.973 162.847 106.791 163.206 106.609C164.821 105.88 166.434 104.791 167.506 103.526C166.072 104.434 165.002 106.059 164.831 107.679C164.655 108.4 164.839 109.119 165.381 109.476C166.103 110.012 167 109.467 167.536 108.924C172.55 104.757 174.487 97.1892 172.114 91.0844C171.386 89.469 169.756 87.4987 168.141 88.2274L168.679 87.8646Z" fill="white"/>
<path d="M168.133 86.9675C165.98 88.0591 163.829 89.3306 162.038 90.7801C160.426 92.0486 158.274 93.3202 157.385 95.1245C156.674 96.7479 157.763 98.5413 159.74 98.1704C160.819 97.9845 162.074 97.2578 163.151 96.8919C164.407 96.3451 165.663 95.7983 166.92 95.2515C166.557 94.7137 166.194 94.1759 166.011 93.6371C164.218 94.7267 162.606 95.9952 161.176 97.6226C160.103 98.7082 158.493 100.337 158.862 101.954C159.232 103.751 161.21 103.74 162.465 103.014C164.438 101.923 166.409 100.473 168.2 99.0231C167.837 98.4853 167.474 97.9475 166.932 97.4107C165.5 98.6782 164.068 100.126 162.817 101.572C161.925 102.837 160.493 104.104 160.682 105.723C160.871 107.521 162.491 107.692 163.927 106.964C165.542 106.236 167.154 105.147 168.226 103.701C168.941 102.978 168.034 101.543 166.958 102.089C164.986 103.36 162.844 106.43 163.938 108.944C165.394 111.994 168.792 108.557 170.044 107.11C173.439 102.953 174.846 97.1868 173.378 91.9767C172.644 89.4616 170.824 85.6929 167.591 86.6106C166.334 86.9775 166.884 88.7738 168.141 88.4069C170.475 87.6742 171.58 92.1666 171.768 93.6051C172.14 95.9422 171.973 98.2824 171.266 100.446C170.558 102.609 169.49 104.594 167.88 106.223C167.522 106.584 166.986 107.127 166.448 107.49C165.73 107.854 165.548 107.315 165.723 106.594C165.895 105.154 166.789 104.069 167.864 103.344C167.501 102.806 167.139 102.268 166.596 101.731C165.881 102.635 164.987 103.54 163.911 104.085C163.736 104.986 162.48 105.713 162.48 105.713C162.301 105.714 162.835 104.811 162.834 104.631C164.261 102.464 166.229 100.474 168.199 98.8432C169.094 98.1185 168.007 96.685 166.931 97.2308C165.676 98.1374 164.421 98.8642 163.167 99.7708C162.629 100.134 161.913 100.678 161.375 101.04C160.838 101.403 160.119 101.587 160.655 100.864C161.188 99.7818 162.441 98.6952 163.337 97.9705C164.411 97.0648 165.486 96.1592 166.561 95.4334C167.636 94.7077 166.729 93.2732 165.652 93.819C163.858 94.5487 162.243 95.2775 160.448 96.0072C160.089 96.1891 159.73 96.3711 159.37 96.3731C158.831 96.3761 159.011 96.3751 159.189 96.0142C159.544 95.2925 160.261 94.7487 160.799 94.3858C163.305 92.2126 166.173 90.3972 169.222 88.7608C170.298 88.215 169.209 86.4217 168.133 86.9675Z" fill="black"/>
<path d="M25.2877 181.51C24.2004 180.077 24.9079 177.913 25.4396 176.471C25.9703 174.849 27.0406 173.223 28.6565 172.674C32.607 171.393 36.4066 175.33 38.939 177.835C41.6523 180.52 44.1937 184.644 41.1546 188.08C38.8311 190.792 34.341 192.076 31.4488 189.573C30.0027 188.322 29.0933 186.527 29.2622 184.547C29.4371 183.646 29.7898 182.385 30.6873 182.02C31.4058 181.836 32.4881 182.37 31.9535 183.273C31.2399 184.356 33.0438 185.246 33.5774 184.163C34.8257 182.177 33.0138 179.848 30.8562 180.04C28.1589 180.235 26.9157 183.121 27.1086 185.459C27.3014 187.797 28.3937 190.13 30.3795 191.379C32.3662 192.807 35.0665 193.152 37.401 192.419C39.7356 191.686 42.0651 190.054 43.3123 187.888C44.7384 185.541 44.3626 182.664 43.2693 180.151C41.9961 177.639 39.6466 175.672 37.478 173.885C35.4892 172.097 33.1417 170.49 30.2625 170.326C27.3834 170.162 24.8739 171.796 23.8096 174.501C22.7423 176.666 21.8629 180.27 23.4938 182.42C24.3993 183.494 26.1931 182.585 25.2877 181.51Z" fill="black"/>
<path d="M42.4851 201.389C49.1359 200.452 54.8602 194.662 55.7227 188C55.7197 187.46 55.5368 186.921 54.9961 186.744C54.4555 186.567 53.9178 186.93 53.7409 187.471C52.8755 193.594 47.8667 198.66 41.7555 199.593C41.2159 199.596 40.8601 200.318 41.043 200.857C41.4048 201.215 41.9454 201.392 42.4851 201.389Z" fill="black"/>
<path d="M63.4176 180.579C62.3923 190.301 60.1077 200.031 60.1627 209.927C60.1747 212.086 60.1917 215.145 62.7141 215.851C64.1562 216.383 66.1329 216.012 67.572 216.004C69.3699 215.814 71.1687 215.804 72.9666 215.614C80.158 214.854 87.5274 213.734 94.7158 212.434C109.093 209.835 123.287 206.697 137.296 202.661C144.3 200.643 151.304 198.444 158.306 196.066C164.412 194.053 170.515 191.68 175.528 187.513C177.856 185.521 179.461 182.993 178.544 179.759C177.992 177.603 177.081 175.629 176.17 173.474C174.165 168.807 172.34 164.139 169.977 159.653C169.612 158.756 169.069 158.039 168.705 157.321C167.979 156.246 166.365 157.154 167.091 158.23C169.27 161.997 171.092 166.125 172.734 170.255C173.646 172.409 174.556 174.383 175.288 176.538C176.2 178.872 177.654 181.563 176.048 183.912C174.443 186.44 171.394 188.076 168.884 189.53C166.193 190.984 163.142 192.261 160.269 193.176C153.806 195.551 147.341 197.567 140.697 199.583C127.407 203.615 113.933 206.749 100.276 209.524C93.4476 210.822 86.438 211.94 79.6074 212.878C76.1925 213.437 72.5968 213.817 69.18 214.016C67.562 214.205 65.943 214.214 64.3241 214.223C63.6045 214.227 62.7051 214.232 62.5202 213.333C62.3373 212.794 62.3333 212.074 62.3293 211.355C61.9406 206.139 62.81 200.735 63.5016 195.693C64.1931 190.651 65.0646 185.608 65.5762 180.567C65.5692 179.307 63.5905 179.318 63.4176 180.579Z" fill="black"/>
<path d="M60.837 266.605C61.7634 271.458 67.167 272.688 71.3003 271.945C73.9966 271.57 76.6909 270.836 79.3852 270.101C82.0795 269.366 84.9547 268.81 87.649 268.076C98.9668 265.314 110.105 262.553 121.422 259.611C143.696 253.909 165.97 248.027 188.242 241.785C191.295 240.869 194.529 240.131 197.582 239.214C199.917 238.481 202.07 237.57 203.678 235.582C206.358 232.148 206.15 227.111 203.254 223.888C202.349 222.993 201.098 224.44 201.822 225.335C204.176 228.021 204.021 232.521 201.517 235.054C199.907 236.682 197.391 237.236 195.236 237.788C192.721 238.521 190.207 239.255 187.513 239.99C177.095 242.927 166.677 245.684 156.258 248.441C135.602 253.954 114.764 259.288 93.925 264.442C87.9967 265.914 82.2474 267.206 76.3192 268.678C73.445 269.414 70.3919 270.331 67.5118 269.987C65.1712 269.64 63.0046 268.213 62.6318 265.875C62.447 264.977 60.6501 265.347 60.837 266.605Z" fill="black"/>
<path d="M161.56 37.161C167.395 51.3439 171.077 66.4385 172.421 81.726C172.608 82.9845 174.407 82.9745 174.4 81.715C173.055 66.2475 169.372 50.973 163.356 36.6112C162.99 35.5336 161.014 36.0844 161.56 37.161Z" fill="black"/>
<path d="M57.7043 220.917C57.5984 234.233 58.7517 247.543 60.9843 260.846C61.1711 262.104 63.1469 261.554 62.7801 260.296C60.5495 247.353 59.3972 234.223 59.5031 220.907C59.676 219.647 57.6973 219.658 57.7043 220.917Z" fill="black"/>
<path d="M179.851 188.389C187.28 197.885 193.275 208.468 197.295 219.782C197.662 221.04 199.638 220.489 199.091 219.232C194.889 207.559 188.892 196.616 181.103 186.943C180.558 186.046 179.127 187.494 179.851 188.389Z" fill="black"/>
<path d="M66.4896 21.1343C80.1259 14.7606 95.2203 11.7977 110.155 12.4345C114.473 12.5905 118.614 13.1073 122.936 13.983C124.196 14.1559 124.726 12.3536 123.465 12.1806C108.158 9.20667 92.3322 10.0144 77.6075 14.7746C73.4771 16.0572 69.5286 17.6986 65.5812 19.5199C64.324 19.8868 65.4133 21.6801 66.4896 21.1343Z" fill="black"/>
<path d="M176.378 145.762C181.279 153.652 191.196 157.736 200.178 155.527C201.435 155.16 200.885 153.364 199.628 153.73C191.544 155.755 182.528 151.846 178.172 144.853C177.445 143.597 175.832 144.686 176.378 145.762Z" fill="black"/>
<path d="M34.7877 143.13C35.887 146.723 36.9883 150.676 36.2897 154.458C35.5892 157.881 33.2636 160.233 30.5774 162.407C25.9213 166.212 19.4634 169.487 18.4201 175.971C18.2472 177.231 20.0491 177.761 20.222 176.5C21.2633 169.657 28.8015 166.556 33.4555 162.391C35.9609 160.038 37.7448 157.329 38.2655 153.908C38.7841 150.126 37.6838 146.353 36.5845 142.761C36.2167 141.323 34.4209 141.873 34.7877 143.13Z" fill="black"/>
<path d="M184.84 115.305C185.199 115.123 185.562 115.841 185.563 116.021C185.746 116.56 185.569 117.101 185.213 117.643C184.499 118.726 183.425 119.632 183.433 121.071C183.261 122.512 184.347 123.765 185.073 124.841C185.616 125.558 185.985 127.175 184.909 127.721C184.191 128.085 184.737 129.161 185.634 128.797C187.069 128.069 187.059 126.269 186.693 125.012C186.144 123.395 184.157 121.967 185.227 120.162C186.118 118.717 187.552 117.809 187.002 116.013C186.636 114.756 185.371 113.683 184.116 114.59C183.219 114.954 184.123 115.849 184.84 115.305Z" fill="white"/>
<path d="M45.8006 85.8475C47.7573 81.8779 48.0921 77.3775 48.4279 73.0571C48.5928 70.357 48.7567 67.4771 49.1015 64.7761C52.3474 66.1975 56.126 66.3565 59.5388 65.4378C60.4373 65.2529 61.5136 64.7071 61.8694 63.9854C62.404 63.0827 62.0373 61.8251 60.9569 61.6512C65.1043 63.4276 69.7843 63.9414 74.0986 63.3776C74.6383 63.3746 75.1769 63.1917 75.3538 62.6509C75.5317 62.29 75.3498 61.9311 75.1689 61.7522C74.8051 61.0344 74.2615 60.3177 73.7188 59.7809C74.8071 61.3943 76.4331 62.6449 78.4129 62.8138C80.3936 63.1627 82.3684 62.4319 83.8004 61.1644C84.1582 60.8025 84.515 60.2607 84.6919 59.7199C85.0447 58.4584 84.497 57.0219 83.4137 56.3081C82.3294 55.4145 81.0682 55.0616 79.808 54.8886C81.4239 54.3398 83.0389 53.6111 84.1112 52.3456C85.1835 51.08 85.5313 48.9188 84.2661 47.8462C83.7235 47.3094 82.822 46.9545 81.9226 46.9595C78.3219 46.4397 74.9091 47.3583 71.4992 48.8168C72.5725 47.7312 73.465 46.4667 73.9966 45.0242C74.1735 44.4834 74.1705 43.9436 74.1685 43.5837C73.9846 42.865 74.5113 40.5228 71.0935 40.5418C65.6969 40.5718 60.3353 46.8995 57.4811 51.2339C57.4721 49.6145 59.0811 47.8062 57.9938 46.3727C57.4491 45.476 56.1899 45.483 55.1116 45.6689C51.34 46.7695 49.2034 50.7401 47.6044 54.3478C46.5181 53.0942 45.4318 51.8407 43.8098 51.3099C42.1878 50.7791 40.2131 51.5098 39.8623 53.1312C39.5105 54.5727 40.9576 56.0042 42.0419 56.8979C40.0622 56.7289 37.9046 56.9209 36.1107 57.8305C34.6746 58.3783 33.2425 59.6459 33.6103 61.0834C33.7932 61.6222 34.3358 62.159 34.6976 62.5168C35.602 63.4115 36.6853 64.1253 37.7687 64.839C37.9495 65.0179 38.3103 65.1959 38.3113 65.3758C38.4932 65.7347 38.4962 66.2745 38.3183 66.6354C37.7906 68.7976 38.1634 71.1348 38.3553 73.293C38.7301 75.99 39.1058 78.867 39.4806 81.564C39.8534 83.9012 40.0462 86.2393 41.3174 88.3916C42.5686 86.9451 44.3615 85.8555 46.3393 85.6645L45.8006 85.8475Z" fill="black"/>
<path d="M66.625 77.8147C68.4359 79.964 69.1714 82.8389 69.0065 85.539C69.1844 85.1781 69.5432 84.9962 69.7211 84.6353C68.8226 84.8202 67.7433 84.8262 66.8419 84.4713C65.5807 84.1185 65.052 86.1008 66.3122 86.2737C67.5734 86.6266 69.0125 86.6186 70.2707 86.4316C70.6305 86.4296 70.9873 85.8878 70.9853 85.528C71.1472 82.2881 70.0489 78.8754 68.0561 76.3673C67.6943 76.0094 66.9748 76.0134 66.617 76.3753C66.2603 76.9171 66.2633 77.4569 66.625 77.8147Z" fill="black"/>
<path d="M49.1696 109.402C42.9106 116.094 39.5398 124.57 38.8702 133.571C38.5364 138.251 38.9232 143.108 39.4888 147.783C40.0515 151.919 40.795 156.233 42.0762 160.185C43.3574 164.136 44.9984 168.086 47.5368 171.67C49.7134 174.897 52.6126 178.66 56.7519 178.997C59.0925 179.344 61.2461 178.432 63.4007 177.7C65.3755 176.97 67.1693 176.06 68.7803 174.611C71.6445 172.076 73.6032 168.467 75.0233 165.04C79.1057 155.12 80.8446 144.314 81.685 133.693C81.683 133.333 81.5012 132.974 81.1404 132.796C76.8101 130.481 73.1964 127.622 69.2229 124.765C68.8612 124.407 68.1436 124.771 67.9657 125.132C60.8323 136.328 55.5047 148.774 52.3387 161.747C51.9859 163.009 53.9677 163.537 54.1406 162.277C57.3075 149.483 62.6361 137.218 69.5897 126.023C69.2309 126.205 68.6913 126.208 68.3325 126.39C72.305 129.067 75.9197 132.106 80.25 134.421C80.0681 134.062 79.8872 133.883 79.7053 133.524C79.0357 142.525 77.8275 151.709 74.8164 160.183C73.5762 163.608 72.1571 167.215 70.0145 170.106C67.5171 173.899 64.1093 175.717 59.9779 176.82C57.8223 177.371 55.8425 177.202 54.0367 175.953C52.4117 174.882 50.9636 173.271 49.8753 171.657C47.5198 168.612 45.7009 165.023 44.6016 161.43C41.8603 153.708 40.9129 145.076 40.8679 136.979C40.8409 132.121 41.5335 127.258 43.3064 122.57C44.9014 118.243 47.3978 114.27 50.6167 110.833C51.3313 109.93 50.0641 108.497 49.1696 109.402Z" fill="black"/>
<path d="M70.5643 171.902C72.9168 174.408 75.0894 176.915 77.4419 179.421C77.8037 179.779 78.3434 179.776 78.7021 179.594C81.9281 177.417 84.7923 174.882 87.4746 171.988C90.3347 168.733 93.1949 165.478 96.0551 162.223C101.774 155.534 107.493 148.664 113.211 141.795C113.568 141.253 113.564 140.533 113.022 140.176C110.858 139.109 108.693 138.041 106.708 136.973C105.626 136.439 104.556 138.064 105.818 138.597C107.983 139.665 110.147 140.732 112.132 141.801C112.129 141.261 111.946 140.722 111.943 140.182C106.405 147.051 100.865 153.74 95.1457 160.429C92.4654 163.683 89.6042 166.758 86.9239 170.012C84.2416 172.906 81.3794 175.801 77.9736 177.979C78.3334 177.977 78.6941 178.155 79.2338 178.152C76.8813 175.646 74.7087 173.139 72.3562 170.632C71.091 169.56 69.6589 170.827 70.5643 171.902Z" fill="black"/>
</svg>
