<svg width="745" height="684" viewBox="0 0 745 684" fill="none" xmlns="http://www.w3.org/2000/svg">
<path opacity="0.8" d="M70.7031 531.775C70.7031 531.775 -27.051 422.779 7.32717 295.747C29.7872 212.777 104.237 263.055 100.264 128.519C96.3225 -6.05045 319.671 -20.0291 381.608 19.0081C443.545 58.0454 444.828 82.9751 572.706 67.4826C700.584 51.9901 756.233 170.261 689.979 269.626C631.952 356.655 820.954 347.926 708.591 532L70.7031 531.775Z" fill="#FFE48F"/>
<path opacity="0.8" d="M637.105 320.742C637.105 320.742 699.068 407.61 656.189 486.719C628.178 538.387 576.813 493.935 562.739 583.744C548.637 673.57 373.525 649.508 330.437 614.377C287.348 579.247 289.532 562.524 188.317 553.713C87.1009 544.902 58.9965 458.168 123.084 402.163C179.214 353.111 31.4261 330.693 142.099 225.396L637.105 320.742Z" fill="#FFE48F"/>
<g clip-path="url(#clip0_1478_2)">
<path d="M468.444 415.179L474.977 430.041C474.977 430.041 462.072 441.672 463.04 444.58L492.237 432.949L482.961 409.364L468.444 415.179Z" fill="#FBC108"/>
<path d="M492.237 432.868L491.188 430.525L463.524 442.56C463.524 442.56 462.476 443.61 462.96 444.499L492.237 432.868Z" fill="#263238"/>
<path d="M519.821 436.179L528.047 450.153C528.047 450.153 516.595 463.157 517.804 465.903L545.468 450.96L533.612 428.587L519.821 436.179Z" fill="#FBC108"/>
<path d="M545.546 451.042L544.256 448.861L518.205 463.965C518.205 463.965 517.237 465.177 517.882 465.984L545.546 451.042Z" fill="#263238"/>
<path d="M466.34 240.768L483.823 239.434L481.108 200.56L480.095 199.98C480.095 199.98 480.095 199.98 480.095 199.98C472.395 195.608 462.958 195.741 455.315 200.302L455.317 200.336C455.326 200.459 455.338 200.639 455.355 200.871C455.388 201.335 455.436 202.007 455.497 202.834C455.619 204.489 455.793 206.771 455.999 209.273C456.413 214.282 456.957 220.171 457.48 223.716C457.989 227.169 459.998 228.904 461.885 229.785C462.832 230.228 463.75 230.455 464.431 230.571C464.771 230.628 465.051 230.659 465.246 230.674C465.343 230.682 465.418 230.686 465.469 230.688C465.481 230.689 465.491 230.689 465.501 230.69C465.511 230.69 465.519 230.69 465.525 230.69L465.539 230.691L465.542 230.691L465.542 230.691L466.34 240.768ZM466.34 240.768L465.789 230.927L465.776 230.693L465.543 230.691L466.34 240.768Z" fill="white" stroke="black" stroke-width="0.5"/>
<path d="M465.809 231.167C465.943 231.152 466.127 231.129 466.353 231.091C466.855 231.009 467.567 230.86 468.417 230.594C469.922 230.121 471.86 229.279 473.818 227.783C473.569 228.29 473.169 228.962 472.561 229.643C471.35 230.999 469.303 232.405 465.929 232.617L465.809 231.167Z" fill="#A6A6A6" stroke="black" stroke-width="0.5"/>
<path d="M481.59 208.083C481.67 208.002 486.268 205.983 486.752 210.829C487.316 215.675 482.316 215.191 482.235 215.11C482.316 214.948 481.59 208.083 481.59 208.083Z" fill="white"/>
<path d="M483.605 213.091C483.605 213.091 483.686 213.171 483.847 213.171C484.009 213.252 484.251 213.252 484.493 213.091C484.977 212.848 485.299 211.96 485.299 211.071C485.299 210.587 485.138 210.183 484.896 209.86C484.735 209.537 484.412 209.294 484.17 209.294C483.928 209.294 483.767 209.456 483.686 209.617C483.605 209.779 483.686 209.86 483.686 209.86C483.686 209.86 483.605 209.779 483.605 209.617C483.605 209.537 483.686 209.375 483.767 209.294C483.847 209.214 484.009 209.133 484.251 209.133C484.654 209.133 484.977 209.456 485.219 209.779C485.46 210.183 485.622 210.587 485.622 211.071C485.702 212.041 485.299 213.01 484.573 213.333C484.251 213.494 483.928 213.414 483.767 213.252C483.605 213.171 483.605 213.091 483.605 213.091Z" fill="#A6A6A6"/>
<path d="M458.202 211.475C458.282 212.04 458.766 212.444 459.331 212.363C459.895 212.283 460.299 211.879 460.218 211.313C460.137 210.748 459.653 210.344 459.089 210.425C458.524 210.425 458.121 210.909 458.202 211.475Z" fill="#263238"/>
<path d="M457.881 210.102C458.042 210.183 458.687 209.537 459.816 209.375C460.865 209.214 461.752 209.617 461.913 209.537C461.994 209.456 461.833 209.214 461.429 209.052C461.026 208.81 460.462 208.648 459.736 208.81C459.09 208.89 458.526 209.214 458.203 209.537C457.881 209.779 457.8 210.021 457.881 210.102Z" fill="#263238"/>
<path d="M468.768 210.182C468.849 210.748 469.333 211.152 469.897 211.071C470.462 210.99 470.865 210.586 470.784 210.021C470.704 209.455 470.22 209.052 469.655 209.132C469.091 209.213 468.687 209.698 468.768 210.182Z" fill="#263238"/>
<path d="M468.607 208.81C468.769 208.89 469.414 208.244 470.543 208.083C471.591 207.921 472.479 208.325 472.64 208.244C472.721 208.163 472.559 207.921 472.156 207.759C471.753 207.517 471.188 207.356 470.462 207.517C469.817 207.598 469.252 207.921 468.93 208.244C468.607 208.486 468.527 208.729 468.607 208.81Z" fill="#263238"/>
<path d="M465.785 217.452C465.785 217.371 465.059 217.371 464.01 217.371C463.768 217.371 463.446 217.371 463.365 217.21C463.284 217.048 463.365 216.725 463.446 216.321C463.607 215.594 463.768 214.867 464.01 214.06C464.736 210.91 465.22 208.244 465.059 208.244C464.897 208.244 464.252 210.748 463.526 213.979C463.365 214.787 463.204 215.514 463.042 216.24C462.962 216.564 462.881 216.967 463.042 217.371C463.123 217.533 463.365 217.694 463.526 217.694C463.688 217.694 463.849 217.694 464.01 217.694C465.059 217.614 465.785 217.452 465.785 217.452Z" fill="#263238"/>
<path d="M469.092 217.694C468.931 217.694 469.092 218.906 468.205 219.875C467.318 220.844 466.027 220.925 466.027 221.087C466.027 221.167 466.35 221.248 466.834 221.248C467.318 221.167 468.124 220.925 468.608 220.279C469.173 219.714 469.334 218.987 469.334 218.421C469.334 218.017 469.173 217.694 469.092 217.694Z" fill="#263238"/>
<path d="M467.719 204.529C467.881 204.771 468.929 204.529 470.22 204.529C471.51 204.448 472.639 204.69 472.72 204.448C472.801 204.286 472.559 204.044 472.075 203.802C471.591 203.559 470.946 203.398 470.139 203.398C469.332 203.398 468.687 203.64 468.203 203.883C467.8 204.125 467.639 204.448 467.719 204.529Z" fill="#263238"/>
<path d="M457.799 206.871C458.041 207.113 458.766 206.709 459.654 206.629C460.541 206.467 461.347 206.548 461.509 206.306C461.589 206.144 461.428 205.902 461.025 205.74C460.702 205.579 460.057 205.417 459.492 205.579C458.847 205.659 458.363 205.982 458.121 206.306C457.799 206.467 457.718 206.79 457.799 206.871Z" fill="#263238"/>
<path d="M451.023 196.29C450.862 195.401 451.023 194.432 451.668 193.786C452.313 193.14 453.443 193.059 454.088 193.624C453.604 192.494 454.33 190.959 455.54 190.717C456.669 190.474 457.798 191.201 458.927 191.363C460.056 191.524 461.185 191.12 462.153 190.474C463.121 189.909 464.008 189.182 465.057 188.617C467.154 187.486 469.735 187.243 471.993 187.89C474.251 188.536 476.267 190.151 477.397 192.251C478.848 191.524 480.784 192.09 481.913 193.301C483.042 194.513 483.526 196.209 483.607 197.824C483.607 198.955 483.446 200.005 483.204 201.136C483.204 201.217 483.204 201.298 483.284 201.378C483.768 205.255 483.93 209.94 482.316 210.182C479.413 210.667 479.332 205.094 479.332 205.094C475.622 204.205 476.187 198.713 475.138 197.986C474.17 197.34 471.993 195.644 465.137 200.571C462.476 202.428 458.604 202.913 456.427 202.751C456.346 202.751 456.265 202.751 456.265 202.751C456.265 202.751 456.265 202.751 456.185 202.751H456.104C455.378 202.671 454.733 202.509 454.088 202.186C453.362 201.863 452.636 201.378 452.233 200.651C451.83 199.924 451.83 199.036 452.313 198.39C451.749 197.905 451.265 197.178 451.023 196.29Z" fill="#263238"/>
<path d="M465.539 237.16L466.346 265.349L483.847 227.629L483.444 224.156L465.539 237.16Z" fill="#EBEBEB"/>
<path d="M477.155 321.404C476.51 321.646 440.054 358.478 440.861 365.182C441.667 371.805 467.638 420.914 467.638 420.914L486.107 411.787L468.767 368.736L469.009 366.07L490.221 348.624L489.091 320.596L477.155 321.404Z" fill="#263238"/>
<path d="M484.977 328.673C485.38 329.319 491.671 387.313 493.365 390.301C495.058 393.29 520.383 442.803 520.383 442.803L539.176 435.21L516.189 380.851L518.77 329.4L517.319 314.861L488.929 320.677L484.977 328.673Z" fill="#263238"/>
<path d="M493.123 389.251C493.123 389.251 493.042 389.09 492.961 388.686C492.881 388.282 492.8 387.717 492.719 386.99C492.477 385.455 492.155 383.355 491.751 380.851C491.026 375.601 489.977 368.412 488.848 360.497C487.719 352.581 486.751 345.393 486.025 340.143C485.702 337.558 485.38 335.458 485.219 333.923C485.138 333.196 485.057 332.631 485.057 332.227C484.977 331.823 484.977 331.662 484.977 331.662C484.977 331.662 485.057 331.823 485.138 332.227C485.219 332.631 485.299 333.196 485.38 333.923C485.622 335.458 485.944 337.558 486.348 340.062C487.074 345.312 488.122 352.501 489.251 360.416C490.38 368.332 491.348 375.52 492.074 380.77C492.397 383.355 492.719 385.455 492.881 386.99C492.961 387.717 493.042 388.282 493.042 388.686C493.123 389.09 493.123 389.251 493.123 389.251Z" fill="#242424"/>
<path d="M515.867 379.155C515.948 379.155 515.464 381.255 514.738 383.759C514.012 386.263 513.367 388.282 513.286 388.282C513.205 388.282 513.689 386.182 514.415 383.678C515.06 381.094 515.706 379.074 515.867 379.155Z" fill="#242424"/>
<path d="M518.692 392.24C518.692 392.24 518.208 391.755 517.643 390.786C517.079 389.817 516.514 388.444 516.111 386.828C515.788 385.213 515.788 383.678 515.869 382.547C515.95 381.497 516.192 380.851 516.192 380.851C516.353 380.851 515.788 383.517 516.514 386.747C517.24 389.978 518.773 392.159 518.692 392.24Z" fill="#242424"/>
<path d="M462.719 362.435C462.719 362.355 464.251 363.001 465.784 364.374C467.235 365.747 468.042 367.201 467.961 367.201C467.881 367.282 466.993 365.989 465.542 364.616C464.09 363.324 462.719 362.516 462.719 362.435Z" fill="#242424"/>
<path d="M465.619 360.739C465.7 360.659 466.587 361.466 467.394 362.759C468.2 364.051 468.523 365.263 468.442 365.263C468.362 365.343 467.878 364.213 467.071 362.92C466.265 361.709 465.539 360.82 465.619 360.739Z" fill="#242424"/>
<path d="M468.121 276.172L472.799 299.353L476.589 331.662C476.589 331.662 492.236 329.481 498.85 327.381C506.592 324.958 523.368 322.858 523.368 322.858L520.545 325.685C526.594 323.989 530.385 318.254 530.385 318.254C519.981 308.642 511.19 288.853 511.19 288.853L503.286 249.679C503.286 249.679 502.076 244.187 501.35 241.683C500.624 239.26 488.687 231.264 486.994 230.294L485.945 229.81L485.623 226.66L484.413 225.933L471.428 237.564C468.927 239.825 467.314 242.975 466.911 246.368C466.508 249.922 466.105 255.091 466.346 261.149C466.588 265.672 468.121 276.172 468.121 276.172Z" fill="#FBC108"/>
<path d="M476.992 236.029C476.992 236.029 470.137 239.664 468.927 242.814C467.717 245.964 471.266 280.13 471.266 280.13L446.667 280.615L446.586 295.315C446.586 295.315 485.622 298.384 487.154 296.284C489.171 293.457 491.59 266.722 491.59 266.722L492.478 247.498C492.558 247.498 490.3 232.798 476.992 236.029Z" fill="#FBC108"/>
<g opacity="0.3">
<path d="M472.799 299.273C476.106 300.323 479.171 300.484 482.639 300.161C486.107 299.838 489.655 297.98 490.946 294.749C491.914 292.246 491.51 289.499 491.672 286.834C491.833 284.492 492.398 282.23 492.72 279.968C493.043 277.707 491.914 273.507 491.107 271.245C491.107 271.245 490.22 287.076 487.72 293.78C487.397 294.669 486.994 295.638 486.187 296.203C485.3 296.93 484.09 297.011 482.961 297.092C479.816 297.415 472.234 296.85 472.234 296.85" fill="black"/>
</g>
<path d="M492.479 249.518C492.479 249.518 492.479 249.598 492.479 249.841C492.479 250.083 492.479 250.406 492.479 250.891C492.398 251.779 492.398 253.152 492.317 254.848C492.237 256.545 492.156 258.645 491.995 261.068C491.834 263.491 491.753 266.237 491.43 269.306C491.188 272.376 490.866 275.687 490.462 279.241C490.059 282.795 489.656 286.591 488.93 290.63C488.769 291.599 488.607 292.649 488.285 293.619C487.962 294.588 487.398 295.557 486.51 296.284C485.704 296.93 484.575 297.415 483.446 297.415C482.397 297.415 481.268 297.415 480.139 297.415C475.784 297.334 471.186 297.092 466.589 296.849C459.653 296.446 452.878 296.042 446.587 295.557H446.426V295.396C446.426 290.226 446.506 285.299 446.506 280.776V280.614H446.668C456.507 280.372 464.653 280.211 470.38 280.13C473.203 280.049 475.461 280.049 476.993 280.049C477.719 280.049 478.364 280.049 478.768 280.049C479.171 280.049 479.332 280.049 479.332 280.049C479.332 280.049 479.09 280.049 478.768 280.13C478.364 280.13 477.8 280.13 476.993 280.211C475.461 280.291 473.203 280.291 470.38 280.453C464.653 280.614 456.507 280.857 446.668 281.099L446.829 280.938C446.829 285.461 446.829 290.388 446.748 295.557L446.587 295.396C452.878 295.799 459.572 296.284 466.589 296.607C471.267 296.849 475.784 297.092 480.139 297.172C481.268 297.172 482.316 297.253 483.365 297.172C484.413 297.253 485.381 296.769 486.188 296.203C486.994 295.557 487.559 294.669 487.882 293.699C488.204 292.73 488.365 291.761 488.527 290.711C489.172 286.753 489.656 282.957 490.059 279.403C490.462 275.849 490.785 272.537 491.108 269.468C491.43 266.399 491.511 263.653 491.672 261.229C491.834 258.806 491.995 256.706 492.075 255.01C492.156 253.314 492.317 252.021 492.317 251.052C492.317 250.648 492.398 250.245 492.398 250.002C492.479 249.679 492.479 249.518 492.479 249.518Z" fill="#263238"/>
<path d="M451.505 295.073C451.424 295.073 451.344 291.923 451.344 287.965C451.344 284.007 451.505 280.857 451.586 280.857C451.666 280.857 451.747 284.007 451.747 287.965C451.666 291.923 451.586 295.073 451.505 295.073Z" fill="#263238"/>
<path d="M448.845 283.038C448.764 283.038 449.006 282.715 449.49 282.876C449.732 282.957 449.974 283.199 449.974 283.522C449.974 283.846 449.813 284.249 449.49 284.411C449.087 284.572 448.764 284.411 448.522 284.249C448.28 284.007 448.2 283.684 448.28 283.442C448.361 282.957 448.684 282.876 448.764 282.957C448.764 283.038 448.603 283.199 448.603 283.522C448.603 283.684 448.684 283.846 448.845 284.007C449.006 284.169 449.248 284.169 449.409 284.088C449.571 284.007 449.732 283.765 449.732 283.603C449.732 283.442 449.651 283.28 449.49 283.199C449.167 283.038 448.925 283.119 448.845 283.038Z" fill="#263238"/>
<path d="M503.367 252.83C503.367 252.83 516.191 269.549 517.724 274.153C519.256 278.676 518.046 285.3 515.465 288.369C512.884 291.438 510.787 290.227 510.787 290.227L503.367 252.83Z" fill="#FBC108"/>
<path d="M510.302 288.934C510.302 289.015 508.851 289.419 507.076 289.661C505.302 289.984 503.85 290.146 503.77 289.984C503.77 289.903 505.221 289.499 506.996 289.257C508.851 288.934 510.302 288.772 510.302 288.934Z" fill="#263238"/>
<path d="M512.805 301.292C512.805 301.292 512.966 301.615 513.127 302.18C513.289 302.746 513.611 303.554 514.014 304.604C514.74 306.623 515.95 309.45 517.483 312.358C519.015 315.265 520.547 317.85 521.757 319.708C522.322 320.596 522.886 321.323 523.209 321.808C523.532 322.292 523.693 322.616 523.693 322.616C523.693 322.616 523.451 322.373 523.048 321.889C522.644 321.404 522.16 320.677 521.515 319.789C520.225 318.012 518.612 315.427 517.079 312.519C515.547 309.531 514.418 306.784 513.773 304.684C513.45 303.634 513.208 302.827 513.047 302.18C512.805 301.615 512.805 301.292 512.805 301.292Z" fill="#263238"/>
<g opacity="0.3">
<path d="M513.691 303.23C515.708 306.865 517.805 310.5 520.87 313.327C521.999 314.296 523.208 315.185 524.015 316.396C524.822 317.608 525.225 319.304 524.418 320.515C524.176 320.919 523.612 321.323 523.128 321.242C522.805 321.162 522.483 320.839 522.321 320.596C518.45 315.669 515.546 309.934 513.853 303.877" fill="black"/>
</g>
<g opacity="0.3">
<path d="M511.998 290.226C513.773 288.934 514.337 286.591 514.095 284.411C513.853 282.23 512.885 280.291 511.998 278.353C509.256 272.214 507.401 266.722 505.788 260.099L504.578 255.495L510.869 288.611L511.998 290.226Z" fill="black"/>
</g>
<path d="M480.301 234.575C480.22 234.494 481.349 233.525 482.721 232.152C484.011 230.86 484.979 229.729 485.14 229.729C485.221 229.81 484.414 231.102 483.043 232.394C481.672 233.848 480.382 234.656 480.301 234.575Z" fill="#263238"/>
<path d="M479.011 237.402C479.011 237.483 478.285 237.725 477.156 238.291C476.026 238.856 474.575 239.825 473.204 241.199C471.833 242.572 470.945 244.106 470.381 245.237C469.816 246.368 469.655 247.176 469.574 247.095C469.574 247.095 469.574 246.853 469.655 246.529C469.736 246.206 469.897 245.641 470.139 245.076C470.623 243.864 471.51 242.329 472.962 240.875C474.333 239.502 475.946 238.533 477.075 238.049C477.64 237.806 478.123 237.645 478.527 237.564C478.849 237.402 479.011 237.402 479.011 237.402Z" fill="#263238"/>
<path d="M513.37 293.538C513.37 293.538 513.289 293.457 513.208 293.215C513.047 292.973 512.886 292.65 512.725 292.246C512.241 291.357 511.676 290.146 510.87 288.611C510.063 284.976 508.934 279.565 507.724 273.668C506.595 268.095 505.546 263.007 504.821 259.21C504.498 257.433 504.175 255.899 504.014 254.849C503.933 254.364 503.853 253.96 503.772 253.637C503.691 253.395 503.691 253.233 503.691 253.233C503.691 253.233 503.772 253.395 503.853 253.637C503.933 253.96 504.014 254.364 504.175 254.849C504.417 255.899 504.74 257.433 505.143 259.21C505.95 262.926 506.998 268.014 508.208 273.588C509.418 279.565 510.547 284.896 511.273 288.611C511.999 290.146 512.563 291.357 512.967 292.246C513.128 292.65 513.289 292.973 513.45 293.215C513.37 293.377 513.37 293.538 513.37 293.538Z" fill="#263238"/>
<path d="M470.863 280.13C470.863 280.13 470.782 279.726 470.701 278.918C470.621 278.03 470.459 276.98 470.379 275.607C470.056 272.78 469.734 268.903 469.33 264.622C468.927 260.341 468.604 256.464 468.443 253.637C468.362 252.264 468.282 251.133 468.201 250.325C468.12 249.518 468.12 249.114 468.201 249.114C468.201 249.114 468.282 249.518 468.362 250.325C468.443 251.214 468.604 252.264 468.685 253.637C469.008 256.464 469.33 260.341 469.734 264.622C470.137 268.903 470.459 272.78 470.621 275.607C470.701 276.98 470.782 278.111 470.863 278.918C470.863 279.726 470.943 280.13 470.863 280.13Z" fill="#263238"/>
<path d="M446.689 282.337C446.742 282.377 446.786 282.41 446.822 282.437L446.822 282.449L446.826 282.831C446.83 283.16 446.836 283.63 446.841 284.194C446.853 285.322 446.865 286.826 446.87 288.329C446.875 289.833 446.873 291.336 446.854 292.461C446.845 293.025 446.831 293.491 446.813 293.815C446.806 293.924 446.8 294.015 446.793 294.086C446.706 294.078 446.594 294.065 446.459 294.048C446.131 294.008 445.675 293.945 445.133 293.868C444.049 293.713 442.626 293.498 441.21 293.281C439.794 293.064 438.385 292.845 437.331 292.679C436.803 292.597 436.365 292.528 436.058 292.479L435.702 292.423L435.608 292.408L435.584 292.404L435.578 292.403L435.576 292.403L435.576 292.403C435.576 292.403 435.576 292.403 435.537 292.65L435.576 292.403L435.567 292.402L435.559 292.401L435.558 292.401L435.558 292.401L435.556 292.401L435.547 292.4L435.51 292.396C435.478 292.393 435.43 292.388 435.369 292.38C435.246 292.366 435.07 292.342 434.858 292.308C434.434 292.24 433.871 292.129 433.311 291.957C432.748 291.783 432.205 291.554 431.807 291.257C431.411 290.961 431.189 290.623 431.189 290.227C431.189 289.8 431.417 289.478 431.671 289.252C431.796 289.14 431.923 289.056 432.018 289C432.066 288.972 432.105 288.952 432.131 288.939C432.144 288.932 432.154 288.928 432.16 288.925L432.167 288.922L432.167 288.922L432.167 288.922L432.167 288.922L432.168 288.922L432.168 288.922L432.906 288.605L432.118 288.447L431.315 288.286C430.125 288.003 429.651 286.54 430.552 285.638L430.733 285.456L430.779 285.411L430.79 285.399L430.793 285.396L430.793 285.396L430.794 285.396L430.794 285.396L430.794 285.396L430.794 285.396L430.617 285.219L430.794 285.396L431.134 285.055L430.66 284.973L430.66 284.973L430.66 284.973L430.66 284.973L430.66 284.973L430.657 284.972L430.645 284.97C430.634 284.968 430.617 284.964 430.594 284.959C430.548 284.948 430.482 284.931 430.401 284.906C430.24 284.855 430.027 284.774 429.816 284.65C429.396 284.403 429.014 284.009 429.012 283.368C429.049 282.687 429.368 282.266 429.677 282.009C429.835 281.878 429.99 281.791 430.106 281.735C430.163 281.708 430.21 281.689 430.242 281.677C430.258 281.671 430.269 281.667 430.277 281.665L430.284 281.662L430.285 281.662L430.285 281.662L430.285 281.662L431.197 281.393L430.271 281.179C430.271 281.179 430.271 281.179 430.271 281.179L430.27 281.179L430.27 281.179L430.27 281.179L430.266 281.178C430.261 281.177 430.252 281.174 430.24 281.171C430.217 281.164 430.182 281.152 430.138 281.135C430.049 281.1 429.928 281.042 429.801 280.954C429.553 280.783 429.282 280.497 429.173 280.022V280.022V280.022V280.021V280.021V280.021V280.021V280.02V280.02V280.02V280.019V280.019V280.019V280.019V280.018V280.018V280.018V280.017V280.017V280.017V280.016V280.016V280.016V280.016V280.015V280.015V280.015V280.014V280.014V280.014V280.013V280.013V280.013V280.012V280.012V280.012V280.012V280.011V280.011V280.011V280.01V280.01V280.01V280.009V280.009V280.009V280.008V280.008V280.008V280.007V280.007V280.007V280.006V280.006V280.006V280.005V280.005V280.005V280.004V280.004V280.004V280.003V280.003V280.003V280.002V280.002V280.002V280.001V280.001V280V280V280V279.999V279.999V279.999V279.998V279.998V279.998V279.997V279.997V279.997V279.996V279.996V279.995V279.995V279.995V279.994V279.994V279.994V279.993V279.993V279.993V279.992V279.992V279.991V279.991V279.991V279.99V279.99V279.99V279.989V279.989V279.988V279.988V279.988V279.987V279.987V279.986V279.986V279.986V279.985V279.985V279.985V279.984V279.984V279.983V279.983V279.983V279.982V279.982V279.981V279.981V279.981V279.98V279.98V279.979V279.979V279.979V279.978V279.978V279.977V279.977V279.977V279.976V279.976V279.975V279.975V279.975V279.974V279.974V279.973V279.973V279.973V279.972V279.972V279.971V279.971V279.971V279.97V279.97V279.969V279.969V279.968V279.968V279.968V279.967V279.967V279.966V279.966V279.966V279.965V279.965V279.964V279.964V279.963V279.963V279.963V279.962V279.962V279.961V279.961V279.96V279.96V279.96V279.959V279.959V279.958V279.958V279.957V279.957V279.957V279.956V279.956V279.955V279.955V279.954V279.954V279.953V279.953V279.953V279.952V279.952V279.951V279.951V279.95V279.95V279.95V279.949V279.949V279.948V279.948V279.947V279.947V279.946V279.946V279.946V279.945V279.945V279.944V279.944V279.943V279.943V279.942V279.942V279.942V279.941V279.941V279.94V279.94V279.939V279.939V279.938V279.938V279.937V279.937V279.937V279.936V279.936V279.935V279.935V279.934V279.934V279.933V279.933V279.932V279.932V279.932V279.931V279.931V279.93V279.93V279.929V279.929V279.928V279.928V279.927V279.927V279.926V279.926V279.926V279.925V279.925V279.924V279.924V279.923V279.923V279.922V279.922V279.921V279.921V279.92V279.92V279.92V279.919V279.919V279.918V279.918V279.917V279.917V279.916V279.916V279.915V279.915V279.914V279.914V279.913V279.913V279.913V279.912V279.912V279.911V279.911V279.91V279.91V279.909V279.909V279.908V279.908V279.907V279.907V279.906V279.906V279.905V279.905V279.905V279.904V279.904V279.903V279.903V279.902V279.902V279.901V279.901V279.9V279.9V279.899V279.899V279.898V279.898V279.897V279.897V279.897V279.896V279.896V279.895V279.895V279.894V279.894V279.893V279.893V279.892V279.892V279.891V279.891V279.89V279.89V279.889V279.889V279.888V279.888C429.173 278.989 429.935 278.28 430.859 278.28V278.28L430.866 278.28C432.195 278.24 434.35 278.199 436.294 278.189C437.266 278.184 438.184 278.187 438.918 278.201C439.658 278.215 440.191 278.24 440.413 278.276C440.538 278.301 440.736 278.377 441 278.508C441.26 278.637 441.567 278.811 441.905 279.015C442.578 279.424 443.36 279.948 444.104 280.467C444.848 280.985 445.552 281.496 446.07 281.878C446.329 282.068 446.541 282.227 446.689 282.337Z" fill="white" stroke="black" stroke-width="0.5"/>
<path d="M437.057 277.434C437.49 277.609 437.914 277.772 438.283 277.91L433.343 278.1C432.884 277.815 432.608 277.367 432.435 276.894C432.26 276.416 432.201 275.934 432.16 275.608C432.159 275.598 432.157 275.588 432.156 275.578C432.128 275.322 432.253 275.112 432.456 274.996C432.656 274.881 432.94 274.858 433.223 275.01C433.362 275.116 433.506 275.26 433.651 275.414C433.703 275.469 433.756 275.528 433.808 275.585C433.897 275.682 433.984 275.778 434.061 275.855C434.169 275.986 434.337 276.113 434.526 276.234C434.726 276.362 434.97 276.496 435.239 276.631C435.777 276.9 436.429 277.181 437.057 277.434Z" fill="white" stroke="black" stroke-width="0.5"/>
<mask id="path-45-inside-1_1478_2" fill="white">
<path d="M436.505 278.03C436.505 278.111 435.215 278.272 433.682 278.272C432.069 278.272 430.859 278.191 430.859 278.03C430.859 277.949 432.15 277.788 433.682 277.788C435.215 277.868 436.505 277.949 436.505 278.03Z"/>
</mask>
<path d="M436.505 278.03C436.505 278.111 435.215 278.272 433.682 278.272C432.069 278.272 430.859 278.191 430.859 278.03C430.859 277.949 432.15 277.788 433.682 277.788C435.215 277.868 436.505 277.949 436.505 278.03Z" fill="#353535"/>
<path d="M433.682 277.788L433.709 277.288L433.695 277.288H433.682V277.788ZM436.005 278.03C436.005 277.858 436.091 277.745 436.135 277.697C436.181 277.648 436.225 277.622 436.242 277.612C436.278 277.591 436.303 277.585 436.295 277.587C436.287 277.59 436.255 277.598 436.19 277.61C436.064 277.633 435.87 277.659 435.619 277.684C435.122 277.733 434.432 277.772 433.682 277.772V278.772C434.465 278.772 435.187 278.731 435.717 278.679C435.981 278.653 436.205 278.624 436.369 278.594C436.449 278.579 436.529 278.562 436.598 278.54C436.629 278.53 436.683 278.512 436.738 278.48C436.765 278.465 436.817 278.433 436.867 278.378C436.917 278.326 437.005 278.207 437.005 278.03H436.005ZM433.682 277.772C432.881 277.772 432.191 277.752 431.706 277.713C431.46 277.694 431.285 277.67 431.18 277.647C431.124 277.635 431.116 277.629 431.134 277.637C431.142 277.641 431.184 277.662 431.231 277.71C431.281 277.761 431.359 277.87 431.359 278.03H430.359C430.359 278.21 430.447 278.338 430.516 278.409C430.581 278.475 430.651 278.514 430.695 278.536C430.785 278.58 430.885 278.607 430.967 278.624C431.139 278.662 431.368 278.689 431.626 278.71C432.149 278.752 432.87 278.772 433.682 278.772V277.772ZM431.359 278.03C431.359 278.202 431.273 278.315 431.229 278.363C431.184 278.412 431.14 278.438 431.122 278.448C431.086 278.469 431.061 278.475 431.069 278.473C431.077 278.47 431.109 278.462 431.175 278.45C431.301 278.427 431.495 278.401 431.745 278.376C432.243 278.327 432.932 278.288 433.682 278.288V277.288C432.9 277.288 432.178 277.329 431.647 277.381C431.383 277.407 431.159 277.436 430.995 277.466C430.916 277.481 430.835 277.498 430.767 277.52C430.736 277.529 430.682 277.548 430.626 277.58C430.599 277.595 430.548 277.627 430.497 277.682C430.448 277.734 430.359 277.853 430.359 278.03H431.359ZM433.656 278.287C434.422 278.327 435.122 278.367 435.629 278.407C435.884 278.427 436.081 278.447 436.211 278.465C436.278 278.474 436.311 278.481 436.319 278.483C436.327 278.485 436.3 278.479 436.262 278.46C436.243 278.45 436.195 278.424 436.145 278.373C436.095 278.322 436.005 278.206 436.005 278.03H437.005C437.005 277.849 436.913 277.728 436.857 277.671C436.803 277.616 436.747 277.584 436.719 277.57C436.66 277.54 436.604 277.524 436.574 277.516C436.506 277.498 436.426 277.485 436.349 277.474C436.188 277.452 435.967 277.431 435.707 277.41C435.186 277.369 434.475 277.329 433.709 277.288L433.656 278.287Z" fill="black" mask="url(#path-45-inside-1_1478_2)"/>
<mask id="path-47-inside-2_1478_2" fill="white">
<path d="M435.135 281.584C435.135 281.665 434.006 281.907 432.635 281.826C431.263 281.746 430.134 281.503 430.215 281.423C430.215 281.342 431.344 281.423 432.635 281.423C434.006 281.423 435.135 281.423 435.135 281.584Z"/>
</mask>
<path d="M435.135 281.584C435.135 281.665 434.006 281.907 432.635 281.826C431.263 281.746 430.134 281.503 430.215 281.423C430.215 281.342 431.344 281.423 432.635 281.423C434.006 281.423 435.135 281.423 435.135 281.584Z" fill="#353535"/>
<path d="M430.215 281.423L430.569 281.776L430.715 281.63V281.423H430.215ZM434.635 281.584C434.635 281.438 434.698 281.335 434.736 281.287C434.774 281.237 434.812 281.208 434.83 281.195C434.85 281.181 434.866 281.172 434.874 281.168C434.882 281.163 434.888 281.161 434.889 281.161C434.891 281.16 434.885 281.162 434.871 281.167C434.856 281.171 434.837 281.177 434.812 281.183C434.71 281.21 434.546 281.242 434.333 281.27C433.907 281.327 433.314 281.366 432.664 281.327L432.605 282.326C433.326 282.368 433.983 282.326 434.465 282.262C434.705 282.229 434.91 282.191 435.062 282.152C435.135 282.133 435.212 282.11 435.279 282.082C435.309 282.069 435.361 282.045 435.414 282.007C435.44 281.988 435.485 281.953 435.528 281.898C435.569 281.844 435.635 281.736 435.635 281.584H434.635ZM432.664 281.327C431.998 281.288 431.393 281.21 430.97 281.133C430.756 281.094 430.601 281.057 430.512 281.03C430.46 281.014 430.461 281.011 430.484 281.024C430.493 281.029 430.511 281.039 430.532 281.056C430.552 281.071 430.592 281.105 430.629 281.161C430.668 281.219 430.719 281.324 430.71 281.464C430.7 281.609 430.63 281.714 430.569 281.776L429.861 281.069C429.794 281.136 429.722 281.247 429.712 281.398C429.702 281.543 429.756 281.654 429.798 281.718C429.872 281.827 429.969 281.881 429.995 281.896C430.07 281.938 430.156 281.967 430.22 281.987C430.363 282.03 430.561 282.075 430.791 282.116C431.255 282.201 431.9 282.284 432.605 282.326L432.664 281.327ZM430.715 281.423C430.715 281.749 430.436 281.864 430.432 281.866C430.403 281.879 430.38 281.885 430.369 281.888C430.358 281.891 430.35 281.892 430.348 281.893C430.346 281.893 430.368 281.89 430.427 281.888C430.537 281.885 430.706 281.887 430.93 281.892C431.367 281.902 431.982 281.923 432.635 281.923V280.923C431.997 280.923 431.402 280.903 430.952 280.892C430.732 280.887 430.538 280.885 430.397 280.889C430.33 280.891 430.253 280.895 430.184 280.906C430.155 280.911 430.092 280.922 430.024 280.953C430.003 280.962 429.715 281.086 429.715 281.423H430.715ZM432.635 281.923C433.325 281.923 433.937 281.923 434.377 281.942C434.6 281.952 434.756 281.966 434.849 281.983C434.9 281.992 434.9 281.997 434.874 281.985C434.862 281.979 434.814 281.956 434.763 281.904C434.705 281.844 434.635 281.735 434.635 281.584H435.635C435.635 281.236 435.338 281.098 435.293 281.077C435.201 281.034 435.101 281.012 435.025 280.999C434.863 280.97 434.652 280.954 434.421 280.943C433.954 280.923 433.316 280.923 432.635 280.923V281.923Z" fill="black" mask="url(#path-47-inside-2_1478_2)"/>
<path d="M438.273 281.328C438.273 281.328 438.273 281.328 438.273 281.328L438.273 281.328Z" fill="#353535" stroke="black" stroke-width="0.5"/>
<mask id="path-50-inside-3_1478_2" fill="white">
<path d="M435.78 285.542C435.78 285.622 434.57 285.703 433.119 285.622C431.667 285.542 430.457 285.461 430.457 285.299C430.457 285.219 431.667 285.138 433.119 285.219C434.651 285.299 435.78 285.461 435.78 285.542Z"/>
</mask>
<path d="M435.78 285.542C435.78 285.622 434.57 285.703 433.119 285.622C431.667 285.542 430.457 285.461 430.457 285.299C430.457 285.219 431.667 285.138 433.119 285.219C434.651 285.299 435.78 285.461 435.78 285.542Z" fill="#353535"/>
<path d="M433.119 285.219L433.091 285.718L433.092 285.718L433.119 285.219ZM435.28 285.542C435.28 285.377 435.359 285.264 435.41 285.209C435.459 285.156 435.507 285.128 435.527 285.117C435.551 285.104 435.57 285.097 435.578 285.094C435.587 285.091 435.593 285.089 435.594 285.089C435.595 285.089 435.588 285.091 435.571 285.094C435.554 285.097 435.532 285.1 435.504 285.104C435.388 285.119 435.208 285.133 434.973 285.143C434.506 285.162 433.857 285.163 433.146 285.123L433.091 286.122C433.832 286.163 434.514 286.163 435.015 286.142C435.263 286.132 435.476 286.116 435.633 286.095C435.708 286.086 435.788 286.073 435.857 286.054C435.887 286.046 435.945 286.029 436.005 285.996C436.034 285.98 436.09 285.947 436.143 285.889C436.199 285.829 436.28 285.711 436.28 285.542H435.28ZM433.146 285.123C432.418 285.083 431.765 285.043 431.295 284.994C431.057 284.969 430.886 284.944 430.782 284.919C430.725 284.906 430.717 284.9 430.734 284.908C430.742 284.912 430.784 284.933 430.83 284.98C430.879 285.031 430.957 285.14 430.957 285.299H429.957C429.957 285.479 430.044 285.607 430.112 285.677C430.177 285.743 430.246 285.782 430.29 285.804C430.378 285.848 430.476 285.875 430.556 285.894C430.723 285.933 430.946 285.963 431.192 285.988C431.69 286.04 432.367 286.081 433.091 286.122L433.146 285.123ZM430.957 285.299C430.957 285.464 430.878 285.577 430.827 285.631C430.778 285.684 430.73 285.713 430.71 285.723C430.686 285.736 430.667 285.744 430.659 285.747C430.65 285.75 430.644 285.752 430.643 285.752C430.642 285.752 430.649 285.75 430.666 285.747C430.683 285.744 430.705 285.741 430.733 285.737C430.849 285.722 431.029 285.708 431.264 285.698C431.731 285.678 432.38 285.678 433.091 285.718L433.146 284.719C432.405 284.678 431.723 284.678 431.223 284.699C430.974 284.709 430.761 284.725 430.604 284.745C430.529 284.755 430.45 284.768 430.38 284.787C430.35 284.795 430.292 284.812 430.232 284.845C430.203 284.861 430.147 284.894 430.094 284.952C430.038 285.012 429.957 285.13 429.957 285.299H430.957ZM433.092 285.718C433.849 285.758 434.501 285.817 434.961 285.876C435.192 285.906 435.365 285.934 435.475 285.957C435.502 285.963 435.523 285.968 435.538 285.972C435.554 285.976 435.56 285.978 435.558 285.978C435.557 285.977 435.551 285.975 435.542 285.971C435.534 285.967 435.516 285.959 435.494 285.944C435.475 285.932 435.432 285.902 435.389 285.85C435.346 285.797 435.28 285.691 435.28 285.542H436.28C436.28 285.387 436.212 285.276 436.164 285.218C436.118 285.16 436.068 285.125 436.04 285.107C435.984 285.07 435.929 285.049 435.899 285.038C435.833 285.014 435.756 284.995 435.684 284.979C435.535 284.947 435.33 284.915 435.087 284.884C434.599 284.822 433.921 284.76 433.145 284.719L433.092 285.718Z" fill="black" mask="url(#path-50-inside-3_1478_2)"/>
<mask id="path-52-inside-4_1478_2" fill="white">
<path d="M439.408 283.846C439.488 283.846 439.569 283.926 439.569 284.169C439.569 284.411 439.569 284.815 439.327 285.057C439.085 285.38 438.762 285.542 438.52 285.542C438.278 285.542 438.117 285.542 438.117 285.461C438.117 285.38 438.682 285.3 439.004 284.815C439.327 284.411 439.246 283.846 439.408 283.846Z"/>
</mask>
<path d="M439.408 283.846C439.488 283.846 439.569 283.926 439.569 284.169C439.569 284.411 439.569 284.815 439.327 285.057C439.085 285.38 438.762 285.542 438.52 285.542C438.278 285.542 438.117 285.542 438.117 285.461C438.117 285.38 438.682 285.3 439.004 284.815C439.327 284.411 439.246 283.846 439.408 283.846Z" fill="#353535"/>
<path d="M439.327 285.057L438.973 284.704L438.948 284.729L438.927 284.758L439.327 285.057ZM439.004 284.815L438.614 284.503L438.6 284.52L438.588 284.538L439.004 284.815ZM439.408 284.346C439.342 284.346 439.272 284.328 439.209 284.291C439.148 284.254 439.11 284.208 439.09 284.173C439.054 284.114 439.069 284.091 439.069 284.169H440.069C440.069 284.004 440.044 283.82 439.947 283.659C439.837 283.475 439.643 283.346 439.408 283.346V284.346ZM439.069 284.169C439.069 284.294 439.068 284.411 439.047 284.521C439.027 284.631 438.995 284.682 438.973 284.704L439.681 285.411C439.901 285.19 439.99 284.918 440.03 284.705C440.07 284.492 440.069 284.286 440.069 284.169H439.069ZM438.927 284.758C438.845 284.866 438.755 284.941 438.675 284.987C438.592 285.035 438.536 285.042 438.52 285.042V286.042C438.959 286.042 439.417 285.771 439.727 285.357L438.927 284.758ZM438.52 285.042C438.458 285.042 438.41 285.042 438.368 285.041C438.325 285.04 438.305 285.038 438.299 285.037C438.282 285.034 438.335 285.038 438.404 285.079C438.444 285.103 438.501 285.147 438.547 285.221C438.596 285.298 438.617 285.383 438.617 285.461H437.617C437.617 285.692 437.753 285.855 437.889 285.936C437.995 286 438.104 286.019 438.157 286.027C438.272 286.043 438.416 286.042 438.52 286.042V285.042ZM438.617 285.461C438.617 285.61 438.551 285.713 438.51 285.763C438.471 285.81 438.434 285.836 438.423 285.844C438.401 285.859 438.39 285.862 438.418 285.849C438.45 285.835 438.564 285.786 438.664 285.737C438.882 285.627 439.191 285.437 439.421 285.092L438.588 284.538C438.495 284.677 438.36 284.77 438.216 284.842C438.134 284.884 438.087 284.901 438.003 284.94C437.973 284.953 437.916 284.979 437.862 285.016C437.834 285.035 437.784 285.071 437.737 285.129C437.688 285.189 437.617 285.302 437.617 285.461H438.617ZM439.395 285.127C439.636 284.825 439.714 284.48 439.756 284.282C439.768 284.224 439.774 284.192 439.783 284.153C439.786 284.136 439.789 284.124 439.792 284.114C439.794 284.105 439.795 284.101 439.795 284.101C439.795 284.102 439.794 284.104 439.793 284.107C439.792 284.111 439.789 284.117 439.785 284.124C439.779 284.138 439.764 284.165 439.738 284.195C439.675 284.269 439.56 284.346 439.408 284.346V283.346C439.215 283.346 439.067 283.441 438.977 283.546C438.902 283.634 438.866 283.729 438.849 283.779C438.816 283.876 438.791 284.009 438.777 284.076C438.738 284.262 438.695 284.401 438.614 284.503L439.395 285.127Z" fill="black" mask="url(#path-52-inside-4_1478_2)"/>
<mask id="path-54-inside-5_1478_2" fill="white">
<path d="M436.745 289.419C436.745 289.5 435.616 289.5 434.326 289.338C432.955 289.176 431.906 288.934 431.906 288.853C431.906 288.773 433.035 288.773 434.326 288.934C435.697 289.096 436.745 289.338 436.745 289.419Z"/>
</mask>
<path d="M436.745 289.419C436.745 289.5 435.616 289.5 434.326 289.338C432.955 289.176 431.906 288.934 431.906 288.853C431.906 288.773 433.035 288.773 434.326 288.934C435.697 289.096 436.745 289.338 436.745 289.419Z" fill="#353535"/>
<path d="M434.326 289.338L434.388 288.842L434.384 288.841L434.326 289.338ZM434.326 288.934L434.264 289.43L434.267 289.431L434.326 288.934ZM436.245 289.419C436.245 289.263 436.317 289.15 436.374 289.087C436.427 289.03 436.481 289 436.505 288.988C436.532 288.974 436.554 288.966 436.564 288.963C436.576 288.959 436.584 288.958 436.586 288.957C436.589 288.956 436.569 288.96 436.514 288.964C436.41 288.971 436.246 288.974 436.031 288.969C435.605 288.96 435.017 288.921 434.388 288.842L434.264 289.834C434.925 289.917 435.547 289.959 436.008 289.969C436.237 289.974 436.436 289.972 436.584 289.962C436.654 289.957 436.733 289.949 436.803 289.933C436.833 289.926 436.895 289.911 436.96 289.878C436.993 289.861 437.053 289.827 437.11 289.765C437.172 289.698 437.245 289.58 437.245 289.419H436.245ZM434.384 288.841C433.712 288.762 433.122 288.663 432.704 288.576C432.494 288.532 432.337 288.493 432.238 288.462C432.185 288.446 432.165 288.438 432.166 288.438C432.167 288.439 432.173 288.441 432.182 288.446C432.19 288.451 432.206 288.46 432.226 288.476C432.244 288.49 432.28 288.521 432.316 288.571C432.351 288.62 432.406 288.718 432.406 288.853H431.406C431.406 288.994 431.463 289.097 431.503 289.152C431.542 289.208 431.585 289.244 431.611 289.265C431.662 289.305 431.713 289.33 431.742 289.344C431.805 289.373 431.878 289.398 431.945 289.419C432.086 289.461 432.276 289.508 432.499 289.555C432.949 289.649 433.569 289.752 434.267 289.835L434.384 288.841ZM432.406 288.853C432.406 289.009 432.335 289.122 432.277 289.185C432.224 289.242 432.171 289.272 432.147 289.284C432.12 289.298 432.098 289.306 432.087 289.309C432.076 289.313 432.068 289.315 432.066 289.315C432.062 289.316 432.082 289.312 432.138 289.308C432.242 289.301 432.406 289.298 432.621 289.303C433.047 289.312 433.635 289.352 434.264 289.43L434.388 288.438C433.726 288.355 433.105 288.313 432.644 288.303C432.415 288.298 432.216 288.3 432.068 288.31C431.997 288.315 431.919 288.323 431.849 288.339C431.818 288.346 431.757 288.361 431.691 288.394C431.659 288.411 431.599 288.445 431.542 288.507C431.48 288.575 431.406 288.692 431.406 288.853H432.406ZM434.267 289.431C434.94 289.51 435.53 289.609 435.947 289.696C436.157 289.74 436.315 289.78 436.414 289.81C436.466 289.826 436.486 289.834 436.486 289.834C436.484 289.834 436.479 289.831 436.47 289.826C436.462 289.821 436.446 289.812 436.426 289.796C436.408 289.782 436.371 289.751 436.336 289.702C436.3 289.652 436.245 289.554 436.245 289.419H437.245C437.245 289.278 437.189 289.175 437.149 289.12C437.109 289.064 437.067 289.028 437.041 289.008C436.99 288.967 436.939 288.942 436.91 288.929C436.846 288.899 436.774 288.874 436.706 288.854C436.566 288.811 436.376 288.764 436.152 288.717C435.702 288.623 435.083 288.52 434.384 288.438L434.267 289.431Z" fill="black" mask="url(#path-54-inside-5_1478_2)"/>
<mask id="path-56-inside-6_1478_2" fill="white">
<path d="M440.216 287.48C440.297 287.48 440.378 287.642 440.378 287.884C440.378 288.127 440.297 288.45 440.055 288.773C439.571 289.338 439.087 289.5 439.006 289.419C438.926 289.338 439.329 288.934 439.732 288.45C440.136 287.965 440.136 287.48 440.216 287.48Z"/>
</mask>
<path d="M440.216 287.48C440.297 287.48 440.378 287.642 440.378 287.884C440.378 288.127 440.297 288.45 440.055 288.773C439.571 289.338 439.087 289.5 439.006 289.419C438.926 289.338 439.329 288.934 439.732 288.45C440.136 287.965 440.136 287.48 440.216 287.48Z" fill="#353535"/>
<path d="M440.055 288.773L440.435 289.098L440.445 289.086L440.455 289.073L440.055 288.773ZM440.216 287.98C440.061 287.98 439.961 287.902 439.922 287.863C439.882 287.823 439.868 287.79 439.868 287.788C439.865 287.782 439.878 287.813 439.878 287.884H440.878C440.878 287.713 440.85 287.542 440.787 287.395C440.756 287.322 440.707 287.234 440.629 287.156C440.552 287.079 440.412 286.98 440.216 286.98V287.98ZM439.878 287.884C439.878 288.019 439.832 288.237 439.655 288.473L440.455 289.073C440.762 288.663 440.878 288.235 440.878 287.884H439.878ZM439.675 288.448C439.47 288.687 439.277 288.827 439.146 288.896C439.114 288.913 439.088 288.924 439.069 288.932C439.049 288.939 439.039 288.941 439.04 288.941C439.041 288.941 439.046 288.94 439.056 288.939C439.065 288.938 439.082 288.938 439.105 288.94C439.139 288.944 439.255 288.96 439.36 289.066L438.653 289.772C438.778 289.898 438.927 289.927 439.005 289.935C439.091 289.944 439.171 289.934 439.233 289.922C439.358 289.898 439.488 289.846 439.613 289.781C439.866 289.647 440.156 289.424 440.435 289.098L439.675 288.448ZM439.36 289.066C439.521 289.227 439.499 289.419 439.488 289.476C439.475 289.534 439.455 289.564 439.462 289.551C439.473 289.534 439.505 289.488 439.574 289.403C439.639 289.324 439.72 289.231 439.815 289.122C439.908 289.015 440.012 288.895 440.117 288.77L439.348 288.13C439.251 288.246 439.154 288.359 439.06 288.466C438.968 288.572 438.878 288.676 438.802 288.768C438.73 288.855 438.651 288.956 438.596 289.052C438.57 289.096 438.529 289.175 438.508 289.272C438.488 289.368 438.471 289.591 438.653 289.772L439.36 289.066ZM440.117 288.77C440.372 288.462 440.498 288.157 440.57 287.941C440.587 287.888 440.602 287.84 440.613 287.802C440.626 287.761 440.632 287.739 440.638 287.722C440.646 287.698 440.64 287.723 440.618 287.759C440.61 287.772 440.49 287.98 440.216 287.98V286.98C439.923 286.98 439.785 287.204 439.76 287.245C439.721 287.31 439.699 287.377 439.689 287.406C439.677 287.442 439.665 287.484 439.655 287.516C439.644 287.552 439.633 287.588 439.621 287.625C439.572 287.773 439.496 287.952 439.348 288.13L440.117 288.77Z" fill="black" mask="url(#path-56-inside-6_1478_2)"/>
<path d="M518.447 325.927C520.624 325.766 522.721 324.393 523.85 322.535C524.012 322.293 524.092 322.05 523.931 321.808C523.85 321.646 523.609 321.646 523.447 321.646C521.673 321.646 519.979 321.97 518.285 322.535C518.124 322.616 517.882 322.697 517.801 322.858C517.721 323.02 517.801 323.181 517.801 323.262C518.043 324.15 518.205 324.958 518.447 325.847" fill="#E8505B"/>
<g opacity="0.4">
<path d="M518.447 325.927C520.624 325.766 522.721 324.393 523.85 322.535C524.012 322.293 524.092 322.05 523.931 321.808C523.85 321.646 523.609 321.646 523.447 321.646C521.673 321.646 519.979 321.97 518.285 322.535C518.124 322.616 517.882 322.697 517.801 322.858C517.721 323.02 517.801 323.181 517.801 323.262C518.043 324.15 518.205 324.958 518.447 325.847" fill="black"/>
</g>
<path d="M465.538 237.16C465.538 237.16 462.958 245.802 463.683 245.318C464.409 244.833 465.942 243.46 465.942 243.46L465.538 237.16Z" fill="#242424"/>
<path d="M465.702 241.198L464.331 244.591C464.169 244.914 464.089 245.318 464.089 245.641C464.008 246.61 463.847 248.306 464.411 248.468C465.218 248.629 465.944 247.821 465.944 247.821L465.702 241.198Z" fill="#242424"/>
<path d="M509.413 241.683C509.413 241.683 495.622 236.271 487.959 241.037C480.297 245.802 478.926 253.395 474.41 253.395C465.538 253.395 465.861 247.095 465.861 247.095L464.005 247.66C464.005 248.952 461.989 258.16 471.264 259.291C480.62 260.422 484.572 247.66 492.96 247.66C501.348 247.66 507.72 252.183 507.72 252.183L513.769 248.387L509.413 241.683Z" fill="#242424"/>
<path d="M474.008 259.21C474.008 259.21 477.476 257.433 479.331 253.071C481.509 248.144 486.106 242.49 489.897 241.037C493.768 239.583 502.64 238.613 508.769 242.652L512.721 247.983L507.64 251.294C507.64 251.294 503.608 249.114 498.688 247.66C492.316 245.883 488.525 247.902 484.815 251.375C484.573 251.618 484.412 251.779 484.17 252.021C483.202 253.071 480.702 255.495 478.363 257.191C476.508 258.564 474.814 259.21 474.008 259.21Z" fill="#242424"/>
<path d="M188.497 184.012C180.351 185.305 174.302 178.358 172.447 172.3C170.672 166.646 169.866 160.75 167.365 155.419C163.897 147.908 154.703 144.434 146.476 145.161C138.25 145.808 129.942 149.927 122.684 153.804L124.7 199.036C124.7 199.036 140.589 182.074 148.17 181.831C160.913 181.347 160.187 202.266 172.527 205.336C172.527 205.336 189.868 210.02 201.562 194.916C208.983 185.305 209.628 173.593 209.628 173.593C209.628 173.593 203.982 181.67 188.497 184.012Z" fill="#FBC108"/>
<path d="M127.78 253.533L127.377 253.552L127.78 253.533C126.449 223.931 125.219 197.114 124.312 177.699C123.858 167.991 123.485 160.133 123.22 154.702C123.088 151.986 122.983 149.877 122.908 148.447C122.871 147.731 122.841 147.185 122.819 146.817C122.808 146.633 122.799 146.492 122.792 146.396C122.789 146.348 122.786 146.308 122.783 146.278C122.781 146.264 122.779 146.245 122.776 146.225C122.775 146.218 122.772 146.195 122.765 146.168C122.76 146.152 122.744 146.106 122.732 146.078C122.696 146.014 122.483 145.835 122.28 145.792C122.065 145.84 121.847 146.041 121.813 146.112C121.802 146.143 121.789 146.192 121.786 146.21C121.781 146.238 121.78 146.262 121.779 146.269L121.779 146.269C121.778 146.289 121.778 146.308 121.777 146.322C121.777 146.352 121.778 146.393 121.778 146.44C121.78 146.536 121.783 146.677 121.789 146.861C121.8 147.229 121.819 147.776 121.845 148.491C121.898 149.922 121.98 152.031 122.09 154.746C122.309 160.178 122.637 168.035 123.05 177.743C123.877 197.159 125.047 223.975 126.377 253.578C127.708 283.221 128.938 310.058 129.846 329.484C130.299 339.197 130.672 347.057 130.937 352.489C131.069 355.205 131.175 357.315 131.249 358.746C131.287 359.461 131.316 360.008 131.338 360.376C131.349 360.56 131.358 360.701 131.365 360.797C131.368 360.844 131.371 360.885 131.374 360.915C131.375 360.921 131.376 360.929 131.377 360.938C131.378 360.947 131.379 360.957 131.381 360.967C131.381 360.971 131.382 360.978 131.384 360.987C131.386 360.997 131.389 361.01 131.393 361.024C131.397 361.041 131.413 361.086 131.425 361.115C131.461 361.178 131.674 361.358 131.877 361.401C132.092 361.352 132.31 361.152 132.344 361.08C132.355 361.049 132.368 361 132.371 360.983C132.374 360.967 132.375 360.952 132.376 360.942C132.377 360.933 132.378 360.927 132.378 360.924C132.379 360.913 132.379 360.903 132.379 360.894C132.379 360.885 132.38 360.877 132.38 360.871C132.38 360.84 132.38 360.8 132.379 360.753C132.377 360.656 132.374 360.515 132.368 360.331C132.357 359.963 132.338 359.417 132.312 358.701C132.259 357.271 132.177 355.161 132.067 352.445C131.848 347.012 131.52 339.152 131.107 329.439C130.28 310.013 129.11 283.177 127.78 253.533Z" fill="#263238" stroke="black"/>
<g opacity="0.2">
<path d="M165.992 169.15C167.121 173.35 169.622 179.004 172.041 182.72C174.38 186.435 177.929 189.505 182.284 190.393C183.091 190.555 183.897 190.635 184.542 190.959C185.268 191.282 185.914 191.928 185.914 192.736C185.914 193.947 184.704 194.674 183.655 195.239C182.123 195.966 180.59 196.774 178.977 197.016C177.284 197.339 175.993 197.501 174.864 196.289C173.896 195.239 172.606 193.947 171.88 192.736C168.17 186.355 166.315 177.227 165.992 170.039" fill="black"/>
</g>
<path d="M177.043 198.228C177.043 198.228 176.882 198.147 176.64 197.986C176.398 197.824 176.075 197.582 175.672 197.259C174.866 196.613 173.736 195.482 172.688 193.947C171.559 192.412 170.51 190.393 169.704 188.051C168.817 185.708 168.091 183.043 167.445 180.297C166.155 174.724 165.59 169.554 165.348 165.758C165.268 163.9 165.187 162.366 165.268 161.316C165.268 160.831 165.268 160.427 165.268 160.104C165.268 159.862 165.268 159.7 165.268 159.7C165.268 159.7 165.268 159.862 165.348 160.104C165.348 160.427 165.348 160.831 165.429 161.316C165.51 162.366 165.51 163.9 165.671 165.758C165.913 169.473 166.558 174.643 167.849 180.216C168.494 182.962 169.22 185.628 170.026 187.97C170.833 190.312 171.881 192.251 172.93 193.786C173.978 195.32 175.027 196.451 175.833 197.097C176.559 197.824 177.043 198.228 177.043 198.228Z" fill="#263238"/>
<path d="M73 370.513L181.075 388.202V370.513H73Z" fill="#E0E0E0"/>
<path d="M198.898 410.494L306.974 428.264V410.494H198.898Z" fill="#C2C5C7"/>
<path d="M323.914 448.78L431.989 466.549V448.78H323.914Z" fill="#C2C5C7"/>
<path d="M448.762 479.23L556.837 497V479.23H448.762Z" fill="#C2C5C7"/>
<path d="M181.075 357.266H73V370.513H181.075V357.266Z" fill="#FBC108"/>
<g opacity="0.3">
<path d="M181.076 357.266H147.363V370.513H181.076V357.266Z" fill="black"/>
</g>
<path d="M306.974 397.248H198.898V410.495H306.974V397.248Z" fill="#FBC108"/>
<g opacity="0.3">
<path d="M306.975 397.248H273.262V410.495H306.975V397.248Z" fill="black"/>
</g>
<path d="M431.989 435.533H323.914V448.78H431.989V435.533Z" fill="#FBC108"/>
<g opacity="0.3">
<path d="M431.99 435.533H398.277V448.78H431.99V435.533Z" fill="black"/>
</g>
<path d="M557.001 465.984H448.926V479.23H557.001V465.984Z" fill="#FFD44B"/>
<g opacity="0.3">
<path d="M557.002 465.984H523.289V479.23H557.002V465.984Z" fill="black"/>
</g>
</g>
<defs>
<clipPath id="clip0_1478_2">
<rect width="484" height="352" fill="white" transform="translate(73 145)"/>
</clipPath>
</defs>
</svg>
