<svg width="453" height="341" viewBox="0 0 453 341" fill="none" xmlns="http://www.w3.org/2000/svg">
<rect x="0.417969" y="0.109375" width="452.579" height="340.348" rx="29" fill="white"/>
<rect x="1.4375" y="79.9541" width="451.057" height="51.2006" stroke="black"/>
<rect x="0.917969" y="132.154" width="451.579" height="51.2006" stroke="black"/>
<rect x="0.917969" y="184.355" width="451.579" height="51.2006" stroke="black"/>
<rect x="0.917969" y="236.556" width="451.579" height="51.2006" stroke="black"/>
<path d="M0.917969 288.756H452.497V314.456C452.497 328.54 441.08 339.956 426.997 339.956H26.418C12.3347 339.956 0.917969 328.54 0.917969 314.456V288.756Z" stroke="black"/>
<path d="M27.4609 1.65332H426.996C441.079 1.65332 452.496 13.0701 452.496 27.1533V78.9542H1.96094V27.1533C1.96094 13.0701 13.3777 1.65332 27.4609 1.65332Z" fill="#EFEFEF" stroke="black"/>
<path d="M57.6339 27.368H62.7539V29H55.8579V18.6H57.6339V27.368ZM67.3906 21.512C69.5506 21.512 70.9266 23.128 70.9266 25.32V25.8H65.3906C65.5666 26.952 66.3826 27.672 67.4706 27.672C68.4946 27.672 69.0866 27.208 69.3906 26.776L70.5746 27.64C69.9346 28.568 68.8146 29.144 67.4706 29.144C65.2306 29.144 63.7266 27.512 63.7266 25.32C63.7266 23.128 65.1666 21.512 67.3906 21.512ZM67.3906 22.872C66.3026 22.872 65.5986 23.592 65.4066 24.696H69.3266C69.1346 23.656 68.4786 22.872 67.3906 22.872ZM74.3643 29L71.4683 21.64H73.2443L75.1963 26.664L77.1803 21.64H78.9723L76.0443 29H74.3643ZM83.2499 21.512C85.4099 21.512 86.7859 23.128 86.7859 25.32V25.8H81.2499C81.4259 26.952 82.2419 27.672 83.3299 27.672C84.3539 27.672 84.9459 27.208 85.2499 26.776L86.4339 27.64C85.7939 28.568 84.6739 29.144 83.3299 29.144C81.0899 29.144 79.5859 27.512 79.5859 25.32C79.5859 23.128 81.0259 21.512 83.2499 21.512ZM83.2499 22.872C82.1619 22.872 81.4579 23.592 81.2659 24.696H85.1859C84.9939 23.656 84.3379 22.872 83.2499 22.872ZM90.0856 29H88.3736V18.6H90.1016L90.0856 29ZM91.5041 27.464L92.7041 26.68C92.8961 27.176 93.7761 27.832 94.7681 27.832C95.6161 27.832 96.0481 27.544 96.0481 26.952C96.0481 26.248 94.9761 26.072 94.3681 25.88C93.7601 25.688 91.8241 25.256 91.8241 23.672C91.8241 22.168 93.1361 21.48 94.7201 21.48C96.2881 21.48 97.3281 22.2 97.6961 23L96.5601 23.72C96.3361 23.304 95.5201 22.808 94.6561 22.808C93.8881 22.808 93.4881 23.128 93.4881 23.592C93.4881 24.28 94.5121 24.44 95.1201 24.632C95.7281 24.824 97.7281 25.304 97.7281 26.888C97.7281 28.408 96.6081 29.208 94.7521 29.208C92.9921 29.208 91.8721 28.376 91.5041 27.464Z" fill="black"/>
<path d="M54.0876 43.048H53.0196L52.4796 42.376C51.9276 42.844 51.2196 43.12 50.4996 43.12C48.8196 43.12 47.8716 42.208 47.8716 40.96C47.8716 40.072 48.3276 39.412 49.5396 38.608C49.4676 38.524 49.4196 38.452 49.3836 38.416C48.8556 37.768 48.5676 37.276 48.5676 36.7C48.5676 35.848 49.2876 35.08 50.4516 35.08C51.6036 35.08 52.3116 35.872 52.3116 36.712C52.3116 37.828 51.3876 38.44 50.7396 38.836C51.2196 39.448 51.8676 40.264 52.4916 41.044C52.7076 40.66 52.8396 40.18 52.8396 39.628V39.472H53.6916V39.628C53.6916 40.444 53.4516 41.176 53.0436 41.74C53.4756 42.28 53.8476 42.76 54.0876 43.048ZM50.4516 35.848C49.8996 35.848 49.4556 36.232 49.4556 36.772C49.4556 37.18 49.6956 37.492 50.0556 37.972L50.2236 38.188C50.7996 37.84 51.4356 37.396 51.4356 36.772C51.4356 36.22 50.9916 35.848 50.4516 35.848ZM50.5116 42.256C51.0156 42.256 51.5316 42.064 51.9516 41.704L50.0556 39.28C49.0116 40.024 48.9036 40.528 48.9036 40.96C48.9036 41.668 49.4436 42.256 50.5116 42.256ZM64.0103 43H62.7023L60.7463 40.084H59.0543V43H57.9263V35.2H61.5743C62.7503 35.2 63.8543 36.124 63.8543 37.636C63.8543 38.956 63.0143 39.832 62.0303 40.036L64.0103 43ZM59.0543 36.292V38.992H61.4063C62.1623 38.992 62.7383 38.416 62.7383 37.636C62.7383 36.868 62.1623 36.292 61.4063 36.292H59.0543ZM67.3494 37.384C68.9574 37.384 70.0014 38.596 70.0014 40.24V40.552H65.6574C65.7654 41.536 66.4614 42.172 67.4214 42.172C68.2134 42.172 68.7174 41.812 68.9814 41.428L69.7374 41.968C69.2574 42.664 68.4294 43.108 67.4214 43.108C65.7414 43.108 64.6134 41.884 64.6134 40.24C64.6134 38.596 65.6934 37.384 67.3494 37.384ZM67.3494 38.248C66.4014 38.248 65.7894 38.884 65.6574 39.844H68.9934C68.8614 38.92 68.2734 38.248 67.3494 38.248ZM75.6542 37.48H76.7342V45.208H75.6542V42.16C75.2462 42.736 74.6102 43.096 73.7582 43.096C72.1982 43.096 71.0822 41.908 71.0822 40.252C71.0822 38.608 72.1982 37.396 73.7582 37.396C74.6102 37.396 75.2462 37.756 75.6542 38.344V37.48ZM73.9022 42.076C74.9582 42.076 75.6542 41.308 75.6542 40.252C75.6542 39.184 74.9582 38.416 73.9022 38.416C72.8342 38.416 72.1382 39.184 72.1382 40.252C72.1382 41.308 72.8342 42.076 73.9022 42.076ZM82.0643 37.48H83.1443V43H82.0643V42.34C81.6443 42.88 80.9963 43.096 80.3603 43.096C79.2923 43.096 78.1763 42.472 78.1763 40.876V37.48H79.2563V40.72C79.2563 41.74 79.9763 42.16 80.6723 42.16C81.3563 42.16 82.0643 41.74 82.0643 40.72V37.48ZM85.2224 36.424C84.9104 36.424 84.5864 36.172 84.5864 35.788C84.5864 35.392 84.9104 35.176 85.2224 35.176C85.5344 35.176 85.8464 35.392 85.8464 35.788C85.8464 36.172 85.5344 36.424 85.2224 36.424ZM85.7624 43H84.6824V37.48H85.7624V43ZM88.3617 38.5C88.7937 37.744 89.5377 37.408 90.3057 37.396V38.416C89.5617 38.428 88.3617 38.752 88.3617 40.168V43H87.2817V37.48H88.3617V38.5ZM93.576 37.384C95.184 37.384 96.228 38.596 96.228 40.24V40.552H91.884C91.992 41.536 92.688 42.172 93.648 42.172C94.44 42.172 94.944 41.812 95.208 41.428L95.964 41.968C95.484 42.664 94.656 43.108 93.648 43.108C91.968 43.108 90.84 41.884 90.84 40.24C90.84 38.596 91.92 37.384 93.576 37.384ZM93.576 38.248C92.628 38.248 92.016 38.884 91.884 39.844H95.22C95.088 38.92 94.5 38.248 93.576 38.248ZM101.881 35.2H102.961V43H101.881V42.148C101.473 42.736 100.837 43.096 99.9848 43.096C98.4248 43.096 97.3088 41.884 97.3088 40.24C97.3088 38.572 98.4248 37.396 99.9848 37.396C100.837 37.396 101.473 37.756 101.881 38.332V35.2ZM100.129 42.076C101.185 42.076 101.881 41.296 101.881 40.24C101.881 39.172 101.185 38.416 100.129 38.416C99.0608 38.416 98.3648 39.172 98.3648 40.24C98.3648 41.296 99.0608 42.076 100.129 42.076ZM48.8581 57H47.5261L44.3941 53.52V57H43.2661V49.2H44.3941V52.656L47.3941 49.2H48.7021L45.3541 53.1L48.8581 57ZM53.6698 51.48H54.7498V57H53.6698V56.148C53.2618 56.736 52.6258 57.096 51.7738 57.096C50.2138 57.096 49.0978 55.884 49.0978 54.24C49.0978 52.572 50.2138 51.396 51.7738 51.396C52.6258 51.396 53.2618 51.756 53.6698 52.332V51.48ZM51.9178 56.076C52.9738 56.076 53.6698 55.296 53.6698 54.24C53.6698 53.172 52.9738 52.416 51.9178 52.416C50.8498 52.416 50.1538 53.172 50.1538 54.24C50.1538 55.296 50.8498 56.076 51.9178 56.076ZM57.2719 52.5C57.7039 51.744 58.4479 51.408 59.2159 51.396V52.416C58.4719 52.428 57.2719 52.752 57.2719 54.168V57H56.1919V51.48H57.2719V52.5ZM66.6054 51.396C67.6134 51.396 68.6574 51.948 68.6574 53.604V57H67.5774V53.748C67.5774 52.692 66.8814 52.344 66.2934 52.344C65.6934 52.344 65.0214 52.692 65.0214 53.748V57H63.9414V53.748C63.9414 52.692 63.2454 52.344 62.6454 52.344C62.0574 52.344 61.3734 52.692 61.3734 53.748V57H60.2934V51.48H61.3734V52.14C61.7694 51.624 62.3694 51.396 62.9574 51.396C63.6534 51.396 64.3734 51.66 64.7454 52.368C65.1654 51.648 65.9214 51.396 66.6054 51.396ZM74.494 51.48H75.574V57H74.494V56.148C74.086 56.736 73.45 57.096 72.598 57.096C71.038 57.096 69.922 55.884 69.922 54.24C69.922 52.572 71.038 51.396 72.598 51.396C73.45 51.396 74.086 51.756 74.494 52.332V51.48ZM72.742 56.076C73.798 56.076 74.494 55.296 74.494 54.24C74.494 53.172 73.798 52.416 72.742 52.416C71.674 52.416 70.978 53.172 70.978 54.24C70.978 55.296 71.674 56.076 72.742 56.076ZM82.3944 51.396C83.9544 51.396 85.0704 52.608 85.0704 54.252C85.0704 55.908 83.9544 57.096 82.3944 57.096C81.5424 57.096 80.9064 56.736 80.4984 56.16V59.208H79.4184V51.48H80.4984V52.344C80.9064 51.756 81.5424 51.396 82.3944 51.396ZM82.2504 56.076C83.3184 56.076 84.0144 55.308 84.0144 54.252C84.0144 53.184 83.3184 52.416 82.2504 52.416C81.1944 52.416 80.4984 53.184 80.4984 54.252C80.4984 55.308 81.1944 56.076 82.2504 56.076ZM88.9845 57.108C87.3165 57.108 86.1525 55.884 86.1525 54.24C86.1525 52.572 87.3165 51.372 88.9845 51.372C90.6405 51.372 91.7925 52.572 91.7925 54.24C91.7925 55.884 90.6405 57.108 88.9845 57.108ZM88.9845 56.076C90.0285 56.076 90.7245 55.284 90.7245 54.24C90.7245 53.184 90.0285 52.416 88.9845 52.416C87.9285 52.416 87.2325 53.184 87.2325 54.24C87.2325 55.284 87.9285 56.076 88.9845 56.076ZM93.6834 50.424C93.3714 50.424 93.0474 50.172 93.0474 49.788C93.0474 49.392 93.3714 49.176 93.6834 49.176C93.9954 49.176 94.3074 49.392 94.3074 49.788C94.3074 50.172 93.9954 50.424 93.6834 50.424ZM94.2234 57H93.1434V51.48H94.2234V57ZM98.5267 51.396C99.5947 51.396 100.711 52.008 100.711 53.604V57H99.6307V53.76C99.6307 52.74 98.9107 52.32 98.2147 52.32C97.5307 52.32 96.8227 52.74 96.8227 53.76V57H95.7427V51.48H96.8227V52.152C97.2427 51.612 97.8907 51.396 98.5267 51.396ZM104.854 52.308H103.57V55.428C103.57 56.028 103.954 56.136 104.338 56.136H104.794V57H103.918C102.994 57 102.49 56.484 102.49 55.584V52.308H101.734V51.48H102.49V49.788H103.57V51.48H104.854V52.308ZM105.697 55.848L106.453 55.368C106.621 55.812 107.293 56.268 108.097 56.268C108.841 56.268 109.225 56.016 109.225 55.476C109.225 54.864 108.325 54.72 107.833 54.576C107.353 54.432 105.925 54.132 105.925 52.968C105.925 51.888 106.861 51.36 108.049 51.36C109.189 51.36 109.969 51.876 110.233 52.488L109.501 52.932C109.333 52.572 108.721 52.212 108.013 52.212C107.329 52.212 106.969 52.488 106.969 52.92C106.969 53.496 107.809 53.628 108.301 53.772C108.781 53.916 110.269 54.252 110.269 55.44C110.269 56.556 109.465 57.156 108.085 57.156C106.801 57.156 105.973 56.568 105.697 55.848Z" fill="#918E8E"/>
<path d="M64.862 106.164H70.622V108H62.864V96.3H64.862V106.164ZM80.1502 98.136H74.3542V101.232H79.7722V103.068H74.3542V106.164H80.1502V108H72.3562V96.3H80.1502V98.136ZM93.1176 102.42C92.9916 105.75 90.8856 108.144 87.5016 108.144C84.0276 108.144 81.6156 105.624 81.6156 102.15C81.6156 98.676 84.0276 96.156 87.5016 96.156C89.5716 96.156 91.2276 97.056 92.2356 98.496L90.5976 99.684C89.8596 98.658 88.7076 98.154 87.5016 98.154C85.1796 98.154 83.6136 99.846 83.6136 102.15C83.6136 104.454 85.1796 106.146 87.5016 106.146C89.1576 106.146 90.5616 105.138 90.8316 103.374H87.3756V101.538H93.1176V102.42ZM102.808 98.136H97.0124V101.232H102.43V103.068H97.0124V106.164H102.808V108H95.0144V96.3H102.808V98.136ZM112.131 96.3H114.129V108H112.185L106.803 99.774V108H104.805V96.3H106.749L112.131 104.526V96.3ZM120.408 96.3C123.846 96.3 126.168 98.676 126.168 102.15C126.168 105.624 123.846 108 120.408 108H116.214V96.3H120.408ZM120.408 106.056C121.92 106.056 124.188 105.12 124.17 102.15C124.152 99.198 121.92 98.244 120.408 98.244H118.212V106.056H120.408Z" fill="black"/>
<path d="M68.6161 126L67.9321 124.284H64.4521L63.7681 126H62.5681L65.7601 118.2H66.6241L69.8161 126H68.6161ZM64.8721 123.252H67.5121L66.1921 119.94L64.8721 123.252ZM73.7557 120.396C75.3157 120.396 76.4317 121.572 76.4317 123.24C76.4317 124.884 75.3157 126.096 73.7557 126.096C72.9037 126.096 72.2677 125.736 71.8597 125.148V126H70.7797V118.2H71.8597V121.332C72.2677 120.756 72.9037 120.396 73.7557 120.396ZM73.6117 125.076C74.6797 125.076 75.3757 124.296 75.3757 123.24C75.3757 122.172 74.6797 121.416 73.6117 121.416C72.5557 121.416 71.8597 122.172 71.8597 123.24C71.8597 124.296 72.5557 125.076 73.6117 125.076ZM80.3458 126.108C78.6777 126.108 77.5138 124.884 77.5138 123.24C77.5138 121.572 78.6777 120.372 80.3458 120.372C82.0018 120.372 83.1537 121.572 83.1537 123.24C83.1537 124.884 82.0018 126.108 80.3458 126.108ZM80.3458 125.076C81.3898 125.076 82.0858 124.284 82.0858 123.24C82.0858 122.184 81.3898 121.416 80.3458 121.416C79.2898 121.416 78.5938 122.184 78.5938 123.24C78.5938 124.284 79.2898 125.076 80.3458 125.076ZM85.7959 126L83.6239 120.48H84.7519L86.3359 124.536L87.9319 120.48H89.0599L86.8639 126H85.7959ZM92.3435 120.384C93.9515 120.384 94.9955 121.596 94.9955 123.24V123.552H90.6515C90.7595 124.536 91.4555 125.172 92.4155 125.172C93.2075 125.172 93.7115 124.812 93.9755 124.428L94.7315 124.968C94.2515 125.664 93.4235 126.108 92.4155 126.108C90.7355 126.108 89.6075 124.884 89.6075 123.24C89.6075 121.596 90.6875 120.384 92.3435 120.384ZM92.3435 121.248C91.3955 121.248 90.7835 121.884 90.6515 122.844H93.9875C93.8555 121.92 93.2675 121.248 92.3435 121.248ZM101.119 118.2V126H99.9906V119.232H98.2386V118.2H101.119ZM105.681 126.096C103.677 126.096 102.441 124.416 102.441 122.1C102.441 119.784 103.677 118.104 105.681 118.104C107.673 118.104 108.933 119.784 108.933 122.1C108.933 124.416 107.673 126.096 105.681 126.096ZM105.681 125.004C106.929 125.004 107.781 123.9 107.781 122.1C107.781 120.3 106.929 119.22 105.681 119.22C104.433 119.22 103.569 120.3 103.569 122.1C103.569 123.9 104.433 125.004 105.681 125.004ZM113.251 126.096C111.247 126.096 110.011 124.416 110.011 122.1C110.011 119.784 111.247 118.104 113.251 118.104C115.243 118.104 116.503 119.784 116.503 122.1C116.503 124.416 115.243 126.096 113.251 126.096ZM113.251 125.004C114.499 125.004 115.351 123.9 115.351 122.1C115.351 120.3 114.499 119.22 113.251 119.22C112.003 119.22 111.139 120.3 111.139 122.1C111.139 123.9 112.003 125.004 113.251 125.004ZM120.822 126.096C118.818 126.096 117.582 124.416 117.582 122.1C117.582 119.784 118.818 118.104 120.822 118.104C122.814 118.104 124.074 119.784 124.074 122.1C124.074 124.416 122.814 126.096 120.822 126.096ZM120.822 125.004C122.07 125.004 122.922 123.9 122.922 122.1C122.922 120.3 122.07 119.22 120.822 119.22C119.574 119.22 118.71 120.3 118.71 122.1C118.71 123.9 119.574 125.004 120.822 125.004Z" fill="#3F3C3C" fill-opacity="0.5"/>
<path d="M64.2965 178L67.4165 171.232H63.8645V170.2H68.7125V170.98L65.4725 178H64.2965ZM71.7422 172.984C73.7582 172.984 74.7062 174.124 74.7062 175.516C74.7062 177.136 73.5062 178.096 71.8262 178.096C70.6502 178.096 69.7142 177.604 69.1862 176.968L69.9422 176.188C70.4342 176.776 71.1302 177.016 71.7542 177.004C72.8102 177.004 73.5902 176.428 73.5902 175.456C73.5902 174.496 72.7622 173.92 71.7182 173.92C71.1662 173.92 70.5782 174.028 70.1942 174.244L69.8342 173.44L70.3862 170.2H74.3822V171.232H71.2742L70.9742 173.056C71.2382 173.008 71.5142 172.984 71.7422 172.984ZM79.0852 178.096C77.0812 178.096 75.8452 176.416 75.8452 174.1C75.8452 171.784 77.0812 170.104 79.0852 170.104C81.0772 170.104 82.3372 171.784 82.3372 174.1C82.3372 176.416 81.0772 178.096 79.0852 178.096ZM79.0852 177.004C80.3332 177.004 81.1852 175.9 81.1852 174.1C81.1852 172.3 80.3332 171.22 79.0852 171.22C77.8372 171.22 76.9732 172.3 76.9732 174.1C76.9732 175.9 77.8372 177.004 79.0852 177.004ZM83.5355 174.028H86.9795V175.06H83.5355V174.028ZM90.8823 170.2V178H89.7543V171.232H88.0023V170.2H90.8823ZM95.4446 178.096C93.4406 178.096 92.2046 176.416 92.2046 174.1C92.2046 171.784 93.4406 170.104 95.4446 170.104C97.4366 170.104 98.6966 171.784 98.6966 174.1C98.6966 176.416 97.4366 178.096 95.4446 178.096ZM95.4446 177.004C96.6926 177.004 97.5446 175.9 97.5446 174.1C97.5446 172.3 96.6926 171.22 95.4446 171.22C94.1966 171.22 93.3326 172.3 93.3326 174.1C93.3326 175.9 94.1966 177.004 95.4446 177.004ZM103.015 178.096C101.011 178.096 99.7749 176.416 99.7749 174.1C99.7749 171.784 101.011 170.104 103.015 170.104C105.007 170.104 106.267 171.784 106.267 174.1C106.267 176.416 105.007 178.096 103.015 178.096ZM103.015 177.004C104.263 177.004 105.115 175.9 105.115 174.1C105.115 172.3 104.263 171.22 103.015 171.22C101.767 171.22 100.903 172.3 100.903 174.1C100.903 175.9 101.767 177.004 103.015 177.004ZM110.585 178.096C108.581 178.096 107.345 176.416 107.345 174.1C107.345 171.784 108.581 170.104 110.585 170.104C112.577 170.104 113.837 171.784 113.837 174.1C113.837 176.416 112.577 178.096 110.585 178.096ZM110.585 177.004C111.833 177.004 112.685 175.9 112.685 174.1C112.685 172.3 111.833 171.22 110.585 171.22C109.337 171.22 108.473 172.3 108.473 174.1C108.473 175.9 109.337 177.004 110.585 177.004Z" fill="#3F3C3C" fill-opacity="0.5"/>
<path d="M65.9473 227.984C67.9633 227.984 68.9113 229.124 68.9113 230.516C68.9113 232.136 67.7113 233.096 66.0312 233.096C64.8553 233.096 63.9193 232.604 63.3913 231.968L64.1473 231.188C64.6393 231.776 65.3353 232.016 65.9593 232.004C67.0153 232.004 67.7953 231.428 67.7953 230.456C67.7953 229.496 66.9673 228.92 65.9233 228.92C65.3713 228.92 64.7833 229.028 64.3993 229.244L64.0393 228.44L64.5913 225.2H68.5873V226.232H65.4793L65.1793 228.056C65.4433 228.008 65.7193 227.984 65.9473 227.984ZM73.2903 233.096C71.2863 233.096 70.0503 231.416 70.0503 229.1C70.0503 226.784 71.2863 225.104 73.2903 225.104C75.2823 225.104 76.5423 226.784 76.5423 229.1C76.5423 231.416 75.2823 233.096 73.2903 233.096ZM73.2903 232.004C74.5383 232.004 75.3903 230.9 75.3903 229.1C75.3903 227.3 74.5383 226.22 73.2903 226.22C72.0423 226.22 71.1783 227.3 71.1783 229.1C71.1783 230.9 72.0423 232.004 73.2903 232.004ZM80.8606 233.096C78.8566 233.096 77.6206 231.416 77.6206 229.1C77.6206 226.784 78.8566 225.104 80.8606 225.104C82.8526 225.104 84.1126 226.784 84.1126 229.1C84.1126 231.416 82.8526 233.096 80.8606 233.096ZM80.8606 232.004C82.1086 232.004 82.9606 230.9 82.9606 229.1C82.9606 227.3 82.1086 226.22 80.8606 226.22C79.6126 226.22 78.7486 227.3 78.7486 229.1C78.7486 230.9 79.6126 232.004 80.8606 232.004ZM85.3109 229.028H88.7549V230.06H85.3109V229.028ZM90.3297 233L93.4497 226.232H89.8977V225.2H94.7457V225.98L91.5057 233H90.3297ZM97.7754 227.984C99.7914 227.984 100.739 229.124 100.739 230.516C100.739 232.136 99.5394 233.096 97.8594 233.096C96.6834 233.096 95.7474 232.604 95.2194 231.968L95.9754 231.188C96.4674 231.776 97.1634 232.016 97.7874 232.004C98.8434 232.004 99.6234 231.428 99.6234 230.456C99.6234 229.496 98.7954 228.92 97.7514 228.92C97.1994 228.92 96.6114 229.028 96.2274 229.244L95.8674 228.44L96.4194 225.2H100.415V226.232H97.3074L97.0074 228.056C97.2714 228.008 97.5474 227.984 97.7754 227.984ZM105.118 233.096C103.114 233.096 101.878 231.416 101.878 229.1C101.878 226.784 103.114 225.104 105.118 225.104C107.11 225.104 108.37 226.784 108.37 229.1C108.37 231.416 107.11 233.096 105.118 233.096ZM105.118 232.004C106.366 232.004 107.218 230.9 107.218 229.1C107.218 227.3 106.366 226.22 105.118 226.22C103.87 226.22 103.006 227.3 103.006 229.1C103.006 230.9 103.87 232.004 105.118 232.004Z" fill="#3F3C3C" fill-opacity="0.5"/>
<path d="M62.9412 282.064L64.6572 280.552C65.6652 279.688 67.1412 278.452 67.1412 277.408C67.1412 276.652 66.5892 276.16 65.5932 276.16C64.7412 276.16 64.0812 276.664 63.9132 277.216L62.8932 276.76C63.1332 275.992 64.1052 275.092 65.5932 275.092C67.2492 275.092 68.3052 275.956 68.3052 277.348C68.3052 278.836 66.7212 280.156 65.9412 280.852L64.6812 281.968H68.2932V283H62.9412V282.064ZM71.707 277.984C73.723 277.984 74.671 279.124 74.671 280.516C74.671 282.136 73.471 283.096 71.791 283.096C70.615 283.096 69.679 282.604 69.151 281.968L69.907 281.188C70.399 281.776 71.095 282.016 71.719 282.004C72.775 282.004 73.555 281.428 73.555 280.456C73.555 279.496 72.727 278.92 71.683 278.92C71.131 278.92 70.543 279.028 70.159 279.244L69.799 278.44L70.351 275.2H74.347V276.232H71.239L70.939 278.056C71.203 278.008 71.479 277.984 71.707 277.984ZM79.0501 283.096C77.0461 283.096 75.8101 281.416 75.8101 279.1C75.8101 276.784 77.0461 275.104 79.0501 275.104C81.0421 275.104 82.3021 276.784 82.3021 279.1C82.3021 281.416 81.0421 283.096 79.0501 283.096ZM79.0501 282.004C80.2981 282.004 81.1501 280.9 81.1501 279.1C81.1501 277.3 80.2981 276.22 79.0501 276.22C77.8021 276.22 76.9381 277.3 76.9381 279.1C76.9381 280.9 77.8021 282.004 79.0501 282.004ZM83.5004 279.028H86.9444V280.06H83.5004V279.028ZM90.7031 277.984C92.7191 277.984 93.6671 279.124 93.6671 280.516C93.6671 282.136 92.4671 283.096 90.7871 283.096C89.6111 283.096 88.6751 282.604 88.1471 281.968L88.9031 281.188C89.3951 281.776 90.0911 282.016 90.7151 282.004C91.7711 282.004 92.5511 281.428 92.5511 280.456C92.5511 279.496 91.7231 278.92 90.6791 278.92C90.1271 278.92 89.5391 279.028 89.1551 279.244L88.7951 278.44L89.3471 275.2H93.3431V276.232H90.2351L89.9351 278.056C90.1991 278.008 90.4751 277.984 90.7031 277.984ZM98.0462 283.096C96.0422 283.096 94.8062 281.416 94.8062 279.1C94.8062 276.784 96.0422 275.104 98.0462 275.104C100.038 275.104 101.298 276.784 101.298 279.1C101.298 281.416 100.038 283.096 98.0462 283.096ZM98.0462 282.004C99.2942 282.004 100.146 280.9 100.146 279.1C100.146 277.3 99.2942 276.22 98.0462 276.22C96.7982 276.22 95.9342 277.3 95.9342 279.1C95.9342 280.9 96.7982 282.004 98.0462 282.004ZM105.616 283.096C103.612 283.096 102.376 281.416 102.376 279.1C102.376 276.784 103.612 275.104 105.616 275.104C107.608 275.104 108.868 276.784 108.868 279.1C108.868 281.416 107.608 283.096 105.616 283.096ZM105.616 282.004C106.864 282.004 107.716 280.9 107.716 279.1C107.716 277.3 106.864 276.22 105.616 276.22C104.368 276.22 103.504 277.3 103.504 279.1C103.504 280.9 104.368 282.004 105.616 282.004Z" fill="#3F3C3C" fill-opacity="0.5"/>
<path d="M66.8079 335.096C64.8039 335.096 63.5679 333.416 63.5679 331.1C63.5679 328.784 64.8039 327.104 66.8079 327.104C68.7999 327.104 70.0599 328.784 70.0599 331.1C70.0599 333.416 68.7999 335.096 66.8079 335.096ZM66.8079 334.004C68.0559 334.004 68.9079 332.9 68.9079 331.1C68.9079 329.3 68.0559 328.22 66.8079 328.22C65.5599 328.22 64.6959 329.3 64.6959 331.1C64.6959 332.9 65.5599 334.004 66.8079 334.004ZM71.2582 331.028H74.7022V332.06H71.2582V331.028ZM75.9529 334.064L77.6689 332.552C78.6769 331.688 80.1529 330.452 80.1529 329.408C80.1529 328.652 79.6009 328.16 78.6049 328.16C77.7529 328.16 77.0929 328.664 76.9249 329.216L75.9049 328.76C76.1449 327.992 77.1169 327.092 78.6049 327.092C80.2609 327.092 81.3169 327.956 81.3169 329.348C81.3169 330.836 79.7329 332.156 78.9529 332.852L77.6929 333.968H81.3049V335H75.9529V334.064ZM84.7187 329.984C86.7347 329.984 87.6827 331.124 87.6827 332.516C87.6827 334.136 86.4827 335.096 84.8027 335.096C83.6267 335.096 82.6907 334.604 82.1627 333.968L82.9187 333.188C83.4107 333.776 84.1067 334.016 84.7307 334.004C85.7867 334.004 86.5667 333.428 86.5667 332.456C86.5667 331.496 85.7387 330.92 84.6947 330.92C84.1427 330.92 83.5547 331.028 83.1707 331.244L82.8107 330.44L83.3627 327.2H87.3587V328.232H84.2507L83.9507 330.056C84.2147 330.008 84.4907 329.984 84.7187 329.984ZM92.0618 335.096C90.0578 335.096 88.8218 333.416 88.8218 331.1C88.8218 328.784 90.0578 327.104 92.0618 327.104C94.0538 327.104 95.3138 328.784 95.3138 331.1C95.3138 333.416 94.0538 335.096 92.0618 335.096ZM92.0618 334.004C93.3098 334.004 94.1618 332.9 94.1618 331.1C94.1618 329.3 93.3098 328.22 92.0618 328.22C90.8138 328.22 89.9498 329.3 89.9498 331.1C89.9498 332.9 90.8138 334.004 92.0618 334.004Z" fill="#3F3C3C" fill-opacity="0.5"/>
<path d="M247.04 104.256V105.472H244.528V107.968H243.312V105.472H240.8V104.256H243.312V101.744H244.528V104.256H247.04ZM252.044 103.312C254.732 103.312 255.996 104.832 255.996 106.688C255.996 108.848 254.396 110.128 252.156 110.128C250.588 110.128 249.34 109.472 248.636 108.624L249.644 107.584C250.3 108.368 251.228 108.688 252.06 108.672C253.468 108.672 254.508 107.904 254.508 106.608C254.508 105.328 253.404 104.56 252.012 104.56C251.276 104.56 250.492 104.704 249.98 104.992L249.5 103.92L250.236 99.6H255.564V100.976H251.42L251.02 103.408C251.372 103.344 251.74 103.312 252.044 103.312ZM261.835 110.128C259.163 110.128 257.515 107.888 257.515 104.8C257.515 101.712 259.163 99.472 261.835 99.472C264.491 99.472 266.171 101.712 266.171 104.8C266.171 107.888 264.491 110.128 261.835 110.128ZM261.835 108.672C263.499 108.672 264.635 107.2 264.635 104.8C264.635 102.4 263.499 100.96 261.835 100.96C260.171 100.96 259.019 102.4 259.019 104.8C259.019 107.2 260.171 108.672 261.835 108.672Z" fill="#008323"/>
<path d="M354.8 105.704H359.392V107.08H354.8V105.704ZM364.596 100.6V111H363.092V101.976H360.756V100.6H364.596ZM370.679 111.128C368.007 111.128 366.359 108.888 366.359 105.8C366.359 102.712 368.007 100.472 370.679 100.472C373.335 100.472 375.015 102.712 375.015 105.8C375.015 108.888 373.335 111.128 370.679 111.128ZM370.679 109.672C372.343 109.672 373.479 108.2 373.479 105.8C373.479 103.4 372.343 101.96 370.679 101.96C369.015 101.96 367.863 103.4 367.863 105.8C367.863 108.2 369.015 109.672 370.679 109.672ZM380.773 111.128C378.101 111.128 376.453 108.888 376.453 105.8C376.453 102.712 378.101 100.472 380.773 100.472C383.429 100.472 385.109 102.712 385.109 105.8C385.109 108.888 383.429 111.128 380.773 111.128ZM380.773 109.672C382.437 109.672 383.573 108.2 383.573 105.8C383.573 103.4 382.437 101.96 380.773 101.96C379.109 101.96 377.957 103.4 377.957 105.8C377.957 108.2 379.109 109.672 380.773 109.672Z" fill="#EB4747"/>
<path d="M247.04 156.256V157.472H244.528V159.968H243.312V157.472H240.8V156.256H243.312V153.744H244.528V156.256H247.04ZM256.748 158.784V159.904H255.516V162H254.028V159.904H248.636V158.912L254.028 151.6H255.516V158.784H256.748ZM250.14 158.784H254.028V153.552L250.14 158.784ZM262.351 162.128C259.679 162.128 258.031 159.888 258.031 156.8C258.031 153.712 259.679 151.472 262.351 151.472C265.007 151.472 266.687 153.712 266.687 156.8C266.687 159.888 265.007 162.128 262.351 162.128ZM262.351 160.672C264.015 160.672 265.151 159.2 265.151 156.8C265.151 154.4 264.015 152.96 262.351 152.96C260.687 152.96 259.535 154.4 259.535 156.8C259.535 159.2 260.687 160.672 262.351 160.672Z" fill="#008323"/>
<path d="M356.8 156.704H361.392V158.08H356.8V156.704ZM368.884 156.608C369.988 157.12 370.532 158.08 370.532 159.088C370.532 160.848 369.316 162.16 366.852 162.16C364.404 162.16 363.156 160.848 363.156 159.088C363.156 158.08 363.716 157.12 364.82 156.608C363.796 156.08 363.332 155.168 363.332 154.24C363.332 152.896 364.404 151.456 366.852 151.456C369.316 151.456 370.356 152.896 370.356 154.24C370.356 155.168 369.908 156.08 368.884 156.608ZM366.852 152.592C365.364 152.592 364.724 153.472 364.724 154.32C364.724 155.264 365.364 156.064 366.852 156.064C368.356 156.064 368.964 155.264 368.964 154.32C368.964 153.472 368.356 152.592 366.852 152.592ZM366.852 160.896C368.356 160.896 369.092 160.096 369.092 159.008C369.092 158 368.356 157.136 366.852 157.136C365.364 157.136 364.596 158 364.596 159.008C364.596 160.064 365.364 160.896 366.852 160.896ZM376.366 162.128C373.694 162.128 372.046 159.888 372.046 156.8C372.046 153.712 373.694 151.472 376.366 151.472C379.022 151.472 380.702 153.712 380.702 156.8C380.702 159.888 379.022 162.128 376.366 162.128ZM376.366 160.672C378.03 160.672 379.166 159.2 379.166 156.8C379.166 154.4 378.03 152.96 376.366 152.96C374.702 152.96 373.55 154.4 373.55 156.8C373.55 159.2 374.702 160.672 376.366 160.672Z" fill="#EB4747"/>
<path d="M247.04 213.256V214.472H244.528V216.968H243.312V214.472H240.8V213.256H243.312V210.744H244.528V213.256H247.04ZM252.908 212.36C254.46 212.552 256.06 213.48 256.06 215.608C256.06 217.992 254.156 219.128 252.156 219.128C250.684 219.128 249.276 218.488 248.636 217.56L249.612 216.584C250.076 217.176 251.036 217.672 252.156 217.672C253.516 217.672 254.556 216.888 254.556 215.608C254.556 214.28 253.516 213.512 252.156 213.512C251.564 213.512 250.956 213.608 250.316 213.832L250.332 212.712L253.692 209.976H249.372V208.6H255.82V209.88L252.908 212.36ZM261.898 219.128C259.226 219.128 257.578 216.888 257.578 213.8C257.578 210.712 259.226 208.472 261.898 208.472C264.554 208.472 266.234 210.712 266.234 213.8C266.234 216.888 264.554 219.128 261.898 219.128ZM261.898 217.672C263.562 217.672 264.698 216.2 264.698 213.8C264.698 211.4 263.562 209.96 261.898 209.96C260.234 209.96 259.082 211.4 259.082 213.8C259.082 216.2 260.234 217.672 261.898 217.672Z" fill="#008323"/>
<path d="M356.8 212.704H361.392V214.08H356.8V212.704ZM366.82 210.688C368.9 210.688 370.452 212.272 370.452 214.4C370.452 216.512 368.9 218.128 366.82 218.128C364.724 218.128 363.156 216.512 363.156 214.4C363.156 213.504 363.508 212.72 363.94 212.064L366.884 207.6H368.516L366.468 210.704C366.58 210.688 366.692 210.688 366.82 210.688ZM366.82 216.704C368.1 216.704 369.044 215.76 369.044 214.4C369.044 213.04 368.1 212.096 366.82 212.096C365.524 212.096 364.58 213.04 364.58 214.4C364.58 215.76 365.524 216.704 366.82 216.704ZM376.288 218.128C373.616 218.128 371.968 215.888 371.968 212.8C371.968 209.712 373.616 207.472 376.288 207.472C378.944 207.472 380.624 209.712 380.624 212.8C380.624 215.888 378.944 218.128 376.288 218.128ZM376.288 216.672C377.952 216.672 379.088 215.2 379.088 212.8C379.088 210.4 377.952 208.96 376.288 208.96C374.624 208.96 373.472 210.4 373.472 212.8C373.472 215.2 374.624 216.672 376.288 216.672Z" fill="#EB4747"/>
<path d="M247.04 263.256V264.472H244.528V266.968H243.312V264.472H240.8V263.256H243.312V260.744H244.528V263.256H247.04ZM248.7 267.752L250.988 265.736C252.332 264.584 254.3 262.936 254.3 261.544C254.3 260.536 253.564 259.88 252.236 259.88C251.1 259.88 250.22 260.552 249.996 261.288L248.636 260.68C248.956 259.656 250.252 258.456 252.236 258.456C254.444 258.456 255.852 259.608 255.852 261.464C255.852 263.448 253.74 265.208 252.7 266.136L251.02 267.624H255.836V269H248.7V267.752ZM261.46 269.128C258.788 269.128 257.14 266.888 257.14 263.8C257.14 260.712 258.788 258.472 261.46 258.472C264.116 258.472 265.796 260.712 265.796 263.8C265.796 266.888 264.116 269.128 261.46 269.128ZM261.46 267.672C263.124 267.672 264.26 266.2 264.26 263.8C264.26 261.4 263.124 259.96 261.46 259.96C259.796 259.96 258.644 261.4 258.644 263.8C258.644 266.2 259.796 267.672 261.46 267.672Z" fill="#008323"/>
<path d="M355.8 263.704H360.392V265.08H355.8V263.704ZM370.108 265.784V266.904H368.876V269H367.388V266.904H361.996V265.912L367.388 258.6H368.876V265.784H370.108ZM363.5 265.784H367.388V260.552L363.5 265.784ZM375.71 269.128C373.038 269.128 371.39 266.888 371.39 263.8C371.39 260.712 373.038 258.472 375.71 258.472C378.366 258.472 380.046 260.712 380.046 263.8C380.046 266.888 378.366 269.128 375.71 269.128ZM375.71 267.672C377.374 267.672 378.51 266.2 378.51 263.8C378.51 261.4 377.374 259.96 375.71 259.96C374.046 259.96 372.894 261.4 372.894 263.8C372.894 266.2 374.046 267.672 375.71 267.672Z" fill="#EB4747"/>
<path d="M247.04 317.256V318.472H244.528V320.968H243.312V318.472H240.8V317.256H243.312V314.744H244.528V317.256H247.04ZM252.236 312.6V323H250.732V313.976H248.396V312.6H252.236ZM258.319 323.128C255.647 323.128 253.999 320.888 253.999 317.8C253.999 314.712 255.647 312.472 258.319 312.472C260.975 312.472 262.655 314.712 262.655 317.8C262.655 320.888 260.975 323.128 258.319 323.128ZM258.319 321.672C259.983 321.672 261.119 320.2 261.119 317.8C261.119 315.4 259.983 313.96 258.319 313.96C256.655 313.96 255.503 315.4 255.503 317.8C255.503 320.2 256.655 321.672 258.319 321.672Z" fill="#008323"/>
<path d="M359.8 314.704H364.392V316.08H359.8V314.704ZM366.06 318.752L368.348 316.736C369.692 315.584 371.66 313.936 371.66 312.544C371.66 311.536 370.924 310.88 369.596 310.88C368.46 310.88 367.58 311.552 367.356 312.288L365.996 311.68C366.316 310.656 367.612 309.456 369.596 309.456C371.804 309.456 373.212 310.608 373.212 312.464C373.212 314.448 371.1 316.208 370.06 317.136L368.38 318.624H373.196V320H366.06V318.752ZM378.819 320.128C376.147 320.128 374.499 317.888 374.499 314.8C374.499 311.712 376.147 309.472 378.819 309.472C381.475 309.472 383.155 311.712 383.155 314.8C383.155 317.888 381.475 320.128 378.819 320.128ZM378.819 318.672C380.483 318.672 381.619 317.2 381.619 314.8C381.619 312.4 380.483 310.96 378.819 310.96C377.155 310.96 376.003 312.4 376.003 314.8C376.003 317.2 377.155 318.672 378.819 318.672Z" fill="#EB4747"/>
<path d="M74.186 152.42C74.06 155.75 71.954 158.144 68.57 158.144C65.096 158.144 62.684 155.624 62.684 152.15C62.684 148.676 65.096 146.156 68.57 146.156C70.64 146.156 72.296 147.056 73.304 148.496L71.666 149.684C70.928 148.658 69.776 148.154 68.57 148.154C66.248 148.154 64.682 149.846 64.682 152.15C64.682 154.454 66.248 156.146 68.57 156.146C70.226 156.146 71.63 155.138 71.9 153.374H68.444V151.538H74.186V152.42ZM85.3348 158H83.0128L80.2948 153.806H78.0808V158H76.0828V146.3H81.6088C83.3728 146.3 85.1008 147.65 85.1008 150.062C85.1008 152.024 83.9308 153.302 82.5268 153.68L85.3348 158ZM78.0808 148.244V151.862H81.3028C82.3108 151.862 83.1028 151.124 83.1028 150.062C83.1028 148.982 82.3108 148.244 81.3028 148.244H78.0808ZM95.4571 158L94.5571 155.75H89.5531L88.6531 158H86.5291L91.2811 146.3H92.8111L97.5811 158H95.4571ZM90.2731 153.914H93.8371L92.0551 149.45L90.2731 153.914ZM106.26 146.3H108.258V158H106.314L100.932 149.774V158H98.9343V146.3H100.878L106.26 154.526V146.3ZM114.537 146.3C117.975 146.3 120.297 148.676 120.297 152.15C120.297 155.624 117.975 158 114.537 158H110.343V146.3H114.537ZM114.537 156.056C116.049 156.056 118.317 155.12 118.299 152.15C118.281 149.198 116.049 148.244 114.537 148.244H112.341V156.056H114.537ZM137.225 146.3V158H135.209V150.314L132.167 156.632H130.781L127.721 150.296V158H125.723V146.3H127.775L131.465 153.662L135.173 146.3H137.225ZM147.682 158L146.782 155.75H141.778L140.878 158H138.754L143.506 146.3H145.036L149.806 158H147.682ZM142.498 153.914H146.062L144.28 149.45L142.498 153.914ZM150.57 155.408L152.19 154.274C152.55 155.084 153.972 156.2 155.736 156.2C157.338 156.2 157.896 155.606 157.896 154.67C157.896 153.518 155.898 153.176 154.962 152.87C153.972 152.564 151.02 152.024 151.02 149.504C151.02 147.11 153.09 146.084 155.52 146.084C157.734 146.084 159.552 147.29 160.002 148.55L158.4 149.558C158.076 148.892 156.834 148.1 155.286 148.1C153.99 148.1 153.306 148.586 153.306 149.414C153.306 150.53 155.142 150.836 156.15 151.142C157.086 151.448 160.128 152.132 160.128 154.58C160.128 156.974 158.328 158.216 155.52 158.216C152.874 158.216 151.128 156.866 150.57 155.408ZM170.562 146.3V148.136H166.962V158H164.946V148.136H161.346V146.3H170.562ZM180.082 148.136H174.286V151.232H179.704V153.068H174.286V156.164H180.082V158H172.288V146.3H180.082V148.136ZM191.331 158H189.009L186.291 153.806H184.077V158H182.079V146.3H187.605C189.369 146.3 191.097 147.65 191.097 150.062C191.097 152.024 189.927 153.302 188.523 153.68L191.331 158ZM184.077 148.244V151.862H187.299C188.307 151.862 189.099 151.124 189.099 150.062C189.099 148.982 188.307 148.244 187.299 148.244H184.077Z" fill="black"/>
<path d="M74.366 200.3V212H72.35V204.314L69.308 210.632H67.922L64.862 204.296V212H62.864V200.3H64.916L68.606 207.662L72.314 200.3H74.366ZM84.8223 212L83.9223 209.75H78.9183L78.0183 212H75.8943L80.6463 200.3H82.1763L86.9463 212H84.8223ZM79.6383 207.914H83.2023L81.4203 203.45L79.6383 207.914ZM87.711 209.408L89.331 208.274C89.691 209.084 91.113 210.2 92.877 210.2C94.479 210.2 95.037 209.606 95.037 208.67C95.037 207.518 93.039 207.176 92.103 206.87C91.113 206.564 88.161 206.024 88.161 203.504C88.161 201.11 90.231 200.084 92.661 200.084C94.875 200.084 96.693 201.29 97.143 202.55L95.541 203.558C95.217 202.892 93.975 202.1 92.427 202.1C91.131 202.1 90.447 202.586 90.447 203.414C90.447 204.53 92.283 204.836 93.291 205.142C94.227 205.448 97.269 206.132 97.269 208.58C97.269 210.974 95.469 212.216 92.661 212.216C90.015 212.216 88.269 210.866 87.711 209.408ZM107.702 200.3V202.136H104.102V212H102.086V202.136H98.4864V200.3H107.702ZM117.222 202.136H111.426V205.232H116.844V207.068H111.426V210.164H117.222V212H109.428V200.3H117.222V202.136ZM128.471 212H126.149L123.431 207.806H121.217V212H119.219V200.3H124.745C126.509 200.3 128.237 201.65 128.237 204.062C128.237 206.024 127.067 207.302 125.663 207.68L128.471 212ZM121.217 202.244V205.862H124.439C125.447 205.862 126.239 205.124 126.239 204.062C126.239 202.982 125.447 202.244 124.439 202.244H121.217Z" fill="black"/>
<path d="M70.658 252.136H64.862V255.232H70.28V257.068H64.862V260.164H70.658V262H62.864V250.3H70.658V252.136ZM82.357 250.3L78.397 256.15L82.357 262H80.035L77.245 257.86L74.437 262H72.115L76.075 256.15L72.115 250.3H74.437L77.245 254.44L80.035 250.3H82.357ZM89.287 250.3C91.051 250.3 92.779 251.65 92.779 254.062C92.779 256.456 91.051 257.806 89.287 257.806H85.903V262H83.905V250.3H89.287ZM88.945 255.862C89.953 255.862 90.781 255.124 90.781 254.062C90.781 252.982 89.971 252.244 88.981 252.244H85.903V255.862H88.945ZM102.299 252.136H96.5026V255.232H101.921V257.068H96.5026V260.164H102.299V262H94.5046V250.3H102.299V252.136ZM113.548 262H111.226L108.508 257.806H106.294V262H104.296V250.3H109.822C111.586 250.3 113.314 251.65 113.314 254.062C113.314 256.024 112.144 257.302 110.74 257.68L113.548 262ZM106.294 252.244V255.862H109.516C110.524 255.862 111.316 255.124 111.316 254.062C111.316 252.982 110.524 252.244 109.516 252.244H106.294ZM123.892 250.3V252.136H120.292V262H118.276V252.136H114.676V250.3H123.892Z" fill="black"/>
<path d="M211.838 27.8428H209.742L205.918 23.3628V27.8428H204.142V17.4428H205.918V21.9068L209.582 17.4428H211.63L207.422 22.6428L211.838 27.8428ZM217.929 20.4828H219.641V27.8428H217.929V26.8988C217.417 27.5548 216.633 27.9708 215.609 27.9708C213.561 27.9708 212.073 26.3548 212.073 24.1628C212.073 21.9388 213.561 20.3708 215.609 20.3708C216.633 20.3708 217.417 20.7708 217.929 21.4428V20.4828ZM215.849 26.3548C217.113 26.3548 217.929 25.4268 217.929 24.1628C217.929 22.8988 217.113 21.9868 215.849 21.9868C214.585 21.9868 213.753 22.8988 213.753 24.1628C213.753 25.4268 214.585 26.3548 215.849 26.3548ZM223.214 21.8108C223.822 20.8028 224.814 20.3868 225.806 20.3708V21.9868C224.942 22.0028 223.214 22.2748 223.214 24.2748V27.8428H221.502V20.4828H223.214V21.8108ZM235.701 20.3708C237.029 20.3708 238.453 21.0748 238.453 23.3308V27.8428H236.725V23.5548C236.725 22.2268 235.813 21.8748 235.189 21.8748C234.565 21.8748 233.669 22.2268 233.669 23.5548V27.8428H231.957V23.5548C231.957 22.2268 231.045 21.8748 230.421 21.8748C229.781 21.8748 228.901 22.2268 228.901 23.5548V27.8428H227.189V20.4828H228.901V21.2828C229.445 20.6428 230.213 20.3708 230.933 20.3708C231.813 20.3708 232.741 20.6908 233.253 21.5708C233.845 20.6748 234.837 20.3708 235.701 20.3708ZM245.883 20.4828H247.595V27.8428H245.883V26.8988C245.371 27.5548 244.587 27.9708 243.563 27.9708C241.515 27.9708 240.027 26.3548 240.027 24.1628C240.027 21.9388 241.515 20.3708 243.563 20.3708C244.587 20.3708 245.371 20.7708 245.883 21.4428V20.4828ZM243.803 26.3548C245.067 26.3548 245.883 25.4268 245.883 24.1628C245.883 22.8988 245.067 21.9868 243.803 21.9868C242.539 21.9868 241.707 22.8988 241.707 24.1628C241.707 25.4268 242.539 26.3548 243.803 26.3548ZM256.69 20.3708C258.738 20.3708 260.21 21.9868 260.21 24.1788C260.21 26.4028 258.738 27.9708 256.69 27.9708C255.666 27.9708 254.882 27.5548 254.37 26.8988V30.7868H252.658V20.4828H254.37V21.4428C254.882 20.7868 255.666 20.3708 256.69 20.3708ZM256.45 26.3548C257.714 26.3548 258.546 25.4428 258.546 24.1788C258.546 22.9148 257.714 21.9868 256.45 21.9868C255.186 21.9868 254.37 22.9148 254.37 24.1788C254.37 25.4428 255.186 26.3548 256.45 26.3548ZM265.334 27.9868C263.11 27.9868 261.542 26.3548 261.542 24.1628C261.542 21.9388 263.11 20.3388 265.334 20.3388C267.558 20.3388 269.11 21.9388 269.11 24.1628C269.11 26.3548 267.558 27.9868 265.334 27.9868ZM265.334 26.3548C266.582 26.3548 267.398 25.4108 267.398 24.1628C267.398 22.9148 266.582 21.9868 265.334 21.9868C264.086 21.9868 263.254 22.9148 263.254 24.1628C263.254 25.4108 264.086 26.3548 265.334 26.3548ZM271.649 19.2348C271.169 19.2348 270.689 18.8668 270.689 18.2588C270.689 17.6508 271.169 17.3148 271.649 17.3148C272.129 17.3148 272.625 17.6508 272.625 18.2588C272.625 18.8668 272.129 19.2348 271.649 19.2348ZM272.513 27.8428H270.785V20.4828H272.529L272.513 27.8428ZM278.342 20.3708C279.718 20.3708 281.238 21.1388 281.238 23.3308V27.8428H279.51V23.5868C279.51 22.2588 278.582 21.8268 277.83 21.8268C277.094 21.8268 276.182 22.2588 276.182 23.5868V27.8428H274.47V20.4828H276.182V21.2668C276.742 20.6108 277.558 20.3708 278.342 20.3708ZM286.842 21.7948H285.21V25.5708C285.21 26.4028 285.722 26.4988 286.202 26.4988H286.762V27.8428H285.514C284.154 27.8428 283.482 27.1228 283.482 25.8428V21.7948H282.506V20.4828H283.482V18.2268H285.21V20.4828H286.842V21.7948ZM287.882 26.3068L289.082 25.5228C289.274 26.0188 290.154 26.6748 291.146 26.6748C291.994 26.6748 292.426 26.3868 292.426 25.7948C292.426 25.0908 291.354 24.9148 290.746 24.7228C290.138 24.5308 288.202 24.0988 288.202 22.5148C288.202 21.0108 289.514 20.3228 291.098 20.3228C292.666 20.3228 293.706 21.0428 294.074 21.8428L292.938 22.5628C292.714 22.1468 291.898 21.6508 291.034 21.6508C290.266 21.6508 289.866 21.9708 289.866 22.4348C289.866 23.1228 290.89 23.2828 291.498 23.4748C292.106 23.6668 294.106 24.1468 294.106 25.7308C294.106 27.2508 292.986 28.0508 291.13 28.0508C289.37 28.0508 288.25 27.2188 287.882 26.3068ZM215.848 46.8428L215.048 44.8428H210.6L209.8 46.8428H207.912L212.136 36.4428H213.496L217.736 46.8428H215.848ZM211.24 43.2108H214.408L212.824 39.2428L211.24 43.2108ZM222.187 37.7868C221.531 37.7868 221.163 38.1388 221.163 38.8108V39.4828H222.907V40.7948H221.163V46.8428H219.435V40.7948H218.459V39.4828H219.435V38.6988C219.435 37.2428 220.203 36.4428 221.659 36.4428H223.083V37.7868H222.187ZM228.311 40.7948H226.679V44.5708C226.679 45.4028 227.191 45.4988 227.671 45.4988H228.231V46.8428H226.983C225.623 46.8428 224.951 46.1228 224.951 44.8428V40.7948H223.975V39.4828H224.951V37.2268H226.679V39.4828H228.311V40.7948ZM232.894 39.3548C235.054 39.3548 236.43 40.9708 236.43 43.1628V43.6428H230.894C231.07 44.7948 231.886 45.5148 232.974 45.5148C233.998 45.5148 234.59 45.0508 234.894 44.6188L236.078 45.4828C235.438 46.4108 234.318 46.9868 232.974 46.9868C230.734 46.9868 229.23 45.3548 229.23 43.1628C229.23 40.9708 230.67 39.3548 232.894 39.3548ZM232.894 40.7148C231.806 40.7148 231.102 41.4348 230.91 42.5388H234.83C234.638 41.4988 233.982 40.7148 232.894 40.7148ZM239.729 40.8108C240.337 39.8028 241.329 39.3868 242.321 39.3708V40.9868C241.457 41.0028 239.729 41.2748 239.729 43.2748V46.8428H238.017V39.4828H239.729V40.8108ZM253.884 38.1228H248.684V41.0508H253.58V42.7308H248.684V46.8428H246.908V36.4428H253.884V38.1228ZM256.587 38.2348C256.107 38.2348 255.627 37.8668 255.627 37.2588C255.627 36.6508 256.107 36.3148 256.587 36.3148C257.067 36.3148 257.563 36.6508 257.563 37.2588C257.563 37.8668 257.067 38.2348 256.587 38.2348ZM257.451 46.8428H255.723V39.4828H257.467L257.451 46.8428ZM261.12 46.8428H259.408V36.4428H261.136L261.12 46.8428ZM264.682 46.8428H262.97V36.4428H264.698L264.682 46.8428ZM267.493 38.2348C267.013 38.2348 266.533 37.8668 266.533 37.2588C266.533 36.6508 267.013 36.3148 267.493 36.3148C267.973 36.3148 268.469 36.6508 268.469 37.2588C268.469 37.8668 267.973 38.2348 267.493 38.2348ZM268.357 46.8428H266.629V39.4828H268.373L268.357 46.8428ZM274.186 39.3708C275.562 39.3708 277.082 40.1388 277.082 42.3308V46.8428H275.354V42.5868C275.354 41.2588 274.426 40.8268 273.674 40.8268C272.938 40.8268 272.026 41.2588 272.026 42.5868V46.8428H270.314V39.4828H272.026V40.2668C272.586 39.6108 273.402 39.3708 274.186 39.3708ZM284.508 39.4828H286.22V46.3148C286.22 48.4268 284.796 49.9468 282.316 49.9468C281.004 49.9468 279.884 49.4188 279.212 48.6188L280.348 47.6748C280.924 48.2988 281.66 48.4908 282.316 48.4908C283.228 48.4908 284.508 47.9628 284.508 46.3148V45.8828C283.98 46.5548 283.212 46.9708 282.172 46.9708C280.124 46.9708 278.652 45.3548 278.652 43.1628C278.652 40.9708 280.124 39.3708 282.172 39.3708C283.212 39.3708 283.98 39.7868 284.508 40.4428V39.4828ZM282.412 45.3548C283.676 45.3548 284.508 44.4268 284.508 43.1628C284.508 41.8988 283.676 40.9868 282.412 40.9868C281.148 40.9868 280.332 41.8988 280.332 43.1628C280.332 44.4268 281.148 45.3548 282.412 45.3548ZM225.494 63.5388L226.934 62.5308C227.254 63.2508 228.518 64.2428 230.086 64.2428C231.51 64.2428 232.006 63.7148 232.006 62.8828C232.006 61.8588 230.23 61.5548 229.398 61.2828C228.518 61.0108 225.894 60.5308 225.894 58.2908C225.894 56.1628 227.734 55.2508 229.894 55.2508C231.862 55.2508 233.478 56.3228 233.878 57.4428L232.454 58.3388C232.166 57.7468 231.062 57.0428 229.686 57.0428C228.534 57.0428 227.926 57.4748 227.926 58.2108C227.926 59.2028 229.558 59.4748 230.454 59.7468C231.286 60.0188 233.99 60.6268 233.99 62.8028C233.99 64.9308 232.39 66.0348 229.894 66.0348C227.542 66.0348 225.99 64.8348 225.494 63.5388ZM240.557 58.4828H242.285V65.8428H240.557V65.0748C239.997 65.7308 239.181 65.9708 238.397 65.9708C237.021 65.9708 235.517 65.2028 235.517 62.9948V58.4828H237.229V62.7388C237.229 64.0668 238.173 64.4988 238.909 64.4988C239.661 64.4988 240.557 64.0668 240.557 62.7388V58.4828ZM245.839 59.8108C246.447 58.8028 247.439 58.3868 248.431 58.3708V59.9868C247.567 60.0028 245.839 60.2748 245.839 62.2748V65.8428H244.127V58.4828H245.839V59.8108ZM252.086 65.8428L249.19 58.4828H250.966L252.918 63.5068L254.902 58.4828H256.694L253.766 65.8428H252.086ZM260.972 58.3548C263.132 58.3548 264.508 59.9708 264.508 62.1628V62.6428H258.972C259.148 63.7948 259.964 64.5148 261.052 64.5148C262.076 64.5148 262.668 64.0508 262.972 63.6188L264.156 64.4828C263.516 65.4108 262.396 65.9868 261.052 65.9868C258.812 65.9868 257.308 64.3548 257.308 62.1628C257.308 59.9708 258.748 58.3548 260.972 58.3548ZM260.972 59.7148C259.884 59.7148 259.18 60.4348 258.988 61.5388H262.908C262.716 60.4988 262.06 59.7148 260.972 59.7148ZM270.871 58.4828H272.663L268.567 68.7868H266.887L268.055 65.8428L265.159 58.4828H266.935L268.887 63.4588L270.871 58.4828Z" fill="black"/>
<path d="M337.22 28H335.124L331.3 23.52V28H329.524V17.6H331.3V22.064L334.964 17.6H337.012L332.804 22.8L337.22 28ZM343.311 20.64H345.023V28H343.311V27.056C342.799 27.712 342.015 28.128 340.991 28.128C338.943 28.128 337.455 26.512 337.455 24.32C337.455 22.096 338.943 20.528 340.991 20.528C342.015 20.528 342.799 20.928 343.311 21.6V20.64ZM341.231 26.512C342.495 26.512 343.311 25.584 343.311 24.32C343.311 23.056 342.495 22.144 341.231 22.144C339.967 22.144 339.135 23.056 339.135 24.32C339.135 25.584 339.967 26.512 341.231 26.512ZM348.595 21.968C349.203 20.96 350.195 20.544 351.187 20.528V22.144C350.323 22.16 348.595 22.432 348.595 24.432V28H346.883V20.64H348.595V21.968ZM361.083 20.528C362.411 20.528 363.835 21.232 363.835 23.488V28H362.107V23.712C362.107 22.384 361.195 22.032 360.571 22.032C359.947 22.032 359.051 22.384 359.051 23.712V28H357.339V23.712C357.339 22.384 356.427 22.032 355.803 22.032C355.163 22.032 354.283 22.384 354.283 23.712V28H352.571V20.64H354.283V21.44C354.827 20.8 355.595 20.528 356.315 20.528C357.195 20.528 358.123 20.848 358.635 21.728C359.227 20.832 360.219 20.528 361.083 20.528ZM371.264 20.64H372.976V28H371.264V27.056C370.752 27.712 369.968 28.128 368.944 28.128C366.896 28.128 365.408 26.512 365.408 24.32C365.408 22.096 366.896 20.528 368.944 20.528C369.968 20.528 370.752 20.928 371.264 21.6V20.64ZM369.184 26.512C370.448 26.512 371.264 25.584 371.264 24.32C371.264 23.056 370.448 22.144 369.184 22.144C367.92 22.144 367.088 23.056 367.088 24.32C367.088 25.584 367.92 26.512 369.184 26.512ZM382.072 20.528C384.12 20.528 385.592 22.144 385.592 24.336C385.592 26.56 384.12 28.128 382.072 28.128C381.048 28.128 380.264 27.712 379.752 27.056V30.944H378.04V20.64H379.752V21.6C380.264 20.944 381.048 20.528 382.072 20.528ZM381.832 26.512C383.096 26.512 383.928 25.6 383.928 24.336C383.928 23.072 383.096 22.144 381.832 22.144C380.568 22.144 379.752 23.072 379.752 24.336C379.752 25.6 380.568 26.512 381.832 26.512ZM390.716 28.144C388.492 28.144 386.924 26.512 386.924 24.32C386.924 22.096 388.492 20.496 390.716 20.496C392.94 20.496 394.492 22.096 394.492 24.32C394.492 26.512 392.94 28.144 390.716 28.144ZM390.716 26.512C391.964 26.512 392.78 25.568 392.78 24.32C392.78 23.072 391.964 22.144 390.716 22.144C389.468 22.144 388.636 23.072 388.636 24.32C388.636 25.568 389.468 26.512 390.716 26.512ZM397.031 19.392C396.551 19.392 396.071 19.024 396.071 18.416C396.071 17.808 396.551 17.472 397.031 17.472C397.511 17.472 398.007 17.808 398.007 18.416C398.007 19.024 397.511 19.392 397.031 19.392ZM397.895 28H396.167V20.64H397.911L397.895 28ZM403.724 20.528C405.1 20.528 406.62 21.296 406.62 23.488V28H404.892V23.744C404.892 22.416 403.964 21.984 403.212 21.984C402.476 21.984 401.564 22.416 401.564 23.744V28H399.852V20.64H401.564V21.424C402.124 20.768 402.94 20.528 403.724 20.528ZM412.224 21.952H410.592V25.728C410.592 26.56 411.104 26.656 411.584 26.656H412.144V28H410.896C409.536 28 408.864 27.28 408.864 26V21.952H407.888V20.64H408.864V18.384H410.592V20.64H412.224V21.952ZM413.264 26.464L414.464 25.68C414.656 26.176 415.536 26.832 416.528 26.832C417.376 26.832 417.808 26.544 417.808 25.952C417.808 25.248 416.736 25.072 416.128 24.88C415.52 24.688 413.584 24.256 413.584 22.672C413.584 21.168 414.896 20.48 416.48 20.48C418.048 20.48 419.088 21.2 419.456 22L418.32 22.72C418.096 22.304 417.28 21.808 416.416 21.808C415.648 21.808 415.248 22.128 415.248 22.592C415.248 23.28 416.272 23.44 416.88 23.632C417.488 23.824 419.488 24.304 419.488 25.888C419.488 27.408 418.368 28.208 416.512 28.208C414.752 28.208 413.632 27.376 413.264 26.464ZM331.527 47L330.727 45H326.279L325.479 47H323.591L327.815 36.6H329.175L333.415 47H331.527ZM326.919 43.368H330.087L328.503 39.4L326.919 43.368ZM337.866 37.944C337.21 37.944 336.842 38.296 336.842 38.968V39.64H338.586V40.952H336.842V47H335.114V40.952H334.138V39.64H335.114V38.856C335.114 37.4 335.882 36.6 337.338 36.6H338.762V37.944H337.866ZM343.989 40.952H342.357V44.728C342.357 45.56 342.869 45.656 343.349 45.656H343.909V47H342.661C341.301 47 340.629 46.28 340.629 45V40.952H339.653V39.64H340.629V37.384H342.357V39.64H343.989V40.952ZM348.572 39.512C350.732 39.512 352.108 41.128 352.108 43.32V43.8H346.572C346.748 44.952 347.564 45.672 348.652 45.672C349.676 45.672 350.268 45.208 350.572 44.776L351.756 45.64C351.116 46.568 349.996 47.144 348.652 47.144C346.412 47.144 344.908 45.512 344.908 43.32C344.908 41.128 346.348 39.512 348.572 39.512ZM348.572 40.872C347.484 40.872 346.78 41.592 346.588 42.696H350.508C350.316 41.656 349.66 40.872 348.572 40.872ZM355.408 40.968C356.016 39.96 357.008 39.544 358 39.528V41.144C357.136 41.16 355.408 41.432 355.408 43.432V47H353.696V39.64H355.408V40.968ZM370.426 39.624C369.882 38.856 368.89 38.248 367.658 38.248C365.594 38.248 364.202 39.752 364.202 41.8C364.202 43.848 365.594 45.352 367.658 45.352C368.89 45.352 369.882 44.68 370.426 43.928L371.866 45.032C370.97 46.328 369.498 47.128 367.658 47.128C364.57 47.128 362.426 44.888 362.426 41.8C362.426 38.712 364.57 36.472 367.658 36.472C369.498 36.472 370.97 37.272 371.866 38.568L370.426 39.624ZM375.048 40.968C375.656 39.96 376.648 39.544 377.64 39.528V41.144C376.776 41.16 375.048 41.432 375.048 43.432V47H373.336V39.64H375.048V40.968ZM382.01 39.512C384.17 39.512 385.546 41.128 385.546 43.32V43.8H380.01C380.186 44.952 381.002 45.672 382.09 45.672C383.114 45.672 383.706 45.208 384.01 44.776L385.194 45.64C384.554 46.568 383.434 47.144 382.09 47.144C379.85 47.144 378.346 45.512 378.346 43.32C378.346 41.128 379.786 39.512 382.01 39.512ZM382.01 40.872C380.922 40.872 380.218 41.592 380.026 42.696H383.946C383.754 41.656 383.098 40.872 382.01 40.872ZM392.717 39.64H394.429V47H392.717V46.056C392.205 46.712 391.421 47.128 390.397 47.128C388.349 47.128 386.861 45.512 386.861 43.32C386.861 41.096 388.349 39.528 390.397 39.528C391.421 39.528 392.205 39.928 392.717 40.6V39.64ZM390.637 45.512C391.901 45.512 392.717 44.584 392.717 43.32C392.717 42.056 391.901 41.144 390.637 41.144C389.373 41.144 388.541 42.056 388.541 43.32C388.541 44.584 389.373 45.512 390.637 45.512ZM400.146 40.952H398.514V44.728C398.514 45.56 399.026 45.656 399.506 45.656H400.066V47H398.818C397.458 47 396.786 46.28 396.786 45V40.952H395.81V39.64H396.786V37.384H398.514V39.64H400.146V40.952ZM402.578 38.392C402.098 38.392 401.618 38.024 401.618 37.416C401.618 36.808 402.098 36.472 402.578 36.472C403.058 36.472 403.554 36.808 403.554 37.416C403.554 38.024 403.058 38.392 402.578 38.392ZM403.442 47H401.714V39.64H403.458L403.442 47ZM409.271 39.528C410.647 39.528 412.167 40.296 412.167 42.488V47H410.439V42.744C410.439 41.416 409.511 40.984 408.759 40.984C408.023 40.984 407.111 41.416 407.111 42.744V47H405.399V39.64H407.111V40.424C407.671 39.768 408.487 39.528 409.271 39.528ZM419.592 39.64H421.304V46.472C421.304 48.584 419.88 50.104 417.4 50.104C416.088 50.104 414.968 49.576 414.296 48.776L415.432 47.832C416.008 48.456 416.744 48.648 417.4 48.648C418.312 48.648 419.592 48.12 419.592 46.472V46.04C419.064 46.712 418.296 47.128 417.256 47.128C415.208 47.128 413.736 45.512 413.736 43.32C413.736 41.128 415.208 39.528 417.256 39.528C418.296 39.528 419.064 39.944 419.592 40.6V39.64ZM417.496 45.512C418.76 45.512 419.592 44.584 419.592 43.32C419.592 42.056 418.76 41.144 417.496 41.144C416.232 41.144 415.416 42.056 415.416 43.32C415.416 44.584 416.232 45.512 417.496 45.512ZM350.876 63.696L352.316 62.688C352.636 63.408 353.9 64.4 355.468 64.4C356.892 64.4 357.388 63.872 357.388 63.04C357.388 62.016 355.612 61.712 354.78 61.44C353.9 61.168 351.276 60.688 351.276 58.448C351.276 56.32 353.116 55.408 355.276 55.408C357.244 55.408 358.86 56.48 359.26 57.6L357.836 58.496C357.548 57.904 356.444 57.2 355.068 57.2C353.916 57.2 353.308 57.632 353.308 58.368C353.308 59.36 354.94 59.632 355.836 59.904C356.668 60.176 359.372 60.784 359.372 62.96C359.372 65.088 357.772 66.192 355.276 66.192C352.924 66.192 351.372 64.992 350.876 63.696ZM365.939 58.64H367.667V66H365.939V65.232C365.379 65.888 364.563 66.128 363.779 66.128C362.403 66.128 360.899 65.36 360.899 63.152V58.64H362.611V62.896C362.611 64.224 363.555 64.656 364.291 64.656C365.043 64.656 365.939 64.224 365.939 62.896V58.64ZM371.22 59.968C371.828 58.96 372.82 58.544 373.812 58.528V60.144C372.948 60.16 371.22 60.432 371.22 62.432V66H369.508V58.64H371.22V59.968ZM377.468 66L374.572 58.64H376.348L378.3 63.664L380.284 58.64H382.076L379.148 66H377.468ZM386.353 58.512C388.513 58.512 389.889 60.128 389.889 62.32V62.8H384.353C384.529 63.952 385.345 64.672 386.433 64.672C387.457 64.672 388.049 64.208 388.353 63.776L389.537 64.64C388.897 65.568 387.777 66.144 386.433 66.144C384.193 66.144 382.689 64.512 382.689 62.32C382.689 60.128 384.129 58.512 386.353 58.512ZM386.353 59.872C385.265 59.872 384.561 60.592 384.369 61.696H388.289C388.097 60.656 387.441 59.872 386.353 59.872ZM396.253 58.64H398.045L393.949 68.944H392.269L393.437 66L390.541 58.64H392.317L394.269 63.616L396.253 58.64Z" fill="black"/>
<path d="M70.46 310.934C71.414 311.42 72.08 312.338 72.08 313.652C72.08 315.722 70.424 317 68.624 317H62.864V305.3H68.282C70.082 305.3 71.648 306.47 71.648 308.54C71.648 309.674 71.18 310.466 70.46 310.934ZM64.862 307.136V310.16H67.958C68.948 310.16 69.578 309.566 69.578 308.648C69.578 307.712 68.948 307.136 67.958 307.136H64.862ZM68.318 315.164C69.362 315.164 70.01 314.426 70.01 313.49C70.01 312.572 69.344 311.834 68.318 311.834H64.862V315.164H68.318ZM81.5213 307.136H75.7253V310.232H81.1433V312.068H75.7253V315.164H81.5213V317H73.7273V305.3H81.5213V307.136ZM94.4887 311.42C94.3627 314.75 92.2567 317.144 88.8727 317.144C85.3987 317.144 82.9867 314.624 82.9867 311.15C82.9867 307.676 85.3987 305.156 88.8727 305.156C90.9427 305.156 92.5987 306.056 93.6067 307.496L91.9687 308.684C91.2307 307.658 90.0787 307.154 88.8727 307.154C86.5507 307.154 84.9847 308.846 84.9847 311.15C84.9847 313.454 86.5507 315.146 88.8727 315.146C90.5287 315.146 91.9327 314.138 92.2027 312.374H88.7467V310.538H94.4887V311.42ZM98.3835 317H96.3855V305.3H98.3835V317ZM107.772 305.3H109.77V317H107.826L102.444 308.774V317H100.446V305.3H102.39L107.772 313.526V305.3ZM119.18 305.3H121.178V317H119.234L113.852 308.774V317H111.854V305.3H113.798L119.18 313.526V305.3ZM131.056 307.136H125.26V310.232H130.678V312.068H125.26V315.164H131.056V317H123.262V305.3H131.056V307.136ZM142.305 317H139.983L137.265 312.806H135.051V317H133.053V305.3H138.579C140.343 305.3 142.071 306.65 142.071 309.062C142.071 311.024 140.901 312.302 139.497 312.68L142.305 317ZM135.051 307.244V310.862H138.273C139.281 310.862 140.073 310.124 140.073 309.062C140.073 307.982 139.281 307.244 138.273 307.244H135.051Z" fill="black"/>
<path d="M31.487 113.997H40.3317C40.9399 113.997 40.9514 113.963 40.9897 113.464C41.0585 112.555 40.7984 111.77 39.7617 111.3C39.3925 111.126 38.9769 111.027 38.5509 111.014C33.8493 110.995 29.1477 111 24.4481 111.003C23.8048 111.009 23.1896 111.219 22.7332 111.589C22.2767 111.959 22.015 112.461 22.0036 112.986C22.0036 114.132 21.8716 113.994 23.2143 113.996C25.9725 113.999 28.7301 113.999 31.487 113.997Z" fill="black"/>
<path d="M20 101.344C21.0077 104.002 22.0037 106.672 23.0115 109.329C23.2224 109.878 23.3747 110 23.9489 110C28.9524 110 33.9559 110 38.9594 110C39.5336 110 39.6859 109.89 39.9085 109.342C40.9045 106.769 41.9123 104.197 42.9083 101.612C43.1075 101.1 42.9786 100.685 42.5567 100.527C42.2287 100.393 41.9591 100.527 41.7248 100.771C40.553 101.978 39.3812 103.185 38.2212 104.404C38.1626 104.465 38.1274 104.538 38.0337 104.66C37.9868 104.514 37.9517 104.453 37.9399 104.379C37.5767 103.27 37.2134 102.173 36.8619 101.063C36.6393 100.393 36.194 100.234 35.6198 100.637C34.8933 101.136 34.1668 101.648 33.3934 102.173C33.0653 100.978 32.7372 99.7953 32.4091 98.6004C33.0536 98.2834 33.4989 97.7958 33.7098 97.0764C33.8504 96.5766 33.8504 96.0767 33.6747 95.589C33.3231 94.5771 32.3974 93.9431 31.3311 94.004C30.3937 94.0528 29.5031 94.8331 29.2688 95.8085C29.0461 96.7594 29.3742 97.9786 30.6046 98.6126C30.2882 99.7831 29.9601 100.941 29.632 102.136C29.5383 102.075 29.4797 102.039 29.4094 101.99C28.7649 101.539 28.1087 101.088 27.4642 100.637C26.8666 100.222 26.4331 100.38 26.1987 101.075C25.8355 102.185 25.4722 103.282 25.1207 104.392C25.0972 104.465 25.0621 104.538 24.9683 104.66C24.9215 104.587 24.898 104.501 24.8394 104.44C23.656 103.209 22.4725 101.99 21.289 100.758C20.9843 100.441 20.6796 100.356 20.3867 100.551C20.2226 100.661 20.1289 100.88 20 101.039C20 101.161 20 101.258 20 101.344ZM35.7487 102.295C35.7721 102.331 35.7839 102.343 35.7956 102.368C36.1471 103.453 36.5104 104.55 36.8619 105.635C36.8853 105.708 36.8385 105.83 36.7799 105.879C36.2643 106.428 35.737 106.952 35.2214 107.501C35.1394 107.586 35.0808 107.708 35.0105 107.805C34.9871 107.781 34.9519 107.769 34.9285 107.744C34.5535 106.379 34.1785 105.013 33.7918 103.648C34.4598 103.197 35.1042 102.746 35.7487 102.295ZM27.3002 102.282C27.8978 102.697 28.472 103.099 29.0579 103.489C29.1867 103.575 29.2336 103.66 29.1867 103.819C28.8821 104.879 28.6009 105.94 28.2962 107.001C28.2259 107.245 28.1556 107.501 28.0736 107.805C27.4291 107.123 26.8198 106.489 26.2339 105.843C26.1987 105.806 26.1987 105.684 26.2221 105.611C26.3628 105.172 26.5034 104.721 26.6557 104.282C26.8549 103.648 27.0775 102.977 27.3002 102.282Z" fill="black"/>
<g clip-path="url(#clip0_638_2279)">
<path d="M29.6849 260.811C28.6972 260.729 28.0412 261.105 27.5501 261.826C27.2946 262.21 27.0826 262.611 26.8253 262.977C26.57 263.376 26.2337 263.71 25.8408 263.954C25.4479 264.198 25.0085 264.346 24.5547 264.387C24.667 263.994 24.7359 263.679 24.8482 263.382C25.0095 262.935 25.2107 262.507 25.3629 262.056C25.4064 261.92 25.2958 261.73 25.256 261.565C25.1092 261.638 24.8827 261.674 24.8319 261.793C24.5221 262.536 24.2231 263.286 23.9784 264.055C23.8697 264.397 23.7102 264.425 23.4438 264.364C22.6266 264.172 22.1318 263.459 22.0267 262.49C21.8618 260.955 22.3892 259.595 22.9672 258.269C23.6776 256.65 24.4604 255.068 25.1817 253.454C25.2656 253.197 25.2744 252.919 25.207 252.656C25.0929 252.081 24.9044 251.528 24.7939 250.956C24.7957 250.868 24.8185 250.781 24.8604 250.704C24.9022 250.628 24.9616 250.563 25.0331 250.517C26.1204 250.095 27.1932 249.587 28.3167 249.333C31.1527 248.698 33.8836 248.808 36.1886 251.027C37.2234 252.017 38.0968 253.128 38.5045 254.563C38.6278 254.997 38.6151 255.474 38.6513 255.933C38.7564 257.251 38.8325 258.57 38.9648 259.885C38.9956 260.205 39.166 260.512 39.291 260.817C39.416 261.122 39.4469 261.423 39.0717 261.484C37.6075 261.724 36.9352 263.265 37.2995 264.899C37.372 265.225 37.4807 265.542 37.555 265.858C37.6945 266.42 37.5731 266.593 37.0295 266.593C33.7978 266.593 30.5668 266.593 27.3363 266.593C27.0337 266.593 26.7311 266.593 26.4302 266.593C25.8286 266.593 25.6637 266.34 25.999 265.799C26.6096 264.813 27.2675 263.854 27.9398 262.921C28.3801 262.317 28.902 261.77 29.3895 261.208C29.4692 261.114 29.5435 261.003 29.6849 260.811ZM34.449 257.763L34.5649 257.726C34.3584 256.884 34.2369 256 33.9253 255.209C33.3816 253.838 32.3777 252.998 30.9733 252.746C30.7323 252.704 30.4296 252.7 30.4097 253.036C30.4097 253.157 30.658 253.391 30.8156 253.42C32.1349 253.611 32.9666 254.421 33.4432 255.679C33.9869 257.109 33.8763 258.574 33.5103 260.009C33.2475 261.038 32.8434 262.022 32.5353 263.036C32.4864 263.194 32.6115 263.42 32.6568 263.6C32.7981 263.51 33.0192 263.455 33.0663 263.324C33.831 261.554 34.4019 259.729 34.449 257.763ZM28.2877 255.353C28.1645 255.173 28.1228 255.046 28.0431 255.014C27.9917 254.991 27.9363 254.981 27.8809 254.984C27.8254 254.987 27.7713 255.003 27.7223 255.031C27.4634 255.268 27.2212 255.524 26.9974 255.798C26.9725 255.851 26.9596 255.91 26.9596 255.969C26.9596 256.028 26.9725 256.087 26.9974 256.14C27.0319 256.217 27.2131 256.313 27.2439 256.286C27.5918 255.996 27.9289 255.679 28.2895 255.353H28.2877Z" fill="black"/>
<path d="M31.6888 270.996H24.125C23.4001 270.996 23.4345 270.996 23.4001 270.211C23.3475 269.112 23.661 268.216 24.5925 267.668C24.916 267.468 25.2803 267.354 25.6544 267.336C29.6864 267.313 33.7184 267.317 37.7486 267.324C38.3411 267.343 38.904 267.602 39.3214 268.048C39.7388 268.493 39.9789 269.091 39.9921 269.718C39.9921 271.171 40.2005 270.988 38.8015 270.992C36.4312 271 34.0609 270.996 31.6888 270.996Z" fill="black"/>
</g>
<g clip-path="url(#clip1_638_2279)">
<path d="M28.0873 308.651C26.3866 307.495 25.5985 306.042 25.7603 304.164C25.8515 303.106 26.3286 302.114 27.1063 301.365C28.8153 299.637 31.806 299.547 33.6353 301.112C34.2111 301.584 34.66 302.184 34.9432 302.861C35.2264 303.538 35.3356 304.272 35.2613 304.999C35.1493 306.554 34.3155 307.704 32.9342 308.645C33.6083 308.857 34.1787 308.974 34.6951 309.215C35.5869 309.638 36.4559 310.116 37.3 310.619C37.4763 310.726 37.5074 311.057 37.6091 311.283C37.4017 311.36 37.1943 311.502 36.9869 311.502C32.6674 311.515 28.3479 311.515 24.0285 311.502C23.8211 311.502 23.6137 311.35 23.4062 311.267C23.4892 311.057 23.5286 310.776 23.6966 310.635C24.7979 309.7 26.1315 309.207 27.519 308.829C27.658 308.791 27.7969 308.743 28.0873 308.651Z" fill="black"/>
<path d="M30.4474 322.996H22.2115C20.8904 322.996 21.0148 323.098 21.0003 321.846C20.9719 321.368 21.0873 320.892 21.3324 320.477C21.5775 320.061 21.942 319.722 22.3816 319.502C22.7525 319.296 23.1694 319.179 23.597 319.161C28.2075 319.139 32.8159 319.143 37.4265 319.149C38.105 319.17 38.7496 319.441 39.2274 319.908C39.7051 320.375 39.9795 321.001 39.9941 321.658C39.9941 323.203 40.1849 322.988 38.6294 322.992C35.9021 323.002 33.1747 322.996 30.4474 322.996Z" fill="black"/>
<path d="M26.5775 312.291C26.7974 312.291 26.9508 312.265 27.1022 312.265C29.3837 312.265 31.6651 312.265 33.9465 312.265C34.3613 312.265 34.5023 312.379 34.5168 312.798C34.5562 313.886 34.8321 314.915 35.5891 315.762C35.749 315.926 35.9531 316.042 36.1781 316.099C36.6375 316.192 37.0627 316.402 37.409 316.708C37.7553 317.014 38.0101 317.405 38.1463 317.839C38.2791 318.24 38.0903 318.469 37.6776 318.467C34.6019 318.445 31.5282 318.413 28.4524 318.405C26.7766 318.405 25.1008 318.433 23.425 318.455C22.9127 318.455 22.7323 318.234 22.9107 317.757C23.0546 317.322 23.3208 316.936 23.6795 316.64C24.0382 316.344 24.4751 316.15 24.9411 316.081C25.1348 316.038 25.3096 315.937 25.441 315.792C26.2021 314.929 26.478 313.89 26.5568 312.782C26.5589 312.642 26.5671 312.487 26.5775 312.291Z" fill="black"/>
</g>
<g clip-path="url(#clip2_638_2279)">
<path d="M28.7536 202.514C28.7536 201.492 28.7698 200.549 28.7536 199.608C28.7333 199.166 28.879 198.986 29.3787 199C30.4571 199.03 31.5354 199.009 32.6158 199.011C33.2227 199.011 33.2612 199.045 33.2632 199.636C33.2632 200.457 33.2753 201.275 33.251 202.093C33.251 202.427 33.3684 202.543 33.7184 202.518C34.034 202.497 34.3537 202.518 34.7441 202.518C34.7441 201.694 34.7441 200.912 34.7441 200.13C34.7462 198.869 34.6167 199.015 35.9236 199.009C36.6135 199.009 37.3054 199.02 37.9953 199.009C38.3555 199.009 38.5355 199.123 38.5335 199.465C38.5335 201.951 38.5477 204.438 38.5072 206.924C38.493 207.869 37.615 208.668 36.6317 208.823C36.5358 208.841 36.4447 208.876 36.364 208.927C36.2833 208.979 36.2147 209.045 36.1624 209.122C35.7719 209.862 35.1751 210.223 34.2768 210.216C32.1026 210.197 29.9283 210.197 27.7541 210.216C27.3569 210.241 26.961 210.151 26.6218 209.956C26.2827 209.761 26.0172 209.472 25.8625 209.129C25.8115 209.05 25.744 208.982 25.6641 208.928C25.5841 208.873 25.4934 208.835 25.3972 208.814C24.3856 208.625 23.5359 207.765 23.5278 206.792C23.5075 204.368 23.5278 201.944 23.5156 199.521C23.5156 199.143 23.6916 198.994 24.1023 199.003C24.9784 199.022 25.8544 199.024 26.7324 199.003C27.1613 199 27.2868 199.17 27.2807 199.54C27.2605 200.405 27.2827 201.267 27.2605 202.136C27.2605 202.425 27.3616 202.535 27.6651 202.514C27.9686 202.493 28.3429 202.514 28.7536 202.514Z" fill="black"/>
<path d="M30.9866 219.99C28.2068 219.99 25.427 219.99 22.6472 219.99C22.1656 219.99 22.0402 219.86 22.0078 219.406C21.9512 218.343 22.1859 217.417 23.2217 216.852C23.6087 216.635 24.0476 216.512 24.4983 216.495C28.8279 216.468 33.1554 216.476 37.485 216.48C38.1538 216.482 38.7943 216.732 39.2667 217.174C39.739 217.616 40.0048 218.215 40.0058 218.84C40.0058 220.202 40.1454 219.99 38.7778 219.996C36.174 219.996 33.5803 219.99 30.9866 219.99Z" fill="black"/>
<path d="M30.9911 210.904C32.0532 210.904 33.1154 210.915 34.1755 210.904C34.5802 210.904 34.744 211.04 34.7946 211.412C34.8945 212.132 35.2301 212.805 35.7556 213.339C35.9376 213.513 36.166 213.638 36.4172 213.702C37.3074 213.94 37.9325 214.429 38.238 215.259C38.3796 215.66 38.2036 215.854 37.7545 215.852C33.4654 215.828 29.1817 215.812 24.9034 215.803C24.7857 215.806 24.6682 215.814 24.5514 215.828C23.7421 215.894 23.5519 215.65 23.9141 214.96C24.078 214.64 24.319 214.359 24.6184 214.14C24.9177 213.92 25.2673 213.769 25.6398 213.696C25.8751 213.639 26.0891 213.523 26.2589 213.36C26.8093 212.819 27.1504 212.122 27.228 211.38C27.2786 211 27.4607 210.889 27.8653 210.904C28.9012 210.904 29.9471 210.904 30.9911 210.904Z" fill="black"/>
</g>
<g clip-path="url(#clip3_638_2279)">
<path d="M24.1868 153.212C24.4496 152.928 24.6376 152.584 24.7339 152.21C24.8302 151.836 24.8319 151.444 24.7388 151.069C24.6413 150.644 24.4039 150.253 24.2788 149.834C24.2055 149.603 24.1979 149.356 24.2568 149.121C24.4996 148.342 24.6247 147.615 23.9329 146.964C23.8794 146.869 23.8514 146.761 23.8514 146.652C23.8514 146.543 23.8794 146.435 23.9329 146.339C24.4389 145.768 24.9964 145.24 25.5428 144.709C25.5855 144.658 25.6387 144.618 25.6988 144.59C25.7588 144.562 25.8243 144.548 25.8905 144.548C25.9568 144.548 26.0222 144.562 26.0823 144.59C26.1424 144.618 26.1956 144.658 26.2383 144.709C26.7902 145.242 27.3422 145.77 27.8463 146.343C27.899 146.438 27.9272 146.544 27.9285 146.652C27.9298 146.76 27.9041 146.867 27.8537 146.962C27.2336 147.65 27.2226 148.364 27.5685 149.161C27.6345 149.392 27.6182 149.639 27.5225 149.859C26.9816 151.287 27.6329 152.425 28.3872 153.617C29.1379 152.643 29.5206 151.631 29.2961 150.471C29.2041 149.988 28.9428 149.537 28.8049 149.059C28.7404 148.839 28.7475 148.604 28.8251 148.388C29.1231 147.688 29.4801 147.014 29.7965 146.321C30.2197 145.405 30.113 144.502 29.5849 143.661C29.4709 143.509 29.4108 143.323 29.4141 143.133C29.4175 142.944 29.484 142.761 29.6033 142.613C30.1019 141.88 30.5656 141.099 31.0458 140.346C31.342 139.882 31.6474 139.884 31.9455 140.346C32.4606 141.158 32.9776 141.969 33.4597 142.799C33.5572 142.966 33.6087 143.285 33.5149 143.422C32.6483 144.692 32.8838 145.931 33.5443 147.177C33.7448 147.554 33.9123 147.95 34.1404 148.311C34.2312 148.442 34.2785 148.598 34.2759 148.757C34.2733 148.916 34.2207 149.07 34.1257 149.198C33.7337 149.894 33.5699 150.694 33.6574 151.487C33.7448 152.28 34.079 153.026 34.6132 153.621C34.7733 153.344 34.9168 153.092 35.0677 152.842C35.6748 151.847 35.8588 150.816 35.3989 149.7C35.3437 149.496 35.362 149.28 35.4504 149.088C35.7613 148.329 35.7429 147.637 35.1486 147.014C35.0953 146.968 35.0529 146.911 35.0246 146.846C34.9962 146.782 34.9826 146.712 34.9847 146.642C34.9869 146.572 35.0046 146.503 35.0368 146.441C35.069 146.378 35.1147 146.324 35.1707 146.281C35.6883 145.758 36.2078 145.241 36.7291 144.729C36.7717 144.673 36.8266 144.627 36.8897 144.594C36.9527 144.562 37.0222 144.545 37.093 144.543C37.1638 144.542 37.2341 144.556 37.2985 144.585C37.3629 144.615 37.4198 144.658 37.465 144.712C38.017 145.246 38.5689 145.771 39.073 146.343C39.1249 146.439 39.151 146.547 39.1487 146.656C39.1465 146.765 39.116 146.872 39.0602 146.966C38.3757 147.6 38.453 148.333 38.7455 149.071C38.8094 149.207 38.8378 149.356 38.8282 149.505C38.8185 149.654 38.7711 149.798 38.6903 149.923C38.1973 150.799 37.9949 151.712 38.4328 152.672C38.5331 152.858 38.6437 153.038 38.7639 153.212C39.1429 152.502 39.2294 151.844 38.9608 151.197C38.8063 150.818 38.8688 150.585 39.1981 150.394C39.8991 149.991 40.5964 149.579 41.3121 149.205C41.474 149.123 41.7831 149.108 41.8935 149.205C41.9501 149.289 41.9869 149.385 42.0009 149.485C42.0149 149.586 42.0059 149.688 41.9745 149.784C41.452 151.391 40.9037 152.989 40.3646 154.592C40.1512 155.226 39.9322 155.86 39.7354 156.5C39.6084 156.908 39.384 157.049 38.9461 156.963C38.468 156.863 37.9812 156.809 37.4926 156.804C33.5075 156.792 29.5212 156.792 25.5336 156.804C25.0299 156.812 24.5279 156.866 24.0341 156.965C23.622 157.042 23.3957 156.919 23.2669 156.531C22.5218 154.292 21.7638 152.054 21.0297 149.812C20.9977 149.708 20.9884 149.6 21.0024 149.492C21.0164 149.385 21.0533 149.282 21.1106 149.191C21.1916 149.095 21.5301 149.121 21.692 149.207C22.4279 149.592 23.1271 150.015 23.8409 150.426C24.15 150.609 24.185 150.834 24.0415 151.158C23.7434 151.833 23.8869 152.487 24.1868 153.212Z" fill="black"/>
<path d="M31.5019 160.997H22.9944C22.4093 160.997 22.3983 160.956 22.3615 160.372C22.2953 159.305 22.5455 158.385 23.5427 157.834C23.8978 157.63 24.2975 157.514 24.7073 157.499C29.2297 157.477 33.752 157.482 38.2725 157.486C38.8912 157.492 39.483 157.739 39.922 158.173C40.3611 158.607 40.6128 159.195 40.6238 159.811C40.6238 161.154 40.7508 160.993 39.4592 160.995C36.8061 160.998 34.1537 160.999 31.5019 160.997Z" fill="black"/>
</g>
<defs>
<clipPath id="clip0_638_2279">
<rect width="18" height="22" fill="white" transform="translate(22 249)"/>
</clipPath>
<clipPath id="clip1_638_2279">
<rect width="19" height="23" fill="white" transform="translate(21 300)"/>
</clipPath>
<clipPath id="clip2_638_2279">
<rect width="18" height="21" fill="white" transform="translate(22 199)"/>
</clipPath>
<clipPath id="clip3_638_2279">
<rect width="21" height="21" fill="white" transform="translate(21 140)"/>
</clipPath>
</defs>
</svg>
