<svg width="11" height="11" viewBox="0 0 11 11" fill="none" xmlns="http://www.w3.org/2000/svg">
<path d="M1.53294 9.29755C0.790015 8.54895 0.29023 7.59341 0.0989736 6.55594C-0.474052 3.45703 1.4952 0.616133 4.60631 0.0679513C5.02634 -0.0101468 5.45611 -0.0210032 5.87955 0.0357875C6.46455 0.123297 6.99398 0.431266 7.35943 0.89663C7.72488 1.36199 7.89871 1.94954 7.8453 2.53897C7.79643 3.12418 7.53167 3.67026 7.10256 4.07092C6.67346 4.47158 6.11071 4.69814 5.52385 4.70652C3.66501 4.75477 2.14649 5.89518 1.70764 7.63552C1.57207 8.17322 1.58674 8.75007 1.53294 9.29755Z" fill="#EB4747"/>
<path d="M9.3635 1.59497C10.054 2.2781 10.5516 3.1318 10.8058 4.06948C11.7478 7.5096 9.11053 10.9847 5.54659 10.9987C4.21535 11.0036 3.15246 9.98202 3.13499 8.68148C3.11752 7.35717 4.14407 6.31045 5.48998 6.28039C7.773 6.22795 9.49557 4.43657 9.4187 2.1886C9.41451 2.0159 9.38865 1.84319 9.3635 1.59497Z" fill="#EB4747"/>
<circle cx="5.5" cy="5.5" r="5.25" stroke="#EB4747" stroke-width="0.5"/>
</svg>
