<svg width="461" height="422" viewBox="0 0 461 422" fill="none" xmlns="http://www.w3.org/2000/svg">
<g clip-path="url(#clip0_863_33)">
<path d="M392.95 282.019C483.26 314.041 483.731 365.96 394.021 397.989C304.311 430.017 158.352 430.011 68.0612 397.989C-22.2291 365.967 -22.7395 314.021 66.9802 282.019C156.7 250.016 302.64 249.996 392.95 282.019Z" fill="#FFE48F"/>
</g>
<g clip-path="url(#clip1_863_33)">
<path d="M185.1 98.9C185.1 98.9 180.9 121.3 181.5 122.7C182.1 124.1 188.4 130.3 190.7 129.7C191.2 129.6 192.3 128.4 192.3 128.4L201.1 125.4L196.7 87.5L189.7 101.9L185.1 98.9Z" fill="#455A64"/>
<path d="M192.302 128.3C192.202 128.3 192.702 126.8 192.902 124.4C193.202 122 193.102 118.6 192.702 114.9C192.302 111.2 191.602 107.9 190.902 105.5C190.202 103.2 189.602 101.8 189.602 101.7C189.602 101.7 189.802 102 190.102 102.6C190.402 103.2 190.802 104.1 191.202 105.3C192.002 107.6 192.702 111 193.102 114.7C193.502 118.4 193.502 121.9 193.102 124.3C192.902 125.5 192.702 126.5 192.502 127.2C192.502 128 192.302 128.3 192.302 128.3Z" fill="#263238"/>
<path d="M232.5 35.2999C234.1 33.2999 235.7 31.1999 236.7 28.8999C237.8 26.5999 238.3 23.8999 237.7 21.3999C237.3 19.8999 236.6 18.5999 236.4 17.0999C236.1 15.0999 236.8 12.8999 235.9 10.9999C234.5 8.09993 230.4 7.89993 227.8 5.99993C225.8 4.49993 224.6 1.99993 222.4 0.799934C220.5 -0.300066 218.1 -0.100066 216 0.399934C213.9 0.899934 211.7 1.59993 209.5 1.39993C207.9 1.29993 206.4 0.799934 204.9 0.499934C203.4 0.199934 201.7 0.299934 200.4 1.09993C199.1 1.99993 198.5 3.89993 199.5 5.19993C196.9 4.19993 193.8 6.39993 193.4 9.09993C192.9 11.7999 194.5 14.5999 196.8 16.1999C199.1 17.7999 201.9 18.3999 204.7 18.6999C212.5 19.5999 220.8 18.1999 227.2 13.4999" fill="black"/>
<path d="M232.452 25.2804L232.452 25.2803L232.452 25.2871L230.452 64.2871L230.452 64.2886C230.159 70.7422 224.387 75.6364 217.928 74.9513L217.926 74.9511C214.819 74.6504 212.122 74.2523 210.238 73.1825C209.303 72.652 208.576 71.9598 208.097 71.035C207.618 70.109 207.378 68.9311 207.451 67.4145C207.652 64.5076 207.852 57.6058 207.852 57.2999V57.0849L207.639 57.0527L207.639 57.0527L207.638 57.0526L207.634 57.0519L207.615 57.0487C207.608 57.0477 207.601 57.0464 207.592 57.0449C207.577 57.0423 207.558 57.0389 207.536 57.0348C207.466 57.0219 207.362 57.0016 207.23 56.9721C206.965 56.9131 206.584 56.8177 206.126 56.6725C205.208 56.3819 203.982 55.8933 202.749 55.102C200.29 53.5237 197.799 50.7427 197.652 45.8935C197.552 41.1069 198.151 31.3213 198.751 22.4174C199.442 12.9472 207.234 5.6499 216.702 5.6499H217.694C222.813 5.94725 226.691 8.3318 229.197 11.8937C231.708 15.4629 232.849 20.2274 232.452 25.2804Z" fill="#FAFAFA" stroke="black" stroke-width="0.5"/>
<path d="M207.852 57.4624C207.86 57.4626 207.869 57.4629 207.878 57.4632C208.067 57.4688 208.344 57.4719 208.696 57.4624C209.4 57.4434 210.405 57.3737 211.618 57.1716C213.849 56.7997 216.786 55.9787 219.838 54.1971C219.787 54.2793 219.731 54.3666 219.67 54.4581C219.245 55.0956 218.575 55.9393 217.603 56.7588C215.694 58.3678 212.602 59.8962 207.852 59.568V57.4624Z" fill="#B9B4B3" stroke="black" stroke-width="0.5"/>
<path d="M202.302 32.1502C201.652 32.1502 201.152 31.5738 201.152 31.0002C201.152 30.373 201.703 29.9502 202.302 29.9502C202.953 29.9502 203.452 30.5266 203.452 31.1002C203.452 31.4337 203.329 31.6896 203.135 31.8644C202.938 32.0416 202.651 32.1502 202.302 32.1502Z" fill="#263238" stroke="black" stroke-width="0.5"/>
<path d="M201.313 26.9456C201.252 26.9693 201.196 26.9907 201.145 27.0095C201.214 26.9189 201.311 26.814 201.444 26.7059C201.933 26.4141 202.678 26.0503 203.5 26.0503C204.425 26.0503 205.172 26.4164 205.657 26.706C205.752 26.7821 205.833 26.8528 205.901 26.9172C205.802 26.8814 205.69 26.8415 205.567 26.8006C205.068 26.6342 204.389 26.4503 203.6 26.4503C202.758 26.4503 202.076 26.6612 201.589 26.8407C201.484 26.8793 201.393 26.9145 201.313 26.9456ZM206.348 27.0601C206.351 27.06 206.353 27.0601 206.353 27.0602C206.353 27.0603 206.351 27.0603 206.348 27.0601Z" fill="#263238" stroke="black" stroke-width="0.5"/>
<path d="M216.701 32.8504C216.05 32.8504 215.551 32.274 215.551 31.7004C215.551 31.4356 215.684 31.1741 215.906 30.9733C216.128 30.7722 216.42 30.6504 216.701 30.6504C217.351 30.6504 217.851 31.2268 217.851 31.8004C217.851 32.1339 217.728 32.3898 217.534 32.5646C217.337 32.7418 217.049 32.8504 216.701 32.8504Z" fill="#263238" stroke="black" stroke-width="0.5"/>
<path d="M216.313 27.1458C216.252 27.1695 216.196 27.1909 216.145 27.2097C216.214 27.1191 216.311 27.0142 216.444 26.9061C216.933 26.6143 217.678 26.2505 218.5 26.2505C219.425 26.2505 220.172 26.6166 220.657 26.9062C220.752 26.9823 220.833 27.0529 220.901 27.1174C220.802 27.0816 220.69 27.0417 220.567 27.0008C220.068 26.8344 219.389 26.6505 218.6 26.6505C217.758 26.6505 217.076 26.8614 216.589 27.0409C216.484 27.0795 216.393 27.1147 216.313 27.1458ZM221.348 27.2603C221.351 27.2602 221.353 27.2603 221.353 27.2604C221.353 27.2605 221.351 27.2605 221.348 27.2603Z" fill="#263238" stroke="black" stroke-width="0.5"/>
<path d="M206.971 36.7989L206.962 36.8187L206.957 36.8398C206.934 36.9313 206.905 37.0245 206.874 37.1232C206.871 37.1318 206.868 37.1405 206.865 37.1492C206.837 37.2379 206.807 37.3318 206.783 37.4235C206.734 37.6068 206.692 37.8287 206.751 38.0418C206.769 38.3095 206.966 38.4656 207.153 38.5437C207.342 38.6224 207.573 38.6491 207.783 38.6503C207.783 38.6504 207.784 38.6504 207.784 38.6504C207.756 38.6504 207.728 38.6504 207.699 38.6504C207.511 38.6504 207.347 38.6502 207.095 38.5688C206.91 38.4734 206.701 38.3156 206.636 38.1213C206.557 37.8814 206.574 37.6581 206.629 37.436C206.658 37.3231 206.695 37.214 206.734 37.1011C206.736 37.094 206.739 37.0867 206.741 37.0795C206.775 36.9824 206.811 36.8786 206.838 36.778C207.037 36.278 207.212 35.7788 207.384 35.2854L207.385 35.283C207.561 34.7822 207.734 34.2873 207.931 33.7932L207.932 33.7933L207.935 33.7845C208.684 31.687 209.407 29.791 209.968 28.4333C209.979 28.4066 209.99 28.3801 210.001 28.3538C209.996 28.3688 209.991 28.3838 209.986 28.3989C209.538 29.7939 208.864 31.7147 208.066 33.8114L208.066 33.8114L208.064 33.815C207.929 34.1859 207.807 34.541 207.69 34.8824C207.453 35.5709 207.235 36.2038 206.971 36.7989Z" fill="#263238" stroke="black" stroke-width="0.5"/>
<path d="M213.363 42.7901C214.106 42.1529 214.476 41.4103 214.685 40.8357C214.739 40.6869 214.783 40.5473 214.819 40.425C214.837 40.5299 214.849 40.65 214.85 40.7827C214.752 41.4509 214.466 42.3653 213.647 43.003C212.803 43.659 211.763 43.8503 211.1 43.8503C211.058 43.8503 211.017 43.8495 210.978 43.8481C211.026 43.8395 211.074 43.8304 211.124 43.8204C211.77 43.6913 212.617 43.4293 213.363 42.7901Z" fill="#263238" stroke="black" stroke-width="0.5"/>
<path d="M218.828 21.7517C218.131 21.6743 217.475 21.6557 216.93 21.6403C216.762 21.6356 216.605 21.6311 216.46 21.6253C216.148 21.6128 215.904 21.5945 215.729 21.5584C215.654 21.5429 215.601 21.526 215.566 21.5099C215.586 21.4855 215.618 21.4539 215.663 21.4149C215.815 21.2845 216.065 21.1235 216.403 20.9296C216.979 20.741 217.932 20.5541 218.978 20.6491C220.025 20.7443 220.882 21.124 221.453 21.5021C221.688 21.6916 221.866 21.8727 221.972 22.0204C222.019 22.0857 222.045 22.1368 222.059 22.173C222.026 22.1847 221.969 22.1973 221.872 22.2003C221.697 22.2057 221.458 22.1782 221.153 22.1284C220.975 22.0994 220.777 22.0631 220.563 22.0237C220.059 21.9314 219.464 21.8223 218.828 21.7517ZM215.52 21.4826C215.52 21.4826 215.521 21.4828 215.521 21.483L215.52 21.4826Z" fill="black" stroke="black" stroke-width="0.5"/>
<path d="M201.929 22.3143L201.944 22.3056L201.957 22.2951C202.414 21.9293 203.059 21.6499 203.9 21.6499C204.736 21.6499 205.387 21.9254 205.861 22.2076C206.042 22.3452 206.163 22.4712 206.227 22.5716C206.249 22.6067 206.262 22.633 206.268 22.652C206.238 22.6623 206.192 22.6726 206.126 22.6793C205.991 22.6927 205.815 22.6878 205.589 22.6753C205.527 22.6718 205.462 22.6678 205.393 22.6636C204.98 22.6384 204.463 22.6067 203.891 22.6499C203.385 22.6505 202.918 22.6956 202.533 22.7329C202.416 22.7442 202.306 22.7548 202.205 22.7633C201.981 22.7819 201.806 22.7894 201.673 22.7775C201.601 22.771 201.554 22.7597 201.524 22.7487C201.529 22.732 201.537 22.7112 201.549 22.6867C201.6 22.5849 201.714 22.4433 201.929 22.3143ZM201.516 22.7953C201.516 22.7954 201.516 22.7944 201.516 22.7922C201.516 22.7942 201.516 22.7953 201.516 22.7953Z" fill="black" stroke="black" stroke-width="0.5"/>
<path d="M238.252 37.2924L238.252 37.2962C238.227 38.9536 237.796 40.0704 237.187 40.8205C236.578 41.5714 235.772 41.9793 234.954 42.1822C234.134 42.3856 233.312 42.3804 232.694 42.3108C232.385 42.2761 232.131 42.2258 231.958 42.1798C231.918 42.1692 231.884 42.1591 231.855 42.1498C231.857 42.0708 231.86 41.9639 231.864 41.833C231.873 41.5542 231.884 41.1669 231.898 40.7075C231.926 39.7888 231.964 38.5827 232.001 37.3827C232.039 36.1827 232.076 34.989 232.105 34.0952L232.139 33.0163L232.146 32.7838C232.192 32.771 232.247 32.7566 232.31 32.7412C232.502 32.6946 232.766 32.6401 233.079 32.5976C233.706 32.5123 234.513 32.4775 235.3 32.6444C236.084 32.8108 236.838 33.1747 237.386 33.8785C237.934 34.5825 238.3 35.6575 238.252 37.2924Z" fill="#FAFAFA" stroke="black" stroke-width="0.5"/>
<path d="M236.651 37.391C236.65 36.9861 236.606 36.5785 236.517 36.1965C236.611 36.5519 236.65 36.9631 236.651 37.3909C236.651 37.391 236.651 37.391 236.651 37.391Z" fill="#263238" stroke="black" stroke-width="0.5"/>
<path d="M209.178 17.2511L209.178 17.2511L209.175 17.2515C206.969 17.4965 204.484 17.104 202.467 16.329C201.459 15.9419 200.577 15.4627 199.908 14.9281C199.268 14.4164 198.841 13.8679 198.667 13.316C199.454 11.5103 200.99 9.97006 202.557 8.69668C206.218 5.92684 210.667 4.24858 215.208 4.14986C219.749 4.05113 224.384 5.63156 227.731 8.78198L227.732 8.78336C230.391 11.2447 232.168 14.5974 232.958 18.1542L232.958 18.1542L232.96 18.1622C233.848 21.6166 233.752 25.3781 233.156 28.9562C232.857 30.5532 232.466 32.0853 231.422 33.2269C231.098 33.5492 230.661 33.8229 230.222 33.9468C229.783 34.0706 229.373 34.0385 229.055 33.8022C228.852 33.6381 228.724 33.4304 228.621 33.1803C228.553 33.0127 228.502 32.8459 228.447 32.664C228.415 32.5588 228.382 32.4485 228.343 32.3301C227.039 27.1138 225.67 21.5991 227.536 16.6887L227.587 16.5541L227.496 16.4423C227.245 16.1335 226.995 15.7952 226.735 15.4434C226.663 15.3457 226.589 15.2469 226.515 15.1475C226.177 14.6934 225.821 14.2289 225.437 13.8068C224.674 12.9668 223.771 12.2608 222.628 12.1512L222.572 12.1451C221.277 12.0011 220.569 11.9224 219.971 12.0288C219.362 12.1371 218.874 12.4353 218.013 12.9614L217.974 12.9854C217.24 13.4155 216.571 13.8764 215.922 14.3274C215.886 14.3526 215.85 14.3777 215.814 14.4028C215.2 14.8293 214.603 15.2443 213.973 15.6232C212.647 16.4216 211.182 17.0556 209.178 17.2511Z" fill="black" stroke="black" stroke-width="0.5"/>
<path d="M208.7 31.6998C208.6 31.6998 208.8 31.0998 208.7 30.0998C208.6 29.0998 208.2 27.5998 207 26.2998C205.8 24.9998 203.7 23.9998 201.3 24.2998C200.2 24.4998 199 24.9998 198.1 25.8998C197.2 26.7998 196.5 27.8998 196.2 29.2998C196 30.5998 196.1 31.9998 196.7 33.0998C197.2 34.1998 198.1 35.1998 199.1 35.7998C201.1 36.9998 203.5 36.8998 205.1 36.0998C206.7 35.2998 207.6 34.0998 208.1 33.1998C208.6 32.2998 208.7 31.6998 208.7 31.6998C208.7 31.6998 208.7 31.7998 208.7 32.0998C208.7 32.3998 208.6 32.7998 208.3 33.1998C207.9 34.0998 207 35.4998 205.3 36.3998C203.7 37.2998 201.1 37.4998 198.9 36.1998C197.8 35.5998 196.8 34.5998 196.3 33.2998C195.7 32.0998 195.5 30.5998 195.7 29.1998C196 27.7998 196.7 26.4998 197.7 25.5998C198.7 24.6998 200 24.0998 201.2 23.8998C203.7 23.4998 206 24.6998 207.2 26.0998C208.5 27.4998 208.8 29.0998 208.8 30.1998C208.8 30.6998 208.8 31.0998 208.7 31.3998C208.8 31.5998 208.8 31.6998 208.7 31.6998Z" fill="#263238"/>
<path d="M224.899 31.9996C224.799 31.9996 224.999 31.3996 224.899 30.3996C224.799 29.3996 224.399 27.8996 223.199 26.5996C221.999 25.2996 219.899 24.2996 217.499 24.5996C216.399 24.7996 215.199 25.2996 214.299 26.1996C213.399 27.0996 212.699 28.1996 212.399 29.5996C212.199 30.8996 212.299 32.2996 212.899 33.3996C213.399 34.4996 214.299 35.4996 215.299 36.0996C217.299 37.2996 219.699 37.1996 221.299 36.3996C222.899 35.5996 223.799 34.3996 224.299 33.4996C224.699 32.5996 224.799 31.9996 224.899 31.9996C224.899 31.9996 224.899 32.0996 224.899 32.3996C224.899 32.6996 224.799 33.0996 224.499 33.4996C224.099 34.3996 223.199 35.7996 221.499 36.6996C219.899 37.5996 217.299 37.7996 215.099 36.4996C213.999 35.8996 212.999 34.8996 212.499 33.5996C211.899 32.3996 211.699 30.8996 211.899 29.4996C212.199 28.0996 212.899 26.7996 213.899 25.8996C214.899 24.9996 216.199 24.3996 217.399 24.1996C219.899 23.7996 222.199 24.9996 223.399 26.3996C224.699 27.7996 224.999 29.3996 224.999 30.4996C224.999 30.9996 224.999 31.3996 224.899 31.6996C224.899 31.8996 224.899 31.9996 224.899 31.9996Z" fill="#263238"/>
<path d="M211.999 29.6999C211.899 29.7999 211.099 29.2999 210.099 29.3999C209.099 29.4999 208.399 30.1999 208.299 30.0999C208.199 30.0999 208.299 29.7999 208.599 29.4999C208.899 29.1999 209.399 28.8999 209.999 28.7999C210.599 28.6999 211.199 28.8999 211.499 29.1999C211.899 29.4999 211.999 29.6999 211.999 29.6999Z" fill="#263238"/>
<path d="M233.999 31.9997C233.999 32.0997 231.899 31.7997 229.299 31.2997C226.699 30.7997 224.699 30.1997 224.699 30.0997C224.699 29.9997 226.799 30.2997 229.399 30.7997C231.999 31.2997 233.999 31.8997 233.999 31.9997Z" fill="#263238"/>
<path d="M196.501 6.5C196.501 6.5 196.401 6.7 196.501 7.1C196.501 7.5 196.701 8.1 197.201 8.7C197.701 9.3 198.401 9.8 199.401 10.1C200.301 10.4 201.401 10.5 202.601 10.5C204.901 10.6 206.901 10.5 208.401 10.5C209.101 10.5 209.701 10.4 210.101 10.4C210.301 10.4 210.401 10.4 210.601 10.3C210.401 10.3 210.301 10.3 210.101 10.3C209.601 10.3 209.001 10.4 208.301 10.4C206.801 10.5 204.801 10.5 202.501 10.4C201.401 10.4 200.301 10.3 199.401 10C198.501 9.7 197.701 9.2 197.301 8.6C196.801 8 196.601 7.5 196.601 7.1C196.501 6.7 196.501 6.5 196.501 6.5Z" fill="white"/>
<path d="M194.801 7.69971C194.801 7.69971 194.701 8.39971 195.001 9.59971C195.301 10.6997 196.001 12.2997 197.401 13.4997C198.801 14.6997 200.401 15.2997 201.601 15.3997C202.801 15.5997 203.501 15.3997 203.501 15.3997C203.501 15.3997 203.301 15.3997 203.001 15.3997C202.701 15.3997 202.201 15.3997 201.601 15.2997C200.401 15.0997 198.901 14.5997 197.501 13.3997C196.201 12.1997 195.401 10.6997 195.101 9.59971C194.901 8.99971 194.901 8.59971 194.801 8.19971C194.801 7.89971 194.801 7.69971 194.801 7.69971Z" fill="white"/>
<path d="M226.497 320.6L237.797 338.8C237.797 338.8 223.097 356.4 224.797 360L260.897 339.3L244.397 310.2L226.497 320.6Z" fill="#FBC108"/>
<path d="M248.098 330.799C248.898 330.599 249.798 331.099 250.098 331.899C250.298 332.699 249.798 333.699 248.998 333.899C248.198 334.099 247.098 333.499 246.898 332.699C246.698 331.899 247.398 330.799 248.198 330.799" fill="#E0E0E0"/>
<path d="M260.998 339.3L259.198 336.4L225.198 357.3C225.198 357.3 223.998 358.9 224.798 359.9L260.998 339.3Z" fill="white"/>
<path d="M237.197 338.9C237.297 339.1 238.197 338.6 239.397 338.7C240.597 338.7 241.497 339.2 241.597 339.1C241.697 339 240.897 338.1 239.397 338C237.997 338 236.997 338.8 237.197 338.9Z" fill="#263238"/>
<path d="M234.3 342.7C234.4 342.9 235.3 342.8 236.3 343.2C237.3 343.6 238 344.3 238.1 344.2C238.3 344.1 237.8 343 236.5 342.6C235.2 342 234.2 342.5 234.3 342.7Z" fill="#263238"/>
<path d="M234.7 348.4C234.9 348.3 234.6 347.3 233.6 346.6C232.6 345.9 231.5 346 231.6 346.2C231.6 346.4 232.4 346.6 233.2 347.2C234 347.8 234.5 348.5 234.7 348.4Z" fill="#263238"/>
<path d="M234.997 334.5C235.197 334.6 235.797 333.9 236.897 333.4C237.897 332.9 238.897 332.8 238.897 332.6C238.897 332.4 237.797 332.2 236.597 332.8C235.397 333.4 234.897 334.4 234.997 334.5Z" fill="#263238"/>
<path d="M248.098 330.799C248.898 330.599 249.798 331.099 250.098 331.899C250.298 332.699 249.798 333.699 248.998 333.899C248.198 334.099 247.098 333.499 246.898 332.699C246.698 331.899 247.398 330.799 248.198 330.799" fill="#E0E0E0"/>
<path d="M260.998 339.3L259.198 336.4L225.198 357.3C225.198 357.3 223.998 358.9 224.798 359.9L260.998 339.3Z" fill="white"/>
<path d="M237.197 338.9C237.297 339.1 238.197 338.6 239.397 338.7C240.597 338.7 241.497 339.2 241.597 339.1C241.697 339 240.897 338.1 239.397 338C237.997 338 236.997 338.8 237.197 338.9Z" fill="#263238"/>
<path d="M234.3 342.7C234.4 342.9 235.3 342.8 236.3 343.2C237.3 343.6 238 344.3 238.1 344.2C238.3 344.1 237.8 343 236.5 342.6C235.2 342 234.2 342.5 234.3 342.7Z" fill="#263238"/>
<path d="M234.7 348.4C234.9 348.3 234.6 347.3 233.6 346.6C232.6 345.9 231.5 346 231.6 346.2C231.6 346.4 232.4 346.6 233.2 347.2C234 347.8 234.5 348.5 234.7 348.4Z" fill="#263238"/>
<path d="M234.997 334.5C235.197 334.6 235.797 333.9 236.897 333.4C237.897 332.9 238.897 332.8 238.897 332.6C238.897 332.4 237.797 332.2 236.597 332.8C235.397 333.4 234.897 334.4 234.997 334.5Z" fill="#263238"/>
<path d="M224.8 326.3L226 347.7C226 347.7 204.6 356.1 204.5 360.1L246.1 359.2L245.6 325.7L224.8 326.3Z" fill="#FBC108"/>
<path d="M238.8 345.7C239.6 345.9 240.2 346.8 240 347.6C239.8 348.4 238.9 349 238.1 348.8C237.3 348.6 236.6 347.6 236.8 346.8C237.1 346 238.2 345.4 238.9 345.7" fill="#E0E0E0"/>
<path d="M246.1 359.3L245.9 355.9L206.1 358C206.1 358 204.3 358.8 204.5 360.1L246.1 359.3Z" fill="white"/>
<path d="M225.298 347.6C225.298 347.8 226.298 347.9 227.298 348.5C228.298 349.1 228.898 350 228.998 349.9C229.198 349.9 228.898 348.6 227.598 347.9C226.498 347.1 225.198 347.4 225.298 347.6Z" fill="#263238"/>
<path d="M221 349.5C221 349.7 221.8 350 222.6 350.9C223.3 351.7 223.5 352.6 223.7 352.6C223.9 352.6 224 351.4 223.1 350.4C222.2 349.3 221 349.3 221 349.5Z" fill="#263238"/>
<path d="M218.602 354.7C218.802 354.7 219.002 353.7 218.502 352.6C218.002 351.5 217.002 351.1 216.902 351.2C216.802 351.4 217.402 352 217.902 352.9C218.302 353.9 218.402 354.7 218.602 354.7Z" fill="#263238"/>
<path d="M225.601 342.7C225.701 342.9 226.601 342.6 227.801 342.6C229.001 342.6 229.901 343 230.001 342.8C230.101 342.7 229.201 341.9 227.901 341.9C226.401 341.8 225.501 342.5 225.601 342.7Z" fill="#263238"/>
<path d="M238.8 345.7C239.6 345.9 240.2 346.8 240 347.6C239.8 348.4 238.9 349 238.1 348.8C237.3 348.6 236.6 347.6 236.8 346.8C237.1 346 238.2 345.4 238.9 345.7" fill="#E0E0E0"/>
<path d="M246.1 359.3L245.9 355.9L206.1 358C206.1 358 204.3 358.8 204.5 360.1L246.1 359.3Z" fill="white"/>
<path d="M225.298 347.6C225.298 347.8 226.298 347.9 227.298 348.5C228.298 349.1 228.898 350 228.998 349.9C229.198 349.9 228.898 348.6 227.598 347.9C226.498 347.1 225.198 347.4 225.298 347.6Z" fill="#263238"/>
<path d="M221 349.5C221 349.7 221.8 350 222.6 350.9C223.3 351.7 223.5 352.6 223.7 352.6C223.9 352.6 224 351.4 223.1 350.4C222.2 349.3 221 349.3 221 349.5Z" fill="#263238"/>
<path d="M218.602 354.7C218.802 354.7 219.002 353.7 218.502 352.6C218.002 351.5 217.002 351.1 216.902 351.2C216.802 351.4 217.402 352 217.902 352.9C218.302 353.9 218.402 354.7 218.602 354.7Z" fill="#263238"/>
<path d="M225.601 342.7C225.701 342.9 226.601 342.6 227.801 342.6C229.001 342.6 229.901 343 230.001 342.8C230.101 342.7 229.201 341.9 227.901 341.9C226.401 341.8 225.501 342.5 225.601 342.7Z" fill="#263238"/>
<path d="M242.4 188.9C242.4 188.9 245 200.7 243.8 202.4C242.7 204.1 240.6 209.6 240.6 209.6L242.3 262.7L247.5 340.7H222.7L212.1 271.9C212.1 271.9 208.4 265.6 206.9 260.1C205.5 254.7 197 200.4 197 200.4V179.5L242.4 188.9Z" fill="#263238"/>
<path d="M185.898 180.9C185.898 180.9 191.098 252 192.798 258.3C194.498 264.6 229.798 329.1 229.798 329.1L251.098 318.7L222.898 250.6V184.9L185.898 180.9Z" fill="#263238"/>
<path d="M194.297 187C194.297 187 194.297 187.1 194.297 187.4C194.297 187.7 194.397 188.1 194.497 188.6C194.697 189.7 194.897 191.2 195.197 193.1C195.797 197 196.697 202.7 197.797 209.7C198.897 216.7 200.197 225 201.697 234.3C202.497 238.9 203.197 243.8 204.097 248.8C204.997 253.8 206.097 259 207.997 264.1C209.897 269.2 212.497 273.8 213.397 278.8C214.497 283.8 215.197 288.6 215.897 293.3C217.297 302.6 218.397 310.9 219.397 317.9C220.397 324.9 221.097 330.6 221.697 334.5C221.997 336.5 222.197 338 222.397 339C222.497 339.5 222.597 339.9 222.597 340.2C222.697 340.5 222.697 340.6 222.697 340.6C222.697 340.6 222.697 340.5 222.697 340.2C222.697 339.9 222.597 339.5 222.497 339C222.397 337.9 222.097 336.4 221.897 334.5C221.397 330.5 220.597 324.9 219.697 317.9C218.797 310.9 217.697 302.5 216.297 293.2C215.597 288.6 214.897 283.7 213.797 278.7C212.897 273.6 210.197 268.9 208.397 263.9C206.497 258.8 205.397 253.7 204.597 248.7C203.697 243.7 202.997 238.8 202.197 234.2C200.697 225 199.297 216.6 198.197 209.6C196.997 202.6 196.097 197 195.397 193.1C195.097 191.2 194.797 189.7 194.597 188.6C194.497 188.1 194.397 187.7 194.397 187.4C194.397 187.2 194.397 187 194.297 187Z" fill="#455A64"/>
<path d="M244.797 298.7C244.797 298.7 244.797 299.3 244.797 300.3C244.797 301.4 244.897 302.9 244.997 304.8C245.197 308.6 245.597 313.8 245.997 319.5C246.397 325.2 246.797 330.4 247.097 334.2C247.197 336 247.297 337.5 247.397 338.7C247.497 339.8 247.497 340.3 247.597 340.3C247.597 340.3 247.597 339.7 247.597 338.7C247.597 337.6 247.497 336.1 247.497 334.2C247.297 330.4 246.997 325.2 246.597 319.5C246.097 313.8 245.697 308.6 245.397 304.8C245.197 303 245.097 301.5 244.997 300.3C244.897 299.3 244.797 298.7 244.797 298.7Z" fill="#455A64"/>
<path d="M207.198 65.0996L204.298 67.0996C204.298 67.0996 192.598 93.0996 190.698 101.6C188.698 110.1 180.398 198.6 180.398 198.6L187.298 199.2V185.3L207.198 65.0996Z" fill="#455A64"/>
<path d="M206.997 66.7C206.997 66.7 197.497 86.6 195.197 97.7C193.397 106.3 183.797 185.2 183.797 185.2L211.597 183.9L228.197 86.5L231.797 61C231.797 61 215.397 71 211.697 70.4C207.897 69.8 206.997 66.7 206.997 66.7Z" fill="#AFB6E5"/>
<path d="M251.5 74.7998L233.9 60.9998L233.2 56.7998L211.5 69.9998L201 197.6H246.1L240.9 145.4L250.5 89.1998L251.5 74.7998Z" fill="#FBC108"/>
<path d="M211.5 69.7C211.5 69.7 211.6 70.1 211.8 70.9C212.1 71.8 212.4 72.9 212.8 74.2C212.9 74.5 213 74.9 213.2 75.3C213.3 75.7 213.4 76.1 213.8 76.5C214.3 76.8 214.9 76.5 215.3 76.3C215.7 76 216 75.7 216.4 75.4C217.9 74.2 219.5 72.9 221.3 71.5C224.7 68.7 227.8 66.2 230 64.2C231.1 63.2 232 62.4 232.5 61.9C233.1 61.3 233.4 61 233.4 61C233.4 61 233 61.2 232.4 61.8C231.7 62.4 230.8 63.1 229.8 64C227.6 65.8 224.5 68.4 221 71.1C219.3 72.5 217.7 73.8 216.2 75C215.5 75.5 214.7 76.5 214.2 76.1C213.9 75.9 213.8 75.5 213.7 75.1C213.6 74.7 213.4 74.4 213.3 74C212.8 72.7 212.4 71.6 212.1 70.8C211.7 70.1 211.6 69.7 211.5 69.7Z" fill="#263238"/>
<path d="M195.2 88.0996C195.2 88.0996 195.2 88.1996 195.1 88.3996C195 88.5996 195 88.8996 194.9 89.1996C194.7 89.8996 194.4 90.8996 194.1 92.2996C193.8 93.6996 193.4 95.2996 193 97.1996C192.7 99.0996 192.2 101.3 191.8 103.8C190.1 113.6 188.4 127.1 186.7 142.1C185 157.1 183.7 170.7 182.7 180.6C182.2 185.5 181.8 189.5 181.5 192.3C181.4 193.6 181.2 194.7 181.2 195.5C181.2 195.8 181.1 196.1 181.1 196.3C181.1 196.5 181.1 196.6 181 196.6C181 196.6 181 196.5 181 196.3C181 196.1 181 195.8 181.1 195.5C181.2 194.7 181.2 193.7 181.3 192.3C181.5 189.5 181.9 185.5 182.3 180.6C183.2 170.7 184.5 157.1 186.2 142.1C187.9 127.1 189.7 113.5 191.5 103.8C191.9 101.4 192.4 99.1996 192.8 97.1996C193.2 95.2996 193.6 93.5996 194 92.2996C194.3 90.9996 194.7 89.8996 194.9 89.1996C195 88.8996 195.1 88.5996 195.2 88.3996C195.2 88.1996 195.2 88.0996 195.2 88.0996Z" fill="#263238"/>
<path d="M331.778 86.6997L66.2773 107.222L74.7158 216.393L340.217 195.871L331.778 86.6997Z" fill="#E2E4EE"/>
<path d="M340.2 195.8C340.1 194.4 336.9 154.1 331.6 86.7L331.8 86.9C264 92.1 170.1 99.4 66.3 107.5L66.5 107.2C69.5 145.4 72.3 182.3 74.9 216.3L74.6 216.1C151.6 210.2 217.9 205.1 265.1 201.5C312.3 198 339.1 195.9 340.2 195.8C340.2 195.8 339.8 195.8 338.9 195.9C338 196 336.8 196.1 335.1 196.2C331.8 196.5 326.8 196.9 320.4 197.4C307.5 198.4 288.8 199.9 265.3 201.7C218.2 205.4 151.7 210.5 74.7 216.6H74.5V216.4C71.8 182.4 69 145.5 66 107.2V106.9H66.3C170.1 99 264 91.7 331.8 86.5H332V86.7C337.1 154.1 340.1 194.4 340.2 195.8Z" fill="#263238"/>
<path d="M118.531 137.539C118.606 128.868 111.637 121.778 102.966 121.703C94.2955 121.629 87.2059 128.597 87.1313 137.268C87.0566 145.939 94.0252 153.029 102.696 153.103C111.367 153.178 118.457 146.209 118.531 137.539Z" fill="white"/>
<path d="M214.399 123.1C214.399 123.2 195.599 124.8 172.299 126.6C149.099 128.4 130.199 129.7 130.199 129.6C130.199 129.5 148.999 127.9 172.299 126.1C195.499 124.3 214.399 122.9 214.399 123.1Z" fill="#3A3A3A"/>
<path d="M194.499 136.4C194.499 136.5 180.099 137.8 162.399 139.1C144.599 140.5 130.299 141.5 130.199 141.3C130.199 141.2 144.599 139.9 162.299 138.6C180.099 137.2 194.499 136.2 194.499 136.4Z" fill="#E0E0E0"/>
<path d="M304.898 152.1C304.898 152.2 260.398 155.8 205.398 160.1C150.398 164.3 105.898 167.7 105.898 167.5C105.898 167.4 150.398 163.8 205.398 159.5C260.298 155.3 304.898 152 304.898 152.1Z" fill="#263238"/>
<path d="M306 165.6C306 165.7 261.5 169.3 206.5 173.6C151.5 177.8 107 181.2 107 181C107 180.9 151.5 177.3 206.5 173C261.4 168.8 305.9 165.4 306 165.6Z" fill="#263238"/>
<path d="M227.599 82.9C228.699 73.2 239.299 67.9 247.899 72.5C252.099 74.8 255.999 78.8 258.499 85.1C264.899 101.6 277.699 127 275.199 132.5C272.799 137.9 259.999 142.5 259.999 142.5L248.199 122.3L244.299 122.9L226.199 92C226.199 92 226.999 88.3 227.599 82.9Z" fill="#FBC108"/>
<path d="M254.599 115.4C254.599 115.4 253.999 115.1 252.899 115.1C251.799 115.1 250.299 115.6 249.099 116.9C247.999 118.2 247.699 119.8 247.799 120.8C247.899 121.9 248.199 122.5 248.299 122.5C248.399 122.5 248.199 121.9 248.199 120.8C248.199 119.8 248.499 118.4 249.599 117.2C250.599 116.1 251.999 115.6 252.999 115.4C253.999 115.3 254.599 115.5 254.599 115.4Z" fill="#FBC108"/>
<path d="M228.801 83.8C228.901 83.8 229.101 82.2 230.101 79.8C230.601 78.6 231.301 77.3 232.401 75.9C233.401 74.6 234.801 73.3 236.501 72.4C238.201 71.5 240.101 71.2 241.801 71.1C243.501 71 245.001 71.3 246.201 71.7C248.701 72.5 249.801 73.7 249.901 73.6C249.901 73.6 249.801 73.5 249.701 73.4C249.601 73.3 249.401 73 249.101 72.8C248.501 72.3 247.601 71.8 246.401 71.3C245.201 70.9 243.601 70.5 241.801 70.6C240.101 70.6 238.101 70.9 236.301 71.9C234.501 72.8 233.101 74.2 232.001 75.6C231.001 77 230.201 78.4 229.801 79.6C229.301 80.8 229.101 81.9 228.901 82.6C228.801 83.4 228.801 83.8 228.801 83.8Z" fill="#FBC108"/>
<path d="M258.085 139.684C247.89 140.515 235.557 139.232 225.714 137.728C220.731 136.966 216.391 136.148 213.297 135.52C211.75 135.207 210.515 134.941 209.667 134.753C209.243 134.659 208.915 134.585 208.694 134.534C208.653 134.525 208.616 134.516 208.582 134.509L210.317 122.848L248.058 122.551L258.085 139.684Z" fill="white" stroke="black" stroke-width="0.5"/>
<path d="M204.041 110.943L204.028 110.939C203.803 110.872 203.185 110.78 202.351 110.681C201.529 110.583 200.525 110.48 199.55 110.386C198.576 110.293 197.633 110.208 196.934 110.147C196.584 110.117 196.295 110.092 196.094 110.075L195.861 110.056L195.807 110.051C195.149 110.147 194.751 110.4 194.505 110.706C194.253 111.022 194.14 111.422 194.111 111.842C194.082 112.261 194.137 112.681 194.203 113.014C194.235 113.18 194.269 113.322 194.296 113.431C194.299 113.441 194.301 113.45 194.303 113.459C194.314 113.502 194.323 113.54 194.33 113.572L194.331 113.575C194.337 113.602 194.349 113.655 194.349 113.7V113.95H194.099C193.54 113.95 193.236 114.141 193.062 114.39C192.876 114.655 192.806 115.031 192.812 115.446C192.818 115.857 192.897 116.273 192.978 116.592C193.018 116.75 193.057 116.882 193.086 116.973C193.101 117.019 193.113 117.055 193.122 117.078L193.131 117.105L193.133 117.111L193.134 117.113L193.134 117.113L193.134 117.113L193.134 117.113L193.242 117.403L192.935 117.447L191.599 117.638C191.448 117.766 191.339 117.987 191.275 118.293C191.207 118.623 191.2 119.013 191.224 119.396C191.248 119.777 191.303 120.139 191.352 120.406C191.376 120.54 191.399 120.649 191.415 120.724C191.424 120.762 191.43 120.791 191.435 120.811L191.44 120.833L191.442 120.838L191.442 120.839L191.442 120.839L204.041 110.943ZM204.041 110.943L204.055 110.946C204.155 110.964 204.316 111.025 204.535 111.135C204.748 111.243 205 111.388 205.275 111.559C205.826 111.901 206.461 112.341 207.066 112.778C207.669 113.213 208.239 113.643 208.658 113.964C208.868 114.124 209.039 114.257 209.159 114.35C209.205 114.387 209.244 114.417 209.274 114.44M204.041 110.943L209.274 114.44M209.274 114.44L211.341 124.088L208.125 134.419C208.03 134.403 207.904 134.38 207.753 134.351C207.382 134.28 206.856 134.169 206.237 134.008C204.998 133.686 203.393 133.167 201.917 132.379C201.202 131.998 200.379 131.295 199.541 130.437C198.705 129.584 197.868 128.591 197.121 127.645C196.374 126.699 195.72 125.803 195.253 125.143C195.02 124.813 194.833 124.542 194.705 124.354C194.641 124.26 194.592 124.187 194.558 124.137L194.52 124.081L194.511 124.066L194.509 124.063L194.508 124.062L194.508 124.062L194.299 124.2L194.508 124.062L194.431 123.945L194.291 123.95L194.291 123.95L194.29 123.95L194.289 123.95L194.283 123.95L194.259 123.951L194.168 123.953C194.089 123.955 193.977 123.958 193.84 123.959C193.567 123.962 193.203 123.962 192.833 123.95C192.461 123.938 192.092 123.913 191.807 123.868C191.663 123.846 191.552 123.82 191.475 123.792C191.444 123.781 191.423 123.771 191.411 123.765C191.313 123.559 191.088 122.982 190.996 122.399C190.949 122.095 190.941 121.808 190.993 121.579C191.044 121.355 191.147 121.206 191.311 121.123L191.491 121.034L191.442 120.839L209.274 114.44ZM191.401 123.757C191.401 123.757 191.401 123.758 191.402 123.758L191.401 123.757Z" fill="white" stroke="black" stroke-width="0.5"/>
<path d="M194.301 113.2C194.301 113.4 196.301 113.2 198.801 113.4C201.301 113.6 203.201 114 203.301 113.8C203.301 113.7 201.401 113 198.901 112.9C196.301 112.8 194.301 113.1 194.301 113.2Z" fill="#3B4045"/>
<path d="M192.398 117C192.398 117.1 192.798 117.1 193.498 117.1C194.498 117.2 195.298 117.2 196.198 117.3C198.298 117.4 200.098 117.4 200.098 117.2C200.098 117.1 198.398 116.9 196.198 116.8C195.098 116.8 194.198 116.7 193.398 116.8C192.798 116.8 192.398 117 192.398 117Z" fill="#3B4045"/>
<path d="M197.898 120.1C197.998 120 196.498 119.4 194.498 119.6C192.598 119.8 191.198 120.7 191.298 120.8C191.398 120.9 192.698 120.3 194.498 120.1C196.398 119.9 197.898 120.3 197.898 120.1Z" fill="#3B4045"/>
<path d="M158.902 103.088L158.902 103.088L158.902 103.088L158.606 103.122V103.122V103.122V103.122V103.122V103.122V103.122V103.122V103.122V103.123V103.123V103.123V103.123V103.123V103.124V103.124V103.124V103.125V103.125V103.125V103.126V103.126V103.126V103.127V103.127V103.128V103.128V103.129V103.129V103.13V103.13V103.131V103.131V103.132V103.133V103.133V103.134V103.135V103.135V103.136V103.137V103.137V103.138V103.139V103.14V103.14V103.141V103.142V103.143V103.144V103.145V103.146V103.147V103.148V103.148V103.149V103.15V103.151V103.152V103.153V103.155V103.156V103.157V103.158V103.159V103.16V103.161V103.162V103.164V103.165V103.166V103.167V103.168V103.17V103.171V103.172V103.174V103.175V103.176V103.178V103.179V103.18V103.182V103.183V103.185V103.186V103.187V103.189V103.19V103.192V103.194V103.195V103.197V103.198V103.2V103.201V103.203V103.205V103.206V103.208V103.21V103.211V103.213V103.215V103.217V103.218V103.22V103.222V103.224V103.225V103.227V103.229V103.231V103.233V103.235V103.237V103.239V103.241V103.242V103.244V103.246V103.248V103.25V103.252V103.254V103.257V103.259V103.261V103.263V103.265V103.267V103.269V103.271V103.273V103.276V103.278V103.28V103.282V103.285V103.287V103.289V103.291V103.294V103.296V103.298V103.301V103.303V103.305V103.308V103.31V103.312V103.315V103.317V103.32V103.322V103.325V103.327V103.33V103.332V103.335V103.337V103.34V103.342V103.345V103.347V103.35V103.353V103.355V103.358V103.361V103.363V103.366V103.369V103.371V103.374V103.377V103.38V103.382V103.385V103.388V103.391V103.393V103.396V103.399V103.402V103.405V103.408V103.411V103.413V103.416V103.419V103.422V103.425V103.428V103.431V103.434V103.437V103.44V103.443V103.446V103.449V103.452V103.455V103.458V103.461V103.465V103.468V103.471V103.474V103.477V103.48V103.483V103.487V103.49V103.493V103.496V103.499V103.503V103.506V103.509V103.512V103.516V103.519V103.522V103.526V103.529V103.532V103.536V103.539V103.542V103.546V103.549V103.553V103.556V103.56V103.563V103.566V103.57V103.573V103.577V103.58V103.584V103.587V103.591V103.594V103.598V103.602V103.605V103.609V103.612V103.616V103.62V103.623V103.627V103.63V103.634V103.638V103.641V103.645V103.649V103.653V103.656V103.66V103.664V103.668V103.671V103.675V103.679V103.683V103.686V103.69V103.694V103.698V103.702V103.706V103.709V103.713V103.717V103.721V103.725V103.729V103.733V103.737V103.741V103.745V103.748V103.752V103.756V103.76V103.764V103.768V103.772V103.776V103.78V103.784V103.789V103.793V103.797V103.801V103.805V103.809V103.813V103.817V103.821V103.825V103.829V103.834V103.838V103.842V103.846V103.85V103.854V103.859V103.863V103.867V103.871V103.875V103.88V103.884V103.888V103.892V103.897V103.901V103.905V103.91V103.914V103.918V103.923V103.927V103.931V103.936V103.94V103.944V103.949V103.953V103.957V103.962V103.966V103.971V103.975V103.979V103.984V103.988V103.993V103.997V104.002V104.006V104.011V104.015V104.02V104.024V104.029V104.033V104.038V104.042V104.047V104.051V104.056V104.06V104.065V104.069V104.074V104.079V104.083V104.088V104.092V104.097V104.102V104.106V104.111V104.115V104.12V104.125V104.129V104.134V104.139V104.143V104.148V104.153V104.157V104.162V104.167V104.172V104.176V104.181V104.186V104.191V104.195V104.2V104.205V104.21V104.214V104.219V104.224V104.229V104.233V104.238V104.243V104.248V104.253V104.258V104.262V104.267V104.272V104.277V104.282V104.287V104.291V104.296V104.301V104.306V104.311V104.316V104.321V104.326V104.331V104.335V104.34V104.345V104.35V104.355V104.36V104.365V104.37V104.375V104.38V104.385V104.39V104.395V104.4V104.405V104.41V104.415V104.42V104.425V104.43V104.435V104.44V104.445V104.45V104.455V104.46V104.465V104.47V104.475V104.48V104.485V104.49V104.495V104.5V104.505V104.51V104.516V104.521V104.526V104.531V104.536V104.541V104.546V104.551V104.556V104.561V104.567V104.572V104.577V104.582V104.587V104.592V104.597V104.603V104.608V104.613V104.618V104.623V104.628V104.634V104.639V104.644V104.649V104.654V104.659V104.665V104.67V104.675V104.68V104.685V104.691V104.696V104.701V104.706V104.711V104.717V104.722V104.727V104.732V104.738V104.743V104.748V104.753V104.759V104.764V104.769V104.774V104.78V104.785V104.79V104.795V104.801V104.806V104.811V104.816V104.822V104.831L158.607 104.84C158.649 105.171 158.488 105.451 158.207 105.696C157.926 105.943 157.543 106.135 157.197 106.284C156.936 106.396 156.651 106.256 156.394 106.023C156.271 105.912 156.168 105.791 156.095 105.697C156.058 105.65 156.03 105.61 156.011 105.583C156.001 105.569 155.994 105.558 155.989 105.551L155.984 105.543L155.983 105.541L155.983 105.541L155.983 105.541L155.982 105.541L158.902 103.088ZM158.902 103.088L158.902 103.088L158.903 103.09L158.905 103.1C158.907 103.108 158.91 103.121 158.915 103.137C158.924 103.17 158.938 103.217 158.956 103.273C158.993 103.385 159.049 103.528 159.124 103.66C159.2 103.795 159.288 103.905 159.384 103.965C159.472 104.02 159.57 104.038 159.697 103.984L159.708 103.979L159.709 103.979C159.817 103.943 159.931 103.913 160.042 103.883C160.088 103.871 160.134 103.858 160.178 103.846C160.331 103.803 160.477 103.756 160.614 103.687C160.88 103.554 161.129 103.333 161.316 102.868C161.519 102.311 161.871 101.532 162.17 100.895C162.321 100.576 162.458 100.291 162.559 100.085C162.609 99.9829 162.65 99.9002 162.678 99.8432L162.71 99.7775L162.719 99.7604L162.721 99.7561L162.722 99.7549L162.722 99.7547L162.722 99.7546L162.856 99.8216L162.722 99.7545L162.76 99.6779L162.846 99.672L165.478 99.4904C165.447 99.4467 165.411 99.3973 165.371 99.3432C165.208 99.121 164.981 98.8197 164.727 98.5031C164.472 98.1862 164.191 97.8557 163.918 97.5744C163.644 97.2903 163.388 97.0664 163.183 96.9528C162.757 96.7159 162.256 96.596 161.79 96.5841C161.324 96.5721 160.911 96.6679 160.646 96.8422L160.127 97.2744L160.061 97.3291L160.053 97.3359L160.052 97.3367C160.074 97.2572 160.053 97.1932 160.025 97.1643L160 97.1849L159.956 97.3716V97.2216C159.956 97.2734 159.939 97.2955 159.919 97.2955L159.889 97.3558L159.889 97.3558L159.889 97.3557L159.887 97.355L159.882 97.3523L159.859 97.3413C159.839 97.3316 159.809 97.3174 159.77 97.2995C159.693 97.2637 159.58 97.2134 159.439 97.1556C159.159 97.0401 158.771 96.8955 158.342 96.7789C157.911 96.6621 157.443 96.5746 157.001 96.5701C156.558 96.5655 156.153 96.6445 155.837 96.8478L155.763 96.8956L155.685 96.8537L155.685 96.8537L155.685 96.8537L155.685 96.8536L155.684 96.8531L155.679 96.8505L155.658 96.8398C155.64 96.8304 155.612 96.8166 155.576 96.7994C155.505 96.7649 155.401 96.7169 155.271 96.6635C155.011 96.5564 154.651 96.4284 154.25 96.3434C153.439 96.1714 152.507 96.1832 151.862 96.8277L151.773 96.9167L151.67 96.8446L151.67 96.8446L151.67 96.8445L151.67 96.8445L151.669 96.8439L151.665 96.8414L151.65 96.8308C151.636 96.8214 151.615 96.8075 151.587 96.7901C151.533 96.7552 151.453 96.7063 151.354 96.6509C151.156 96.5396 150.884 96.4035 150.583 96.3011C149.969 96.0925 149.304 96.0444 148.87 96.5197C148.448 97.0371 148.229 97.7768 148.168 98.5337C148.107 99.2898 148.205 100.042 148.396 100.568C148.5 100.829 148.615 101.251 148.737 101.726C148.771 101.857 148.805 101.992 148.84 102.13C148.934 102.501 149.034 102.892 149.138 103.269C149.282 103.787 149.432 104.269 149.589 104.625C149.667 104.804 149.744 104.945 149.817 105.041C149.893 105.14 149.947 105.168 149.976 105.173L149.977 105.173L149.99 105.174C150.002 105.176 150.019 105.177 150.042 105.179C150.087 105.183 150.152 105.187 150.231 105.19C150.388 105.197 150.599 105.196 150.814 105.173C151.031 105.148 151.243 105.101 151.408 105.019C151.571 104.937 151.675 104.829 151.71 104.685L151.713 104.674L151.714 104.674C151.863 104.226 151.963 103.902 152.025 103.692C152.056 103.586 152.077 103.509 152.091 103.459C152.098 103.433 152.103 103.415 152.106 103.403L152.109 103.389L152.11 103.386L152.11 103.385L152.11 103.385L152.11 103.385L152.111 103.385L152.404 103.398L152.256 103.422L158.902 103.088Z" fill="white" stroke="black" stroke-width="0.3"/>
<mask id="path-75-inside-1_863_33" fill="white">
<path d="M158.757 102.922C158.757 102.922 158.657 102.622 158.557 102.022C158.457 101.422 158.357 100.622 158.557 99.8216C158.757 99.0216 159.157 98.3216 159.557 97.8216C159.957 97.3216 160.157 97.1216 160.157 97.1216C160.157 97.1216 159.857 97.3216 159.357 97.7216C158.957 98.1216 158.457 98.9216 158.257 99.8216C158.057 100.722 158.157 101.522 158.357 102.122C158.557 102.622 158.757 102.922 158.757 102.922Z"/>
</mask>
<path d="M158.757 102.922C158.757 102.922 158.657 102.622 158.557 102.022C158.457 101.422 158.357 100.622 158.557 99.8216C158.757 99.0216 159.157 98.3216 159.557 97.8216C159.957 97.3216 160.157 97.1216 160.157 97.1216C160.157 97.1216 159.857 97.3216 159.357 97.7216C158.957 98.1216 158.457 98.9216 158.257 99.8216C158.057 100.722 158.157 101.522 158.357 102.122C158.557 102.622 158.757 102.922 158.757 102.922Z" fill="#3B4045"/>
<path d="M158.757 102.922L158.508 103.088L159.042 102.827L158.757 102.922ZM160.157 97.1216L160.37 97.3337L159.991 96.872L160.157 97.1216ZM159.357 97.7216L159.17 97.4873L159.157 97.4977L159.145 97.5094L159.357 97.7216ZM158.357 102.122L158.073 102.216L158.076 102.225L158.079 102.233L158.357 102.122ZM158.757 102.922C159.042 102.827 159.042 102.827 159.042 102.827C159.042 102.827 159.042 102.827 159.042 102.827C159.042 102.827 159.042 102.827 159.042 102.827C159.042 102.827 159.042 102.827 159.042 102.827C159.042 102.827 159.042 102.827 159.042 102.827C159.042 102.827 159.042 102.827 159.042 102.826C159.041 102.824 159.04 102.822 159.039 102.818C159.037 102.81 159.033 102.798 159.028 102.781C159.018 102.748 159.004 102.695 158.986 102.624C158.95 102.481 158.902 102.264 158.853 101.972L158.262 102.071C158.313 102.379 158.365 102.612 158.404 102.769C158.424 102.848 158.44 102.908 158.452 102.949C158.458 102.97 158.463 102.986 158.467 102.997C158.468 103.003 158.47 103.007 158.471 103.01C158.471 103.012 158.472 103.013 158.472 103.014C158.472 103.015 158.472 103.015 158.473 103.016C158.473 103.016 158.473 103.016 158.473 103.016C158.473 103.016 158.473 103.016 158.473 103.016C158.473 103.016 158.473 103.016 158.473 103.016C158.473 103.016 158.473 103.016 158.757 102.922ZM158.853 101.972C158.754 101.378 158.664 100.631 158.848 99.8943L158.266 99.7488C158.05 100.613 158.161 101.465 158.262 102.071L158.853 101.972ZM158.848 99.8943C159.036 99.1432 159.414 98.4815 159.792 98.009L159.323 97.6342C158.901 98.1617 158.479 98.8999 158.266 99.7488L158.848 99.8943ZM159.792 98.009C159.989 97.7628 160.135 97.5918 160.232 97.4834C160.28 97.4292 160.315 97.3907 160.338 97.3663C160.35 97.354 160.358 97.3454 160.363 97.34C160.366 97.3373 160.368 97.3355 160.369 97.3344C160.369 97.3339 160.37 97.3336 160.37 97.3335C160.37 97.3334 160.37 97.3334 160.37 97.3334C160.37 97.3335 160.37 97.3335 160.37 97.3335C160.37 97.3336 160.37 97.3336 160.37 97.3336C160.37 97.3336 160.37 97.3337 160.37 97.3337C160.37 97.3337 160.37 97.3337 160.157 97.1216C159.945 96.9094 159.945 96.9095 159.945 96.9095C159.945 96.9095 159.945 96.9095 159.945 96.9096C159.945 96.9096 159.945 96.9096 159.945 96.9097C159.945 96.9098 159.945 96.9099 159.945 96.91C159.945 96.9102 159.944 96.9105 159.944 96.9109C159.943 96.9115 159.942 96.9124 159.941 96.9135C159.939 96.9156 159.936 96.9185 159.933 96.9223C159.925 96.9298 159.915 96.9407 159.901 96.955C159.874 96.9837 159.835 97.0265 159.783 97.0848C159.68 97.2014 159.526 97.3804 159.323 97.6342L159.792 98.009ZM160.157 97.1216C159.991 96.872 159.991 96.872 159.991 96.872C159.991 96.872 159.991 96.872 159.991 96.872C159.991 96.872 159.991 96.8721 159.991 96.8721C159.991 96.8722 159.991 96.8722 159.991 96.8723C159.99 96.8725 159.99 96.8727 159.99 96.873C159.989 96.8735 159.988 96.8742 159.986 96.8751C159.984 96.877 159.98 96.8796 159.975 96.883C159.965 96.8898 159.95 96.8997 159.931 96.9128C159.894 96.939 159.839 96.9777 159.769 97.029C159.628 97.1315 159.424 97.2843 159.17 97.4873L159.545 97.9558C159.791 97.7589 159.987 97.6117 160.121 97.5142C160.188 97.4655 160.24 97.4292 160.274 97.4054C160.291 97.3934 160.304 97.3846 160.312 97.3789C160.317 97.3761 160.32 97.374 160.322 97.3727C160.323 97.3721 160.323 97.3716 160.324 97.3714C160.324 97.3713 160.324 97.3712 160.324 97.3711C160.324 97.3711 160.324 97.3711 160.324 97.3711C160.324 97.3711 160.324 97.3711 160.324 97.3712C160.324 97.3712 160.324 97.3712 160.324 97.3712C160.324 97.3712 160.324 97.3712 160.157 97.1216ZM159.145 97.5094C158.706 97.9492 158.177 98.7999 157.965 99.7565L158.55 99.8867C158.738 99.0432 159.209 98.294 159.57 97.9337L159.145 97.5094ZM157.965 99.7565C157.752 100.715 157.857 101.57 158.073 102.216L158.642 102.027C158.458 101.473 158.363 100.728 158.55 99.8867L157.965 99.7565ZM158.079 102.233C158.184 102.496 158.289 102.706 158.369 102.853C158.409 102.926 158.443 102.983 158.467 103.023C158.479 103.043 158.489 103.058 158.496 103.069C158.499 103.075 158.502 103.079 158.504 103.082C158.505 103.084 158.506 103.085 158.506 103.086C158.507 103.086 158.507 103.087 158.507 103.087C158.507 103.087 158.508 103.087 158.508 103.088C158.508 103.088 158.508 103.088 158.508 103.088C158.508 103.088 158.508 103.088 158.508 103.088C158.508 103.088 158.508 103.088 158.757 102.922C159.007 102.755 159.007 102.755 159.007 102.755C159.007 102.755 159.007 102.755 159.007 102.755C159.007 102.755 159.007 102.755 159.007 102.755C159.007 102.755 159.007 102.756 159.007 102.756C159.007 102.756 159.007 102.756 159.007 102.756C159.007 102.755 159.007 102.755 159.006 102.754C159.005 102.753 159.004 102.75 159.001 102.746C158.997 102.739 158.989 102.727 158.979 102.711C158.96 102.679 158.931 102.63 158.896 102.565C158.826 102.437 158.731 102.248 158.636 102.01L158.079 102.233Z" fill="black" mask="url(#path-75-inside-1_863_33)"/>
<path d="M155.107 101.031C155.128 101.517 155.172 101.983 155.23 102.417C155.157 101.979 155.107 101.511 155.107 101.028C155.107 101.029 155.107 101.03 155.107 101.031Z" fill="#3B4045" stroke="black" stroke-width="0.3"/>
<mask id="path-78-inside-2_863_33" fill="white">
<path d="M151.755 96.7217C151.655 96.7217 151.455 98.2217 151.555 100.122C151.655 102.022 152.155 103.422 152.255 103.422C152.355 103.422 151.955 101.922 151.855 100.122C151.655 98.3217 151.855 96.8217 151.755 96.7217Z"/>
</mask>
<path d="M151.755 96.7217C151.655 96.7217 151.455 98.2217 151.555 100.122C151.655 102.022 152.155 103.422 152.255 103.422C152.355 103.422 151.955 101.922 151.855 100.122C151.655 98.3217 151.855 96.8217 151.755 96.7217Z" fill="#3B4045"/>
<path d="M151.755 96.7217L151.967 96.5095L151.879 96.4217H151.755V96.7217ZM151.855 100.122L152.154 100.105L152.154 100.097L152.153 100.089L151.855 100.122ZM151.755 96.4217C151.653 96.4217 151.583 96.4695 151.547 96.5003C151.512 96.5313 151.49 96.564 151.478 96.5836C151.454 96.6235 151.438 96.6653 151.428 96.6953C151.407 96.7597 151.389 96.8416 151.372 96.9316C151.338 97.1152 151.306 97.3728 151.281 97.6848C151.23 98.3103 151.204 99.1737 151.255 100.137L151.854 100.106C151.805 99.1697 151.83 98.3331 151.879 97.7336C151.903 97.4331 151.933 97.1969 151.962 97.0399C151.977 96.9596 151.99 96.9095 151.998 96.8843C152.003 96.8697 152.002 96.8774 151.991 96.8944C151.986 96.9025 151.971 96.9266 151.943 96.9518C151.914 96.9768 151.85 97.0217 151.755 97.0217V96.4217ZM151.255 100.137C151.306 101.109 151.459 101.953 151.614 102.558C151.691 102.86 151.769 103.107 151.837 103.282C151.871 103.368 151.905 103.445 151.938 103.504C151.954 103.532 151.976 103.568 152.004 103.601C152.017 103.617 152.04 103.641 152.072 103.664C152.102 103.684 152.166 103.722 152.255 103.722V103.122C152.337 103.122 152.394 103.156 152.416 103.172C152.44 103.189 152.455 103.205 152.459 103.21C152.469 103.222 152.469 103.225 152.462 103.212C152.448 103.187 152.426 103.139 152.397 103.065C152.34 102.918 152.268 102.696 152.195 102.41C152.05 101.84 151.903 101.034 151.854 100.106L151.255 100.137ZM152.255 103.722C152.369 103.722 152.455 103.661 152.502 103.597C152.542 103.545 152.555 103.493 152.561 103.469C152.572 103.419 152.571 103.371 152.57 103.343C152.568 103.28 152.558 103.2 152.545 103.115C152.52 102.943 152.474 102.691 152.426 102.397C152.326 101.801 152.203 100.989 152.154 100.105L151.555 100.138C151.606 101.055 151.733 101.892 151.834 102.496C151.885 102.802 151.927 103.038 151.952 103.203C151.964 103.287 151.969 103.338 151.97 103.364C151.971 103.381 151.969 103.367 151.975 103.339C151.978 103.327 151.988 103.284 152.023 103.237C152.066 103.18 152.146 103.122 152.255 103.122V103.722ZM152.153 100.089C152.055 99.2076 152.055 98.3976 152.067 97.7903C152.073 97.4928 152.083 97.2284 152.084 97.0446C152.085 96.9518 152.084 96.8664 152.078 96.7978C152.076 96.7641 152.071 96.7247 152.062 96.6863C152.056 96.6615 152.036 96.5784 151.967 96.5095L151.542 96.9338C151.51 96.9013 151.495 96.8696 151.488 96.8558C151.482 96.8404 151.479 96.8294 151.478 96.8269C151.477 96.8223 151.479 96.8271 151.48 96.8475C151.484 96.8871 151.485 96.9494 151.484 97.0394C151.483 97.2212 151.474 97.4631 151.467 97.7781C151.455 98.3957 151.454 99.2357 151.556 100.155L152.153 100.089Z" fill="black" mask="url(#path-78-inside-2_863_33)"/>
</g>
<defs>
<clipPath id="clip0_863_33">
<rect width="461" height="164" fill="white" transform="translate(0 258)"/>
</clipPath>
<clipPath id="clip1_863_33">
<rect width="274.2" height="360.2" fill="white" transform="translate(66)"/>
</clipPath>
</defs>
</svg>
