<svg width="289" height="333" viewBox="0 0 289 333" fill="none" xmlns="http://www.w3.org/2000/svg">
<g clip-path="url(#clip0_629_612)">
<path d="M197.21 220.369C195.123 215.589 191.559 211.429 186.59 208.711C174.771 202.129 159.741 206.405 153.159 218.224C147.103 229.119 150.221 242.645 160.056 249.917L154.464 260.016C139.117 249.685 134.011 229.226 143.188 212.693C152.829 195.363 174.757 189.005 192.12 198.74C199.861 203.035 205.356 209.699 208.207 217.284L197.21 220.369Z" fill="white"/>
<path d="M154.629 260.488C154.724 260.455 154.818 260.422 154.88 260.295L160.472 250.197C160.595 249.942 160.53 249.753 160.37 249.597C150.694 242.481 147.737 229.111 153.608 218.597C160.067 207.033 174.686 202.794 186.345 209.22C191.059 211.815 194.652 215.753 196.71 220.755C196.776 220.944 197.031 221.067 197.347 221.063L208.372 217.756C208.467 217.723 208.656 217.658 208.717 217.53C208.779 217.403 208.841 217.276 208.68 217.12C205.604 209.19 199.793 202.53 192.307 198.358C183.769 193.599 173.95 192.462 164.53 195.21C155.204 197.925 147.378 204.036 142.619 212.574C138.106 220.602 136.9 229.916 139.072 238.901C141.213 247.791 146.531 255.47 154.124 260.558C154.313 260.492 154.502 260.426 154.629 260.488ZM159.458 250.02L154.297 259.227C139.488 248.921 134.764 228.647 143.571 212.878C148.207 204.595 155.75 198.582 164.887 195.933C174.024 193.284 183.621 194.392 191.904 199.027C199.009 203.014 204.594 209.33 207.633 216.849L197.519 219.732C195.273 214.796 191.646 210.764 186.837 208.202C180.944 204.958 174.23 204.223 167.771 206.047C161.311 207.871 156.022 212.146 152.746 217.945C146.689 228.84 149.651 242.526 159.458 250.02Z" fill="black"/>
<path d="M165.568 252.976C170.75 255.091 176.413 255.238 181.485 253.686L185.924 264.317C177.642 266.987 168.468 266.79 160.07 263.042L165.568 252.976Z" fill="black"/>
<path d="M186.088 264.789C186.182 264.756 186.338 264.596 186.4 264.469C186.461 264.342 186.429 264.247 186.363 264.058L181.923 253.427C181.857 253.238 181.603 253.115 181.287 253.119C176.182 254.577 170.614 254.397 165.686 252.405C165.431 252.282 165.148 252.381 165.119 252.603L159.527 262.701C159.465 262.828 159.404 262.955 159.469 263.144C159.502 263.239 159.662 263.395 159.79 263.456C168.093 267.238 177.46 267.685 186.088 264.789ZM181.176 254.322L185.287 264.009C177.16 266.519 168.553 266.125 160.73 262.812L165.891 253.604C170.754 255.407 176.166 255.747 181.176 254.322Z" fill="black"/>
<path d="M187.303 251.238C190.913 249.135 193.972 246.059 196.103 242.142C198.821 237.172 199.667 231.69 198.935 226.545L209.994 223.333C211.522 231.377 210.369 239.931 206.168 247.639C202.74 253.914 197.648 258.756 191.743 261.869L187.303 251.238Z" fill="#FFD42E"/>
<path d="M191.908 262.342C198.158 259.003 203.184 253.972 206.584 247.918C210.756 240.432 212.159 231.685 210.5 223.263C210.467 223.168 210.401 222.979 210.274 222.918C210.147 222.856 210.019 222.795 209.83 222.86L198.772 226.072C198.583 226.138 198.365 226.426 198.431 226.614C199.228 231.949 198.317 237.242 195.689 241.862C193.681 245.525 190.655 248.696 187.045 250.798C186.856 250.864 186.766 251.213 186.832 251.402L191.272 262.034C191.304 262.128 191.465 262.284 191.592 262.346C191.686 262.313 191.814 262.374 191.908 262.342ZM209.654 223.875C211.055 231.858 209.708 240.161 205.754 247.36C202.478 253.159 197.797 257.964 192.019 261.138L187.969 251.324C191.546 249.127 194.572 245.956 196.674 242.26C199.364 237.513 200.337 232.092 199.54 226.758L209.654 223.875Z" fill="black"/>
<path d="M143.87 71.0022L145.985 68.2548C148.691 64.7723 153.845 64.6734 156.736 68.1145L158.954 70.8369C163.29 68.693 162.567 69.0504 166.809 66.9393L165.942 63.5351C164.874 59.248 168.11 55.1577 172.504 55.0054L175.982 54.96C176.996 50.2662 176.848 51.0588 177.862 46.365L174.713 44.9197C170.705 43.1378 169.435 37.9677 172.174 34.5797L174.289 31.8323C171.205 28.1408 171.751 28.7978 168.634 25.0118L165.587 26.6012C161.628 28.6136 156.951 26.4293 155.883 22.1422L154.983 18.6435C150.146 18.7382 150.967 18.6643 146.13 18.759L145.415 22.1839C144.492 26.5287 139.81 28.8984 135.864 26.9892L132.714 25.5439C129.791 29.3139 130.32 28.7061 127.302 32.5089L129.52 35.2314C132.284 38.6108 131.212 43.7481 127.348 45.7277L124.268 47.2227C125.373 51.9205 125.205 51.132 126.404 55.7969L129.722 55.5955C134.149 55.5377 137.459 59.5742 136.503 63.8245L135.789 67.2494C140.211 69.3106 139.448 68.941 143.87 71.0022Z" fill="white"/>
<path d="M158.991 71.2474C159.086 71.2145 159.086 71.2145 158.991 71.2474L166.941 67.3169C167.13 67.2512 167.253 66.9966 167.187 66.8077L166.321 63.4035C165.885 61.5432 166.238 59.5146 167.421 58.0444C168.571 56.4797 170.394 55.6337 172.386 55.5761L175.864 55.5307C176.086 55.5594 176.336 55.3664 176.365 55.1446L178.245 46.5496C178.274 46.3278 178.208 46.1389 177.953 46.0157L174.804 44.5705C173.054 43.8027 171.769 42.2382 171.3 40.2835C170.865 38.4233 171.218 36.3946 172.495 34.8916L174.61 32.1442C174.766 31.984 174.762 31.6678 174.601 31.5118L168.946 24.6912C168.786 24.5352 168.564 24.5065 168.376 24.5722L165.329 26.1616C163.633 27.0693 161.608 27.0324 159.859 26.2646C158.077 25.4024 156.824 23.9323 156.356 21.9777L155.489 18.5734C155.423 18.3845 155.263 18.2285 155.041 18.1998L146.06 18.2538C145.839 18.225 145.588 18.418 145.559 18.6398L144.845 22.0647C144.459 23.9989 143.215 25.5964 141.486 26.4096C139.79 27.3172 137.766 27.2804 136.016 26.5126L132.867 25.0673C132.612 24.9441 132.423 25.0099 132.267 25.17L126.855 32.135C126.699 32.2952 126.703 32.6114 126.863 32.7674L129.081 35.4899C130.334 36.9599 130.802 38.9146 130.416 40.8488C130.03 42.783 128.786 44.3805 127.057 45.1937L123.977 46.6887C123.789 46.7544 123.665 47.009 123.731 47.1979L125.867 55.7721C125.933 55.961 126.093 56.1171 126.315 56.1458L129.793 56.1004C131.785 56.0428 133.567 56.905 134.819 58.3751C136.072 59.8451 136.54 61.7998 136.154 63.734L135.44 67.1589C135.411 67.3806 135.477 67.5695 135.732 67.6927L143.686 71.3839C143.941 71.5071 144.13 71.4414 144.286 71.2812L146.4 68.5338C147.55 66.9692 149.373 66.1231 151.365 66.0655C153.262 66.0407 155.139 66.8701 156.392 68.3401L158.609 71.0626C158.642 71.1571 158.802 71.3131 158.991 71.2474ZM166.14 66.5367L158.913 70.1099L156.921 67.7323C155.476 66.0118 153.439 65.0264 151.131 65.0881C148.918 65.117 146.844 66.1561 145.444 67.9138L143.547 70.3737L136.229 66.9904L136.885 64.0091C137.394 61.8203 136.828 59.5823 135.382 57.8617C133.936 56.1412 131.805 55.1886 129.592 55.2175L126.524 55.2259L124.651 47.4073L127.447 46.0109C129.427 45.0047 130.921 43.2141 131.303 40.9637C131.812 38.7749 131.245 36.5369 129.8 34.8164L127.808 32.4388L132.69 26.0816L135.458 27.3422C137.495 28.3276 139.803 28.2658 141.782 27.2596C143.761 26.2534 145.223 24.3684 145.638 22.2125L146.295 19.2311L154.294 19.095L155.029 22.1215C155.563 24.2651 157.042 26.08 159.079 27.0655C161.115 28.0509 163.423 27.9891 165.497 26.9501L168.294 25.5537L173.402 31.7172L171.505 34.1771C170.105 35.9348 169.629 38.218 170.163 40.3616C170.697 42.5052 172.175 44.3201 174.212 45.3056L177.202 46.5948L175.502 54.4917L172.435 54.5002C170.221 54.529 168.148 55.5681 166.747 57.3258C165.347 59.0835 164.871 61.3667 165.438 63.6047L166.14 66.5367Z" fill="black"/>
<path d="M145.432 56.4741C139.267 53.4917 136.687 46.0764 139.67 39.9117C142.652 33.747 150.068 31.1672 156.232 34.1496C162.397 37.1321 164.977 44.5473 161.994 50.712C159.012 56.8768 151.597 59.4565 145.432 56.4741Z" fill="black"/>
<path d="M155.048 57.4787C161.753 55.1458 165.326 47.7621 162.993 41.0563C160.66 34.3505 153.276 30.7783 146.57 33.1113C139.864 35.4442 136.292 42.828 138.625 49.5337C140.958 56.2395 148.342 59.8117 155.048 57.4787ZM146.899 34.0558C153.132 31.8871 159.912 35.2458 162.048 41.3849C164.184 47.524 160.858 54.3985 154.719 56.5343C148.58 58.6701 141.705 55.3442 139.57 49.2052C137.434 43.0661 140.665 36.2244 146.899 34.0558Z" fill="black"/>
<path d="M147.306 52.6032C143.279 50.655 141.594 45.8112 143.542 41.7843C145.49 37.7573 150.334 36.0721 154.361 38.0203C158.388 39.9685 160.073 44.8123 158.125 48.8393C156.177 52.8663 151.333 54.5514 147.306 52.6032Z" fill="white"/>
<path d="M153.635 53.4175C158.074 51.8731 160.508 47.0026 158.931 42.4692C157.387 38.0301 152.516 35.5953 147.983 37.1725C143.544 38.7168 141.109 43.5873 142.686 48.1208C144.264 52.6543 149.196 54.9618 153.635 53.4175ZM148.312 38.117C152.278 36.7369 156.607 38.831 157.987 42.7977C159.367 46.7645 157.273 51.0929 153.306 52.473C149.339 53.853 145.011 51.759 143.631 47.7922C142.251 43.8254 144.345 39.497 148.312 38.117Z" fill="black"/>
<path d="M103.367 188.888L110.441 183.999L112.716 187.289L105.641 192.179L103.367 188.888Z" fill="black"/>
<path d="M105.829 192.656L105.924 192.623L113.007 187.723C113.102 187.69 113.163 187.563 113.225 187.436C113.286 187.308 113.254 187.214 113.093 187.058L110.806 183.83C110.613 183.58 110.391 183.551 110.141 183.744L103.057 188.644C102.963 188.677 102.901 188.804 102.84 188.931C102.778 189.058 102.811 189.153 102.971 189.309L105.258 192.536C105.419 192.693 105.64 192.721 105.829 192.656ZM112.083 187.198L105.846 191.485L104.137 189.009L110.375 184.721L112.083 187.198Z" fill="black"/>
<path d="M66.7189 166.664C59.7248 156.604 62.4219 142.748 72.6754 136.004C82.3335 129.68 95.4252 132.007 102.251 141.279C106.017 146.322 107.204 152.473 106.141 158.243C105.02 164.456 103.908 168.867 107.518 174.069L95.137 182.612C91.527 177.409 87.2193 176.896 81.006 175.775C75.3636 174.774 70.1687 171.711 66.7189 166.664Z" fill="white"/>
<path d="M95.2677 182.99L95.3621 182.957L107.743 174.415C107.993 174.222 108.022 174 107.829 173.749C104.605 169.048 105.311 164.99 106.345 159.442C106.436 159.093 106.493 158.65 106.584 158.301C107.737 152.182 106.328 146.002 102.595 141.054C99.2151 136.512 94.209 133.383 88.5666 132.382C82.9242 131.38 77.1834 132.53 72.3543 135.693C67.2748 139.048 63.8627 144.153 62.6434 150.082C61.4242 156.012 62.8003 162.098 66.2172 167.05C69.6341 172.003 74.8332 175.382 80.7918 176.379L81.4571 176.465C87.4157 177.463 91.2512 178.14 94.6353 182.998C94.6681 183.093 94.7955 183.154 94.9228 183.216C95.0788 183.056 95.1732 183.023 95.2677 182.99ZM106.819 173.889L95.2224 181.947C91.7439 177.122 87.4649 176.387 81.728 175.418L81.0628 175.332C75.3259 174.363 70.4143 171.202 67.0631 166.438C63.8063 161.642 62.5617 155.934 63.6577 150.259C64.7538 144.584 68.0099 139.639 72.9334 136.444C82.4026 130.185 95.0837 132.55 101.844 141.633C105.417 146.425 106.727 152.322 105.697 158.186C105.639 158.629 105.549 158.978 105.458 159.327C104.453 164.654 103.624 168.966 106.819 173.889Z" fill="black"/>
<path d="M110.323 175.741L106.294 169.943L91.6265 180.128L95.6554 185.926C98.4276 189.938 103.976 190.972 108.082 188.167C112.155 185.268 113.19 179.72 110.323 175.741Z" fill="#FFD42E"/>
<path d="M104.887 190.549C105.454 190.352 106.082 190.028 106.677 189.609L109.999 187.288C111.63 186.192 112.714 184.438 113.005 182.537C113.391 180.603 112.923 178.648 111.826 177.018L106.701 169.589C106.508 169.339 106.286 169.31 106.036 169.503L91.3678 179.688C91.1173 179.881 91.0885 180.103 91.2816 180.354L96.407 187.782C98.3413 190.603 101.865 191.601 104.887 190.549ZM111.108 177.691C112.106 179.038 112.414 180.837 112.151 182.516C111.888 184.196 110.927 185.695 109.453 186.631L106.131 188.952C103.216 190.919 99.253 190.18 97.1913 187.297L92.2918 180.214L106.114 170.641L111.108 177.691Z" fill="black"/>
<path d="M95.2521 181.725L106.598 173.86C106.692 173.827 106.659 173.733 106.627 173.638C106.594 173.544 106.499 173.577 106.405 173.61L95.0591 181.474C94.9646 181.507 94.9975 181.602 95.0304 181.696C95.1248 181.663 95.1577 181.758 95.2521 181.725Z" fill="black"/>
<path d="M83.2599 164.298L94.6057 156.433C94.7001 156.4 94.6673 156.306 94.6344 156.211C94.6016 156.117 94.5071 156.15 94.4127 156.182L83.0669 164.047C82.9725 164.08 83.0053 164.174 83.0382 164.269C83.071 164.363 83.1655 164.33 83.2599 164.298Z" fill="black"/>
<path d="M67.4353 129.463L67.5297 129.43C67.7802 129.237 67.8089 129.016 67.6159 128.765L62.7821 121.871C62.5891 121.62 62.3673 121.591 62.1168 121.784C61.8663 121.977 61.8376 122.199 62.0306 122.45L66.8645 129.344C66.9918 129.406 67.1519 129.562 67.4353 129.463Z" fill="black"/>
<path d="M52.5502 149.676C52.7391 149.611 52.8007 149.483 52.8623 149.356C52.891 149.134 52.7924 148.851 52.4434 148.761L44.0742 147.225C43.8525 147.196 43.5691 147.295 43.4788 147.644C43.4501 147.866 43.5486 148.149 43.8977 148.24L52.2669 149.775C52.3613 149.742 52.4558 149.709 52.5502 149.676Z" fill="black"/>
<path d="M50.2152 176.747L50.3096 176.714L57.2041 171.88C57.4546 171.687 57.4833 171.465 57.2903 171.215C57.0973 170.964 56.8755 170.936 56.6251 171.129L49.7305 175.963C49.4801 176.156 49.4513 176.377 49.6444 176.628C49.7717 176.689 50.0263 176.813 50.2152 176.747Z" fill="black"/>
<path d="M90.5372 123.438C90.7261 123.372 90.7877 123.244 90.8493 123.117L92.3846 114.748C92.4133 114.526 92.3147 114.243 91.9657 114.153C91.7439 114.124 91.4606 114.222 91.3703 114.572L89.835 122.941C89.8062 123.162 89.9048 123.446 90.2539 123.536C90.3483 123.503 90.4428 123.47 90.5372 123.438Z" fill="black"/>
<path d="M109.703 135.616L109.798 135.583L116.692 130.749C116.943 130.556 116.972 130.334 116.779 130.084C116.586 129.834 116.364 129.805 116.113 129.998L109.219 134.832C108.968 135.025 108.94 135.246 109.133 135.497C109.198 135.686 109.42 135.715 109.703 135.616Z" fill="black"/>
<path d="M101.53 173.294L101.625 173.261C101.875 173.068 101.904 172.846 101.805 172.563C101.74 172.374 93.4724 159.262 95.6893 149.809C95.718 149.587 95.6194 149.304 95.2704 149.214C95.0486 149.185 94.7653 149.283 94.675 149.633C92.3677 159.435 100.541 172.579 100.927 173.08C101.12 173.331 101.341 173.359 101.53 173.294Z" fill="black"/>
<path d="M96.3294 176.904C96.3294 176.904 96.4239 176.871 96.5183 176.838C96.7688 176.645 96.7647 176.329 96.6045 176.173C96.2185 175.672 86.8548 163.365 76.8759 162.072C76.6542 162.044 76.4037 162.237 76.2805 162.491C76.2518 162.713 76.4448 162.964 76.6994 163.087C86.2677 164.417 95.7258 176.69 95.7915 176.879C95.9188 176.941 96.1405 176.97 96.3294 176.904Z" fill="black"/>
<path d="M76.8208 162.832L76.9152 162.799C77.8555 162.154 77.9705 161.267 78.0567 160.602C78.1428 159.937 78.2003 159.493 78.7957 159.074C79.3911 158.656 79.8675 158.807 80.5328 158.894C81.2309 159.074 82.0235 159.222 82.9638 158.577C83.9041 157.933 84.0191 157.045 84.1053 156.38C84.1915 155.715 84.2489 155.271 84.8443 154.853C85.4398 154.434 85.9161 154.586 86.5814 154.672C87.2795 154.852 88.0721 155 89.0124 154.355C89.9528 153.711 90.0677 152.824 90.1539 152.158C90.2401 151.493 90.2975 151.05 90.8929 150.631C91.4884 150.212 91.9647 150.364 92.63 150.45C93.3281 150.631 94.1207 150.778 95.061 150.134C95.3115 149.94 95.3402 149.719 95.1472 149.468C94.9542 149.218 94.7324 149.189 94.4819 149.382C93.8865 149.801 93.4102 149.649 92.7449 149.563C92.0468 149.382 91.2542 149.234 90.3139 149.879C89.3735 150.524 89.2586 151.411 89.1724 152.076C89.0862 152.742 89.0288 153.185 88.4333 153.604C87.8379 154.023 87.3616 153.871 86.6963 153.785C85.9982 153.604 85.2056 153.456 84.2653 154.101C83.3249 154.746 83.21 155.633 83.1238 156.298C83.0376 156.963 82.9801 157.407 82.3847 157.826C81.7893 158.245 81.313 158.093 80.6477 158.007C79.9496 157.826 79.157 157.678 78.2167 158.323C77.2763 158.968 77.1614 159.855 77.0752 160.52C76.989 161.185 76.9315 161.629 76.3361 162.048C76.0856 162.241 76.0569 162.463 76.2499 162.713C76.4101 162.869 76.6319 162.898 76.8208 162.832Z" fill="black"/>
<path d="M100.159 240.263C100.348 240.197 100.504 240.037 100.533 239.815C100.561 239.593 100.368 239.343 100.052 239.347L86.7593 238.572L80.1183 226.483C80.0526 226.294 79.798 226.171 79.5147 226.269L66.3782 230.204L51.6636 214.995C51.5034 214.839 51.1543 214.748 51.0312 215.003C50.8751 215.163 50.7848 215.512 51.0394 215.635L65.9471 231.095C66.1072 231.251 66.2345 231.313 66.4234 231.247L79.4654 227.345L85.9792 239.373C86.0449 239.562 86.1722 239.623 86.3939 239.652L99.9085 240.456C100.065 240.296 100.159 240.263 100.159 240.263Z" fill="black"/>
<path d="M268.83 270.414C269.113 270.315 269.236 270.061 269.138 269.777C269.039 269.494 268.785 269.371 268.501 269.469C267.241 269.802 266.041 270.008 264.715 270.151C264.399 270.155 264.276 270.41 264.247 270.632C264.251 270.948 264.506 271.071 264.727 271.1C266.181 271.018 267.569 270.747 268.83 270.414ZM272.48 269.038C272.575 269.005 272.575 269.005 272.48 269.038C273.737 268.389 274.866 267.679 275.963 266.874C276.213 266.681 276.209 266.364 276.049 266.208C275.856 265.958 275.54 265.962 275.383 266.122C274.382 266.894 273.347 267.572 272.185 268.188C271.901 268.287 271.811 268.636 272.004 268.886C272.037 268.981 272.291 269.104 272.48 269.038ZM261.056 270.895C261.245 270.829 261.307 270.702 261.335 270.48C261.364 270.258 261.171 270.008 260.917 269.885C259.68 269.679 258.411 269.38 257.204 268.953C256.95 268.83 256.699 269.023 256.576 269.277C256.453 269.532 256.646 269.782 256.9 269.906C258.108 270.332 259.504 270.694 260.834 270.866C260.962 270.928 261.056 270.895 261.056 270.895ZM278.615 264.151C278.71 264.118 278.804 264.085 278.866 263.958C279.675 262.935 280.451 261.818 281.099 260.64C281.223 260.385 281.124 260.102 280.869 259.978C280.615 259.855 280.331 259.954 280.208 260.208C279.654 261.354 278.845 262.377 278.036 263.399C277.88 263.56 277.884 263.876 278.077 264.126C278.205 264.188 278.426 264.217 278.615 264.151ZM253.718 268.366C253.812 268.333 253.907 268.3 253.968 268.173C254.091 267.918 253.993 267.635 253.833 267.479C252.748 266.797 251.759 266.083 250.798 265.146C250.638 264.99 250.321 264.995 250.071 265.188C249.915 265.348 249.919 265.664 250.112 265.914C251.073 266.851 252.19 267.627 253.274 268.308C253.496 268.337 253.623 268.399 253.718 268.366ZM282.257 257.272C282.446 257.206 282.508 257.079 282.569 256.952C282.963 255.65 283.263 254.381 283.308 252.989C283.337 252.767 283.144 252.517 282.922 252.488C282.7 252.459 282.45 252.652 282.421 252.874C282.343 254.172 282.044 255.441 281.711 256.615C281.588 256.87 281.781 257.12 282.035 257.243C282.068 257.338 282.163 257.305 282.257 257.272ZM248.05 263.032L248.145 262.999C248.395 262.806 248.391 262.49 248.231 262.334C247.459 261.332 246.843 260.17 246.354 259.069C246.256 258.786 245.906 258.695 245.75 258.856C245.467 258.954 245.377 259.303 245.537 259.459C246.059 260.654 246.802 261.878 247.574 262.88C247.64 263.069 247.767 263.13 248.05 263.032ZM282.979 249.609C283.168 249.544 283.292 249.289 283.32 249.067C283.176 247.741 282.938 246.447 282.478 245.125C282.445 245.031 282.412 244.936 282.412 244.936C282.38 244.842 282.474 244.809 282.441 244.714C282.014 243.487 281.46 242.197 280.749 241.068C280.556 240.818 280.334 240.789 280.051 240.887C279.8 241.08 279.772 241.302 279.87 241.585C280.548 242.62 281.07 243.815 281.497 245.043C281.53 245.138 281.53 245.138 281.562 245.232C281.595 245.326 281.501 245.359 281.534 245.454C281.961 246.682 282.166 247.881 282.31 249.207C282.314 249.523 282.569 249.646 282.885 249.642C282.979 249.609 282.979 249.609 282.979 249.609ZM244.859 255.989C245.048 255.924 245.266 255.636 245.2 255.447C244.867 254.187 244.756 252.955 244.74 251.69C244.736 251.374 244.481 251.25 244.259 251.222C243.943 251.226 243.82 251.48 243.791 251.702C243.841 253.061 243.984 254.388 244.317 255.649C244.194 255.903 244.448 256.026 244.859 255.989C244.765 256.022 244.765 256.022 244.859 255.989ZM278.092 238.604C278.186 238.571 278.186 238.571 278.281 238.539C278.437 238.378 278.527 238.029 278.367 237.873C277.501 236.904 276.445 236.001 275.422 235.192C275.168 235.069 274.852 235.073 274.729 235.328C274.605 235.582 274.609 235.898 274.864 236.022C275.854 236.736 276.815 237.672 277.648 238.547C277.681 238.641 277.903 238.67 278.092 238.604ZM244.694 248.212C244.883 248.146 244.945 248.019 245.006 247.891C245.212 246.655 245.639 245.448 246.066 244.241C246.189 243.986 246.09 243.703 245.836 243.579C245.581 243.456 245.298 243.555 245.175 243.809C244.653 245.05 244.259 246.351 244.087 247.682C244.058 247.904 244.156 248.187 244.505 248.277C244.505 248.277 244.6 248.244 244.694 248.212ZM271.739 234.038C271.833 234.005 271.989 233.845 272.051 233.718C272.174 233.463 272.076 233.18 271.821 233.057C270.581 232.535 269.341 232.014 267.977 231.747C267.755 231.718 267.472 231.817 267.382 232.166C267.353 232.388 267.452 232.671 267.801 232.761C269.07 233.061 270.277 233.488 271.39 233.948C271.55 234.104 271.644 234.071 271.739 234.038ZM247.573 240.963C247.667 240.931 247.761 240.898 247.823 240.77C248.505 239.686 249.346 238.758 250.188 237.83C250.344 237.67 250.34 237.354 250.147 237.103C249.954 236.853 249.671 236.951 249.42 237.144C248.484 238.105 247.581 239.161 246.899 240.245C246.776 240.499 246.78 240.816 247.035 240.939C247.289 241.062 247.384 241.029 247.573 240.963ZM264.158 232.335C264.347 232.269 264.503 232.109 264.532 231.887C264.528 231.571 264.368 231.415 264.051 231.419C262.754 231.341 261.333 231.518 260.039 231.756C259.756 231.854 259.6 232.015 259.604 232.331C259.703 232.614 259.863 232.77 260.179 232.766C261.473 232.528 262.704 232.417 264.002 232.495C264.064 232.367 264.158 232.335 264.158 232.335ZM253.067 235.452L253.161 235.419C254.196 234.742 255.358 234.126 256.586 233.698C256.869 233.6 256.992 233.345 256.894 233.062C256.795 232.779 256.541 232.655 256.257 232.754C255.062 233.276 253.806 233.924 252.677 234.635C252.426 234.828 252.397 235.05 252.496 235.333C252.656 235.489 252.878 235.518 253.067 235.452Z" fill="black"/>
</g>
<defs>
<clipPath id="clip0_629_612">
<rect width="208.9" height="278.5" fill="white" transform="matrix(-0.944475 0.328583 0.328583 0.944475 197.344 0.411621)"/>
</clipPath>
</defs>
</svg>
