<svg width="227" height="177" viewBox="0 0 227 177" fill="none" xmlns="http://www.w3.org/2000/svg">
<path d="M234 12C234 25.8071 222.807 37 209 37C195.193 37 184 25.8071 184 12C184 -1.80712 195.193 -13 209 -13C222.807 -13 234 -1.80712 234 12ZM194 12C194 20.2843 200.716 27 209 27C217.284 27 224 20.2843 224 12C224 3.71573 217.284 -3 209 -3C200.716 -3 194 3.71573 194 12Z" fill="#D9D9D9" fill-opacity="0.17"/>
<path d="M122 20C122 28.2843 115.284 35 107 35C98.7157 35 92 28.2843 92 20C92 11.7157 98.7157 5 107 5C115.284 5 122 11.7157 122 20ZM95.75 20C95.75 26.2132 100.787 31.25 107 31.25C113.213 31.25 118.25 26.2132 118.25 20C118.25 13.7868 113.213 8.75 107 8.75C100.787 8.75 95.75 13.7868 95.75 20Z" fill="#D9D9D9" fill-opacity="0.17"/>
<path d="M58 149C58 176.614 35.6142 199 8 199C-19.6142 199 -42 176.614 -42 149C-42 121.386 -19.6142 99 8 99C35.6142 99 58 121.386 58 149ZM-27 149C-27 168.33 -11.33 184 8 184C27.33 184 43 168.33 43 149C43 129.67 27.33 114 8 114C-11.33 114 -27 129.67 -27 149Z" fill="#D9D9D9" fill-opacity="0.17"/>
</svg>
