<svg width="244" height="305" viewBox="0 0 244 305" fill="none" xmlns="http://www.w3.org/2000/svg">
<path opacity="0.25" fill-rule="evenodd" clip-rule="evenodd" d="M263.207 132.782C276.707 118.684 285 99.5603 285 78.5C285 35.1456 249.854 0 206.5 0C167.976 0 135.933 27.7506 129.272 64.3523C120.013 61.5225 110.184 60 100 60C44.7715 60 0 104.772 0 160C0 215.228 44.7715 260 100 260C103.827 260 107.603 259.785 111.318 259.367C109.803 265.495 109 271.904 109 278.5C109 322.407 144.593 358 188.5 358C232.407 358 268 322.407 268 278.5C268 267.539 265.782 257.096 261.77 247.596C277.295 233.086 287 212.426 287 189.5C287 167.29 277.892 147.207 263.207 132.782Z" fill="#00B086"/>
<path d="M266.748 94.6763L266.67 104.929C266.658 106.559 265.61 107.999 264.064 108.514L258.538 110.353C257.323 110.758 256.424 111.755 256.074 112.985C255.022 116.675 253.534 120.177 251.673 123.44C251.042 124.545 250.958 125.875 251.509 127.023L254.029 132.266C254.734 133.733 254.428 135.487 253.268 136.63L245.963 143.826C244.803 144.968 243.045 145.246 241.588 144.519L236.378 141.916C235.243 141.349 233.916 141.41 232.803 142.019C229.512 143.821 225.985 145.27 222.278 146.269C221.043 146.602 220.033 147.485 219.612 148.692L217.688 154.191C217.149 155.729 215.693 156.755 214.064 156.742L203.832 156.664C202.206 156.652 200.767 155.609 200.25 154.068L198.389 148.523C197.983 147.315 196.989 146.42 195.763 146.069C192.08 145.014 188.592 143.51 185.335 141.648C184.227 141.014 182.89 140.931 181.741 141.487L176.508 144.018C175.038 144.728 173.28 144.424 172.136 143.262L164.943 135.958C163.802 134.8 163.522 133.043 164.248 131.587L166.854 126.356C167.421 125.218 167.357 123.886 166.742 122.773C164.924 119.479 163.471 115.954 162.454 112.26C162.117 111.034 161.238 110.033 160.039 109.613L154.548 107.687C153.012 107.148 151.988 105.691 152 104.064L152.078 93.8098C152.091 92.1798 153.138 90.7403 154.684 90.2251L160.223 88.3812C161.43 87.98 162.328 86.9901 162.682 85.7692C163.749 82.0939 165.24 78.592 167.102 75.3273C167.733 74.2219 167.817 72.8917 167.266 71.7442L164.746 66.5029C164.041 65.0353 164.347 63.282 165.507 62.1391L172.814 54.9432C173.974 53.8003 175.732 53.5224 177.188 54.25L182.383 56.8448C183.526 57.4162 184.865 57.3475 185.981 56.7277C189.271 54.901 192.784 53.4599 196.489 52.4498C197.715 52.1157 198.715 51.2382 199.138 50.0407L201.084 44.5388C201.626 43.0071 203.079 41.9876 204.704 42.0001L214.942 42.0782C216.57 42.0907 218.01 43.1367 218.525 44.6808L220.366 50.1953C220.768 51.4037 221.758 52.2999 222.982 52.6528C226.678 53.7207 230.186 55.2133 233.454 57.0774C234.556 57.7066 235.883 57.7925 237.029 57.2445L242.277 54.7371C243.743 54.0361 245.493 54.3436 246.633 55.5006L253.829 62.8058C254.973 63.9674 255.251 65.7301 254.519 67.1883L251.911 72.3765C251.337 73.5209 251.402 74.862 252.024 75.9815C253.846 79.268 255.281 82.7856 256.277 86.4686C256.611 87.7021 257.493 88.7106 258.7 89.1338L264.2 91.0588C265.738 91.5975 266.764 93.0541 266.751 94.6826L266.748 94.6763Z" fill="#6193F6"/>
<path d="M209.374 134.278C228.655 134.278 244.285 118.648 244.285 99.3674C244.285 80.0869 228.655 64.457 209.374 64.457C190.094 64.457 174.464 80.0869 174.464 99.3674C174.464 118.648 190.094 134.278 209.374 134.278Z" fill="white"/>
<path d="M209.373 138.476C230.973 138.476 248.483 120.966 248.483 99.3661C248.483 77.7661 230.973 60.2559 209.373 60.2559C187.773 60.2559 170.263 77.7661 170.263 99.3661C170.263 120.966 187.773 138.476 209.373 138.476Z" fill="white"/>
<path d="M189.399 99.365C189.399 104.872 191.641 109.868 195.251 113.487L185.958 122.78C179.961 116.783 176.247 108.5 176.247 99.3634C176.247 90.2268 179.96 81.9442 185.958 75.9473L195.251 85.24C191.641 88.8591 189.399 93.8552 189.399 99.3634V99.365Z" fill="#B580D8"/>
<path d="M242.5 99.3638C242.5 108.5 238.787 116.783 232.789 122.78L223.496 113.487C227.104 109.868 229.348 104.872 229.348 99.3654C229.348 93.8587 227.106 88.8626 223.496 85.242L232.789 75.9492C238.786 81.9461 242.5 90.2287 242.5 99.3654V99.3638Z" fill="#FF7545"/>
<path d="M232.789 75.9475L223.496 85.2403C219.877 81.6322 214.881 79.3886 209.373 79.3886C203.864 79.3886 198.87 81.6306 195.249 85.2403L185.957 75.9475C191.953 69.9506 200.236 66.2363 209.373 66.2363C218.509 66.2363 226.792 69.9491 232.789 75.9475Z" fill="#F2CB2A"/>
<path d="M209.373 107.014C213.756 107.014 217.31 103.46 217.31 99.0762C217.31 94.6924 213.756 91.1387 209.373 91.1387C204.989 91.1387 201.435 94.6924 201.435 99.0762C201.435 103.46 204.989 107.014 209.373 107.014Z" fill="#BDD6FF"/>
<path d="M211.888 101.449C210.294 102.373 208.271 101.817 207.359 100.242C206.445 98.6664 206.97 96.6352 208.566 95.7125C210.15 94.7945 232.522 85.6641 232.522 85.6641C232.522 85.6641 213.474 100.531 211.888 101.449Z" fill="#060405"/>
<path d="M218.959 122.458C218.959 123.688 217.966 124.753 216.664 124.753H202.155C200.882 124.753 199.86 123.73 199.86 122.458C199.86 121.186 200.914 120.174 202.155 120.174H216.664C217.925 120.174 218.959 121.196 218.959 122.458Z" fill="#BDD6FF"/>
<path d="M93.2013 196.367H82.0786C81.0438 196.367 80.2026 197.208 80.2026 198.243V209.372C80.2026 210.401 81.0438 211.242 82.0786 211.242H93.2013C94.2361 211.242 95.0773 210.401 95.0773 209.372V198.243C95.0773 197.208 94.2361 196.367 93.2013 196.367ZM94.4479 209.372C94.4479 210.056 93.8912 210.619 93.1952 210.619H82.0726C81.3827 210.619 80.8199 210.062 80.8199 209.372V198.243C80.8199 197.553 81.3766 196.99 82.0726 196.99H93.1952C93.8851 196.99 94.4479 197.547 94.4479 198.243V209.372Z" fill="#231F20"/>
<path d="M91.9243 202.225L88.0331 206.116L87.2343 206.921C86.8712 207.278 86.2842 207.278 85.9272 206.921L85.1284 206.116L83.3493 204.343C83.1496 204.144 83.0527 203.877 83.0527 203.623C83.0527 203.369 83.1496 203.097 83.3493 202.897C83.7487 202.498 84.4022 202.498 84.8016 202.897L86.2661 204.361C86.4416 204.531 86.72 204.531 86.8894 204.361L90.4719 200.785C90.6716 200.585 90.9379 200.482 91.192 200.482C91.4462 200.482 91.7185 200.585 91.9182 200.785C92.3116 201.178 92.3116 201.832 91.9182 202.231L91.9243 202.225Z" fill="white"/>
<path d="M91.9243 202.225L88.0331 206.116L87.2343 206.921C86.8712 207.278 86.2842 207.278 85.9272 206.921L85.1284 206.116L83.3493 204.343C83.1496 204.144 83.0527 203.877 83.0527 203.623C83.0527 203.369 83.1496 203.097 83.3493 202.897C83.7487 202.498 84.4022 202.498 84.8016 202.897L86.2661 204.361C86.4416 204.531 86.72 204.531 86.8894 204.361L90.4719 200.785C90.6716 200.585 90.9379 200.482 91.192 200.482C91.4462 200.482 91.7185 200.585 91.9182 200.785C92.3116 201.178 92.3116 201.832 91.9182 202.231L91.9243 202.225Z" fill="#31CCAF"/>
<path d="M135.822 208.869C135.822 209.408 135.604 209.898 135.241 210.249C134.89 210.606 134.4 210.83 133.861 210.83H105.74C104.657 210.83 103.779 209.952 103.779 208.869C103.779 208.331 103.997 207.834 104.348 207.483C104.705 207.126 105.195 206.902 105.734 206.902H133.855C134.939 206.902 135.816 207.78 135.816 208.869H135.822Z" fill="#231F20"/>
<path d="M158.431 198.643C158.431 199.181 158.213 199.671 157.85 200.028C157.487 200.385 157.008 200.597 156.47 200.597H105.74C104.657 200.597 103.779 199.726 103.779 198.636C103.779 198.098 103.997 197.608 104.348 197.257C104.699 196.906 105.195 196.676 105.734 196.676H156.464C157.547 196.676 158.425 197.553 158.425 198.636L158.431 198.643Z" fill="#31CCAF"/>
<path d="M93.2013 171.229H82.0786C81.0438 171.229 80.2026 172.07 80.2026 173.104V184.233C80.2026 185.262 81.0438 186.103 82.0786 186.103H93.2013C94.2361 186.103 95.0773 185.262 95.0773 184.233V173.104C95.0773 172.07 94.2361 171.229 93.2013 171.229ZM94.4479 184.239C94.4479 184.923 93.8912 185.486 93.1952 185.486H82.0726C81.3827 185.486 80.8199 184.929 80.8199 184.239V173.111C80.8199 172.421 81.3766 171.858 82.0726 171.858H93.1952C93.8851 171.858 94.4479 172.415 94.4479 173.111V184.239Z" fill="#231F20"/>
<path d="M91.9243 177.087L88.0331 180.978L87.2343 181.783C86.8712 182.14 86.2842 182.14 85.9272 181.783L85.1284 180.978L83.3493 179.205C83.1496 179.005 83.0527 178.739 83.0527 178.484C83.0527 178.23 83.1496 177.958 83.3493 177.758C83.7487 177.359 84.4022 177.359 84.8016 177.758L86.2661 179.223C86.4416 179.392 86.72 179.392 86.8894 179.223L90.4719 175.646C90.6716 175.447 90.9379 175.344 91.192 175.344C91.4462 175.344 91.7185 175.447 91.9182 175.646C92.3116 176.04 92.3116 176.693 91.9182 177.093L91.9243 177.087Z" fill="white"/>
<path d="M91.9243 177.087L88.0331 180.978L87.2343 181.783C86.8712 182.14 86.2842 182.14 85.9272 181.783L85.1284 180.978L83.3493 179.205C83.1496 179.005 83.0527 178.739 83.0527 178.484C83.0527 178.23 83.1496 177.958 83.3493 177.758C83.7487 177.359 84.4022 177.359 84.8016 177.758L86.2661 179.223C86.4416 179.392 86.72 179.392 86.8894 179.223L90.4719 175.646C90.6716 175.447 90.9379 175.344 91.192 175.344C91.4462 175.344 91.7185 175.447 91.9182 175.646C92.3116 176.04 92.3116 176.693 91.9182 177.093L91.9243 177.087Z" fill="#31CCAF"/>
<path d="M135.822 183.736C135.822 184.275 135.604 184.765 135.241 185.116C134.89 185.473 134.4 185.697 133.861 185.697H105.74C104.657 185.697 103.779 184.819 103.779 183.736C103.779 183.198 103.997 182.701 104.348 182.35C104.705 181.993 105.195 181.77 105.734 181.77H133.855C134.939 181.77 135.816 182.647 135.816 183.736H135.822Z" fill="#231F20"/>
<path d="M158.431 173.504C158.431 174.042 158.213 174.533 157.85 174.89C157.487 175.247 157.008 175.458 156.47 175.458H105.74C104.657 175.458 103.779 174.587 103.779 173.498C103.779 172.959 103.997 172.469 104.348 172.118C104.699 171.767 105.195 171.537 105.734 171.537H156.464C157.547 171.537 158.425 172.415 158.425 173.498L158.431 173.504Z" fill="#31CCAF"/>
<path d="M93.2013 146.098H82.0786C81.0438 146.098 80.2026 146.939 80.2026 147.974V159.102C80.2026 160.131 81.0438 160.972 82.0786 160.972H93.2013C94.2361 160.972 95.0773 160.131 95.0773 159.102V147.974C95.0773 146.939 94.2361 146.098 93.2013 146.098ZM94.4479 159.102C94.4479 159.786 93.8912 160.349 93.1952 160.349H82.0726C81.3827 160.349 80.8199 159.792 80.8199 159.102V147.974C80.8199 147.284 81.3766 146.721 82.0726 146.721H93.1952C93.8851 146.721 94.4479 147.278 94.4479 147.974V159.102Z" fill="#231F20"/>
<path d="M91.9243 151.956L88.0331 155.847L87.2343 156.652C86.8712 157.009 86.2842 157.009 85.9272 156.652L85.1284 155.847L83.3493 154.074C83.1496 153.874 83.0527 153.608 83.0527 153.354C83.0527 153.099 83.1496 152.827 83.3493 152.627C83.7487 152.228 84.4022 152.228 84.8016 152.627L86.2661 154.092C86.4416 154.261 86.72 154.261 86.8894 154.092L90.4719 150.515C90.6716 150.316 90.9379 150.213 91.192 150.213C91.4462 150.213 91.7185 150.316 91.9182 150.515C92.3116 150.909 92.3116 151.562 91.9182 151.962L91.9243 151.956Z" fill="white"/>
<path d="M91.9243 151.956L88.0331 155.847L87.2343 156.652C86.8712 157.009 86.2842 157.009 85.9272 156.652L85.1284 155.847L83.3493 154.074C83.1496 153.874 83.0527 153.608 83.0527 153.354C83.0527 153.099 83.1496 152.827 83.3493 152.627C83.7487 152.228 84.4022 152.228 84.8016 152.627L86.2661 154.092C86.4416 154.261 86.72 154.261 86.8894 154.092L90.4719 150.515C90.6716 150.316 90.9379 150.213 91.192 150.213C91.4462 150.213 91.7185 150.316 91.9182 150.515C92.3116 150.909 92.3116 151.562 91.9182 151.962L91.9243 151.956Z" fill="#31CCAF"/>
<path d="M135.822 158.6C135.822 159.138 135.604 159.628 135.241 159.979C134.89 160.336 134.4 160.56 133.861 160.56H105.74C104.657 160.56 103.779 159.683 103.779 158.6C103.779 158.061 103.997 157.565 104.348 157.214C104.705 156.857 105.195 156.633 105.734 156.633H133.855C134.939 156.633 135.816 157.51 135.816 158.6H135.822Z" fill="#231F20"/>
<path d="M158.431 148.373C158.431 148.912 158.213 149.402 157.85 149.759C157.487 150.116 157.008 150.328 156.47 150.328H105.74C104.657 150.328 103.779 149.456 103.779 148.367C103.779 147.828 103.997 147.338 104.348 146.987C104.699 146.636 105.195 146.406 105.734 146.406H156.464C157.547 146.406 158.425 147.284 158.425 148.367L158.431 148.373Z" fill="#31CCAF"/>
<path d="M93.2013 120.965H82.0786C81.0438 120.965 80.2026 121.806 80.2026 122.841V133.97C80.2026 134.998 81.0438 135.839 82.0786 135.839H93.2013C94.2361 135.839 95.0773 134.998 95.0773 133.97V122.841C95.0773 121.806 94.2361 120.965 93.2013 120.965ZM94.4479 133.97C94.4479 134.653 93.8912 135.216 93.1952 135.216H82.0726C81.3827 135.216 80.8199 134.659 80.8199 133.97V122.841C80.8199 122.151 81.3766 121.588 82.0726 121.588H93.1952C93.8851 121.588 94.4479 122.145 94.4479 122.841V133.97Z" fill="#231F20"/>
<path d="M91.9243 126.817L88.0331 130.708L87.2343 131.513C86.8712 131.87 86.2842 131.87 85.9272 131.513L85.1284 130.708L83.3493 128.935C83.1496 128.735 83.0527 128.469 83.0527 128.215C83.0527 127.961 83.1496 127.688 83.3493 127.489C83.7487 127.089 84.4022 127.089 84.8016 127.489L86.2661 128.953C86.4416 129.123 86.72 129.123 86.8894 128.953L90.4719 125.377C90.6716 125.177 90.9379 125.074 91.192 125.074C91.4462 125.074 91.7185 125.177 91.9182 125.377C92.3116 125.77 92.3116 126.424 91.9182 126.823L91.9243 126.817Z" fill="white"/>
<path d="M91.9243 126.817L88.0331 130.708L87.2343 131.513C86.8712 131.87 86.2842 131.87 85.9272 131.513L85.1284 130.708L83.3493 128.935C83.1496 128.735 83.0527 128.469 83.0527 128.215C83.0527 127.961 83.1496 127.688 83.3493 127.489C83.7487 127.089 84.4022 127.089 84.8016 127.489L86.2661 128.953C86.4416 129.123 86.72 129.123 86.8894 128.953L90.4719 125.377C90.6716 125.177 90.9379 125.074 91.192 125.074C91.4462 125.074 91.7185 125.177 91.9182 125.377C92.3116 125.77 92.3116 126.424 91.9182 126.823L91.9243 126.817Z" fill="#31CCAF"/>
<path d="M135.822 133.467C135.822 134.005 135.604 134.496 135.241 134.846C134.89 135.204 134.4 135.427 133.861 135.427H105.74C104.657 135.427 103.779 134.55 103.779 133.467C103.779 132.928 103.997 132.432 104.348 132.081C104.705 131.724 105.195 131.5 105.734 131.5H133.855C134.939 131.5 135.816 132.377 135.816 133.467H135.822Z" fill="#231F20"/>
<path d="M158.431 123.24C158.431 123.779 158.213 124.269 157.85 124.626C157.487 124.983 157.008 125.195 156.47 125.195H105.74C104.657 125.195 103.779 124.323 103.779 123.234C103.779 122.696 103.997 122.205 104.348 121.854C104.699 121.503 105.195 121.273 105.734 121.273H156.464C157.547 121.273 158.425 122.151 158.425 123.234L158.431 123.24Z" fill="#31CCAF"/>
<path d="M172.253 110.17H167.938V105.861C167.938 103.731 166.207 102 164.083 102H73.8548C71.7307 102 70 103.731 70 105.861V218.716C70 220.84 71.7307 222.57 73.8548 222.57H78.1696V226.885C78.1696 229.009 79.9003 230.74 82.0244 230.74H172.253C174.377 230.74 176.107 229.009 176.107 226.885V114.024C176.107 111.894 174.377 110.163 172.253 110.163V110.17ZM70.6354 105.861C70.6354 104.082 72.0817 102.629 73.8609 102.629H164.089C165.868 102.629 167.314 104.082 167.314 105.861V110.17L81.5402 110.206H70.6475V105.855L70.6354 105.861ZM73.8609 221.935C72.0817 221.935 70.6354 220.489 70.6354 218.71V110.835H81.5281L167.302 110.799V118.69V218.71C167.302 220.489 165.856 221.935 164.077 221.935H73.8488H73.8609ZM175.478 226.879C175.478 228.658 174.032 230.105 172.253 230.105H82.0244C80.2452 230.105 78.7989 228.658 78.7989 226.879V222.564H164.077C166.201 222.564 167.932 220.834 167.932 218.71V119.005H175.472V226.879H175.478ZM175.478 118.375H167.938V110.799H172.253C174.032 110.799 175.478 112.251 175.478 114.03V118.381V118.375Z" fill="#231F20"/>
<path d="M175.478 119.004V226.878C175.478 228.657 174.032 230.104 172.252 230.104H82.0243C80.2451 230.104 78.7988 228.657 78.7988 226.878V222.564H164.077C166.201 222.564 167.932 220.833 167.932 218.709V119.004H175.472H175.478Z" fill="white"/>
<path d="M81.5343 110.835H70.6416V218.71C70.6416 220.489 72.0879 221.935 73.8671 221.935H164.095C165.874 221.935 167.321 220.489 167.321 218.71V118.696V110.799L81.5464 110.835H81.5343ZM95.0776 209.372C95.0776 210.401 94.2365 211.242 93.2017 211.242H82.079C81.0442 211.242 80.203 210.401 80.203 209.372V198.243C80.203 197.208 81.0442 196.367 82.079 196.367H93.2017C94.2365 196.367 95.0776 197.208 95.0776 198.243V209.372ZM95.0776 184.24C95.0776 185.269 94.2365 186.11 93.2017 186.11H82.079C81.0442 186.11 80.203 185.269 80.203 184.24V173.111C80.203 172.077 81.0442 171.235 82.079 171.235H93.2017C94.2365 171.235 95.0776 172.077 95.0776 173.111V184.24ZM95.0776 159.102C95.0776 160.131 94.2365 160.972 93.2017 160.972H82.079C81.0442 160.972 80.203 160.131 80.203 159.102V147.973C80.203 146.938 81.0442 146.097 82.079 146.097H93.2017C94.2365 146.097 95.0776 146.938 95.0776 147.973V159.102ZM95.0776 133.97C95.0776 134.999 94.2365 135.84 93.2017 135.84H82.079C81.0442 135.84 80.203 134.999 80.203 133.97V122.841C80.203 121.807 81.0442 120.965 82.079 120.965H93.2017C94.2365 120.965 95.0776 121.807 95.0776 122.841V133.97ZM135.242 210.256C134.891 210.613 134.4 210.836 133.862 210.836H105.74C104.657 210.836 103.78 209.959 103.78 208.876C103.78 208.337 103.998 207.841 104.349 207.49C104.706 207.133 105.196 206.909 105.734 206.909H133.856C134.939 206.909 135.816 207.787 135.816 208.876C135.816 209.414 135.599 209.905 135.236 210.256H135.242ZM157.85 200.028C157.499 200.379 157.009 200.597 156.47 200.597H105.74C104.657 200.597 103.78 199.726 103.78 198.637C103.78 198.098 103.998 197.608 104.349 197.257C104.7 196.906 105.196 196.676 105.734 196.676H156.464C157.547 196.676 158.425 197.553 158.425 198.637C158.425 199.175 158.207 199.665 157.844 200.022L157.85 200.028ZM103.78 183.738C103.78 183.199 103.998 182.703 104.349 182.352C104.706 181.995 105.196 181.771 105.734 181.771H133.856C134.939 181.771 135.816 182.649 135.816 183.738C135.816 184.276 135.599 184.767 135.236 185.118C134.885 185.475 134.394 185.698 133.856 185.698H105.734C104.651 185.698 103.774 184.821 103.774 183.738H103.78ZM157.85 174.897C157.499 175.247 157.009 175.465 156.47 175.465H105.74C104.657 175.465 103.78 174.594 103.78 173.505C103.78 172.966 103.998 172.476 104.349 172.125C104.7 171.774 105.196 171.544 105.734 171.544H156.464C157.547 171.544 158.425 172.421 158.425 173.505C158.425 174.043 158.207 174.533 157.844 174.89L157.85 174.897ZM103.78 158.6C103.78 158.061 103.998 157.565 104.349 157.214C104.706 156.857 105.196 156.633 105.734 156.633H133.856C134.939 156.633 135.816 157.51 135.816 158.6C135.816 159.138 135.599 159.629 135.236 159.98C134.885 160.337 134.394 160.56 133.856 160.56H105.734C104.651 160.56 103.774 159.683 103.774 158.6H103.78ZM157.85 149.759C157.499 150.109 157.009 150.327 156.47 150.327H105.74C104.657 150.327 103.78 149.456 103.78 148.367C103.78 147.828 103.998 147.338 104.349 146.987C104.7 146.636 105.196 146.406 105.734 146.406H156.464C157.547 146.406 158.425 147.283 158.425 148.367C158.425 148.905 158.207 149.395 157.844 149.752L157.85 149.759ZM103.78 133.468C103.78 132.929 103.998 132.433 104.349 132.082C104.706 131.725 105.196 131.501 105.734 131.501H133.856C134.939 131.501 135.816 132.379 135.816 133.468C135.816 134.006 135.599 134.497 135.236 134.848C134.885 135.205 134.394 135.429 133.856 135.429H105.734C104.651 135.429 103.774 134.551 103.774 133.468H103.78ZM157.85 124.627C157.499 124.978 157.009 125.195 156.47 125.195H105.74C104.657 125.195 103.78 124.324 103.78 123.235C103.78 122.696 103.998 122.206 104.349 121.855C104.7 121.504 105.196 121.274 105.734 121.274H156.464C157.547 121.274 158.425 122.151 158.425 123.235C158.425 123.773 158.207 124.263 157.844 124.62L157.85 124.627Z" fill="white"/>
<path d="M93.2015 196.996H82.0788C81.389 196.996 80.8262 197.553 80.8262 198.249V209.378C80.8262 210.061 81.3829 210.624 82.0788 210.624H93.2015C93.8914 210.624 94.4542 210.067 94.4542 209.378V198.249C94.4542 197.559 93.8974 196.996 93.2015 196.996ZM91.9247 202.225L88.0335 206.116L87.2347 206.921C86.8716 207.278 86.2846 207.278 85.9276 206.921L85.1288 206.116L83.3497 204.343C83.15 204.143 83.0531 203.877 83.0531 203.623C83.0531 203.368 83.15 203.096 83.3497 202.896C83.7491 202.497 84.4026 202.497 84.802 202.896L86.2665 204.361C86.442 204.53 86.7203 204.53 86.8898 204.361L90.4723 200.784C90.672 200.585 90.9383 200.482 91.1924 200.482C91.4466 200.482 91.7189 200.585 91.9186 200.784C92.312 201.178 92.312 201.831 91.9186 202.231L91.9247 202.225Z" fill="white"/>
<path d="M93.2015 171.859H82.0788C81.389 171.859 80.8262 172.416 80.8262 173.112V184.241C80.8262 184.925 81.3829 185.487 82.0788 185.487H93.2015C93.8914 185.487 94.4542 184.931 94.4542 184.241V173.112C94.4542 172.422 93.8974 171.859 93.2015 171.859ZM91.9247 177.088L88.0335 180.979L87.2347 181.784C86.8716 182.141 86.2846 182.141 85.9276 181.784L85.1288 180.979L83.3497 179.206C83.15 179.006 83.0531 178.74 83.0531 178.486C83.0531 178.232 83.15 177.959 83.3497 177.76C83.7491 177.36 84.4026 177.36 84.802 177.76L86.2665 179.224C86.442 179.394 86.7203 179.394 86.8898 179.224L90.4723 175.648C90.672 175.448 90.9383 175.345 91.1924 175.345C91.4466 175.345 91.7189 175.448 91.9186 175.648C92.312 176.041 92.312 176.695 91.9186 177.094L91.9247 177.088Z" fill="white"/>
<path d="M93.2015 146.727H82.0788C81.389 146.727 80.8262 147.283 80.8262 147.979V159.108C80.8262 159.792 81.3829 160.355 82.0788 160.355H93.2015C93.8914 160.355 94.4542 159.798 94.4542 159.108V147.979C94.4542 147.289 93.8974 146.727 93.2015 146.727ZM91.9247 151.955L88.0335 155.846L87.2347 156.651C86.8716 157.008 86.2846 157.008 85.9276 156.651L85.1288 155.846L83.3497 154.073C83.15 153.873 83.0531 153.607 83.0531 153.353C83.0531 153.099 83.15 152.826 83.3497 152.627C83.7491 152.227 84.4026 152.227 84.802 152.627L86.2665 154.091C86.442 154.261 86.7203 154.261 86.8898 154.091L90.4723 150.515C90.672 150.315 90.9383 150.212 91.1924 150.212C91.4466 150.212 91.7189 150.315 91.9186 150.515C92.312 150.908 92.312 151.562 91.9186 151.961L91.9247 151.955Z" fill="white"/>
<path d="M93.2015 121.596H82.0788C81.389 121.596 80.8262 122.152 80.8262 122.848V133.977C80.8262 134.661 81.3829 135.224 82.0788 135.224H93.2015C93.8914 135.224 94.4542 134.667 94.4542 133.977V122.848C94.4542 122.158 93.8974 121.596 93.2015 121.596ZM91.9247 126.818L88.0335 130.709L87.2347 131.514C86.8716 131.871 86.2846 131.871 85.9276 131.514L85.1288 130.709L83.3497 128.936C83.15 128.736 83.0531 128.47 83.0531 128.216C83.0531 127.962 83.15 127.69 83.3497 127.49C83.7491 127.09 84.4026 127.09 84.802 127.49L86.2665 128.954C86.442 129.124 86.7203 129.124 86.8898 128.954L90.4723 125.378C90.672 125.178 90.9383 125.075 91.1924 125.075C91.4466 125.075 91.7189 125.178 91.9186 125.378C92.312 125.771 92.312 126.425 91.9186 126.824L91.9247 126.818Z" fill="white"/>
<path d="M175.478 114.024V118.375H167.938V110.799H172.252C174.031 110.799 175.478 112.251 175.478 114.03V114.024Z" fill="#231F20"/>
<path d="M167.309 105.861V110.169L81.5343 110.206H70.6416V105.855C70.6416 104.075 72.0879 102.623 73.8671 102.623H164.095C165.874 102.623 167.321 104.075 167.321 105.855L167.309 105.861Z" fill="#231F20"/>
<path d="M88.9051 107.628C89.6069 107.628 90.1759 107.059 90.1759 106.357C90.1759 105.655 89.6069 105.086 88.9051 105.086C88.2032 105.086 87.6343 105.655 87.6343 106.357C87.6343 107.059 88.2032 107.628 88.9051 107.628Z" fill="#31CCAF"/>
<path d="M82.6175 107.628C83.3193 107.628 83.8883 107.059 83.8883 106.357C83.8883 105.655 83.3193 105.086 82.6175 105.086C81.9156 105.086 81.3467 105.655 81.3467 106.357C81.3467 107.059 81.9156 107.628 82.6175 107.628Z" fill="#31CCAF"/>
<path d="M76.3363 107.628C77.0381 107.628 77.6071 107.059 77.6071 106.357C77.6071 105.655 77.0381 105.086 76.3363 105.086C75.6344 105.086 75.0654 105.655 75.0654 106.357C75.0654 107.059 75.6344 107.628 76.3363 107.628Z" fill="#31CCAF"/>
<path d="M251.923 278.591C250.033 274.501 246.643 271.371 243.783 267.971C241.493 265.251 239.203 262.531 236.903 259.811C233.243 255.471 230.863 250.251 229.943 244.711L229.883 241.281C229.813 237.451 229.013 233.801 227.633 230.461C227.513 229.721 227.323 229.091 227.053 228.601C222.503 218.401 212.373 211.211 200.473 211.001C184.083 210.711 170.563 223.761 170.273 240.151L170.143 247.331C170.123 248.721 170.273 250.071 170.543 251.381L165.153 262.491C161.103 273.411 169.253 281.211 174.633 282.391C182.163 284.051 183.533 289.851 184.803 293.921C185.433 293.871 186.063 293.841 186.703 293.821V267.101C186.953 267.101 187.203 267.131 187.453 267.121L206.253 266.781C206.123 282.191 202.313 297.411 195.063 311.131L192.893 315.241C191.473 317.931 193.663 321.111 196.683 320.741L224.973 317.251C229.893 316.641 234.663 315.191 239.083 312.951C250.943 306.941 257.703 291.021 251.953 278.581L251.923 278.591Z" fill="#291C5B"/>
<path d="M141.123 278.591C143.013 274.501 146.403 271.371 149.263 267.971C151.553 265.251 153.843 262.531 156.133 259.811C159.793 255.471 162.173 250.251 163.093 244.711L163.153 241.281C163.223 237.451 164.023 233.801 165.403 230.461C165.523 229.721 165.713 229.091 165.983 228.601C170.533 218.401 180.663 211.211 192.563 211.001C208.953 210.711 222.473 223.761 222.763 240.151L222.893 247.331C222.913 248.721 222.763 250.071 222.493 251.381L227.883 262.491C231.933 273.411 223.783 281.211 218.403 282.391C210.873 284.051 209.503 289.851 208.233 293.921C207.603 293.871 206.973 293.841 206.333 293.821V267.101C206.083 267.101 205.833 267.131 205.583 267.121L186.783 266.781C186.913 282.191 190.723 297.411 197.973 311.131L200.143 315.241C201.563 317.931 199.373 321.111 196.353 320.741L168.063 317.251C163.143 316.641 158.373 315.191 153.953 312.951C142.093 306.941 135.333 291.021 141.083 278.581L141.123 278.591Z" fill="#291C5B"/>
<path d="M225.003 277.669L164.063 272.459C158.033 271.939 153.553 266.629 154.073 260.599C154.593 254.569 159.903 250.089 165.933 250.609L226.873 255.819C232.903 256.339 237.383 261.649 236.863 267.679C236.343 273.709 231.033 278.189 225.003 277.669Z" fill="#F9C9DE"/>
<path d="M225.943 278.27C225.613 278.27 225.283 278.26 224.953 278.23L164.013 273.02C160.943 272.76 158.163 271.32 156.183 268.96C154.203 266.61 153.253 263.62 153.513 260.56C154.053 254.23 159.653 249.52 165.973 250.06L226.913 255.27C233.243 255.81 237.953 261.4 237.413 267.73C236.903 273.73 231.853 278.27 225.943 278.27ZM164.993 251.12C159.643 251.12 155.083 255.23 154.623 260.65C154.383 263.42 155.243 266.12 157.033 268.25C158.823 270.38 161.343 271.68 164.113 271.92L225.053 277.13C230.783 277.62 235.823 273.36 236.313 267.64C236.803 261.92 232.543 256.87 226.823 256.38L165.883 251.17C165.583 251.14 165.283 251.13 164.993 251.13V251.12Z" fill="#291C5B"/>
<path d="M229.553 276.1C229.403 277.88 227.833 279.2 226.053 279.05C224.273 278.9 222.953 277.33 223.103 275.55C223.253 273.77 224.823 272.45 226.603 272.6C228.383 272.75 229.703 274.32 229.553 276.1Z" fill="white"/>
<path d="M226.333 279.609C226.223 279.609 226.113 279.609 226.003 279.599C224.993 279.509 224.083 279.039 223.433 278.269C222.783 277.499 222.473 276.519 222.553 275.509C222.633 274.499 223.113 273.589 223.883 272.939C224.653 272.289 225.643 271.979 226.643 272.059C228.723 272.239 230.273 274.069 230.093 276.149C230.003 277.159 229.533 278.069 228.763 278.719C228.073 279.299 227.223 279.609 226.333 279.609ZM226.323 273.149C225.693 273.149 225.083 273.369 224.603 273.779C224.053 274.239 223.723 274.889 223.663 275.599C223.603 276.309 223.823 277.009 224.283 277.549C224.743 278.099 225.393 278.429 226.103 278.489C226.823 278.549 227.513 278.329 228.063 277.869C228.613 277.409 228.943 276.759 229.003 276.049C229.133 274.579 228.033 273.279 226.563 273.149C226.483 273.149 226.403 273.139 226.333 273.139L226.323 273.149Z" fill="#291C5B"/>
<path d="M166.603 270.721C166.453 272.501 164.883 273.821 163.103 273.671C161.323 273.521 160.003 271.951 160.153 270.171C160.303 268.391 161.873 267.071 163.653 267.221C165.433 267.371 166.753 268.941 166.603 270.721Z" fill="white"/>
<path d="M163.383 274.23C163.273 274.23 163.163 274.23 163.053 274.22C160.973 274.04 159.423 272.21 159.603 270.13C159.693 269.12 160.163 268.21 160.933 267.56C161.703 266.91 162.693 266.6 163.693 266.68C164.703 266.77 165.613 267.24 166.263 268.01C166.913 268.78 167.223 269.76 167.143 270.77C167.053 271.78 166.583 272.69 165.813 273.34C165.123 273.92 164.273 274.23 163.383 274.23ZM163.373 267.76C162.743 267.76 162.143 267.98 161.653 268.39C161.103 268.85 160.773 269.5 160.713 270.21C160.583 271.68 161.683 272.98 163.153 273.11C163.873 273.17 164.563 272.95 165.113 272.49C165.663 272.03 165.993 271.38 166.053 270.67C166.113 269.96 165.893 269.26 165.433 268.72C164.973 268.17 164.323 267.84 163.613 267.78C163.533 267.78 163.453 267.78 163.383 267.78L163.373 267.76Z" fill="#291C5B"/>
<path d="M216.273 286.361H176.613V307.675H216.273V286.361Z" fill="#F9C9DE"/>
<path d="M216.273 307.999H176.613C176.313 307.999 176.063 307.852 176.063 307.676V286.362C176.063 286.18 176.313 286.039 176.613 286.039H216.273C216.573 286.039 216.823 286.186 216.823 286.362V307.676C216.823 307.858 216.573 307.999 216.273 307.999ZM177.173 307.353H215.723V286.691H177.173V307.353Z" fill="#291C5B"/>
<path d="M188.043 295.26C188.043 295.26 205.093 306.95 215.823 308.1V287.25L188.043 295.26Z" fill="#291C5B"/>
<path d="M192.613 297.469C177.533 296.179 166.363 282.909 167.653 267.839L169.513 246.149C170.803 231.069 184.073 219.899 199.143 221.189C214.223 222.479 225.393 235.749 224.103 250.819L222.243 272.509C220.953 287.589 207.683 298.759 192.613 297.469Z" fill="#F9C9DE"/>
<path d="M194.973 298.119C194.173 298.119 193.373 298.089 192.573 298.019C177.213 296.709 165.793 283.149 167.103 267.789L168.963 246.099C170.273 230.739 183.853 219.319 199.193 220.639C206.633 221.279 213.373 224.769 218.183 230.479C222.993 236.189 225.293 243.429 224.653 250.869L222.793 272.559C221.553 287.109 209.303 298.129 194.963 298.129L194.973 298.119ZM192.663 296.919C207.413 298.179 220.433 287.209 221.703 272.459L223.563 250.769C224.173 243.629 221.963 236.669 217.343 231.189C212.723 225.709 206.243 222.349 199.103 221.739C184.353 220.489 171.333 231.449 170.063 246.199L168.203 267.889C166.943 282.639 177.913 295.659 192.663 296.919Z" fill="#291C5B"/>
<path d="M205.953 259.311C205.853 260.471 206.713 261.491 207.873 261.591C209.033 261.691 210.053 260.831 210.153 259.671C210.253 258.511 209.393 257.491 208.233 257.391C207.073 257.291 206.053 258.151 205.953 259.311Z" fill="#291C5B"/>
<path d="M180.793 257.16C180.693 258.32 181.553 259.34 182.713 259.44C183.873 259.54 184.893 258.68 184.993 257.52C185.093 256.36 184.233 255.34 183.073 255.24C181.913 255.14 180.893 256 180.793 257.16Z" fill="#291C5B"/>
<path d="M163.163 263.161C162.983 263.161 162.813 263.081 162.713 262.921C162.543 262.671 162.603 262.321 162.853 262.151L164.683 260.881L162.853 259.311C162.623 259.111 162.593 258.761 162.793 258.531C162.993 258.301 163.343 258.271 163.573 258.471L165.613 260.221C165.823 260.401 165.943 260.661 165.923 260.941C165.913 261.221 165.773 261.471 165.543 261.631L163.483 263.061C163.383 263.131 163.273 263.161 163.173 263.161H163.163Z" fill="#291C5B"/>
<path d="M227.873 268.7C227.733 268.7 227.593 268.65 227.483 268.54L225.703 266.78C225.503 266.58 225.413 266.31 225.443 266.04C225.473 265.76 225.633 265.52 225.873 265.38L228.183 264C228.443 263.84 228.783 263.93 228.943 264.19C229.103 264.45 229.013 264.79 228.753 264.95L226.683 266.18L228.273 267.74C228.493 267.95 228.493 268.3 228.273 268.52C228.163 268.63 228.023 268.69 227.883 268.69L227.873 268.7Z" fill="#291C5B"/>
<path d="M203.133 246.82C203.673 247.33 204.533 247.55 205.343 247.81C206.173 248.06 206.993 248.32 207.703 248.58C208.413 248.84 209.223 249.16 210.013 249.5C210.803 249.82 211.613 250.2 212.343 250.16C213.043 250.12 213.563 249.47 213.173 248.3C212.813 247.17 211.393 245.57 209.043 244.71C206.693 243.86 204.603 244.19 203.623 244.84C202.603 245.5 202.603 246.33 203.123 246.82H203.133Z" fill="#291C5B"/>
<path d="M190.483 245.63C189.873 246.05 188.993 246.14 188.143 246.27C187.283 246.39 186.433 246.52 185.693 246.67C184.953 246.82 184.103 247.01 183.273 247.23C182.443 247.43 181.583 247.68 180.873 247.52C180.183 247.38 179.773 246.66 180.343 245.56C180.873 244.5 182.523 243.13 184.973 242.64C187.423 242.17 189.443 242.81 190.303 243.6C191.213 244.41 191.083 245.23 190.493 245.63H190.483Z" fill="#291C5B"/>
<path d="M195.693 269.419C195.693 269.419 195.643 269.419 195.623 269.419L193.523 269.149C191.833 268.939 190.323 268.069 189.273 266.729C188.223 265.379 187.773 263.709 187.983 262.009C188.063 261.389 188.383 260.829 188.873 260.439C189.373 260.049 189.983 259.879 190.613 259.959C192.293 260.169 193.813 258.979 194.033 257.309L194.693 252.129C194.733 251.829 195.013 251.609 195.313 251.649C195.613 251.689 195.833 251.959 195.793 252.269L195.133 257.449C194.843 259.729 192.743 261.339 190.483 261.059C190.153 261.019 189.823 261.109 189.563 261.309C189.303 261.519 189.133 261.809 189.093 262.139C188.913 263.539 189.293 264.929 190.153 266.039C191.013 267.159 192.263 267.869 193.663 268.039L195.763 268.309C196.063 268.349 196.283 268.619 196.243 268.929C196.203 269.209 195.973 269.409 195.693 269.409V269.419Z" fill="#291C5B"/>
<path d="M198.933 221.171C183.413 219.841 169.923 229.341 168.803 242.391L168.253 248.771C184.163 247.251 196.683 237.271 199.513 224.201C199.473 223.221 199.483 222.241 199.543 221.251C199.333 221.231 199.133 221.191 198.923 221.171H198.933Z" fill="#291C5B"/>
<path d="M199.983 221.311C199.883 222.291 199.723 223.251 199.513 224.201C200.063 237.081 209.963 248.661 224.493 253.251L225.013 247.201C226.103 234.451 214.973 223.061 199.983 221.311Z" fill="#291C5B"/>
<path d="M198.803 276.529C196.723 276.529 194.943 275.659 194.833 275.609C194.563 275.469 194.453 275.139 194.583 274.869C194.713 274.599 195.043 274.479 195.323 274.619C195.353 274.629 198.383 276.099 200.803 275.039C202.083 274.479 202.983 273.289 203.503 271.509C203.583 271.219 203.893 271.049 204.183 271.129C204.473 271.209 204.643 271.519 204.563 271.809C203.953 273.919 202.833 275.349 201.243 276.049C200.443 276.399 199.593 276.529 198.803 276.529Z" fill="#291C5B"/>
<path d="M214.553 203.85C213.913 211.38 207.283 216.96 199.753 216.32C192.223 215.68 186.643 209.05 187.283 201.52C187.923 193.99 194.553 188.41 202.083 189.05C209.613 189.69 215.193 196.32 214.553 203.85Z" fill="#291C5B"/>
</svg>
