<?xml version="1.0" encoding="utf-8"?>
<!-- Generator: Adobe Illustrator 24.3.0, SVG Export Plug-In . SVG Version: 6.00 Build 0)  -->
<svg version="1.1" id="Layer_1" xmlns="http://www.w3.org/2000/svg" xmlns:xlink="http://www.w3.org/1999/xlink" x="0px" y="0px"
	 viewBox="0 0 550 400" style="enable-background:new 0 0 550 400;" xml:space="preserve">
<style type="text/css">
	.st0{fill:#FBC108;}
	.st1{fill:#FFFFFF;stroke:#000000;}
	.st2{fill:#121936;stroke:#000000;}
	.st3{fill:#FF6A48;stroke:#000000;}
	.st4{fill:#FFA386;stroke:#000000;}
	.st5{fill:#FFFFFF;}
	.st6{fill:#FFFFFF;filter:url(#Adobe_OpacityMaskFilter);}
	.st7{mask:url(#path-15-inside-1_666_2148_1_);}
	.st8{fill:#121936;}
	.st9{fill:#FBC108;stroke:#000000;}
</style>
<path class="st0" d="M458.9,179.9l-48.2-8.2l-61.2,18.1l-26.1-9.7c-3.6,0.9-6.9,1.8-9.9,2.7c0,0-94.4,15.1-83,98.7l52.7,1.3
	c1.4,4.5,1.5,3.4,2.7,6.2l18.9,62.5h154.5l1.4-51l46.9,30.2c5.8,3.7,13.5,0,14.1-6.9c2-21.7,4.4-59.9,4.4-60.9
	C528.7,193.5,458.9,179.9,458.9,179.9z"/>
<path class="st0" d="M288.3,298c-0.4,0-0.9-0.3-1-0.8l-9.3-36.6c-0.1-0.5,0.2-1.1,0.7-1.2c0.5-0.1,1.1,0.2,1.2,0.7l9.3,36.6
	c0.1,0.5-0.2,1.1-0.7,1.2C288.5,298,288.4,298,288.3,298z"/>
<path class="st0" d="M468.6,304.6c-0.2,0-0.4-0.1-0.6-0.2l-28.9-22.2c-3.5-2.4-5.9-6.2-6.3-10.5l-3-29.1c-0.1-0.5,0.3-1,0.9-1.1
	c0.5,0,1,0.3,1.1,0.9l3,29.1c0.4,3.7,2.4,7,5.4,8.9l28.9,22.2c0.4,0.3,0.5,1,0.2,1.4C469.2,304.4,468.9,304.6,468.6,304.6z"/>
<path class="st1" d="M389.8,83.1L389.8,83.1l7.8,0.2h0c4.1,0.1,7.9,1.8,10.7,4.5l0,0c3.3,3.1,5.4,7.7,5.2,12.6v0v0v1.3
	c-0.4,9.9-8.8,17.7-18.7,17.4l-3.3-0.1l-0.7,0l0.2,0.6l14.1,58.5c1.7,8.6-1.2,16.2-6.7,22.2c-5.5,5.9-13.7,10.2-22.6,12l-0.7,0.1
	l0,0l0,0c-17.7,3.5-34.9-7.8-38.4-25.1l-4.8-23.9l-0.1-0.3l-0.3-0.1c-20.4-3.3-35.2-22.3-33.7-44.1v0l4.1-60.1l0,0v0v0v0v0v0v0v0v0
	v0v0v0v0v0v0v0v0v0v0v0v0v0v0v0v0v0v0v0v0v0v0v0v0v0v0v0v0v0v0v0v0v0v0v0v0v0v0v0v0v0v0v0v0v0v0v0v0v0v0v0v0v0v0v0v0v0v0v0v0v0v0v0
	v0v0v0v0v0v0v0v0v0v0v0v0v0v0v0v0v0v0v0v0v0v0v0v0v0v0v0v0v0v0v0v0v0v0v0v0v0v0v0v0v0v0v0v0v0v0v0v0v0v0v0v0v0v0v0l0,0v0v0v0v0v0v0
	v0v0v0v0v0v0v0v0v0v0v0v0v0v0v0v0v0v0v0v0v0v0l0,0v0v0v0v0v0v0v0v0v0v0v0v0v0v0v0v0v0l0,0v0v0v0v0v0v0v0v0v0v0v0v0v0l0,0v0v0v0v0v0
	v0v0v0v0v0v0v0l0,0v0v0v0v0v0v0v0v0v0v0v0l0,0v0v0v0v0v0v0v0v0v0v0l0,0v0v0v0v0v0v0v0v0v0v0l0,0v0v0v0v0v0v0v0v0v0l0,0v0v0v0v0v0v0
	v0v0v0v0l0,0v0v0v0v0v0v0v0v0v0l0,0v0v0v0v0v0v0v0v0v0l0,0v0v0v0v0v0v0v0v0v0v0l0,0v0v0v0v0v0v0v0v0v0v0l0,0v0v0v0v0v0v0v0v0v0v0v0
	l0,0v0v0v0v0v0v0v0v0v0v0v0l0,0v0v0v0v0v0v0v0v0v0v0v0v0v0l0,0v0v0v0v0v0v0v0v0v0v0v0v0v0v0v0l0,0v0v0v0v0v0v0v0v0v0v0v0v0v0v0v0v0
	v0v0v0v0v0l0,0v0v0v0v0v0v0v0v0v0v0v0v0v0v0v0v0v0v0v0v0v0v0v0v0v0v0v0v0v0v0v0v0v0v0v0v0v0v0v0v0v0v0v0v0v0v0v0v0v0v0
	c3.3-8,10.1-10.2,16.2-10.5c3.1-0.1,5.9,0.2,8,0.6c1,0.2,1.9,0.4,2.5,0.6c0.3,0.1,0.5,0.1,0.7,0.2c0.1,0,0.1,0,0.2,0.1l0,0
	c9.4,5.4,17.8,6.1,23.8,5.4c3-0.4,5.4-1.1,7.1-1.7c0.8-0.3,1.4-0.5,1.8-0.7l-2.7,39.6l1,0.2c2.7-5.8,8.7-9.7,15.4-9.5c0,0,0,0,0,0
	L389.8,83.1z"/>
<path class="st1" d="M335.2,182.1l-3.1-17.4c0.3,0,0.6-0.1,1-0.1c1-0.1,2.4-0.4,4.2-0.7c3.5-0.6,8.1-1.6,12.9-3
	c4.8-1.4,9.7-3.3,13.7-5.6c3.2-1.9,5.9-4.2,7.3-6.9c0,0.3,0,0.7-0.1,1.1c-0.2,2-0.9,4.9-2.8,8.3
	C364.4,164.5,355.5,173.5,335.2,182.1z"/>
<path class="st2" d="M396.1,120.4c-1.2,2.8-1.8,5.5-2.2,7.4c-0.2,1-0.3,1.8-0.3,2.4l-11.2-10.3L396.1,120.4z"/>
<path class="st2" d="M390.4,40.1L390.4,40.1L362.2,51h0l0,0l0,0c0,0-0.1,0-0.1,0.1c-0.1,0.1-0.3,0.1-0.5,0.2c-0.4,0.2-1,0.5-1.8,0.8
	c-1.6,0.6-3.9,1.3-6.8,1.6c-5.8,0.7-13.9,0.1-23.2-5.3l0,0l0,0l-0.2,0.5c0.2-0.5,0.2-0.5,0.2-0.5l0,0l0,0l0,0l0,0c0,0-0.1,0-0.2-0.1
	c-0.2-0.1-0.4-0.1-0.7-0.2c-0.6-0.2-1.5-0.4-2.6-0.6c-2.1-0.4-5.1-0.8-8.2-0.7c-6.3,0.3-13.6,2.7-17.1,11.3c-0.2,0.3-0.3,0.7-0.4,1
	c-0.2-0.2-0.3-0.5-0.6-0.8c-0.7-1.1-1.7-2.6-2.7-4.6c-2.1-3.8-4.6-9-6.1-14.5c-1.5-5.5-2-11.2-0.3-16.2c1.8-4.9,5.8-9.2,13.6-11.8
	c15.7-5.1,24.2-2.4,28.7,1.5c2.3,1.9,3.6,4.2,4.4,6c0.4,0.9,0.6,1.6,0.8,2.2c0.1,0.3,0.1,0.5,0.1,0.6c0,0.1,0,0.1,0,0.2c0,0,0,0,0,0
	l0,0v0v0l0.3,1.8l0.7-1.7v0l0,0l0,0l0,0c0,0,0-0.1,0.1-0.2c0.1-0.2,0.2-0.4,0.3-0.7c0.3-0.6,0.8-1.4,1.4-2.4
	c1.3-1.9,3.3-4.4,6.1-6.5c2.8-2.1,6.3-3.8,10.8-4.2c4.5-0.4,9.9,0.4,16.3,3.5c12.9,6.1,16.9,13.3,17.7,18.9c0.4,2.8,0,5.3-0.5,7
	c-0.2,0.9-0.5,1.6-0.7,2c-0.1,0.2-0.2,0.4-0.3,0.5C390.5,39.9,390.5,39.9,390.4,40.1C390.5,40,390.5,40,390.4,40.1L390.4,40.1
	L390.4,40.1L390.4,40.1z M363,50.5l-0.8,0.5L390,40.8l0.9,0h0l0,0l0,0l0.1,0c0,0,0.1,0,0.1,0c0,0,0.1,0,0.2,0c0.2,0,0.5,0,0.9,0
	c0.8,0,2,0,3.4,0.1c2.8,0.2,6.4,0.6,10,1.7c3.6,1,7,2.7,9.3,5.1c2.3,2.5,3.6,5.8,2.8,10.5c-1.1,6.7-4.9,17.5-9.4,28.7
	c-2.9-2.6-6.6-4.2-10.8-4.3c0,0,0,0,0,0l-7.6-0.3h0l-14.3-0.5l0,0h0h0h0h0h0h0h0h0h0h0h0h0h0h0h0h0h0h0h0h0h0h0h0h0h0h0h0h0h0h0h0h0
	h0h0h0h0h0h0h0h0h0h0h0h0h0h0h0h0h0h0h0h0h0h0h0h0h0h0h0h0h0h0h0h0h0h0h0h0h0h0h0h0h0h0h0h0h0h0h0h0h0h0h0h0h0h0h0h0h0h0h0h0h0h0h0
	h0h0h0h0h0h0h0h0h0h0h0h0h0h0h0h0h0h0h0h0h0h0h0h0h0h0h0h0h0h0h0h0h0h0h0h0h0h0h0h0h0h0h0h0h0h0h0h0h0h0h0h0h0h0h0h0h0h0h0h0h0h0h0
	h0h0h0h0h0h0h0h0h0h0h0h0h0h0h0h0h0h0h0h0h0h0h0h0h0h0h0h0h0h0h0h0h0h0h0h0h0h0h0h0h0h0h0h0h0h0h0h0h0h0h0h0h0h0h0h0h0h0h0h0h0h0h0
	h0h0h0h0h0h0h0h0h0h0h0h0h0h0h0h0h0h0h0h0h0h0h0h0h0h0h0h0h0h0h0h0h0h0h0h0h0h0h0h0h0h0h0h0h0h0h0h0h0h0h0h0h0h0h0h0h0h0h0h0h0h0h0
	h0h0h0h0h0h0h0h0h0h0h0h0h0h0h0h0h0h0h0h0h0h0h0h0h0h0h0h0h0h0h0h0h0h0h0h0h0h0h0h0h0h0h0h0h0h0h0h0h0h0h0h0h0h0h0h0h0h0h0h0h0h0h0
	h0h0h0h0h0h0h0h0h0h0h0h0h0h0h0h0h0h0h0h0h0h0h0h0h0h0h0h0h0h0h0h0h0h0h0h0h0h0h0h0h0h0h0h0h0h0h0h0h0h0h0h0h0h0h0h0h0h0h0h0h0h0h0
	h0h0h0h0h0h0h0h0h0h0h0h0h0h0h0h0h0h0h0h0h0h0h0h0h0h0h0h0h0h0h0h0h0h0h0h0h0h0h0h0h0h0h0h0h0h0h0h0h0h0h0h0h0h0h0h0h0h0h0h0h0h0h0
	h0h0h0h0h0h0h0h0h0h0h0h0h0h0h0h0h0h0h0h0h0h0h0h0h0h0h0h0h0h0h0h0h0h0h0h0h0h0h0h0h-0.6l0.1,0.6c0.1,0.6,0.2,1.3,0.2,2l-1,26.2
	c-0.1,1.5,0.3,3.2,1.3,4.5c10.3,23.1-5.7,49.4-30.9,50.9c0,0,0,0,0,0l-2.5,0.1l-0.1,0l-0.1,0c-0.6,0.2-1.1,0.3-1.8,0.3h0l-10,0.2h0
	c-18.7,0.4-33.8-15.5-32.2-34.2v0l1.3-17.2l0,0l0,0c0.2-3,2.6-5.4,5.5-5.8l17.9-2.3l0,0l0,0c1-0.2,2,0,3.1,0.4l22.6,9.1h0
	c4.4,1.8,9.4-1,10-5.7c0.1-0.6,0.2-1.1,0.3-1.7c1-6.6,2.3-15.1,3.2-21.7l0,0l0,0l2.5-36L363,50.5z"/>
<path class="st3" d="M398.8,106.8L398.8,106.8L398.8,106.8l-6-3.9c-0.1-0.1-0.1-0.1-0.2-0.2c0-0.1,0-0.1,0-0.1
	c0-0.2,0.1-0.4,0.1-0.5l6.3-7c0.2-0.2,0.5-0.2,0.7-0.1c0.2,0.2,0.2,0.5,0,0.7l-5.5,6.1l-0.4,0.4l0.5,0.3l4.9,3.2l0,0l0,0
	c0.2,0.1,0.3,0.4,0.1,0.8l0,0l0,0c-0.1,0.2-0.1,0.2-0.2,0.3c0,0-0.1,0-0.3,0C399,106.8,398.9,106.8,398.8,106.8
	C398.9,106.8,398.9,106.8,398.8,106.8C398.8,106.8,398.8,106.8,398.8,106.8z"/>
<path class="st2" d="M306.8,92.9c-1.8-0.5-3-2.3-2.6-4c0.4-1.8,2.1-2.9,4-2.6c1.8,0.5,2.9,2.3,2.6,4
	C310.4,92.1,308.6,93.2,306.8,92.9z"/>
<path class="st2" d="M335.3,92.9L335.3,92.9L335.3,92.9c-1.9,0.1-3.4-1.4-3.4-3.3c0-1.9,1.5-3.4,3.3-3.4h0h0
	c1.9-0.1,3.4,1.4,3.4,3.3v0v0C338.7,91.3,337.2,92.9,335.3,92.9z"/>
<path class="st4" d="M336.9,93.4h-2.6C335.2,93.1,336.1,93.2,336.9,93.4C336.8,93.4,336.9,93.4,336.9,93.4z"/>
<path class="st3" d="M331.8,94.2L331.8,94.2c0.1,0.1,0.2,0.2,0.4,0.2c0.1,0,0.1,0,0.1,0L331.8,94.2z M331.8,94.2L331.8,94.2
	 M331.8,94.2L331.8,94.2 M331.8,94.2c-0.1-0.1-0.1-0.3-0.1-0.4c0-0.1,0.1-0.2,0.2-0.3l0,0 M331.8,94.2l0.1-0.7 M331.9,93.5
	L331.9,93.5 M331.9,93.5L331.9,93.5 M331.9,93.4c3-2.4,6.2-1.1,7.5,0c0.1,0.1,0.2,0.3,0.2,0.4c0,0.1,0,0.2-0.1,0.3l0,0 M331.9,93.4
	l7.5,0.7 M339.5,94.2L339.5,94.2 M339.5,94.2L339.5,94.2 M339.4,94.2c-0.1,0.1-0.2,0.1-0.3,0.2c-0.1,0-0.3,0-0.4-0.1
	c0,0-0.1-0.1-0.2-0.2c-0.1-0.1-0.2-0.2-0.4-0.3c-0.3-0.2-0.8-0.4-1.4-0.6c-1.1-0.3-2.7-0.3-4.2,0.9l-0.1,0.1 M339.4,94.2l-7,0.1
	 M332.5,94.3L332.5,94.3 M332.5,94.3L332.5,94.3 M332.4,94.3C332.4,94.4,332.4,94.4,332.4,94.3 M332.4,94.3L332.4,94.3 M332.4,94.4
	C332.4,94.4,332.4,94.4,332.4,94.4 M332.4,94.4L332.4,94.4 M332.4,94.4L332.4,94.4L332.4,94.4C332.4,94.4,332.4,94.4,332.4,94.4
	L332.4,94.4z"/>
<path class="st3" d="M310.7,94L310.7,94L310.7,94c0.1,0.1,0.2,0.2,0.2,0.4c0,0.2,0,0.3-0.1,0.4c-0.1,0.1-0.2,0.2-0.4,0.2
	c-0.2,0-0.3,0-0.4-0.1l0,0l0,0c0,0,0,0,0,0c-0.2-0.1-0.9-0.6-1.9-0.8c-1-0.2-2.3,0-3.6,1.2c-0.1,0-0.2,0.1-0.3,0.1c0,0-0.1,0-0.1,0
	c-0.1,0-0.2,0-0.2,0c-0.1,0-0.2,0-0.2,0c0,0-0.1-0.1-0.2-0.1l-0.3,0.3l0.3-0.3c-0.1-0.1-0.1-0.2-0.1-0.3c0-0.1,0.1-0.3,0.2-0.4
	C306.4,91.9,309.5,93,310.7,94z"/>
<path class="st1" d="M316.9,87L316.9,87L316.9,87c0.1,8.1-5.6,14.4-12.4,14.4c-6.8,0-12.4-6.4-12.4-14.4c0-8,5.7-14.4,12.4-14.4
	C311.2,72.6,316.9,79,316.9,87z M304.4,73.7c-6.4,0-11.4,6.1-11.4,13.4c0,7.3,5.1,13.2,11.4,13.2c6.4,0,11.4-6.1,11.4-13.4
	C315.8,79.7,310.8,73.7,304.4,73.7z"/>
<path class="st5" d="M319.8,80.7v13.5h-7c-1.7,0-3.3,1.4-3.3,3.3v1.3c0,3.5,2.9,6.4,6.4,6.4h6.4"/>
<defs>
	<filter id="Adobe_OpacityMaskFilter" filterUnits="userSpaceOnUse" x="308.6" y="80.7" width="13.7" height="25.5">
		<feColorMatrix  type="matrix" values="1 0 0 0 0  0 1 0 0 0  0 0 1 0 0  0 0 0 1 0"/>
	</filter>
</defs>
<mask maskUnits="userSpaceOnUse" x="308.6" y="80.7" width="13.7" height="25.5" id="path-15-inside-1_666_2148_1_">
	<path class="st6" d="M319.8,80.7v13.5h-7c-1.7,0-3.3,1.4-3.3,3.3v1.3c0,3.5,2.9,6.4,6.4,6.4h6.4"/>
</mask>
<path class="st7" d="M319.8,94.2v1h1v-1H319.8z M318.8,80.7v13.5h2V80.7H318.8z M319.8,93.2h-7v2h7V93.2z M312.8,93.2
	c-2.3,0-4.3,1.9-4.3,4.3h2c0-1.3,1.1-2.3,2.3-2.3V93.2z M308.6,97.5v1.3h2v-1.3H308.6z M308.6,98.8c0,4,3.3,7.4,7.4,7.4v-2
	c-2.9,0-5.4-2.4-5.4-5.4H308.6z M315.9,106.2h6.4v-2h-6.4V106.2z"/>
<path class="st1" d="M318.8,93.6h0.5v-0.5V80.7c0-0.2,0.1-0.3,0.1-0.4c0.1-0.1,0.2-0.1,0.4-0.1c0.2,0,0.3,0.1,0.4,0.1
	c0.1,0.1,0.1,0.2,0.1,0.4v14h-7.5c-1.5,0-2.8,1.3-2.8,2.8v1.3c0,3.3,2.6,5.8,5.8,5.8h6.4c0.2,0,0.3,0.1,0.4,0.1
	c0.1,0.1,0.1,0.2,0.1,0.4c0,0.3-0.3,0.5-0.5,0.5h-6.4c-3.8,0-6.9-3.1-6.9-6.9v-1.4c0-2.1,1.7-3.8,3.8-3.8H318.8z"/>
<path class="st1" d="M335.7,100.5c-6.8,0-12.4-6.4-12.4-14.4c0-8,5.7-14.4,12.4-14.4c6.7,0,12.4,6.4,12.4,14.4
	C348.2,94.1,342.6,100.5,335.7,100.5z M335.7,72.8c-6.4,0-11.4,6.1-11.4,13.4c0,7.3,5.1,13.4,11.4,13.4c6.4,0,11.4-6.1,11.4-13.4
	C347.1,78.9,342.1,72.8,335.7,72.8z"/>
<path class="st2" d="M342.4,71.1L342.4,71.1L342.4,71.1c-0.6-0.2-1.2-0.4-1.8-0.6c-0.1,0-0.2-0.1-0.2-0.1c-0.7-0.2-1.3-0.4-2-0.6
	c-1.2-0.3-2.7-0.6-4.1-0.9l0,0c-0.2,0-0.4-0.1-0.6-0.1c-0.5-0.1-1-0.2-1.5-0.3c-0.6-0.2-1.2-0.4-1.6-0.8l0,0l0,0
	c-0.3-0.3-0.5-0.6-0.5-1.1c0-0.4,0.3-1,1.1-1.5l0,0l0,0c1.4-1.1,4.8-2,8.8-0.9c4,1.1,6.4,3.5,7.2,5.1c0.3,0.8,0.2,1.4,0,1.8
	c-0.2,0.4-0.5,0.6-1,0.7c-0.5,0.1-1.1,0-1.8-0.1c-0.5-0.1-1.1-0.3-1.6-0.5C342.6,71.2,342.5,71.1,342.4,71.1z"/>
<path class="st2" d="M299.1,67.6L299.1,67.6L299.1,67.6c-0.5-0.2-1-1-0.3-2.4c0.7-1.3,2.9-2.9,6.1-3.2c3.2-0.2,5.6,1.1,6.5,2.3l0,0
	l0,0c0.5,0.6,0.6,1.1,0.6,1.5c0,0.4-0.2,0.7-0.5,0.8c-0.3,0.2-0.7,0.3-1.3,0.4c-0.5,0.1-1.1,0.1-1.6,0.1h0c-1.1,0-2.3,0-3.3,0.1
	c-0.1,0-0.2,0-0.3,0c-0.9,0.1-2,0.2-3,0.4c-0.3,0-0.5,0.1-0.8,0.1c0,0,0,0-0.1,0c-0.3,0-0.5,0.1-0.8,0.1
	C299.8,67.8,299.4,67.8,299.1,67.6z"/>
<path class="st1" d="M323.8,85.5h-5.3c-0.2,0-0.3-0.1-0.4-0.1c-0.1-0.1-0.1-0.2-0.1-0.4c0-0.2,0.1-0.3,0.1-0.4
	c0.1-0.1,0.2-0.1,0.4-0.1h5.3c0.2,0,0.3,0.1,0.4,0.1c0.1,0.1,0.1,0.2,0.1,0.4c0,0.1-0.1,0.2-0.2,0.4
	C324.1,85.4,323.9,85.5,323.8,85.5z"/>
<path class="st1" d="M347.6,84.9c-0.2,0-0.5-0.2-0.5-0.5c0-0.1,0-0.2,0.1-0.3c0.1-0.1,0.3-0.2,0.4-0.2l31.4-3c0.3,0,0.6,0.3,0.6,0.5
	c0,0.1,0,0.2-0.1,0.3c-0.1,0.1-0.3,0.2-0.4,0.2L347.6,84.9z"/>
<path class="st3" d="M318.2,123.7L318.2,123.7L318.2,123.7c-0.3,0-0.5-0.3-0.5-0.5c0-0.1,0.1-0.2,0.2-0.4c0.1-0.1,0.3-0.2,0.4-0.2
	l12.3,0.2l0,0h0c3.4,0,6.7-2.3,7.7-5.6l1,0.3c-1,3.7-4.6,6.4-8.5,6.4h-0.1L318.2,123.7z"/>
<path class="st1" d="M316.4,182.4l15.2-13.2l18.2,20.6l-28.7,25.6l0,0l0,0c-0.9,0.8-2.4,0.2-2.4-1l0,0v0L316.4,182.4z"/>
<path class="st1" d="M424.1,182.7l-49.8,42.2l0,0c-1.2,1-3.1,0.8-3.9-0.6l0,0l0,0L350,189.9l50.9-29.4L424.1,182.7z"/>
<path class="st2" d="M368.1,222.3l-28.7,17.1l-13.4-27l23.6-21L368.1,222.3z"/>
<path class="st8" d="M166.8,69.6l-31.9,0.2H93.1l0.1-15.5c0-2.1-0.2-4.1-0.5-6.1C87.1,17.6,42.4,17.5,36.4,48
	c-0.4,2.1-0.6,4.1-0.6,6.3v18.6l0.1,13.9c0.1,14.7-9.3,27.2-21.7,30c-0.3,0.1,1.3,0.1,3,0.1c2.3,0.1,4,0,4,0l119.2,0.2
	c14.7-0.1,26.5-13.7,26.4-30.2V69.6z"/>
<path class="st1" d="M263.3,69.4v0.5h0.1v196.4h-0.1v0.5v124H120.5c-14.9,0-26.9-11.9-26.9-26.6V55.7v0l0,0
	c-0.9-14.6-11.2-26.8-25.1-30.2h53.9h0l99.1-0.1c4.7,0.1,9.1,1.1,13.1,2.9l0,0l0,0C251.4,34.5,263.3,50.6,263.3,69.4z"/>
<path class="st2" d="M239,190.9H122.7c-0.2,0-0.3-0.1-0.4-0.1c-0.1-0.1-0.1-0.2-0.1-0.4c0-0.2,0.1-0.3,0.1-0.4
	c0.1-0.1,0.2-0.1,0.4-0.1H239c0.2,0,0.3,0.1,0.4,0.1c0.1,0.1,0.1,0.2,0.1,0.4c0,0.1-0.1,0.2-0.2,0.4
	C239.2,190.9,239.1,190.9,239,190.9z"/>
<path class="st2" d="M204.4,174L204.4,174L204.4,174c0,0.2,0,0.3-0.1,0.4c-0.1,0.1-0.2,0.2-0.3,0.2h-49.1c-0.2,0-0.3-0.1-0.4-0.1
	c-0.1-0.1-0.1-0.2-0.1-0.4c0-0.2,0.1-0.3,0.1-0.4c0.1-0.1,0.2-0.1,0.4-0.1h49c0.2,0,0.3,0.1,0.4,0.1
	C204.3,173.6,204.4,173.8,204.4,174z"/>
<path class="st2" d="M239,215H122.7c-0.2,0-0.3-0.1-0.4-0.1c-0.1-0.1-0.1-0.2-0.1-0.4c0-0.2,0.1-0.3,0.1-0.4
	c0.1-0.1,0.2-0.1,0.4-0.1H239c0.2,0,0.3,0.1,0.4,0.1c0.1,0.1,0.1,0.2,0.1,0.4C239.5,214.8,239.3,215,239,215z"/>
<path class="st2" d="M239,239.2H122.7c-0.2,0-0.3-0.1-0.4-0.1c-0.1-0.1-0.1-0.2-0.1-0.4c0-0.2,0.1-0.3,0.1-0.4
	c0.1-0.1,0.2-0.1,0.4-0.1H239c0.2,0,0.3,0.1,0.4,0.1c0.1,0.1,0.1,0.2,0.1,0.4C239.5,238.9,239.3,239.2,239,239.2z"/>
<path class="st2" d="M239,261.8H122.7c-0.2,0-0.3-0.1-0.4-0.1c-0.1-0.1-0.1-0.2-0.1-0.4s0.1-0.3,0.1-0.4c0.1-0.1,0.2-0.1,0.4-0.1
	H239c0.2,0,0.3,0.1,0.4,0.1c0.1,0.1,0.1,0.2,0.1,0.4C239.5,261.6,239.3,261.8,239,261.8z"/>
<path class="st9" d="M160.1,65.8L160.1,65.8c2.5,3.5,8.1,1.7,8.1-2.7c0-3.9,5.6-4.9,6.8-1.1c1.3,4.2,7.2,4.1,8.5,0
	c1.3-3.8,6.8-2.9,6.8,1.1c0,4.4,5.5,6.3,8.1,2.7c2.3-3.2,7.4-0.6,6.1,3.1c-1.4,4.1,3.5,7.5,6.9,5c3.2-2.3,7.2,1.6,4.8,4.9
	c-2.6,3.6,0.8,8.3,5,6.9c3.8-1.3,6.4,3.8,3.1,6.1l0,0c-3.5,2.5-1.7,8.1,2.7,8.1c3.9,0,4.9,5.6,1.1,6.8c-4.2,1.4-4.2,7.2,0,8.6
	c3.8,1.3,2.9,6.8-1.1,6.8c-4.4,0-6.2,5.5-2.7,8.1c3.2,2.3,0.6,7.4-3.1,6.1c-4.1-1.4-7.5,3.5-5,6.9c2.3,3.2-1.6,7.2-4.8,4.9
	c-3.6-2.7-8.3,0.8-6.9,5c1.3,3.8-3.8,6.4-6.1,3.1l0,0c-2.5-3.5-8.1-1.7-8.1,2.7c0,3.9-5.6,4.9-6.8,1.1c-1.4-4.2-7.2-4.2-8.5,0
	c-1.3,3.8-6.8,2.9-6.8-1.1c0-4.4-5.5-6.3-8.1-2.7c-2.3,3.2-7.4,0.6-6.1-3.1c1.4-4.1-3.5-7.5-6.9-5c-3.2,2.3-7.2-1.6-4.8-4.9
	c2.6-3.6-0.8-8.3-5-6.9c-3.8,1.3-6.4-3.8-3.1-6.1l0,0c3.5-2.5,1.7-8.1-2.7-8.1c-3.9,0-4.9-5.6-1.1-6.8c4.2-1.4,4.2-7.2,0-8.6
	c-3.8-1.3-2.9-6.8,1.1-6.8c4.4,0,6.2-5.5,2.7-8.1c-3.2-2.3-0.6-7.4,3.1-6.1c4.1,1.4,7.5-3.5,5-6.9c-2.3-3.2,1.6-7.2,4.8-4.9
	c3.6,2.7,8.3-0.8,6.9-5C152.8,65.2,157.8,62.6,160.1,65.8z"/>
<path class="st2" d="M120.4,66.4L120.4,66.4L120.4,66.4c-0.1-0.1-0.2-0.2-0.2-0.4c0-0.2,0-0.3,0.1-0.4c0.1-0.1,0.2-0.2,0.4-0.2
	c0.2,0,0.3,0,0.4,0.1l9.6,7.7l0,0l0,0c0.1,0.1,0.2,0.2,0.2,0.4c0,0.2,0,0.3-0.1,0.4c-0.1,0.1-0.2,0.2-0.2,0.2c0,0-0.1,0-0.2,0
	c-0.1,0-0.1,0-0.3-0.1L120.4,66.4z"/>
<path class="st2" d="M108.9,110L108.9,110L108.9,110l12-2.9c0.1,0,0.3,0,0.4,0.1c0.1,0.1,0.2,0.2,0.2,0.3c0,0.1,0,0.3-0.1,0.4
	c-0.1,0.1-0.2,0.2-0.3,0.2l0,0l0,0l-12,2.9l-0.3,0.1c-0.2-0.1-0.3-0.2-0.4-0.4c0-0.1,0-0.3,0.1-0.4C108.7,110.1,108.8,110,108.9,110
	z"/>
<path class="st2" d="M110.8,88.3L110.8,88.3L110.8,88.3c-0.1,0-0.2-0.1-0.3-0.2c-0.1-0.1-0.1-0.3-0.1-0.4c0-0.1,0.1-0.2,0.2-0.3
	c0.1-0.1,0.3-0.1,0.4-0.1l11.9,3.3l0,0l0,0c0.1,0,0.2,0.1,0.3,0.2c0.1,0.1,0.1,0.3,0.1,0.4c-0.1,0.2-0.3,0.3-0.4,0.3h0l0,0h0h0l0,0
	h0l0,0h0h0l0,0h0l0,0h0h0l0,0h0l0,0h0h0l0,0h0l0,0h0h0l0,0h0l0,0h0h0l0,0h0l0,0h0h0l0,0h0l0,0h0h0l0,0h0l0,0h0h0l0,0h0l0,0h0h0l0,0
	h0l0,0h0h0l0,0h0l0,0h0h0l0,0h0l0,0h0h0l0,0h0l0,0h0h0l0,0h0l0,0h0h0l0,0h0l0,0h0h0l0,0h0l0,0h0h0l0,0h0l0,0h0h0l0,0h0l0,0h0h0l0,0
	h0h0l0,0h0l0,0h0h0l0,0h0l0,0h0h0l0,0h0l0,0h0h0l0,0h0l0,0h0h0l0,0h0l0,0h0h0l0,0h0l0,0h0h0l0,0h0l0,0h0h0l0,0h0l0,0h0h0l0,0h0l0,0
	h0h0l0,0h0l0,0h0h0l0,0h0l0,0h0h0l0,0h0l0,0h0h0l0,0h0l0,0h0h0l0,0h0l0,0h0h0l0,0h0l0,0h0h0l0,0h0l0,0h0h0l0,0h0l0,0h0h0l0,0h0l0,0
	h0h0l0,0h0l0,0h0h0l0,0h0l0,0h0h0l0,0h0l0,0h0h0l0,0h0l0,0h0h0l0,0h0l0,0h0h0l0,0h0h0l0,0h0l0,0h0h0l0,0h0l0,0h0h0l0,0h0l0,0h0h0
	l0,0h0l0,0h0h0l0,0h0l0,0h0h0l0,0h0l0,0h0h0l0,0h0l0,0h0h0l0,0h0l0,0h0h0l0,0h0l0,0h0h0l0,0h0l0,0h0h0l0,0h0l0,0h0h0l0,0h0l0,0h0h0
	l0,0h0l0,0h0h0l0,0h0l0,0h0h0l0,0h0l0,0h0h0l0,0h0l0,0h0h0l0,0h0l0,0h0h0l0,0h0l0,0h0h0l0,0h0l0,0h0h0l0,0h0l0,0h0h0l0,0h0l0,0h0h0
	l0,0h0l0,0h0h0l0,0h0l0,0h0h0l0,0h0h0l0,0h0l0,0h0h0l0,0h0l0,0h0h0l0,0h0l0,0h0h0l0,0h0l0,0h0h0l0,0h0l0,0h0h0l0,0h0l0,0h0h0l0,0h0
	l0,0h0h0l0,0h0l0,0h0h0l0,0h0l0,0h0h0l0,0h0l0,0h0h0l0,0h0l0,0h0h0l0,0h0l0,0h0h0l0,0h0l0,0h0h0l0,0l0,0L110.8,88.3z"/>
<path class="st2" d="M248.5,109.1l-12.4,1c-0.1,0-0.3-0.1-0.4-0.1c-0.1-0.1-0.1-0.2-0.1-0.3c0-0.3,0.2-0.6,0.5-0.6l12.3-1
	c0.3,0,0.5,0.2,0.6,0.5C249,108.8,248.8,109,248.5,109.1z"/>
<path class="st2" d="M234.4,90.6L234.4,90.6L234.4,90.6l11.9-3.3c0.1,0,0.3,0,0.4,0.1c0.1,0.1,0.2,0.2,0.2,0.3c0,0.1,0,0.3-0.1,0.4
	c-0.1,0.1-0.2,0.2-0.3,0.2l0,0l0,0l-11.8,3.3l0,0l0,0h0h0l0,0h0l0,0h0l0,0h0h0l0,0h0l0,0h0l0,0h0l0,0h0h0l0,0h0l0,0h0l0,0h0l0,0h0h0
	l0,0h0l0,0h0l0,0h0l0,0h0h0l0,0h0l0,0h0l0,0h0l0,0h0l0,0h0h0l0,0h0l0,0h0l0,0h0l0,0h0l0,0h0l0,0h0h0l0,0h0l0,0h0l0,0h0l0,0h0l0,0h0
	l0,0h0l0,0h0l0,0h0l0,0h0l0,0h0l0,0h0l0,0h0h0l0,0h0l0,0h0l0,0h0l0,0h0l0,0h0l0,0h0l0,0h0l0,0h0l0,0h0l0,0h0l0,0l0,0h0l0,0h0l0,0h0
	l0,0h0l0,0h0l0,0h0l0,0h0l0,0h0l0,0h0l0,0h0l0,0l0,0h0l0,0h0l0,0h0l0,0h0l0,0h0l0,0h0l0,0l0,0h0l0,0h0l0,0h0l0,0h0l0,0l0,0h0l0,0h0
	l0,0h0l0,0l0,0h0l0,0h0l0,0h0l0,0l0,0h0l0,0h0l0,0h0l0,0l0,0h0l0,0h0l0,0l0,0h0l0,0h0l0,0l0,0h0l0,0h0l0,0l0,0h0l0,0h0l0,0l0,0h0
	l0,0h0l0,0l0,0h0l0,0l0,0h0l0,0h0l0,0l0,0h0l0,0l0,0h0l0,0l0,0h0l0,0l0,0h0l0,0h0l0,0l0,0h0l0,0l0,0h0l0,0l0,0h0l0,0l0,0h0l0,0l0,0
	h0l0,0l0,0h0l0,0l0,0h0l0,0l0,0l0,0h0l0,0l0,0h0l0,0l0,0h0l0,0l0,0l0,0h0l0,0l0,0h0l0,0l0,0h0l0,0l0,0l0,0h0l0,0l0,0l0,0h0l0,0l0,0
	h0l0,0l0,0l0,0h0l0,0l0,0l0,0h0l0,0l0,0l0,0h0l0,0l0,0l0,0l0,0h0l0,0l0,0l0,0h0l0,0l0,0l0,0h0l0,0l0,0l0,0l0,0h0l0,0l0,0l0,0l0,0h0
	l0,0l0,0l0,0l0,0h0l0,0l0,0l0,0l0,0h0l0,0l0,0l0,0l0,0l0,0h0l0,0l0,0l0,0l0,0l0,0h0l0,0l0,0l0,0l0,0l0,0l0,0h0l0,0l0,0l0,0l0,0l0,0
	l0,0l0,0h0l0,0l0,0l0,0l0,0l0,0l0,0l0,0h0l0,0l0,0l0,0l0,0l0,0l0,0l0,0l0,0l0,0h0l0,0l0,0l0,0l0,0l0,0l0,0l0,0l0,0l0,0l0,0l0,0l0,0
	l0,0l0,0h0l0,0l0,0l0,0l0,0l0,0l0,0l0,0l0,0l0,0l0,0l0,0l0,0l0,0l0,0l0,0l0,0l0,0l0,0l0,0l0,0l0,0c-0.2,0-0.4-0.1-0.5-0.4
	c0-0.1,0-0.3,0.1-0.4C234.2,90.6,234.3,90.6,234.4,90.6z"/>
<path class="st2" d="M232.4,124.2L232.4,124.2L232.4,124.2c0.1-0.2,0.3-0.3,0.4-0.3c0.1,0,0.2,0,0.3,0l0,0l0,0l11,5.8
	c0.2,0.1,0.2,0.2,0.3,0.3c0,0.1,0,0.2,0,0.3l0,0.1l0,0.1c0,0.1-0.1,0.2-0.3,0.2c-0.1,0-0.1,0-0.2,0c0,0,0,0-0.1,0l-11-5.7
	c-0.2-0.1-0.2-0.2-0.3-0.3C232.4,124.3,232.4,124.3,232.4,124.2z"/>
<path class="st1" d="M337.4,322.9c-2.2-0.7-4.5-1-6.9-1h-11.3c-15.5,0-28,12.6-28,28.1c0,21.4-17.3,38.7-38.6,38.7h-6.1
	c-17.7,0-32.1-14.4-32.1-32.1V311c0-13-8.8-23.9-20.7-27.3h122.5c11.8,0,21.5,9.6,21.5,21.5v16.6h-0.3v0.5V322.9z"/>
<path class="st1" d="M488.1,361.9L488.1,361.9c0.2,13.3,8.8,24.8,21.2,28.9H388.2c-18.7,0-33.9-15.2-33.9-33.9v-11.1
	c0-10.5-6.8-19.3-16-22.6v-0.4h128.2c11.8,0,21.5,9.6,21.5,21.5v0L488.1,361.9z"/>
<path class="st8" d="M353.7,356.8v-11.1c0-10.4-6.7-19.1-16-22.2c-2.4-0.8-4.8-1.2-7.4-1.2H319c-15.2,0-27.5,12.3-27.5,27.6
	c0,21.6-17.5,39.2-39.1,39.2h-6.1c-18,0-32.6-14.6-32.6-32.6v-45.4c0-14.9-11.8-27.1-26.5-27.8c-0.4,0-0.8,0-1.2,0
	c-18.8,0-33.9,15.2-33.9,33.9v37.2c0,19.1-15.5,34.6-34.6,34.6c-11.8,0-21.7-8.3-24-19.4c2.4,12.6,13.1,21.7,26.7,21.7h217.4H388
	C369.2,391.3,353.7,375.9,353.7,356.8z"/>
<path class="st1" d="M91.9,233.7l-0.1,1l0.9-0.5c2.9-1.6,5.9-3.4,9.1-5.4c0.8-0.4,1.6-0.8,2.5-1.3c3.1-1.7,6.6-3.6,9.9-4.4
	c2.1-0.5,4.1-0.6,5.8,0c1.7,0.6,3.2,2,4.4,4.5c0.7,1.7,0.5,3-0.1,4c-0.6,1.1-1.8,1.9-3.1,2.6l0.3,0.9c2.1-0.5,4.2-0.7,5.9-0.1
	c1.7,0.6,3,1.9,3.7,4.6l0,0l0,0c0.5,1.2,0.6,2.2,0.4,3c-0.1,0.8-0.5,1.5-1.1,2.1c-1.2,1.3-3.1,2.1-5.2,2.8l0.2,1
	c1.3-0.2,2.6-0.2,3.6,0.3c1,0.4,1.9,1.3,2.4,2.9l0,0l0,0c0.6,1.4,0.8,2.6,0.7,3.7c-0.1,1-0.5,2-1.2,2.8c-1.3,1.6-3.5,2.8-5.8,3.5
	l0.1,1c1.1,0,1.8,0.4,2.3,1.1c0.5,0.7,0.7,1.8,0.6,3c-0.2,2.4-1.6,5.2-4,6.8l0,0l0,0l-27.6,19.8l0,0l0,0c-1.1,0.9-2.8,1.5-4.8,2l0,0
	c-16.1,3.4-31.4-12-29.2-28.8l0,0l0,0c0.7-5.9,2.4-11.8,4.9-17.1l0,0l0.1-0.2c0.1-0.2,0.2-0.4,0.4-0.7c0.4-0.6,0.9-1.5,1.6-2.6
	c1.3-2.2,3.1-5.2,5.2-8.3c4-6.4,8.8-13.5,11.6-16.7l0,0l0,0c0.6-0.7,1.3-1.4,2-1.7l0,0l0,0c0.7-0.4,1.6-0.5,2.2-0.1l0,0l0,0
	c0.4,0.2,0.8,0.7,1.1,1.2c0.3,0.5,0.5,1.2,0.6,1.8c0.8,3.6,0.3,7.3-0.2,11C91.9,233.3,91.9,233.5,91.9,233.7z"/>
<path class="st1" d="M95.1,231.5L95.1,231.5L95.1,231.5c0.2-0.1,0.6-0.1,0.8,0.2c0.1,0.2,0.1,0.6-0.2,0.8c0,0,0,0,0,0l-14.9,8.7l0,0
	c0,0,0,0-0.1,0c0,0-0.1,0-0.1,0c-0.1,0-0.2,0-0.3-0.1c-0.1-0.1-0.2-0.1-0.2-0.2c-0.1-0.2-0.1-0.6,0.2-0.7L95.1,231.5z"/>
<path class="st1" d="M122.5,234.5L122.5,234.5L122.5,234.5c-0.2,0.1-0.5,0.2-0.8,0.3c-0.3,0.1-0.7,0.3-1.1,0.6
	c-0.9,0.4-1.9,1-3.1,1.7c-2.3,1.3-4.9,2.8-6.9,4l-0.2,0.1c-0.1,0-0.1,0-0.2-0.1c-0.1-0.1-0.2-0.1-0.2-0.2c-0.1-0.2-0.1-0.6,0.2-0.8
	c0.6-0.3,3.1-1.9,5.7-3.4c1.3-0.8,2.7-1.5,3.9-2.1c1.2-0.6,2-1,2.5-1.1c0.1,0,0.3,0,0.4,0.1c0.1,0.1,0.2,0.2,0.2,0.3l0.5-0.1
	l-0.5,0.1c0,0.1,0,0.3-0.1,0.4C122.6,234.5,122.5,234.5,122.5,234.5z"/>
<path class="st1" d="M125.1,247.8L125.1,247.8L125.1,247.8c0.2-0.1,0.6-0.1,0.8,0.2c0.1,0.2,0.1,0.6-0.2,0.8l-9.3,5.4c0,0,0,0-0.1,0
	c0,0-0.1,0-0.1,0c0,0,0,0,0,0c-0.1,0-0.1,0-0.2,0c-0.1,0-0.2,0-0.3-0.1c-0.1-0.1-0.2-0.1-0.2-0.2c-0.1-0.2-0.1-0.6,0.2-0.7
	L125.1,247.8z"/>
<path class="st1" d="M123.6,262.6L123.6,262.6L123.6,262.6c0.3-0.2,0.6-0.1,0.8,0.2c0.1,0.2,0.1,0.6-0.2,0.7l-5.1,2.8l-0.1,0l0,0
	c0,0,0,0-0.1,0c0,0-0.1,0-0.1,0c-0.2,0-0.4-0.1-0.5-0.3c-0.1-0.2-0.1-0.6,0.2-0.7L123.6,262.6z"/>
<path class="st1" d="M326.5,268.8l80.4,97.1c9.7,10.4,22,16.2,34.7,17.8c25.6,3.2,49.9-12.1,59.4-36.2L326.5,268.8z M326.5,268.8
	l-13.4-15.3l-12.9-0.8c-4-0.2-7.9-1.4-11.4-3.5L326.5,268.8z M507.7,331.4l-48.4-37.7l-103.6-68.6l0,0l0,0l-24-18.8h0
	c-6.6-5.2-14.6-8.4-23-9.3h0l-27.5-2.8h0c-3.8-0.4-7.7,0.3-11.2,2.1l0,0l-13,6.7l0,0v0c-1.9,0.9-3,3-2.9,5.2l0.1,1.5l0,0.3l-0.3,0.1
	l-1,0.5l0,0l0,0c-2.6,1.3-4.2,3.9-4.2,6.6v5.4v0.1l0,0.1l-0.9,2.2c-1.2,2.7-0.7,5.9,1.3,8.1l0,0l0,0l20.3,22.8l0,0l0,0
	c1,1.2,2.8,1.2,4,0.1c3-3.1,3.2-8.1,0.5-11.5L507.7,331.4z M507.7,331.4l-7.2,15.8l0,0l0,0c-9.4,23.9-33.5,39-58.8,35.9h0
	c-12.6-1.5-24.8-7.3-34.4-17.6l-80.4-97l0,0l0,0l-13.4-15.3l-0.1-0.2l-0.2,0l-12.9-0.8l0,0l0,0c-3.9-0.2-7.7-1.4-11.2-3.4
	c0,0,0,0,0,0l-21-12.4l-0.6,0.7l6.3,7.8L507.7,331.4z"/>
<path class="st1" d="M269.2,204.6L269.2,204.6L269.2,204.6c0.3-0.1,0.6,0,0.7,0.3c0.1,0.2,0,0.6-0.3,0.7l-15.6,5l-0.1,0l0,0
	c-0.2,0-0.4-0.1-0.6-0.4c-0.1-0.2,0.1-0.5,0.3-0.7L269.2,204.6z"/>
<path class="st1" d="M248.5,222L248.5,222L248.5,222L268,217c0.1,0,0.3,0,0.4,0.1c0.1,0.1,0.2,0.2,0.2,0.3c0,0.1,0,0.3-0.1,0.4
	c-0.1,0.1-0.2,0.2-0.3,0.2l0,0l0,0l-19.4,4.9l-0.1,0l0,0c-0.1,0-0.2-0.1-0.2-0.1c-0.1-0.1-0.2-0.2-0.2-0.3c0-0.1,0-0.3,0.1-0.4
	C248.4,222,248.5,222,248.5,222z"/>
<path class="st1" d="M263.6,232.3L263.6,232.3L263.6,232.3c-0.1-0.1-0.1-0.2-0.1-0.3c0-0.1,0.1-0.3,0.2-0.4c0.1-0.1,0.2-0.1,0.3-0.1
	c0.1,0,0.3,0.1,0.4,0.2l3.9,4.4l0,0l0,0c0.1,0.1,0.1,0.2,0.1,0.3c0,0.1-0.1,0.3-0.2,0.4c0,0,0,0-0.1,0c-0.1,0-0.2,0-0.3,0
	c-0.1,0-0.2,0-0.2,0c0,0-0.1-0.1-0.2-0.1L263.6,232.3z"/>
<path class="st1" d="M313.1,252.6L313.1,252.6L313.1,252.6l15.3-0.6c0.3,0,0.5,0.2,0.5,0.5c0,0.2-0.1,0.3-0.1,0.4
	c-0.1,0.1-0.2,0.1-0.4,0.1h0h0l-15.3,0.6c-0.3,0-0.5-0.2-0.5-0.5c0-0.2,0.1-0.3,0.1-0.4C312.8,252.7,312.9,252.6,313.1,252.6z"/>
</svg>
