<svg width="780" height="400" viewBox="0 0 780 400" fill="none" xmlns="http://www.w3.org/2000/svg">
<path d="M596.637 188.62L548.476 180.395L487.275 198.49L461.192 188.826C457.598 189.751 454.312 190.676 451.334 191.499C451.334 191.499 356.964 206.612 368.362 290.198L421.041 291.534C422.479 296.058 422.581 294.927 423.711 297.703L442.606 360.212H597.15L598.588 309.218L645.516 339.444C651.267 343.145 658.968 339.444 659.584 332.556C661.535 310.863 664 272.617 664 271.692C666.464 202.191 596.637 188.62 596.637 188.62Z" fill="#FBC108"/>
<path d="M426.073 306.647C425.662 306.647 425.149 306.339 425.046 305.825L415.701 269.224C415.599 268.71 415.907 268.093 416.42 267.99C416.934 267.888 417.55 268.196 417.652 268.71L426.997 305.311C427.1 305.825 426.792 306.442 426.278 306.545C426.278 306.647 426.175 306.647 426.073 306.647Z" fill="#FBC108"/>
<path d="M606.392 313.33C606.187 313.33 605.981 313.227 605.776 313.125L576.921 290.917C573.429 288.553 571.068 284.749 570.657 280.431L567.679 251.335C567.576 250.821 567.987 250.307 568.603 250.204C569.116 250.204 569.63 250.513 569.733 251.129L572.711 280.225C573.121 283.926 575.072 287.216 578.153 289.17L607.008 311.377C607.419 311.685 607.522 312.405 607.214 312.816C607.008 313.125 606.7 313.33 606.392 313.33Z" fill="#FBC108"/>
<path d="M527.613 91.7576L527.618 91.7577L535.422 91.9634L535.423 91.9634C539.502 92.063 543.286 93.7567 546.076 96.4498L546.081 96.4543C549.371 99.5488 551.462 104.141 551.263 109.024L551.263 109.034V109.044V110.371C550.858 120.27 542.465 128.07 532.576 127.77L529.29 127.667L528.635 127.647L528.788 128.284L542.854 186.774C544.559 195.378 541.677 203.005 536.148 208.945C530.611 214.893 522.425 219.14 513.581 220.924L512.876 221.025L512.862 221.027L512.849 221.029C495.143 224.575 477.953 213.228 474.416 195.922L469.59 172.071L469.521 171.733L469.181 171.677C448.807 168.328 433.983 149.342 435.506 127.585L435.506 127.584L439.614 67.4398L439.615 67.4228V67.4057V67.4045V67.4033V67.4021V67.4009V67.3997V67.3985V67.3973V67.3961V67.395V67.3938V67.3926V67.3914V67.3902V67.3891V67.3879V67.3867V67.3856V67.3844V67.3832V67.3821V67.3809V67.3798V67.3786V67.3774V67.3763V67.3752V67.374V67.3729V67.3717V67.3706V67.3694V67.3683V67.3672V67.366V67.3649V67.3638V67.3627V67.3615V67.3604V67.3593V67.3582V67.3571V67.356V67.3548V67.3537V67.3526V67.3515V67.3504V67.3493V67.3482V67.3471V67.346V67.3449V67.3438V67.3427V67.3417V67.3406V67.3395V67.3384V67.3373V67.3362V67.3352V67.3341V67.333V67.3319V67.3309V67.3298V67.3287V67.3277V67.3266V67.3255V67.3245V67.3234V67.3224V67.3213V67.3203V67.3192V67.3182V67.3171V67.3161V67.315V67.314V67.3129V67.3119V67.3109V67.3098V67.3088V67.3078V67.3067V67.3057V67.3047V67.3036V67.3026V67.3016V67.3006V67.2995V67.2985V67.2975V67.2965V67.2955V67.2944V67.2934V67.2924V67.2914V67.2904V67.2894V67.2884V67.2874V67.2864V67.2854V67.2844V67.2834V67.2824V67.2814V67.2804V67.2794V67.2784V67.2774V67.2764V67.2754V67.2744V67.2735V67.2725V67.2715V67.2705V67.2695V67.2685V67.2676V67.2666V67.2656V67.2646V67.2636V67.2627V67.2617V67.2607V67.2598V67.2588V67.2578V67.2569V67.2559V67.2549V67.254V67.253V67.252V67.2511V67.2501V67.2492V67.2482V67.2472V67.2463V67.2453V67.2444V67.2434V67.2425V67.2415V67.2406V67.2396V67.2387V67.2377V67.2368V67.2358V67.2349V67.2339V67.233V67.2321V67.2311V67.2302V67.2292V67.2283V67.2274V67.2264V67.2255V67.2246V67.2236V67.2227V67.2218V67.2208V67.2199V67.219V67.218V67.2171V67.2162V67.2152V67.2143V67.2134V67.2125V67.2115V67.2106V67.2097V67.2088V67.2078V67.2069V67.206V67.2051V67.2041V67.2032V67.2023V67.2014V67.2005V67.1996V67.1986V67.1977V67.1968V67.1959V67.195V67.1941V67.1931V67.1922V67.1913V67.1904V67.1895V67.1886V67.1877V67.1867V67.1858V67.1849V67.184V67.1831V67.1822V67.1813V67.1804V67.1795V67.1786V67.1776V67.1767V67.1758V67.1749V67.174V67.1731V67.1722V67.1713V67.1704V67.1695V67.1686V67.1677V67.1668V67.1659V67.165V67.164V67.1631V67.1622V67.1613V67.1604V67.1595V67.1586V67.1577V67.1568V67.1559V67.155V67.1541V67.1532V67.1523V67.1514V67.1505V67.1496V67.1487V67.1478V67.1469V67.146V67.1451V67.1442V67.1433V67.1424V67.1415V67.1405V67.1396V67.1387V67.1378V67.1369V67.136V67.1351V67.1342V67.1333V67.1324V67.1315V67.1306V67.1297V67.1288V67.1279V67.127V67.1261V67.1252V67.1243V67.1233V67.1224V67.1215V67.1206V67.1197V67.1188V67.1179V67.117V67.1161V67.1152V67.1143V67.1133V67.1124V67.1115V67.1106V67.1097V67.1088V67.1079V67.107V67.1061V67.1051V67.1042V67.1033V67.1024V67.1015V67.1006V67.0996V67.0987V67.0978V67.0969V67.096V67.0951V67.0941V67.0932V67.0923V67.0914V67.0904V67.0895V67.0886V67.0877V67.0868V67.0858V67.0849V67.084V67.083V67.0821V67.0812V67.0803V67.0793V67.0784V67.0775V67.0765V67.0756V67.0747V67.0737V67.0728V67.0719V67.0709V67.07V67.0691V67.0681V67.0672V67.0662V67.0653V67.0644V67.0634V67.0625V67.0615V67.0606V67.0596V67.0587V67.0577V67.0568V67.0558V67.0549V67.0539V67.053V67.052V67.0511V67.0501V67.0492V67.0482V67.0472V67.0463V67.0453V67.0444V67.0434V67.0424V67.0415V67.0405V67.0395V67.0386V67.0376V67.0366V67.0357V67.0347V67.0337V67.0327V67.0318V67.0308V67.0298V67.0288V67.0278V67.0269V67.0259V67.0249V67.0239V67.0229V67.0219V67.0209V67.02V67.019V67.018V67.017V67.016V67.015V67.014V67.013V67.012V67.011V67.01V67.009V67.008V67.007V67.006V67.0049V67.0039V67.0029V67.0019V67.0009V66.9999V66.9988V66.9978V66.9968V66.9958V66.9948V66.9937V66.9927V66.9917V66.9907C442.915 59.0369 449.716 56.744 455.8 56.4545C458.854 56.3092 461.707 56.6726 463.8 57.0743C464.846 57.2748 465.698 57.4844 466.288 57.6433C466.583 57.7228 466.812 57.7895 466.967 57.8361C467.044 57.8594 467.102 57.8776 467.141 57.8899L467.15 57.8927C476.579 63.3253 484.912 63.9799 490.903 63.2628C493.9 62.904 496.307 62.2025 497.968 61.5888C498.723 61.3096 499.324 61.0485 499.758 60.8457L497.045 100.477L497.997 100.722C500.687 94.9368 506.666 91.0445 513.444 91.2436C513.445 91.2436 513.445 91.2436 513.446 91.2436L527.613 91.7576Z" fill="white" stroke="black"/>
<path d="M472.974 190.795L469.889 173.422C470.149 173.387 470.5 173.338 470.933 173.275C471.931 173.13 473.36 172.906 475.086 172.595C478.537 171.973 483.183 170.999 487.956 169.591C492.723 168.185 497.64 166.34 501.619 163.967C504.825 162.055 507.478 159.767 508.92 157.043C508.914 157.369 508.896 157.731 508.858 158.127C508.669 160.133 507.996 163.01 506.043 166.435C502.173 173.222 493.247 182.207 472.974 190.795Z" fill="white" stroke="black"/>
<path d="M533.856 129.054C532.647 131.879 532.02 134.508 531.694 136.477C531.53 137.471 531.442 138.298 531.395 138.899L520.23 128.608L533.856 129.054Z" fill="#121936" stroke="black"/>
<path d="M528.224 48.7543L528.224 48.7547L499.964 59.6728L499.963 59.6732L499.958 59.6765L499.93 59.6917C499.906 59.7054 499.867 59.7263 499.815 59.7536C499.712 59.8082 499.555 59.8883 499.348 59.9872C498.934 60.185 498.318 60.458 497.518 60.7535C495.919 61.3446 493.589 62.0246 490.681 62.3727C484.873 63.068 476.742 62.4408 467.501 57.1028L467.458 57.0777L467.41 57.0617L467.251 57.5358C467.41 57.0617 467.41 57.0616 467.409 57.0615L467.408 57.0611L467.405 57.0599L467.391 57.0556L467.342 57.0396C467.299 57.0258 467.236 57.0059 467.155 56.9809C466.991 56.9309 466.753 56.8603 466.448 56.7768C465.837 56.6098 464.96 56.3908 463.888 56.1808C461.745 55.7614 458.808 55.3761 455.65 55.5198C449.335 55.8072 442.049 58.2251 438.556 66.7884C438.387 67.1288 438.248 67.4677 438.124 67.817C437.967 67.5813 437.781 67.2989 437.57 66.9733C436.87 65.8897 435.905 64.3289 434.844 62.4235C432.72 58.6092 430.225 53.4302 428.712 47.9442C427.197 42.4507 426.683 36.7071 428.454 31.7274C430.213 26.7784 434.258 22.5015 442.042 19.9711C457.754 14.8636 466.231 17.6102 470.778 21.4704C473.067 23.4131 474.4 25.6689 475.161 27.4422C475.541 28.3283 475.777 29.0913 475.918 29.63C475.988 29.8992 476.034 30.112 476.063 30.2556C476.077 30.3274 476.087 30.3818 476.093 30.4174C476.096 30.4352 476.098 30.4482 476.099 30.4563L476.101 30.4647L476.101 30.4656L476.101 30.4661L476.361 32.2543L477.057 30.5864L477.057 30.5862L477.058 30.584L477.062 30.5736L477.082 30.5287C477.1 30.4882 477.127 30.4271 477.164 30.3469C477.238 30.1867 477.351 29.9508 477.505 29.6535C477.813 29.0588 478.283 28.2193 478.928 27.2486C480.219 25.3052 482.203 22.8468 484.982 20.77C487.756 18.6957 491.323 17.0019 495.791 16.5781C500.259 16.1543 505.663 16.9976 512.117 20.0504C525.046 26.166 528.988 33.3941 529.78 38.997C530.179 41.8165 529.787 44.2637 529.294 46.0069C529.047 46.878 528.776 47.5711 528.569 48.0437C528.465 48.28 528.377 48.4609 528.316 48.5812C528.285 48.6413 528.261 48.6862 528.245 48.7153L528.228 48.747L528.224 48.7537L528.224 48.7543ZM500.777 59.2046L499.964 59.6727L527.776 49.5388L528.678 49.502L528.658 49.0024L528.678 49.502L528.679 49.502L528.683 49.5019L528.698 49.5013L528.76 49.4993C528.795 49.4982 528.842 49.4969 528.898 49.4955C528.931 49.4948 528.968 49.494 529.007 49.4932C529.225 49.4889 529.545 49.4851 529.951 49.487C530.765 49.4908 531.926 49.5174 533.31 49.609C536.082 49.7924 539.733 50.2352 543.28 51.2688C546.833 52.3045 550.233 53.919 552.552 56.4128C554.85 58.8835 556.123 62.2544 555.377 66.9139C554.28 73.6048 550.431 84.4558 546.021 95.638C543.134 93.0744 539.424 91.4756 535.246 91.375C535.245 91.3749 535.243 91.3749 535.242 91.3749L527.651 91.0667L527.649 91.0666L513.376 90.5526L513.367 90.5522H513.358H513.355H513.352H513.349H513.346H513.343H513.34H513.337H513.334H513.331H513.328H513.325H513.322H513.319H513.316H513.313H513.31H513.307H513.304H513.3H513.297H513.294H513.291H513.288H513.285H513.282H513.279H513.276H513.273H513.27H513.267H513.264H513.261H513.258H513.255H513.252H513.249H513.246H513.243H513.24H513.237H513.234H513.231H513.228H513.225H513.222H513.219H513.216H513.213H513.21H513.207H513.204H513.201H513.198H513.195H513.192H513.189H513.186H513.183H513.18H513.177H513.174H513.171H513.168H513.165H513.162H513.159H513.156H513.153H513.15H513.147H513.144H513.141H513.138H513.135H513.132H513.129H513.126H513.123H513.12H513.117H513.114H513.111H513.108H513.105H513.102H513.099H513.096H513.093H513.09H513.087H513.084H513.081H513.078H513.075H513.072H513.069H513.066H513.063H513.06H513.057H513.054H513.051H513.048H513.045H513.042H513.039H513.036H513.033H513.03H513.027H513.024H513.021H513.018H513.015H513.012H513.009H513.006H513.003H513H512.997H512.994H512.991H512.988H512.985H512.982H512.979H512.976H512.973H512.97H512.967H512.964H512.961H512.958H512.955H512.952H512.949H512.946H512.942H512.939H512.936H512.933H512.93H512.927H512.924H512.921H512.918H512.915H512.912H512.909H512.906H512.903H512.9H512.897H512.894H512.891H512.888H512.885H512.882H512.879H512.876H512.873H512.87H512.867H512.864H512.861H512.858H512.855H512.852H512.849H512.846H512.843H512.84H512.837H512.834H512.831H512.828H512.825H512.822H512.819H512.816H512.813H512.81H512.807H512.804H512.801H512.798H512.795H512.792H512.789H512.786H512.783H512.78H512.777H512.774H512.771H512.768H512.765H512.762H512.759H512.756H512.753H512.75H512.747H512.744H512.741H512.738H512.735H512.732H512.729H512.726H512.723H512.72H512.717H512.714H512.711H512.708H512.705H512.702H512.699H512.696H512.693H512.69H512.687H512.684H512.681H512.678H512.675H512.672H512.669H512.666H512.663H512.66H512.657H512.654H512.651H512.648H512.645H512.642H512.639H512.636H512.633H512.63H512.627H512.624H512.621H512.618H512.615H512.612H512.609H512.606H512.603H512.6H512.597H512.594H512.591H512.588H512.584H512.581H512.578H512.575H512.572H512.569H512.566H512.563H512.56H512.557H512.554H512.551H512.548H512.545H512.542H512.539H512.536H512.533H512.53H512.527H512.524H512.521H512.518H512.515H512.512H512.509H512.506H512.503H512.5H512.497H512.494H512.491H512.488H512.485H512.482H512.479H512.476H512.473H512.47H512.467H512.464H512.461H512.458H512.455H512.452H512.449H512.446H512.443H512.44H512.437H512.434H512.431H512.428H512.425H512.422H512.419H512.416H512.413H512.41H512.407H512.404H512.401H512.398H512.395H512.392H512.389H512.386H512.383H512.38H512.377H512.374H512.371H512.368H512.365H512.362H512.359H512.356H512.353H512.35H512.347H512.344H512.341H512.338H512.335H512.332H512.329H512.326H512.323H512.32H512.317H512.314H512.311H512.308H512.305H512.302H512.299H512.296H512.293H512.29H512.287H512.284H512.281H512.278H512.275H512.272H512.269H512.266H512.263H512.26H512.257H512.254H512.251H512.248H512.245H512.242H512.239H512.236H512.233H512.229H512.226H512.223H512.22H512.217H512.214H512.211H512.208H512.205H512.202H512.199H512.196H512.193H512.19H512.187H512.184H512.181H512.178H512.175H512.172H512.169H512.166H512.163H512.16H512.157H512.154H512.151H512.148H512.145H512.142H512.139H512.136H512.133H512.13H512.127H512.124H512.121H512.118H512.115H512.112H512.109H512.106H512.103H512.1H512.097H512.094H512.091H512.088H512.085H512.082H512.079H512.076H512.073H512.07H512.067H512.064H512.061H512.058H512.055H512.052H512.049H512.046H512.043H512.04H512.037H512.034H512.031H512.028H512.025H512.022H512.019H512.016H512.013H512.01H512.007H512.004H512.001H511.998H511.995H511.992H511.989H511.986H511.983H511.98H511.977H511.974H511.971H511.968H511.965H511.962H511.959H511.956H511.953H511.95H511.947H511.944H511.941H511.938H511.935H511.932H511.929H511.926H511.923H511.92H511.917H511.914H511.911H511.908H511.905H511.902H511.899H511.896H511.893H511.89H511.887H511.884H511.881H511.878H511.875H511.871H511.868H511.865H511.862H511.859H511.856H511.853H511.85H511.847H511.844H511.841H511.838H511.835H511.832H511.829H511.826H511.823H511.82H511.817H511.227L511.324 91.1343C511.425 91.7428 511.522 92.4254 511.523 93.0988L510.497 119.298C510.389 120.832 510.82 122.47 511.794 123.794C522.08 146.905 506.081 173.232 480.884 174.652C480.882 174.653 480.881 174.653 480.88 174.653L478.423 174.755L478.353 174.758L478.286 174.78C477.722 174.968 477.159 175.063 476.493 175.063L476.483 175.063L466.522 175.269L466.521 175.269C447.819 175.674 432.757 159.783 434.273 141.059L434.273 141.057L435.608 123.888L435.608 123.888L435.609 123.88C435.798 120.842 438.171 118.456 441.13 118.073L458.996 115.812L459.009 115.81L459.023 115.808C460.031 115.624 461.063 115.802 462.143 116.194L484.726 125.341L484.727 125.341C489.125 127.103 494.088 124.354 494.753 119.603C494.836 119.051 494.922 118.481 495.011 117.895C496.011 111.293 497.301 102.773 498.244 96.1606L498.247 96.1425L498.248 96.1242L500.713 60.1402L500.777 59.2046Z" fill="#121936" stroke="black"/>
<path d="M536.61 115.476L536.575 115.44L536.532 115.412L530.619 111.533C530.531 111.444 530.475 111.384 530.435 111.325C530.399 111.27 530.391 111.236 530.391 111.203C530.391 111.018 530.448 110.815 530.517 110.66L536.825 103.632C537.037 103.427 537.349 103.416 537.571 103.563C537.764 103.78 537.766 104.09 537.614 104.308L532.086 110.458L531.694 110.894L532.186 111.212L537.115 114.399L537.122 114.404L537.129 114.408C537.369 114.551 537.456 114.845 537.266 115.161L537.245 115.196L537.231 115.233C537.156 115.419 537.089 115.47 537.058 115.488C537.016 115.512 536.942 115.535 536.771 115.535C536.749 115.535 536.713 115.529 536.673 115.512C536.654 115.503 536.638 115.495 536.625 115.487C536.615 115.48 536.611 115.476 536.61 115.476Z" fill="#FF6A48" stroke="black"/>
<path d="M444.564 101.565C442.768 101.109 441.611 99.3072 441.967 97.5244C442.32 95.7584 444.091 94.5788 445.99 94.9335C447.781 95.3895 448.936 97.1837 448.587 98.9619C448.133 100.757 446.34 101.914 444.564 101.565Z" fill="#121936" stroke="black"/>
<path d="M473.105 101.553H473.093L473.081 101.554C471.225 101.642 469.703 100.137 469.703 98.249C469.703 96.3569 471.234 94.8422 473.003 94.8422H473.014L473.026 94.8416C474.883 94.7531 476.405 96.2578 476.405 98.1462V98.1581L476.405 98.17C476.494 100.03 474.99 101.553 473.105 101.553Z" fill="#121936" stroke="black"/>
<mask id="path-11-inside-1_666_2148" fill="white">
<path d="M476.802 102.567C476.802 102.567 473.516 99.8941 470.024 102.567Z"/>
</mask>
<path d="M476.802 102.567C476.802 102.567 473.516 99.8941 470.024 102.567Z" fill="#FFA386"/>
<path d="M476.802 102.567C477.433 101.791 477.432 101.791 477.432 101.791C477.432 101.791 477.431 101.79 477.431 101.79C477.431 101.79 477.43 101.789 477.429 101.788C477.428 101.787 477.426 101.786 477.424 101.785C477.42 101.782 477.416 101.778 477.411 101.774C477.4 101.765 477.386 101.754 477.369 101.741C477.335 101.715 477.287 101.681 477.228 101.639C477.11 101.556 476.943 101.446 476.733 101.325C476.315 101.084 475.713 100.793 474.979 100.598C473.484 100.201 471.455 100.213 469.417 101.773L470.632 103.361C472.085 102.249 473.445 102.26 474.466 102.531C474.99 102.67 475.428 102.881 475.735 103.058C475.887 103.146 476.004 103.223 476.079 103.276C476.117 103.302 476.144 103.322 476.159 103.334C476.167 103.34 476.172 103.344 476.174 103.345C476.175 103.346 476.175 103.346 476.175 103.346C476.174 103.346 476.174 103.345 476.173 103.345C476.173 103.345 476.173 103.344 476.172 103.344C476.172 103.344 476.172 103.344 476.171 103.344C476.171 103.343 476.171 103.343 476.802 102.567Z" fill="black" mask="url(#path-11-inside-1_666_2148)"/>
<path d="M469.611 102.895L469.619 102.907C469.706 103.038 469.831 103.095 470.024 103.095C470.079 103.095 470.107 103.095 470.131 103.093L469.611 102.895ZM469.611 102.895L469.603 102.884M469.611 102.895L469.603 102.884M469.603 102.884C469.527 102.783 469.48 102.626 469.495 102.473C469.508 102.33 469.57 102.231 469.665 102.173L469.692 102.157M469.603 102.884L469.692 102.157M469.692 102.157L469.716 102.138M469.692 102.157L469.716 102.138M469.716 102.138C472.735 99.7766 475.941 101.075 477.18 102.112C477.306 102.243 477.37 102.39 477.382 102.514C477.394 102.632 477.362 102.738 477.269 102.831L477.244 102.856M469.716 102.138L477.244 102.856M477.244 102.856L477.223 102.884M477.244 102.856L477.223 102.884M477.223 102.884C477.166 102.96 477.048 103.032 476.895 103.046C476.748 103.06 476.622 103.016 476.539 102.933C476.492 102.886 476.406 102.821 476.318 102.759C476.217 102.689 476.08 102.599 475.911 102.504C475.573 102.314 475.102 102.095 474.535 101.954C473.389 101.667 471.863 101.701 470.333 102.892L470.269 102.942M477.223 102.884L470.269 102.942M470.269 102.942L470.224 103.01M470.269 102.942L470.224 103.01M470.224 103.01C470.194 103.055 470.173 103.075 470.163 103.083M470.224 103.01L470.163 103.083M470.163 103.083C470.159 103.086 470.157 103.088 470.156 103.089M470.163 103.083L470.156 103.089M470.156 103.089C470.156 103.089 470.156 103.089 470.156 103.089C470.156 103.089 470.156 103.089 470.156 103.089C470.155 103.089 470.155 103.089 470.155 103.089L470.156 103.089Z" fill="#FF6A48" stroke="black"/>
<path d="M448.463 102.655L448.463 102.655L448.468 102.659C448.543 102.715 448.621 102.839 448.645 103.01C448.67 103.182 448.63 103.323 448.573 103.398C448.517 103.474 448.393 103.551 448.222 103.576C448.051 103.6 447.911 103.56 447.836 103.504L447.825 103.496L447.813 103.488C447.808 103.484 447.802 103.48 447.795 103.476C447.604 103.347 446.875 102.858 445.872 102.691C444.833 102.517 443.529 102.695 442.254 103.864C442.138 103.895 442.037 103.927 441.956 103.952C441.925 103.961 441.897 103.97 441.872 103.977C441.746 104.015 441.705 104.021 441.682 104.021C441.587 104.021 441.53 104.005 441.488 103.987C441.444 103.967 441.391 103.932 441.317 103.859C441.225 103.766 441.193 103.66 441.204 103.542C441.217 103.416 441.283 103.265 441.414 103.132C444.145 100.593 447.24 101.713 448.463 102.655Z" fill="#FF6A48" stroke="black"/>
<path d="M454.634 95.6786H454.634L454.634 95.6848C454.734 103.793 449.049 110.086 442.195 110.086C435.349 110.086 429.757 103.698 429.757 95.6786C429.757 87.6624 435.449 81.271 442.195 81.271C448.942 81.271 454.634 87.6624 454.634 95.6786ZM442.195 82.43C435.785 82.43 430.811 88.494 430.811 95.7814C430.811 103.078 435.895 109.03 442.195 109.03C448.606 109.03 453.58 102.966 453.58 95.6786C453.58 88.3856 448.601 82.43 442.195 82.43Z" fill="white" stroke="black"/>
<mask id="path-16-inside-2_666_2148" fill="white">
<path d="M457.599 89.4072V102.875H450.616C448.87 102.875 447.33 104.315 447.33 106.165V107.502C447.33 110.998 450.205 113.876 453.697 113.876H460.063"/>
</mask>
<path d="M457.599 89.4072V102.875H450.616C448.87 102.875 447.33 104.315 447.33 106.165V107.502C447.33 110.998 450.205 113.876 453.697 113.876H460.063" fill="white"/>
<path d="M457.599 102.875V103.875H458.599V102.875H457.599ZM456.599 89.4072V102.875H458.599V89.4072H456.599ZM457.599 101.875H450.616V103.875H457.599V101.875ZM450.616 101.875C448.337 101.875 446.33 103.744 446.33 106.165H448.33C448.33 104.886 449.403 103.875 450.616 103.875V101.875ZM446.33 106.165V107.502H448.33V106.165H446.33ZM446.33 107.502C446.33 111.549 449.652 114.876 453.697 114.876V112.876C450.759 112.876 448.33 110.446 448.33 107.502H446.33ZM453.697 114.876H460.063V112.876H453.697V114.876Z" fill="black" mask="url(#path-16-inside-2_666_2148)"/>
<path d="M456.571 102.245H457.071V101.745V89.4073C457.071 89.2123 457.134 89.0887 457.208 89.0152C457.281 88.9418 457.404 88.8792 457.598 88.8792C457.793 88.8792 457.916 88.9418 457.989 89.0152C458.062 89.0887 458.125 89.2123 458.125 89.4073V103.404H450.616C449.107 103.404 447.856 104.656 447.856 106.165V107.502C447.856 110.759 450.442 113.348 453.696 113.348H460.063C460.257 113.348 460.38 113.411 460.454 113.484C460.527 113.558 460.59 113.681 460.59 113.876C460.59 114.186 460.333 114.404 460.063 114.404H453.696C449.865 114.404 446.803 111.339 446.803 107.502V106.063C446.803 103.974 448.53 102.245 450.616 102.245H456.571Z" fill="white" stroke="black"/>
<path d="M473.515 109.161C466.668 109.161 461.076 102.772 461.076 94.7533C461.076 86.7371 466.768 80.3457 473.515 80.3457C480.261 80.3457 485.953 86.7371 485.953 94.7533C485.953 102.772 480.361 109.161 473.515 109.161ZM473.515 81.5047C467.104 81.5047 462.13 87.5687 462.13 94.8561C462.13 102.147 467.21 108.208 473.515 108.208C479.925 108.208 484.9 102.144 484.9 94.8561C484.9 87.5687 479.925 81.5047 473.515 81.5047Z" fill="white" stroke="black"/>
<path d="M480.132 79.779L480.132 79.7789L480.122 79.7762C479.496 79.597 478.889 79.398 478.292 79.2021C478.215 79.1768 478.138 79.1515 478.061 79.1263C477.394 78.908 476.737 78.6972 476.101 78.5381C474.861 78.2276 473.416 77.9178 471.983 77.6102L471.977 77.609C471.783 77.5673 471.593 77.5282 471.406 77.4899C470.879 77.3817 470.382 77.2795 469.906 77.142C469.269 76.9582 468.724 76.7243 468.283 76.371L468.283 76.371L468.277 76.3668C467.941 76.1047 467.768 75.7292 467.813 75.3105C467.858 74.8838 468.14 74.329 468.886 73.7683L468.893 73.7637L468.899 73.7588C470.285 72.6485 473.703 71.7232 477.695 72.8225C481.674 73.9179 484.098 76.2864 484.857 77.9703C485.127 78.7937 485.058 79.3886 484.864 79.7764C484.671 80.1631 484.324 80.4064 483.903 80.484C483.381 80.5704 482.788 80.5082 482.136 80.3604C481.61 80.2411 481.078 80.0746 480.535 79.9047C480.401 79.8628 480.267 79.8207 480.132 79.779Z" fill="#121936" stroke="black"/>
<path d="M436.854 76.3045L436.84 76.2985L436.826 76.2933C436.402 76.1339 435.836 75.3102 436.575 73.9186C437.305 72.6459 439.502 70.9774 442.645 70.68C445.802 70.4848 448.29 71.779 449.192 72.9535L449.199 72.9628L449.207 72.9717C449.709 73.566 449.849 74.0843 449.822 74.4639C449.795 74.8414 449.602 75.1354 449.324 75.3094C449.004 75.5097 448.575 75.6259 448.055 75.6864C447.537 75.7467 446.976 75.7473 446.406 75.7473H446.391C445.272 75.7473 444.122 75.7473 443.07 75.8526C442.977 75.8619 442.883 75.8712 442.788 75.8806C441.847 75.974 440.807 76.0771 439.766 76.2655C439.504 76.2899 439.243 76.3246 438.996 76.3574C438.972 76.3606 438.948 76.3637 438.924 76.3669C438.644 76.4039 438.382 76.4373 438.129 76.4554C437.621 76.4918 437.205 76.4607 436.854 76.3045Z" fill="#121936" stroke="black"/>
<path d="M461.603 94.1505H456.263C456.069 94.1505 455.946 94.0878 455.872 94.0144C455.799 93.9409 455.736 93.8173 455.736 93.6224C455.736 93.4274 455.799 93.3038 455.872 93.2303C455.946 93.1569 456.069 93.0942 456.263 93.0942H461.603C461.797 93.0942 461.92 93.1569 461.994 93.2303C462.067 93.3038 462.13 93.4274 462.13 93.6224C462.13 93.717 462.078 93.8533 461.955 93.9758C461.833 94.0984 461.697 94.1505 461.603 94.1505Z" fill="white" stroke="black"/>
<path d="M485.408 93.6359C485.19 93.6257 484.955 93.4385 484.89 93.1131C484.879 93.0549 484.894 92.9502 485.007 92.8204C485.115 92.6977 485.266 92.6079 485.401 92.5751L516.766 89.599C517.039 89.6101 517.332 89.8513 517.386 90.1219C517.397 90.1801 517.382 90.2848 517.269 90.4146C517.161 90.5373 517.01 90.6271 516.875 90.6599L485.408 93.6359Z" fill="white" stroke="black"/>
<path d="M455.964 132.396L455.964 132.396H455.956C455.648 132.396 455.429 132.14 455.429 131.868C455.429 131.774 455.481 131.637 455.603 131.515C455.724 131.394 455.859 131.341 455.953 131.34L468.27 131.546L468.27 131.546H468.278C471.714 131.546 474.964 129.266 475.931 125.901L476.916 126.16C475.867 129.903 472.303 132.602 468.381 132.602H468.282L455.964 132.396Z" fill="#FF6A48" stroke="black"/>
<path d="M454.213 191.096L469.463 177.91L487.7 198.551L459.011 224.128L459.011 224.128L459.006 224.133C458.093 224.971 456.634 224.372 456.557 223.134L456.557 223.128L454.213 191.096Z" fill="white" stroke="black"/>
<path d="M561.9 191.374L512.11 233.579L512.108 233.581C510.888 234.627 509.004 234.341 508.248 232.995L508.248 232.995L508.242 232.985L487.758 198.567L538.647 169.192L561.9 191.374Z" fill="white" stroke="black"/>
<path d="M505.895 231.011L477.215 248.16L463.863 221.126L487.464 200.089L505.895 231.011Z" fill="#121936" stroke="black"/>
<path d="M304.594 78.3037L272.658 78.5093H230.864L230.967 62.9848C230.967 60.9286 230.762 58.8723 230.454 56.9189C224.909 26.2812 180.137 26.1784 174.181 56.7133C173.77 58.7695 173.565 60.8258 173.565 62.9848V81.5936L173.667 95.4732C173.77 110.175 164.323 122.718 152 125.494C151.692 125.597 153.335 125.597 154.978 125.597C157.237 125.7 158.983 125.597 158.983 125.597L278.203 125.802C292.888 125.7 304.697 112.129 304.594 95.576V78.3037Z" fill="#121936"/>
<path d="M401.031 78.0981V78.5981H401.134V274.996H401.031V275.496V399.5H258.282C243.356 399.5 231.365 387.588 231.365 372.858V64.4242V64.4094L231.364 64.3947C230.499 49.7716 220.159 37.6313 206.3 34.1836L260.233 34.1836L260.234 34.1836L359.322 34.0808C363.977 34.1829 368.427 35.1964 372.471 37.0182L372.486 37.0251L372.502 37.0309C389.153 43.2319 401.031 59.2937 401.031 78.0981Z" fill="white" stroke="black"/>
<path d="M376.784 199.635H260.439C260.245 199.635 260.122 199.572 260.048 199.499C259.975 199.425 259.912 199.302 259.912 199.107C259.912 198.912 259.975 198.788 260.048 198.715C260.122 198.641 260.245 198.579 260.439 198.579H376.784C376.978 198.579 377.101 198.641 377.175 198.715C377.248 198.788 377.311 198.912 377.311 199.107C377.311 199.201 377.259 199.338 377.136 199.46C377.014 199.583 376.878 199.635 376.784 199.635Z" fill="#121936" stroke="black"/>
<path d="M342.192 182.657V182.706L342.202 182.755C342.214 182.815 342.196 182.915 342.095 183.023C341.994 183.132 341.863 183.185 341.768 183.185H292.683C292.489 183.185 292.366 183.122 292.292 183.049C292.219 182.976 292.156 182.852 292.156 182.657C292.156 182.462 292.219 182.338 292.292 182.265C292.366 182.192 292.489 182.129 292.683 182.129H341.665C341.859 182.129 341.982 182.192 342.056 182.265C342.129 182.338 342.192 182.462 342.192 182.657Z" fill="#121936" stroke="black"/>
<path d="M376.784 223.693H260.439C260.245 223.693 260.122 223.63 260.048 223.557C259.975 223.483 259.912 223.36 259.912 223.165C259.912 222.97 259.975 222.846 260.048 222.773C260.122 222.699 260.245 222.636 260.439 222.636H376.784C376.978 222.636 377.101 222.699 377.175 222.773C377.248 222.846 377.311 222.97 377.311 223.165C377.311 223.474 377.054 223.693 376.784 223.693Z" fill="#121936" stroke="black"/>
<path d="M376.784 247.853H260.439C260.245 247.853 260.122 247.791 260.048 247.717C259.975 247.644 259.912 247.52 259.912 247.325C259.912 247.13 259.975 247.007 260.048 246.933C260.122 246.86 260.245 246.797 260.439 246.797H376.784C376.978 246.797 377.101 246.86 377.175 246.933C377.248 247.007 377.311 247.13 377.311 247.325C377.311 247.635 377.054 247.853 376.784 247.853Z" fill="#121936" stroke="black"/>
<path d="M376.784 270.472H260.439C260.245 270.472 260.122 270.409 260.048 270.336C259.975 270.262 259.912 270.139 259.912 269.944C259.912 269.749 259.975 269.625 260.048 269.552C260.122 269.478 260.245 269.416 260.439 269.416H376.784C376.978 269.416 377.101 269.478 377.175 269.552C377.248 269.625 377.311 269.749 377.311 269.944C377.311 270.253 377.054 270.472 376.784 270.472Z" fill="#121936" stroke="black"/>
<path d="M297.925 74.4838L297.927 74.4867C300.466 77.9538 306.018 76.2258 306.018 71.8266C306.018 67.8822 311.581 66.9624 312.846 70.7453C314.13 74.9322 320.019 74.8858 321.396 70.7508C322.657 66.9615 328.226 67.8803 328.226 71.8266C328.226 76.1953 333.765 78.0847 336.32 74.4822C338.646 71.2619 343.682 73.8406 342.423 77.6298C341.026 81.7151 345.899 85.148 349.352 82.6147C352.584 80.2799 356.536 84.2237 354.199 87.4675C351.553 91.0429 355.013 95.7951 359.177 94.4053C362.955 93.1445 365.546 98.1842 362.32 100.517L362.317 100.519C358.856 103.06 360.577 108.619 364.974 108.619C368.912 108.619 369.836 114.194 366.048 115.458C361.896 116.844 361.896 122.629 366.048 124.015C369.836 125.279 368.912 130.854 364.974 130.854C360.608 130.854 358.725 136.4 362.321 138.957C365.545 141.29 362.955 146.327 359.178 145.069C355.094 143.669 351.671 148.552 354.198 152.005C356.536 155.249 352.585 159.193 349.353 156.859C345.778 154.207 341.036 157.677 342.422 161.842C343.684 165.632 338.644 168.213 336.319 164.99L336.317 164.987C333.778 161.52 328.226 163.248 328.226 167.647C328.226 171.593 322.657 172.512 321.396 168.722C320.012 164.565 314.232 164.565 312.848 168.722C311.587 172.512 306.018 171.593 306.018 167.647C306.018 163.278 300.479 161.389 297.924 164.991C295.598 168.211 290.562 165.633 291.821 161.843C293.218 157.758 288.345 154.325 284.892 156.859C281.66 159.193 277.708 155.25 280.045 152.006C282.691 148.43 279.231 143.678 275.067 145.068C271.289 146.329 268.698 141.289 271.924 138.956L271.927 138.954C275.388 136.413 273.666 130.854 269.27 130.854C265.332 130.854 264.408 125.279 268.196 124.015C272.348 122.629 272.348 116.844 268.196 115.458C264.408 114.194 265.332 108.619 269.27 108.619C273.636 108.619 275.518 103.073 271.923 100.516C268.699 98.1831 271.289 93.1464 275.065 94.4047C279.15 95.8049 282.573 90.9218 280.046 87.4685C277.708 84.2248 281.659 80.2805 284.891 82.614C288.466 85.2661 293.208 81.7962 291.822 77.6317C290.56 73.8409 295.599 71.2605 297.925 74.4838Z" fill="#FBC108" stroke="black"/>
<path d="M258.183 75.1373L258.177 75.1326L258.171 75.1281C258.096 75.0715 258.018 74.948 257.994 74.7762C257.969 74.6044 258.009 74.4639 258.066 74.3883C258.122 74.3129 258.245 74.2353 258.417 74.2108C258.584 74.1868 258.722 74.2247 258.798 74.2795L268.444 81.9845L268.449 81.9891L268.455 81.9936C268.531 82.0502 268.608 82.1737 268.633 82.3455C268.655 82.5011 268.624 82.6311 268.576 82.7103C268.456 82.8273 268.38 82.8803 268.327 82.9073C268.28 82.9307 268.231 82.9444 268.14 82.9444C268.08 82.9444 267.994 82.9137 267.794 82.8148L258.183 75.1373Z" fill="#121936" stroke="black"/>
<path d="M246.674 118.685L246.683 118.683L246.692 118.681L258.696 115.805C258.825 115.781 258.983 115.807 259.117 115.881C259.252 115.957 259.316 116.053 259.332 116.133C259.358 116.265 259.332 116.427 259.257 116.564C259.181 116.7 259.085 116.763 259.005 116.779L258.996 116.781L258.987 116.783L246.972 119.662L246.7 119.727C246.511 119.674 246.388 119.534 246.347 119.33C246.321 119.199 246.346 119.036 246.422 118.9C246.497 118.764 246.594 118.701 246.674 118.685Z" fill="#121936" stroke="black"/>
<path d="M248.557 96.9448L248.54 96.94L248.522 96.9365C248.442 96.9205 248.346 96.8571 248.271 96.7215C248.195 96.5848 248.169 96.422 248.196 96.2909C248.212 96.2104 248.275 96.114 248.41 96.0388C248.542 95.9658 248.697 95.9394 248.825 95.9609L260.716 99.2452L260.733 99.25L260.751 99.2535C260.831 99.2695 260.927 99.3328 261.002 99.4685C261.076 99.601 261.102 99.7579 261.08 99.8868C261.029 100.065 260.827 100.217 260.644 100.217H260.643H260.643H260.642H260.641H260.641H260.64H260.64H260.639H260.638H260.638H260.637H260.637H260.636H260.635H260.635H260.634H260.634H260.633H260.632H260.632H260.631H260.631H260.63H260.629H260.629H260.628H260.628H260.627H260.626H260.626H260.625H260.625H260.624H260.623H260.623H260.622H260.622H260.621H260.62H260.62H260.619H260.619H260.618H260.617H260.617H260.616H260.616H260.615H260.614H260.614H260.613H260.613H260.612H260.611H260.611H260.61H260.61H260.609H260.608H260.608H260.607H260.607H260.606H260.605H260.605H260.604H260.604H260.603H260.602H260.602H260.601H260.601H260.6H260.599H260.599H260.598H260.598H260.597H260.596H260.596H260.595H260.595H260.594H260.593H260.593H260.592H260.592H260.591H260.59H260.59H260.589H260.589H260.588H260.587H260.587H260.586H260.585H260.585H260.584H260.584H260.583H260.582H260.582H260.581H260.581H260.58H260.579H260.579H260.578H260.578H260.577H260.576H260.576H260.575H260.575H260.574H260.573H260.573H260.572H260.572H260.571H260.57H260.57H260.569H260.569H260.568H260.567H260.567H260.566H260.566H260.565H260.564H260.564H260.563H260.563H260.562H260.561H260.561H260.56H260.56H260.559H260.558H260.558H260.557H260.557H260.556H260.555H260.555H260.554H260.554H260.553H260.552H260.552H260.551H260.551H260.55H260.549H260.549H260.548H260.548H260.547H260.546H260.546H260.545H260.545H260.544H260.543H260.543H260.542H260.542H260.541H260.54H260.54H260.539H260.539H260.538H260.537H260.537H260.536H260.536H260.535H260.534H260.534H260.533H260.533H260.532H260.531H260.531H260.53H260.53H260.529H260.528H260.528H260.527H260.527H260.526H260.525H260.525H260.524H260.524H260.523H260.522H260.522H260.521H260.521H260.52H260.519H260.519H260.518H260.518H260.517H260.516H260.516H260.515H260.514H260.514H260.513H260.513H260.512H260.511H260.511H260.51H260.51H260.509H260.508H260.508H260.507H260.507H260.506H260.505H260.505H260.504H260.504H260.503H260.502H260.502H260.501H260.501H260.5H260.499H260.499H260.498H260.498H260.497H260.496H260.496H260.495H260.495H260.494H260.493H260.493H260.492H260.492H260.491H260.49H260.49H260.489H260.489H260.488H260.487H260.487H260.486H260.486H260.485H260.484H260.484H260.483H260.483H260.482H260.481H260.481H260.48H260.48H260.479H260.478H260.478H260.477H260.477H260.476H260.475H260.475H260.474H260.474H260.473H260.472H260.472H260.471H260.471H260.47H260.469H260.469H260.468H260.468H260.467H260.466H260.466H260.465H260.465H260.464H260.463H260.463H260.462H260.462H260.461H260.46H260.46H260.459H260.459H260.458H260.457H260.457H260.456H260.456H260.455H260.454H260.454H260.453H260.453H260.452H260.451H260.451H260.45H260.45H260.449H260.448H260.448H260.447H260.447H260.446H260.445H260.445H260.444H260.443H260.443H260.442H260.442H260.441H260.44H260.44H260.439H260.439H260.438H260.437H260.437H260.436H260.436H260.435H260.434H260.434H260.433H260.433H260.432H260.431H260.431H260.43H260.43H260.429H260.428H260.428H260.427H260.427H260.426H260.425H260.425H260.424H260.424H260.423H260.422H260.422H260.421H260.421H260.42H260.419H260.419H260.418H260.418H260.417H260.416H260.416H260.415H260.415H260.414H260.413H260.413H260.412H260.412H260.411H260.41H260.41H260.409H260.409H260.408H260.407H260.407H260.406H260.406H260.405H260.404H260.404H260.404L248.557 96.9448Z" fill="#121936" stroke="black"/>
<path d="M386.26 117.802L373.891 118.825C373.767 118.821 373.633 118.768 373.529 118.678C373.423 118.585 373.381 118.484 373.381 118.4C373.381 118.054 373.589 117.833 373.879 117.765L386.146 116.741C386.471 116.748 386.683 116.943 386.756 117.216C386.737 117.534 386.535 117.737 386.26 117.802Z" fill="#121936" stroke="black"/>
<path d="M372.158 99.2535L372.176 99.25L372.193 99.2452L384.084 95.9609C384.212 95.9394 384.367 95.9658 384.499 96.0388C384.634 96.114 384.697 96.2104 384.713 96.2909C384.74 96.422 384.714 96.5848 384.638 96.7215C384.563 96.8571 384.467 96.9205 384.387 96.9365L384.369 96.94L384.352 96.9448L372.505 100.217H372.505H372.505H372.504H372.503H372.503H372.502H372.502H372.501H372.501H372.5H372.499H372.499H372.498H372.498H372.497H372.497H372.496H372.496H372.495H372.494H372.494H372.493H372.493H372.492H372.492H372.491H372.491H372.49H372.489H372.489H372.488H372.488H372.487H372.487H372.486H372.486H372.485H372.484H372.484H372.483H372.483H372.482H372.482H372.481H372.481H372.48H372.48H372.479H372.478H372.478H372.477H372.477H372.476H372.476H372.475H372.475H372.474H372.474H372.473H372.473H372.472H372.471H372.471H372.47H372.47H372.469H372.469H372.468H372.468H372.467H372.467H372.466H372.466H372.465H372.465H372.464H372.464H372.463H372.463H372.462H372.462H372.461H372.461H372.46H372.46H372.459H372.458H372.458H372.457H372.457H372.456H372.456H372.455H372.455H372.454H372.454H372.453H372.453H372.452H372.452H372.451H372.451H372.45H372.45H372.449H372.449H372.448H372.448H372.448H372.447H372.447H372.446H372.446H372.445H372.445H372.444H372.444H372.443H372.443H372.442H372.442H372.441H372.441H372.44H372.44H372.439H372.439H372.438H372.438H372.438H372.437H372.437H372.436H372.436H372.435H372.435H372.434H372.434H372.433H372.433H372.432H372.432H372.432H372.431H372.431H372.43H372.43H372.429H372.429H372.428H372.428H372.428H372.427H372.427H372.426H372.426H372.425H372.425H372.425H372.424H372.424H372.423H372.423H372.422H372.422H372.422H372.421H372.421H372.42H372.42H372.419H372.419H372.419H372.418H372.418H372.417H372.417H372.417H372.416H372.416H372.415H372.415H372.415H372.414H372.414H372.413H372.413H372.413H372.412H372.412H372.411H372.411H372.411H372.41H372.41H372.409H372.409H372.409H372.408H372.408H372.408H372.407H372.407H372.406H372.406H372.406H372.405H372.405H372.405H372.404H372.404H372.404H372.403H372.403H372.403H372.402H372.402H372.401H372.401H372.401H372.4H372.4H372.4H372.399H372.399H372.399H372.398H372.398H372.398H372.397H372.397H372.397H372.396H372.396H372.396H372.395H372.395H372.395H372.394H372.394H372.394H372.394H372.393H372.393H372.393H372.392H372.392H372.392H372.391H372.391H372.391H372.391H372.39H372.39H372.39H372.389H372.389H372.389H372.388H372.388H372.388H372.388H372.387H372.387H372.387H372.387H372.386H372.386H372.386H372.385H372.385H372.385H372.385H372.384H372.384H372.384H372.384H372.383H372.383H372.383H372.383H372.382H372.382H372.382H372.382H372.382H372.381H372.381H372.381H372.381H372.38H372.38H372.38H372.38H372.379H372.379H372.379H372.379H372.379H372.378H372.378H372.378H372.378H372.378H372.377H372.377H372.377H372.377H372.377H372.376H372.376H372.376H372.376H372.376H372.375H372.375H372.375H372.375H372.375H372.375H372.374H372.374H372.374H372.374H372.374H372.374H372.373H372.373H372.373H372.373H372.373H372.373H372.373H372.372H372.372H372.372H372.372H372.372H372.372H372.372H372.372H372.371H372.371H372.371H372.371H372.371H372.371H372.371H372.371H372.37H372.37H372.37H372.37H372.37H372.37H372.37H372.37H372.37H372.37H372.369H372.369H372.369H372.369H372.369H372.369H372.369H372.369H372.369H372.369H372.369H372.369H372.369H372.369H372.369H372.368H372.368H372.368H372.368H372.368H372.368H372.368H372.368H372.368H372.368H372.368H372.368H372.368H372.368H372.368H372.368H372.368H372.368H372.368H372.368H372.368H372.368H372.368C372.209 100.217 371.973 100.087 371.823 99.8367C371.814 99.7187 371.842 99.5842 371.907 99.4685C371.982 99.3328 372.078 99.2695 372.158 99.2535Z" fill="#121936" stroke="black"/>
<path d="M370.2 132.888L370.216 132.867L370.229 132.845C370.324 132.686 370.459 132.589 370.58 132.551C370.696 132.514 370.779 132.535 370.835 132.577L370.867 132.601L370.903 132.62L381.876 138.37C382.028 138.464 382.122 138.596 382.159 138.714C382.196 138.832 382.175 138.915 382.133 138.971L382.084 139.036L382.059 139.113C382.038 139.174 381.956 139.285 381.712 139.285C381.599 139.285 381.566 139.284 381.537 139.279C381.522 139.276 381.493 139.27 381.426 139.237L370.457 133.489C370.305 133.395 370.211 133.263 370.174 133.145C370.137 133.027 370.158 132.944 370.2 132.888Z" fill="#121936" stroke="black"/>
<path d="M475.171 331.555C472.958 330.861 470.66 330.514 468.277 330.514H456.982C441.507 330.514 428.961 343.075 428.961 358.567C428.961 379.984 411.626 397.238 390.337 397.238H384.279C366.585 397.238 352.227 382.863 352.227 365.147V319.704C352.227 306.739 343.454 295.761 331.511 292.445H454.004C465.844 292.445 475.479 302.091 475.479 313.947V330.514H475.171V331.014V331.555Z" fill="white" stroke="black"/>
<path d="M625.916 370.602L625.916 370.603C626.106 383.915 634.68 395.412 647.075 399.5H525.988C507.267 399.5 492.088 384.303 492.088 365.558V354.455C492.088 343.975 485.331 335.139 476.068 331.89V331.514H604.236C616.076 331.514 625.711 341.159 625.711 353.015L625.711 353.021L625.916 370.602Z" fill="white" stroke="black"/>
<path d="M230.864 373.064C230.864 374.811 231.07 376.559 231.378 378.204C231.07 376.456 230.864 374.709 230.864 372.755V373.064Z" fill="#121936"/>
<path d="M491.485 365.455V354.352C491.485 343.968 484.81 335.229 475.465 332.145C473.104 331.322 470.639 330.911 468.072 330.911H456.776C441.578 330.911 429.256 343.248 429.256 358.464C429.256 380.055 411.799 397.635 390.132 397.635H384.073C366.103 397.635 351.522 383.036 351.522 365.044V319.602C351.522 304.694 339.712 292.459 325.028 291.843C324.617 291.843 324.207 291.843 323.796 291.843C305.004 291.843 289.909 307.059 289.909 325.77V362.988C289.909 382.111 274.403 397.635 255.303 397.635C243.494 397.635 233.636 389.308 231.274 378.204C233.636 390.85 244.418 399.897 257.973 399.897H475.363H525.782C506.99 400 491.485 384.578 491.485 365.455Z" fill="#121936"/>
<path d="M229.65 242.428L229.518 243.428L230.394 242.927C233.268 241.283 236.246 239.535 239.532 237.479C240.315 237.076 241.137 236.631 241.988 236.172C245.098 234.49 248.582 232.607 251.895 231.785C253.992 231.265 255.956 231.19 257.665 231.831C259.356 232.464 260.87 233.823 262.032 236.315C262.695 238.033 262.512 239.33 261.896 240.361C261.26 241.425 260.125 242.271 258.77 242.975L259.119 243.904C261.193 243.398 263.288 243.218 265.001 243.802C266.667 244.37 268.048 245.685 268.68 248.366L268.688 248.399L268.701 248.431C269.164 249.627 269.265 250.615 269.126 251.44C268.988 252.262 268.604 252.963 268.031 253.577C266.865 254.828 264.944 255.696 262.844 256.414L263.079 257.381C264.423 257.182 265.676 257.219 266.709 257.667C267.718 258.105 268.578 258.961 269.103 260.54L269.112 260.565L269.123 260.59C269.76 261.99 269.955 263.204 269.844 264.254C269.733 265.303 269.315 266.22 268.674 267.023C267.379 268.644 265.18 269.787 262.86 270.494L263.006 271.472C264.073 271.472 264.8 271.917 265.259 272.617C265.734 273.339 265.948 274.378 265.857 275.573C265.675 277.965 264.284 280.772 261.81 282.376L261.8 282.382L261.79 282.389L234.167 302.232L234.152 302.242L234.138 302.254C233.002 303.202 231.355 303.798 229.329 304.204L229.323 304.205C213.271 307.62 197.924 292.225 200.143 275.355L200.143 275.355L200.144 275.35C200.855 269.45 202.582 263.546 205.02 258.25L205.044 258.209L205.155 258.022C205.253 257.858 205.397 257.617 205.582 257.308C205.952 256.688 206.488 255.796 207.149 254.706C208.472 252.524 210.296 249.549 212.303 246.371C216.327 240 221.053 232.869 223.945 229.669L223.945 229.669L223.953 229.659C224.56 228.95 225.226 228.294 225.954 227.93L225.975 227.919L225.995 227.907C226.691 227.471 227.612 227.412 228.237 227.804L228.25 227.812L228.263 227.819C228.71 228.063 229.061 228.485 229.343 229.025C229.623 229.562 229.816 230.182 229.966 230.782C230.718 234.369 230.23 238.053 229.738 241.759C229.709 241.982 229.679 242.205 229.65 242.428Z" fill="white" stroke="black"/>
<path d="M232.863 240.149L232.863 240.149L232.868 240.146C233.107 240.002 233.43 240.07 233.619 240.386C233.763 240.626 233.695 240.949 233.382 241.138C233.381 241.139 233.38 241.139 233.38 241.139L218.494 249.876L218.447 249.903C218.428 249.906 218.403 249.907 218.37 249.908C218.33 249.91 218.287 249.91 218.234 249.91C218.181 249.91 218.083 249.889 217.971 249.828C217.865 249.772 217.782 249.698 217.732 249.628C217.597 249.389 217.667 249.073 217.976 248.886L232.863 240.149Z" fill="white" stroke="black"/>
<path d="M257.466 243.391C258.621 242.79 259.504 242.379 259.934 242.261C260.062 242.239 260.218 242.266 260.35 242.339C260.485 242.414 260.549 242.511 260.565 242.591C260.591 242.722 260.565 242.885 260.489 243.022C260.414 243.157 260.318 243.221 260.238 243.237L260.226 243.239L260.215 243.242C260.013 243.292 259.74 243.403 259.433 243.541C259.117 243.684 258.736 243.872 258.307 244.092C257.449 244.533 256.384 245.115 255.239 245.759C252.949 247.047 250.325 248.592 248.371 249.777L248.161 249.904C248.107 249.894 248.035 249.871 247.956 249.828C247.85 249.771 247.767 249.698 247.718 249.628C247.576 249.379 247.658 249.053 247.886 248.87C248.453 248.529 250.978 247.013 253.614 245.511C254.953 244.747 256.317 243.99 257.466 243.391Z" fill="white" stroke="black"/>
<path d="M262.847 256.496L262.847 256.496L262.853 256.493C263.092 256.349 263.415 256.417 263.604 256.733C263.748 256.973 263.68 257.295 263.367 257.485L254.109 262.884C254.088 262.888 254.07 262.893 254.057 262.896C254.025 262.904 253.985 262.916 253.953 262.926C253.941 262.929 253.93 262.932 253.922 262.935C253.837 262.959 253.792 262.967 253.764 262.967C253.712 262.967 253.613 262.946 253.501 262.885C253.396 262.828 253.312 262.755 253.263 262.685C253.127 262.446 253.197 262.13 253.506 261.943L262.847 256.496Z" fill="white" stroke="black"/>
<path d="M261.395 271.309L261.405 271.303L261.415 271.298C261.655 271.154 261.977 271.222 262.166 271.537C262.309 271.776 262.243 272.096 261.936 272.286L256.812 275.056L256.748 275.09L256.746 275.092C256.728 275.094 256.704 275.096 256.673 275.097C256.633 275.098 256.59 275.098 256.537 275.098C256.324 275.098 256.163 275.004 256.036 274.818C255.9 274.58 255.969 274.266 256.272 274.079L261.395 271.309Z" fill="white" stroke="black"/>
<path d="M493.436 233.839L493.452 233.852L493.468 233.863L597.064 302.427L645.513 340.11L638.284 355.891L638.279 355.904L638.274 355.917C628.905 379.774 604.777 394.95 579.447 391.793L579.446 391.793C566.83 390.265 554.621 384.461 545.053 374.173L464.658 277.13L464.658 277.13L464.65 277.121L451.3 261.802L451.163 261.644L450.955 261.631L438.017 260.809L438.017 260.809L438.01 260.808C434.092 260.607 430.267 259.4 426.841 257.382C426.841 257.381 426.84 257.381 426.84 257.381L405.79 244.941L405.145 245.685L411.409 253.498C414.13 256.903 413.932 261.861 410.93 264.967C409.784 266.111 407.969 266.089 406.942 264.889L406.942 264.889L406.936 264.882L386.604 242.058L386.604 242.058L386.6 242.053C384.579 239.838 384.095 236.654 385.252 233.951L386.177 231.792L386.217 231.698V231.595V226.146C386.217 223.36 387.849 220.757 390.452 219.503L390.452 219.503L390.459 219.499L391.486 218.985L391.783 218.837L391.761 218.505L391.659 216.969C391.566 214.785 392.707 212.72 394.566 211.788L394.566 211.789L394.571 211.786L407.612 205.104L407.613 205.103C411.119 203.298 415.026 202.596 418.833 202.997L418.835 202.997L446.355 205.773L446.357 205.773C454.784 206.586 462.806 209.84 469.406 215.025L469.407 215.025L493.436 233.839Z" fill="white" stroke="black"/>
<path d="M407.024 213.257L407.04 213.251L407.056 213.245C407.28 213.155 407.624 213.292 407.741 213.583C407.83 213.806 407.697 214.143 407.416 214.264L391.827 219.296L391.712 219.333L391.67 219.375C391.503 219.374 391.25 219.229 391.103 218.952C391.028 218.73 391.16 218.406 391.434 218.288L407.024 213.257Z" fill="white" stroke="black"/>
<path d="M386.354 230.64L405.747 225.709C405.876 225.686 406.033 225.713 406.166 225.786C406.301 225.862 406.364 225.958 406.381 226.038C406.407 226.17 406.381 226.332 406.305 226.469C406.23 226.605 406.134 226.668 406.054 226.684L406.041 226.687L406.029 226.69L386.621 231.625L386.488 231.659L386.445 231.701C386.371 231.684 386.285 231.649 386.206 231.591C386.095 231.509 386.025 231.405 386.002 231.292C385.976 231.16 386.002 230.998 386.077 230.861C386.153 230.725 386.249 230.662 386.329 230.646L386.341 230.644L386.354 230.64Z" fill="white" stroke="black"/>
<path d="M401.392 241.031L401.382 241.02L401.371 241.009C401.278 240.916 401.246 240.81 401.258 240.692C401.271 240.564 401.339 240.411 401.474 240.276C401.566 240.184 401.672 240.152 401.789 240.163C401.913 240.176 402.062 240.241 402.194 240.369L406.085 244.777L406.095 244.789L406.106 244.8C406.199 244.893 406.231 244.999 406.219 245.117C406.206 245.245 406.138 245.398 406.003 245.533C405.993 245.543 405.967 245.562 405.9 245.576C405.827 245.59 405.746 245.592 405.638 245.592C405.543 245.592 405.485 245.576 405.444 245.558C405.402 245.539 405.351 245.506 405.283 245.44L401.392 241.031Z" fill="white" stroke="black"/>
<path d="M450.923 261.294H450.933L450.944 261.293L466.232 260.677C466.499 260.681 466.751 260.899 466.751 261.205C466.751 261.4 466.688 261.523 466.615 261.597C466.541 261.67 466.418 261.733 466.224 261.733H466.214L466.204 261.733L450.915 262.35C450.648 262.345 450.396 262.128 450.396 261.822C450.396 261.627 450.459 261.503 450.533 261.43C450.606 261.356 450.729 261.294 450.923 261.294Z" fill="white" stroke="black"/>
</svg>
