<svg width="13" height="16" viewBox="0 0 13 16" fill="none" xmlns="http://www.w3.org/2000/svg">
<path d="M5.32439 6.10129C4.22942 5.33339 3.72199 4.36819 3.82615 3.12036C3.88489 2.41743 4.19206 1.75825 4.69278 1.26061C5.79309 0.112764 7.71864 0.0527717 8.89641 1.09263C9.26718 1.40636 9.55615 1.80524 9.7385 2.25503C9.92085 2.70482 9.99113 3.19207 9.94331 3.67495C9.8712 4.70814 9.33439 5.47204 8.44506 6.09729C8.87905 6.2386 9.24626 6.31593 9.57876 6.4759C10.153 6.7572 10.7125 7.07449 11.2559 7.40911C11.3694 7.47977 11.3895 7.69974 11.4549 7.85039C11.3214 7.90104 11.1878 7.9957 11.0543 7.9957C8.27325 8.00459 5.4922 8.00459 2.71115 7.9957C2.57761 7.9957 2.44408 7.89438 2.31055 7.83972C2.36396 7.69974 2.38933 7.5131 2.49749 7.41978C3.20655 6.79853 4.06517 6.47057 4.95851 6.21994C5.04798 6.19461 5.13744 6.16261 5.32439 6.10129Z" fill="black"/>
<path d="M6.84297 15.632H1.54036C0.689755 15.632 0.769875 15.7 0.760528 14.8681C0.742253 14.5506 0.816518 14.2345 0.974344 13.9582C1.13217 13.6818 1.3668 13.4571 1.64986 13.311C1.88866 13.1738 2.15708 13.0961 2.43236 13.0844C5.40081 13.0697 8.36792 13.0724 11.3364 13.0764C11.7732 13.0899 12.1883 13.2704 12.4959 13.5804C12.8034 13.8905 12.9801 14.3065 12.9895 14.7428C12.9895 15.7694 13.1124 15.6267 12.1109 15.6294C10.3549 15.636 8.59893 15.632 6.84297 15.632Z" fill="black"/>
<path d="M4.35122 8.51977C4.49276 8.51977 4.59158 8.50244 4.68906 8.50244C6.15792 8.50244 7.62679 8.50244 9.09565 8.50244C9.36272 8.50244 9.45352 8.57843 9.46287 8.85706C9.48824 9.57963 9.66584 10.2635 10.1532 10.8261C10.2562 10.9347 10.3876 11.0123 10.5325 11.0501C10.8282 11.1113 11.102 11.251 11.325 11.4544C11.548 11.6578 11.712 11.9174 11.7997 12.2059C11.8852 12.4726 11.7636 12.6246 11.4979 12.6232C9.51762 12.6086 7.53866 12.5872 5.55836 12.5819C4.47941 12.5819 3.40046 12.6006 2.32151 12.6152C1.99169 12.6152 1.87551 12.4686 1.99035 12.1513C2.08299 11.8627 2.25442 11.6056 2.48536 11.409C2.7163 11.2123 2.9976 11.0839 3.29764 11.0381C3.42236 11.0092 3.5349 10.9421 3.61946 10.8461C4.10952 10.2729 4.28712 9.5823 4.33787 8.8464C4.3392 8.75307 4.34454 8.65042 4.35122 8.51977Z" fill="black"/>
</svg>
