<svg width="1423" height="1134" viewBox="0 0 1423 1134" fill="none" xmlns="http://www.w3.org/2000/svg">
<path d="M261.333 574.528C255.202 617.074 229.663 654.339 186.216 652.256C175.431 651.653 164.871 648.933 155.138 644.253C145.405 639.573 136.69 633.024 129.49 624.98C122.291 616.936 116.748 607.554 113.178 597.37C109.608 587.186 108.082 576.4 108.685 565.628C108.836 561.223 109.355 556.839 110.237 552.521L113.567 483.082C115.026 480.151 115.512 476.831 114.955 473.604C114.398 470.378 112.826 467.413 110.468 465.139C105.585 462.4 100.846 459.405 96.2448 456.284C95.2852 455.84 94.4193 455.217 93.6936 454.448C69.7485 437.285 50.4978 414.394 37.7057 387.872C24.9136 361.351 18.9893 332.047 20.4756 302.647C22.4364 256.615 42.5883 213.24 76.5138 182.028C110.439 150.817 155.371 134.316 201.459 136.143C219.867 137.011 238.005 140.909 255.142 147.68C263.846 113.489 282.914 82.8202 309.738 59.8718C336.562 36.9234 369.831 22.8162 404.991 19.4806C440.152 16.145 475.486 23.7441 506.16 41.2379C536.833 58.7318 561.346 85.2656 576.344 117.208C599.132 102.348 626.037 95.0574 653.221 96.3767C672.421 97.5623 691.139 102.882 708.089 111.972C725.038 121.061 739.82 133.705 751.419 149.036C763.019 164.367 771.162 182.022 775.289 200.791C779.417 219.56 779.431 238.998 775.332 257.772C800.448 271.241 819.781 293.401 829.703 320.095C839.626 346.788 839.456 376.18 829.225 402.755C818.995 429.331 799.407 451.262 774.137 464.435C748.868 477.608 719.654 481.116 691.976 474.301C691.976 474.301 625.461 457.931 622.46 520.531L615.253 670.849C614.9 678.379 613.656 685.841 611.548 693.08C607.131 710.955 596.794 726.813 582.216 738.079C567.638 749.344 549.675 755.356 531.243 755.137C487.796 753.054 454.083 713.079 455.701 665.572L455.796 663.599C456.086 657.55 456.987 638.743 458.192 613.625C459.396 588.506 460.714 561.02 462.126 531.561C459.628 527.948 455.995 525.269 451.803 523.948C436.713 519.402 281.832 515.799 281.832 515.799C281.832 515.799 264.617 508.778 265.002 547.55C264.199 560.244 262.756 572.889 260.678 585.437" fill="#FCF1CF"/>
<path d="M111 459C111 417.579 144.579 384 186 384H1423V1134H186C144.579 1134 111 1100.42 111 1059V459Z" fill="#FCF1CF"/>
</svg>
