<svg width="379" height="1365" viewBox="0 0 379 1365" fill="none" xmlns="http://www.w3.org/2000/svg">
<path d="M64.6486 142.127C63.1321 152.652 56.8141 161.87 46.0661 161.355C43.3982 161.206 40.7858 160.533 38.378 159.375C35.9703 158.218 33.8143 156.597 32.0333 154.607C30.2523 152.617 28.8812 150.297 27.9981 147.777C27.115 145.258 26.7373 142.59 26.8866 139.925C26.9238 138.835 27.0523 137.751 27.2706 136.682L28.0942 119.505C28.4552 118.78 28.5756 117.958 28.4377 117.16C28.2999 116.362 27.9111 115.628 27.3277 115.066C26.1196 114.388 24.9473 113.647 23.8091 112.876C23.5717 112.766 23.3575 112.612 23.178 112.421C17.2545 108.176 12.4922 102.513 9.32774 95.9518C6.16324 89.3909 4.69768 82.1417 5.06535 74.8687C5.55043 63.4814 10.5356 52.7512 18.9281 45.0301C27.3206 37.3091 38.4357 33.2271 49.8371 33.6789C54.3908 33.8936 58.8778 34.858 63.1171 36.533C65.2702 28.0748 69.9874 20.4881 76.6231 14.8111C83.2587 9.13411 91.4887 5.64426 100.187 4.81911C108.885 3.99395 117.626 5.87381 125.214 10.2014C132.802 14.5291 138.866 21.093 142.576 28.995C148.213 25.3188 154.869 23.5153 161.594 23.8416C166.344 24.1349 170.974 25.451 175.167 27.6995C179.36 29.9481 183.017 33.0759 185.886 36.8685C188.756 40.6611 190.77 45.0287 191.791 49.6717C192.812 54.3147 192.816 59.1233 191.802 63.7677C198.015 67.0995 202.797 72.5815 205.252 79.185C207.707 85.7884 207.665 93.0594 205.134 99.6336C202.603 106.208 197.757 111.633 191.506 114.892C185.255 118.15 178.028 119.018 171.181 117.333C171.181 117.333 154.727 113.283 153.984 128.769L152.201 165.954C152.114 167.817 151.806 169.663 151.285 171.454C150.192 175.876 147.635 179.799 144.029 182.586C140.422 185.373 135.979 186.86 131.419 186.806C120.671 186.29 112.331 176.401 112.731 164.649L112.755 164.161C112.827 162.665 113.05 158.012 113.348 151.798C113.645 145.584 113.971 138.785 114.321 131.497C113.703 130.604 112.804 129.941 111.767 129.614C108.034 128.49 69.7196 127.598 69.7196 127.598C69.7196 127.598 65.4611 125.861 65.5562 135.453C65.3576 138.593 65.0006 141.721 64.4866 144.825" fill="#FCF1CF"/>
<path d="M27 149C27 129.118 43.1177 113 63 113H379V1365H102C60.5786 1365 27 1331.42 27 1290V149Z" fill="#FCF1CF"/>
</svg>
