<svg width="1421" height="3256" viewBox="0 0 1421 3256" fill="none" xmlns="http://www.w3.org/2000/svg">
<path d="M261.334 574.528C255.203 617.074 229.664 654.339 186.217 652.256C175.432 651.653 164.872 648.933 155.139 644.253C145.406 639.573 136.69 633.024 129.491 624.98C122.292 616.936 116.749 607.554 113.179 597.37C109.609 587.186 108.083 576.4 108.686 565.628C108.837 561.223 109.356 556.839 110.238 552.521L113.567 483.082C115.027 480.151 115.513 476.831 114.956 473.604C114.399 470.378 112.827 467.413 110.469 465.139C105.586 462.4 100.847 459.405 96.2458 456.284C95.2861 455.84 94.4202 455.217 93.6946 454.448C69.7494 437.285 50.4988 414.394 37.7067 387.872C24.9146 361.351 18.9903 332.047 20.4765 302.647C22.4374 256.615 42.5892 213.24 76.5148 182.028C110.44 150.817 155.372 134.316 201.46 136.143C219.868 137.011 238.006 140.909 255.143 147.68C263.847 113.489 282.915 82.8202 309.739 59.8718C336.563 36.9234 369.832 22.8162 404.992 19.4806C440.153 16.145 475.487 23.7441 506.161 41.2379C536.834 58.7318 561.347 85.2656 576.345 117.208C599.133 102.348 626.038 95.0574 653.222 96.3767C672.422 97.5623 691.14 102.882 708.089 111.972C725.039 121.061 739.821 133.705 751.42 149.036C763.02 164.367 771.163 182.022 775.29 200.791C779.418 219.56 779.432 238.998 775.333 257.772C800.449 271.241 819.782 293.401 829.704 320.095C839.627 346.788 839.457 376.18 829.226 402.755C818.996 429.331 799.408 451.262 774.138 464.435C748.869 477.608 719.655 481.116 691.977 474.301C691.977 474.301 625.462 457.931 622.461 520.531L615.254 670.849C614.901 678.379 613.657 685.841 611.549 693.08C607.132 710.955 596.795 726.813 582.217 738.079C567.639 749.344 549.676 755.356 531.244 755.137C487.797 753.054 454.084 713.079 455.702 665.572L455.797 663.599C456.087 657.55 456.988 638.743 458.193 613.625C459.397 588.506 460.715 561.02 462.127 531.561C459.629 527.948 455.996 525.269 451.804 523.948C436.714 519.402 281.833 515.799 281.833 515.799C281.833 515.799 264.618 508.778 265.003 547.55C264.2 560.244 262.757 572.889 260.679 585.437" fill="#FCF1CF"/>
<path d="M94 459C94 417.579 127.579 384 169 384H1421V3256H169C127.579 3256 94 3222.42 94 3181V459Z" fill="#FCF1CF"/>
</svg>
