<svg xmlns="http://www.w3.org/2000/svg" xmlns:xlink="http://www.w3.org/1999/xlink" preserveAspectRatio="xMidYMid meet" width="200" height="150" viewBox="0 0 200 150" style="width:100%;height:100%"><defs><animate repeatCount="indefinite" dur="2.9998s" begin="0s" xlink:href="#_R_G_L_0_G_L_2_G" fill="freeze" attributeName="opacity" from="0" to="1" keyTimes="0;0.3333333;1" values="0;1;1" keySplines="0.167 0.167 0.833 0.833;0 0 0 0" calcMode="spline"/><animateMotion repeatCount="indefinite" dur="2.9998s" begin="0s" xlink:href="#_R_G_L_0_G_L_2_G" fill="freeze" keyTimes="0;0.3333333;1" path="M0 120 C0,100 0,20 0,0 C0,0 0,0 0,0 " keyPoints="0;1;1" keySplines="0 0 0 1;0 0 0 0" calcMode="spline"/><animateTransform repeatCount="indefinite" dur="2.9998s" begin="0s" xlink:href="#_R_G_L_0_G_L_2_G" fill="freeze" attributeName="transform" from="0.15 0.15" to="0.15 0.15" type="scale" additive="sum" keyTimes="0;1" values="0.15 0.15;0.15 0.15" keySplines="0 0 1 1" calcMode="spline"/><animateTransform repeatCount="indefinite" dur="2.9998s" begin="0s" xlink:href="#_R_G_L_0_G_L_2_G" fill="freeze" attributeName="transform" from="-540 -540" to="-540 -540" type="translate" additive="sum" keyTimes="0;1" values="-540 -540;-540 -540" keySplines="0 0 1 1" calcMode="spline"/><animate repeatCount="indefinite" dur="2.9998s" begin="0s" xlink:href="#_R_G_L_0_G_L_1_G" fill="freeze" attributeName="opacity" from="0" to="1" keyTimes="0;0.322224;0.4444444;1" values="0;0;1;1" keySplines="0.333 0 0.667 1;0.333 0 0.667 1;0 0 0 0" calcMode="spline"/><animateMotion repeatCount="indefinite" dur="2.9998s" begin="0s" xlink:href="#_R_G_L_0_G_L_1_G" fill="freeze" keyTimes="0;0.3333352;0.5444444;1" path="M0 0 C0,0 0,0 0,0 C-10.33,0 -51.67,0 -62,0 C-62,0 -62,0 -62,0 " keyPoints="0;0;1;1" keySplines="0.078 0 0 1;0.078 0 0 1;0 0 0 0" calcMode="spline"/><animateTransform repeatCount="indefinite" dur="2.9998s" begin="0s" xlink:href="#_R_G_L_0_G_L_1_G" fill="freeze" attributeName="transform" from="0.15 0.15" to="0.15 0.15" type="scale" additive="sum" keyTimes="0;1" values="0.15 0.15;0.15 0.15" keySplines="0 0 1 1" calcMode="spline"/><animateTransform repeatCount="indefinite" dur="2.9998s" begin="0s" xlink:href="#_R_G_L_0_G_L_1_G" fill="freeze" attributeName="transform" from="-540 -540" to="-540 -540" type="translate" additive="sum" keyTimes="0;1" values="-540 -540;-540 -540" keySplines="0 0 1 1" calcMode="spline"/><animate repeatCount="indefinite" dur="2.9998s" begin="0s" xlink:href="#_R_G_L_0_G_L_1_G_N_1_T_0_M" fill="freeze" attributeName="opacity" from="0" to="1" keyTimes="0;0.3299883;0.3299894;1" values="0;0;1;1" keySplines="0 0 0 0;0 0 0 0;0 0 0 0" calcMode="spline"/><animate repeatCount="indefinite" dur="2.9998s" begin="0s" xlink:href="#_R_G_L_0_G_L_0_G" fill="freeze" attributeName="opacity" from="0" to="1" keyTimes="0;0.322224;0.4444444;1" values="0;0;1;1" keySplines="0.333 0 0.667 1;0.333 0 0.667 1;0 0 0 0" calcMode="spline"/><animateMotion repeatCount="indefinite" dur="2.9998s" begin="0s" xlink:href="#_R_G_L_0_G_L_0_G" fill="freeze" keyTimes="0;0.3333352;0.5444444;1" path="M0 0 C0,0 0,0 0,0 C10.5,0 52.5,0 63,0 C63,0 63,0 63,0 " keyPoints="0;0;1;1" keySplines="0.105 0 0 1;0.105 0 0 1;0 0 0 0" calcMode="spline"/><animateTransform repeatCount="indefinite" dur="2.9998s" begin="0s" xlink:href="#_R_G_L_0_G_L_0_G" fill="freeze" attributeName="transform" from="0.15 0.15" to="0.15 0.15" type="scale" additive="sum" keyTimes="0;1" values="0.15 0.15;0.15 0.15" keySplines="0 0 1 1" calcMode="spline"/><animateTransform repeatCount="indefinite" dur="2.9998s" begin="0s" xlink:href="#_R_G_L_0_G_L_0_G" fill="freeze" attributeName="transform" from="-540 -540" to="-540 -540" type="translate" additive="sum" keyTimes="0;1" values="-540 -540;-540 -540" keySplines="0 0 1 1" calcMode="spline"/><animate repeatCount="indefinite" dur="2.9998s" begin="0s" xlink:href="#_R_G_L_0_G_L_0_G_N_1_T_0_M" fill="freeze" attributeName="opacity" from="0" to="1" keyTimes="0;0.3299883;0.3299894;1" values="0;0;1;1" keySplines="0 0 0 0;0 0 0 0;0 0 0 0" calcMode="spline"/><animate attributeType="XML" attributeName="opacity" dur="3s" from="0" to="1" xlink:href="#time_group"/></defs><g id="_R_G"><g id="_R_G_L_0_G"><g id="_R_G_L_0_G_L_2_G_N_1_T_0" transform=" translate(100, 75) scale(0.84, 0.84) translate(0, 0)"><g id="_R_G_L_0_G_L_2_G"><path id="_R_G_L_0_G_L_2_G_D_0_P_0" fill="#000000" fill-opacity="1" fill-rule="nonzero" d=" M537.8 796.7 C535.44,795.2 532.95,793.94 530.58,792.31 C503.05,772.36 475.28,752.66 448.13,732.08 C432.06,719.9 423.71,702.58 423.46,682.25 C422.97,642.85 423.21,603.44 423.21,564.04 C423.21,555.76 428.94,551.74 436.92,553.87 C440.78,554.88 444.51,556.13 448.38,556.89 C457.34,558.77 465.19,556.38 471.42,549.61 C477.65,542.71 483.38,535.55 490.23,527.4 C486.99,527.27 485.24,527.14 483.5,527.14 C483.5,527.14 376.13,527.14 376.13,527.14 C376.13,527.14 372.65,527.14 372.65,527.14 C364.67,527.02 359.82,523.25 359.82,516.98 C359.82,510.7 364.55,507.06 372.65,506.94 C372.65,506.94 386.1,506.94 386.1,506.94 C386.35,506.94 386.72,506.81 387.84,506.44 C383.86,500.16 380.37,493.76 376.01,487.99 C370.9,481.21 371.15,475.32 375.14,467.79 C406.77,409.56 438.04,350.95 469.3,292.35 C472.54,286.2 476.77,283.44 483.87,283.56 C521.36,283.81 558.73,283.81 596.22,283.56 C602.57,283.56 606.68,285.82 609.67,291.59 C641.56,351.2 673.57,410.81 705.58,470.3 C708.7,475.94 708.45,480.84 704.83,486.11 C700.35,492.63 696.24,499.54 691.38,507.06 C691.38,507.06 707.82,507.06 707.82,507.06 C715.17,507.19 719.66,510.96 719.53,517.1 C719.53,523.13 714.92,527.02 707.7,527.02 C707.7,527.02 596.35,527.02 596.35,527.02 C596.35,527.02 589.87,527.02 589.87,527.02 C597.72,538.06 604.57,548.98 616.03,555.38 C622.13,558.77 628.61,557.14 634.96,556.01 C637.33,555.51 639.69,554.63 642.06,553.87 C650.65,551.49 656.01,555.51 656.13,564.54 C656.26,568.93 656.13,573.2 656.13,577.59 C656.13,610.47 656.01,643.35 656.13,676.23 C656.26,701.96 646.04,721.91 625.37,736.84 C599.71,755.29 574.3,773.87 548.64,792.31 C546.4,793.94 543.91,795.2 541.42,796.7 C541.42,796.7 537.8,796.7 537.8,796.7z  M422.84 507.06 C422.84,507.06 427.95,507.06 427.95,507.06 C441.9,507.06 455.72,506.94 469.67,507.19 C473.16,507.19 474.91,506.06 476.52,503.05 C510.4,437.92 544.16,373.04 578.04,308.03 C578.66,306.78 579.16,305.4 579.91,303.89 C578.78,303.77 578.04,303.64 577.41,303.64 C548.14,303.64 518.75,303.64 489.48,303.52 C486.24,303.52 485.24,305.15 484,307.41 C474.66,324.97 465.07,342.67 455.72,360.24 C435.54,397.89 415.24,435.66 395.07,473.31 C394.19,474.94 393.32,477.45 393.94,478.7 C397.31,484.73 401.29,490.38 405.4,496.9 C406.77,494.52 407.77,492.76 408.64,491 C432.06,446.2 455.47,401.27 478.89,356.47 C479.76,354.72 480.76,352.96 481.88,351.33 C484.99,347.19 489.98,346.06 494.21,348.32 C498.45,350.45 500.44,355.34 498.94,360.24 C498.32,362.12 497.45,363.88 496.45,365.63 C473.04,410.69 449.5,455.74 426.08,500.67 C425.08,502.55 424.21,504.43 422.84,507.06z  M592.73 648.5 C592.73,638.71 592.86,628.79 592.61,619 C592.61,617.37 591.49,614.99 590.12,614.36 C571.81,605.45 557.98,591.65 546.03,575.58 C541.29,569.18 538.18,569.18 533.45,575.46 C521.49,591.52 507.66,605.45 489.35,614.36 C487.98,614.99 486.86,617.62 486.86,619.38 C486.74,638.58 486.86,657.78 486.74,676.98 C486.74,680.62 488.11,682.88 490.85,684.89 C506.04,695.81 521.24,706.85 536.43,717.89 C538.8,719.65 540.42,719.9 542.91,718.02 C557.98,706.85 573.18,695.81 588.5,685.02 C591.49,682.88 592.86,680.5 592.86,676.73 C592.61,667.19 592.73,657.78 592.73,648.5z  M598.22 312.43 C590.87,326.48 584.27,339.66 577.17,352.58 C575.42,355.85 575.42,358.36 577.04,361.74 C598.59,405.42 620.01,449.21 641.56,492.88 C643.8,497.53 645.17,503.93 648.91,506.06 C652.9,508.45 659.25,506.94 664.48,506.69 C666.22,506.56 668.46,505.31 669.46,503.93 C674.57,496.52 679.05,488.74 684.16,481.34 C686.28,478.33 686.15,476.07 684.41,472.81 C664.6,436.29 645.05,399.52 625.37,362.87 C616.53,346.56 607.68,329.99 598.22,312.43z  M636.45 576.09 C615.53,581.36 600.46,572.32 588.13,557.51 C580.9,548.85 574.8,539.19 568.2,530.16 C567.33,528.9 565.96,527.4 564.71,527.27 C559.85,526.89 554.87,527.14 549.89,527.14 C549.89,527.14 549.89,548.85 549.89,548.85 C554.87,554.88 558.86,559.52 562.72,564.42 C573.68,578.72 586.13,591.15 603.32,597.92 C611.54,601.19 612.79,603.07 612.79,612.23 C612.79,633.44 612.54,654.65 612.91,675.85 C613.04,687.02 608.8,695.31 599.71,701.71 C584.02,712.62 568.69,724.04 553.25,735.34 C552.01,736.22 550.14,737.6 550.01,738.73 C549.76,747.89 549.89,757.17 549.89,767.21 C571.93,751.28 592.98,735.84 614.16,720.66 C629.35,709.74 636.83,695.31 636.7,676.36 C636.45,644.98 636.58,613.61 636.58,582.11 C636.45,580.35 636.45,578.6 636.45,576.09z  M529.83 767.09 C529.83,757.93 529.71,749.89 529.96,741.86 C530.08,738.6 528.96,736.72 526.47,734.84 C510.65,723.54 494.96,712 479.14,700.7 C471.54,695.18 467.06,688.15 467.06,678.49 C467.06,678.49 467.06,609.34 467.06,609.34 C467.06,603.95 469.42,600.31 474.28,598.55 C492.84,591.9 506.04,578.6 517.75,563.29 C520.99,559.02 525.1,555.38 528.71,551.36 C529.21,550.86 529.83,549.98 529.83,549.36 C529.96,541.95 529.83,534.55 529.83,526.89 C525.48,526.89 521.74,527.14 518.13,526.77 C514.51,526.39 512.52,527.9 510.53,530.78 C504.18,540.07 497.95,549.61 490.6,558.14 C479.76,571.07 466.68,579.73 449,577.22 C447.25,576.96 445.51,576.84 443.52,576.59 C443.39,577.97 443.14,579.1 443.14,580.23 C443.14,613.11 443.02,645.99 443.14,678.87 C443.14,695.93 450.49,709.36 464.07,719.4 C481.01,731.7 497.95,744 514.89,756.29 C519.62,759.68 524.23,763.07 529.83,767.09z  M582.65 506.81 C568.45,479.46 554.37,452.6 539.8,424.62 C525.23,452.48 511.28,479.46 496.95,506.81 C496.95,506.81 582.65,506.81 582.65,506.81z  M563.59 379.19 C559.48,387.09 555.74,393.87 552.38,400.9 C551.76,402.28 552.01,404.54 552.75,405.92 C569.69,438.67 586.76,471.43 603.94,504.18 C604.57,505.43 606.19,506.94 607.43,506.94 C613.54,507.19 619.51,507.06 626.49,507.06 C605.31,464.27 584.64,422.23 563.59,379.19z "/><path id="_R_G_L_0_G_L_2_G_D_1_P_0" fill="#000000" fill-opacity="1" fill-rule="nonzero" d=" M516.01 325.98 C515.89,331.38 510.9,335.89 505.42,335.52 C500.44,335.14 496.08,330.12 496.33,324.85 C496.58,319.58 501.31,315.44 506.79,315.69 C512.15,315.94 516.14,320.46 516.01,325.98z "/><path id="_R_G_L_0_G_L_2_G_D_2_P_0" fill="#000000" fill-opacity="1" fill-rule="nonzero" d=" M549.76 646.49 C549.76,651.64 549.88,656.78 549.76,661.93 C549.51,668.33 545.77,672.34 540.17,672.47 C534.31,672.59 530.08,668.58 529.95,661.93 C529.71,651.64 529.71,641.22 529.95,630.93 C530.08,624.4 534.44,620.14 540.04,620.26 C545.65,620.39 549.51,624.78 549.76,631.43 C549.76,631.43 549.76,632.43 549.76,632.43 C549.76,632.43 549.76,646.49 549.76,646.49z "/></g></g><g id="_R_G_L_0_G_L_1_G_N_1_T_0_M"><g id="_R_G_L_0_G_L_1_G_N_1_T_0" transform=" translate(100, 75) scale(0.84, 0.84) translate(0, 0)"><g id="_R_G_L_0_G_L_1_G"><path id="_R_G_L_0_G_L_1_G_D_0_P_0" fill="#000000" fill-opacity="1" fill-rule="nonzero" d=" M537.8 796.7 C535.44,795.2 532.95,793.94 530.58,792.31 C503.05,772.36 475.28,752.66 448.13,732.08 C432.06,719.9 423.71,702.58 423.46,682.25 C422.97,642.85 423.21,603.44 423.21,564.04 C423.21,555.76 428.94,551.74 436.92,553.87 C440.78,554.88 444.51,556.13 448.38,556.89 C457.34,558.77 465.19,556.38 471.42,549.61 C477.65,542.71 483.38,535.55 490.23,527.4 C486.99,527.27 485.24,527.14 483.5,527.14 C483.5,527.14 376.13,527.14 376.13,527.14 C376.13,527.14 372.65,527.14 372.65,527.14 C364.67,527.02 359.82,523.25 359.82,516.98 C359.82,510.7 364.55,507.06 372.65,506.94 C372.65,506.94 386.1,506.94 386.1,506.94 C386.35,506.94 386.72,506.81 387.84,506.44 C383.86,500.16 380.37,493.76 376.01,487.99 C370.9,481.21 371.15,475.32 375.14,467.79 C406.77,409.56 438.04,350.95 469.3,292.35 C472.54,286.2 476.77,283.44 483.87,283.56 C521.36,283.81 558.73,283.81 596.22,283.56 C602.57,283.56 606.68,285.82 609.67,291.59 C641.56,351.2 673.57,410.81 705.58,470.3 C708.7,475.94 708.45,480.84 704.83,486.11 C700.35,492.63 696.24,499.54 691.38,507.06 C691.38,507.06 707.82,507.06 707.82,507.06 C715.17,507.19 719.66,510.96 719.53,517.1 C719.53,523.13 714.92,527.02 707.7,527.02 C707.7,527.02 596.35,527.02 596.35,527.02 C596.35,527.02 589.87,527.02 589.87,527.02 C597.72,538.06 604.57,548.98 616.03,555.38 C622.13,558.77 628.61,557.14 634.96,556.01 C637.33,555.51 639.69,554.63 642.06,553.87 C650.65,551.49 656.01,555.51 656.13,564.54 C656.26,568.93 656.13,573.2 656.13,577.59 C656.13,610.47 656.01,643.35 656.13,676.23 C656.26,701.96 646.04,721.91 625.37,736.84 C599.71,755.29 574.3,773.87 548.64,792.31 C546.4,793.94 543.91,795.2 541.42,796.7 C541.42,796.7 537.8,796.7 537.8,796.7z  M422.84 507.06 C422.84,507.06 427.95,507.06 427.95,507.06 C441.9,507.06 455.72,506.94 469.67,507.19 C473.16,507.19 474.91,506.06 476.52,503.05 C510.4,437.92 544.16,373.04 578.04,308.03 C578.66,306.78 579.16,305.4 579.91,303.89 C578.78,303.77 578.04,303.64 577.41,303.64 C548.14,303.64 518.75,303.64 489.48,303.52 C486.24,303.52 485.24,305.15 484,307.41 C474.66,324.97 465.07,342.67 455.72,360.24 C435.54,397.89 415.24,435.66 395.07,473.31 C394.19,474.94 393.32,477.45 393.94,478.7 C397.31,484.73 401.29,490.38 405.4,496.9 C406.77,494.52 407.77,492.76 408.64,491 C432.06,446.2 455.47,401.27 478.89,356.47 C479.76,354.72 480.76,352.96 481.88,351.33 C484.99,347.19 489.98,346.06 494.21,348.32 C498.45,350.45 500.44,355.34 498.94,360.24 C498.32,362.12 497.45,363.88 496.45,365.63 C473.04,410.69 449.5,455.74 426.08,500.67 C425.08,502.55 424.21,504.43 422.84,507.06z  M592.73 648.5 C592.73,638.71 592.86,628.79 592.61,619 C592.61,617.37 591.49,614.99 590.12,614.36 C571.81,605.45 557.98,591.65 546.03,575.58 C541.29,569.18 538.18,569.18 533.45,575.46 C521.49,591.52 507.66,605.45 489.35,614.36 C487.98,614.99 486.86,617.62 486.86,619.38 C486.74,638.58 486.86,657.78 486.74,676.98 C486.74,680.62 488.11,682.88 490.85,684.89 C506.04,695.81 521.24,706.85 536.43,717.89 C538.8,719.65 540.42,719.9 542.91,718.02 C557.98,706.85 573.18,695.81 588.5,685.02 C591.49,682.88 592.86,680.5 592.86,676.73 C592.61,667.19 592.73,657.78 592.73,648.5z  M598.22 312.43 C590.87,326.48 584.27,339.66 577.17,352.58 C575.42,355.85 575.42,358.36 577.04,361.74 C598.59,405.42 620.01,449.21 641.56,492.88 C643.8,497.53 645.17,503.93 648.91,506.06 C652.9,508.45 659.25,506.94 664.48,506.69 C666.22,506.56 668.46,505.31 669.46,503.93 C674.57,496.52 679.05,488.74 684.16,481.34 C686.28,478.33 686.15,476.07 684.41,472.81 C664.6,436.29 645.05,399.52 625.37,362.87 C616.53,346.56 607.68,329.99 598.22,312.43z  M636.45 576.09 C615.53,581.36 600.46,572.32 588.13,557.51 C580.9,548.85 574.8,539.19 568.2,530.16 C567.33,528.9 565.96,527.4 564.71,527.27 C559.85,526.89 554.87,527.14 549.89,527.14 C549.89,527.14 549.89,548.85 549.89,548.85 C554.87,554.88 558.86,559.52 562.72,564.42 C573.68,578.72 586.13,591.15 603.32,597.92 C611.54,601.19 612.79,603.07 612.79,612.23 C612.79,633.44 612.54,654.65 612.91,675.85 C613.04,687.02 608.8,695.31 599.71,701.71 C584.02,712.62 568.69,724.04 553.25,735.34 C552.01,736.22 550.14,737.6 550.01,738.73 C549.76,747.89 549.89,757.17 549.89,767.21 C571.93,751.28 592.98,735.84 614.16,720.66 C629.35,709.74 636.83,695.31 636.7,676.36 C636.45,644.98 636.58,613.61 636.58,582.11 C636.45,580.35 636.45,578.6 636.45,576.09z  M529.83 767.09 C529.83,757.93 529.71,749.89 529.96,741.86 C530.08,738.6 528.96,736.72 526.47,734.84 C510.65,723.54 494.96,712 479.14,700.7 C471.54,695.18 467.06,688.15 467.06,678.49 C467.06,678.49 467.06,609.34 467.06,609.34 C467.06,603.95 469.42,600.31 474.28,598.55 C492.84,591.9 506.04,578.6 517.75,563.29 C520.99,559.02 525.1,555.38 528.71,551.36 C529.21,550.86 529.83,549.98 529.83,549.36 C529.96,541.95 529.83,534.55 529.83,526.89 C525.48,526.89 521.74,527.14 518.13,526.77 C514.51,526.39 512.52,527.9 510.53,530.78 C504.18,540.07 497.95,549.61 490.6,558.14 C479.76,571.07 466.68,579.73 449,577.22 C447.25,576.96 445.51,576.84 443.52,576.59 C443.39,577.97 443.14,579.1 443.14,580.23 C443.14,613.11 443.02,645.99 443.14,678.87 C443.14,695.93 450.49,709.36 464.07,719.4 C481.01,731.7 497.95,744 514.89,756.29 C519.62,759.68 524.23,763.07 529.83,767.09z  M582.65 506.81 C568.45,479.46 554.37,452.6 539.8,424.62 C525.23,452.48 511.28,479.46 496.95,506.81 C496.95,506.81 582.65,506.81 582.65,506.81z  M563.59 379.19 C559.48,387.09 555.74,393.87 552.38,400.9 C551.76,402.28 552.01,404.54 552.75,405.92 C569.69,438.67 586.76,471.43 603.94,504.18 C604.57,505.43 606.19,506.94 607.43,506.94 C613.54,507.19 619.51,507.06 626.49,507.06 C605.31,464.27 584.64,422.23 563.59,379.19z "/><path id="_R_G_L_0_G_L_1_G_D_1_P_0" fill="#000000" fill-opacity="1" fill-rule="nonzero" d=" M516.01 325.98 C515.89,331.38 510.9,335.89 505.42,335.52 C500.44,335.14 496.08,330.12 496.33,324.85 C496.58,319.58 501.31,315.44 506.79,315.69 C512.15,315.94 516.14,320.46 516.01,325.98z "/><path id="_R_G_L_0_G_L_1_G_D_2_P_0" fill="#000000" fill-opacity="1" fill-rule="nonzero" d=" M549.76 646.49 C549.76,651.64 549.88,656.78 549.76,661.93 C549.51,668.33 545.77,672.34 540.17,672.47 C534.31,672.59 530.08,668.58 529.95,661.93 C529.71,651.64 529.71,641.22 529.95,630.93 C530.08,624.4 534.44,620.14 540.04,620.26 C545.65,620.39 549.51,624.78 549.76,631.43 C549.76,631.43 549.76,632.43 549.76,632.43 C549.76,632.43 549.76,646.49 549.76,646.49z "/></g></g></g><g id="_R_G_L_0_G_L_0_G_N_1_T_0_M"><g id="_R_G_L_0_G_L_0_G_N_1_T_0" transform=" translate(100, 75) scale(0.84, 0.84) translate(0, 0)"><g id="_R_G_L_0_G_L_0_G"><path id="_R_G_L_0_G_L_0_G_D_0_P_0" fill="#000000" fill-opacity="1" fill-rule="nonzero" d=" M537.8 796.7 C535.44,795.2 532.95,793.94 530.58,792.31 C503.05,772.36 475.28,752.66 448.13,732.08 C432.06,719.9 423.71,702.58 423.46,682.25 C422.97,642.85 423.21,603.44 423.21,564.04 C423.21,555.76 428.94,551.74 436.92,553.87 C440.78,554.88 444.51,556.13 448.38,556.89 C457.34,558.77 465.19,556.38 471.42,549.61 C477.65,542.71 483.38,535.55 490.23,527.4 C486.99,527.27 485.24,527.14 483.5,527.14 C483.5,527.14 376.13,527.14 376.13,527.14 C376.13,527.14 372.65,527.14 372.65,527.14 C364.67,527.02 359.82,523.25 359.82,516.98 C359.82,510.7 364.55,507.06 372.65,506.94 C372.65,506.94 386.1,506.94 386.1,506.94 C386.35,506.94 386.72,506.81 387.84,506.44 C383.86,500.16 380.37,493.76 376.01,487.99 C370.9,481.21 371.15,475.32 375.14,467.79 C406.77,409.56 438.04,350.95 469.3,292.35 C472.54,286.2 476.77,283.44 483.87,283.56 C521.36,283.81 558.73,283.81 596.22,283.56 C602.57,283.56 606.68,285.82 609.67,291.59 C641.56,351.2 673.57,410.81 705.58,470.3 C708.7,475.94 708.45,480.84 704.83,486.11 C700.35,492.63 696.24,499.54 691.38,507.06 C691.38,507.06 707.82,507.06 707.82,507.06 C715.17,507.19 719.66,510.96 719.53,517.1 C719.53,523.13 714.92,527.02 707.7,527.02 C707.7,527.02 596.35,527.02 596.35,527.02 C596.35,527.02 589.87,527.02 589.87,527.02 C597.72,538.06 604.57,548.98 616.03,555.38 C622.13,558.77 628.61,557.14 634.96,556.01 C637.33,555.51 639.69,554.63 642.06,553.87 C650.65,551.49 656.01,555.51 656.13,564.54 C656.26,568.93 656.13,573.2 656.13,577.59 C656.13,610.47 656.01,643.35 656.13,676.23 C656.26,701.96 646.04,721.91 625.37,736.84 C599.71,755.29 574.3,773.87 548.64,792.31 C546.4,793.94 543.91,795.2 541.42,796.7 C541.42,796.7 537.8,796.7 537.8,796.7z  M422.84 507.06 C422.84,507.06 427.95,507.06 427.95,507.06 C441.9,507.06 455.72,506.94 469.67,507.19 C473.16,507.19 474.91,506.06 476.52,503.05 C510.4,437.92 544.16,373.04 578.04,308.03 C578.66,306.78 579.16,305.4 579.91,303.89 C578.78,303.77 578.04,303.64 577.41,303.64 C548.14,303.64 518.75,303.64 489.48,303.52 C486.24,303.52 485.24,305.15 484,307.41 C474.66,324.97 465.07,342.67 455.72,360.24 C435.54,397.89 415.24,435.66 395.07,473.31 C394.19,474.94 393.32,477.45 393.94,478.7 C397.31,484.73 401.29,490.38 405.4,496.9 C406.77,494.52 407.77,492.76 408.64,491 C432.06,446.2 455.47,401.27 478.89,356.47 C479.76,354.72 480.76,352.96 481.88,351.33 C484.99,347.19 489.98,346.06 494.21,348.32 C498.45,350.45 500.44,355.34 498.94,360.24 C498.32,362.12 497.45,363.88 496.45,365.63 C473.04,410.69 449.5,455.74 426.08,500.67 C425.08,502.55 424.21,504.43 422.84,507.06z  M592.73 648.5 C592.73,638.71 592.86,628.79 592.61,619 C592.61,617.37 591.49,614.99 590.12,614.36 C571.81,605.45 557.98,591.65 546.03,575.58 C541.29,569.18 538.18,569.18 533.45,575.46 C521.49,591.52 507.66,605.45 489.35,614.36 C487.98,614.99 486.86,617.62 486.86,619.38 C486.74,638.58 486.86,657.78 486.74,676.98 C486.74,680.62 488.11,682.88 490.85,684.89 C506.04,695.81 521.24,706.85 536.43,717.89 C538.8,719.65 540.42,719.9 542.91,718.02 C557.98,706.85 573.18,695.81 588.5,685.02 C591.49,682.88 592.86,680.5 592.86,676.73 C592.61,667.19 592.73,657.78 592.73,648.5z  M598.22 312.43 C590.87,326.48 584.27,339.66 577.17,352.58 C575.42,355.85 575.42,358.36 577.04,361.74 C598.59,405.42 620.01,449.21 641.56,492.88 C643.8,497.53 645.17,503.93 648.91,506.06 C652.9,508.45 659.25,506.94 664.48,506.69 C666.22,506.56 668.46,505.31 669.46,503.93 C674.57,496.52 679.05,488.74 684.16,481.34 C686.28,478.33 686.15,476.07 684.41,472.81 C664.6,436.29 645.05,399.52 625.37,362.87 C616.53,346.56 607.68,329.99 598.22,312.43z  M636.45 576.09 C615.53,581.36 600.46,572.32 588.13,557.51 C580.9,548.85 574.8,539.19 568.2,530.16 C567.33,528.9 565.96,527.4 564.71,527.27 C559.85,526.89 554.87,527.14 549.89,527.14 C549.89,527.14 549.89,548.85 549.89,548.85 C554.87,554.88 558.86,559.52 562.72,564.42 C573.68,578.72 586.13,591.15 603.32,597.92 C611.54,601.19 612.79,603.07 612.79,612.23 C612.79,633.44 612.54,654.65 612.91,675.85 C613.04,687.02 608.8,695.31 599.71,701.71 C584.02,712.62 568.69,724.04 553.25,735.34 C552.01,736.22 550.14,737.6 550.01,738.73 C549.76,747.89 549.89,757.17 549.89,767.21 C571.93,751.28 592.98,735.84 614.16,720.66 C629.35,709.74 636.83,695.31 636.7,676.36 C636.45,644.98 636.58,613.61 636.58,582.11 C636.45,580.35 636.45,578.6 636.45,576.09z  M529.83 767.09 C529.83,757.93 529.71,749.89 529.96,741.86 C530.08,738.6 528.96,736.72 526.47,734.84 C510.65,723.54 494.96,712 479.14,700.7 C471.54,695.18 467.06,688.15 467.06,678.49 C467.06,678.49 467.06,609.34 467.06,609.34 C467.06,603.95 469.42,600.31 474.28,598.55 C492.84,591.9 506.04,578.6 517.75,563.29 C520.99,559.02 525.1,555.38 528.71,551.36 C529.21,550.86 529.83,549.98 529.83,549.36 C529.96,541.95 529.83,534.55 529.83,526.89 C525.48,526.89 521.74,527.14 518.13,526.77 C514.51,526.39 512.52,527.9 510.53,530.78 C504.18,540.07 497.95,549.61 490.6,558.14 C479.76,571.07 466.68,579.73 449,577.22 C447.25,576.96 445.51,576.84 443.52,576.59 C443.39,577.97 443.14,579.1 443.14,580.23 C443.14,613.11 443.02,645.99 443.14,678.87 C443.14,695.93 450.49,709.36 464.07,719.4 C481.01,731.7 497.95,744 514.89,756.29 C519.62,759.68 524.23,763.07 529.83,767.09z  M582.65 506.81 C568.45,479.46 554.37,452.6 539.8,424.62 C525.23,452.48 511.28,479.46 496.95,506.81 C496.95,506.81 582.65,506.81 582.65,506.81z  M563.59 379.19 C559.48,387.09 555.74,393.87 552.38,400.9 C551.76,402.28 552.01,404.54 552.75,405.92 C569.69,438.67 586.76,471.43 603.94,504.18 C604.57,505.43 606.19,506.94 607.43,506.94 C613.54,507.19 619.51,507.06 626.49,507.06 C605.31,464.27 584.64,422.23 563.59,379.19z "/><path id="_R_G_L_0_G_L_0_G_D_1_P_0" fill="#000000" fill-opacity="1" fill-rule="nonzero" d=" M516.01 325.98 C515.89,331.38 510.9,335.89 505.42,335.52 C500.44,335.14 496.08,330.12 496.33,324.85 C496.58,319.58 501.31,315.44 506.79,315.69 C512.15,315.94 516.14,320.46 516.01,325.98z "/><path id="_R_G_L_0_G_L_0_G_D_2_P_0" fill="#000000" fill-opacity="1" fill-rule="nonzero" d=" M549.76 646.49 C549.76,651.64 549.88,656.78 549.76,661.93 C549.51,668.33 545.77,672.34 540.17,672.47 C534.31,672.59 530.08,668.58 529.95,661.93 C529.71,651.64 529.71,641.22 529.95,630.93 C530.08,624.4 534.44,620.14 540.04,620.26 C545.65,620.39 549.51,624.78 549.76,631.43 C549.76,631.43 549.76,632.43 549.76,632.43 C549.76,632.43 549.76,646.49 549.76,646.49z "/></g></g></g></g></g><g id="time_group"/></svg>