<svg width="1222" height="721" viewBox="0 0 1222 721" fill="none" xmlns="http://www.w3.org/2000/svg">
<g opacity="0.5" clip-path="url(#clip0_245_1788)">
<path d="M613.371 582.604L390.505 404.028H390.784L435.134 131.142H435.413L790.214 143.698L741.68 524.287H740.843L789.377 144.535L435.971 131.7L391.342 403.749L613.929 581.767L613.371 582.604Z" fill="#FFD44B"/>
<path d="M929.605 284.661L870.874 428.241L871.648 428.558L930.38 284.978L929.605 284.661Z" fill="#FFD44B"/>
<path d="M298.457 685.285L256.896 489.967L240.16 250.285H240.997L257.733 489.688L391.62 403.191L351.175 526.52L458.564 568.652L458.006 569.21L298.457 685.285ZM350.896 527.357L299.573 683.611L456.89 568.931L350.896 527.357ZM258.012 490.805L298.736 683.053L350.059 526.799L258.012 490.805ZM258.291 489.967L350.338 525.962L390.225 404.586L258.291 489.967Z" fill="#FFD44B"/>
<path d="M778.22 704.817L777.662 704.538L455.774 568.094L614.487 577.023L753.674 587.626L740.843 524.287L741.679 524.008L754.51 587.626L815.317 592.37L871.662 426.629L900.113 599.345L815.875 592.928L778.22 703.979V704.817ZM459.958 569.21L777.104 703.7L753.952 588.463L614.487 577.86L459.958 569.21ZM754.51 588.463L777.662 702.584L815.039 592.928L754.51 588.463ZM816.154 592.37L899.276 598.787L871.383 429.977L816.154 592.37Z" fill="#FFD44B"/>
<path d="M299.015 685.006L298.736 684.169L613.65 581.767L741.122 524.008L871.104 428.303L820.059 251.122L435.691 131.979L362.89 262.283L391.62 405.144L240.16 250.285L435.412 131.142L614.208 75.8947L788.819 143.419L788.54 142.861L931.074 285.721L820.338 251.401L871.383 428.582L871.104 428.861L741.4 524.566L613.929 582.325L299.015 685.006ZM241.555 250.285L390.504 402.633L362.053 262.283L434.297 132.816L241.555 250.285ZM820.617 250.285L928.843 283.768L790.492 145.372L820.617 250.285ZM436.807 131.421L819.78 250.006L789.377 144.535L614.487 76.7317L436.807 131.421Z" fill="#FFD44B"/>
<path d="M257.175 490.526L30.6826 156.533H31.2405L241.555 143.14L242.671 29.8556L243.229 30.1346L436.807 131.7L242.113 143.977L240.997 250.285H240.16L241.276 144.256L31.7983 157.649L257.733 490.246L257.175 490.526ZM243.508 31.2507L242.392 143.419L434.018 131.142L243.508 31.2507Z" fill="#FFD44B"/>
<path d="M47.6978 609.111L47.9767 607.158H46.582L47.9767 606.321L89.2586 399.842H88.9797L89.2586 399.563L237.65 34.599L238.487 34.878L90.9322 398.168L242.392 248.332L144.766 429.14L258.291 490.525L50.2081 606.042L457.448 568.373L929.68 284.326L929.959 284.884L458.006 569.21L48.8135 606.879L47.6978 609.111ZM144.487 429.698L49.3713 605.763L256.618 490.246L144.487 429.698ZM90.0954 400.4L49.3713 604.368L143.929 429.419L90.0954 400.4ZM90.6532 399.563L144.208 428.582L239.324 252.238L90.6532 399.563Z" fill="#FFD44B"/>
<path d="M1203.03 172.437H1201.64L792.725 147.325L794.398 146.767L1030.1 53.0146H1030.37L1203.03 172.437ZM796.072 146.767L1200.24 171.6L1029.82 53.8517L796.072 146.767Z" fill="#FFD44B"/>
<path d="M1125.77 347.107L1124.93 346.828L929.4 284.884L929.679 284.605L1029.82 52.1776L1030.09 53.0147L1125.77 347.107ZM930.795 284.605L1124.65 345.991L1029.82 54.6888L930.795 284.605Z" fill="#FFD44B"/>
<path d="M1137.2 643.989L869.151 426.908L1046.27 498.896L929.68 284.605L1201.64 171.6L1201.92 172.437L930.795 284.884L1047.95 500.57L873.614 429.698L1137.48 643.431L1137.2 643.989Z" fill="#FFD44B"/>
<path d="M1133.58 639.246H1133.02L898.439 599.624L1046.83 499.733L1125.49 345.154V346.549L1133.58 639.246ZM900.671 599.066L1133.02 638.409L1124.93 348.223L1047.39 500.291L900.671 599.066Z" fill="#FFD44B"/>
<path d="M613.927 75.9844L390.814 403.687L391.506 404.158L614.618 76.4556L613.927 75.9844Z" fill="#FFD44B"/>
<path d="M391.062 438.627C366.237 438.627 345.875 418.258 345.875 393.425C345.875 368.592 366.237 348.223 391.062 348.223C415.887 348.223 436.249 368.592 436.249 393.425C436.249 418.537 415.887 438.627 391.062 438.627ZM391.062 349.618C366.795 349.618 347.27 369.15 347.27 393.425C347.27 417.7 366.795 437.232 391.062 437.232C415.329 437.232 434.854 417.7 434.854 393.425C434.854 369.429 415.329 349.618 391.062 349.618Z" fill="#FFD44B"/>
<path d="M1119.63 382.543C1094.81 382.543 1074.45 362.174 1074.45 337.341C1074.45 312.508 1094.81 292.139 1119.63 292.139C1144.46 292.139 1164.82 312.508 1164.82 337.341C1164.82 362.453 1144.46 382.543 1119.63 382.543ZM1119.63 293.534C1095.37 293.534 1075.84 313.066 1075.84 337.341C1075.84 361.616 1095.37 381.148 1119.63 381.148C1143.9 381.148 1163.42 361.616 1163.42 337.341C1163.42 313.345 1143.62 293.534 1119.63 293.534Z" fill="#FFD44B"/>
<path d="M613.371 106.029C596.077 106.029 582.131 92.0781 582.131 74.7786C582.131 57.4791 596.077 43.5278 613.371 43.5278C630.665 43.5278 644.612 57.4791 644.612 74.7786C644.612 91.7991 630.665 106.029 613.371 106.029ZM613.371 44.0859C596.635 44.0859 582.968 57.7581 582.968 74.4996C582.968 91.2411 596.635 104.913 613.371 104.913C630.107 104.913 643.775 91.2411 643.775 74.4996C643.775 57.7581 630.107 44.0859 613.371 44.0859Z" fill="#FFD44B"/>
<path d="M1043.21 521.776C1025.91 521.776 1011.96 507.825 1011.96 490.526C1011.96 473.226 1025.91 459.275 1043.21 459.275C1060.5 459.275 1074.45 473.226 1074.45 490.526C1074.45 507.825 1060.5 521.776 1043.21 521.776ZM1043.21 460.112C1026.47 460.112 1012.8 473.784 1012.8 490.526C1012.8 507.267 1026.47 520.939 1043.21 520.939C1059.94 520.939 1073.61 507.267 1073.61 490.526C1073.61 473.784 1059.94 460.112 1043.21 460.112Z" fill="#FFD44B"/>
<path d="M933.306 297.44C919.359 297.44 907.923 286 907.923 272.049C907.923 258.098 919.359 246.658 933.306 246.658C947.252 246.658 958.688 258.098 958.688 272.049C958.967 286 947.531 297.44 933.306 297.44ZM933.306 247.216C919.638 247.216 908.481 258.377 908.481 272.049C908.481 285.721 919.638 296.882 933.306 296.882C946.973 296.882 958.131 285.721 958.131 272.049C958.131 258.377 946.973 247.216 933.306 247.216Z" fill="#FFD44B"/>
<path d="M896.486 618.877C882.54 618.877 871.104 607.437 871.104 593.486C871.104 579.534 882.54 568.094 896.486 568.094C910.433 568.094 921.869 579.534 921.869 593.486C921.869 607.437 910.433 618.877 896.486 618.877ZM896.486 568.653C882.819 568.653 871.661 579.813 871.661 593.486C871.661 607.158 882.819 618.319 896.486 618.319C910.154 618.319 921.311 607.158 921.311 593.486C921.032 579.813 909.875 568.653 896.486 568.653Z" fill="#FFD44B"/>
<path d="M814.202 277.072C803.045 277.072 793.84 267.864 793.84 256.703C793.84 245.542 803.045 236.334 814.202 236.334C825.359 236.334 834.564 245.542 834.564 256.703C834.564 268.143 825.359 277.072 814.202 277.072ZM814.202 237.171C803.323 237.171 794.677 246.1 794.677 256.703C794.677 267.585 803.602 276.235 814.202 276.235C824.801 276.235 833.727 267.306 833.727 256.703C834.006 246.1 825.08 237.171 814.202 237.171Z" fill="#FFD44B"/>
<path d="M1201.64 183.04C1190.48 183.04 1181.28 173.832 1181.28 162.671C1181.28 151.51 1190.48 142.303 1201.64 142.303C1212.8 142.303 1222 151.51 1222 162.671C1222 174.111 1212.8 183.04 1201.64 183.04ZM1201.64 143.14C1190.76 143.14 1182.11 152.068 1182.11 162.671C1182.11 173.553 1191.04 182.203 1201.64 182.203C1212.52 182.203 1221.16 173.274 1221.16 162.671C1221.44 152.068 1212.52 143.14 1201.64 143.14Z" fill="#FFD44B"/>
<path d="M777.383 721C766.225 721 757.021 711.792 757.021 700.631C757.021 689.47 766.225 680.262 777.383 680.262C788.54 680.262 797.745 689.47 797.745 700.631C797.745 711.792 788.54 721 777.383 721ZM777.383 681.1C766.504 681.1 757.857 690.028 757.857 700.631C757.857 711.513 766.783 720.163 777.383 720.163C788.261 720.163 796.908 711.234 796.908 700.631C797.187 689.749 788.261 681.1 777.383 681.1Z" fill="#FFD44B"/>
<path d="M1133.02 653.476C1121.86 653.476 1112.66 644.268 1112.66 633.107C1112.66 621.946 1121.86 612.738 1133.02 612.738C1144.18 612.738 1153.38 621.946 1153.38 633.107C1153.38 644.547 1144.18 653.476 1133.02 653.476ZM1133.02 613.575C1122.14 613.575 1113.5 622.504 1113.5 633.107C1113.5 643.989 1122.42 652.639 1133.02 652.639C1143.9 652.639 1152.55 643.71 1152.55 633.107C1152.82 622.504 1143.9 613.575 1133.02 613.575Z" fill="#FFD44B"/>
<path d="M48.2556 619.435C37.0983 619.435 27.8936 610.227 27.8936 599.066C27.8936 587.905 37.0983 578.697 48.2556 578.697C59.4128 578.697 68.6176 587.905 68.6176 599.066C68.6176 610.227 59.4128 619.435 48.2556 619.435ZM48.2556 579.534C37.3772 579.534 28.7304 588.463 28.7304 599.066C28.7304 609.948 37.6562 618.598 48.2556 618.598C58.855 618.598 67.7808 609.669 67.7808 599.066C68.0597 588.184 59.1339 579.534 48.2556 579.534Z" fill="#FFD44B"/>
<path d="M362.611 282.652C348.665 282.652 337.229 271.212 337.229 257.261C337.229 243.31 348.665 231.87 362.611 231.87C376.558 231.87 387.994 243.31 387.994 257.261C387.994 271.212 376.558 282.652 362.611 282.652ZM362.611 232.428C348.944 232.428 337.786 243.589 337.786 257.261C337.786 270.933 348.944 282.094 362.611 282.094C376.279 282.094 387.436 270.933 387.436 257.261C387.157 243.589 376.279 232.428 362.611 232.428Z" fill="#FFD44B"/>
<path d="M243.228 51.0616C229.282 51.0616 217.846 39.6215 217.846 25.6703C217.846 11.7191 229.282 0.279053 243.228 0.279053C257.175 0.279053 268.611 11.7191 268.611 25.6703C268.611 39.6215 257.175 51.0616 243.228 51.0616ZM243.228 0.837102C229.561 0.837102 218.404 11.9981 218.404 25.6703C218.404 39.3425 229.561 50.5035 243.228 50.5035C256.896 50.5035 267.774 39.0635 267.774 25.3913C267.774 11.7191 256.896 0.837102 243.228 0.837102Z" fill="#FFD44B"/>
<path d="M462.748 594.323C448.801 594.323 437.365 582.883 437.365 568.932C437.365 554.98 448.801 543.54 462.748 543.54C476.695 543.54 488.131 554.98 488.131 568.932C488.131 582.883 476.695 594.323 462.748 594.323ZM462.748 544.098C449.08 544.098 437.923 555.259 437.923 568.932C437.923 582.604 449.08 593.765 462.748 593.765C476.416 593.765 487.573 582.604 487.573 568.932C487.294 555.259 476.416 544.098 462.748 544.098Z" fill="#FFD44B"/>
<path d="M437.644 157.091C420.35 157.091 406.403 143.14 406.403 125.84C406.403 108.541 420.35 94.5894 437.644 94.5894C454.937 94.5894 468.884 108.541 468.884 125.84C469.163 142.861 454.937 157.091 437.644 157.091ZM437.644 95.1474C420.908 95.1474 407.24 108.82 407.24 125.561C407.24 142.303 420.908 155.975 437.644 155.975C454.38 155.975 468.047 142.303 468.047 125.561C468.326 108.82 454.659 95.1474 437.644 95.1474Z" fill="#FFD44B"/>
<path d="M1029.82 78.406C1012.52 78.406 998.576 64.4547 998.576 47.1552C998.576 29.8557 1012.52 15.9044 1029.82 15.9044C1047.11 15.9044 1061.06 29.8557 1061.06 47.1552C1061.06 64.1757 1047.11 78.406 1029.82 78.406ZM1029.82 16.4625C1013.08 16.4625 999.413 30.1347 999.413 46.8762C999.413 63.6177 1013.08 77.2899 1029.82 77.2899C1046.55 77.2899 1060.22 63.6177 1060.22 46.8762C1060.22 30.1347 1046.55 16.4625 1029.82 16.4625Z" fill="#FFD44B"/>
<path d="M789.656 172.995C769.015 172.995 752.279 155.696 752.279 134.769C752.279 113.563 769.015 96.5426 789.656 96.5426C810.297 96.5426 827.033 113.842 827.033 134.769C827.033 155.975 810.297 172.995 789.656 172.995ZM789.656 97.3797C769.573 97.3797 753.395 114.121 753.395 134.49C753.395 155.138 769.573 171.6 789.656 171.6C809.739 171.6 825.917 154.859 825.917 134.49C825.917 114.121 809.739 97.3797 789.656 97.3797Z" fill="#FFD44B"/>
<path d="M240.718 278.467C220.077 278.467 203.341 261.167 203.341 240.24C203.341 219.313 220.077 202.014 240.718 202.014C261.359 202.014 278.095 219.313 278.095 240.24C278.095 261.167 261.08 278.467 240.718 278.467ZM240.718 202.851C220.635 202.851 204.457 219.592 204.457 239.961C204.457 260.609 220.635 277.072 240.718 277.072C260.801 277.072 276.979 260.33 276.979 239.961C276.7 219.592 260.522 202.851 240.718 202.851Z" fill="#FFD44B"/>
<path d="M89.537 426.908C68.8961 426.908 52.1602 409.608 52.1602 388.681C52.1602 367.476 68.8961 350.455 89.537 350.455C110.178 350.455 126.914 367.755 126.914 388.681C126.914 409.608 110.178 426.908 89.537 426.908ZM89.537 351.292C69.4539 351.292 53.2759 368.034 53.2759 388.402C53.2759 409.05 69.4539 425.513 89.537 425.513C109.62 425.513 125.798 408.771 125.798 388.402C125.798 368.034 109.62 351.292 89.537 351.292Z" fill="#FFD44B"/>
<path d="M867.757 465.413C847.116 465.413 830.38 448.114 830.38 427.187C830.38 405.981 847.116 388.96 867.757 388.96C888.398 388.96 905.134 406.26 905.134 427.187C904.855 448.114 888.119 465.413 867.757 465.413ZM867.757 389.798C847.674 389.798 831.496 406.539 831.496 426.908C831.496 447.556 847.674 464.018 867.757 464.018C887.84 464.018 904.018 447.277 904.018 426.908C903.739 406.26 887.561 389.798 867.757 389.798Z" fill="#FFD44B"/>
<path d="M257.175 515.359C239.881 515.359 225.935 501.407 225.935 484.108C225.935 466.808 239.881 452.857 257.175 452.857C274.469 452.857 288.415 466.808 288.415 484.108C288.694 501.128 274.469 515.359 257.175 515.359ZM257.175 453.415C240.439 453.415 226.771 467.087 226.771 483.829C226.771 500.57 240.439 514.243 257.175 514.243C273.911 514.243 287.578 500.57 287.578 483.829C287.857 467.087 274.19 453.415 257.175 453.415Z" fill="#FFD44B"/>
<path d="M31.2404 179.971C13.9466 179.971 0 166.02 0 148.72C0 131.421 13.9466 117.469 31.2404 117.469C48.5341 117.469 62.4807 131.421 62.4807 148.72C62.7596 166.02 48.5341 179.971 31.2404 179.971ZM31.2404 118.307C14.5044 118.307 0.836795 131.979 0.836795 148.72C0.836795 165.462 14.5044 179.134 31.2404 179.134C47.9763 179.134 61.6439 165.462 61.6439 148.72C61.6439 131.979 48.2552 118.307 31.2404 118.307Z" fill="#FFD44B"/>
<path d="M614.208 600.182C603.05 600.182 593.846 590.975 593.846 579.814C593.846 568.653 603.05 559.445 614.208 559.445C625.365 559.445 634.57 568.653 634.57 579.814C634.291 590.975 625.365 600.182 614.208 600.182ZM614.208 560.282C603.329 560.282 594.683 569.211 594.683 579.814C594.683 590.695 603.608 599.345 614.208 599.345C624.807 599.345 633.733 590.416 633.733 579.814C633.733 569.211 625.086 560.282 614.208 560.282Z" fill="#FFD44B"/>
<path d="M742.795 549.958C725.501 549.958 711.555 536.007 711.555 518.707C711.555 501.408 725.501 487.456 742.795 487.456C760.089 487.456 774.035 501.408 774.035 518.707C774.035 535.728 760.089 549.958 742.795 549.958ZM742.795 488.014C726.059 488.014 712.391 501.687 712.391 518.428C712.391 535.17 726.059 548.842 742.795 548.842C759.531 548.842 773.199 535.17 773.199 518.428C773.199 501.687 759.531 488.014 742.795 488.014Z" fill="#FFD44B"/>
<path d="M391.062 385.054C386.041 385.054 381.857 380.869 381.857 375.846C381.857 370.824 386.041 366.639 391.062 366.639C396.083 366.639 400.267 370.824 400.267 375.846C400.267 380.869 396.083 385.054 391.062 385.054Z" fill="#FFD44B"/>
<path d="M410.309 416.863H372.374C371.816 416.863 371.537 416.584 371.537 416.026V407.934C371.537 397.052 380.463 388.124 391.341 388.124C402.22 388.124 411.145 397.052 411.145 407.934V416.026C411.424 416.584 410.867 416.863 410.309 416.863Z" fill="#FFD44B"/>
<path d="M1119.63 328.97C1114.61 328.97 1110.43 324.785 1110.43 319.762C1110.43 314.74 1114.61 310.555 1119.63 310.555C1124.65 310.555 1128.84 314.74 1128.84 319.762C1128.84 324.785 1124.65 328.97 1119.63 328.97Z" fill="#FFD44B"/>
<path d="M1138.88 360.779H1100.94C1100.39 360.779 1100.11 360.5 1100.11 359.942V351.85C1100.11 340.968 1109.03 332.04 1119.91 332.04C1130.79 332.04 1139.71 340.968 1139.71 351.85V359.942C1139.71 360.5 1139.44 360.779 1138.88 360.779Z" fill="#FFD44B"/>
<path d="M613.37 68.6401C609.744 68.6401 606.955 65.8498 606.955 62.2225C606.955 58.5952 609.744 55.8049 613.37 55.8049C616.997 55.8049 619.786 58.5952 619.786 62.2225C619.786 65.8498 616.997 68.6401 613.37 68.6401Z" fill="#FFD44B"/>
<path d="M626.759 90.962H600.261C599.982 90.962 599.703 90.683 599.703 90.404V84.8235C599.703 77.2898 605.84 71.1512 613.371 71.1512C620.902 71.1512 627.038 77.2898 627.038 84.8235V90.404C627.317 90.683 627.038 90.962 626.759 90.962Z" fill="#FFD44B"/>
<path d="M1043.2 484.666C1039.58 484.666 1036.79 481.876 1036.79 478.248C1036.79 474.621 1039.58 471.831 1043.2 471.831C1046.83 471.831 1049.62 474.621 1049.62 478.248C1049.62 481.876 1046.83 484.666 1043.2 484.666Z" fill="#FFD44B"/>
<path d="M1056.59 506.709H1030.09C1029.82 506.709 1029.54 506.43 1029.54 506.151V500.57C1029.54 493.037 1035.67 486.898 1043.2 486.898C1050.74 486.898 1056.87 493.037 1056.87 500.57V506.151C1057.43 506.43 1057.15 506.709 1056.59 506.709Z" fill="#FFD44B"/>
<path d="M933.306 267.306C930.516 267.306 928.006 265.074 928.006 262.004C928.006 259.214 930.237 256.703 933.306 256.703C936.095 256.703 938.605 258.935 938.605 262.004C938.605 264.795 936.374 267.306 933.306 267.306Z" fill="#FFD44B"/>
<path d="M944.184 285.163H922.706C922.427 285.163 922.148 284.884 922.148 284.605V280.141C922.148 274.002 927.169 268.98 933.306 268.98C939.442 268.98 944.463 274.002 944.463 280.141V284.605C944.742 285.163 944.463 285.163 944.184 285.163Z" fill="#FFD44B"/>
<path d="M896.486 588.742C893.697 588.742 891.187 586.51 891.187 583.441C891.187 580.651 893.418 578.139 896.486 578.139C899.276 578.139 901.786 580.372 901.786 583.441C901.507 586.231 899.276 588.742 896.486 588.742Z" fill="#FFD44B"/>
<path d="M907.365 606.6H885.887C885.608 606.6 885.329 606.321 885.329 606.042V601.577C885.329 595.439 890.35 590.417 896.486 590.417C902.623 590.417 907.644 595.439 907.644 601.577V606.042C907.923 606.321 907.644 606.6 907.365 606.6Z" fill="#FFD44B"/>
<path d="M814.202 253.075C811.97 253.075 810.018 251.122 810.018 248.89C810.018 246.658 811.97 244.705 814.202 244.705C816.433 244.705 818.386 246.658 818.386 248.89C818.386 251.401 816.712 253.075 814.202 253.075Z" fill="#FFD44B"/>
<path d="M822.848 267.585H805.834C805.555 267.585 805.555 267.306 805.555 267.306V263.678C805.555 258.656 809.46 254.75 814.481 254.75C819.501 254.75 823.406 258.656 823.406 263.678V267.306C823.406 267.306 823.127 267.585 822.848 267.585Z" fill="#FFD44B"/>
<path d="M1201.64 159.044C1199.41 159.044 1197.45 157.091 1197.45 154.859C1197.45 152.627 1199.41 150.673 1201.64 150.673C1203.87 150.673 1205.82 152.627 1205.82 154.859C1205.82 157.091 1203.87 159.044 1201.64 159.044Z" fill="#FFD44B"/>
<path d="M1210.28 173.554H1193.27C1192.99 173.554 1192.99 173.274 1192.99 173.274V169.647C1192.99 164.625 1196.9 160.718 1201.92 160.718C1206.94 160.718 1210.84 164.625 1210.84 169.647V172.995C1210.84 173.275 1210.56 173.554 1210.28 173.554Z" fill="#FFD44B"/>
<path d="M777.383 696.725C775.152 696.725 773.199 694.772 773.199 692.539C773.199 690.307 775.152 688.354 777.383 688.354C779.615 688.354 781.567 690.307 781.567 692.539C781.567 695.051 779.615 696.725 777.383 696.725Z" fill="#FFD44B"/>
<path d="M786.03 711.234H769.015C768.736 711.234 768.736 710.955 768.736 710.955V707.328C768.736 702.305 772.641 698.399 777.662 698.399C782.683 698.399 786.588 702.305 786.588 707.328V710.955C786.588 710.955 786.309 711.234 786.03 711.234Z" fill="#FFD44B"/>
<path d="M1133.3 629.48C1131.07 629.48 1129.12 627.527 1129.12 625.295C1129.12 623.062 1131.07 621.109 1133.3 621.109C1135.53 621.109 1137.48 623.062 1137.48 625.295C1137.2 627.527 1135.53 629.48 1133.3 629.48Z" fill="#FFD44B"/>
<path d="M1141.95 643.71H1124.93C1124.65 643.71 1124.65 643.431 1124.65 643.431V639.804C1124.65 634.781 1128.56 630.875 1133.58 630.875C1138.6 630.875 1142.5 634.781 1142.5 639.804V643.431C1142.23 643.71 1141.95 643.71 1141.95 643.71Z" fill="#FFD44B"/>
<path d="M48.2553 595.439C46.0238 595.439 44.0713 593.486 44.0713 591.253C44.0713 589.021 46.0238 587.068 48.2553 587.068C50.4867 587.068 52.4392 589.021 52.4392 591.253C52.4392 593.486 50.7656 595.439 48.2553 595.439Z" fill="#FFD44B"/>
<path d="M56.9022 609.669H39.8873C39.6084 609.669 39.6084 609.39 39.6084 609.39V605.763C39.6084 600.74 43.5134 596.834 48.5342 596.834C53.555 596.834 57.46 600.74 57.46 605.763V609.39C57.46 609.39 57.1811 609.669 56.9022 609.669Z" fill="#FFD44B"/>
<path d="M362.611 252.238C359.822 252.238 357.312 250.006 357.312 246.937C357.312 244.147 359.543 241.635 362.611 241.635C365.401 241.635 367.911 243.868 367.911 246.937C367.911 250.006 365.401 252.238 362.611 252.238Z" fill="#FFD44B"/>
<path d="M373.49 270.375H352.012C351.733 270.375 351.454 270.096 351.454 269.817V265.353C351.454 259.214 356.475 254.192 362.611 254.192C368.748 254.192 373.769 259.214 373.769 265.353V269.817C374.048 270.096 373.769 270.375 373.49 270.375Z" fill="#FFD44B"/>
<path d="M243.228 20.6479C240.439 20.6479 237.929 18.4157 237.929 15.3464C237.929 12.5561 240.16 10.0449 243.228 10.0449C246.018 10.0449 248.528 12.2771 248.528 15.3464C248.528 18.4157 246.018 20.6479 243.228 20.6479Z" fill="#FFD44B"/>
<path d="M254.107 38.7845H232.629C232.35 38.7845 232.071 38.5055 232.071 38.2265V33.7621C232.071 27.6235 237.092 22.6011 243.229 22.6011C249.365 22.6011 254.386 27.6235 254.386 33.7621V38.2265C254.665 38.5055 254.386 38.7845 254.107 38.7845Z" fill="#FFD44B"/>
<path d="M462.748 564.188C459.959 564.188 457.448 561.956 457.448 558.887C457.448 556.096 459.68 553.585 462.748 553.585C465.537 553.585 468.048 555.817 468.048 558.887C467.769 561.677 465.537 564.188 462.748 564.188Z" fill="#FFD44B"/>
<path d="M473.626 582.046H452.149C451.87 582.046 451.591 581.767 451.591 581.488V577.023C451.591 570.885 456.612 565.862 462.748 565.862C468.885 565.862 473.905 570.885 473.905 577.023V581.488C474.184 582.046 473.905 582.046 473.626 582.046Z" fill="#FFD44B"/>
<path d="M437.922 119.702C434.296 119.702 431.507 116.911 431.507 113.284C431.507 109.657 434.296 106.867 437.922 106.867C441.548 106.867 444.338 109.657 444.338 113.284C444.338 116.911 441.269 119.702 437.922 119.702Z" fill="#FFD44B"/>
<path d="M451.311 142.024H424.813C424.534 142.024 424.255 141.745 424.255 141.466V135.885C424.255 128.351 430.391 122.213 437.923 122.213C445.454 122.213 451.59 128.351 451.59 135.885V141.466C451.869 141.745 451.59 142.024 451.311 142.024Z" fill="#FFD44B"/>
<path d="M1029.82 41.0167C1026.19 41.0167 1023.4 38.2264 1023.4 34.5991C1023.4 30.9718 1026.19 28.1815 1029.82 28.1815C1033.44 28.1815 1036.23 30.9718 1036.23 34.5991C1036.23 38.2264 1033.16 41.0167 1029.82 41.0167Z" fill="#FFD44B"/>
<path d="M1043.2 63.3386H1016.71C1016.43 63.3386 1016.15 63.0596 1016.15 62.7805V57.2C1016.15 49.6664 1022.29 43.5278 1029.82 43.5278C1037.35 43.5278 1043.48 49.6664 1043.48 57.2V62.7805C1043.76 63.0596 1043.48 63.3386 1043.2 63.3386Z" fill="#FFD44B"/>
<path d="M789.655 127.514C785.471 127.514 782.124 123.887 782.124 119.702C782.124 115.237 785.471 111.889 789.655 111.889C793.839 111.889 797.186 115.516 797.186 119.702C797.465 123.887 793.839 127.514 789.655 127.514Z" fill="#FFD44B"/>
<path d="M805.555 154.58H774.314C774.035 154.58 773.478 154.301 773.478 153.743V146.767C773.478 137.559 780.73 129.746 789.935 129.746C798.86 129.746 806.392 137.28 806.392 146.767V153.743C806.392 154.301 806.113 154.58 805.555 154.58Z" fill="#FFD44B"/>
<path d="M240.718 232.986C236.534 232.986 233.187 229.358 233.187 225.173C233.187 220.709 236.534 217.36 240.718 217.36C244.902 217.36 248.249 220.988 248.249 225.173C248.249 229.358 244.902 232.986 240.718 232.986Z" fill="#FFD44B"/>
<path d="M256.617 260.051H225.098C224.819 260.051 224.261 259.772 224.261 259.214V252.238C224.261 243.031 231.513 235.497 240.718 235.497C249.644 235.497 257.175 243.031 257.175 252.238V259.214C257.175 259.772 256.896 260.051 256.617 260.051Z" fill="#FFD44B"/>
<path d="M89.537 381.427C85.353 381.427 82.0059 377.8 82.0059 373.614C82.0059 369.15 85.353 365.802 89.537 365.802C93.721 365.802 97.0682 369.429 97.0682 373.614C97.3471 377.8 93.721 381.427 89.537 381.427Z" fill="#FFD44B"/>
<path d="M105.715 408.492H74.1962C73.9172 408.492 73.3594 408.213 73.3594 407.655V400.68C73.3594 391.472 80.6116 383.938 89.8164 383.938C98.7422 383.938 106.273 391.472 106.273 400.68V407.655C106.273 407.934 105.994 408.492 105.715 408.492Z" fill="#FFD44B"/>
<path d="M867.756 419.653C863.572 419.653 860.225 416.026 860.225 411.841C860.225 407.376 863.572 404.028 867.756 404.028C871.94 404.028 875.287 407.655 875.287 411.841C875.287 416.305 871.94 419.653 867.756 419.653Z" fill="#FFD44B"/>
<path d="M883.655 446.719H852.415C852.136 446.719 851.578 446.44 851.578 445.882V438.906C851.578 429.698 858.83 422.164 868.035 422.164C876.961 422.164 884.492 429.698 884.492 438.906V445.882C884.492 446.44 883.934 446.719 883.655 446.719Z" fill="#FFD44B"/>
<path d="M614.207 576.186C611.976 576.186 610.023 574.233 610.023 572.001C610.023 569.769 611.976 567.815 614.207 567.815C616.439 567.815 618.391 569.769 618.391 572.001C618.391 574.233 616.439 576.186 614.207 576.186Z" fill="#FFD44B"/>
<path d="M622.854 590.416H605.839C605.561 590.416 605.561 590.137 605.561 590.137V586.51C605.561 581.488 609.466 577.581 614.486 577.581C619.507 577.581 623.412 581.488 623.412 586.51V590.137C623.133 590.137 623.133 590.416 622.854 590.416Z" fill="#FFD44B"/>
<path d="M742.795 512.569C739.169 512.569 736.38 509.778 736.38 506.151C736.38 502.524 739.169 499.733 742.795 499.733C746.421 499.733 749.211 502.524 749.211 506.151C749.211 509.778 746.421 512.569 742.795 512.569Z" fill="#FFD44B"/>
<path d="M756.184 534.89H729.686C729.407 534.89 729.128 534.611 729.128 534.332V528.752C729.128 521.218 735.264 515.08 742.796 515.08C750.327 515.08 756.463 521.218 756.463 528.752V534.332C756.742 534.611 756.463 534.89 756.184 534.89Z" fill="#FFD44B"/>
<path d="M257.454 477.969C253.827 477.969 251.038 475.179 251.038 471.552C251.038 467.925 253.827 465.134 257.454 465.134C261.08 465.134 263.869 467.925 263.869 471.552C263.869 475.179 260.801 477.969 257.454 477.969Z" fill="#FFD44B"/>
<path d="M270.843 500.291H244.344C244.065 500.291 243.786 500.012 243.786 499.733V494.153C243.786 486.619 249.923 480.481 257.454 480.481C264.985 480.481 271.121 486.619 271.121 494.153V499.733C271.4 500.012 271.121 500.291 270.843 500.291Z" fill="#FFD44B"/>
<path d="M31.2406 142.861C27.6145 142.861 24.8252 140.071 24.8252 136.443C24.8252 132.816 27.6145 130.026 31.2406 130.026C34.8667 130.026 37.6561 132.816 37.6561 136.443C37.935 140.071 34.8667 142.861 31.2406 142.861Z" fill="#FFD44B"/>
<path d="M44.9079 164.904H18.4094C18.1305 164.904 17.8516 164.625 17.8516 164.346V158.765C17.8516 151.232 23.9881 145.093 31.5192 145.093C39.0504 145.093 45.1869 151.232 45.1869 158.765V164.346C45.4658 164.625 45.1869 164.904 44.9079 164.904Z" fill="#FFD44B"/>
<path d="M298.736 674.124C295.947 674.124 293.437 671.892 293.437 668.822C293.437 666.032 295.668 663.521 298.736 663.521C301.526 663.521 304.036 665.753 304.036 668.822C304.036 671.613 301.804 674.124 298.736 674.124Z" fill="#FFD44B"/>
<path d="M309.893 691.982H288.415C288.136 691.982 287.857 691.703 287.857 691.424V686.959C287.857 680.821 292.878 675.798 299.015 675.798C305.151 675.798 310.172 680.821 310.172 686.959V691.424C310.172 691.703 310.172 691.982 309.893 691.982Z" fill="#FFD44B"/>
<path d="M298.736 704.259C284.79 704.259 273.354 692.819 273.354 678.867C273.354 664.916 284.79 653.476 298.736 653.476C312.683 653.476 324.119 664.916 324.119 678.867C324.398 692.819 312.962 704.259 298.736 704.259ZM298.736 654.034C285.069 654.034 273.911 665.195 273.911 678.867C273.911 692.54 285.069 703.701 298.736 703.701C312.404 703.701 323.561 692.54 323.561 678.867C323.561 665.195 312.404 654.034 298.736 654.034Z" fill="#FFD44B"/>
</g>
<defs>
<clipPath id="clip0_245_1788">
<rect width="1222" height="721" fill="white"/>
</clipPath>
</defs>
</svg>
