<svg xmlns="http://www.w3.org/2000/svg" xmlns:xlink="http://www.w3.org/1999/xlink" preserveAspectRatio="xMidYMid meet" width="200" height="150" viewBox="0 0 200 150" style="width:100%;height:100%"><defs><animateMotion repeatCount="indefinite" dur="4.9996667s" begin="0s" xlink:href="#_R_G_L_0_G_L_6_G" fill="freeze" keyTimes="0;0.1933345;0.2533348;0.2800016;0.340002;0.3800022;0.4400025;0.473336;0.5333364;0.5666699;0.6266636;0.7266667;1" path="M328.95 -26.32 C294.3,-54.82 133.77,-168.86 121.05,-197.37 C108.33,-225.88 246.05,-205.7 252.63,-197.37 C259.21,-189.03 158.33,-155.7 160.53,-147.37 C162.72,-139.03 266.67,-157.02 265.79,-147.37 C264.91,-137.72 153.51,-99.12 155.26,-89.47 C157.02,-79.82 276.76,-98.68 276.32,-89.47 C275.88,-80.26 152.63,-43.42 152.63,-34.21 C152.63,-25 276.32,-42.98 276.32,-34.21 C276.32,-25.44 153.07,9.65 152.63,18.42 C152.19,27.19 244.3,25.88 273.68,18.42 C303.07,10.97 319.74,-18.86 328.95,-26.32 C328.95,-26.32 328.95,-26.32 328.95,-26.32 " keyPoints="0;0.18;0.28;0.35;0.43;0.51;0.6;0.69;0.77;0.87;0.95;1;1" keySplines="0.077 0 0 0.993;0 0 0.667 1;0.333 0 0.667 1;0.333 0 0.667 1;0.333 0 0.667 1;0.333 0 0.667 1;0.333 0 0.667 1;0.333 0 0.667 1;0.333 0 0.667 1;0.333 0 0 1;0.078 0 0 1;0 0 0 0" calcMode="spline"/><animateTransform repeatCount="indefinite" dur="4.9996667s" begin="0s" xlink:href="#_R_G_L_0_G_L_6_G" fill="freeze" attributeName="transform" from="0" to="0" type="rotate" additive="sum" keyTimes="0;0.1933345;0.6266636;0.7266667;1" values="0;48;48;0;0" keySplines="0.001 0 0 0.912;0.333 0 0.667 1;0.078 0.001 0 1;0 0 0 0" calcMode="spline"/><animateTransform repeatCount="indefinite" dur="4.9996667s" begin="0s" xlink:href="#_R_G_L_0_G_L_6_G" fill="freeze" attributeName="transform" from="0.8 0.8" to="0.8 0.8" type="scale" additive="sum" keyTimes="0;0.9933333;1" values="0.8 0.8;0.8 0.8;0.8 0.8" keySplines="0 0 1 1;0 0 0 0" calcMode="spline"/><animateTransform repeatCount="indefinite" dur="4.9996667s" begin="0s" xlink:href="#_R_G_L_0_G_L_6_G" fill="freeze" attributeName="transform" from="-868.947 -513.684" to="-868.947 -513.684" type="translate" additive="sum" keyTimes="0;0.9933333;1" values="-868.947 -513.684;-868.947 -513.684;-868.947 -513.684" keySplines="0 0 1 1;0 0 0 0" calcMode="spline"/><animateTransform repeatCount="indefinite" dur="4.9996667s" begin="0s" xlink:href="#_R_G_L_0_G_L_4_G" fill="freeze" attributeName="transform" from="0 0" to="0.18 0.18" type="scale" additive="sum" keyTimes="0;0.1933345;0.2533333;1" values="0 0;0 0;0.18 0.18;0.18 0.18" keySplines="0.333 0 0.667 1;0.333 0 0.667 1;0 0 0 0" calcMode="spline"/><animateTransform repeatCount="indefinite" dur="4.9996667s" begin="0s" xlink:href="#_R_G_L_0_G_L_4_G" fill="freeze" attributeName="transform" from="-617.778 -423.333" to="-617.778 -423.333" type="translate" additive="sum" keyTimes="0;0.9933333;1" values="-617.778 -423.333;-617.778 -423.333;-617.778 -423.333" keySplines="0 0 1 1;0 0 0 0" calcMode="spline"/><animateTransform repeatCount="indefinite" dur="4.9996667s" begin="0s" xlink:href="#_R_G_L_0_G_L_3_G" fill="freeze" attributeName="transform" from="0 0" to="0.18 0.18" type="scale" additive="sum" keyTimes="0;0.2800016;0.34;1" values="0 0;0 0;0.18 0.18;0.18 0.18" keySplines="0.333 0 0.667 1;0.333 0 0.667 1;0 0 0 0" calcMode="spline"/><animateTransform repeatCount="indefinite" dur="4.9996667s" begin="0s" xlink:href="#_R_G_L_0_G_L_3_G" fill="freeze" attributeName="transform" from="-620.556 -431.667" to="-620.556 -431.667" type="translate" additive="sum" keyTimes="0;0.9933333;1" values="-620.556 -431.667;-620.556 -431.667;-620.556 -431.667" keySplines="0 0 1 1;0 0 0 0" calcMode="spline"/><animateTransform repeatCount="indefinite" dur="4.9996667s" begin="0s" xlink:href="#_R_G_L_0_G_L_2_G" fill="freeze" attributeName="transform" from="0 0" to="0.18 0.18" type="scale" additive="sum" keyTimes="0;0.3800022;0.44;1" values="0 0;0 0;0.18 0.18;0.18 0.18" keySplines="0.333 0 0.667 1;0.333 0 0.667 1;0 0 0 0" calcMode="spline"/><animateTransform repeatCount="indefinite" dur="4.9996667s" begin="0s" xlink:href="#_R_G_L_0_G_L_2_G" fill="freeze" attributeName="transform" from="-615 -428.889" to="-615 -428.889" type="translate" additive="sum" keyTimes="0;0.9933333;1" values="-615 -428.889;-615 -428.889;-615 -428.889" keySplines="0 0 1 1;0 0 0 0" calcMode="spline"/><animateTransform repeatCount="indefinite" dur="4.9996667s" begin="0s" xlink:href="#_R_G_L_0_G_L_1_G" fill="freeze" attributeName="transform" from="0 0" to="0.18 0.18" type="scale" additive="sum" keyTimes="0;0.473336;0.5333333;1" values="0 0;0 0;0.18 0.18;0.18 0.18" keySplines="0.333 0 0.667 1;0.333 0 0.667 1;0 0 0 0" calcMode="spline"/><animateTransform repeatCount="indefinite" dur="4.9996667s" begin="0s" xlink:href="#_R_G_L_0_G_L_1_G" fill="freeze" attributeName="transform" from="-620.556 -428.889" to="-620.556 -428.889" type="translate" additive="sum" keyTimes="0;0.9933333;1" values="-620.556 -428.889;-620.556 -428.889;-620.556 -428.889" keySplines="0 0 1 1;0 0 0 0" calcMode="spline"/><animateTransform repeatCount="indefinite" dur="4.9996667s" begin="0s" xlink:href="#_R_G_L_0_G_L_0_G" fill="freeze" attributeName="transform" from="0 0" to="0.18 0.18" type="scale" additive="sum" keyTimes="0;0.5666699;0.6266667;1" values="0 0;0 0;0.18 0.18;0.18 0.18" keySplines="0.333 0 0.667 1;0.333 0 0.667 1;0 0 0 0" calcMode="spline"/><animateTransform repeatCount="indefinite" dur="4.9996667s" begin="0s" xlink:href="#_R_G_L_0_G_L_0_G" fill="freeze" attributeName="transform" from="-617.778 -423.333" to="-617.778 -423.333" type="translate" additive="sum" keyTimes="0;0.9933333;1" values="-617.778 -423.333;-617.778 -423.333;-617.778 -423.333" keySplines="0 0 1 1;0 0 0 0" calcMode="spline"/><animate attributeType="XML" attributeName="opacity" dur="5s" from="0" to="1" xlink:href="#time_group"/></defs><g id="_R_G"><g id="_R_G_L_0_G"><g id="_R_G_L_0_G_L_6_G_N_11_T_0" transform=" translate(65, 87) scale(0.19, 0.19) translate(0, 0)"><g id="_R_G_L_0_G_L_6_G"><path id="_R_G_L_0_G_L_6_G_D_0_P_0" fill="#000000" fill-opacity="1" fill-rule="nonzero" d=" M902.26 601.91 C883.21,602.15 864.61,602.38 845.57,602.61 C844.32,536.47 843.07,470.55 841.83,404.17 C860.76,403.94 879.35,403.7 898.52,403.47 C899.76,469.5 901.01,535.42 902.26,601.91z "/><path id="_R_G_L_0_G_L_6_G_D_1_P_0" fill="#000000" fill-opacity="1" fill-rule="nonzero" d=" M898.29 393.79 C879.35,394.02 860.76,394.25 841.48,394.49 C841.48,385.97 841.03,377.69 841.82,369.52 C842.39,363.11 847.72,358.79 854.18,358.56 C864.27,358.21 874.36,358.09 884.34,358.21 C892.05,358.32 897.15,363.92 897.83,371.86 C897.95,373.72 897.95,375.59 898.06,377.57 C898.06,382.82 898.17,388.07 898.29,393.79z "/><path id="_R_G_L_0_G_L_6_G_D_2_P_0" fill="#000000" fill-opacity="1" fill-rule="nonzero" d=" M847.49 613.81 C865.52,613.58 882.75,613.46 900.78,613.23 C892.28,631.43 884.11,649.05 875.5,667.71 C865.97,649.4 856.9,631.9 847.49,613.81z "/></g></g><g id="_R_G_L_0_G_L_5_G_N_11_T_0" transform=" translate(65, 87) scale(0.19, 0.19) translate(0, 0)"><g id="_R_G_L_0_G_L_5_G" transform=" translate(0, 0) translate(-540, -540)"><path id="_R_G_L_0_G_L_5_G_D_0_P_0" fill="#000000" fill-opacity="1" fill-rule="nonzero" d=" M635.25 274.91 C635.25,274.91 647.16,274.91 647.16,274.91 C648.06,275.26 648.97,275.61 649.88,275.84 C661.78,278.99 670.74,286.23 675.84,297.77 C677.09,300.58 678.56,301.16 681.28,301.16 C717.79,301.04 754.41,301.16 790.92,301.16 C802.6,301.16 807.02,305.71 807.02,317.72 C807.02,446.87 807.02,576.02 807.13,705.16 C807.13,713.33 804.98,719.28 797.61,722.78 C797.61,722.78 484.68,722.78 484.68,722.78 C477.31,719.28 475.16,713.33 475.16,705.16 C475.39,575.78 475.39,446.4 475.39,316.91 C475.39,306.06 480.15,301.16 490.69,301.16 C527.43,301.16 564.05,301.16 600.78,301.27 C603.96,301.27 605.43,300.46 606.79,297.43 C610.42,289.14 616.32,282.96 624.25,279.11 C627.77,277.36 631.62,276.31 635.25,274.91z  M501.24 327.64 C501.24,327.64 501.24,696.41 501.24,696.41 C501.24,696.41 781.28,696.41 781.28,696.41 C781.28,696.41 781.28,327.76 781.28,327.76 C781.28,327.76 730.49,327.76 730.49,327.76 C730.49,327.76 730.49,363.92 730.49,363.92 C730.49,375.12 725.84,379.91 715.07,379.91 C715.07,379.91 568.02,379.91 568.02,379.91 C556.56,379.91 552.03,375.24 552.03,363.57 C552.03,363.57 552.03,327.64 552.03,327.64 C552.03,327.64 501.24,327.64 501.24,327.64z  M704.86 327.41 C704.86,327.41 668.36,327.41 668.36,327.41 C659.51,327.41 654.75,322.86 653.96,313.76 C653.28,306.41 647.95,301.16 641.15,301.16 C634.34,301.16 629.13,306.53 628.45,313.87 C627.77,322.62 622.89,327.29 614.39,327.41 C614.39,327.41 581.62,327.41 581.62,327.41 C581.62,327.41 577.65,327.41 577.65,327.41 C577.65,327.41 577.65,353.42 577.65,353.42 C577.65,353.42 704.86,353.42 704.86,353.42 C704.86,353.42 704.86,327.41 704.86,327.41z "/><path id="_R_G_L_0_G_L_5_G_D_1_P_0" fill="#000000" fill-opacity="1" fill-rule="nonzero" d=" M582.76 425.52 C582.76,432.64 576.41,438.59 568.7,438.7 C560.88,438.82 554.3,432.52 554.53,425.29 C554.64,418.17 561.22,412.22 568.81,412.34 C576.41,412.34 582.76,418.29 582.76,425.52z "/><path id="_R_G_L_0_G_L_5_G_D_2_P_0" fill="#000000" fill-opacity="1" fill-rule="nonzero" d=" M568.47 464.84 C576.18,464.72 582.64,470.55 582.75,477.78 C582.87,485.13 576.41,491.32 568.58,491.2 C560.99,491.2 554.52,485.25 554.52,478.02 C554.41,470.9 560.76,464.84 568.47,464.84z "/><path id="_R_G_L_0_G_L_5_G_D_3_P_0" fill="#000000" fill-opacity="1" fill-rule="nonzero" d=" M569.26 517.33 C577.2,517.68 583.32,524.1 582.75,531.45 C582.18,538.57 575.38,544.17 567.79,543.7 C560.08,543.12 554.18,536.93 554.52,529.82 C554.86,522.7 561.67,516.87 569.26,517.33z "/><path id="_R_G_L_0_G_L_5_G_D_4_P_0" fill="#000000" fill-opacity="1" fill-rule="nonzero" d=" M582.76 582.78 C582.87,589.9 576.64,595.97 568.92,596.2 C561.1,596.43 554.41,590.25 554.41,583.01 C554.41,575.9 560.76,569.95 568.47,569.83 C576.18,569.72 582.64,575.55 582.76,582.78z "/><path id="_R_G_L_0_G_L_5_G_D_5_P_0" fill="#000000" fill-opacity="1" fill-rule="nonzero" d=" M582.75 635.28 C582.87,642.4 576.63,648.46 568.92,648.58 C561.1,648.7 554.52,642.63 554.52,635.28 C554.52,628.16 560.98,622.21 568.69,622.21 C576.29,622.21 582.64,628.16 582.75,635.28z "/></g></g><g id="_R_G_L_0_G_L_4_G" transform=" translate(78.5, 64.5)"><path id="_R_G_L_0_G_L_4_G_D_0_P_0" fill="#000000" fill-opacity="1" fill-rule="nonzero" d=" M679.02 438.47 C661.1,438.47 643.19,438.59 625.28,438.47 C618.02,438.47 612.58,433.92 611.21,427.74 C610.08,422.02 613.6,415.84 619.72,413.62 C621.99,412.8 624.6,412.45 627.09,412.45 C661.67,412.34 696.25,412.34 730.83,412.45 C742.96,412.45 750.22,421.79 745.57,431.12 C742.74,436.6 737.86,438.82 731.4,438.7 C713.94,438.35 696.48,438.47 679.02,438.47z "/></g><g id="_R_G_L_0_G_L_3_G" transform=" translate(79, 76)"><path id="_R_G_L_0_G_L_3_G_D_0_P_0" fill="#000000" fill-opacity="1" fill-rule="nonzero" d=" M679.02 438.47 C661.1,438.47 643.19,438.59 625.28,438.47 C618.02,438.47 612.58,433.92 611.21,427.74 C610.08,422.02 613.6,415.84 619.72,413.62 C621.99,412.8 624.6,412.45 627.09,412.45 C661.67,412.34 696.25,412.34 730.83,412.45 C742.96,412.45 750.22,421.79 745.57,431.12 C742.74,436.6 737.86,438.82 731.4,438.7 C713.94,438.35 696.48,438.47 679.02,438.47z "/></g><g id="_R_G_L_0_G_L_2_G" transform=" translate(78, 85.5)"><path id="_R_G_L_0_G_L_2_G_D_0_P_0" fill="#000000" fill-opacity="1" fill-rule="nonzero" d=" M679.02 438.47 C661.1,438.47 643.19,438.59 625.28,438.47 C618.02,438.47 612.58,433.92 611.21,427.74 C610.08,422.02 613.6,415.84 619.72,413.62 C621.99,412.8 624.6,412.45 627.09,412.45 C661.67,412.34 696.25,412.34 730.83,412.45 C742.96,412.45 750.22,421.79 745.57,431.12 C742.74,436.6 737.86,438.82 731.4,438.7 C713.94,438.35 696.48,438.47 679.02,438.47z "/></g><g id="_R_G_L_0_G_L_1_G" transform=" translate(79, 96)"><path id="_R_G_L_0_G_L_1_G_D_0_P_0" fill="#000000" fill-opacity="1" fill-rule="nonzero" d=" M679.02 438.47 C661.1,438.47 643.19,438.59 625.28,438.47 C618.02,438.47 612.58,433.92 611.21,427.74 C610.08,422.02 613.6,415.84 619.72,413.62 C621.99,412.8 624.6,412.45 627.09,412.45 C661.67,412.34 696.25,412.34 730.83,412.45 C742.96,412.45 750.22,421.79 745.57,431.12 C742.74,436.6 737.86,438.82 731.4,438.7 C713.94,438.35 696.48,438.47 679.02,438.47z "/></g><g id="_R_G_L_0_G_L_0_G" transform=" translate(78.5, 105)"><path id="_R_G_L_0_G_L_0_G_D_0_P_0" fill="#000000" fill-opacity="1" fill-rule="nonzero" d=" M679.02 438.47 C661.1,438.47 643.19,438.59 625.28,438.47 C618.02,438.47 612.58,433.92 611.21,427.74 C610.08,422.02 613.6,415.84 619.72,413.62 C621.99,412.8 624.6,412.45 627.09,412.45 C661.67,412.34 696.25,412.34 730.83,412.45 C742.96,412.45 750.22,421.79 745.57,431.12 C742.74,436.6 737.86,438.82 731.4,438.7 C713.94,438.35 696.48,438.47 679.02,438.47z "/></g></g></g><g id="time_group"/></svg>