<svg width="377" height="439" viewBox="0 0 377 439" fill="none" xmlns="http://www.w3.org/2000/svg">
<g clip-path="url(#clip0_328_104)">
<path opacity="0.6" d="M362.59 439H14.2154C6.42614 439 0 432.57 0 424.776V14.2241C0 6.43009 6.42614 0 14.2154 0H362.59C370.379 0 376.805 6.43009 376.805 14.2241V424.776C377 432.57 370.574 439 362.59 439Z" fill="#FBC108"/>
<path d="M271.656 49.8074C271.918 49.5712 272.275 49.524 272.608 49.6421C274.201 50.2798 277.246 49.9728 278.769 49.6421L281.314 41.9886C280.291 40.8075 278.031 38.776 276.366 38.3509C276.033 38.2564 275.771 37.9965 275.7 37.6658L274.392 31.4533C274.32 31.1226 274.439 30.7683 274.725 30.5557C276.081 29.5163 277.318 26.7526 277.793 25.2644L272.394 19.2408C270.847 19.5479 267.945 20.4692 266.756 21.6739C266.518 21.9101 266.138 22.0046 265.828 21.9101L259.763 19.9259C259.43 19.8078 259.192 19.5243 259.144 19.1936C258.906 17.5165 257.122 15.0362 256.076 13.9023L248.131 15.5322C247.631 16.9968 246.965 19.9731 247.441 21.603C247.536 21.9337 247.417 22.2881 247.179 22.5243L242.422 26.7526C242.16 26.9888 241.803 27.036 241.47 26.9179C239.877 26.2801 236.832 26.5872 235.31 26.9179L232.717 34.5478C233.74 35.7288 235.999 37.7603 237.665 38.1855C237.998 38.28 238.259 38.5398 238.331 38.8705L239.615 45.0831C239.686 45.4138 239.567 45.7681 239.282 45.9807C237.95 47.0437 236.689 49.8074 236.213 51.272L241.613 57.2955C243.159 56.9884 246.061 56.0672 247.251 54.8625C247.489 54.6263 247.869 54.5318 248.178 54.6263L254.244 56.6105C254.577 56.7286 254.815 57.0121 254.863 57.3428C255.1 59.0199 256.884 61.5002 257.931 62.634L265.876 61.0041C266.376 59.5396 267.042 56.5632 266.566 54.9333C266.471 54.6026 266.59 54.2483 266.827 54.0121L271.656 49.8074ZM258.645 46.0279C254.315 46.9256 250.081 44.1618 249.177 39.8626C248.274 35.5635 251.057 31.3588 255.386 30.4612C259.715 29.5636 263.949 32.3273 264.853 36.6265C265.733 40.9493 262.974 45.1539 258.645 46.0279ZM259.691 51.0357C252.579 52.5003 245.633 47.9649 244.158 40.9256C242.684 33.8863 247.251 26.9652 254.339 25.5006C261.428 24.0361 268.397 28.5714 269.872 35.6107C271.347 42.65 266.78 49.5712 259.691 51.0357Z" fill="#767778"/>
<path d="M348.51 72.9608C347.903 72.9228 347.333 73.2651 347.029 73.7976L341.557 83.6865C341.253 84.219 341.291 84.9036 341.633 85.3981C343.343 87.8703 344.027 93.2712 344.027 96.0477L331.716 103.464C329.284 102.133 324.838 99.0524 323.433 96.3519C323.167 95.8195 322.597 95.4771 321.951 95.4771L310.628 95.6673C310.02 95.6673 309.45 96.0477 309.184 96.5801C307.892 99.3186 303.56 102.59 301.166 103.997L288.59 97.0366C288.514 94.26 288.969 88.8592 290.603 86.3109C290.945 85.7784 290.945 85.1318 290.641 84.5993L284.828 74.9006C284.524 74.3681 283.916 74.0638 283.308 74.1019C280.306 74.3681 275.291 72.2382 272.897 70.869L272.631 56.454C274.987 55.0087 279.888 52.6886 282.928 52.8407C283.536 52.8787 284.144 52.5364 284.41 52.004L289.881 42.115C290.185 41.5826 290.147 40.8979 289.805 40.4035C288.096 37.9313 287.412 32.5304 287.412 29.7539L299.723 22.3372C302.154 23.6684 306.6 26.7492 308.006 29.4496C308.272 29.9821 308.842 30.3244 309.488 30.3244L320.811 30.1342C321.419 30.1342 321.989 29.7539 322.255 29.2214C323.547 26.4829 327.878 23.212 330.272 21.8047L342.849 28.803C342.925 31.5795 342.469 36.9804 340.835 39.5287C340.493 40.0612 340.493 40.7078 340.797 41.2402L346.611 50.939C346.915 51.4715 347.523 51.7757 348.131 51.7377C351.132 51.4715 356.148 53.6014 358.542 54.9706L358.808 69.3856C356.452 70.7929 351.55 73.113 348.51 72.9608ZM338.973 62.5014C338.745 49.6458 328.144 39.4146 315.301 39.6428C302.458 39.871 292.237 50.4826 292.465 63.3382C292.693 76.1938 303.294 86.425 316.137 86.1968C328.98 85.9686 339.201 75.357 338.973 62.5014Z" fill="#474A4E"/>
<path d="M315.986 77.0688C308.158 77.2209 301.699 70.9833 301.585 63.1483C301.433 55.3132 307.664 48.8474 315.492 48.7333C323.319 48.5811 329.778 54.8187 329.892 62.6538C330.044 70.4889 323.813 76.9547 315.986 77.0688Z" fill="#474A4E"/>
</g>
<g clip-path="url(#clip1_328_104)">
<path d="M298.139 122.119H78.0394C73.5731 122.119 70 118.542 70 114.072V72.0472C70 67.5766 73.5731 64 78.0394 64H298.139C302.606 64 306.179 67.5766 306.179 72.0472V114.251C306 118.542 302.427 122.119 298.139 122.119Z" fill="white"/>
<path d="M110.554 113.356H85.7211C81.4335 113.356 78.0391 109.959 78.0391 105.667V80.631C78.0391 76.3391 81.4335 72.9414 85.7211 72.9414H110.554C114.841 72.9414 118.236 76.3391 118.236 80.631V105.488C118.415 109.78 114.841 113.356 110.554 113.356Z" stroke="#3B4045" stroke-width="0.9846" stroke-miterlimit="10"/>
<path d="M292.6 91.1818H142.532C139.495 91.1818 136.994 88.6782 136.994 85.6381C136.994 82.5981 139.495 80.0945 142.532 80.0945H292.6C295.638 80.0945 298.139 82.5981 298.139 85.6381C298.139 88.6782 295.638 91.1818 292.6 91.1818Z" fill="#CBBA86"/>
<path d="M202.561 105.846H142.712C139.675 105.846 137.174 103.342 137.174 100.302C137.174 97.2619 139.675 94.7583 142.712 94.7583H202.739C205.776 94.7583 208.278 97.2619 208.278 100.302C208.099 103.521 205.598 105.846 202.561 105.846Z" fill="#CBBA86"/>
<path d="M298.139 202.413H78.0394C73.5731 202.413 70 198.836 70 194.365V152.341C70 147.87 73.5731 144.294 78.0394 144.294H298.139C302.606 144.294 306.179 147.87 306.179 152.341V194.544C306 198.836 302.427 202.413 298.139 202.413Z" fill="white"/>
<path d="M110.554 193.471H85.7211C81.4335 193.471 78.0391 190.074 78.0391 185.782V160.925C78.0391 156.633 81.4335 153.235 85.7211 153.235H110.554C114.841 153.235 118.236 156.633 118.236 160.925V185.782C118.415 190.074 114.841 193.471 110.554 193.471Z" stroke="#3B4045" stroke-width="0.9846" stroke-miterlimit="10"/>
<path d="M292.6 171.475H142.532C139.495 171.475 136.994 168.972 136.994 165.932C136.994 162.892 139.495 160.388 142.532 160.388H292.6C295.638 160.388 298.139 162.892 298.139 165.932C298.139 168.972 295.638 171.475 292.6 171.475Z" fill="#CBBA86"/>
<path d="M202.561 186.14H142.712C139.675 186.14 137.174 183.636 137.174 180.596C137.174 177.556 139.675 175.052 142.712 175.052H202.739C205.776 175.052 208.278 177.556 208.278 180.596C208.099 183.815 205.598 186.14 202.561 186.14Z" fill="#CBBA86"/>
<path d="M298.139 363H78.0394C73.5731 363 70 359.423 70 354.953V312.749C70 308.279 73.5731 304.702 78.0394 304.702H298.139C302.606 304.702 306.179 308.279 306.179 312.749V354.953C306 359.423 302.427 363 298.139 363Z" fill="white"/>
<path d="M110.554 354.059H85.7211C81.4335 354.059 78.0391 350.661 78.0391 346.369V321.512C78.0391 317.22 81.4335 313.822 85.7211 313.822H110.554C114.841 313.822 118.236 317.22 118.236 321.512V346.369C118.415 350.661 114.841 354.059 110.554 354.059Z" stroke="#3B4045" stroke-width="0.9846" stroke-miterlimit="10"/>
<path d="M292.6 331.884H142.532C139.495 331.884 136.994 329.38 136.994 326.34C136.994 323.3 139.495 320.796 142.532 320.796H292.6C295.638 320.796 298.139 323.3 298.139 326.34C298.139 329.559 295.638 331.884 292.6 331.884Z" fill="#CBBA86"/>
<path d="M202.561 346.727H142.712C139.675 346.727 137.174 344.223 137.174 341.183C137.174 338.143 139.675 335.639 142.712 335.639H202.739C205.776 335.639 208.278 338.143 208.278 341.183C208.099 344.223 205.598 346.727 202.561 346.727Z" fill="#CBBA86"/>
<path d="M298.139 282.706H78.0394C73.5731 282.706 70 279.13 70 274.659V232.456C70 227.985 73.5731 224.408 78.0394 224.408H298.139C302.606 224.408 306.179 227.985 306.179 232.456V274.659C306 279.13 302.427 282.706 298.139 282.706Z" fill="white"/>
<path d="M110.554 273.765H85.7211C81.4335 273.765 78.0391 270.367 78.0391 266.075V241.218C78.0391 236.927 81.4335 233.529 85.7211 233.529H110.554C114.841 233.529 118.236 236.927 118.236 241.218V266.075C118.415 270.367 114.841 273.765 110.554 273.765Z" stroke="#3B4045" stroke-width="0.9846" stroke-miterlimit="10"/>
<path d="M292.6 251.769H142.532C139.495 251.769 136.994 249.266 136.994 246.226C136.994 243.185 139.495 240.682 142.532 240.682H292.6C295.638 240.682 298.139 243.185 298.139 246.226C298.139 249.266 295.638 251.769 292.6 251.769Z" fill="#CBBA86"/>
<path d="M202.561 266.433H142.712C139.675 266.433 137.174 263.929 137.174 260.889C137.174 257.849 139.675 255.346 142.712 255.346H202.739C205.776 255.346 208.278 257.849 208.278 260.889C208.099 263.929 205.598 266.433 202.561 266.433Z" fill="#CBBA86"/>
<path d="M88.2222 249.444L83.7559 253.379L94.6537 267.506L115.199 243.901L111.268 239.609L95.3683 259.459L88.2222 249.444Z" fill="#3B4045"/>
<path d="M88.4663 328.836L84 332.77L94.8978 346.897L115.443 323.292L111.512 319L95.6124 338.85L88.4663 328.836Z" fill="#3B4045"/>
<path d="M86.4663 170.836L82 174.77L92.8978 188.897L113.443 165.292L109.512 161L93.6124 180.85L86.4663 170.836Z" fill="#3B4045"/>
<path d="M86.4663 88.8355L82 92.7697L92.8978 106.897L113.443 83.2919L109.512 79L93.6124 98.8499L86.4663 88.8355Z" fill="#3B4045"/>
</g>
<defs>
<clipPath id="clip0_328_104">
<rect width="377" height="439" fill="white"/>
</clipPath>
<clipPath id="clip1_328_104">
<rect width="236" height="299" fill="white" transform="translate(70 64)"/>
</clipPath>
</defs>
</svg>
