<svg width="536" height="296" viewBox="0 0 536 296" fill="none" xmlns="http://www.w3.org/2000/svg">
<path d="M511.795 294.913C481.164 294.913 34.9326 295.005 34.6753 294.331L34.6311 294.246C34.6107 294.207 34.5964 294.165 34.5889 294.122C34.418 293.785 -34.1655 199.179 72.4563 133.317C114.173 107.548 69.8434 90.5362 103.02 61.8586C141.144 28.8914 182.75 65.3592 225.144 50.4172C232.635 47.7777 240.153 43.5303 247.676 37.0127C251.948 33.3352 256.588 30.1066 261.522 27.3779C262.284 26.9524 263.054 26.5349 263.832 26.1314C266.839 24.5723 269.925 23.1693 273.078 21.9282C275.212 21.0838 277.387 20.303 279.602 19.5858C283.118 18.4483 286.722 17.4641 290.415 16.6331C295.734 15.4378 301.117 14.5465 306.537 13.9634C308.934 13.7025 311.352 13.4957 313.789 13.3432C361.16 10.3584 414.467 27.1511 441.978 51.6958C447.517 56.6397 472.702 82.2061 452.85 117.365C440.313 139.559 492.827 160.756 511.486 186.1C558.929 250.535 512.225 294.072 511.795 294.913Z" fill="#FCF1CF"/>
<path d="M535.33 293.965H0.607005C0.271765 293.965 0 294.237 0 294.571V294.778C0 295.113 0.271765 295.384 0.607005 295.384H535.33C535.665 295.384 535.937 295.113 535.937 294.778V294.571C535.937 294.237 535.665 293.965 535.33 293.965Z" fill="#233862"/>
<g clip-path="url(#clip0_265_4)">
<path d="M405.635 23.2305C405.038 20.9311 404.124 18.7259 402.92 16.6781L405.686 12.5178L401.849 8.68026L398.011 4.84275L393.851 7.60899C391.803 6.40473 389.598 5.49103 387.299 4.89411L386.315 0H375.456L374.473 4.89411C372.173 5.49103 369.968 6.40473 367.92 7.60899L363.76 4.84275L359.922 8.68026L356.085 12.5178L358.851 16.6781C357.647 18.7259 356.733 20.9311 356.136 23.2305L351.242 24.2137V35.0732L356.136 36.0565C356.732 38.3563 357.646 40.5617 358.851 42.6089L356.085 46.7692L359.922 50.6287L363.76 54.4663L367.92 51.7C369.968 52.9062 372.173 53.8224 374.473 54.4222L375.456 59.309H386.315L387.299 54.4222C389.598 53.8224 391.803 52.9062 393.851 51.7L398.011 54.4663L401.849 50.6287L405.686 46.7912L402.92 42.6309C404.126 40.5838 405.04 38.3783 405.635 36.0785L410.529 35.0953V24.2137L405.635 23.2305ZM380.886 48.6623C377.124 48.6623 373.447 47.5469 370.319 45.4571C367.192 43.3672 364.754 40.3969 363.315 36.9217C361.875 33.4464 361.498 29.6224 362.232 25.9331C362.966 22.2438 364.778 18.855 367.437 16.1952C370.097 13.5353 373.486 11.724 377.175 10.9901C380.865 10.2563 384.689 10.6329 388.164 12.0724C391.639 13.5119 394.609 15.9496 396.699 19.0772C398.789 22.2048 399.904 25.8819 399.904 29.6435C399.904 34.6876 397.901 39.5251 394.334 43.0918C390.767 46.6585 385.93 48.6623 380.886 48.6623Z" fill="#3B4045"/>
<path d="M413.038 69.3907C412.769 68.3368 412.351 67.3264 411.798 66.3897L413.068 64.4819L411.307 62.7209L409.546 60.9599L407.667 62.2293C406.73 61.6751 405.72 61.2552 404.666 60.982L404.211 58.7367H399.236L398.781 60.982C397.728 61.2552 396.717 61.6751 395.78 62.2293L393.873 60.9599L392.112 62.7209L390.351 64.4819L391.62 66.3897C391.067 67.3264 390.649 68.3368 390.38 69.3907L388.135 69.8383V74.8425L390.38 75.2901C390.651 76.3459 391.068 77.3585 391.62 78.2984L390.351 80.2062L392.112 81.9599L393.873 83.7209L395.78 82.4515C396.717 83.0057 397.728 83.4256 398.781 83.6988L399.236 85.9441H404.211L404.666 83.6988C405.72 83.4256 406.73 83.0057 407.667 82.4515L409.575 83.7209L411.336 81.9599L413.097 80.2062L411.828 78.2984C412.379 77.3585 412.797 76.3459 413.068 75.2901L415.313 74.8425V69.8383L413.038 69.3907ZM401.694 81.05C399.968 81.0515 398.281 80.5408 396.845 79.5828C395.409 78.6247 394.29 77.2622 393.628 75.6678C392.967 74.0733 392.794 72.3185 393.13 70.6255C393.467 68.9325 394.298 67.3773 395.518 66.1567C396.739 64.9362 398.294 64.1051 399.987 63.7687C401.68 63.4323 403.435 63.6057 405.029 64.2669C406.624 64.9282 407.986 66.0475 408.944 67.4834C409.902 68.9192 410.413 70.6069 410.411 72.3331C410.411 74.6449 409.493 76.8621 407.858 78.4969C406.224 80.1316 404.006 81.05 401.694 81.05Z" fill="#3B4045"/>
<path d="M255.326 242.306H282.027V161.205H255.326V242.306Z" fill="#8F8F8F"/>
<path d="M165.126 200.277L372.235 200.277C378.71 200.277 383.96 195.027 383.96 188.552V49.352C383.96 42.8763 378.71 37.6267 372.235 37.6267L165.126 37.6267C158.651 37.6267 153.401 42.8763 153.401 49.352L153.401 188.552C153.401 195.027 158.651 200.277 165.126 200.277Z" fill="#E8E8E8"/>
<path d="M162.426 174.787L374.928 174.787V20.3175L162.426 20.3175L162.426 174.787Z" fill="white"/>
<path d="M162.426 38.9695L374.928 38.9695V20.3102L162.426 20.3102V38.9695Z" fill="url(#paint0_linear_265_4)"/>
<path d="M261.24 186.453C261.236 187.926 261.669 189.366 262.483 190.593C263.298 191.819 264.459 192.776 265.818 193.343C267.177 193.909 268.674 194.06 270.118 193.775C271.563 193.491 272.891 192.784 273.934 191.744C274.976 190.704 275.687 189.379 275.976 187.935C276.265 186.491 276.119 184.994 275.556 183.633C274.994 182.272 274.04 181.109 272.816 180.29C271.592 179.472 270.153 179.035 268.68 179.035C266.711 179.035 264.822 179.816 263.427 181.206C262.033 182.597 261.246 184.484 261.24 186.453Z" fill="#8F8F8F"/>
<path d="M234.157 57.7755L297.619 57.7755C299.046 57.7755 300.202 56.6191 300.202 55.1927V54.8331C300.202 53.4067 299.046 52.2503 297.619 52.2503L234.157 52.2503C232.731 52.2503 231.575 53.4067 231.575 54.8331V55.1927C231.575 56.6191 232.731 57.7755 234.157 57.7755Z" fill="#DFE1E8"/>
<path d="M234.157 67.7398L297.619 67.7398C299.046 67.7398 300.202 66.5834 300.202 65.157V64.7975C300.202 63.371 299.046 62.2147 297.619 62.2147L234.157 62.2147C232.731 62.2147 231.575 63.371 231.575 64.7975V65.157C231.575 66.5834 232.731 67.7398 234.157 67.7398Z" fill="#DFE1E8"/>
<path d="M234.157 77.7115L297.619 77.7115C299.046 77.7115 300.202 76.5551 300.202 75.1287V74.7691C300.202 73.3427 299.046 72.1863 297.619 72.1863L234.157 72.1863C232.731 72.1863 231.575 73.3427 231.575 74.7691V75.1287C231.575 76.5551 232.731 77.7115 234.157 77.7115Z" fill="#DFE1E8"/>
<path d="M263.97 163.92H184.314C181.122 163.916 178.062 162.647 175.804 160.392C173.546 158.136 172.273 155.078 172.266 151.886V103.459C172.27 100.265 173.54 97.2023 175.799 94.9437C178.057 92.6851 181.12 91.4145 184.314 91.4106H263.97C267.164 91.4145 270.226 92.6851 272.485 94.9437C274.743 97.2023 276.014 100.265 276.018 103.459V151.886C276.01 155.078 274.738 158.136 272.48 160.392C270.221 162.647 267.161 163.916 263.97 163.92ZM184.314 92.8854C182.927 92.8864 181.555 93.1608 180.274 93.6929C178.994 94.2251 177.831 95.0045 176.852 95.9866C175.874 96.9687 175.098 98.1342 174.571 99.4164C174.043 100.699 173.773 102.072 173.777 103.459V151.886C173.779 154.68 174.89 157.359 176.865 159.335C178.841 161.31 181.52 162.421 184.314 162.423H263.97C266.764 162.421 269.443 161.31 271.418 159.335C273.394 157.359 274.504 154.68 274.506 151.886V103.459C274.504 100.665 273.394 97.9859 271.418 96.0104C269.443 94.0348 266.764 92.924 263.97 92.9221L184.314 92.8854Z" fill="#DFE1E8"/>
<path d="M190.609 109.63L257.667 109.63C260.605 109.63 262.986 107.248 262.986 104.31V103.297C262.986 100.359 260.605 97.9776 257.667 97.9776L190.609 97.9776C187.671 97.9776 185.29 100.359 185.29 103.297V104.31C185.29 107.248 187.671 109.63 190.609 109.63Z" fill="#DFE1E8"/>
<path d="M328.745 239.247H208.623V245.366H328.745V239.247Z" fill="#CCCCCC"/>
<path d="M351.029 107.296C351.033 110.928 349.891 114.469 347.766 117.415C345.641 120.36 342.642 122.561 339.194 123.703L338.879 123.806C335.4 124.889 331.668 124.847 328.215 123.684C324.763 122.521 321.765 120.297 319.651 117.33C317.536 114.363 316.413 110.804 316.441 107.161C316.469 103.518 317.647 99.9765 319.806 97.0423C321.966 94.108 324.997 91.9307 328.467 90.821C331.938 89.7113 335.67 89.7258 339.131 90.8626C342.593 91.9994 345.607 94.2003 347.743 97.1514C349.88 100.102 351.03 103.653 351.029 107.296Z" fill="#EEF0F7"/>
<path d="M329.611 105.469C329.611 105.469 328.43 97.8236 334.747 97.9703C341.065 98.1171 340.984 101.889 340.874 105.638C340.764 109.387 338.335 109.101 341.072 114.318C343.809 119.535 338.702 119.535 338.702 119.535L334.747 114.098L329.611 105.469Z" fill="#3C4145"/>
<path d="M334.065 98.704C334.065 98.704 329.78 99.3791 329.611 105.469C329.442 111.559 330.77 112.851 334.52 111.589C338.269 110.327 339.45 103.943 339.538 102.96C339.626 101.977 339.847 97.9703 334.065 98.704Z" fill="#EEA886"/>
<path d="M341.63 119.88C341.644 120.681 341.425 121.469 340.998 122.148C340.572 122.827 339.958 123.367 339.231 123.703L338.915 123.806C334.67 125.123 330.08 124.758 326.096 122.786C325.568 121.744 326.324 120.269 327.857 118.002C328.914 116.446 329.949 114.854 331.71 114.083C334.322 113.665 337.081 113.643 339.047 114.744C340.537 115.617 341.564 117.209 341.63 119.88Z" fill="#E55353"/>
<path d="M328.664 117.914L326.69 121.017C326.844 120.408 326.964 119.791 327.05 119.168C327.094 118.912 327.138 118.618 327.189 118.295C327.202 118.198 327.221 118.103 327.248 118.009C328.092 116.065 330.726 114.619 330.821 114.568L328.664 117.914Z" fill="#E55353"/>
<path d="M342.473 122.221C341.434 122.822 340.335 123.314 339.194 123.688L338.878 123.791C338.438 122.661 338.064 121.685 337.983 121.436C337.983 121.362 337.902 121.223 337.821 121.039C337.195 119.687 336.803 118.238 336.662 116.754C336.662 115.786 336.978 114.993 337.953 114.766C338.292 114.682 338.644 114.669 338.988 114.729C339.477 114.869 339.923 115.129 340.285 115.486C340.648 115.842 340.916 116.283 341.065 116.769C341.061 116.783 341.061 116.798 341.065 116.813C341.242 117.258 341.372 117.72 341.453 118.192L341.498 118.383C341.564 118.625 341.681 119.117 341.828 119.689C341.974 120.262 342.239 121.267 342.473 122.221Z" fill="#EEA886"/>
<path d="M336.927 108.844C336.56 109.542 336.193 113.9 336.193 113.9C336.193 113.9 330.954 115.881 331.49 114.758C331.717 114.208 331.824 113.615 331.805 113.019C331.809 112.667 331.792 112.314 331.754 111.963C331.754 111.845 331.754 111.779 331.754 111.779C331.754 111.779 337.301 108.14 336.927 108.844Z" fill="#EEA886"/>
<path d="M332.319 103.07C332.319 103.07 334.52 106.651 336.516 108.059C338.512 109.468 337.506 110.598 337.506 110.598C337.506 110.598 342.731 99.5919 337.763 98.8581C332.796 98.1244 329.751 98.0363 329.611 105.462C329.611 105.469 331.864 103.011 332.319 103.07Z" fill="#3C4145"/>
<path d="M334.711 111.53C333.904 112.719 331.776 113.034 331.776 113.034C331.78 112.681 331.762 112.328 331.725 111.978C332.742 112.087 333.77 111.933 334.711 111.53Z" fill="#A77860"/>
<path d="M327.256 117.987C327.136 118.37 327.067 118.767 327.051 119.168L327.821 118.002C327.821 118.002 329.201 116.028 329.678 115.514C330.027 115.153 330.413 114.828 330.83 114.546C330.83 114.546 328.085 115.852 327.256 117.987Z" fill="#BD4444"/>
<path d="M337.69 120.929C339.105 120.354 340.562 119.888 342.048 119.535C342.048 119.535 341.373 114.135 338.064 114.707C334.755 115.279 337.69 120.929 337.69 120.929Z" fill="#E55353"/>
<path d="M331.673 114.083C331.673 114.083 329.208 117.884 330.044 118.214C330.881 118.545 335.401 117.767 337.33 114.164C336.449 113.745 335.487 113.521 334.511 113.507C333.534 113.493 332.567 113.69 331.673 114.083Z" fill="#EEA886"/>
<path d="M149.768 197.549L122.825 197.752L122.844 200.217L149.786 200.015L149.768 197.549Z" fill="#323657"/>
<path d="M155.319 173.501L147.441 199.267L149.799 199.988L157.677 174.222L155.319 173.501Z" fill="#323657"/>
<path d="M198.218 203.227H196.112V268.002H198.218V203.227Z" fill="#706865"/>
<path d="M117.227 203.227H209.636V199.543H117.227V203.227Z" fill="#B59074"/>
<path d="M129.055 268.002H131.161V203.227H129.055V268.002Z" fill="#706865"/>
<path d="M89.3444 225.467H86.8203V257.37H89.3444V225.467Z" fill="#918783"/>
<path d="M119.81 253.606C119.852 254.638 120.012 255.663 120.287 256.658C120.625 257.869 121.3 262.528 122.158 263.181C123.017 263.834 125.827 265.559 125.387 267.334C124.947 269.11 124.653 270.35 121.637 269.301C118.622 268.252 116.64 267.65 116.061 265.016C115.613 263.229 114.869 261.53 113.86 259.99L111.658 265.383L110.514 264.92C110.514 264.92 112.245 259.102 112.099 258.581C111.952 258.06 112.891 253.445 116.501 252.293C120.111 251.141 119.81 253.606 119.81 253.606Z" fill="#1D3B54"/>
<path d="M139.849 255.345C140.275 256.285 140.806 257.174 141.433 257.994C142.167 258.992 144.559 263.064 145.601 263.35C146.643 263.636 149.864 264.201 150.143 265.999C150.422 267.797 150.569 269.081 147.399 269.22C144.229 269.36 142.145 269.55 140.626 267.327C139.543 265.836 138.216 264.539 136.701 263.49V269.286H135.446C135.446 269.286 134.874 263.247 134.544 262.822C134.213 262.396 133.362 257.752 136.297 255.338C139.232 252.924 139.849 255.345 139.849 255.345Z" fill="#1D3B54"/>
<path d="M107.563 176.401C107.563 176.401 108.297 173.906 108.341 173.576C108.735 172.918 109.268 172.354 109.904 171.925C110.619 171.361 111.452 170.965 112.34 170.766C112.474 170.777 112.604 170.819 112.719 170.888C112.835 170.956 112.933 171.05 113.008 171.162C113.19 171.413 113.306 171.705 113.345 172.013C113.509 172.1 113.648 172.227 113.749 172.383C113.851 172.538 113.911 172.716 113.925 172.901C114.084 173.002 114.209 173.148 114.284 173.321C114.36 173.493 114.383 173.684 114.351 173.869C114.486 173.949 114.595 174.066 114.664 174.207C114.733 174.348 114.76 174.506 114.74 174.662C114.431 174.957 114.149 175.279 113.896 175.623C112.931 176.622 111.832 177.481 110.631 178.177C110.631 178.177 108.576 179.695 107.563 176.401Z" fill="#EEA886"/>
<path d="M110.638 174.42C110.777 174.872 110.856 175.341 110.872 175.814C110.806 176.151 113.279 176.203 113.279 176.203C113.279 176.203 111.922 174.09 110.638 174.42Z" fill="#CF8C6C"/>
<path d="M82.8439 180.701C83.8418 179.086 85.1699 178.36 89.3963 181.28C93.6227 184.201 92.6248 183.628 93.6373 184.56C94.6499 185.492 99.0817 187.796 99.0817 187.796C100.463 186.424 101.74 184.953 102.905 183.393C104.306 181.332 107.226 175.828 107.226 175.828L111.321 178.874C111.321 178.874 103.367 193.306 101.694 194.37C100.021 195.434 95.0241 193.637 92.4193 192.558C89.8145 191.479 87.0556 190.034 85.8596 189.74C84.6636 189.447 80.2464 184.905 82.8439 180.701Z" fill="#1D3B54"/>
<path d="M112.84 163.929L110.857 172.967L111.624 173.135L113.606 164.097L112.84 163.929Z" fill="#EB4747"/>
<path d="M112.113 170.964C112.113 170.964 110.051 172.725 110.293 173.099C110.349 173.2 110.429 173.285 110.527 173.347C110.624 173.408 110.736 173.444 110.851 173.451L110.33 174.566C110.33 174.566 110.403 175.491 111.394 175.146C111.394 175.146 111.394 176.019 112.289 175.564C112.289 175.564 112.531 176.151 113.023 176.019C113.65 175.629 114.226 175.163 114.74 174.632C114.74 174.632 114.894 174.258 114.351 173.84C114.384 173.655 114.362 173.463 114.286 173.291C114.21 173.118 114.085 172.972 113.925 172.871C113.917 172.685 113.859 172.504 113.757 172.348C113.655 172.192 113.513 172.066 113.346 171.984C113.346 171.984 113.346 170.802 112.34 170.736C112.258 170.806 112.182 170.882 112.113 170.964Z" fill="#DB9C7C"/>
<path d="M108.371 173.605C109.092 172.943 109.915 172.401 110.807 171.998C111.042 171.925 111.291 171.888 111.453 172.079C111.614 172.27 111.548 172.754 110.976 173.326C110.555 173.799 110.202 174.327 109.927 174.897C109.927 174.897 109.171 175.315 108.371 173.605Z" fill="#EEA886"/>
<path d="M102.53 189.462C102.53 189.462 103.359 186.453 102.383 184.12C102.583 185.534 102.345 186.976 101.701 188.251C100.96 189.491 102.53 189.462 102.53 189.462Z" fill="#152C3D"/>
<path d="M117.616 189.931C117.616 189.931 119.818 173.414 123.736 166.209H118.02C118.02 166.209 111.614 177.494 112.818 188.882L117.616 189.931Z" fill="#EDDAD3"/>
<path d="M118.988 177.567C118.988 177.567 119.634 176.349 119.795 175.953C119.957 175.557 120.595 176.247 120.529 176.753C120.463 177.259 118.988 177.567 118.988 177.567Z" fill="#EEA886"/>
<path d="M124.051 180.326C123.972 180.619 123.845 180.896 123.677 181.148C123.677 181.148 123.28 181.522 123.009 181.809C122.928 181.904 122.855 181.985 122.818 182.036C122.539 182.515 122.185 182.947 121.769 183.313C121.196 183.775 119.017 185.191 119.017 185.191L117.484 183.548L116.251 182.271C116.251 182.271 117.293 178.36 117.77 177.868C117.815 177.82 117.864 177.776 117.917 177.736C118.292 177.483 118.693 177.269 119.113 177.098C119.208 177.039 120.199 176.489 120.514 176.606C120.692 176.663 120.853 176.765 120.981 176.901C121.109 177.037 121.201 177.203 121.248 177.384C121.7 177.58 122.088 177.898 122.37 178.301C122.601 178.399 122.806 178.549 122.97 178.738C123.134 178.928 123.253 179.152 123.317 179.395C123.317 179.395 124.073 179.813 124.051 180.326Z" fill="#EEA886"/>
<path d="M134.169 222.979C134.169 222.979 130.398 231.476 127.698 237.537C127.25 238.557 126.825 239.511 126.458 240.34L125.416 242.673C123.706 246.54 119.48 254.949 119.48 254.949C119.48 254.949 116.303 255.073 116.119 252.381C116.119 252.381 119.164 246.511 119.164 242.431C119.164 238.351 119.722 226.23 123.64 223.618C128.424 220.433 131.528 219.824 134.169 222.979Z" fill="#EEA886"/>
<path d="M99.2501 206.829C99.6685 207.25 100.168 207.582 100.718 207.805C101.393 207.989 112.663 208.847 117.873 210.564C123.082 212.281 130.009 213.382 131.293 214.857C132.577 216.332 134.727 224.395 134.661 225.944C134.595 227.492 139.239 253.298 139.797 255.294C140.105 256.365 135.6 255.954 135.6 255.954C135.6 255.954 129.202 240.699 127.837 237.882C125.328 232.701 125.203 226.362 124.286 225.408C123.368 224.454 113.133 222.224 107.248 222.224C101.363 222.224 88.1705 222.715 86.7837 221.915C85.3969 221.116 76.5479 215.312 80.224 207.519C83.9001 199.727 99.2501 206.829 99.2501 206.829Z" fill="#EEA886"/>
<path d="M124.697 212.399L115.364 230.397C115.364 230.397 112.553 223.735 107.652 222.583C102.751 221.431 83.1741 222.055 83.1741 222.055C83.1741 222.055 74.193 210.652 81.8827 204.716C89.5724 198.78 98.5535 205.655 98.5535 205.655C98.5535 205.655 100.41 207.666 101.305 207.71C107.835 208.011 114.791 209.229 124.697 212.399Z" fill="#1D3B54"/>
<path d="M145.58 263.313C145.58 263.313 142.74 264.047 141.647 263.313C140.553 262.58 136.855 256.343 135.63 255.976C135.63 255.976 136.819 253.562 139.827 255.316C139.849 255.345 144.772 262.272 145.58 263.313Z" fill="#EEA886"/>
<path d="M122.158 263.181C122.158 263.181 119.223 262.778 118.489 261.714C117.755 260.65 116.647 253.459 115.649 252.659C115.649 252.659 117.645 250.862 119.788 253.606C119.81 253.606 121.798 261.949 122.158 263.181Z" fill="#EEA886"/>
<path d="M92.5144 150.419C94.4892 150.309 96.4288 150.974 97.92 152.274C99.4113 153.573 100.336 155.403 100.498 157.375C100.381 158.341 100.193 159.298 99.9326 160.236C99.5437 161.491 100.666 165.204 100.373 165.373C99.8836 165.56 99.3774 165.7 98.8613 165.791C98.8613 165.791 97.5552 169.841 96.1318 169.804C94.7083 169.768 89.3226 168.689 86.7838 163.626C84.245 158.563 83.4672 150.866 92.5144 150.419Z" fill="#EEA886"/>
<path d="M94.2099 167.985C94.2099 167.985 94.0338 168.557 93.8357 169.401C93.733 169.826 93.6302 170.333 93.5348 170.868C93.2158 172.301 93.2158 173.787 93.5348 175.219C93.5348 175.219 90.3944 176.313 87.907 171.866C87.907 171.866 88.9709 167.075 87.5841 164.169C86.1973 161.264 94.2099 167.985 94.2099 167.985Z" fill="#EEA886"/>
<path d="M100.498 157.389C100.498 157.389 97.0568 160.478 93.4248 160.229C89.7927 159.979 87.3273 164.631 87.3273 164.631C87.3273 164.631 81.8315 157.727 86.2634 152.158C90.6952 146.589 101.283 150.463 100.498 157.389Z" fill="#1D3B54"/>
<path d="M91.7443 160.207C91.7586 159.976 91.7 159.745 91.5766 159.549C91.4532 159.353 91.2714 159.2 91.0566 159.113C90.8419 159.025 90.6051 159.007 90.3797 159.061C90.1542 159.115 89.9514 159.239 89.7999 159.415C88.6552 160.368 90.1961 163.692 91.1353 163.362C92.0745 163.032 91.7663 160.926 91.7443 160.207Z" fill="#EEA886"/>
<path d="M93.8352 169.401C93.7324 169.826 93.6297 170.333 93.5343 170.868C91.8151 169.796 90.3201 168.401 89.1318 166.759C90.5559 167.874 92.142 168.765 93.8352 169.401Z" fill="#A77860"/>
<path d="M102.369 186.372C101.701 189.447 99.9625 189.601 100.065 191.868C100.168 194.136 100.85 194.334 99.6763 197.907C99.4582 198.601 99.2793 199.306 99.1407 200.02L99.0967 200.284C99.016 200.695 98.9499 201.114 98.8986 201.524C98.7885 202.258 98.7151 202.992 98.6638 203.726C98.6355 204.878 99.0505 205.997 99.8231 206.851C99.8231 206.851 88.3546 213.712 80.4814 212.787C80.4814 212.787 82.5213 204.217 83.6439 201.275C84.7665 198.333 84.429 184.729 83.5999 181.809C82.3819 177.501 84.8179 171.044 88.1418 170.201L93.278 172.593C93.278 172.593 98.4803 178.8 99.647 179.739C100.814 180.679 103.037 183.276 102.369 186.372Z" fill="#1D3B54"/>
<path d="M85.3016 173.818C86.7691 172.6 88.8676 170.523 91.9494 174.632C95.0311 178.741 97.2617 181.39 97.9294 182.594C98.5971 183.797 104.379 192.132 104.379 192.132C104.379 192.132 107.446 189.278 109.207 187.943C111.188 186.431 116.581 180.811 116.581 180.811L120.155 184.766C120.155 184.766 107.776 198.501 105.861 198.978C103.946 199.455 98.5898 194.642 96.4619 192.771C94.3341 190.9 88.3907 184.098 87.3488 183.437C86.3068 182.777 81.5008 176.98 85.3016 173.818Z" fill="#1D3B54"/>
<path d="M127.698 237.537C127.25 238.557 126.825 239.511 126.458 240.34C125.064 235.871 125.181 228.409 125.181 228.409C125.68 231.535 126.525 234.597 127.698 237.537Z" fill="#A77860"/>
<path d="M107.652 222.018H67.8975V226.391H107.652V222.018Z" fill="#FFC05C"/>
<path d="M88.582 208.062C88.582 208.062 87.5841 212.112 92.3021 213.037C97.0201 213.961 102.824 215.135 102.824 222.414H86.4541L88.582 208.062Z" fill="#B5DEFF"/>
<path d="M112.847 163.942L113.522 162.694L113.61 164.111L112.847 163.942Z" fill="#EEA886"/>
<path d="M67.8972 226.391L54 167.985C54 167.985 79.1236 164.059 82.1173 175.322C85.111 186.585 90.0345 220.081 96.0585 222.194C102.083 224.307 67.8972 226.391 67.8972 226.391Z" fill="#FFC05C"/>
<path d="M100.226 195.97C100.226 195.97 99.9696 197.041 99.6981 197.929L93.5713 190.041L100.226 195.97Z" fill="#152C3D"/>
<path d="M84.8906 159.642C84.8906 159.642 87.3047 166.026 86.6516 167.765C87.7318 167.274 88.6197 166.441 89.177 165.394C89.7344 164.347 89.93 163.145 89.7334 161.975C89.0437 157.793 84.8906 159.642 84.8906 159.642Z" fill="#1D3B54"/>
<path d="M93.6078 172.916V171.646L88.2441 169.034L86.3877 171.177L93.6078 172.916Z" fill="#1D3B54"/>
<path d="M112.619 265.617C112.62 266.03 112.499 266.434 112.271 266.777C112.043 267.121 111.718 267.389 111.338 267.548C110.957 267.707 110.538 267.749 110.133 267.67C109.728 267.59 109.356 267.392 109.064 267.101C108.772 266.81 108.573 266.438 108.492 266.034C108.411 265.63 108.452 265.21 108.609 264.829C108.767 264.448 109.034 264.122 109.377 263.893C109.719 263.663 110.123 263.541 110.535 263.541C111.086 263.541 111.615 263.76 112.006 264.149C112.397 264.538 112.617 265.066 112.619 265.617Z" fill="#BFB2AC"/>
<path d="M65.8203 263.548L66.3413 265.03L88.5812 258.141L87.5173 255.14L65.8203 263.548Z" fill="#918783"/>
<path d="M110.535 263.548L110.014 265.03L87.7744 258.141L88.7503 254.956L110.535 263.548Z" fill="#918783"/>
<path d="M94.8698 264.869V266.593L87.7744 258.141L88.7503 254.956L94.8698 264.869Z" fill="#918783"/>
<path d="M95.0456 265.617C95.0456 266.028 94.9238 266.43 94.6956 266.771C94.4675 267.113 94.1432 267.379 93.7637 267.536C93.3843 267.693 92.9668 267.734 92.564 267.654C92.1612 267.574 91.7912 267.376 91.5008 267.086C91.2104 266.795 91.0126 266.425 90.9325 266.023C90.8524 265.62 90.8935 265.202 91.0506 264.823C91.2078 264.443 91.474 264.119 91.8154 263.891C92.1569 263.663 92.5584 263.541 92.9691 263.541C93.5198 263.541 94.048 263.76 94.4374 264.149C94.8268 264.539 95.0456 265.067 95.0456 265.617Z" fill="#BFB2AC"/>
<path d="M65.8207 267.687C66.9675 267.687 67.8972 266.757 67.8972 265.61C67.8972 264.463 66.9675 263.534 65.8207 263.534C64.6738 263.534 63.7441 264.463 63.7441 265.61C63.7441 266.757 64.6738 267.687 65.8207 267.687Z" fill="#BFB2AC"/>
<path d="M357.42 56.851C357.418 60.0795 356.722 63.2698 355.378 66.2057C354.035 69.1415 352.076 71.7542 349.635 73.8666C349.378 74.0941 349.114 74.3142 348.842 74.5196C348.571 74.7251 348.233 74.9892 347.918 75.2534C344.887 77.4025 341.37 78.7641 337.682 79.2156C337.022 79.2939 336.347 79.3453 335.657 79.3697H334.923C334.189 79.3697 333.456 79.3697 332.766 79.267C328.569 78.8593 324.57 77.2832 321.224 74.7178C320.426 74.1018 319.669 73.4352 318.957 72.722L318.546 72.2964C318.057 71.7632 317.567 71.2055 317.078 70.6234C314.892 67.7914 313.413 64.4787 312.763 60.9605C312.114 57.4422 312.313 53.8198 313.344 50.3938C314.375 46.9679 316.208 43.8372 318.691 41.2617C321.175 38.6861 324.236 36.74 327.622 35.5848C331.009 34.4296 334.621 34.0986 338.161 34.6194C341.701 35.1402 345.065 36.4976 347.975 38.5791C350.885 40.6606 353.256 43.406 354.892 46.5877C356.529 49.7693 357.383 53.2952 357.383 56.873L357.42 56.851Z" fill="#EEF0F7"/>
<path d="M349.577 69.2587L347.919 75.2167C344.888 77.3658 341.371 78.7275 337.683 79.179C337.023 79.2572 336.347 79.3086 335.658 79.3331H334.924C334.19 79.3331 333.457 79.3331 332.767 79.2303C328.57 78.8226 324.571 77.2465 321.225 74.6811C320.909 72.7146 320.565 70.5354 320.264 68.4956C321.922 67.8792 327.183 66.0962 330.536 64.9662L330.676 64.9222L330.888 64.8488L331.453 64.6581L331.967 64.482L333.302 64.0344H333.368H333.412L337.874 64.3719L338.607 64.4306H338.842H338.945C339.216 64.504 339.994 64.7094 341.036 65.0249C343.67 65.8614 347.963 67.4023 349.577 69.2587Z" fill="#D9C7C1"/>
<path d="M336.09 45.6759C336.09 45.6759 341.447 46.5784 340.544 54.9652C339.642 63.352 334.902 62.6109 334.586 62.5962C334.271 62.5815 329.832 62.6989 329.597 52.4484C329.597 52.4484 329.531 44.8688 336.09 45.6759Z" fill="#EEA987"/>
<path d="M338.438 60.1675C338.438 60.1675 338.255 63.6235 338.577 64.3719C338.9 65.1203 334.292 67.505 331.401 64.7901C331.401 64.7901 331.988 61.0187 331.805 59.6539C331.621 58.2891 338.438 60.1675 338.438 60.1675Z" fill="#EEA987"/>
<path d="M340.647 52.5952C340.647 52.5952 341.241 51.9715 341.454 52.5952C341.667 53.2189 340.5 56.0585 340.574 56.1906C340.574 56.1906 340.464 56.4327 340.324 56.3006C340.357 55.0601 340.465 53.8227 340.647 52.5952Z" fill="#EEA987"/>
<path d="M329.662 52.3677C329.662 52.3677 329.09 51.722 328.855 52.3677C328.62 53.0134 329.479 55.8163 329.589 55.9924C329.589 55.9924 329.779 56.2786 329.919 56.1539C329.911 54.8877 329.826 53.6233 329.662 52.3677Z" fill="#EEA987"/>
<path d="M340.991 51.8835C340.808 53.0281 340.632 53.8793 340.632 53.8793L339.854 54.8992C339.884 54.0302 339.859 53.1603 339.781 52.2944C339.737 52.1623 339.685 51.9275 339.626 51.6707C339.538 51.2451 339.443 50.7608 339.384 50.6067C339.326 50.4527 334.791 49.0365 330.792 50.8782C330.806 51.1226 330.806 51.3676 330.792 51.612C330.792 52.0596 330.748 52.5659 330.535 52.6392C330.154 52.7786 330.315 55.2734 330.315 55.2734L329.691 54.5396C329.691 54.5396 329.508 53.2409 329.332 51.7441C329.332 51.3919 329.251 51.0103 329.215 50.6801C329.119 49.2126 329.273 46.439 331.232 44.8101C332.56 44.2451 334.674 43.7609 338.196 44.8101C338.557 44.8216 338.91 44.9144 339.23 45.0816C341.453 47.547 340.991 51.8835 340.991 51.8835Z" fill="#E8734D"/>
<path d="M332.172 61.4809C332.526 61.8796 332.969 62.19 333.464 62.3874C333.96 62.5849 334.495 62.6639 335.026 62.6182C335.55 62.6406 336.073 62.5565 336.564 62.3711C337.054 62.1858 337.502 61.9029 337.88 61.5396C337.88 61.5396 336.934 63.5061 335.019 63.484C333.104 63.462 332.172 61.4809 332.172 61.4809Z" fill="#C78D71"/>
<path d="M330.858 64.8635C331.31 65.5976 331.917 66.2234 332.637 66.6964C333.358 67.1694 334.173 67.4781 335.026 67.6004C336.75 67.7471 338.247 65.5606 338.952 64.482C337.645 64.0039 336.256 63.7914 334.867 63.8569C333.477 63.9225 332.114 64.2647 330.858 64.8635Z" fill="#EEA987"/>
<path d="M338.445 63.6895C337.46 64.8378 336.305 65.8277 335.019 66.6245L336.486 68.8624L338.959 64.4599L338.445 63.6895Z" fill="#EDDAD3"/>
<path d="M331.512 64.027C332.473 65.1559 333.673 66.0559 335.027 66.6612L333.427 68.9725L330.624 64.9369L331.512 64.027Z" fill="#EDDAD3"/>
<path d="M335.026 66.6612L336.266 68.5543C335.877 68.7622 335.442 68.8673 335.002 68.8596C334.561 68.8519 334.13 68.7316 333.749 68.5102L335.026 66.6612Z" fill="#5073AB"/>
<path d="M351.015 68.9065L350.978 69.0312C350.839 69.5228 350.318 71.3865 349.635 73.8666C349.379 74.0941 349.114 74.3142 348.843 74.5196C348.571 74.7251 348.234 74.9892 347.918 75.2534C344.888 77.4025 341.37 78.7641 337.683 79.2156C338.02 71.4232 338.945 64.5406 338.945 64.5406C339.678 64.7314 340.361 64.9222 341.021 65.113C346.73 66.7492 349.628 68.1874 350.611 68.7377L351.015 68.9065Z" fill="#323657"/>
<path d="M330.426 78.8928C327.078 78.2154 323.93 76.7796 321.224 74.6957C320.427 74.0798 319.669 73.4132 318.957 72.6999L318.546 72.2744C318.15 70.6014 317.893 69.5081 317.871 69.4421C317.871 69.4421 320.659 67.6151 330.506 64.9882C330.506 65.2084 330.514 71.5259 330.426 78.8928Z" fill="#323657"/>
<path d="M335.76 68.7597C335.665 70.8142 335.658 74.7911 335.687 79.3331H334.953C334.219 79.3331 333.486 79.3331 332.796 79.2303C333.018 75.703 333.508 72.1977 334.263 68.745C334.373 68.2901 334.44 68.0627 334.44 68.0627L335.76 68.2828C335.76 68.4344 335.76 68.5934 335.76 68.7597Z" fill="#5073AB"/>
<path d="M352.145 71.3205C351.378 72.2352 350.539 73.0867 349.635 73.8666C349.378 74.0941 349.114 74.3142 348.843 74.5197L350.611 68.6497C350.744 68.7454 350.86 68.8618 350.956 68.9945C351.444 69.7193 351.843 70.5002 352.145 71.3205Z" fill="#323657"/>
<path d="M318.957 72.6999L318.547 72.2744C318.057 71.7412 317.568 71.1835 317.079 70.6014C317.217 70.155 317.47 69.7528 317.813 69.4348L318.957 72.6999Z" fill="#323657"/>
<path d="M199.084 26.1215H173.836C172.438 26.1215 171.305 27.2549 171.305 28.6529V30.6414C171.305 32.0395 172.438 33.1728 173.836 33.1728H199.084C200.483 33.1728 201.616 32.0395 201.616 30.6414V28.6529C201.616 27.2549 200.483 26.1215 199.084 26.1215Z" fill="#F5F7FF"/>
<path d="M183.874 79.3404C186.05 80.0785 188.369 80.291 190.642 79.9605C192.916 79.63 195.079 78.7659 196.954 77.4389C198.829 76.1119 200.364 74.3597 201.432 72.3257C202.5 70.2917 203.071 68.0338 203.098 65.7366C203.098 65.4138 203.098 65.0836 203.098 64.7608C202.9 61.0641 201.3 57.582 198.624 55.0243C195.948 52.4666 192.397 51.0258 188.695 50.9956C185.232 50.9599 181.869 52.1602 179.211 54.3809C176.553 56.6016 174.774 59.6971 174.193 63.1116C173.613 66.5261 174.268 70.0357 176.043 73.0102C177.817 75.9847 180.594 78.2291 183.874 79.3404ZM177.63 65.3991C177.665 62.8455 178.594 60.3848 180.255 58.4452C181.916 56.5056 184.205 55.2097 186.723 54.7831C189.241 54.3564 191.829 54.826 194.037 56.11C196.244 57.3941 197.932 59.4114 198.806 61.8111C199.173 62.8155 199.388 63.869 199.444 64.9369C199.444 65.179 199.444 65.4211 199.444 65.6706C199.344 68.5219 198.131 71.2204 196.065 73.1887C194 75.157 191.246 76.2387 188.393 76.2022C185.541 76.1658 182.815 75.0141 180.801 72.9937C178.787 70.9733 177.643 68.2447 177.615 65.3918L177.63 65.3991Z" fill="#FFC355"/>
<path d="M197.14 72.2303L200.017 74.4316C198.166 76.8214 195.619 78.5773 192.727 79.4567C189.835 80.3361 186.742 80.2954 183.874 79.3404L185.048 75.8918C187.2 76.6167 189.525 76.6529 191.699 75.9954C193.872 75.3378 195.787 74.0193 197.177 72.223L197.14 72.2303Z" fill="#616467"/>
<path d="M199.407 64.9589L203.076 64.7608C203.076 65.0836 203.076 65.4138 203.076 65.7367C203.045 68.9023 201.975 71.9702 200.031 74.4683L197.154 72.267C198.609 70.3957 199.41 68.0994 199.436 65.7293C199.422 65.4432 199.422 65.201 199.407 64.9589Z" fill="#272829"/>
<path d="M199.407 64.9589C199.35 63.891 199.135 62.8376 198.769 61.8331L202.195 60.5857C202.681 61.9309 202.968 63.3399 203.046 64.7681L199.407 64.9589Z" fill="#616467"/>
<path d="M179.75 53.9233C181.569 52.5499 183.685 51.6225 185.928 51.2159C188.171 50.8093 190.477 50.9347 192.663 51.582C194.848 52.2294 196.851 53.3806 198.511 54.9431C200.17 56.5056 201.44 58.4358 202.217 60.5784L198.791 61.8331C198.206 60.2244 197.25 58.7759 196.002 57.6044C194.754 56.433 193.248 55.5714 191.605 55.0894C189.962 54.6073 188.23 54.5182 186.546 54.8293C184.863 55.1404 183.276 55.843 181.915 56.8803L179.75 53.9233Z" fill="#A7A7A7"/>
<path d="M287.384 92.1296H296.813C297.714 92.1296 298.578 92.4876 299.215 93.1247C299.852 93.7618 300.21 94.6259 300.21 95.5269V104.926C300.21 105.825 299.853 106.688 299.217 107.323C298.581 107.959 297.719 108.316 296.82 108.316H287.384C286.486 108.314 285.624 107.956 284.989 107.321C284.354 106.686 283.996 105.825 283.994 104.926V95.5196C283.994 94.6205 284.351 93.7583 284.987 93.1225C285.623 92.4868 286.485 92.1296 287.384 92.1296Z" fill="#3B4045"/>
<path d="M291.58 103.811L287.479 100.23C287.392 100.162 287.321 100.078 287.268 99.9814C287.216 99.885 287.183 99.7789 287.173 99.6696C287.163 99.5603 287.176 99.4501 287.209 99.3457C287.243 99.2413 287.298 99.1449 287.371 99.0625C287.443 98.98 287.532 98.9132 287.631 98.8661C287.73 98.819 287.838 98.7927 287.948 98.7887C288.057 98.7847 288.167 98.8031 288.269 98.8428C288.371 98.8825 288.464 98.9426 288.543 99.0196L291.478 101.544L295.616 96.9357C295.686 96.856 295.771 96.791 295.866 96.7445C295.962 96.698 296.065 96.6709 296.171 96.6647C296.277 96.6586 296.383 96.6735 296.483 96.7087C296.583 96.7439 296.675 96.7986 296.753 96.8697C296.912 97.0143 297.007 97.2156 297.018 97.4299C297.029 97.6443 296.955 97.8543 296.812 98.0143L291.58 103.811Z" fill="#F3F3F3"/>
<path d="M287.384 112.909H296.813C297.714 112.909 298.578 113.267 299.215 113.904C299.852 114.542 300.21 115.406 300.21 116.307V125.735C300.21 126.634 299.853 127.497 299.217 128.132C298.581 128.768 297.719 129.125 296.82 129.125H287.384C286.486 129.123 285.624 128.766 284.989 128.13C284.354 127.495 283.996 126.634 283.994 125.735V116.299C283.994 115.4 284.351 114.538 284.987 113.902C285.623 113.267 286.485 112.909 287.384 112.909Z" fill="#3B4045"/>
<path d="M291.581 124.591L287.479 121.017C287.32 120.874 287.223 120.674 287.21 120.46C287.196 120.246 287.266 120.035 287.406 119.873C287.547 119.712 287.746 119.615 287.959 119.601C288.172 119.587 288.382 119.659 288.543 119.799L291.478 122.323L295.616 117.715C295.686 117.636 295.771 117.571 295.867 117.524C295.962 117.478 296.065 117.451 296.171 117.445C296.277 117.438 296.383 117.453 296.483 117.489C296.583 117.524 296.675 117.578 296.754 117.649C296.912 117.794 297.007 117.995 297.018 118.21C297.029 118.424 296.955 118.634 296.812 118.794L291.581 124.591Z" fill="#F3F3F3"/>
<path d="M287.384 133.689H296.813C297.712 133.689 298.574 134.046 299.21 134.682C299.846 135.318 300.203 136.18 300.203 137.079V146.508C300.203 147.408 299.846 148.271 299.21 148.907C298.575 149.544 297.712 149.903 296.813 149.905H287.384C286.485 149.905 285.623 149.548 284.987 148.912C284.351 148.276 283.994 147.414 283.994 146.515V137.087C283.994 136.187 284.351 135.324 284.987 134.687C285.622 134.05 286.484 133.691 287.384 133.689Z" fill="#3B4045"/>
<path d="M217.362 67.0134H213.635V79.245H217.362V67.0134Z" fill="#616467"/>
<path d="M351.029 148.496C351.029 151.915 350.015 155.258 348.116 158.101C346.216 160.943 343.517 163.159 340.358 164.468C337.199 165.776 333.723 166.118 330.37 165.451C327.016 164.784 323.936 163.138 321.518 160.72C319.101 158.303 317.454 155.222 316.787 151.869C316.12 148.515 316.463 145.04 317.771 141.881C319.079 138.722 321.295 136.022 324.138 134.123C326.981 132.223 330.323 131.209 333.742 131.209C336.012 131.209 338.26 131.656 340.358 132.525C342.455 133.394 344.361 134.667 345.966 136.272C347.571 137.878 348.845 139.783 349.713 141.881C350.582 143.978 351.029 146.226 351.029 148.496Z" fill="#EEF0F7"/>
<path d="M211.25 70.44H207.522V79.2377H211.25V70.44Z" fill="#616467"/>
<path d="M223.481 61.3415H219.754V79.245H223.481V61.3415Z" fill="#616467"/>
<path d="M375.177 199.477H399.171V198.054H375.177V199.477Z" fill="#E2D2CA"/>
<path d="M395.956 203.183H393.851V267.958H395.956V203.183Z" fill="#706865"/>
<path d="M362.249 199.683H378.927V197.65H362.249V199.683Z" fill="#CCBDB7"/>
<path d="M367.429 199.477H373.746V180.297H367.429V199.477Z" fill="#4667A8"/>
<path d="M315.369 203.183H407.777V199.499H315.369V203.183Z" fill="#B59074"/>
<path d="M425.513 177.208C425.513 177.208 426.525 191.384 423.752 193.079C422.02 194.143 415.101 197.724 415.306 198.399C415.512 199.074 419.21 204.379 419.21 204.379C419.21 204.379 432.498 195.625 432.931 192.873C433.364 190.122 432.271 172.116 430.451 171.287C429.079 170.663 428.36 171.177 426.635 172.461C424.214 174.251 425.513 177.208 425.513 177.208Z" fill="#FFC05C"/>
<path d="M409.135 259.116C409.135 259.116 409.546 261.985 409.597 262.411C409.648 262.837 414.198 262.162 414.198 262.162L414.565 258.742C414.565 258.742 409.729 258.713 409.135 259.116Z" fill="#424773"/>
<path d="M409.582 262.051C408.771 263.019 407.816 263.855 406.75 264.532C405.356 265.265 403.17 265.581 402.348 266.359C401.761 266.924 400.183 269.345 405.972 269.294C411.762 269.242 414.543 269.631 415.159 268.707C415.775 267.782 414.264 261.846 414.264 261.846C414.264 261.846 412.892 262.345 409.582 262.051Z" fill="#292C47"/>
<path d="M380.049 259.146C380.049 259.146 380.46 262.007 380.511 262.44C380.562 262.873 385.112 262.184 385.112 262.184L385.479 258.772C385.479 258.772 380.614 258.735 380.049 259.146Z" fill="#424773"/>
<path d="M380.468 262.073C379.655 263.041 378.7 263.88 377.635 264.561C376.241 265.295 371.112 265.933 370.298 266.711C369.703 267.268 368.713 269.536 376.858 269.323C382.639 269.176 385.428 269.668 386.044 268.736C386.66 267.804 385.149 261.883 385.149 261.883C385.149 261.883 383.85 262.411 380.468 262.073Z" fill="#292C47"/>
<path d="M423.81 209.574C423.81 209.574 407.286 212.369 403.551 212.956C399.817 213.543 379.587 218.577 377.056 220.11C375.045 221.336 378.112 250.664 378.831 261.853H386.8L387.379 228.284C396.918 228.526 403.771 226.083 410.735 227.11C417.698 228.138 423.502 229.671 427.926 223.735C427.941 223.735 428.11 210.872 423.81 209.574Z" fill="#292C47"/>
<path d="M407.536 261.883L415.306 261.398L416.04 228.284C419.005 228.38 421.973 228.193 424.904 227.727L431.17 213.147C425.674 214.248 408.064 218.687 405.716 220.11C403.728 221.336 406.824 250.693 407.536 261.883Z" fill="#292C47"/>
<path d="M416.216 147.645C416.216 147.645 410.162 145.972 407.851 150.676C405.54 155.379 406.589 164.287 409.641 165.13C412.694 165.974 417.081 164.998 418.351 162.071C419.62 159.143 420.625 154.99 420.325 152.297C420.024 149.604 417.822 148.291 416.216 147.645Z" fill="#EEA886"/>
<path d="M411.219 164.191C411.219 164.191 411.285 167.765 410.896 168.528C410.507 169.291 419.327 169.1 419.327 169.1C419.327 169.1 417.94 164.808 418.725 161.146C419.511 157.485 411.219 164.191 411.219 164.191Z" fill="#EEA886"/>
<path d="M419.202 159.796C419.202 159.796 418.732 160.75 416.443 160.596C414.154 160.442 411.145 157.661 410.177 157.441C409.208 157.221 409.15 156.641 409.15 156.641L408.636 157.551L407.638 157.705C407.638 157.705 408.313 154.939 406.846 153.97C405.378 153.002 407.506 145.165 414.961 147.051C414.961 147.051 420.648 148.093 420.721 151.27C420.794 154.447 420.303 158.108 419.202 159.796Z" fill="#3A3F47"/>
<path d="M410.427 168.432C410.427 168.432 410.427 166.965 411.116 166.84C411.806 166.715 418.058 165.835 418.865 166.158L419.21 168.08C419.21 168.08 417.654 169.041 410.427 168.432Z" fill="#E2D2CA"/>
<path d="M408.614 155.988C408.782 154.792 410.14 153.427 410.918 155.254C411.695 157.081 410.389 159.825 409.516 159.657C408.643 159.488 408.401 157.609 408.614 155.988Z" fill="#EEA886"/>
<path d="M417.984 148.496C417.984 148.496 425.366 148.151 419.276 159.679L417.984 148.496Z" fill="#3A3F47"/>
<path d="M434.435 265.808L433.892 267.356L410.676 260.166L411.791 257.033L434.435 265.808Z" fill="#918783"/>
<path d="M409.876 259.065H412.518V233.831H409.876V259.065Z" fill="#918783"/>
<path d="M403.419 233.971H418.981V232.481H403.419V233.971Z" fill="#5E5854"/>
<path d="M387.761 265.808L388.311 267.356L411.52 260.166L410.5 256.835L387.761 265.808Z" fill="#918783"/>
<path d="M404.108 267.188V268.985L411.519 260.166L410.499 256.835L404.108 267.188Z" fill="#918783"/>
<path d="M385.589 267.958C385.582 268.395 385.705 268.824 385.942 269.191C386.18 269.558 386.521 269.846 386.922 270.018C387.324 270.19 387.768 270.239 388.197 270.158C388.626 270.077 389.022 269.871 389.333 269.564C389.645 269.258 389.858 268.866 389.946 268.438C390.034 268.01 389.993 267.566 389.827 267.161C389.662 266.757 389.38 266.411 389.017 266.167C388.654 265.924 388.227 265.794 387.79 265.794C387.213 265.793 386.658 266.02 386.247 266.425C385.835 266.83 385.599 267.381 385.589 267.958Z" fill="#BFB2AC"/>
<path d="M403.925 267.958C403.918 268.395 404.041 268.824 404.278 269.191C404.516 269.558 404.857 269.846 405.258 270.018C405.66 270.19 406.103 270.239 406.533 270.158C406.962 270.077 407.358 269.871 407.669 269.564C407.981 269.258 408.194 268.866 408.282 268.438C408.37 268.01 408.329 267.566 408.163 267.161C407.998 266.757 407.716 266.411 407.353 266.167C406.99 265.924 406.563 265.794 406.126 265.794C405.549 265.793 404.994 266.02 404.583 266.425C404.171 266.83 403.935 267.381 403.925 267.958Z" fill="#BFB2AC"/>
<path d="M432.27 267.958C432.263 268.395 432.385 268.824 432.623 269.191C432.86 269.558 433.201 269.846 433.603 270.018C434.004 270.19 434.448 270.239 434.878 270.158C435.307 270.077 435.703 269.871 436.014 269.564C436.326 269.258 436.539 268.866 436.627 268.438C436.715 268.01 436.673 267.566 436.508 267.161C436.343 266.757 436.06 266.411 435.698 266.167C435.335 265.924 434.908 265.794 434.471 265.794C433.894 265.793 433.339 266.02 432.927 266.425C432.516 266.83 432.279 267.381 432.27 267.958Z" fill="#BFB2AC"/>
<path d="M395.443 232.489H426.744C428.28 232.489 429.525 231.244 429.525 229.708V229.634C429.525 228.099 428.28 226.853 426.744 226.853H395.443C393.907 226.853 392.662 228.099 392.662 229.634V229.708C392.662 231.244 393.907 232.489 395.443 232.489Z" fill="#E2D2CA"/>
<path d="M327.197 267.958H329.296V203.183H327.197V267.958Z" fill="#706865"/>
<path d="M346.091 189.535H395.084C396.616 189.535 397.857 188.293 397.857 186.761V153.838C397.857 152.306 396.616 151.064 395.084 151.064H346.091C344.56 151.064 343.318 152.306 343.318 153.838V186.761C343.318 188.293 344.56 189.535 346.091 189.535Z" fill="#3B4045"/>
<path d="M345.46 183.504H395.722V153.141H345.46V183.504Z" fill="#F5F7FF"/>
<path d="M345.46 155.555H395.722V153.141H345.46V155.555Z" fill="#CECFD6"/>
<path d="M349.033 181.64H351.66C352.608 181.64 353.377 180.871 353.377 179.923V159.099C353.377 158.151 352.608 157.382 351.66 157.382H349.033C348.085 157.382 347.316 158.151 347.316 159.099V179.923C347.316 180.871 348.085 181.64 349.033 181.64Z" fill="#CECFD6"/>
<path d="M384.166 159.627H393.374C393.885 159.627 394.299 159.213 394.299 158.703V158.307C394.299 157.796 393.885 157.382 393.374 157.382H384.166C383.655 157.382 383.241 157.796 383.241 158.307V158.703C383.241 159.213 383.655 159.627 384.166 159.627Z" fill="#CECFD6"/>
<path d="M385.156 182.256H392.384C393.441 182.256 394.299 181.399 394.299 180.341V163.047C394.299 161.989 393.441 161.131 392.384 161.131H385.156C384.099 161.131 383.241 161.989 383.241 163.047V180.341C383.241 181.399 384.099 182.256 385.156 182.256Z" fill="#CECFD6"/>
<path d="M368.83 186.372C368.83 186.721 368.933 187.061 369.127 187.351C369.32 187.64 369.595 187.866 369.917 187.999C370.239 188.133 370.593 188.168 370.935 188.1C371.276 188.032 371.59 187.864 371.836 187.618C372.083 187.371 372.25 187.058 372.318 186.716C372.386 186.374 372.351 186.02 372.218 185.699C372.085 185.377 371.859 185.102 371.569 184.908C371.28 184.715 370.939 184.611 370.591 184.611C370.124 184.611 369.676 184.797 369.346 185.127C369.016 185.458 368.83 185.905 368.83 186.372Z" fill="#5C5552"/>
<path d="M359.299 199.58V198.846C359.299 198.846 360.267 194.583 367.069 194.583C373.871 194.583 373.739 199.529 373.739 199.529L359.299 199.58Z" fill="#2E436E"/>
<path d="M373.827 195.236C373.133 195.197 372.45 195.048 371.802 194.796C371.259 194.473 368.023 192.294 367.26 192.639C366.497 192.984 361.427 194.539 361.603 195.28C361.779 196.021 362.249 195.948 362.608 195.823C362.968 195.698 366.644 194.913 366.967 195.045C366.967 195.045 363.357 196.366 363.342 197.327C363.327 198.289 364.076 198.523 364.443 198.89C364.81 199.257 365.176 200.152 366.123 200.226C367.07 200.299 371.604 198.714 372.536 198.641C373.468 198.567 375.207 198.699 375.324 198.545C375.442 198.391 373.827 195.236 373.827 195.236Z" fill="#EEA886"/>
<path d="M400.748 170.457C405.466 169.628 410.427 168.432 410.427 168.432L419.232 168.08C419.232 168.08 427.303 169.848 430.473 171.287C430.773 171.419 430.773 178.477 431.595 180.326L428.946 185.881C428.946 185.881 427.42 196.887 427.105 201.767C426.965 204.012 427.516 223.471 427.516 223.471C427.516 223.471 426.73 223.86 420.736 224.52C414.741 225.181 399.765 224.278 399.67 223.574C399.574 222.869 402.568 197.21 402.7 195.882C402.906 193.842 402.113 184.421 402.113 184.421C400.983 185.94 398.107 192.793 395.106 196.051C393.337 197.966 384.599 199.147 382.948 199.198C379.367 199.316 372.822 200.035 372.631 199.683C372.477 199.477 372.059 193.879 372.47 193.739C372.881 193.6 384.98 192.918 388.091 191.267C389.228 190.665 392.633 183.239 392.633 183.239C392.633 183.239 398.129 171.624 400.748 170.457Z" fill="#FFC05C"/>
<path d="M418.057 222.906H432.798C435.748 222.906 438.14 220.514 438.14 217.564V193.035C438.14 190.085 435.748 187.693 432.798 187.693H418.057C415.107 187.693 412.715 190.085 412.715 193.035V217.564C412.715 220.514 415.107 222.906 418.057 222.906Z" fill="#E2D2CA"/>
<path d="M417.206 231.087C418.894 231.155 420.577 230.856 422.137 230.21C423.698 229.563 425.1 228.586 426.246 227.345C431.331 221.732 430.414 211.87 430.37 211.452C430.333 211.079 430.149 210.737 429.86 210.499C429.57 210.262 429.198 210.149 428.825 210.186C428.452 210.223 428.11 210.407 427.872 210.696C427.635 210.986 427.522 211.358 427.559 211.731C427.559 211.841 428.381 220.785 424.14 225.452C422.43 227.338 420.163 228.255 417.206 228.255C416.831 228.255 416.47 228.404 416.205 228.67C415.939 228.935 415.79 229.296 415.79 229.671C415.79 230.047 415.939 230.407 416.205 230.672C416.47 230.938 416.831 231.087 417.206 231.087Z" fill="#E2D2CA"/>
<path d="M371.318 165.549C371.322 167.22 370.735 168.84 369.659 170.12C369.412 170.407 369.144 170.677 368.86 170.927L368.618 171.132L368.324 171.353C367.367 172.027 366.258 172.456 365.096 172.6C364.883 172.6 364.67 172.644 364.457 172.651H364.222C363.995 172.651 363.767 172.651 363.54 172.651C363.313 172.651 363.041 172.585 362.806 172.541C361.739 172.33 360.735 171.876 359.871 171.213C359.611 171.021 359.366 170.81 359.137 170.582L359.013 170.45C358.851 170.283 358.699 170.106 358.558 169.922C357.87 169.029 357.404 167.984 357.2 166.875C356.996 165.766 357.059 164.625 357.385 163.545C357.71 162.465 358.288 161.479 359.07 160.667C359.853 159.855 360.818 159.241 361.885 158.877C362.952 158.512 364.09 158.407 365.206 158.571C366.322 158.734 367.382 159.161 368.3 159.816C369.218 160.471 369.967 161.335 370.484 162.337C371.001 163.34 371.272 164.45 371.274 165.578L371.318 165.549Z" fill="#EEF0F7"/>
<path d="M368.845 169.496L368.324 171.382C367.367 172.057 366.258 172.485 365.095 172.629C364.883 172.629 364.67 172.673 364.457 172.681H364.222C363.995 172.681 363.767 172.681 363.54 172.681C363.312 172.681 363.041 172.615 362.806 172.571C361.739 172.359 360.734 171.905 359.871 171.243C359.768 170.626 359.658 169.936 359.57 169.291C360.091 169.1 361.772 168.557 362.799 168.175H362.909H362.975L363.151 168.117L363.32 168.065L363.738 167.919L365.154 168.029H365.389H365.492L366.152 168.212C367.134 168.435 368.053 168.874 368.845 169.496Z" fill="#D9C7C1"/>
<path d="M364.589 162.027C364.589 162.027 366.284 162.313 365.991 164.962C365.697 167.61 364.215 167.368 364.112 167.368C364.01 167.368 362.645 167.368 362.542 164.162C362.542 164.162 362.52 161.77 364.589 162.027Z" fill="#EEA987"/>
<path d="M365.33 166.598C365.297 167.041 365.311 167.486 365.374 167.926C365.477 168.161 364.017 168.917 363.114 168.058C363.203 167.527 363.245 166.989 363.239 166.451C363.18 166.026 365.33 166.598 365.33 166.598Z" fill="#EEA987"/>
<path d="M366.028 164.213C366.028 164.213 366.218 164.015 366.284 164.213C366.35 164.411 365.984 165.307 366.006 165.351C366.028 165.395 365.969 165.424 365.925 165.351C365.937 164.97 365.971 164.59 366.028 164.213Z" fill="#EEA987"/>
<path d="M362.556 164.14C362.556 164.14 362.38 163.934 362.307 164.14C362.318 164.531 362.395 164.918 362.534 165.284C362.534 165.284 362.593 165.38 362.644 165.336C362.639 164.936 362.609 164.536 362.556 164.14Z" fill="#EEA987"/>
<path d="M366.137 163.986C366.079 164.345 366.02 164.617 366.02 164.617L365.778 164.94C365.795 164.666 365.795 164.392 365.778 164.118C365.778 164.074 365.778 164 365.727 163.92C365.675 163.839 365.668 163.634 365.653 163.582C364.77 163.263 363.799 163.295 362.938 163.67C362.943 163.746 362.943 163.822 362.938 163.898C362.938 164.044 362.938 164.199 362.858 164.228C362.777 164.257 362.784 165.057 362.784 165.057L362.586 164.83C362.586 164.83 362.527 164.419 362.476 163.949C362.476 163.839 362.476 163.729 362.476 163.612C362.433 163.277 362.467 162.937 362.577 162.617C362.686 162.298 362.868 162.008 363.107 161.77C363.815 161.495 364.6 161.495 365.308 161.77C365.308 161.77 365.565 161.77 365.631 161.858C366.052 162.483 366.232 163.239 366.137 163.986Z" fill="#E8734D"/>
<path d="M363.356 167.016C363.467 167.142 363.605 167.241 363.761 167.303C363.917 167.366 364.085 167.391 364.252 167.376C364.416 167.382 364.581 167.355 364.735 167.296C364.889 167.236 365.029 167.146 365.147 167.031C365.064 167.204 364.937 167.353 364.779 167.461C364.62 167.569 364.436 167.633 364.244 167.647C364.054 167.628 363.873 167.56 363.717 167.449C363.561 167.339 363.437 167.189 363.356 167.016Z" fill="#C78D71"/>
<path d="M362.908 168.08C363.05 168.312 363.241 168.511 363.468 168.66C363.695 168.81 363.952 168.908 364.222 168.946C364.765 168.99 365.242 168.3 365.462 167.963C365.049 167.813 364.611 167.746 364.173 167.766C363.735 167.786 363.305 167.893 362.908 168.08Z" fill="#EEA987"/>
<path d="M365.331 167.713C365.022 168.08 364.658 168.397 364.252 168.652L364.707 169.386L365.492 167.992L365.331 167.713Z" fill="#EDDAD3"/>
<path d="M363.143 167.816C363.447 168.173 363.825 168.458 364.251 168.652L363.752 169.386L362.908 168.102L363.143 167.816Z" fill="#EDDAD3"/>
<path d="M364.251 168.652L364.64 169.247C364.519 169.315 364.383 169.351 364.244 169.351C364.105 169.351 363.969 169.315 363.848 169.247L364.251 168.652Z" fill="#5073AB"/>
<path d="M369.3 169.357L368.86 170.927L368.618 171.133L368.324 171.353C367.367 172.027 366.258 172.456 365.096 172.6C365.198 170.142 365.492 167.963 365.492 167.963L366.145 168.139C367.237 168.431 368.295 168.839 369.3 169.357Z" fill="#323657"/>
<path d="M362.798 172.512C361.731 172.301 360.727 171.846 359.863 171.184C359.603 170.992 359.358 170.781 359.13 170.553L359.005 170.421C358.88 169.892 358.792 169.548 358.792 169.526C358.792 169.526 359.665 168.946 362.776 168.117C362.828 168.19 362.828 170.186 362.798 172.512Z" fill="#323657"/>
<path d="M364.479 169.313C364.479 169.958 364.442 171.213 364.479 172.651H364.244C364.016 172.651 363.789 172.651 363.562 172.651C363.636 171.538 363.793 170.432 364.031 169.342C364.068 169.195 364.09 169.122 364.09 169.122L364.508 169.195C364.496 169.234 364.486 169.273 364.479 169.313Z" fill="#5073AB"/>
<path d="M369.659 170.12C369.411 170.407 369.144 170.677 368.859 170.927L368.617 171.132L369.3 169.357C369.512 169.496 369.578 169.929 369.659 170.12Z" fill="#323657"/>
<path d="M359.181 170.553L359.056 170.421C358.895 170.253 358.743 170.077 358.602 169.892C358.645 169.749 358.729 169.622 358.844 169.526L359.181 170.553Z" fill="#323657"/>
<path d="M333.742 155.394C333.511 155.394 333.289 155.302 333.125 155.138C332.961 154.974 332.869 154.752 332.869 154.52V142.472C332.869 142.241 332.961 142.019 333.125 141.855C333.289 141.691 333.511 141.599 333.742 141.599C333.974 141.599 334.196 141.691 334.36 141.855C334.523 142.019 334.615 142.241 334.615 142.472V154.52C334.615 154.635 334.593 154.749 334.549 154.855C334.505 154.96 334.441 155.057 334.36 155.138C334.279 155.219 334.182 155.283 334.076 155.327C333.971 155.371 333.857 155.394 333.742 155.394Z" fill="#949494"/>
<path d="M339.766 149.369H327.689C327.457 149.369 327.235 149.277 327.071 149.114C326.907 148.95 326.815 148.728 326.815 148.496C326.815 148.265 326.907 148.043 327.071 147.879C327.235 147.715 327.457 147.623 327.689 147.623H339.737C339.968 147.623 340.19 147.715 340.354 147.879C340.518 148.043 340.61 148.265 340.61 148.496C340.61 148.728 340.518 148.95 340.354 149.114C340.19 149.277 339.968 149.369 339.737 149.369H339.766Z" fill="#949494"/>
</g>
<defs>
<linearGradient id="paint0_linear_265_4" x1="162.434" y1="29.6435" x2="374.928" y2="29.6435" gradientUnits="userSpaceOnUse">
<stop stop-color="#FFC455"/>
<stop offset="1" stop-color="#FFC155"/>
</linearGradient>
<clipPath id="clip0_265_4">
<rect width="384.14" height="270.13" fill="white" transform="translate(54)"/>
</clipPath>
</defs>
</svg>
