<svg width="669" height="576" viewBox="0 0 669 576" fill="none" xmlns="http://www.w3.org/2000/svg">
<g clip-path="url(#clip0_0_1)">
<path opacity="0.8" d="M58.5504 427.819C58.5504 427.819 -22.4122 340.13 6.06075 237.93C24.6627 171.179 86.3239 211.629 83.0335 103.392C79.7691 -4.8716 264.753 -16.1177 316.05 15.2885C367.348 46.6947 368.411 66.7511 474.323 54.2871C580.235 41.8231 626.325 136.974 571.452 216.915C523.393 286.931 679.929 279.909 586.867 428L58.5504 427.819Z" fill="#FFE48F"/>
</g>
<g clip-path="url(#clip1_0_1)">
<path opacity="0.8" d="M562.595 162.876C562.595 162.876 651.071 219.93 635.096 303.778C624.657 358.543 560.27 335.659 575.778 419.735C591.263 503.835 413.194 538.75 359.884 521.466C306.574 504.182 303.262 488.667 201.994 513.363C100.726 538.06 45.2107 470.251 89.3154 400.06C127.943 338.584 -23.0266 366.181 50.3479 237.366L562.595 162.876Z" fill="#FFE48F"/>
</g>
<path d="M408.598 137.674C370.628 102.077 326.094 92.9429 314.375 91.0693C322.344 69.7575 334.532 38.024 337.579 33.3401C338.517 33.223 340.509 32.9888 343.556 32.9888C352.228 32.9888 370.628 34.7452 397.465 46.8063C435.904 64.0197 446.334 83.6922 448.444 88.4932L408.598 137.674Z" fill="white"/>
<path d="M343.439 35.3306C351.877 35.3306 370.042 37.0871 396.293 48.914C431.217 64.6051 442.467 82.1698 445.514 88.1418L408.247 134.278C385.746 113.903 361.604 102.545 344.845 96.6899C333.009 92.4744 323.399 90.2496 317.539 89.1957C326.329 65.659 335.821 41.5368 338.986 35.4477C340.04 35.4477 341.564 35.3306 343.439 35.3306ZM343.439 30.6467C338.751 30.6467 336.29 31.1151 336.29 31.1151C333.595 32.0519 311.094 92.9428 311.094 92.9428C311.094 92.9428 364.534 98.3293 408.715 141.07L450.905 88.8444C450.905 88.8444 443.873 65.0735 398.168 44.5814C371.565 32.6374 352.932 30.6467 343.439 30.6467Z" fill="#FBC108"/>
<path d="M318.945 97.7439C318.945 97.7439 371.448 103.013 403.793 132.756" stroke="#2A1E17" stroke-miterlimit="10" stroke-linecap="round" stroke-linejoin="round"/>
<path d="M349.766 28.3047C349.766 28.3047 408.596 33.5741 445.278 77.0174" stroke="#2A1E17" stroke-miterlimit="10" stroke-linecap="round" stroke-linejoin="round"/>
<path d="M379.77 196.926C376.488 194.584 374.379 192.944 374.379 192.944C375.316 191.773 389.497 176.668 397.7 164.49C397.7 164.607 381.176 197.98 379.77 196.926Z" fill="#2A1E17"/>
<path d="M179.02 87.0879C180.543 89.664 181.246 88.6102 185.817 88.2589C190.387 87.9076 196.833 91.1863 199.177 96.807C201.521 102.428 200.7 103.247 199.528 103.95C198.356 104.653 189.567 105.706 189.215 107.463" stroke="#2A1E17" stroke-miterlimit="10" stroke-linecap="round" stroke-linejoin="round"/>
<path d="M296.551 372.075L282.284 391.534L279.288 389.195L293.046 366.172L296.551 372.075Z" fill="white" stroke="black"/>
<path d="M196.894 294.652L219.243 297.06L201.073 311.518C201.066 311.507 201.059 311.495 201.052 311.482C200.856 311.142 200.578 310.648 200.255 310.037C199.607 308.813 198.777 307.122 198.046 305.25C197.314 303.374 196.688 301.334 196.438 299.408C196.204 297.613 196.302 295.968 196.894 294.652Z" fill="white" stroke="black"/>
<path d="M200.933 312.267L202.34 315.546L197.886 332.759C197.3 334.984 198.003 337.209 199.761 338.731L221.676 306.412C223.786 303.368 223.317 299.152 220.622 296.693L215.7 292.126L200.933 312.267Z" fill="black"/>
<path d="M189.215 107.58C196.13 107.463 204.802 106.994 203.044 101.725C201.286 96.4556 194.841 83.4577 179.957 87.439C179.957 87.439 174.683 91.7717 181.246 99.6172C187.809 107.346 189.215 107.58 189.215 107.58Z" fill="#2A1E33"/>
<path d="M223.904 296.927C223.904 296.927 212.184 262.383 222.146 247.161C230.349 234.631 257.069 255.006 260.702 257.7L279.805 223.156C279.805 223.156 275.351 216.949 264.57 210.977C253.788 205.005 209.02 186.855 187.925 219.994C180.191 232.289 180.074 284.866 194.957 305.007L223.904 296.927Z" fill="#242424"/>
<path d="M223.904 296.927C223.904 296.927 212.185 262.383 222.146 247.161C230.35 234.631 257.07 255.006 260.703 257.699" stroke="#2A1E17" stroke-miterlimit="10" stroke-linecap="round" stroke-linejoin="round"/>
<path d="M279.807 223.39C271.135 232.523 245.352 277.02 239.493 298.332C231.758 326.787 234.688 350.441 277.229 396.695L297.855 366.717C297.855 366.717 283.323 344.703 286.018 323.977C289.886 294 311.215 264.959 322.114 246.575L279.807 223.39Z" fill="#242424"/>
<path d="M283.086 227.254L317.306 254.069L327.619 238.495L283.086 227.254Z" fill="#2A1E17"/>
<path d="M480.506 199.678C480.498 199.642 480.49 199.606 480.483 199.572C485.435 200.746 489.085 202.65 491.681 205.352C493.041 206.768 493.307 207.738 493.23 208.386C493.151 209.051 492.696 209.558 492.178 210.018C492.056 210.127 491.773 210.235 491.254 210.221C490.754 210.208 490.114 210.084 489.376 209.831C487.904 209.327 486.114 208.336 484.4 206.852C482.733 205.408 481.715 203.419 481.115 201.761C480.816 200.936 480.624 200.204 480.506 199.678Z" fill="white" stroke="black"/>
<path d="M425.07 193.648L425.07 193.649L425.083 193.653C425.268 193.715 425.522 193.756 425.807 193.786C426.101 193.818 426.462 193.842 426.881 193.861C427.72 193.898 428.813 193.913 430.104 193.913C432.371 193.913 435.27 193.868 438.518 193.817C438.97 193.81 439.43 193.803 439.896 193.796C446.284 193.737 453.715 193.679 460.017 193.869C463.169 193.964 466.029 194.12 468.33 194.369C470.658 194.621 472.337 194.959 473.183 195.382L473.187 195.384C473.579 195.576 473.96 195.762 474.331 195.942C476.802 197.146 478.786 198.112 480.343 199.195C482.109 200.423 483.288 201.776 483.949 203.758L483.949 203.758L483.953 203.77C484.333 204.821 484.648 205.76 484.854 206.583C485.061 207.411 485.148 208.086 485.097 208.617C485.048 209.133 484.873 209.486 484.569 209.733C484.25 209.993 483.723 210.189 482.867 210.244L482.867 210.244L482.858 210.245C480.981 210.401 479.394 209.283 478.228 208.018C477.653 207.395 477.201 206.758 476.894 206.275C476.74 206.035 476.624 205.834 476.546 205.695C476.507 205.625 476.478 205.571 476.459 205.535C476.453 205.525 476.449 205.517 476.445 205.509C476.442 205.504 476.44 205.499 476.438 205.495L476.433 205.486L476.432 205.484L476.432 205.484L476.432 205.484L476.432 205.484L476.187 204.994L475.722 205.283L475.722 205.283L475.722 205.283L475.721 205.284L475.715 205.287L475.687 205.304C475.662 205.319 475.624 205.342 475.571 205.373C475.465 205.434 475.301 205.527 475.077 205.65C474.629 205.894 473.937 206.256 472.971 206.721C471.037 207.651 468.004 208.991 463.622 210.626L463.617 210.628L463.797 211.094C463.617 210.628 463.617 210.628 463.616 210.628L463.615 210.629L463.611 210.63L463.595 210.637L463.528 210.662C463.468 210.685 463.379 210.719 463.261 210.763C463.025 210.85 462.676 210.979 462.223 211.14C461.318 211.463 460 211.918 458.351 212.446C455.053 213.502 450.436 214.848 445.159 216.007C434.584 218.331 421.443 219.887 410.961 216.936L410.961 216.936L410.952 216.934C410.287 216.761 409.219 216.265 407.825 215.492C406.444 214.726 404.784 213.711 402.948 212.531C399.277 210.171 394.926 207.165 390.753 204.202C386.581 201.241 382.592 198.326 379.645 196.152C378.172 195.065 376.96 194.163 376.116 193.533C375.744 193.255 375.444 193.031 375.224 192.866C375.483 192.575 375.866 192.149 376.354 191.608C380.286 187.246 391.008 175.35 397.872 165.299C398.042 165.488 398.259 165.73 398.518 166.018C399.203 166.779 400.184 167.867 401.369 169.176C403.739 171.793 406.927 175.293 410.195 178.822C413.463 182.351 416.815 185.912 419.512 188.651C420.86 190.02 422.049 191.188 422.984 192.045C423.452 192.474 423.861 192.829 424.199 193.095C424.518 193.347 424.824 193.559 425.07 193.648Z" fill="white" stroke="black"/>
<path d="M283.142 114.868C283.211 114.857 283.275 114.846 283.335 114.836C284.08 124.186 286.128 131.909 288.007 137.326C288.965 140.087 289.88 142.25 290.556 143.725C290.894 144.462 291.172 145.028 291.367 145.41C291.37 145.416 291.373 145.422 291.376 145.427C291.026 145.515 290.533 145.636 289.919 145.779C288.607 146.085 286.739 146.493 284.522 146.901L284.518 146.902C279.954 147.779 273.847 148.83 267.95 149.428C262.033 150.028 256.397 150.164 252.74 149.25L252.738 149.25C247.838 148.04 240.893 144.418 234.829 140.759C231.806 138.935 229.017 137.111 226.832 135.591C224.634 134.062 223.081 132.864 222.502 132.285C221.268 131.053 216.401 126.307 211.847 121.874C209.569 119.656 207.368 117.515 205.736 115.929C204.921 115.136 204.247 114.481 203.778 114.025L203.234 113.496L203.092 113.358L203.055 113.322L203.046 113.313L203.044 113.311L203.043 113.311C203.043 113.31 203.043 113.31 202.694 113.669L203.043 113.31L202.857 113.13L202.602 113.178L200.762 113.522C196.851 113.685 193.989 112.521 192.156 111.133C191.233 110.435 190.575 109.683 190.172 109.019C189.754 108.329 189.657 107.814 189.707 107.561C189.714 107.529 189.762 107.416 190.005 107.243C190.234 107.078 190.568 106.908 190.998 106.736C191.854 106.394 192.992 106.082 194.182 105.797C194.942 105.616 195.705 105.449 196.419 105.293C196.826 105.204 197.218 105.119 197.584 105.036C198.083 104.923 198.534 104.815 198.9 104.712C199.249 104.613 199.576 104.505 199.787 104.379C200.088 104.198 200.428 103.976 200.694 103.635C200.969 103.281 201.137 102.836 201.172 102.252C201.238 101.13 200.812 99.4248 199.64 96.6145C198.419 93.6866 196.139 91.386 193.59 89.8641C191.046 88.3449 188.19 87.575 185.78 87.7603C184.619 87.8495 183.704 87.9835 182.97 88.0916C182.221 88.202 181.704 88.2777 181.285 88.2711C180.893 88.265 180.627 88.186 180.379 88.0039C180.111 87.8069 179.823 87.4612 179.454 86.8375C179.099 86.2091 178.953 85.7113 178.939 85.3132C178.925 84.9265 179.033 84.604 179.249 84.3091C179.71 83.6796 180.659 83.1663 182.013 82.6367C182.868 82.317 184.232 82.1423 185.925 82.0987C187.605 82.0554 189.559 82.1419 191.561 82.3165C195.563 82.6654 199.711 83.3619 202.193 84.0521C203.353 84.4612 204.91 85.5636 206.632 87.0541C208.344 88.5371 210.166 90.3569 211.838 92.1294C213.508 93.9007 215.023 95.6182 216.12 96.8934C216.669 97.5308 217.113 98.0572 217.419 98.4241C217.572 98.6075 217.691 98.751 217.772 98.8484L217.863 98.9594L217.886 98.9875L217.892 98.9945L217.893 98.9962L217.894 98.9966C217.894 98.9967 217.894 98.9967 218.281 98.6805L217.894 98.9967L217.961 99.0791L218.056 99.1269C224.317 102.284 233.832 107.433 241.787 111.795C245.763 113.975 249.348 115.958 251.938 117.396C253.233 118.115 254.28 118.697 255.003 119.1C255.364 119.302 255.645 119.458 255.835 119.564L256.051 119.685L256.106 119.716L256.12 119.724L256.123 119.725L256.124 119.726C256.125 119.726 256.125 119.726 256.369 119.29L256.125 119.726L256.289 119.818L256.474 119.779C261.914 118.61 268.762 117.352 274.254 116.386C276.999 115.904 279.404 115.494 281.123 115.205C281.982 115.061 282.669 114.946 283.142 114.868Z" fill="white" stroke="black"/>
<path d="M284.61 147.51C289.063 146.691 292.11 145.871 292.11 145.871C292.11 145.871 283.79 135.332 282.383 116.245C282.383 116.245 278.633 120.344 279.805 131.117C281.328 144.817 284.61 147.51 284.61 147.51Z" fill="#2A1E17"/>
<path d="M282.555 115.261C282.547 114.998 282.542 114.782 282.539 114.619C282.557 114.613 282.576 114.608 282.596 114.602C282.869 114.519 283.28 114.4 283.823 114.257C284.911 113.969 286.532 113.58 288.659 113.18C292.911 112.379 299.183 111.533 307.239 111.358C316.436 111.185 324.904 114.305 333.288 118.45C336.655 120.114 339.996 121.938 343.365 123.776C344.192 124.227 345.02 124.679 345.851 125.13C350.061 127.414 354.325 129.663 358.711 131.575C367.291 135.34 376.904 143.653 384.401 151.071C388.142 154.773 391.342 158.237 393.608 160.777C394.741 162.046 395.639 163.084 396.254 163.804C396.562 164.164 396.798 164.445 396.958 164.635C396.985 164.668 397.01 164.697 397.032 164.724C397.04 164.733 397.046 164.741 397.053 164.749C396.885 165.613 396.459 166.686 395.809 167.925C395.107 169.262 394.163 170.761 393.055 172.351C390.838 175.531 387.987 179.048 385.164 182.328C382.343 185.607 379.558 188.642 377.477 190.858C376.437 191.966 375.573 192.869 374.97 193.494C374.705 193.768 374.491 193.989 374.334 194.151L363.435 185.756L363.035 185.448L362.731 185.851C357.506 192.774 347.243 207.893 338.294 221.267C333.819 227.958 329.669 234.216 326.638 238.801C325.122 241.094 323.887 242.969 323.03 244.271C322.601 244.921 322.267 245.429 322.041 245.774L321.839 246.081C321.36 246.072 320.717 245.963 319.91 245.744C318.969 245.488 317.841 245.092 316.553 244.572C313.977 243.531 310.79 242.004 307.219 240.138C300.078 236.406 291.432 231.334 283.118 226.128C274.804 220.921 266.831 215.585 261.036 211.328C258.137 209.198 255.793 207.346 254.226 205.919C253.439 205.203 252.865 204.61 252.515 204.152C252.338 203.921 252.235 203.746 252.185 203.622C252.165 203.574 252.157 203.543 252.154 203.527C256.879 192.295 266.591 178.097 275.152 166.677C279.432 160.968 283.416 155.964 286.33 152.387C287.787 150.599 288.976 149.168 289.801 148.184C290.213 147.692 290.534 147.312 290.752 147.055C290.861 146.926 290.944 146.829 291 146.763L291.063 146.689L291.079 146.671L291.083 146.666L291.084 146.665C291.084 146.665 291.084 146.665 290.705 146.339L291.084 146.665L290.511 145.878L288.678 146.65C287.274 144.324 286.182 141.249 285.336 137.894C284.447 134.37 283.839 130.569 283.423 127.062C283.007 123.555 282.784 120.35 282.666 118.022C282.606 116.858 282.573 115.913 282.555 115.261Z" fill="#FBC108" stroke="black"/>
<path d="M374.497 194.818L363.246 186.035L365.004 181.234L374.497 194.818Z" fill="#2A1E17"/>
<path d="M391.152 102.344L391.151 102.345L391.151 102.345L391.151 102.346L391.151 102.346L391.142 102.366L391.134 102.389C391.083 102.546 391.03 102.71 390.974 102.881C389.94 106.045 388.115 111.635 385.806 116.787C384.589 119.504 383.245 122.08 381.823 124.109C380.388 126.155 378.926 127.567 377.498 128.069C374.444 129.142 371.315 129.006 368.931 128.589C367.742 128.382 366.746 128.106 366.049 127.883C365.701 127.772 365.428 127.673 365.243 127.604C365.151 127.569 365.081 127.541 365.035 127.522L365.026 127.519C365.007 127.511 364.993 127.505 364.984 127.501L364.972 127.496L364.969 127.495L364.969 127.495L364.969 127.495L364.969 127.495L364.756 127.404L364.549 127.508L357.752 130.903L357.562 130.998L357.498 131.2C357.37 131.608 357.001 132.069 356.33 132.543C355.667 133.011 354.757 133.457 353.635 133.85C351.392 134.635 348.368 135.185 344.95 135.301L344.95 135.301L344.944 135.301C342.673 135.407 340.774 133.987 339.603 131.883C338.43 129.778 338.048 127.08 338.763 124.827L338.764 124.827C339.121 123.696 339.946 120.456 340.676 117.522C341.043 116.05 341.387 114.648 341.64 113.614C341.766 113.097 341.87 112.672 341.942 112.376L342.025 112.033L342.047 111.944L342.052 111.921L342.052 111.92L342.054 111.913L342.066 111.871C342.076 111.833 342.092 111.777 342.113 111.703C342.154 111.555 342.215 111.338 342.295 111.06C342.455 110.503 342.689 109.703 342.986 108.73C343.579 106.783 344.423 104.146 345.422 101.383C346.423 98.6176 347.576 95.7355 348.789 93.2951C350.013 90.8337 351.262 88.8946 352.431 87.944C352.542 87.8538 352.653 87.7636 352.763 87.6737C355.176 85.7074 357.462 83.8444 360.676 83.035C364.022 82.1921 368.449 82.48 375.13 85.2083C385.263 89.398 389.204 93.7778 390.655 97.0115C391.381 98.6286 391.494 99.9807 391.433 100.917C391.402 101.386 391.328 101.753 391.263 101.997C391.23 102.12 391.2 102.212 391.179 102.27C391.174 102.285 391.169 102.298 391.165 102.308C391.162 102.319 391.158 102.327 391.156 102.333L391.152 102.344Z" fill="white" stroke="black"/>
<path d="M350.823 103.364C349.885 107.111 346.018 114.606 343.439 113.318C340.861 111.913 339.924 108.517 341.799 101.842C343.674 95.1675 345.08 80.179 350.237 77.4857C355.393 74.7925 357.62 77.9541 357.62 77.9541C357.62 77.9541 355.393 66.9469 361.956 65.5417C361.956 65.5417 364.183 64.4879 363.362 71.9821C363.362 71.9821 365.94 65.0734 374.144 66.0101C382.347 66.9469 385.277 78.4225 385.277 78.4225C385.277 78.4225 385.863 75.2609 389.613 75.2609C393.364 75.2609 399.106 80.7645 397.7 86.9707C397.7 86.9707 407.31 83.9261 412.466 91.6546C417.623 99.2659 416.919 107.697 404.614 111.093C391.723 114.606 391.84 99.5001 389.848 97.6266C387.856 95.6359 385.746 93.411 378.597 96.1043C371.331 98.7976 363.831 90.8349 363.831 90.8349C363.831 90.8349 362.659 100.437 361.37 101.374C360.198 102.31 357.737 103.481 358.323 98.9146C358.909 94.4649 359.729 94.8162 359.26 93.6452C358.792 92.4743 356.799 88.61 352.463 92.0059C347.893 95.753 350.823 103.364 350.823 103.364Z" fill="#2A1E33"/>
<path d="M352.934 105.121C350.121 102.662 348.129 98.4463 350.59 94.2307C353.168 90.0152 357.27 89.4297 358.559 91.0691C359.848 92.7085 360.317 95.4017 359.145 98.5634" stroke="#2A1E33" stroke-miterlimit="10" stroke-linecap="round" stroke-linejoin="round"/>
<path d="M282.382 392.245L283.789 395.524L279.335 412.737C278.749 414.962 279.453 417.187 281.211 418.709L303.126 386.39C305.235 383.345 304.766 379.13 302.071 376.671L297.149 372.104L282.382 392.245Z" fill="black"/>
<path d="M357.621 78.0711C357.621 78.0711 355.981 72.5675 350.941 71.1624" stroke="#2A1E33" stroke-miterlimit="10" stroke-linecap="round" stroke-linejoin="round"/>
<path d="M251.094 201.727L311.683 117.065" stroke="#2A1E17" stroke-miterlimit="10" stroke-linecap="round" stroke-linejoin="round"/>
<path d="M336.762 122.92C334.536 125.73 333.598 138.025 343.677 138.728C353.755 139.548 360.201 135.098 360.201 135.098" stroke="#2A1E17" stroke-miterlimit="10" stroke-linecap="round" stroke-linejoin="round"/>
<path d="M202.34 83.926C202.34 83.926 209.254 93.0597 210.309 96.3384" stroke="#2A1E17" stroke-miterlimit="10" stroke-linecap="round" stroke-linejoin="round"/>
<path d="M462.158 206.879C462.158 206.879 466.846 210.743 475.987 205.708C479.386 203.951 476.925 199.736 472.706 200.79C468.487 201.844 463.447 200.204 463.447 200.204" stroke="#2A1E17" stroke-miterlimit="10" stroke-linecap="round" stroke-linejoin="round"/>
<path d="M481.494 199.502C481.494 199.502 485.947 204.654 485.83 207.816" stroke="#2A1E17" stroke-miterlimit="10" stroke-linecap="round" stroke-linejoin="round"/>
<path d="M415.984 198.916C415.984 198.916 419.969 193.53 425.125 193.178" stroke="#2A1E17" stroke-miterlimit="10" stroke-linecap="round" stroke-linejoin="round"/>
<path d="M246.523 128.189C246.523 128.189 248.867 120.929 256.368 119.524" stroke="#2A1E17" stroke-miterlimit="10" stroke-linecap="round" stroke-linejoin="round"/>
<path d="M266.913 238.964L257.889 256.06C257.889 256.06 228.357 306.061 238.318 338.38" stroke="#2A1E17" stroke-miterlimit="10" stroke-linecap="round" stroke-linejoin="round"/>
<path d="M293.047 296.342L322.111 246.458C322.111 246.458 360.316 191.188 364.183 183.342L377.66 158.4" stroke="#2A1E17" stroke-miterlimit="10" stroke-linecap="round" stroke-linejoin="round"/>
<path d="M255.078 206.996C255.078 206.996 306.877 244.702 322.23 246.575" stroke="#2A1E17" stroke-miterlimit="10" stroke-linecap="round" stroke-linejoin="round"/>
<path d="M282.031 114.254C282.031 114.254 282.031 137.908 288.36 147.627" stroke="#2A1E17" stroke-miterlimit="10" stroke-linecap="round" stroke-linejoin="round"/>
<path d="M396.06 160.859C394.419 170.579 372.855 191.071 372.855 191.071" stroke="#2A1E17" stroke-miterlimit="10" stroke-linecap="round" stroke-linejoin="round"/>
<path d="M234.801 282.29C236.484 282.29 237.848 280.927 237.848 279.245C237.848 277.564 236.484 276.201 234.801 276.201C233.118 276.201 231.754 277.564 231.754 279.245C231.754 280.927 233.118 282.29 234.801 282.29Z" fill="#2A1E17"/>
<path d="M523.217 345.171L521.459 333.462L531.538 340.136L526.264 341.19L523.217 345.171Z" stroke="#2A1E17" stroke-miterlimit="10" stroke-linecap="round" stroke-linejoin="round"/>
<path d="M190.623 144.7C171.637 127.955 140.23 169.759 255.079 302.665C321.41 379.364 373.444 386.273 380.475 359.575C393.132 311.681 347.427 299.62 364.42 318.356C389.147 345.64 459.463 351.378 511.848 325.967C563.53 300.908 531.771 261.915 528.607 259.573" stroke="#2A1E17" stroke-miterlimit="10" stroke-linecap="round" stroke-linejoin="round"/>
<path d="M512.785 328.661C514.468 328.661 515.832 327.298 515.832 325.616C515.832 323.935 514.468 322.572 512.785 322.572C511.102 322.572 509.738 323.935 509.738 325.616C509.738 327.298 511.102 328.661 512.785 328.661Z" fill="#2A1E17"/>
<path d="M468.135 350.675L559.194 299.386" stroke="#2A1E17" stroke-miterlimit="10" stroke-linecap="round" stroke-linejoin="round"/>
<path d="M192.613 150.204C194.296 150.204 195.66 148.841 195.66 147.159C195.66 145.478 194.296 144.115 192.613 144.115C190.931 144.115 189.566 145.478 189.566 147.159C189.566 148.841 190.931 150.204 192.613 150.204Z" fill="#2A1E17"/>
<path d="M276.962 83.8089C276.962 87.154 274.248 89.8664 270.899 89.8664C267.55 89.8664 264.836 87.154 264.836 83.8089C264.836 80.4639 267.55 77.7515 270.899 77.7515C274.248 77.7515 276.962 80.4639 276.962 83.8089Z" fill="#FBC108" stroke="black"/>
<path d="M151.242 33.457C149.602 33.457 148.312 34.7451 148.312 36.3845C148.312 38.0238 149.602 39.3119 151.242 39.3119C152.883 39.3119 154.172 38.0238 154.172 36.3845C154.172 34.7451 152.883 33.457 151.242 33.457Z" fill="#A0C6F4"/>
<path d="M539.621 393.182C541.239 393.182 542.551 391.871 542.551 390.254C542.551 388.637 541.239 387.327 539.621 387.327C538.003 387.327 536.691 388.637 536.691 390.254C536.691 391.871 538.003 393.182 539.621 393.182Z" fill="#FAD8B0"/>
<path d="M487.821 259.573L456.648 244.936C454.187 243.765 454.187 240.135 456.765 239.081L514.775 213.554C515.596 213.202 516.533 213.202 517.354 213.554L557.199 230.65L487.821 259.573Z" fill="#2A1E33"/>
<path d="M485.945 211.446C486.063 224.326 487.82 259.456 487.82 259.456L557.081 230.533L555.558 181.586C555.441 178.541 552.394 176.668 549.581 177.839L489.93 205.005C487.469 206.293 485.945 208.752 485.945 211.446Z" fill="#FBC108"/>
<path d="M487.82 259.573L557.081 230.65L555.558 181.703C555.558 181.703 555.089 176.316 549.581 177.956" stroke="#2A1E17" stroke-miterlimit="10" stroke-linecap="round" stroke-linejoin="round"/>
<path d="M521.455 224.327L526.026 213.319" stroke="#2A1E17" stroke-miterlimit="10" stroke-linecap="round" stroke-linejoin="round"/>
<path d="M526.025 224.327L530.713 213.319" stroke="#2A1E17" stroke-miterlimit="10" stroke-linecap="round" stroke-linejoin="round"/>
<path d="M163.785 344.937C165.403 344.937 166.715 343.627 166.715 342.01C166.715 340.393 165.403 339.083 163.785 339.083C162.167 339.083 160.855 340.393 160.855 342.01C160.855 343.627 162.167 344.937 163.785 344.937Z" fill="#FF6D66"/>
<path d="M408.129 360.277C410.33 360.277 412.114 358.495 412.114 356.296C412.114 354.097 410.33 352.314 408.129 352.314C405.928 352.314 404.145 354.097 404.145 356.296C404.145 358.495 405.928 360.277 408.129 360.277Z" fill="#FF6D66"/>
<path d="M193.784 384.868C198.471 387.093 212.183 392.83 230.348 392.713C231.285 392.713 232.106 393.533 231.989 394.587L229.41 414.611C229.293 415.313 228.824 415.899 228.121 416.016C222.965 416.953 202.339 419.763 186.869 406.765C186.401 406.414 186.166 405.711 186.401 405.126L191.557 386.039C191.791 384.985 192.846 384.516 193.784 384.868Z" fill="#FFF7DC"/>
<path d="M195.66 390.84C195.66 390.84 204.567 403.369 207.731 405.126C210.895 406.882 228.123 396.695 228.123 396.695" stroke="#2A1E17" stroke-miterlimit="10" stroke-linecap="round" stroke-linejoin="round"/>
<path d="M216.168 403.369L225.543 413.088" stroke="#2A1E17" stroke-miterlimit="10" stroke-linecap="round" stroke-linejoin="round"/>
<path d="M203.161 401.496L192.145 404.54" stroke="#2A1E17" stroke-miterlimit="10" stroke-linecap="round" stroke-linejoin="round"/>
<path d="M481.143 147.627H470.713V158.049H481.143V147.627Z" fill="#FFE1C0"/>
<path d="M472.117 288.964L475.282 294.468L478.446 299.854H472.117H465.906L469.07 294.468L472.117 288.964Z" fill="#A0C6F4"/>
<path d="M312.267 183.545H201.051C197.811 183.545 195.105 180.841 195.105 177.604V162.616C195.105 159.38 197.811 156.676 201.051 156.676H312.267C315.507 156.676 318.213 159.38 318.213 162.616V177.604C318.213 180.841 315.507 183.545 312.267 183.545Z" fill="white" stroke="#2A1E17"/>
<path d="M270.546 168.088H209.84C208.944 168.088 208.23 167.375 208.23 166.48C208.23 165.586 208.944 164.872 209.84 164.872H270.546C271.442 164.872 272.155 165.586 272.155 166.48C272.155 167.375 271.442 168.088 270.546 168.088Z" fill="white" stroke="#2A1E17"/>
<path d="M208.434 174.092H311.563" stroke="#2A1E17" stroke-miterlimit="10" stroke-linecap="round" stroke-linejoin="round"/>
<path d="M151.977 110.533L151.97 110.525L151.962 110.516L150.554 109.015L155.67 104.415L157.085 105.923C157.596 106.528 157.516 107.505 156.997 108.035L154.083 110.598C153.437 111.149 152.471 111.109 151.977 110.533Z" fill="#FBC108" stroke="black"/>
<path d="M147.26 93.1768L155.58 102.193C156.049 102.662 155.932 103.364 155.463 103.833L149.721 109.102C149.252 109.571 148.549 109.453 148.08 108.985L139.759 99.9685C139.291 99.5001 139.408 98.7975 139.877 98.3291L145.619 93.0597C146.088 92.7084 146.791 92.7084 147.26 93.1768Z" stroke="#2A1E17" stroke-miterlimit="10" stroke-linecap="round" stroke-linejoin="round"/>
<path d="M121.273 150.055V141.57H130.704V150.055H121.273Z" fill="#FBC108" stroke="black"/>
<path d="M120.774 134.981V141.07H114.562" stroke="#2A1E17" stroke-miterlimit="10" stroke-linecap="round" stroke-linejoin="round"/>
<path d="M473.758 33.9253H463.328V43.4102H473.758V33.9253Z" fill="#FAD8B0"/>
<path d="M463.328 27.8362V33.9253H457.117" stroke="#2A1E17" stroke-miterlimit="10" stroke-linecap="round" stroke-linejoin="round"/>
<path d="M181.947 92.5912C74.1297 47.9769 -8.84294 133.927 194.37 265.545C210.425 275.966 234.918 279.597 234.918 279.597" stroke="#2A1E17" stroke-miterlimit="10" stroke-linecap="round" stroke-linejoin="round"/>
<path d="M82.8009 98.6804C84.4837 98.6804 85.8479 97.3173 85.8479 95.6359C85.8479 93.9544 84.4837 92.5913 82.8009 92.5913C81.1181 92.5913 79.7539 93.9544 79.7539 95.6359C79.7539 97.3173 81.1181 98.6804 82.8009 98.6804Z" fill="#2A1E17"/>
<path d="M63.2305 78.7736L66.6291 75.4949L74.3638 79.9446L78.2312 91.8886L66.3947 86.9705L63.2305 78.7736Z" stroke="#2A1E17" stroke-miterlimit="10" stroke-linecap="round" stroke-linejoin="round"/>
<path d="M66.6292 75.495L63.2306 78.7737L61.3555 76.4318L64.6369 73.3872L66.6292 75.495Z" stroke="#2A1E17" stroke-miterlimit="10" stroke-linecap="round" stroke-linejoin="round"/>
<path d="M78.2308 91.8886L70.4961 83.4575" stroke="#2A1E17" stroke-miterlimit="10" stroke-linecap="round" stroke-linejoin="round"/>
<path d="M336.758 414.962L372.15 405.477L373.556 409.341L337.695 418.592L336.758 414.962Z" stroke="#2A1E17" stroke-miterlimit="10" stroke-linecap="round" stroke-linejoin="round"/>
<path d="M331.836 410.044L332.89 413.206" stroke="#2A1E17" stroke-miterlimit="10" stroke-linecap="round" stroke-linejoin="round"/>
<path d="M330.898 412.152L333.828 411.098" stroke="#2A1E17" stroke-miterlimit="10" stroke-linecap="round" stroke-linejoin="round"/>
<path d="M330.195 422.339L332.07 428.311" stroke="#2A1E17" stroke-miterlimit="10" stroke-linecap="round" stroke-linejoin="round"/>
<path d="M328.555 426.086L333.828 424.447" stroke="#2A1E17" stroke-miterlimit="10" stroke-linecap="round" stroke-linejoin="round"/>
<path d="M322.109 412.269L324.57 420.349" stroke="#2A1E17" stroke-miterlimit="10" stroke-linecap="round" stroke-linejoin="round"/>
<path d="M319.531 417.304L327.032 414.962" stroke="#2A1E17" stroke-miterlimit="10" stroke-linecap="round" stroke-linejoin="round"/>
<path d="M78.7003 30.7637L56.3164 20.5762L57.1368 18L79.755 28.4217L78.7003 30.7637Z" stroke="#2A1E17" stroke-width="0.6707" stroke-miterlimit="10" stroke-linecap="round" stroke-linejoin="round"/>
<path d="M79.168 35.3304L79.9878 33.2227" stroke="#2A1E17" stroke-width="0.6707" stroke-miterlimit="10" stroke-linecap="round" stroke-linejoin="round"/>
<path d="M80.5743 34.745L78.582 33.9253" stroke="#2A1E17" stroke-width="0.6707" stroke-miterlimit="10" stroke-linecap="round" stroke-linejoin="round"/>
<path d="M85.2617 29.7098L86.7852 25.7285" stroke="#2A1E17" stroke-width="0.6707" stroke-miterlimit="10" stroke-linecap="round" stroke-linejoin="round"/>
<path d="M87.7228 28.4218L84.207 27.0166" stroke="#2A1E17" stroke-width="0.6707" stroke-miterlimit="10" stroke-linecap="round" stroke-linejoin="round"/>
<path d="M85.1445 38.3751L87.254 33.1057" stroke="#2A1E17" stroke-width="0.6707" stroke-miterlimit="10" stroke-linecap="round" stroke-linejoin="round"/>
<path d="M88.5432 36.8527L83.7383 34.8621" stroke="#2A1E17" stroke-width="0.6707" stroke-miterlimit="10" stroke-linecap="round" stroke-linejoin="round"/>
<path d="M162.376 219.76C146.555 208.401 131.086 190.719 137.883 172.569C137.883 172.569 148.782 165.309 166.009 174.326C183.236 183.342 183.236 183.342 183.236 183.342L162.376 219.76Z" fill="#FBC108"/>
<path d="M155.227 295.405C148.079 292.009 117.843 276.318 112.335 249.269C107.647 225.966 125.46 194.584 134.484 180.649C133.898 199.034 152.415 214.608 161.321 221.048C170.345 227.605 177.025 230.767 186.166 234.163L155.227 295.405Z" fill="white"/>
<path d="M133.078 186.27C135.07 198.565 144.328 211.212 160.266 222.687C168.821 228.893 175.267 232.055 183.705 235.334L154.407 293.18C145.5 288.73 119.014 273.625 114.092 249.034C109.991 228.542 123.937 201.375 133.078 186.27ZM137.883 172.569C137.883 172.569 104.365 217.886 110.694 249.62C117.022 281.353 156.047 297.63 156.047 297.63L188.744 233.226C178.548 229.479 171.868 226.434 162.376 219.643C146.555 208.401 131.085 190.72 137.883 172.569Z" fill="#FBC108"/>
<path d="M129.094 198.916C129.094 198.916 131.086 217.184 149.251 226.903" stroke="#2A1E17" stroke-miterlimit="10" stroke-linecap="round" stroke-linejoin="round"/>
<path d="M158.977 233.46L177.259 243.179" stroke="#2A1E17" stroke-miterlimit="10" stroke-linecap="round" stroke-linejoin="round"/>
<path d="M131.672 224.912C131.672 224.912 137.532 237.91 156.4 246.341" stroke="#2A1E17" stroke-miterlimit="10" stroke-linecap="round" stroke-linejoin="round"/>
<path d="M116.672 226.903C116.672 226.903 117.375 240.603 126.399 245.17" stroke="#2A1E17" stroke-miterlimit="10" stroke-linecap="round" stroke-linejoin="round"/>
<path d="M137.532 179.478C137.532 179.478 135.891 197.043 162.377 219.76" stroke="#2A1E17" stroke-miterlimit="10" stroke-linecap="round" stroke-linejoin="round"/>
<path d="M147.258 182.64C147.258 182.64 155.696 181.937 168.118 191.071" stroke="#2A1E17" stroke-miterlimit="10" stroke-linecap="round" stroke-linejoin="round"/>
<path d="M107.53 238.729C106.944 247.395 108.116 279.011 153.822 299.035" stroke="#2A1E17" stroke-miterlimit="10" stroke-linecap="round" stroke-linejoin="round"/>
<path d="M399.341 221.165L380.004 260.041C380.004 260.041 393.13 264.842 382.817 279.948C382.817 279.948 407.075 290.018 423.014 263.906C438.952 237.793 399.341 221.165 399.341 221.165Z" fill="#FBC108"/>
<path d="M354.923 339.785C345.079 339.785 334.766 335.804 324.102 327.841L360.314 267.77L381.878 281.353H381.995C382.229 281.47 387.034 283.344 393.831 283.344C399.222 283.344 406.137 282.056 412.817 277.372L386.331 322.689C386.331 322.923 374.963 339.785 354.923 339.785Z" fill="white"/>
<path d="M361.017 270.346L380.94 282.875L381.175 282.992L381.409 283.109C381.643 283.227 386.683 285.334 393.831 285.334C397.933 285.334 402.973 284.632 408.012 282.407L384.925 321.986C384.222 323.04 373.44 338.146 354.923 338.146C345.9 338.146 336.29 334.633 326.446 327.49L361.017 270.346ZM423.013 263.788C413.989 278.543 402.387 281.821 393.949 281.821C387.386 281.821 382.815 279.948 382.815 279.948L359.846 265.545L321.875 328.426C334.649 338.263 345.665 341.658 355.041 341.658C376.253 341.658 388.089 323.86 388.089 323.86L423.013 263.788Z" fill="#FBC108"/>
<path d="M380.004 259.924C380.004 259.924 394.419 265.077 382.817 279.831" stroke="#2A1E17" stroke-miterlimit="10" stroke-linecap="round" stroke-linejoin="round"/>
<path d="M359.375 264.023C359.375 264.023 379.063 282.056 389.962 281.939C400.861 281.822 413.635 279.245 421.136 266.248" stroke="#2A1E17" stroke-miterlimit="10" stroke-linecap="round" stroke-linejoin="round"/>
<path d="M361.836 287.442C361.836 287.442 375.313 299.386 390.431 295.639" stroke="#2A1E17" stroke-miterlimit="10" stroke-linecap="round" stroke-linejoin="round"/>
<path d="M376.02 305.358C376.02 305.358 383.168 310.628 393.013 305.592" stroke="#2A1E17" stroke-miterlimit="10" stroke-linecap="round" stroke-linejoin="round"/>
<path d="M343.438 312.735C343.438 312.735 359.845 329.012 385.51 318.239" stroke="#2A1E17" stroke-miterlimit="10" stroke-linecap="round" stroke-linejoin="round"/>
<path d="M352.344 296.81C352.344 296.81 359.024 301.611 363.243 303.133" stroke="#2A1E17" stroke-miterlimit="10" stroke-linecap="round" stroke-linejoin="round"/>
<path d="M402.621 232.406C402.621 232.406 417.505 237.324 419.38 256.997" stroke="#2A1E17" stroke-miterlimit="10" stroke-linecap="round" stroke-linejoin="round"/>
<path d="M410.121 256.762C410.121 256.762 417.036 267.418 405.316 278.074" stroke="#2A1E17" stroke-miterlimit="10" stroke-linecap="round" stroke-linejoin="round"/>
<path d="M323.281 331.354C323.281 331.354 360.783 363.439 387.972 325.967" stroke="#2A1E17" stroke-miterlimit="10" stroke-linecap="round" stroke-linejoin="round"/>
<path d="M52.4492 208.987H61.1215" stroke="#FF6D66" stroke-miterlimit="10" stroke-linecap="round" stroke-linejoin="round"/>
<path d="M305.117 43.9956H313.789" stroke="#FAD8B0" stroke-miterlimit="10"/>
<path d="M556.381 149.267L564.936 150.789" stroke="#FAD8B0" stroke-miterlimit="10"/>
<path d="M212.77 367.303H221.559" stroke="#A0C6F4" stroke-miterlimit="10" stroke-linecap="round" stroke-linejoin="round"/>
<path d="M575.248 261.33C576.866 261.33 578.178 260.019 578.178 258.402C578.178 256.785 576.866 255.475 575.248 255.475C573.63 255.475 572.318 256.785 572.318 258.402C572.318 260.019 573.63 261.33 575.248 261.33Z" fill="#91BA83"/>
<path d="M31.004 122.334C32.6221 122.334 33.9339 121.023 33.9339 119.407C33.9339 117.79 32.6221 116.479 31.004 116.479C29.3859 116.479 28.0742 117.79 28.0742 119.407C28.0742 121.023 29.3859 122.334 31.004 122.334Z" fill="#91BA83"/>
<defs>
<clipPath id="clip0_0_1">
<rect width="617" height="428" fill="white"/>
</clipPath>
<clipPath id="clip1_0_1">
<rect width="604.525" height="337.828" fill="white" transform="translate(668.049 488.762) rotate(171.71)"/>
</clipPath>
</defs>
</svg>
