<svg width="21" height="21" viewBox="0 0 21 21" fill="none" xmlns="http://www.w3.org/2000/svg">
<g clip-path="url(#clip0_3_1095)">
<path d="M9.60567 20.9999C8.67823 20.7753 7.71104 20.6563 6.82334 20.3127C2.99432 18.7797 0.675705 15.9647 0.105989 11.8942C-0.675714 6.39642 2.95457 1.3744 8.41324 0.211401C13.7262 -0.911947 19.2379 2.4581 20.629 7.70479C22.2057 13.6255 18.6549 19.4273 12.6397 20.7621C12.2423 20.8546 11.8315 20.9074 11.4341 20.9867C10.8246 20.9999 10.2151 20.9999 9.60567 20.9999ZM4.78296 7.11008C5.92239 8.24664 7.06183 9.38321 8.30725 10.6123C7.14132 11.7356 5.98864 12.8722 4.86246 13.9691C5.60441 14.7092 6.31987 15.4229 7.08832 16.1894C8.21451 15.066 9.35394 13.9162 10.5331 12.74C11.699 13.903 12.8385 15.0396 13.9514 16.1497C14.6934 15.4096 15.4221 14.6828 16.2038 13.903C15.0908 12.8061 13.9382 11.6696 12.759 10.4933C13.9249 9.33034 15.0643 8.19378 16.1508 7.1233C15.3956 6.36999 14.6536 5.6299 13.8719 4.83695C12.7855 5.93387 11.6461 7.07043 10.4271 8.28629C9.26119 7.13651 8.12176 5.98673 7.02208 4.88982C6.30662 5.60347 5.57791 6.31713 4.78296 7.11008Z" fill="#072F53"/>
</g>
<defs>
<clipPath id="clip0_3_1095">
<rect width="21" height="21" fill="white"/>
</clipPath>
</defs>
</svg>
