<svg width="20" height="20" viewBox="0 0 20 20" fill="none" xmlns="http://www.w3.org/2000/svg">
<g clip-path="url(#clip0_3_1113)">
<path d="M20 1.95282C19.9221 2.52718 19.5815 2.94154 19.1754 3.32718C18.8472 3.63487 18.5395 3.96308 18.2441 4.25846C17.4113 3.42564 16.5867 2.60103 15.7292 1.74359C15.8318 1.64923 15.9754 1.52615 16.1067 1.39487C16.3733 1.13641 16.6359 0.873846 16.8944 0.60718C17.2103 0.274872 17.6 0.0820513 18.0472 0C18.1785 0 18.3097 0 18.4369 0C18.4656 0.0123077 18.4985 0.0246154 18.5272 0.0287179C18.9662 0.106667 19.3231 0.32 19.6062 0.664615C19.8236 0.92718 19.918 1.23897 20 1.56308C20 1.69436 20 1.82564 20 1.95282Z" fill="#072F53"/>
<path d="M17.4605 7.35991C17.4605 11.5979 17.4605 15.7948 17.4605 19.9999C11.6431 19.9999 5.82974 19.9999 0 19.9999C0 14.1907 0 8.37735 0 2.54761C4.1641 2.54761 8.33641 2.54761 12.5292 2.54761C12.4882 2.60094 12.4554 2.64197 12.4185 2.68299C11.7703 3.36812 11.1179 4.05325 10.4738 4.74248C10.3754 4.84504 10.281 4.88607 10.1374 4.88607C7.61436 4.88197 5.09538 4.88197 2.57231 4.88197C2.49436 4.88197 2.42051 4.88197 2.33436 4.88197C2.33436 9.11171 2.33436 13.325 2.33436 17.5548C2.40821 17.5589 2.47795 17.5671 2.54769 17.5671C6.64615 17.5671 10.7446 17.5671 14.839 17.5712C15.0236 17.5712 15.0646 17.5179 15.0646 17.3415C15.0605 14.8717 15.0605 12.402 15.0564 9.93222C15.0564 9.77632 15.0974 9.66556 15.2123 9.55889C15.9056 8.88607 16.5867 8.20915 17.2759 7.53222C17.3251 7.48709 17.3785 7.43786 17.4605 7.35991Z" fill="#072F53"/>
<path d="M14.8513 2.73633C15.6349 3.51992 16.4595 4.34453 17.2718 5.15684C14.72 7.69633 12.1477 10.2563 9.55897 12.8327C8.77128 12.0615 7.93846 11.2491 7.11385 10.445C9.70256 7.86453 12.2831 5.29223 14.8513 2.73633Z" fill="#072F53"/>
<path d="M6.33025 11.2246C7.16718 12.0451 7.97949 12.8369 8.81231 13.6533C7.38461 14.2564 5.98974 14.8431 4.54564 15.4503C5.14872 14.0226 5.73538 12.6359 6.33025 11.2246Z" fill="#072F53"/>
</g>
<defs>
<clipPath id="clip0_3_1113">
<rect width="20" height="20" fill="white"/>
</clipPath>
</defs>
</svg>
