<svg width="15" height="18" viewBox="0 0 15 18" fill="none" xmlns="http://www.w3.org/2000/svg">
<g clip-path="url(#clip0_1_8219)">
<path d="M6.4029 9.51753C5.57989 9.45106 5.03323 9.75403 4.62398 10.3353C4.41106 10.6444 4.23437 10.9675 4.01994 11.2627C3.80722 11.5845 3.52691 11.8535 3.19952 12.0501C2.87213 12.2467 2.50594 12.3659 2.12776 12.3989C2.22139 12.082 2.27877 11.8285 2.3724 11.5889C2.5068 11.2287 2.67442 10.884 2.80127 10.5208C2.83751 10.411 2.7454 10.258 2.71217 10.125C2.58986 10.1838 2.40109 10.2131 2.35881 10.309C2.10058 10.9072 1.85141 11.5116 1.64754 12.1315C1.55693 12.4066 1.42404 12.4298 1.20206 12.3804C0.520994 12.2258 0.108732 11.6507 0.0211454 10.8701C-0.116275 9.63346 0.323169 8.53749 0.804896 7.46934C1.39686 6.16468 2.04923 4.88939 2.65026 3.58937C2.72019 3.38205 2.72755 3.15798 2.6714 2.94632C2.57626 2.48257 2.41921 2.03738 2.3271 1.57673C2.3286 1.50534 2.34765 1.43548 2.38249 1.37362C2.41733 1.31175 2.46683 1.25986 2.52643 1.22274C3.4325 0.882668 4.32649 0.47303 5.26276 0.268984C7.6261 -0.242677 9.90184 -0.154566 11.8227 1.63393C12.685 2.43156 13.4129 3.32658 13.7526 4.48284C13.8553 4.8322 13.8448 5.2171 13.875 5.58655C13.9626 6.64851 14.026 7.71203 14.1362 8.7709C14.1619 9.02905 14.3038 9.27638 14.408 9.52216C14.5122 9.76795 14.5379 10.0106 14.2253 10.0601C13.0051 10.2533 12.4449 11.4946 12.7484 12.8116C12.8088 13.0744 12.8994 13.3295 12.9613 13.5845C13.0776 14.0375 12.9764 14.1766 12.5234 14.1766C9.83037 14.1766 7.13783 14.1766 4.44579 14.1766C4.1936 14.1766 3.94141 14.1766 3.69073 14.1766C3.18937 14.1766 3.05195 13.9725 3.33132 13.5366C3.84023 12.7421 4.38841 11.9692 4.94866 11.2179C5.31562 10.731 5.75053 10.2904 6.15675 9.83751C6.2232 9.76176 6.28511 9.67211 6.4029 9.51753ZM10.373 7.06124L10.4696 7.03187C10.2975 6.35327 10.1963 5.64065 9.93658 5.00378C9.48354 3.89853 8.64694 3.22147 7.4766 3.01897C7.27575 2.98496 7.02356 2.98187 7.00695 3.25238C7.00695 3.34977 7.21384 3.53836 7.34522 3.56155C8.44458 3.71613 9.13773 4.36845 9.53489 5.3825C9.98792 6.53412 9.8958 7.71512 9.59076 8.87138C9.37179 9.69993 9.03504 10.4929 8.77832 11.3107C8.73755 11.4374 8.84174 11.6198 8.8795 11.7651C8.99728 11.6925 9.18152 11.6476 9.22078 11.5425C9.85805 10.1158 10.3337 8.64569 10.373 7.06124ZM5.2386 5.11971C5.13591 4.97441 5.10118 4.87239 5.03474 4.84611C4.99193 4.82813 4.94578 4.82006 4.89957 4.82246C4.85336 4.82487 4.80825 4.83769 4.76745 4.86002C4.55171 5.05086 4.34983 5.25751 4.1634 5.47834C4.14265 5.52109 4.13185 5.56818 4.13185 5.61592C4.13185 5.66366 4.14265 5.71074 4.1634 5.75349C4.19209 5.81533 4.3431 5.89262 4.36877 5.87098C4.65872 5.63756 4.9396 5.3825 5.24011 5.11971H5.2386Z" fill="black"/>
<path d="M8.07464 17.7242H1.77141C1.16736 17.7242 1.19605 17.7242 1.16736 17.092C1.12357 16.2062 1.38482 15.4843 2.16102 15.0422C2.4306 14.8813 2.73422 14.7896 3.04595 14.7748C6.40596 14.7563 9.76597 14.7593 13.1245 14.7655C13.6182 14.7808 14.0873 14.9895 14.4351 15.3484C14.783 15.7074 14.983 16.1892 14.994 16.6947C14.994 17.8649 15.1677 17.718 14.0019 17.7211C12.0266 17.7273 10.0514 17.7242 8.07464 17.7242Z" fill="black"/>
</g>
<defs>
<clipPath id="clip0_1_8219">
<rect width="15" height="17.7273" fill="white"/>
</clipPath>
</defs>
</svg>
