<svg width="20" height="18" viewBox="0 0 20 18" fill="none" xmlns="http://www.w3.org/2000/svg">
<path d="M0 12.1092C0.104167 11.7655 0.354167 11.5419 0.583333 11.3019C2.15104 9.64915 3.91667 8.30734 5.97917 7.41825C7.41146 6.80188 8.89583 6.47461 10.4479 6.55097C12.0104 6.63279 13.4792 7.09097 14.875 7.81643C16.6823 8.75461 18.2656 10.0201 19.6458 11.5528C19.7917 11.711 19.8854 11.9182 20 12.1037C20 12.2128 20 12.3219 20 12.431C19.8802 12.6219 19.7812 12.8346 19.6302 12.9982C18.2344 14.5419 16.6458 15.8073 14.8177 16.7455C13.4427 17.4492 12 17.9019 10.4635 17.9837C8.90625 18.0655 7.41146 17.7382 5.97396 17.1164C3.89583 16.2219 2.11979 14.8692 0.546875 13.2055C0.333333 12.9819 0.0989583 12.7637 0 12.4364C0 12.3273 0 12.2182 0 12.1092ZM6.09375 12.2728C6.09375 14.5201 7.84375 16.3582 9.98958 16.3637C12.1458 16.3692 13.9062 14.531 13.9062 12.2728C13.9062 10.0201 12.1562 8.18734 10.0104 8.18188C7.84896 8.17643 6.09375 10.0146 6.09375 12.2728ZM14.8958 14.8582C16.099 14.1328 17.1562 13.271 18.1354 12.2728C17.1562 11.2692 16.099 10.4073 14.8906 9.68188C15.6667 11.8201 15.6667 12.5346 14.8958 14.8582ZM1.86979 12.2782C2.84896 13.2764 3.90104 14.1382 5.11979 14.8637C4.34375 13.1128 4.34375 11.4164 5.10938 9.69279C4.25521 10.1346 2.59896 11.4546 1.86979 12.2782Z" fill="#072F53"/>
<path d="M4.37504 5.67281C4.28129 5.62372 4.07816 5.56372 3.93754 5.42736C3.54691 5.05645 3.18233 4.65827 2.81775 4.26554C2.50525 3.92736 2.51566 3.431 2.82295 3.10918C3.12504 2.79827 3.59379 2.78736 3.9115 3.10918C4.29691 3.49645 4.67191 3.88918 5.0417 4.29281C5.27608 4.54918 5.31775 4.86009 5.18754 5.1819C5.05733 5.49827 4.80733 5.651 4.37504 5.67281Z" fill="#072F53"/>
<path d="M16.5471 2.86914C16.9377 2.89641 17.1825 3.03278 17.3231 3.32732C17.469 3.62732 17.4586 3.94369 17.245 4.18914C16.844 4.64187 16.4273 5.08369 15.9898 5.49823C15.6981 5.77641 15.2398 5.71641 14.9638 5.42187C14.6877 5.12732 14.6513 4.64732 14.9221 4.34187C15.3127 3.90005 15.7242 3.46914 16.1513 3.06005C16.2711 2.9455 16.4586 2.90732 16.5471 2.86914Z" fill="#072F53"/>
<path d="M9.21862 1.63097C9.21862 1.35824 9.21342 1.08552 9.21862 0.812789C9.22904 0.349153 9.57279 -0.00539245 10.0051 6.2093e-05C10.427 6.2093e-05 10.7707 0.349153 10.7811 0.80188C10.7915 1.35824 10.7915 1.92006 10.7811 2.47643C10.7759 2.9237 10.4217 3.27279 9.99987 3.26733C9.578 3.26733 9.23425 2.91279 9.22383 2.46552C9.21342 2.18733 9.21862 1.90915 9.21862 1.63097Z" fill="#072F53"/>
<path d="M12.3438 12.2728C12.3438 13.6255 11.2813 14.7274 9.9896 14.7219C8.70314 14.7164 7.65106 13.6092 7.65627 12.251C7.66148 10.9092 8.71877 9.81281 10 9.81281C11.2865 9.81826 12.3438 10.9255 12.3438 12.2728ZM10.7813 12.2783C10.7865 11.831 10.4375 11.4546 10.0104 11.4546C9.58335 11.4492 9.22398 11.8146 9.22398 12.2619C9.21877 12.7092 9.56773 13.0855 9.99481 13.0855C10.4219 13.0964 10.7761 12.731 10.7813 12.2783Z" fill="#072F53"/>
</svg>
