<svg width="32" height="44" viewBox="0 0 32 44" fill="none" xmlns="http://www.w3.org/2000/svg">
<path d="M27.599 36.4376H25.4667C24.389 36.4084 23.367 35.9487 22.625 35.1595C21.883 34.3703 21.4816 33.3163 21.5091 32.2287V23.1223C21.5091 20.7984 23.2789 18.9048 25.4496 18.9048H27.5819C29.7526 18.9048 31.5181 20.7984 31.5181 23.1223V32.2287C31.5352 34.5484 29.7696 36.4376 27.599 36.4376ZM25.4496 21.0394C24.9149 21.0562 24.4087 21.2863 24.0418 21.6792C23.6749 22.072 23.4772 22.5956 23.4922 23.1352V32.2287C23.4784 32.7676 23.6765 33.2901 24.0433 33.682C24.4101 34.0739 24.9157 34.3034 25.4496 34.3203H27.5819C27.8476 34.3141 28.1094 34.2551 28.3524 34.1465C28.5953 34.038 28.8147 33.8821 28.9977 33.6877C29.1808 33.4934 29.324 33.2644 29.4192 33.014C29.5143 32.7637 29.5595 32.4968 29.5521 32.2287V23.1223C29.5648 22.5853 29.3666 22.065 29.0007 21.6748C28.6348 21.2847 28.131 21.0563 27.599 21.0394H25.4496Z" fill="white"/>
<path d="M21.2735 17.8893V42.7383C21.2715 43.0597 21.3264 43.3788 21.4355 43.6808C22.3082 43.5204 23.1008 43.0651 23.683 42.3897C24.4764 41.4739 25.0589 40.3922 25.3888 39.2222C25.5082 38.8306 25.6106 38.4218 25.6959 38C25.7513 37.7719 25.811 37.5094 25.8792 37.2297V17.8893C25.8792 16.9081 25.4059 16.1162 24.8174 16.1162H22.3482C21.7596 16.1162 21.2735 16.9081 21.2735 17.8893Z" fill="#FBC108"/>
<path d="M8.37954 24.0086V42.9444C8.38112 43.1939 8.32413 43.4401 8.21322 43.6631L8.0469 43.6373C7.27935 43.5072 6.56056 43.1713 5.96579 42.6647C5.20883 42.0122 4.62293 41.1815 4.25996 40.246C4.13851 39.9429 4.03596 39.6325 3.95291 39.3165L3.76953 38.7269V24.0086C3.76953 23.264 4.24716 22.6572 4.83568 22.6572H7.33045C7.90191 22.6572 8.37954 23.264 8.37954 24.0086Z" fill="#FFBC00"/>
<path d="M9.40625 20.1311V43.7493C10.9377 43.9067 12.477 43.9743 14.0163 43.9515C14.0206 43.8641 14.0206 43.7765 14.0163 43.689V20.1311C14.0163 19.2187 13.5386 18.4785 12.9544 18.4785H10.4724C9.88388 18.4785 9.40625 19.2187 9.40625 20.1311Z" fill="#FBC108"/>
<path d="M8.37955 23.6215V42.8715C8.37938 43.018 8.34983 43.1629 8.29266 43.2975C8.23549 43.4321 8.15189 43.5537 8.04691 43.6548C7.27935 43.5247 6.56057 43.1888 5.9658 42.6822C5.20883 42.0297 4.62294 41.199 4.25997 40.2635C4.13852 39.9604 4.03597 39.65 3.95292 39.334L3.76954 38.7444V23.6215C3.7684 23.3346 3.87996 23.059 4.07978 22.8549C4.2796 22.6508 4.5514 22.535 4.83568 22.5327H7.33046C7.61176 22.5395 7.87922 22.6573 8.07538 22.8609C8.27154 23.0645 8.38075 23.3376 8.37955 23.6215Z" fill="#FBC108"/>
<path d="M15.4063 26.4964V43.5989C15.4062 43.7176 15.4356 43.8345 15.4915 43.9389C17.3381 43.9131 18.9842 43.8528 19.9992 43.8055C20.0201 43.7387 20.0302 43.6689 20.0291 43.5989V26.4964C19.998 26.2416 19.8696 26.0092 19.6713 25.8484C19.473 25.6877 19.2204 25.6114 18.9672 25.6357H16.4681C16.2147 25.6102 15.9615 25.6861 15.7629 25.8471C15.5643 26.008 15.4363 26.2412 15.4063 26.4964Z" fill="#FBC108"/>
<path d="M8.61138 18.7799C8.47918 20.1785 7.71155 21.4352 6.30424 21.4352C5.95478 21.4324 5.60929 21.3601 5.28749 21.2226C4.9657 21.085 4.67391 20.8848 4.42878 20.6335C4.18365 20.3821 3.98999 20.0845 3.85885 19.7576C3.72771 19.4307 3.66166 19.0809 3.66447 18.7282C3.66251 18.5842 3.67249 18.4402 3.69432 18.2979V16.0256C3.73694 15.9276 3.74752 15.8184 3.72452 15.714C3.70151 15.6095 3.64612 15.5151 3.56638 15.4446C3.40433 15.3628 3.24654 15.2724 3.09301 15.1778C3.06131 15.1648 3.03236 15.1458 3.00772 15.1218C2.20729 14.5989 1.5497 13.8817 1.09521 13.0358C0.640714 12.1899 0.403853 11.2425 0.40633 10.2803C0.398377 8.77431 0.982416 7.3266 2.03043 6.25448C3.07844 5.18236 4.50492 4.57329 5.99719 4.56078C6.59342 4.56031 7.18563 4.65918 7.74993 4.85343C7.97823 3.7235 8.54695 2.69236 9.37826 1.90113C10.2096 1.1099 11.2628 0.597237 12.394 0.433295C13.5251 0.269354 14.6788 0.462145 15.6971 0.985286C16.7155 1.50843 17.5488 2.33636 18.083 3.35577C18.7964 2.83493 19.6546 2.55478 20.5351 2.5553C21.1575 2.56396 21.7706 2.70835 22.3325 2.97858C22.8943 3.24881 23.3916 3.63848 23.7902 4.12086C24.1888 4.60324 24.4793 5.16693 24.6418 5.77325C24.8043 6.37957 24.8349 7.01418 24.7315 7.63355C25.564 8.03397 26.2231 8.72722 26.5851 9.5832C26.9472 10.4392 26.9872 11.3991 26.6978 12.2827C26.4083 13.1664 25.8093 13.9131 25.0131 14.3827C24.2169 14.8524 23.2782 15.0126 22.3732 14.8335C22.3732 14.8335 20.1982 14.4031 20.1982 16.4516V21.3706C20.1985 21.6171 20.1699 21.8626 20.1129 22.1023C19.9979 22.6928 19.6884 23.2267 19.2348 23.6173C18.7811 24.008 18.2099 24.2324 17.6139 24.2541C16.2066 24.2541 15.0552 23.0017 15.0338 21.4481V21.3836C15.0338 21.1856 15.0338 20.5702 15.0338 19.7482C15.0338 18.9262 15.0338 18.0267 15.0338 17.0627C14.9475 16.9487 14.8259 16.8669 14.6884 16.8303C14.1937 16.7055 9.18283 16.8303 9.18283 16.8303C9.18283 16.8303 8.61564 16.6281 8.68814 17.8933C8.68185 18.309 8.65481 18.7241 8.60711 19.1371" fill="white"/>
<path d="M17.6136 24.7016C16.8669 24.6679 16.1565 24.367 15.6095 23.8529C15.0625 23.3387 14.7148 22.645 14.6284 21.8957H14.5772V21.3707C14.5772 21.177 14.5772 20.5616 14.5772 19.7396C14.5772 19.0209 14.5772 18.1473 14.5772 17.265C14.2531 17.1962 11.592 17.2177 9.19533 17.265C9.1472 17.4532 9.13419 17.6487 9.15695 17.8417C9.16973 18.1627 9.15116 18.4841 9.10151 18.8014L9.07592 18.9994V19.0596C8.82431 20.7811 7.77523 21.857 6.35086 21.857C5.52442 21.8501 4.73439 21.5129 4.154 20.9191C3.57361 20.3253 3.25023 19.5235 3.25477 18.6895C3.25671 18.5456 3.26668 18.4019 3.28463 18.2592V15.875L3.32301 15.8233C3.18654 15.7545 3.0586 15.677 2.93067 15.5995C2.87475 15.5723 2.82186 15.5391 2.77288 15.5005C1.67435 14.771 0.836085 13.7058 0.380813 12.4608C-0.0744593 11.2158 -0.122829 9.85635 0.242785 8.58159C0.608399 7.30683 1.36879 6.18366 2.41265 5.37651C3.4565 4.56936 4.72899 4.12063 6.04381 4.09601C6.52842 4.09618 7.01114 4.1569 7.48097 4.27676C7.8163 3.17949 8.45347 2.20085 9.31836 1.4547C10.1832 0.708551 11.2403 0.225555 12.3665 0.0619033C13.4928 -0.101749 14.6419 0.0606707 15.6803 0.530266C16.7186 0.999862 17.6035 1.75733 18.232 2.71455C18.9334 2.31104 19.7275 2.10032 20.5348 2.10344C21.7892 2.1182 22.9868 2.6335 23.8659 3.5367C24.7449 4.4399 25.2339 5.65754 25.2259 6.92347C25.2272 7.07725 25.2201 7.23098 25.2046 7.38396C26.0257 7.89078 26.6527 8.66302 26.9838 9.57509C27.3148 10.4872 27.3304 11.4854 27.0279 12.4076C26.7255 13.3297 26.1228 14.1215 25.3179 14.6541C24.513 15.1867 23.5532 15.4289 22.5946 15.3413L22.2748 15.2768C21.834 15.1915 21.3776 15.276 20.9954 15.5135C20.8742 15.6333 20.781 15.7789 20.7227 15.9398C20.6644 16.1006 20.6425 16.2725 20.6585 16.443V21.3707C20.6605 21.6608 20.6261 21.95 20.5562 22.2314C20.4125 22.9171 20.0439 23.5339 19.51 23.9822C18.976 24.4304 18.3079 24.6839 17.6136 24.7016ZM15.4813 21.3793V21.4266C15.5069 22.7177 16.4579 23.7807 17.6136 23.7807C18.1056 23.7605 18.5764 23.5731 18.9495 23.2488C19.3227 22.9246 19.5763 22.4827 19.6691 21.9947C19.7173 21.7902 19.7417 21.5808 19.7416 21.3707V16.4516C19.7229 16.1442 19.7743 15.8365 19.8918 15.5523C20.0094 15.268 20.19 15.0148 20.4197 14.812C20.8525 14.487 21.3818 14.3201 21.9208 14.3386V14.274L22.4624 14.3816C22.6649 14.4204 22.8705 14.4405 23.0765 14.4419C23.8224 14.4235 24.5409 14.1548 25.1185 13.6784C25.6962 13.2019 26.1001 12.5448 26.2663 11.8109C26.4326 11.0769 26.3519 10.308 26.0368 9.62555C25.7217 8.94311 25.1903 8.38606 24.5265 8.04241L24.228 7.89178L24.2791 7.56041C24.3165 7.34875 24.335 7.13415 24.3346 6.91917C24.3425 5.89339 23.9469 4.90632 23.2346 4.17454C22.5222 3.44276 21.5513 3.02603 20.5348 3.01581C19.7495 3.01677 18.9842 3.26667 18.3471 3.7302L17.9207 4.03576L17.6733 3.57958C17.1725 2.65827 16.4051 1.91307 15.4736 1.44345C14.542 0.973844 13.4907 0.802178 12.46 0.951376C11.4292 1.10057 10.4681 1.56354 9.70495 2.27845C8.94179 2.99336 8.4129 3.9262 8.18889 4.95243L8.07801 5.45164L7.62597 5.28811C7.10794 5.11177 6.56493 5.02165 6.01822 5.02128C4.89411 5.03897 3.80543 5.42096 2.91292 6.11085C2.0204 6.80073 1.37136 7.76195 1.06162 8.85257C0.751884 9.9432 0.797865 11.1054 1.19278 12.1677C1.58769 13.2299 2.3106 14.1358 3.25477 14.7517L3.33154 14.8034C3.47227 14.8894 3.62153 14.9712 3.758 15.0487L3.82623 15.0788L3.88167 15.1347C4.00889 15.2574 4.10039 15.413 4.14625 15.5844C4.1921 15.7559 4.19057 15.9367 4.14181 16.1074V18.3883C4.0944 18.7044 4.11442 19.0271 4.20053 19.3349C4.28663 19.6426 4.43684 19.9282 4.64112 20.1726C4.84539 20.4171 5.09901 20.6147 5.38503 20.7523C5.67106 20.8898 5.98289 20.9642 6.29968 20.9704C7.43406 20.9704 7.97993 19.9505 8.12919 18.9262C8.12919 18.8487 8.12919 18.767 8.15478 18.6895C8.19674 18.4278 8.21387 18.1626 8.20595 17.8977C8.1633 17.1962 8.29551 16.7357 8.61109 16.4947C8.69464 16.4322 8.78985 16.3875 8.89098 16.363C8.99211 16.3386 9.09708 16.3351 9.1996 16.3527C10.4491 16.3225 14.2659 16.2365 14.7734 16.3527C15.0054 16.4151 15.2107 16.5527 15.3576 16.7443L15.46 16.8691V17.0326C15.46 17.988 15.46 18.9434 15.46 19.7138C15.46 20.4841 15.46 21.1512 15.46 21.3448L15.4813 21.3793Z" fill="black"/>
</svg>
