<svg width="377" height="439" viewBox="0 0 377 439" fill="none" xmlns="http://www.w3.org/2000/svg">
<g clip-path="url(#clip0_293_2187)">
<path opacity="0.6" d="M362.59 439H14.2154C6.42614 439 0 432.57 0 424.776V14.2241C0 6.43009 6.42614 0 14.2154 0H362.59C370.379 0 376.805 6.43009 376.805 14.2241V424.776C377 432.57 370.574 439 362.59 439Z" fill="#FBC108"/>
</g>
<g clip-path="url(#clip1_293_2187)">
<path d="M298.139 122.119H78.0394C73.5731 122.119 70 118.542 70 114.072V72.0472C70 67.5766 73.5731 64 78.0394 64H298.139C302.606 64 306.179 67.5766 306.179 72.0472V114.251C306 118.542 302.427 122.119 298.139 122.119Z" fill="white"/>
<path d="M110.554 113.356H85.7211C81.4335 113.356 78.0391 109.959 78.0391 105.667V80.631C78.0391 76.3391 81.4335 72.9414 85.7211 72.9414H110.554C114.841 72.9414 118.236 76.3391 118.236 80.631V105.488C118.415 109.78 114.841 113.356 110.554 113.356Z" stroke="#3B4045" stroke-width="0.9846" stroke-miterlimit="10"/>
<path d="M292.6 91.1818H142.532C139.495 91.1818 136.994 88.6782 136.994 85.6381C136.994 82.5981 139.495 80.0945 142.532 80.0945H292.6C295.638 80.0945 298.139 82.5981 298.139 85.6381C298.139 88.6782 295.638 91.1818 292.6 91.1818Z" fill="#CBBA86"/>
<path d="M202.561 105.846H142.712C139.675 105.846 137.174 103.342 137.174 100.302C137.174 97.262 139.675 94.7584 142.712 94.7584H202.739C205.776 94.7584 208.278 97.262 208.278 100.302C208.099 103.521 205.598 105.846 202.561 105.846Z" fill="#CBBA86"/>
<path d="M298.139 202.413H78.0394C73.5731 202.413 70 198.836 70 194.365V152.341C70 147.87 73.5731 144.294 78.0394 144.294H298.139C302.606 144.294 306.179 147.87 306.179 152.341V194.544C306 198.836 302.427 202.413 298.139 202.413Z" fill="white"/>
<path d="M110.554 193.471H85.7211C81.4335 193.471 78.0391 190.074 78.0391 185.782V160.925C78.0391 156.633 81.4335 153.235 85.7211 153.235H110.554C114.841 153.235 118.236 156.633 118.236 160.925V185.782C118.415 190.074 114.841 193.471 110.554 193.471Z" stroke="#3B4045" stroke-width="0.9846" stroke-miterlimit="10"/>
<path d="M292.6 171.475H142.532C139.495 171.475 136.994 168.972 136.994 165.932C136.994 162.892 139.495 160.388 142.532 160.388H292.6C295.638 160.388 298.139 162.892 298.139 165.932C298.139 168.972 295.638 171.475 292.6 171.475Z" fill="#CBBA86"/>
<path d="M202.561 186.139H142.712C139.675 186.139 137.174 183.636 137.174 180.596C137.174 177.556 139.675 175.052 142.712 175.052H202.739C205.776 175.052 208.278 177.556 208.278 180.596C208.099 183.815 205.598 186.139 202.561 186.139Z" fill="#CBBA86"/>
<path d="M298.139 363H78.0394C73.5731 363 70 359.423 70 354.953V312.749C70 308.279 73.5731 304.702 78.0394 304.702H298.139C302.606 304.702 306.179 308.279 306.179 312.749V354.953C306 359.423 302.427 363 298.139 363Z" fill="white"/>
<path d="M110.554 354.059H85.7211C81.4335 354.059 78.0391 350.661 78.0391 346.369V321.512C78.0391 317.22 81.4335 313.822 85.7211 313.822H110.554C114.841 313.822 118.236 317.22 118.236 321.512V346.369C118.415 350.661 114.841 354.059 110.554 354.059Z" stroke="#3B4045" stroke-width="0.9846" stroke-miterlimit="10"/>
<path d="M292.6 331.884H142.532C139.495 331.884 136.994 329.38 136.994 326.34C136.994 323.3 139.495 320.797 142.532 320.797H292.6C295.638 320.797 298.139 323.3 298.139 326.34C298.139 329.559 295.638 331.884 292.6 331.884Z" fill="#CBBA86"/>
<path d="M202.561 346.727H142.712C139.675 346.727 137.174 344.223 137.174 341.183C137.174 338.143 139.675 335.639 142.712 335.639H202.739C205.776 335.639 208.278 338.143 208.278 341.183C208.099 344.223 205.598 346.727 202.561 346.727Z" fill="#CBBA86"/>
<path d="M298.139 282.706H78.0394C73.5731 282.706 70 279.13 70 274.659V232.456C70 227.985 73.5731 224.408 78.0394 224.408H298.139C302.606 224.408 306.179 227.985 306.179 232.456V274.659C306 279.13 302.427 282.706 298.139 282.706Z" fill="white"/>
<path d="M110.554 273.765H85.7211C81.4335 273.765 78.0391 270.367 78.0391 266.075V241.218C78.0391 236.926 81.4335 233.529 85.7211 233.529H110.554C114.841 233.529 118.236 236.926 118.236 241.218V266.075C118.415 270.367 114.841 273.765 110.554 273.765Z" stroke="#3B4045" stroke-width="0.9846" stroke-miterlimit="10"/>
<path d="M292.6 251.769H142.532C139.495 251.769 136.994 249.265 136.994 246.225C136.994 243.185 139.495 240.682 142.532 240.682H292.6C295.638 240.682 298.139 243.185 298.139 246.225C298.139 249.265 295.638 251.769 292.6 251.769Z" fill="#CBBA86"/>
<path d="M202.561 266.433H142.712C139.675 266.433 137.174 263.929 137.174 260.889C137.174 257.849 139.675 255.346 142.712 255.346H202.739C205.776 255.346 208.278 257.849 208.278 260.889C208.099 263.929 205.598 266.433 202.561 266.433Z" fill="#CBBA86"/>
<path d="M88.2222 249.444L83.7559 253.379L94.6537 267.506L115.199 243.901L111.268 239.609L95.3683 259.459L88.2222 249.444Z" fill="#3B4045"/>
</g>
<defs>
<clipPath id="clip0_293_2187">
<rect width="377" height="439" fill="white"/>
</clipPath>
<clipPath id="clip1_293_2187">
<rect width="236" height="299" fill="white" transform="translate(70 64)"/>
</clipPath>
</defs>
</svg>
