<svg xmlns="http://www.w3.org/2000/svg" xmlns:xlink="http://www.w3.org/1999/xlink" preserveAspectRatio="xMidYMid meet" width="200" height="150" viewBox="0 0 200 150" style="width:100%;height:100%"><defs><animate repeatCount="indefinite" dur="4.9663356s" begin="0s" xlink:href="#_R_G_L_5_G" fill="freeze" attributeName="opacity" from="0" to="1" keyTimes="0;0.2013423;1" values="0;1;1" keySplines="0 0 0 0.991;0 0 0 0" calcMode="spline"/><animateMotion repeatCount="indefinite" dur="4.9663356s" begin="0s" xlink:href="#_R_G_L_5_G_N_2_T_0" fill="freeze" keyTimes="0;0.2013423;1" path="M-5.29 219.49 C-5.29,189.49 -5.29,69.49 -5.29,39.49 C-5.29,39.49 -5.29,39.49 -5.29,39.49 " keyPoints="0;1;1" keySplines="0 0 0 0.928;0 0 0 0" calcMode="spline"/><animate repeatCount="indefinite" dur="4.9663356s" begin="0s" xlink:href="#_R_G_L_4_G" fill="freeze" attributeName="opacity" from="0" to="1" keyTimes="0;0.2013423;1" values="0;1;1" keySplines="0 0 0 0.978;0 0 0 0" calcMode="spline"/><animateMotion repeatCount="indefinite" dur="4.9663356s" begin="0s" xlink:href="#_R_G_L_4_G_N_2_T_0" fill="freeze" keyTimes="0;0.2013423;1" path="M-5.29 219.49 C-5.29,189.49 -5.29,69.49 -5.29,39.49 C-5.29,39.49 -5.29,39.49 -5.29,39.49 " keyPoints="0;1;1" keySplines="0 0 0 0.928;0 0 0 0" calcMode="spline"/><animateTransform repeatCount="indefinite" dur="4.9663356s" begin="0s" xlink:href="#_R_G_L_3_G" fill="freeze" attributeName="transform" from="0 0" to="0.92 0.92" type="scale" additive="sum" keyTimes="0;0.3355724;0.4026846;1" values="0 0;0 0;0.92 0.92;0.92 0.92" keySplines="0 0 0 0.995;0 0 0 0.995;0 0 0 0" calcMode="spline"/><animateTransform repeatCount="indefinite" dur="4.9663356s" begin="0s" xlink:href="#_R_G_L_3_G" fill="freeze" attributeName="transform" from="-27.511 -15.232" to="-27.511 -15.232" type="translate" additive="sum" keyTimes="0;1" values="-27.511 -15.232;-27.511 -15.232" keySplines="0 0 1 1" calcMode="spline"/><animateTransform repeatCount="indefinite" dur="4.9663356s" begin="0s" xlink:href="#_R_G_L_2_G" fill="freeze" attributeName="transform" from="0 0" to="0.92 0.92" type="scale" additive="sum" keyTimes="0;0.5436272;0.6107383;1" values="0 0;0 0;0.92 0.92;0.92 0.92" keySplines="0 0 0 0.995;0 0 0 0.995;0 0 0 0" calcMode="spline"/><animateTransform repeatCount="indefinite" dur="4.9663356s" begin="0s" xlink:href="#_R_G_L_2_G" fill="freeze" attributeName="transform" from="-27.511 -15.232" to="-27.511 -15.232" type="translate" additive="sum" keyTimes="0;1" values="-27.511 -15.232;-27.511 -15.232" keySplines="0 0 1 1" calcMode="spline"/><animate repeatCount="indefinite" dur="4.9663356s" begin="0s" xlink:href="#_R_G_L_1_G" fill="freeze" attributeName="opacity" from="0" to="1" keyTimes="0;0.2013423;1" values="0;1;1" keySplines="0.018 0 0 1;0 0 0 0" calcMode="spline"/><animateMotion repeatCount="indefinite" dur="4.9663356s" begin="0s" xlink:href="#_R_G_L_1_G_N_2_T_0" fill="freeze" keyTimes="0;0.2013423;1" path="M-5.29 219.49 C-5.29,189.49 -5.29,69.49 -5.29,39.49 C-5.29,39.49 -5.29,39.49 -5.29,39.49 " keyPoints="0;1;1" keySplines="0 0 0 0.928;0 0 0 0" calcMode="spline"/><animate repeatCount="indefinite" dur="4.9663356s" begin="0s" xlink:href="#_R_G_L_0_G" fill="freeze" attributeName="opacity" from="0" to="1" keyTimes="0;0.2013423;1" values="0;1;1" keySplines="0.026 0.001 0 1;0 0 0 0" calcMode="spline"/><animateMotion repeatCount="indefinite" dur="4.9663356s" begin="0s" xlink:href="#_R_G_L_0_G" fill="freeze" keyTimes="0;0.2013434;0.2416121;0.4026868;0.6040235;0.8053691;1" path="M258 -67 C234.67,-67 141.33,-67 118,-67 C118,-67 118,-67 118,-67 C103,-69.33 45.08,-92.08 28,-81 C10.92,-69.92 0.5,-2.83 15.5,-0.5 C30.5,1.83 100.92,-55.92 118,-67 C118,-67 118,-67 118,-67 " keyPoints="0;0.32;0.32;0.52;0.72;1;1" keySplines="0 0 0 1;0.333 0.333 0 0;0.333 0 0 1;0.167 0 0 1;0.167 0 0 1;0 0 0 0" calcMode="spline"/><animateTransform repeatCount="indefinite" dur="4.9663356s" begin="0s" xlink:href="#_R_G_L_0_G" fill="freeze" attributeName="transform" from="-540 -540" to="-540 -540" type="translate" additive="sum" keyTimes="0;1" values="-540 -540;-540 -540" keySplines="0 0 1 1" calcMode="spline"/><animate attributeType="XML" attributeName="opacity" dur="5s" from="0" to="1" xlink:href="#time_group"/></defs><g id="_R_G"><g id="_R_G_L_5_G_N_2_N_1_T_0" transform=" translate(97, 75) scale(0.38, 0.38) translate(0, 0)"><g id="_R_G_L_5_G_N_2_T_0"><g id="_R_G_L_5_G" transform=" translate(0, 0) translate(-173.085, -109.049)"><path id="_R_G_L_5_G_D_0_P_0" fill="#000000" fill-opacity="1" fill-rule="nonzero" d=" M0.25 216.42 C2.39,207.5 4.88,198.23 7.02,189.31 C21.99,127.24 36.96,65.17 51.92,3.46 C52.28,1.32 52.99,0.25 55.49,0.25 C55.49,0.25 219.41,0.25 219.41,0.25 C220.13,0.25 220.48,0.25 221.91,0.61 C219.41,2.75 217.63,4.17 215.85,5.6 C211.57,8.81 208.01,13.45 203.38,15.23 C202.28,15.66 196.39,15.9 187.53,16.02 C159.01,16.42 99.65,15.59 69.74,15.59 C69.74,15.59 65.11,15.59 65.11,15.59 C50.14,77.66 34.82,139.73 19.85,202.15 C19.85,202.15 325.96,202.15 325.96,202.15 C324.54,196.45 323.11,191.1 322.04,185.74 C309.57,133.66 296.74,81.58 284.27,29.86 C283.56,27 284.27,25.58 286.41,23.79 C289.97,21.3 292.82,18.44 296.74,15.23 C313.14,83.01 329.53,150.43 345.92,217.85 C345.92,217.85 340.93,217.85 340.93,217.85 C340.93,217.85 3.81,217.85 3.81,217.85 C3.81,217.85 0.25,217.85 0.25,217.85 C0.25,217.85 0.25,216.42 0.25,216.42z "/><path id="_R_G_L_5_G_D_1_P_0" fill="#000000" fill-opacity="1" fill-rule="nonzero" d=" M214.7 0.47 C214.7,0.47 294.52,0.57 294.52,0.57 C294.52,0.57 303.48,43.07 303.48,43.07 C303.48,43.07 287.93,45.29 287.93,45.29 C287.93,45.29 278.23,14.65 278.23,14.65 C278.23,14.65 188.84,15.54 188.84,15.54 C188.84,15.54 214.7,0.47 214.7,0.47z "/></g></g></g><g id="_R_G_L_4_G_N_2_N_1_T_0" transform=" translate(97, 75) scale(0.38, 0.38) translate(0, 0)"><g id="_R_G_L_4_G_N_2_T_0"><g id="_R_G_L_4_G" transform=" translate(-67.352, -34.131) translate(-33.748, -23.972)"><path id="_R_G_L_4_G_D_0_P_0" fill="#000000" fill-opacity="1" fill-rule="nonzero" d=" M67.25 0.96 C65.46,2.03 63.68,3.11 61.9,4.18 C53.7,10.6 44.44,13.09 34.1,11.67 C30.19,11.31 25.91,11.31 21.99,11.67 C20.92,11.67 20.21,12.74 19.49,13.45 C19.14,14.16 19.14,14.88 18.78,15.59 C17.35,22.37 15.93,29.15 14.51,36.28 C14.51,36.28 20.56,36.28 20.56,36.28 C20.56,36.28 46.58,36.28 46.58,36.28 C48.72,36.28 50.14,35.92 50.14,33.43 C50.14,29.86 51.92,27.72 55.13,26.29 C57.98,24.86 60.47,23.08 63.68,21.3 C63.33,24.15 62.97,26.65 62.26,29.15 C61.19,34.5 60.47,40.2 59.41,45.55 C59.41,46.27 57.98,47.69 57.27,47.69 C57.27,47.69 0.96,47.69 0.96,47.69 C0.96,47.69 0.61,47.69 0.25,47.34 C3.46,31.64 6.66,15.95 10.23,0.25 C10.23,0.25 66.89,0.25 66.89,0.25 C66.89,0.25 66.89,0.61 67.25,0.96z "/><path id="_R_G_L_4_G_D_1_P_0" fill="#000000" fill-opacity="1" fill-rule="nonzero" d=" M32.54 11.66 C32.54,11.66 54.16,11.66 54.16,11.66 C54.16,11.66 50.04,32.84 50.04,32.84 C50.04,32.84 61.98,30.68 61.98,30.68 C61.98,30.68 66.94,0.35 66.94,0.35 C66.94,0.35 31.72,0.35 31.72,0.35 C31.72,0.35 32.54,11.66 32.54,11.66z "/></g></g></g><g id="_R_G_L_3_G_N_1_T_0" transform=" translate(97, 75) scale(0.38, 0.38) translate(0, 0)"><g id="_R_G_L_3_G" transform=" translate(-61.394, 1.649)"><path id="_R_G_L_3_G_D_0_P_0" fill="#000000" fill-opacity="1" fill-rule="nonzero" d=" M14.5 30.21 C9.87,25.22 5.24,20.23 0.25,15.23 C3.1,13.45 5.59,12.02 8.09,10.24 C10.94,12.74 13.43,15.23 16.29,18.09 C25.2,12.74 34.1,7.74 42.66,2.75 C45.86,0.61 48.36,0.25 51.21,3.46 C52.28,4.53 53.35,5.24 54.77,6.67 C41.23,14.52 28.05,22.37 14.5,30.21z "/></g></g><g id="_R_G_L_2_G_N_1_T_0" transform=" translate(97, 75) scale(0.38, 0.38) translate(0, 0)"><g id="_R_G_L_2_G" transform=" translate(-75.394, 78.149)"><path id="_R_G_L_2_G_D_0_P_0" fill="#000000" fill-opacity="1" fill-rule="nonzero" d=" M14.5 30.21 C9.87,25.22 5.24,20.23 0.25,15.23 C3.1,13.45 5.59,12.02 8.09,10.24 C10.94,12.74 13.43,15.23 16.29,18.09 C25.2,12.74 34.1,7.74 42.66,2.75 C45.86,0.61 48.36,0.25 51.21,3.46 C52.28,4.53 53.35,5.24 54.77,6.67 C41.23,14.52 28.05,22.37 14.5,30.21z "/></g></g><g id="_R_G_L_1_G_N_2_N_1_T_0" transform=" translate(97, 75) scale(0.38, 0.38) translate(0, 0)"><g id="_R_G_L_1_G_N_2_T_0"><g id="_R_G_L_1_G" transform=" translate(5.294, -29.494) translate(-540, -540)"><path id="_R_G_L_1_G_D_0_P_0" fill="#000000" fill-opacity="1" fill-rule="nonzero" d=" M418.18 637.64 C419.6,631.22 420.67,624.8 422.09,618.38 C424.23,608.74 426.37,599.11 428.15,589.13 C428.51,587.7 428.87,586.63 430.65,586.63 C430.65,586.63 488.02,586.63 488.02,586.63 C488.02,586.63 488.38,586.63 488.74,586.99 C488.02,591.98 486.95,596.97 486.24,602.32 C484.46,613.38 482.68,624.08 480.9,635.14 C480.54,636.57 480.18,637.64 478.4,637.64 C478.4,637.64 418.89,637.64 418.89,637.64 C418.89,637.99 418.89,637.99 418.18,637.64z  M438.84 599.47 C437.06,608.39 435.28,616.95 433.5,625.51 C433.5,625.51 470.56,625.51 470.56,625.51 C471.98,616.59 473.41,608.03 474.84,599.47 C474.84,599.47 438.84,599.47 438.84,599.47z "/></g></g></g><g id="_R_G_L_0_G_N_1_T_0" transform=" translate(97, 75) scale(0.38, 0.38) translate(0, 0)"><g id="_R_G_L_0_G"><path id="_R_G_L_0_G_D_0_P_0" fill="#000000" fill-opacity="1" fill-rule="nonzero" d=" M494.25 610.75 C484.27,598.98 474.29,587.21 464.31,575.44 C504.22,541.55 544.49,507.66 584.76,473.77 C594.74,485.54 604.36,497.32 614.7,509.09 C574.43,542.98 534.51,576.87 494.25,610.75z "/><path id="_R_G_L_0_G_D_1_P_0" fill="#000000" fill-opacity="1" fill-rule="nonzero" d=" M620.4 504.09 C610.42,492.32 600.8,480.55 590.46,468.78 C595.81,464.5 600.44,460.22 605.79,456.65 C610.06,453.44 615.77,454.87 619.33,458.79 C624.67,464.86 630.02,471.28 635.37,477.7 C639.29,482.69 638.57,488.76 633.94,493.04 C632.87,494.11 631.8,495.18 630.38,495.89 C627.17,498.39 623.96,501.24 620.4,504.09z "/><path id="_R_G_L_0_G_D_2_P_0" fill="#000000" fill-opacity="1" fill-rule="nonzero" d=" M458.61 582.22 C468.23,593.27 477.14,604.33 486.76,615.39 C471.08,619.31 456.12,622.88 440.08,626.8 C446.14,611.82 452.2,597.2 458.61,582.22z "/></g></g></g><g id="time_group"/></svg>