<svg xmlns="http://www.w3.org/2000/svg" xmlns:xlink="http://www.w3.org/1999/xlink" preserveAspectRatio="xMidYMid meet" width="200" height="150" viewBox="0 0 200 150" style="width:100%;height:100%"><defs><animate repeatCount="indefinite" dur="4.9663356s" begin="0s" xlink:href="#_R_G_L_0_G_L_3_G" fill="freeze" attributeName="opacity" from="0" to="1" keyTimes="0;0.2013423;1" values="0;1;1" keySplines="0.963 0 0 1;0 0 0 0" calcMode="spline"/><animateMotion repeatCount="indefinite" dur="4.9663356s" begin="0s" xlink:href="#_R_G_L_0_G_L_3_G" fill="freeze" keyTimes="0;0.1342289;0.2013423;1" path="M100 155 C100,135 100,48.33 100,35 C100,21.67 100,68.33 100,75 C100,75 100,75 100,75 " keyPoints="0;0.73;1;1" keySplines="0.333 0 0.667 1;0.333 0 0.667 1;0 0 0 0" calcMode="spline"/><animateTransform repeatCount="indefinite" dur="4.9663356s" begin="0s" xlink:href="#_R_G_L_0_G_L_3_G" fill="freeze" attributeName="transform" from="1.76 1.76" to="1.76 1.76" type="scale" additive="sum" keyTimes="0;1" values="1.76 1.76;1.76 1.76" keySplines="0 0 1 1" calcMode="spline"/><animateTransform repeatCount="indefinite" dur="4.9663356s" begin="0s" xlink:href="#_R_G_L_0_G_L_3_G" fill="freeze" attributeName="transform" from="-33 -33" to="-33 -33" type="translate" additive="sum" keyTimes="0;1" values="-33 -33;-33 -33" keySplines="0 0 1 1" calcMode="spline"/><animate repeatCount="indefinite" dur="4.9663356s" begin="0s" xlink:href="#_R_G_L_0_G_L_2_G" fill="freeze" attributeName="opacity" from="0" to="1" keyTimes="0;0.255035;0.3489933;1" values="0;0;1;1" keySplines="0.333 0 0.667 1;0.333 0 0.667 1;0 0 0 0" calcMode="spline"/><animateMotion repeatCount="indefinite" dur="4.9663356s" begin="0s" xlink:href="#_R_G_L_0_G_L_2_G" fill="freeze" keyTimes="0;0.2013434;0.3355724;0.4026846;1" path="M100 139 C100,139 100,139 100,139 C100,123.5 100,57.67 100,46 C100,34.33 100,65.17 100,69 C100,69 100,69 100,69 " keyPoints="0;0;0.77;1;1" keySplines="0.333 0 0.667 1;0.333 0 0.667 1;0.333 0 0.667 1;0 0 0 0" calcMode="spline"/><animateTransform repeatCount="indefinite" dur="4.9663356s" begin="0s" xlink:href="#_R_G_L_0_G_L_2_G" fill="freeze" attributeName="transform" from="0 0" to="1.5 1.5" type="scale" additive="sum" keyTimes="0;0.120806;0.4026846;1" values="0 0;0 0;1.5 1.5;1.5 1.5" keySplines="0.022 0 0 0.993;0.022 0 0 0.993;0 0 0 0" calcMode="spline"/><animateTransform repeatCount="indefinite" dur="4.9663356s" begin="0s" xlink:href="#_R_G_L_0_G_L_2_G" fill="freeze" attributeName="transform" from="-33 -33" to="-33 -33" type="translate" additive="sum" keyTimes="0;1" values="-33 -33;-33 -33" keySplines="0 0 1 1" calcMode="spline"/><animate repeatCount="indefinite" dur="4.9663356s" begin="0s" xlink:href="#_R_G_L_0_G_L_1_G" fill="freeze" attributeName="opacity" from="0" to="1" keyTimes="0;0.3691296;0.4362416;1" values="0;0;1;1" keySplines="0 0 0 0.992;0 0 0 0.992;0 0 0 0" calcMode="spline"/><animateTransform repeatCount="indefinite" dur="4.9663356s" begin="0s" xlink:href="#_R_G_L_0_G_L_1_G" fill="freeze" attributeName="transform" from="0 0" to="1.6600000000000001 1.6600000000000001" type="scale" additive="sum" keyTimes="0;0.3355724;0.4026846;1" values="0 0;0 0;1.6600000000000001 1.6600000000000001;1.6600000000000001 1.6600000000000001" keySplines="0.333 0 0.667 1;0.333 0 0.667 1;0 0 0 0" calcMode="spline"/><animateTransform repeatCount="indefinite" dur="4.9663356s" begin="0s" xlink:href="#_R_G_L_0_G_L_1_G" fill="freeze" attributeName="transform" from="-37.818 -36.76" to="-37.818 -36.76" type="translate" additive="sum" keyTimes="0;1" values="-37.818 -36.76;-37.818 -36.76" keySplines="0 0 1 1" calcMode="spline"/><animate repeatCount="indefinite" dur="4.9663356s" begin="0s" xlink:href="#_R_G_L_0_G_L_0_G" fill="freeze" attributeName="opacity" from="0" to="1" keyTimes="0;0.3691296;0.4362416;1" values="0;0;1;1" keySplines="0.001 0 0 0.996;0.001 0 0 0.996;0 0 0 0" calcMode="spline"/><animateTransform repeatCount="indefinite" dur="4.9663356s" begin="0s" xlink:href="#_R_G_L_0_G_L_0_G" fill="freeze" attributeName="transform" from="0 0" to="1.6600000000000001 -1.6600000000000001" type="scale" additive="sum" keyTimes="0;0.3355724;0.4026846;1" values="0 0;0 0;1.6600000000000001 -1.6600000000000001;1.6600000000000001 -1.6600000000000001" keySplines="0.333 0 0.667 1;0.333 0 0.667 1;0 0 0 0" calcMode="spline"/><animateTransform repeatCount="indefinite" dur="4.9663356s" begin="0s" xlink:href="#_R_G_L_0_G_L_0_G" fill="freeze" attributeName="transform" from="-37.818 -36.76" to="-37.818 -36.76" type="translate" additive="sum" keyTimes="0;1" values="-37.818 -36.76;-37.818 -36.76" keySplines="0 0 1 1" calcMode="spline"/><animate attributeType="XML" attributeName="opacity" dur="5s" from="0" to="1" xlink:href="#time_group"/></defs><g id="_R_G"><g id="_R_G_L_0_G"><g id="_R_G_L_0_G_L_3_G"><path id="_R_G_L_0_G_L_3_G_D_0_P_0" stroke="#000000" stroke-linecap="round" stroke-linejoin="round" fill="none" stroke-width="3" stroke-opacity="1" d=" M9.95 41.19 C9.95,41.19 1.11,41.19 1.11,41.19 C0.95,46.27 0.72,57 1.11,59.36 C1.5,61.71 4.22,62.96 5.53,63.29 C21.73,63.45 55.02,63.68 58.55,63.29 C62.09,62.89 62.97,59.85 62.97,58.38 C62.97,58.38 62.97,40.7 62.97,40.7 C62.97,40.7 56.59,40.7 56.59,40.7 C54.23,40.7 53.32,41.36 53.15,41.68 C52.99,42.5 52.36,45.02 51.19,48.56 C50.01,52.09 47.1,53.63 45.79,53.96 C37.28,53.96 20.75,53.47 18.79,53.47 C16.82,53.47 15.35,52.48 14.86,51.99 C14.37,51.34 13.19,49.15 12.4,45.61 C11.62,42.08 10.44,41.19 9.95,41.19z "/><path id="_R_G_L_0_G_L_3_G_D_1_P_0" stroke="#000000" stroke-linecap="round" stroke-linejoin="round" fill="none" stroke-width="2" stroke-opacity="1" d=" M19.28 53.96 C19.28,53.96 43.82,53.96 43.82,53.96 C45.72,53.96 47.26,55.5 47.26,57.39 C47.26,57.39 47.26,58.38 47.26,58.38 C47.26,60.27 45.72,61.81 43.82,61.81 C43.82,61.81 19.28,61.81 19.28,61.81 C17.38,61.81 15.84,60.27 15.84,58.38 C15.84,58.38 15.84,57.39 15.84,57.39 C15.84,55.5 17.38,53.96 19.28,53.96z "/><path id="_R_G_L_0_G_L_3_G_D_2_P_0" fill="#000000" fill-opacity="1" fill-rule="nonzero" d=" M20.75 56.9 C20.75,56.9 43.33,56.9 43.33,56.9 C43.88,56.9 44.31,57.34 44.31,57.88 C44.31,58.43 43.88,58.87 43.33,58.87 C43.33,58.87 20.75,58.87 20.75,58.87 C20.21,58.87 19.77,58.43 19.77,57.88 C19.77,57.34 20.21,56.9 20.75,56.9z "/><path id="_R_G_L_0_G_L_3_G_D_3_P_0" fill="#000000" fill-opacity="1" fill-rule="nonzero" d=" M18.79 49.54 C16.82,49.15 15.68,45.45 15.35,43.65 C15.35,43.65 21.24,43.65 21.24,43.65 C23.53,44.47 29,46.1 32.53,46.1 C36.07,46.1 40.55,44.47 42.35,43.65 C42.35,43.65 48.73,43.65 48.73,43.65 C48.57,44.14 48.14,45.51 47.75,47.08 C47.36,48.65 45.95,49.37 45.3,49.54 C37.28,49.7 20.75,49.93 18.79,49.54z "/><path id="_R_G_L_0_G_L_3_G_D_4_P_0" stroke="#000000" stroke-linecap="round" stroke-linejoin="round" fill="none" stroke-width="1" stroke-opacity="1" d=" M18.79 49.54 C16.82,49.15 15.68,45.45 15.35,43.65 C15.35,43.65 21.24,43.65 21.24,43.65 C23.53,44.47 29,46.1 32.53,46.1 C36.07,46.1 40.55,44.47 42.35,43.65 C42.35,43.65 48.73,43.65 48.73,43.65 C48.57,44.14 48.14,45.51 47.75,47.08 C47.36,48.65 45.95,49.37 45.3,49.54 C37.28,49.7 20.75,49.93 18.79,49.54z "/></g><g id="_R_G_L_0_G_L_2_G"><path id="_R_G_L_0_G_L_2_G_D_0_P_0" fill="#000000" fill-opacity="1" fill-rule="nonzero" d=" M40.46 39.66 C38.25,38.5 36.12,37.45 34.07,36.28 C32.75,35.52 31.59,35.53 30.27,36.29 C28.41,37.38 26.47,38.31 24.56,39.31 C24.37,39.41 24.2,39.51 23.89,39.65 C24.1,38.39 24.31,37.23 24.5,36.09 C24.74,34.69 24.96,33.29 25.21,31.91 C25.42,30.87 25.08,30.06 24.34,29.35 C22.65,27.74 21,26.1 19.33,24.48 C19.17,24.32 18.93,24.24 18.74,24.13 C18.79,24.05 18.85,23.97 18.9,23.89 C20.2,23.7 21.52,23.51 22.83,23.32 C24.08,23.14 25.34,22.95 26.6,22.78 C27.6,22.64 28.28,22.1 28.73,21.17 C29.84,18.87 30.98,16.59 32.16,14.18 C32.32,14.45 32.43,14.64 32.53,14.83 C33.56,16.91 34.61,18.98 35.6,21.08 C36.1,22.14 36.88,22.65 38.04,22.81 C40.51,23.13 42.97,23.51 45.57,23.89 C45.34,24.13 45.2,24.29 45.04,24.45 C43.37,26.07 41.72,27.71 40.03,29.31 C39.24,30.06 38.94,30.9 39.14,31.98 C39.57,34.34 39.95,36.69 40.36,39.04 C40.41,39.2 40.43,39.38 40.46,39.66z "/><path id="_R_G_L_0_G_L_2_G_D_1_P_0" stroke="#000000" stroke-linecap="round" stroke-linejoin="round" fill="none" stroke-width="1" stroke-opacity="1" d=" M21.74 32.68 C21.74,32.68 20.74,39.18 20.74,39.18 C20.74,39.18 20.74,40.68 20.74,40.68 C21.54,43.08 24.07,43.01 25.24,42.68 C25.24,42.68 32.74,39.18 32.74,39.18 C32.74,39.18 39.74,42.68 39.74,42.68 C43.34,43.08 43.91,40.84 43.74,39.68 C43.74,39.68 42.74,31.18 42.74,31.18 C43.74,30.34 46.34,27.98 48.74,25.18 C49.74,23.18 48.24,20.68 45.74,20.18 C45.74,20.18 38.74,19.18 38.74,19.18 C37.91,17.18 35.84,12.78 34.24,11.18 C32.64,9.58 30.57,10.84 29.74,11.68 C29.74,11.68 25.74,19.18 25.74,19.18 C23.74,19.51 18.84,20.28 17.24,20.68 C14.84,21.88 15.24,23.84 15.74,24.68 C16.91,26.18 19.74,29.18 20.74,30.18 C21.76,31.2 21.91,32.18 21.74,32.68z "/><path id="_R_G_L_0_G_L_2_G_D_2_P_0" stroke="#000000" stroke-linecap="round" stroke-linejoin="round" fill="none" stroke-width="2" stroke-opacity="1" d=" M31.74 7.18 C43.34,7.18 52.74,16.58 52.74,28.18 C52.74,39.77 43.34,49.18 31.74,49.18 C20.14,49.18 10.74,39.77 10.74,28.18 C10.74,16.58 20.14,7.18 31.74,7.18z "/></g><g id="_R_G_L_0_G_L_1_G" transform=" translate(98.5, 62) rotate(109)"><path id="_R_G_L_0_G_L_1_G_D_0_P_0" fill="#000000" fill-opacity="1" fill-rule="nonzero" d=" M6.91 4.21 C6.93,6.48 5.08,8.35 2.79,8.38 C5.08,8.35 6.98,10.18 7,12.45 C6.98,10.18 8.83,8.31 11.12,8.28 C8.83,8.31 6.93,6.48 6.91,4.21z "/><path id="_R_G_L_0_G_L_1_G_D_1_P_0" fill="#000000" fill-opacity="1" fill-rule="nonzero" d=" M15.24 4.02 C15.31,10.16 10.3,15.24 4.08,15.31 C10.3,15.24 15.43,20.19 15.5,26.34 C15.43,20.19 20.44,15.12 26.65,15.05 C20.44,15.12 15.31,10.16 15.24,4.02z "/></g><g id="_R_G_L_0_G_L_0_G" transform=" translate(99, 63.5) rotate(75)"><path id="_R_G_L_0_G_L_0_G_D_0_P_0" fill="#000000" fill-opacity="1" fill-rule="nonzero" d=" M6.91 4.21 C6.93,6.48 5.08,8.35 2.79,8.38 C5.08,8.35 6.98,10.18 7,12.45 C6.98,10.18 8.83,8.31 11.12,8.28 C8.83,8.31 6.93,6.48 6.91,4.21z "/><path id="_R_G_L_0_G_L_0_G_D_1_P_0" fill="#000000" fill-opacity="1" fill-rule="nonzero" d=" M15.24 4.02 C15.31,10.16 10.3,15.24 4.08,15.31 C10.3,15.24 15.43,20.19 15.5,26.34 C15.43,20.19 20.44,15.12 26.65,15.05 C20.44,15.12 15.31,10.16 15.24,4.02z "/></g></g></g><g id="time_group"/></svg>