<svg width="16" height="16" viewBox="0 0 16 16" fill="none" xmlns="http://www.w3.org/2000/svg">
<g clip-path="url(#clip0_1_8240)">
<path d="M2.42714 10.0667C2.62734 9.85033 2.77055 9.58785 2.84394 9.30281C2.91733 9.01776 2.91861 8.71904 2.84767 8.43338C2.77338 8.1095 2.59255 7.81215 2.49723 7.49245C2.44138 7.31645 2.43556 7.12849 2.4804 6.94939C2.66544 6.35608 2.76076 5.80185 2.23369 5.30626C2.19293 5.23349 2.17154 5.15155 2.17154 5.06823C2.17154 4.98491 2.19293 4.90297 2.23369 4.83021C2.61918 4.39464 3.04392 3.99258 3.46025 3.58773C3.49275 3.54926 3.53331 3.51834 3.57907 3.49712C3.62484 3.47591 3.67471 3.46491 3.72519 3.46491C3.77567 3.46491 3.82554 3.47591 3.87131 3.49712C3.91708 3.51834 3.95763 3.54926 3.99013 3.58773C4.41067 3.99398 4.8312 4.39604 5.21529 4.833C5.25542 4.90503 5.27694 4.98586 5.27792 5.06823C5.2789 5.15059 5.2593 5.23191 5.2209 5.30486C4.7485 5.82838 4.74009 6.37283 5.00362 6.98011C5.05392 7.15612 5.04154 7.34404 4.96858 7.512C4.55645 8.59951 5.05269 9.46645 5.62742 10.3753C6.19935 9.63258 6.49092 8.86197 6.3199 7.97828C6.24981 7.60972 6.05076 7.2663 5.94562 6.90193C5.89651 6.73426 5.90191 6.55541 5.96104 6.39098C6.18813 5.85769 6.46008 5.34395 6.70119 4.81625C7.0236 4.11823 6.94229 3.42998 6.53998 2.7892C6.45308 2.67339 6.4073 2.5321 6.40984 2.38754C6.41238 2.24299 6.46309 2.10338 6.554 1.99066C6.93388 1.43225 7.28713 0.837537 7.653 0.263765C7.87869 -0.0894331 8.11139 -0.088037 8.33847 0.263765C8.73098 0.88221 9.12488 1.50066 9.49215 2.13306C9.56644 2.2601 9.60569 2.50301 9.5342 2.60771C8.87396 3.57517 9.05339 4.51889 9.55663 5.4682C9.70942 5.75578 9.83698 6.05733 10.0108 6.33235C10.08 6.43206 10.1161 6.55081 10.114 6.67198C10.112 6.79314 10.072 6.91065 9.99959 7.00803C9.70092 7.53819 9.57616 8.14809 9.64277 8.75236C9.70938 9.35664 9.96402 9.92505 10.3711 10.3781C10.493 10.1673 10.6024 9.97461 10.7173 9.78475C11.1799 9.0267 11.3201 8.24073 10.9696 7.39054C10.9276 7.23532 10.9415 7.07036 11.0089 6.92427C11.2458 6.34631 11.2318 5.8186 10.779 5.34395C10.7384 5.30895 10.7061 5.26537 10.6845 5.21638C10.6629 5.1674 10.6525 5.11424 10.6541 5.06076C10.6557 5.00728 10.6693 4.95484 10.6938 4.90723C10.7183 4.85962 10.7531 4.81805 10.7958 4.78553C11.1902 4.3872 11.5859 3.99305 11.9831 3.60309C12.0156 3.56019 12.0575 3.52518 12.1055 3.50067C12.1535 3.47617 12.2065 3.46281 12.2604 3.46161C12.3144 3.4604 12.3679 3.47137 12.417 3.49369C12.4661 3.51602 12.5094 3.54913 12.5438 3.59053C12.9644 3.99677 13.3849 4.39744 13.769 4.833C13.8085 4.90626 13.8284 4.98845 13.8267 5.07161C13.825 5.15477 13.8017 5.23607 13.7592 5.30765C13.2377 5.79068 13.2966 6.3491 13.5195 6.9117C13.5681 7.01462 13.5898 7.12815 13.5825 7.24168C13.5751 7.3552 13.539 7.46502 13.4774 7.56086C13.1017 8.22817 12.9476 8.92339 13.2812 9.65492C13.3577 9.79669 13.4419 9.93417 13.5335 10.0667C13.8223 9.52509 13.8882 9.02391 13.6835 8.53111C13.5657 8.24213 13.6134 8.06483 13.8643 7.91964C14.3984 7.61251 14.9297 7.2984 15.475 7.01361C15.5983 6.95079 15.8338 6.93962 15.9179 7.01361C15.9611 7.0777 15.9891 7.1507 15.9997 7.22712C16.0104 7.30354 16.0035 7.38138 15.9796 7.45476C15.5815 8.67909 15.1638 9.89643 14.7531 11.118C14.5904 11.601 14.4236 12.084 14.2736 12.5712C14.1769 12.8826 14.0059 12.9901 13.6723 12.9244C13.308 12.8478 12.9371 12.8071 12.5649 12.803C9.52859 12.7937 6.49139 12.7937 3.45325 12.803C3.06945 12.809 2.68702 12.8501 2.31079 12.9258C1.99679 12.9845 1.82437 12.8909 1.72624 12.595C1.15852 10.889 0.580983 9.18445 0.0216698 7.4757C-0.00265927 7.39702 -0.00974286 7.31405 0.000897876 7.2324C0.0115386 7.15076 0.0396557 7.07234 0.0833485 7.00244C0.145027 6.92985 0.402956 6.9494 0.526313 7.01501C1.08703 7.30818 1.61971 7.63066 2.1636 7.94337C2.3991 8.08298 2.42574 8.25469 2.3164 8.50179C2.08931 9.01553 2.19865 9.51392 2.42714 10.0667Z" fill="black"/>
<path d="M7.999 15.9972H1.51714C1.07137 15.9972 1.06296 15.9665 1.03492 15.5212C0.98446 14.7087 1.1751 14.0079 1.93487 13.5877C2.2054 13.4319 2.50997 13.3443 2.8222 13.3322C6.2678 13.3154 9.71339 13.3196 13.1576 13.3224C13.629 13.3274 14.0798 13.5153 14.4144 13.8461C14.7489 14.1769 14.9407 14.6246 14.9491 15.094C14.9491 16.1173 15.0458 15.9944 14.0617 15.9958C12.0404 15.9986 10.0194 15.9991 7.999 15.9972Z" fill="black"/>
</g>
<defs>
<clipPath id="clip0_1_8240">
<rect width="16" height="16" fill="white"/>
</clipPath>
</defs>
</svg>
