<svg width="276" height="55" viewBox="0 0 276 55" fill="none" xmlns="http://www.w3.org/2000/svg">
<g clip-path="url(#clip0_1_102)">
<path d="M39.3617 46.9079H37.0402C35.8669 46.8764 34.7542 46.3813 33.9463 45.5314C33.1384 44.6816 32.7015 43.5464 32.7314 42.3752V32.5683C32.7314 30.0656 34.6583 28.0264 37.0216 28.0264H39.3431C41.7065 28.0264 43.6287 30.0656 43.6287 32.5683V42.3752C43.6473 44.8733 41.725 46.9079 39.3617 46.9079ZM37.0216 30.3252C36.4395 30.3433 35.8883 30.5911 35.4888 31.0141C35.0894 31.4372 34.8742 32.0011 34.8904 32.5822V42.3752C34.8754 42.9556 35.0912 43.5183 35.4905 43.9403C35.8898 44.3624 36.4403 44.6095 37.0216 44.6277H39.3431C39.6324 44.6211 39.9174 44.5575 40.182 44.4406C40.4465 44.3237 40.6853 44.1557 40.8846 43.9464C41.084 43.7371 41.2399 43.4906 41.3435 43.2209C41.4471 42.9513 41.4963 42.6639 41.4882 42.3752V32.5683C41.502 31.99 41.2862 31.4297 40.8879 31.0095C40.4895 30.5893 39.941 30.3433 39.3617 30.3252H37.0216Z" fill="white"/>
<path d="M32.4716 26.9325V53.693C32.4695 54.0391 32.5292 54.3828 32.648 54.708C33.5981 54.5353 34.4611 54.0449 35.0949 53.3176C35.9587 52.3314 36.593 51.1665 36.9521 49.9065C37.0821 49.4847 37.1936 49.0444 37.2864 48.5902C37.3468 48.3446 37.4118 48.0619 37.4861 47.7606V26.9325C37.4861 25.8758 36.9707 25.0231 36.33 25.0231H33.6416C33.0009 25.0231 32.4716 25.8758 32.4716 26.9325Z" fill="#FBC108"/>
<path d="M18.4353 33.523V53.9155C18.437 54.1841 18.375 54.4494 18.2542 54.6895L18.0732 54.6616C17.2375 54.5216 16.4549 54.1598 15.8073 53.6142C14.9832 52.9116 14.3453 52.0169 13.9501 51.0095C13.8179 50.6831 13.7062 50.3488 13.6158 50.0085L13.4162 49.3735V33.523C13.4162 32.7212 13.9362 32.0677 14.5769 32.0677H17.2931C17.9153 32.0677 18.4353 32.7212 18.4353 33.523Z" fill="#FFBC00"/>
<path d="M19.5546 29.3472V54.7821C21.222 54.9518 22.8979 55.0245 24.5737 55C24.5785 54.9058 24.5785 54.8114 24.5737 54.7173V29.3472C24.5737 28.3647 24.0537 27.5675 23.4176 27.5675H20.7153C20.0746 27.5675 19.5546 28.3647 19.5546 29.3472Z" fill="#FBC108"/>
<path d="M18.4353 33.1059V53.8367C18.4351 53.9944 18.403 54.1505 18.3407 54.2954C18.2785 54.4404 18.1875 54.5713 18.0732 54.6802C17.2375 54.5401 16.4549 54.1783 15.8074 53.6328C14.9832 52.9301 14.3453 52.0355 13.9501 51.0281C13.8179 50.7017 13.7063 50.3673 13.6158 50.027L13.4162 49.3921V33.1059C13.4149 32.797 13.5364 32.5001 13.7539 32.2803C13.9715 32.0606 14.2674 31.9358 14.5769 31.9333H17.2931C17.5994 31.9406 17.8906 32.0675 18.1042 32.2868C18.3177 32.506 18.4366 32.8001 18.4353 33.1059Z" fill="#FBC108"/>
<path d="M26.0825 36.2018V54.6199C26.0825 54.7477 26.1144 54.8736 26.1753 54.986C28.1858 54.9582 29.978 54.8933 31.0831 54.8423C31.1058 54.7704 31.1168 54.6953 31.1156 54.6199V36.2018C31.0817 35.9274 30.942 35.6771 30.7261 35.5039C30.5102 35.3308 30.2351 35.2486 29.9594 35.2749H27.2386C26.9627 35.2474 26.687 35.3292 26.4708 35.5025C26.2546 35.6758 26.1152 35.9269 26.0825 36.2018Z" fill="#FBC108"/>
<path d="M18.6862 27.8919C18.5422 29.3982 17.7065 30.7515 16.1743 30.7515C15.7938 30.7485 15.4176 30.6707 15.0673 30.5225C14.7169 30.3744 14.3993 30.1588 14.1324 29.8881C13.8655 29.6174 13.6546 29.2969 13.5119 28.9448C13.3691 28.5928 13.2972 28.2161 13.3002 27.8363C13.2981 27.6812 13.309 27.5262 13.3327 27.3729V24.9258C13.3791 24.8202 13.3906 24.7027 13.3656 24.5902C13.3406 24.4777 13.2802 24.3761 13.1934 24.3001C13.017 24.212 12.8452 24.1147 12.6781 24.0127C12.6435 23.9987 12.612 23.9783 12.5852 23.9525C11.7137 23.3894 10.9978 22.617 10.5029 21.706C10.0081 20.7951 9.75023 19.7747 9.75293 18.7385C9.74427 17.1167 10.3801 15.5576 11.5212 14.403C12.6622 13.2485 14.2153 12.5925 15.84 12.5791C16.4891 12.5786 17.1339 12.685 17.7483 12.8942C17.9968 11.6774 18.616 10.5669 19.5211 9.71482C20.4262 8.86273 21.573 8.31063 22.8045 8.13408C24.036 7.95753 25.292 8.16515 26.4008 8.72853C27.5096 9.29191 28.4168 10.1835 28.9984 11.2814C29.7751 10.7205 30.7095 10.4188 31.6682 10.4193C32.3458 10.4286 33.0133 10.5841 33.625 10.8752C34.2367 11.1662 34.7782 11.5858 35.2121 12.1053C35.6461 12.6248 35.9624 13.2318 36.1393 13.8848C36.3162 14.5378 36.3495 15.2212 36.2369 15.8882C37.1434 16.3194 37.861 17.066 38.2551 17.9878C38.6493 18.9097 38.6929 19.9434 38.3778 20.895C38.0626 21.8467 37.4104 22.6508 36.5435 23.1566C35.6766 23.6623 34.6547 23.8349 33.6693 23.642C33.6693 23.642 31.3014 23.1785 31.3014 25.3846V30.682C31.3017 30.9474 31.2705 31.2118 31.2085 31.4699C31.0833 32.1058 30.7463 32.6808 30.2524 33.1015C29.7585 33.5222 29.1366 33.7638 28.4877 33.7872C26.9555 33.7872 25.7018 32.4385 25.6786 30.7654V30.6959C25.6786 30.4827 25.6786 29.8199 25.6786 28.9347C25.6786 28.0495 25.6786 27.0809 25.6786 26.0427C25.5846 25.9199 25.4523 25.8318 25.3025 25.7924C24.7639 25.658 19.3083 25.7924 19.3083 25.7924C19.3083 25.7924 18.6908 25.5746 18.7698 26.9372C18.7629 27.3849 18.7335 27.8319 18.6815 28.2766" fill="white"/>
<path d="M18.6862 27.8919C18.5422 29.3982 17.7065 30.7515 16.1743 30.7515C15.7938 30.7485 15.4176 30.6707 15.0673 30.5225C14.7169 30.3744 14.3993 30.1588 14.1324 29.8881C13.8655 29.6174 13.6546 29.2969 13.5119 28.9448C13.3691 28.5928 13.2972 28.2161 13.3002 27.8363C13.2981 27.6812 13.309 27.5262 13.3327 27.3729V24.9258C13.3791 24.8202 13.3906 24.7027 13.3656 24.5902C13.3406 24.4777 13.2802 24.3761 13.1934 24.3001C13.017 24.212 12.8452 24.1147 12.6781 24.0127C12.6435 23.9987 12.612 23.9783 12.5852 23.9525C11.7137 23.3894 10.9978 22.617 10.5029 21.706C10.0081 20.7951 9.75023 19.7747 9.75293 18.7385C9.74427 17.1167 10.3801 15.5576 11.5212 14.403C12.6622 13.2485 14.2153 12.5925 15.84 12.5791C16.4891 12.5786 17.1339 12.685 17.7483 12.8942C17.9968 11.6774 18.616 10.5669 19.5211 9.71482C20.4262 8.86273 21.573 8.31063 22.8045 8.13408C24.036 7.95753 25.292 8.16515 26.4008 8.72853C27.5096 9.29191 28.4168 10.1835 28.9984 11.2814C29.7751 10.7205 30.7095 10.4188 31.6682 10.4193C32.3458 10.4286 33.0133 10.5841 33.625 10.8752C34.2367 11.1662 34.7782 11.5858 35.2121 12.1053C35.6461 12.6248 35.9624 13.2318 36.1393 13.8848C36.3162 14.5378 36.3495 15.2212 36.2369 15.8882C37.1434 16.3194 37.861 17.066 38.2551 17.9878C38.6493 18.9097 38.6929 19.9434 38.3778 20.895C38.0626 21.8467 37.4104 22.6508 36.5435 23.1566C35.6766 23.6623 34.6547 23.8349 33.6693 23.642C33.6693 23.642 31.3014 23.1785 31.3014 25.3846V30.682C31.3017 30.9474 31.2705 31.2118 31.2085 31.4699C31.0833 32.1058 30.7463 32.6808 30.2524 33.1015C29.7585 33.5222 29.1366 33.7638 28.4877 33.7872C26.9555 33.7872 25.7018 32.4385 25.6786 30.7654V30.6959C25.6786 30.4827 25.6786 29.8199 25.6786 28.9347C25.6786 28.0495 25.6786 27.0809 25.6786 26.0427C25.5846 25.9199 25.4523 25.8318 25.3025 25.7924C24.7639 25.658 19.3083 25.7924 19.3083 25.7924C19.3083 25.7924 18.6908 25.5746 18.7698 26.9372C18.7629 27.3849 18.7335 27.8319 18.6815 28.2766" stroke="white"/>
<path d="M73.0795 31.0806H76.7661V40.234C76.7661 41.541 77.1329 42.4988 77.8665 43.1075C78.5667 43.708 79.4599 44.037 80.3831 44.0344C81.2971 44.041 82.1816 43.711 82.8671 43.1075C83.5759 42.4895 83.9319 41.5317 83.935 40.234V31.0806H87.6495V46.9079H83.935V45.2579C82.83 46.5433 81.2823 47.186 79.2919 47.186C77.6857 47.223 76.1226 46.6649 74.9042 45.6194C73.6878 44.5782 73.0795 42.9669 73.0795 40.7855V31.0806Z" fill="white"/>
<path d="M102.517 31.0806H106.343L110.545 41.8839L114.821 31.0806H118.679L112.374 46.9079H108.752L102.517 31.0806Z" fill="white"/>
<path d="M122.161 33.1059C122.896 32.3361 123.787 31.7314 124.774 31.3318C125.761 30.9322 126.822 30.747 127.886 30.7885C128.921 30.7486 129.953 30.9354 130.908 31.3357C131.864 31.736 132.72 32.3402 133.416 33.1059C134.809 34.6507 135.504 36.6127 135.501 38.9919V40.0254H123.577C123.704 41.154 124.237 42.1983 125.077 42.9638C125.897 43.6897 126.962 44.0774 128.058 44.0483C129.915 44.0483 131.294 43.4056 132.195 42.1203L134.744 43.9741C134.04 44.9962 133.079 45.816 131.958 46.3517C130.743 46.932 129.41 47.2254 128.063 47.2091C126.983 47.2507 125.907 47.066 124.903 46.6669C123.899 46.2677 122.991 45.663 122.236 44.8918C121.488 44.1062 120.906 43.1798 120.521 42.1668C120.137 41.1538 119.959 40.0744 119.998 38.9919C119.914 36.822 120.692 34.7069 122.161 33.1059ZM123.61 37.6478H132.056C131.899 36.5806 131.412 35.5889 130.663 34.8114C130.297 34.4499 129.862 34.1671 129.383 33.9805C128.903 33.794 128.391 33.7077 127.877 33.7269C126.827 33.6887 125.804 34.0651 125.031 34.7743C124.25 35.5496 123.75 36.5622 123.61 37.6525V37.6478Z" fill="white"/>
<path d="M140.706 31.0806L144.912 41.782L149.189 31.0806H153.047L144.225 53.2388H140.604L143.12 46.9079L136.88 31.0806H140.706Z" fill="white"/>
<path d="M155.633 24.5457H166.011C167.695 24.4985 169.335 25.0953 170.593 26.2142C171.215 26.7867 171.704 27.4885 172.025 28.27C172.346 29.0516 172.491 29.8939 172.451 30.7376C172.451 32.8046 171.692 34.331 170.175 35.3166C172.243 36.3671 173.277 38.0989 173.277 40.512C173.309 41.3835 173.148 42.2513 172.806 43.0538C172.464 43.8564 171.95 44.574 171.299 45.156C170.036 46.3181 168.374 46.9518 166.656 46.9264H155.633V24.5457ZM165.384 33.815C166.211 33.8565 167.021 33.5718 167.64 33.0225C167.925 32.7581 168.15 32.4362 168.301 32.0781C168.451 31.7201 168.524 31.3342 168.513 30.9461C168.533 30.5532 168.468 30.1607 168.322 29.7952C168.176 29.4297 167.953 29.0999 167.668 28.8281C167.044 28.2901 166.236 28.013 165.412 28.0541H159.459V33.8335L165.384 33.815ZM159.459 43.3994H166.076C166.513 43.4195 166.949 43.3473 167.356 43.1876C167.764 43.0279 168.132 42.7842 168.439 42.4725C168.73 42.169 168.958 41.8106 169.108 41.4183C169.259 41.0259 169.33 40.6076 169.316 40.1876C169.327 39.7706 169.253 39.3557 169.099 38.9679C168.945 38.5801 168.714 38.2272 168.42 37.9306C168.115 37.6226 167.749 37.3812 167.345 37.2217C166.942 37.0621 166.509 36.9879 166.076 37.0036H159.459V43.3994Z" fill="white"/>
<path d="M189.407 33.1059C190.142 32.3361 191.032 31.7314 192.019 31.3318C193.006 30.9322 194.067 30.747 195.132 30.7885C196.167 30.748 197.199 30.9344 198.154 31.3348C199.11 31.7352 199.966 32.3397 200.662 33.1059C202.055 34.6507 202.75 36.6127 202.746 38.9919V40.0254H190.828C190.954 41.154 191.487 42.1983 192.327 42.9638C193.147 43.6897 194.213 44.0774 195.308 44.0483C197.165 44.0483 198.544 43.4056 199.445 42.1203L201.994 43.9741C201.29 44.9962 200.329 45.816 199.208 46.3517C197.993 46.932 196.66 47.2254 195.313 47.2091C194.233 47.2507 193.157 47.066 192.153 46.6669C191.15 46.2677 190.241 45.663 189.486 44.8918C188.739 44.1062 188.156 43.1798 187.772 42.1668C187.387 41.1538 187.209 40.0744 187.248 38.9919C187.163 36.8227 187.939 34.7076 189.407 33.1059ZM190.856 37.6478H199.301C199.144 36.5806 198.657 35.5889 197.908 34.8114C197.543 34.4499 197.107 34.1671 196.628 33.9805C196.149 33.794 195.637 33.7077 195.123 33.7269C194.073 33.6887 193.05 34.0651 192.276 34.7743C191.497 35.5503 190.999 36.5628 190.86 37.6525L190.856 37.6478Z" fill="white"/>
<path d="M207.979 31.0806L211.368 41.68L215.06 31.0806H217.818L221.472 41.68L224.847 31.0806H228.71L223.468 46.9079H219.851L216.402 36.8136L212.924 46.9264H209.302L204.167 31.0806H207.979Z" fill="white"/>
<path d="M232.193 33.106C233.638 31.5611 235.545 30.7886 237.913 30.7886C238.948 30.7481 239.98 30.9345 240.936 31.3349C241.891 31.7353 242.747 32.3398 243.443 33.106C244.868 34.7292 245.615 36.8355 245.532 38.992V40.0255H233.604C233.731 41.1541 234.264 42.1984 235.104 42.9639C235.924 43.689 236.989 44.0766 238.085 44.0484C239.942 44.0484 241.321 43.4057 242.222 42.1204L244.771 43.9742C244.068 44.9974 243.107 45.8174 241.985 46.3518C240.77 46.9326 239.437 47.226 238.089 47.2092C237.01 47.2508 235.934 47.0661 234.93 46.667C233.926 46.2678 233.018 45.6631 232.262 44.8919C231.516 44.1057 230.934 43.1792 230.55 42.1664C230.165 41.1535 229.987 40.0744 230.024 38.992C229.943 36.8216 230.722 34.7066 232.193 33.106ZM233.637 37.6479H242.082C241.926 36.5806 241.439 35.5889 240.69 34.8115C240.324 34.4504 239.888 34.1679 239.409 33.9814C238.93 33.7949 238.418 33.7083 237.904 33.727C236.854 33.6888 235.831 34.0652 235.058 34.7744C234.279 35.551 233.779 36.5629 233.637 37.6526V37.6479Z" fill="white"/>
<path d="M263.663 31.0806L267.875 41.782L272.151 31.0806H276.009L267.188 53.2388H263.566L266.083 46.9079L259.838 31.0806H263.663Z" fill="white"/>
<path d="M91.6242 31.0991H95.2644V33.7408C96.258 31.3679 98.092 30.6727 100.896 30.7932V34.0374H100.683C97.4884 34.0374 95.2597 36.1694 95.2597 40.943V46.9681H91.6242V31.0991ZM176.453 31.0991H180.093V33.7408C181.091 31.3679 182.925 30.6727 185.725 30.7932V34.0374H185.512C182.317 34.0374 180.088 36.1694 180.088 40.943V46.9681H176.453V31.0991ZM248.945 31.0991H252.585V33.7408C253.579 31.3679 255.413 30.6727 258.217 30.7932V34.0374H258.004C254.809 34.0374 252.581 36.1694 252.581 40.943V46.9681H248.945V31.0991Z" fill="white"/>
<path d="M51.6378 43.5061L54.094 40.5909C56.3227 42.5143 58.5421 43.5988 61.43 43.5988C63.9512 43.5988 65.5484 42.4355 65.5484 40.6836V40.6187C65.5484 38.9595 64.6198 38.065 60.3018 37.0732C55.3523 35.8867 52.5664 34.4222 52.5664 30.149V30.0795C52.5664 26.103 55.8909 23.3546 60.4968 23.3546C63.563 23.2947 66.5505 24.3265 68.9239 26.2652L66.7324 29.3472C64.643 27.7946 62.5537 26.9465 60.4271 26.9465C58.0174 26.9465 56.643 28.1469 56.643 29.6995V29.7644C56.643 31.5672 57.7063 32.3459 62.1544 33.4118C67.076 34.6215 69.6622 36.3826 69.6622 40.2294V40.2943C69.6622 44.6323 66.2449 47.2184 61.365 47.2184C57.7708 47.2435 54.2985 45.9183 51.6378 43.5061Z" fill="white"/>
</g>
<defs>
<clipPath id="clip0_1_102">
<rect width="276" height="55" fill="white"/>
</clipPath>
</defs>
</svg>
