<svg width="377" height="439" viewBox="0 0 377 439" fill="none" xmlns="http://www.w3.org/2000/svg">
<g clip-path="url(#clip0_328_103)">
<path opacity="0.6" d="M362.59 439H14.2154C6.42614 439 0 432.57 0 424.776V14.2241C0 6.43009 6.42614 0 14.2154 0H362.59C370.379 0 376.805 6.43009 376.805 14.2241V424.776C377 432.57 370.574 439 362.59 439Z" fill="#FBC108"/>
<path d="M84 322C84 307.641 95.6406 296 110 296H266C280.359 296 292 307.641 292 322C292 336.359 280.359 348 266 348H110C95.6406 348 84 336.359 84 322Z" fill="#3B4045"/>
<path d="M131.591 332L124.583 324.2L131.279 316.4H128.663L122.663 323.312V316.4H120.407V332H122.663V325.04L128.927 332H131.591ZM141.214 320.96V322.664C140.398 321.512 139.126 320.792 137.422 320.792C134.302 320.792 132.07 323.144 132.07 326.48C132.07 329.768 134.302 332.192 137.422 332.192C139.126 332.192 140.398 331.472 141.214 330.296V332H143.374V320.96H141.214ZM137.71 330.152C135.574 330.152 134.182 328.592 134.182 326.48C134.182 324.344 135.574 322.832 137.71 322.832C139.822 322.832 141.214 324.344 141.214 326.48C141.214 328.592 139.822 330.152 137.71 330.152ZM148.419 323V320.96H146.259V332H148.419V326.336C148.419 323.504 150.819 322.856 152.307 322.832V320.792C150.771 320.816 149.283 321.488 148.419 323ZM167.086 320.792C165.718 320.792 164.206 321.296 163.366 322.736C162.622 321.32 161.182 320.792 159.79 320.792C158.614 320.792 157.414 321.248 156.622 322.28V320.96H154.462V332H156.622V325.496C156.622 323.384 157.99 322.688 159.166 322.688C160.366 322.688 161.758 323.384 161.758 325.496V332H163.918V325.496C163.918 323.384 165.262 322.688 166.462 322.688C167.638 322.688 169.03 323.384 169.03 325.496V332H171.19V325.208C171.19 321.896 169.102 320.792 167.086 320.792ZM182.863 320.96V322.664C182.047 321.512 180.775 320.792 179.071 320.792C175.951 320.792 173.719 323.144 173.719 326.48C173.719 329.768 175.951 332.192 179.071 332.192C180.775 332.192 182.047 331.472 182.863 330.296V332H185.023V320.96H182.863ZM179.359 330.152C177.223 330.152 175.831 328.592 175.831 326.48C175.831 324.344 177.223 322.832 179.359 322.832C181.471 322.832 182.863 324.344 182.863 326.48C182.863 328.592 181.471 330.152 179.359 330.152ZM199.84 316.4H192.712V332H194.968V326.168H199.84C202.192 326.168 204.4 324.32 204.4 321.272C204.4 318.248 202.192 316.4 199.84 316.4ZM199.48 323.984H194.968V318.584H199.504C201.016 318.584 202.144 319.736 202.144 321.272C202.144 322.832 200.992 323.984 199.48 323.984ZM211.141 332.216C214.453 332.216 216.757 329.768 216.757 326.48C216.757 323.144 214.453 320.744 211.141 320.744C207.805 320.744 205.477 323.144 205.477 326.48C205.477 329.768 207.805 332.216 211.141 332.216ZM211.141 330.152C209.029 330.152 207.637 328.568 207.637 326.48C207.637 324.368 209.029 322.832 211.141 322.832C213.229 322.832 214.621 324.368 214.621 326.48C214.621 328.568 213.229 330.152 211.141 330.152ZM220.538 318.848C221.162 318.848 221.786 318.344 221.786 317.576C221.786 316.784 221.162 316.352 220.538 316.352C219.914 316.352 219.266 316.784 219.266 317.576C219.266 318.344 219.914 318.848 220.538 318.848ZM221.618 332V320.96H219.458V332H221.618ZM230.225 320.792C228.953 320.792 227.657 321.224 226.817 322.304V320.96H224.657V332H226.817V325.52C226.817 323.48 228.233 322.64 229.601 322.64C230.993 322.64 232.433 323.48 232.433 325.52V332H234.593V325.208C234.593 322.016 232.361 320.792 230.225 320.792ZM242.88 322.616V320.96H240.312V317.576H238.152V320.96H236.64V322.616H238.152V329.168C238.152 330.968 239.16 332 241.008 332H242.76V330.272H241.848C241.08 330.272 240.312 330.056 240.312 328.856V322.616H242.88ZM244.565 329.696C245.117 331.136 246.773 332.312 249.341 332.312C252.101 332.312 253.709 331.112 253.709 328.88C253.709 326.504 250.733 325.832 249.773 325.544C248.789 325.256 247.109 324.992 247.109 323.84C247.109 322.976 247.829 322.424 249.197 322.424C250.613 322.424 251.837 323.144 252.173 323.864L253.637 322.976C253.109 321.752 251.549 320.72 249.269 320.72C246.893 320.72 245.021 321.776 245.021 323.936C245.021 326.264 247.877 326.864 248.837 327.152C249.821 327.44 251.621 327.728 251.621 328.952C251.621 330.032 250.853 330.536 249.365 330.536C247.757 330.536 246.413 329.624 246.077 328.736L244.565 329.696Z" fill="white"/>
</g>
<g clip-path="url(#clip1_328_103)">
<path d="M238.6 215.583C266.178 188.201 266.178 143.805 238.6 116.423C211.022 89.0405 166.309 89.0405 138.731 116.423C111.153 143.805 111.153 188.201 138.731 215.583C166.309 242.966 211.022 242.966 238.6 215.583Z" fill="white"/>
<path d="M188 111L200.348 149.004H240.308L207.98 172.492L220.328 210.496L188 187.008L155.672 210.496L168.02 172.492L135.692 149.004H175.652L188 111Z" fill="#FCD458"/>
</g>
<path d="M303.742 56.0984C303.742 62.2836 308.849 67.3328 315.106 67.3328C308.849 67.3328 303.742 72.382 303.742 78.5672C303.742 72.382 298.634 67.3328 292.377 67.3328C298.634 67.3328 303.742 62.2836 303.742 56.0984Z" fill="url(#paint0_linear_328_103)"/>
<path d="M281.012 55.8459C281.012 72.5948 294.843 86.2673 311.786 86.2673C294.843 86.2673 281.012 99.9398 281.012 116.689C281.012 99.9398 267.181 86.2673 250.238 86.2673C267.181 86.2673 281.012 72.5948 281.012 55.8459Z" fill="url(#paint1_linear_328_103)"/>
<path d="M73.3724 57.8341C73.4428 64.0189 68.3929 69.1259 62.1363 69.197C68.3929 69.1259 73.5576 74.1166 73.628 80.3015C73.5576 74.1166 78.6076 69.0097 84.8641 68.9385C78.6076 69.0097 73.4428 64.0189 73.3724 57.8341Z" fill="url(#paint2_linear_328_103)"/>
<path d="M96.0973 57.3231C96.2878 74.0709 82.6132 87.8998 65.6714 88.0925C82.6132 87.8998 96.5988 101.414 96.7892 118.162C96.5988 101.414 110.273 87.5852 127.215 87.3925C110.273 87.5852 96.2878 74.0709 96.0973 57.3231Z" fill="url(#paint3_linear_328_103)"/>
<defs>
<linearGradient id="paint0_linear_328_103" x1="315.117" y1="67.3756" x2="292.301" y2="67.3756" gradientUnits="userSpaceOnUse">
<stop stop-color="white"/>
<stop offset="1" stop-color="white"/>
</linearGradient>
<linearGradient id="paint1_linear_328_103" x1="311.814" y1="86.3831" x2="250.032" y2="86.3831" gradientUnits="userSpaceOnUse">
<stop stop-color="white"/>
<stop offset="1" stop-color="white"/>
</linearGradient>
<linearGradient id="paint2_linear_328_103" x1="62.1265" y1="69.2399" x2="84.9408" y2="68.9805" gradientUnits="userSpaceOnUse">
<stop stop-color="white"/>
<stop offset="1" stop-color="white"/>
</linearGradient>
<linearGradient id="paint3_linear_328_103" x1="65.6447" y1="88.2087" x2="127.423" y2="87.506" gradientUnits="userSpaceOnUse">
<stop stop-color="white"/>
<stop offset="1" stop-color="white"/>
</linearGradient>
<clipPath id="clip0_328_103">
<rect width="377" height="439" fill="white"/>
</clipPath>
<clipPath id="clip1_328_103">
<rect width="141" height="140" fill="white" transform="translate(118 96)"/>
</clipPath>
</defs>
</svg>
