<svg width="536" height="327" viewBox="0 0 536 327" fill="none" xmlns="http://www.w3.org/2000/svg">
<path d="M511.858 326.145C481.226 326.145 34.9951 326.237 34.7378 325.563L34.6936 325.478C34.6732 325.439 34.6589 325.397 34.6514 325.354C34.4805 325.017 -34.103 230.411 72.5188 164.549C114.235 138.78 69.9059 121.768 103.082 93.0905C141.207 60.1233 182.813 96.5911 225.207 81.6491C232.698 79.0096 240.215 74.7622 247.738 68.2447C252.011 64.5671 256.651 61.3385 261.585 58.6099C262.347 58.1843 263.116 57.7668 263.894 57.3634C266.902 55.8042 269.988 54.4013 273.14 53.1602C275.275 52.3158 277.449 51.535 279.664 50.8177C283.18 49.6803 286.785 48.696 290.478 47.865C295.797 46.6698 301.179 45.7784 306.6 45.1954C308.997 44.9344 311.414 44.7277 313.852 44.5751C361.222 41.5903 414.53 58.383 442.04 82.9278C447.58 87.8716 472.764 113.438 452.912 148.597C440.376 170.791 492.89 191.988 511.548 217.332C558.991 281.766 512.288 325.304 511.858 326.145Z" fill="#FCF1CF"/>
<path d="M535.393 325.197H0.669505C0.334265 325.197 0.0625 325.469 0.0625 325.803V326.01C0.0625 326.345 0.334265 326.616 0.669505 326.616H535.393C535.728 326.616 536 326.345 536 326.01V325.803C536 325.469 535.728 325.197 535.393 325.197Z" fill="#233862"/>
<path d="M392.185 74.7665L386.803 65.9534C386.591 65.6066 386.526 65.1897 386.621 64.7945C386.716 64.3993 386.965 64.0581 387.311 63.8461C387.658 63.6341 388.075 63.5685 388.47 63.6639C388.865 63.7592 389.206 64.0076 389.418 64.3545L393.224 70.5915L403.341 64.6021C403.692 64.3951 404.111 64.3359 404.505 64.4376C404.9 64.5394 405.238 64.7936 405.445 65.1445C405.652 65.4954 405.711 65.9142 405.609 66.3087C405.507 66.7031 405.253 67.0411 404.902 67.2481L392.185 74.7665Z" fill="#3B4045"/>
<path d="M395.797 88.35C391.969 88.3504 388.227 87.2154 385.044 85.0885C381.861 82.9616 379.38 79.9384 377.915 76.4013C376.45 72.8641 376.066 68.9718 376.813 65.2167C377.56 61.4615 379.403 58.0122 382.11 55.3049C384.817 52.5976 388.266 50.754 392.02 50.0071C395.775 49.2603 399.666 49.6438 403.203 51.1091C406.739 52.5745 409.762 55.0558 411.888 58.2394C414.015 61.423 415.15 65.1658 415.149 68.9945C415.143 74.1261 413.103 79.0457 409.475 82.6743C405.847 86.3029 400.928 88.344 395.797 88.35ZM395.797 52.4022C392.516 52.4015 389.308 53.374 386.58 55.1967C383.851 57.0194 381.724 59.6105 380.468 62.6423C379.212 65.6741 378.883 69.0104 379.522 72.2292C380.162 75.4481 381.742 78.4049 384.062 80.7257C386.382 83.0466 389.338 84.6272 392.556 85.2677C395.774 85.9083 399.11 85.5799 402.141 84.3242C405.173 83.0685 407.764 80.9418 409.587 78.2131C411.41 75.4844 412.383 72.2763 412.383 68.9945C412.378 64.5962 410.629 60.3793 407.52 57.2689C404.411 54.1584 400.195 52.4082 395.797 52.4022Z" fill="#3B4045"/>
<path d="M332.25 46.2974L328.926 40.8505C328.861 40.7444 328.818 40.6265 328.799 40.5037C328.779 40.3809 328.784 40.2555 328.814 40.1347C328.843 40.0138 328.896 39.8999 328.969 39.7995C329.042 39.699 329.134 39.614 329.24 39.5492C329.346 39.4844 329.464 39.4412 329.587 39.4219C329.71 39.4027 329.835 39.4078 329.956 39.437C330.077 39.4663 330.191 39.519 330.291 39.5922C330.392 39.6655 330.477 39.7578 330.541 39.8639L332.894 43.7214L339.145 40.0208C339.252 39.9573 339.371 39.9156 339.494 39.898C339.617 39.8804 339.743 39.8873 339.863 39.9182C339.984 39.9491 340.097 40.0034 340.196 40.0781C340.296 40.1527 340.38 40.2463 340.443 40.3534C340.507 40.4605 340.548 40.579 340.566 40.7022C340.584 40.8255 340.577 40.9509 340.546 41.0715C340.515 41.1921 340.461 41.3054 340.386 41.405C340.311 41.5045 340.218 41.5884 340.111 41.6518L332.25 46.2974Z" fill="#3B4045"/>
<path d="M334.483 54.6834C332.117 54.6849 329.804 53.9844 327.836 52.6706C325.868 51.3568 324.334 49.4887 323.427 47.3027C322.521 45.1166 322.284 42.7109 322.745 40.3898C323.206 38.0687 324.346 35.9366 326.019 34.2633C327.692 32.59 329.823 31.4506 332.144 30.9892C334.465 30.5279 336.87 30.7655 339.056 31.6718C341.241 32.5781 343.109 34.1124 344.423 36.0807C345.736 38.0489 346.437 40.3627 346.435 42.7291C346.43 45.8979 345.169 48.9353 342.928 51.176C340.688 53.4167 337.651 54.6779 334.483 54.6834ZM334.483 32.4683C332.456 32.4683 330.474 33.0695 328.788 34.1958C327.103 35.3221 325.789 36.923 325.013 38.7961C324.236 40.6692 324.033 42.7304 324.428 44.7191C324.823 46.7078 325.798 48.5348 327.231 49.969C328.664 51.4033 330.49 52.3804 332.478 52.7769C334.466 53.1734 336.527 52.9714 338.401 52.1965C340.274 51.4216 341.876 50.1086 343.003 48.4235C344.13 46.7383 344.733 44.7567 344.734 42.7291C344.731 40.0109 343.65 37.405 341.728 35.4829C339.806 33.5608 337.201 32.4794 334.483 32.4759V32.4683Z" fill="#3B4045"/>
<path d="M270.749 26.1954L265.647 17.8416C265.458 17.513 265.405 17.1234 265.499 16.7561C265.593 16.3888 265.826 16.0727 266.15 15.8755C266.474 15.6782 266.862 15.6152 267.231 15.7001C267.601 15.7849 267.923 16.0108 268.128 16.3296L271.735 22.2378L281.325 16.5678C281.657 16.3715 282.053 16.3151 282.427 16.411C282.8 16.5069 283.12 16.7472 283.316 17.079C283.512 17.4108 283.569 17.807 283.473 18.1805C283.377 18.5539 283.137 18.8739 282.805 19.0701L270.749 26.1954Z" fill="#3B4045"/>
<path d="M274.173 39.0739C270.544 39.0739 266.997 37.9977 263.98 35.9814C260.963 33.9651 258.611 31.0992 257.223 27.7462C255.834 24.3931 255.471 20.7036 256.179 17.144C256.887 13.5845 258.634 10.3148 261.2 7.7485C263.766 5.18221 267.035 3.43454 270.594 2.7265C274.153 2.01846 277.842 2.38185 281.194 3.77072C284.546 5.15959 287.412 7.51156 289.428 10.5292C291.444 13.5468 292.52 17.0946 292.52 20.7239C292.514 25.5888 290.579 30.2527 287.139 33.6927C283.7 37.1327 279.037 39.0679 274.173 39.0739ZM274.173 4.99534C271.063 4.99534 268.022 5.9178 265.436 7.64608C262.85 9.37436 260.834 11.8308 259.644 14.7049C258.454 17.5789 258.143 20.7414 258.749 23.7924C259.356 26.8435 260.854 29.646 263.053 31.8457C265.252 34.0454 268.054 35.5434 271.105 36.1503C274.156 36.7572 277.317 36.4457 280.191 35.2552C283.064 34.0648 285.521 32.0488 287.248 29.4623C288.976 26.8757 289.899 23.8347 289.899 20.7239C289.894 16.554 288.235 12.5563 285.287 9.60766C282.339 6.65906 278.342 5.00034 274.173 4.99534Z" fill="#3B4045"/>
<path d="M216.789 46.22L213.418 40.6975C213.353 40.5899 213.309 40.4704 213.289 40.3458C213.269 40.2212 213.275 40.094 213.304 39.9714C213.334 39.8488 213.387 39.7333 213.461 39.6313C213.536 39.5294 213.629 39.4431 213.737 39.3773C213.844 39.3115 213.964 39.2676 214.088 39.248C214.213 39.2284 214.34 39.2335 214.463 39.2631C214.585 39.2927 214.701 39.3461 214.803 39.4203C214.905 39.4946 214.991 39.5882 215.057 39.6958L217.441 43.5986L223.779 39.847C223.999 39.7174 224.26 39.6802 224.507 39.7437C224.629 39.7751 224.744 39.8303 224.845 39.906C224.945 39.9818 225.03 40.0767 225.095 40.1853C225.159 40.2939 225.201 40.414 225.219 40.5389C225.236 40.6638 225.229 40.7909 225.198 40.913C225.166 41.0352 225.111 41.15 225.035 41.2508C224.96 41.3516 224.865 41.4365 224.756 41.5007L216.789 46.22Z" fill="#3B4045"/>
<path d="M219.054 54.7306C216.656 54.731 214.311 54.0201 212.317 52.6879C210.323 51.3557 208.769 49.462 207.851 47.2462C206.933 45.0305 206.693 42.5922 207.16 40.2398C207.628 37.8875 208.783 35.7266 210.478 34.0305C212.174 32.3344 214.334 31.1793 216.686 30.7113C219.038 30.2432 221.476 30.4833 223.691 31.401C225.907 32.3188 227.8 33.873 229.133 35.8672C230.465 37.8614 231.176 40.206 231.176 42.6044C231.172 45.8191 229.894 48.9011 227.622 51.1744C225.349 53.4477 222.268 54.7266 219.054 54.7306ZM219.054 32.2113C216.998 32.2113 214.989 32.8209 213.28 33.9632C211.57 35.1054 210.238 36.7289 209.452 38.6283C208.665 40.5277 208.459 42.6178 208.86 44.6342C209.261 46.6507 210.251 48.5029 211.705 49.9567C213.158 51.4104 215.01 52.4005 217.026 52.8015C219.042 53.2026 221.132 52.9968 223.031 52.21C224.93 51.4232 226.553 50.0909 227.695 48.3814C228.837 46.672 229.447 44.6622 229.447 42.6063C229.444 39.8501 228.349 37.2076 226.4 35.2587C224.452 33.3098 221.809 32.2138 219.054 32.2113Z" fill="#3B4045"/>
<path d="M169.433 19.7051L165.215 12.7934C165.128 12.6587 165.068 12.5078 165.04 12.3497C165.012 12.1916 165.016 12.0294 165.051 11.8728C165.087 11.7162 165.153 11.5683 165.247 11.4379C165.341 11.3074 165.46 11.1971 165.597 11.1133C165.734 11.0296 165.886 10.9742 166.045 10.9503C166.204 10.9265 166.366 10.9347 166.521 10.9745C166.677 11.0143 166.823 11.0849 166.951 11.1821C167.078 11.2793 167.185 11.4011 167.265 11.5403L170.249 16.4279L178.186 11.7312C178.322 11.6508 178.472 11.5979 178.628 11.5757C178.785 11.5534 178.944 11.5621 179.097 11.6013C179.25 11.6405 179.393 11.7095 179.52 11.8043C179.646 11.899 179.752 12.0178 179.833 12.1536C179.913 12.2895 179.966 12.4399 179.988 12.5962C180.011 12.7526 180.002 12.9117 179.963 13.0647C179.923 13.2176 179.854 13.3614 179.76 13.4877C179.665 13.614 179.546 13.7204 179.41 13.8008L169.433 19.7051Z" fill="#3B4045"/>
<path d="M172.266 30.3572C169.264 30.3572 166.33 29.4669 163.834 27.7989C161.338 26.1309 159.393 23.7601 158.245 20.9863C157.096 18.2126 156.796 15.1605 157.382 12.216C157.968 9.27155 159.413 6.56699 161.536 4.44438C163.659 2.32176 166.363 0.876441 169.307 0.291199C172.251 -0.294044 175.303 0.00708189 178.076 1.15649C180.849 2.3059 183.219 4.25197 184.886 6.74858C186.553 9.24518 187.442 12.1802 187.442 15.1824C187.436 19.206 185.835 23.0631 182.99 25.9078C180.146 28.7526 176.289 30.3527 172.266 30.3572ZM172.266 2.16784C169.693 2.16746 167.178 2.93012 165.039 4.35936C162.899 5.78861 161.231 7.82026 160.247 10.1974C159.262 12.5746 159.003 15.1905 159.505 17.7143C160.006 20.2382 161.245 22.5567 163.063 24.3766C164.882 26.1965 167.2 27.4362 169.723 27.9388C172.246 28.4414 174.862 28.1844 177.239 27.2002C179.616 26.2161 181.648 24.5491 183.078 22.4099C184.508 20.2708 185.272 17.7556 185.272 15.1824C185.269 11.7326 183.898 8.42491 181.46 5.98503C179.021 3.54514 175.715 2.17234 172.266 2.16784Z" fill="#3B4045"/>
<path d="M115.677 54.0578L110.998 46.3957C110.84 46.0962 110.802 45.7475 110.891 45.4207C110.981 45.0938 111.191 44.8134 111.48 44.6364C111.769 44.4594 112.115 44.3991 112.446 44.4679C112.778 44.5367 113.071 44.7293 113.266 45.0065L116.575 50.4252L125.369 45.2182C125.52 45.1291 125.687 45.0706 125.86 45.0459C126.033 45.0212 126.21 45.0309 126.379 45.0745C126.549 45.118 126.708 45.1945 126.848 45.2996C126.988 45.4047 127.106 45.5363 127.195 45.6869C127.284 45.8376 127.342 46.0043 127.367 46.1776C127.392 46.3509 127.382 46.5274 127.338 46.6969C127.295 46.8664 127.218 47.0257 127.113 47.1657C127.008 47.3057 126.877 47.4236 126.726 47.5127L115.677 54.0578Z" fill="#3B4045"/>
<path d="M118.818 65.8665C115.492 65.8665 112.24 64.88 109.474 63.0316C106.709 61.1833 104.553 58.5562 103.28 55.4826C102.007 52.409 101.674 49.0268 102.323 45.7639C102.972 42.5009 104.574 39.5037 106.926 37.1513C109.278 34.7988 112.275 33.1967 115.537 32.5477C118.799 31.8987 122.181 32.2318 125.254 33.5049C128.327 34.7781 130.954 36.934 132.802 39.7002C134.65 42.4664 135.636 45.7186 135.636 49.0455C135.63 53.5047 133.856 57.7794 130.703 60.9326C127.55 64.0857 123.276 65.86 118.818 65.8665ZM118.818 34.6153C115.966 34.6153 113.177 35.4613 110.806 37.0463C108.434 38.6313 106.585 40.8841 105.494 43.5198C104.402 46.1555 104.117 49.0558 104.673 51.8539C105.23 54.652 106.603 57.2222 108.62 59.2395C110.637 61.2568 113.207 62.6306 116.004 63.1871C118.802 63.7437 121.702 63.4581 124.337 62.3663C126.972 61.2746 129.225 59.4257 130.809 57.0536C132.394 54.6815 133.24 51.8927 133.24 49.0398C133.236 45.2154 131.715 41.5488 129.011 38.8446C126.308 36.1403 122.642 34.6194 118.818 34.6153Z" fill="#3B4045"/>
<path d="M372.348 22.5534L369.689 18.2064C369.637 18.1215 369.603 18.0272 369.587 17.9289C369.572 17.8307 369.576 17.7303 369.599 17.6336C369.623 17.5369 369.665 17.4457 369.723 17.3653C369.782 17.2849 369.856 17.2168 369.941 17.165C370.025 17.1131 370.12 17.0785 370.218 17.063C370.316 17.0476 370.417 17.0516 370.513 17.075C370.61 17.0983 370.701 17.1405 370.781 17.1991C370.862 17.2576 370.93 17.3315 370.982 17.4163L372.871 20.497L377.872 17.5373C377.957 17.4865 378.052 17.4532 378.15 17.439C378.249 17.4249 378.349 17.4303 378.446 17.455C378.542 17.4796 378.633 17.5231 378.712 17.5827C378.792 17.6424 378.859 17.7172 378.91 17.8029C378.961 17.8885 378.994 17.9833 379.008 18.0818C379.022 18.1803 379.017 18.2807 378.992 18.3771C378.968 18.4736 378.924 18.5642 378.864 18.6439C378.805 18.7235 378.73 18.7906 378.644 18.8414L372.348 22.5534Z" fill="#3B4045"/>
<path d="M374.136 29.2723C372.243 29.2727 370.393 28.7117 368.82 27.6604C367.246 26.6091 366.019 25.1146 365.295 23.366C364.571 21.6174 364.381 19.6933 364.75 17.8369C365.119 15.9805 366.03 14.2752 367.369 12.9369C368.707 11.5985 370.412 10.6871 372.268 10.3179C374.124 9.94877 376.048 10.1384 377.796 10.8629C379.544 11.5874 381.038 12.8142 382.09 14.3881C383.141 15.962 383.702 17.8124 383.701 19.7051C383.698 22.2416 382.689 24.6733 380.896 26.4668C379.103 28.2604 376.672 29.2693 374.136 29.2723ZM374.136 11.5063C372.514 11.5059 370.928 11.9867 369.579 12.8878C368.23 13.7889 367.178 15.0698 366.557 16.5686C365.936 18.0674 365.774 19.7167 366.09 21.308C366.406 22.8993 367.187 24.361 368.334 25.5083C369.481 26.6557 370.942 27.4371 372.533 27.7537C374.124 28.0704 375.773 27.9081 377.272 27.2873C378.77 26.6665 380.051 25.6152 380.953 24.2662C381.854 22.9173 382.335 21.3313 382.335 19.7089C382.333 17.5339 381.469 15.4483 379.932 13.9098C378.395 12.3713 376.31 11.5055 374.136 11.5025V11.5063Z" fill="#3B4045"/>
<path d="M238.47 288.049H264.857V207.891H238.47V288.049Z" fill="#8F8F8F"/>
<path d="M149.331 246.503L353.999 246.503C360.399 246.503 365.588 241.314 365.588 234.912V97.3313C365.588 90.9295 360.399 85.7399 353.999 85.7399L149.331 85.7399C142.93 85.7399 137.741 90.9295 137.741 97.3313L137.741 234.912C137.741 241.314 142.93 246.503 149.331 246.503Z" fill="#F0F0F0"/>
<path d="M146.665 221.312L356.666 221.312V68.6317L146.665 68.6317L146.665 221.312Z" fill="white"/>
<path d="M146.665 87.0723L356.666 87.0723V68.6315L146.665 68.6315V87.0723Z" fill="url(#paint0_linear_265_3)"/>
<path d="M331.109 232.839C331.109 236.898 334.978 240.191 339.751 240.191C344.524 240.191 348.392 236.898 348.392 232.839C348.392 228.779 344.524 225.488 339.751 225.488C334.978 225.488 331.109 228.779 331.109 232.839Z" fill="#CCCCCC"/>
<path d="M311.017 285.023H192.309V291.073H311.017V285.023Z" fill="#CCCCCC"/>
<path d="M182.881 74.3678H157.937C156.555 74.3678 155.434 75.489 155.434 76.872V78.832C155.434 80.215 156.555 81.3362 157.937 81.3362H182.881C184.264 81.3362 185.385 80.215 185.385 78.832V76.872C185.385 75.489 184.264 74.3678 182.881 74.3678Z" fill="#F5F7FF"/>
<path d="M271.997 151.325H162.049V155.105H271.997V151.325Z" fill="#E6E6E6"/>
<path d="M243.597 158.133H162.049V161.913H243.597V158.133Z" fill="#E6E6E6"/>
<path d="M213.756 172.926H162.049V176.706H213.756V172.926Z" fill="#E6E6E6"/>
<path d="M254.945 179.735H162.049V183.515H254.945V179.735Z" fill="#E6E6E6"/>
<path d="M249.074 196.001H162.049V199.781H249.074V196.001Z" fill="#E6E6E6"/>
<path d="M268.316 202.808H162.049V206.588H268.316V202.808Z" fill="#E6E6E6"/>
<path d="M159.446 151.325H156.684V161.912H159.446V151.325Z" fill="#3B4045"/>
<path d="M159.446 172.926H156.684V183.513H159.446V172.926Z" fill="#3B4045"/>
<path d="M159.446 196.001H156.684V206.588H159.446V196.001Z" fill="#3B4045"/>
<path d="M308.512 196.21H299.706C297.956 196.21 296.537 197.629 296.537 199.38V208.187C296.537 209.938 297.956 211.357 299.706 211.357H308.512C310.262 211.357 311.681 209.938 311.681 208.187V199.38C311.681 197.629 310.262 196.21 308.512 196.21Z" fill="#3B4045"/>
<path d="M303.629 207.119L299.801 203.782C299.669 203.645 299.593 203.465 299.588 203.275C299.583 203.085 299.65 202.901 299.775 202.758C299.9 202.615 300.074 202.525 300.262 202.504C300.451 202.484 300.64 202.535 300.793 202.648L303.499 205.008L307.359 200.703C307.493 200.553 307.68 200.461 307.881 200.449C308.081 200.437 308.279 200.505 308.429 200.639C308.579 200.772 308.67 200.96 308.683 201.16C308.695 201.361 308.626 201.558 308.493 201.708L303.629 207.119Z" fill="#F3F3F3"/>
<path d="M308.238 188.289H299.98C299.065 188.288 298.188 187.924 297.541 187.277C296.894 186.63 296.53 185.753 296.529 184.838V176.588C296.53 175.673 296.894 174.796 297.541 174.149C298.188 173.501 299.065 173.137 299.98 173.135H308.238C309.153 173.137 310.03 173.501 310.677 174.149C311.323 174.796 311.687 175.673 311.688 176.588V184.846C311.685 185.759 311.32 186.635 310.674 187.28C310.027 187.926 309.151 188.288 308.238 188.289ZM299.98 174.09C299.652 174.09 299.328 174.155 299.026 174.281C298.724 174.407 298.449 174.591 298.218 174.823C297.987 175.055 297.804 175.331 297.679 175.634C297.554 175.936 297.49 176.261 297.491 176.588V184.846C297.492 185.506 297.755 186.138 298.221 186.605C298.688 187.071 299.32 187.334 299.98 187.335H308.238C308.897 187.334 309.53 187.071 309.996 186.605C310.463 186.138 310.725 185.506 310.726 184.846V176.588C310.726 175.928 310.464 175.295 309.997 174.828C309.53 174.361 308.898 174.098 308.238 174.097L299.98 174.09Z" fill="#3B4045"/>
<path d="M331.038 211.364H322.783C321.867 211.364 320.989 211 320.342 210.353C319.694 209.705 319.331 208.827 319.33 207.911V199.656C319.331 198.74 319.695 197.863 320.342 197.215C320.99 196.568 321.867 196.204 322.783 196.203H331.038C331.953 196.204 332.831 196.569 333.477 197.216C334.124 197.863 334.488 198.741 334.489 199.656V207.911C334.489 208.827 334.125 209.704 333.478 210.352C332.831 210.999 331.954 211.363 331.038 211.364ZM322.783 197.165C322.122 197.165 321.489 197.428 321.022 197.895C320.555 198.362 320.292 198.995 320.292 199.656V207.911C320.292 208.572 320.555 209.205 321.022 209.672C321.489 210.139 322.122 210.402 322.783 210.402H331.038C331.699 210.401 332.331 210.139 332.798 209.672C333.264 209.205 333.527 208.572 333.527 207.911V199.656C333.527 198.996 333.264 198.363 332.798 197.896C332.331 197.429 331.699 197.166 331.038 197.165H322.783Z" fill="#3B4045"/>
<path d="M331.313 173.135H322.507C320.757 173.135 319.338 174.554 319.338 176.305V185.112C319.338 186.863 320.757 188.282 322.507 188.282H331.313C333.063 188.282 334.482 186.863 334.482 185.112V176.305C334.482 174.554 333.063 173.135 331.313 173.135Z" fill="#3B4045"/>
<path d="M326.43 184.044L322.601 180.707C322.47 180.57 322.394 180.389 322.389 180.2C322.384 180.01 322.451 179.826 322.576 179.683C322.701 179.54 322.875 179.45 323.063 179.429C323.252 179.409 323.441 179.46 323.594 179.573L326.3 181.935L330.16 177.628C330.297 177.494 330.48 177.417 330.672 177.413C330.863 177.409 331.049 177.478 331.192 177.605C331.335 177.733 331.424 177.91 331.441 178.101C331.458 178.292 331.402 178.482 331.284 178.633L326.43 184.044Z" fill="#F3F3F3"/>
<path d="M331.038 165.214H322.783C321.867 165.214 320.99 164.85 320.342 164.203C319.695 163.556 319.331 162.678 319.33 161.763V153.506C319.331 152.59 319.695 151.713 320.342 151.065C320.99 150.418 321.867 150.054 322.783 150.053H331.038C331.953 150.054 332.831 150.419 333.477 151.066C334.124 151.713 334.488 152.591 334.489 153.506V161.763C334.488 162.678 334.124 163.555 333.477 164.202C332.83 164.849 331.953 165.213 331.038 165.214ZM322.783 151.015C322.122 151.015 321.489 151.278 321.022 151.745C320.555 152.212 320.292 152.845 320.292 153.506V161.763C320.293 162.424 320.556 163.057 321.022 163.523C321.489 163.99 322.122 164.253 322.783 164.254H331.038C331.698 164.253 332.331 163.99 332.797 163.523C333.264 163.056 333.526 162.423 333.527 161.763V153.506C333.527 152.846 333.264 152.213 332.798 151.746C332.331 151.279 331.699 151.016 331.038 151.015H322.783Z" fill="#3B4045"/>
<path d="M308.512 150.06H299.706C297.956 150.06 296.537 151.479 296.537 153.23V162.037C296.537 163.788 297.956 165.207 299.706 165.207H308.512C310.262 165.207 311.681 163.788 311.681 162.037V153.23C311.681 151.479 310.262 150.06 308.512 150.06Z" fill="#3B4045"/>
<path d="M303.629 160.969L299.801 157.632C299.669 157.495 299.593 157.315 299.588 157.125C299.583 156.935 299.65 156.751 299.775 156.608C299.9 156.465 300.074 156.375 300.262 156.354C300.451 156.334 300.64 156.385 300.793 156.498L303.499 158.858L307.359 154.551C307.425 154.477 307.506 154.416 307.595 154.372C307.685 154.329 307.782 154.303 307.881 154.298C307.981 154.292 308.08 154.305 308.175 154.338C308.269 154.371 308.355 154.422 308.43 154.488C308.504 154.554 308.565 154.634 308.608 154.724C308.652 154.813 308.677 154.91 308.683 155.01C308.689 155.109 308.675 155.209 308.643 155.303C308.61 155.397 308.559 155.484 308.493 155.558L303.629 160.969Z" fill="#F3F3F3"/>
<path d="M235.069 247.063C235.069 247.063 235.619 247.962 235.689 248.698C235.741 249.28 236.231 250.149 236.444 250.629C236.658 251.109 237.338 253.275 237.363 253.842C237.363 254.075 236.856 255.532 236.93 255.999C237.004 256.466 237.27 257.388 236.851 257.45C236.431 257.513 235.959 256.755 235.959 256.755C235.969 256.873 235.945 256.992 235.889 257.097C235.833 257.203 235.748 257.289 235.643 257.346C234.955 257.666 234.591 257.386 234.591 257.386C234.591 257.386 234.336 257.857 234.024 257.921C233.321 258.061 232.977 257.779 232.977 257.779C232.748 257.952 232.468 258.041 232.181 258.034C231.999 258.028 231.822 257.974 231.667 257.878C231.512 257.782 231.385 257.647 231.299 257.486C231.299 257.486 230.511 257.645 230.282 257.278C230.054 256.912 230.093 256.522 230.001 256.186C229.908 255.849 229.976 252.848 230.998 250.682C232.021 248.516 230.738 246.409 230.738 246.409L235.069 247.063Z" fill="#EEA886"/>
<path d="M236.067 256.479C236.067 256.479 236.137 253.782 235.428 253.207C234.719 252.633 234.636 253.606 234.636 253.606C234.636 253.606 234.733 252.644 233.958 252.514C233.183 252.383 233.149 253.527 233.149 253.527C233.13 253.424 233.089 253.326 233.03 253.239C232.971 253.153 232.895 253.08 232.806 253.024C232.717 252.969 232.618 252.932 232.514 252.917C232.411 252.902 232.305 252.909 232.204 252.937C231.39 253.09 231.584 254.037 231.584 254.037C231.584 254.037 230.806 253.109 230.301 254.001C229.449 255.513 230.269 257.284 230.269 257.284C230.269 257.284 230.511 257.69 231.286 257.492C231.286 257.492 231.804 258.537 232.964 257.785C232.964 257.785 234.152 258.439 234.585 257.392C234.589 257.392 235.889 258.013 236.067 256.479Z" fill="#DB9C7C"/>
<path d="M244.217 208.212C244.217 208.212 239.6 223.6 238.041 229.276C237.552 231.056 236.369 248.055 236.152 248.743C235.935 249.431 230.088 250.366 230.088 250.366C230.088 250.366 230.797 229.1 230.863 227.94C230.929 226.779 237.323 203.031 239.177 202.183C240.57 201.55 241.307 202.073 243.062 203.377C245.538 205.203 244.217 208.212 244.217 208.212Z" fill="#323657"/>
<path d="M299.796 179.77L289.23 186.685L289.744 187.469L300.309 180.554L299.796 179.77Z" fill="#4DA8F2"/>
<path d="M301.437 183.717C301.392 184.009 301.3 184.292 301.165 184.555C301.165 184.555 300.819 184.969 300.598 185.277C300.538 185.355 300.483 185.437 300.433 185.522C300.216 186.018 299.921 186.475 299.56 186.878C299.058 187.39 297.104 189.011 297.104 189.011L295.426 187.586L293.682 186.806C293.682 186.806 294.659 182.561 295.072 182.032C295.111 181.981 295.153 181.932 295.197 181.886C295.592 181.472 296.059 181.319 296.291 181.13C296.376 181.058 297.272 180.412 297.593 180.495C297.774 180.53 297.942 180.61 298.083 180.727C298.224 180.845 298.332 180.997 298.398 181.168C298.398 181.168 299.258 181.432 299.593 181.935C299.593 181.935 300.392 182.154 300.63 182.899C300.615 182.905 301.403 183.219 301.437 183.717Z" fill="#EFAA88"/>
<path d="M240.47 313.273C240.47 313.273 240.049 316.195 239.996 316.634C239.943 317.072 235.315 316.375 235.315 316.375L234.938 312.897C234.938 312.897 239.892 312.857 240.47 313.273Z" fill="#424773"/>
<path d="M240.047 316.259C240.047 316.259 241.513 318.021 242.932 318.788C244.351 319.556 246.579 319.858 247.418 320.654C248.023 321.221 249.624 323.695 243.732 323.644C237.84 323.593 235.001 323.993 234.37 323.046C233.739 322.1 235.285 316.053 235.285 316.053C235.285 316.053 236.679 316.566 240.047 316.259Z" fill="#292C47"/>
<path d="M273.633 313.273C273.633 313.273 273.211 316.195 273.158 316.634C273.105 317.072 268.478 316.375 268.478 316.375L268.1 312.897C268.1 312.897 273.052 312.857 273.633 313.273Z" fill="#424773"/>
<path d="M273.207 316.259C273.207 316.259 274.673 318.021 276.093 318.788C277.512 319.556 282.729 320.185 283.568 320.979C284.173 321.546 285.18 323.861 276.892 323.644C271.004 323.491 268.162 323.993 267.53 323.046C266.899 322.1 268.443 316.053 268.443 316.053C268.443 316.053 269.758 316.6 273.207 316.259Z" fill="#292C47"/>
<path d="M244.303 238.214C244.303 238.214 239.956 245.125 240.278 251.372C240.599 257.618 238.702 264.437 238.048 270.964C237.32 278.238 234.34 295.46 234.231 299.351C234.121 303.243 234.694 315.668 234.694 315.668L240.659 315.804C240.659 315.804 245.671 285.696 246.969 282.625C248.267 279.554 254.701 257.65 254.919 255.193C255.136 252.736 244.303 238.214 244.303 238.214Z" fill="#292C47"/>
<path d="M267.195 239.147C267.195 239.147 270.473 256.267 270.906 260.091C271.339 263.914 271.626 278.594 271.851 280.983C272.076 283.372 273.871 312.183 274.438 315.804H266.811C266.811 315.804 260.953 294.812 260.953 284.878C260.953 274.944 256.429 263.283 253.51 256.73C250.59 250.177 243.907 250.021 242.111 237.86C242.125 237.86 264.767 235.294 267.195 239.147Z" fill="#292C47"/>
<path d="M251.559 180.115C251.559 180.115 257.396 177.936 260.087 182.383C262.778 186.83 262.519 195.725 259.577 196.819C256.635 197.913 252.217 197.341 250.709 194.551C249.201 191.761 247.844 187.747 247.908 185.065C247.973 182.383 250.027 180.892 251.559 180.115Z" fill="#EEA886"/>
<path d="M258.943 197.017C258.943 197.017 258.701 198.594 259.101 199.37C259.502 200.147 251.543 200.166 251.543 200.166C251.543 200.166 250.896 195.944 249.67 192.376C248.444 188.807 258.943 197.017 258.943 197.017Z" fill="#EEA886"/>
<path d="M249.668 192.376C249.668 192.376 250.218 193.283 252.463 192.931C254.708 192.58 257.442 189.593 258.38 189.265C259.317 188.936 259.324 188.388 259.324 188.388L259.91 189.244L260.904 189.306C260.904 189.306 259.997 186.636 261.367 185.547C262.737 184.458 259.946 176.902 252.75 179.418C252.75 179.418 247.225 180.941 247.425 184.086C247.626 187.231 248.432 190.811 249.668 192.376Z" fill="#D88A51"/>
<path d="M259.577 199.278C259.577 199.278 259.552 197.794 258.879 197.651C258.207 197.507 251.459 196.861 250.633 197.184V198.913C250.633 198.913 252.224 199.892 259.577 199.278Z" fill="#E2D2CA"/>
<path d="M259.176 187.244C259.05 186.717 257.71 185.209 257.196 186.823C256.682 188.437 257.973 190.603 258.691 190.414C259.409 190.225 259.496 188.58 259.176 187.244Z" fill="#EEA886"/>
<path d="M270.738 201.523C266.112 200.913 259.576 199.276 259.576 199.276L250.632 198.913C250.632 198.913 242.423 200.72 239.19 202.179C238.884 202.319 238.882 209.505 238.041 211.389L240.721 217.044C240.721 217.044 242.27 228.248 242.591 233.23C242.739 235.517 239.398 254.678 239.398 254.678C239.398 254.678 242.977 255.732 249.08 256.405C255.184 257.078 270.434 256.161 270.534 255.439C270.634 254.717 267.58 228.588 267.446 227.24C267.24 225.161 268.162 214.126 268.162 214.126C269.572 213.033 281.957 207.288 285.322 204.298C286.226 203.496 290.047 199.782 291.124 198.501C294.962 193.965 298.115 190.066 298.493 189.227C298.928 188.749 294.225 186.212 293.807 186.074C293.44 185.951 288.35 192.708 286.354 194.872C285.462 195.836 281.76 198.529 281.76 198.529C281.76 198.529 273.633 201.689 270.738 201.523Z" fill="#323657"/>
<path d="M249.898 180.641C249.898 180.641 242.456 181.223 249.669 192.376L249.898 180.641Z" fill="#D88A51"/>
<path d="M300.311 180.525L300.921 179.594L299.797 179.741L300.311 180.525Z" fill="#DFE1E8"/>
<path d="M151.303 234.071C151.303 234.071 154.923 234.29 155.938 234.855C156.953 235.42 163.797 233.26 163.924 232.763C164.05 232.266 163.924 232.02 163.924 232.02H150.486L151.303 234.071Z" fill="#DE9673"/>
<path d="M135.046 218.102C135.046 218.102 133.891 227.174 135.046 228.369C139.458 232.905 155.812 232.553 155.812 232.553V234.402C155.812 234.402 130.953 237.503 128.644 232.68C125.868 226.887 126.943 217.437 126.943 217.437L135.046 218.102Z" fill="#DE9673"/>
<path d="M126.843 313.767L128.319 312.083L125.653 309.293L123.402 310.871L126.843 313.767Z" fill="#2F4563"/>
<path d="M123.402 310.871C123.402 310.871 126.445 313.164 127.291 313.254C128.138 313.345 128.537 313.725 128.436 315.014C128.336 316.303 129.672 321.735 130.604 321.818C131.535 321.901 134.706 321.922 135.283 324.014C135.859 326.106 125.22 325.666 124.561 323.952C123.901 322.238 119.323 313.922 119.865 313.252C120.407 312.583 121.841 311.085 123.402 310.871Z" fill="#1E2D40"/>
<path d="M142.918 245.897C142.918 245.897 162.794 280.527 154.727 287.692C151.562 290.501 148.515 293.043 144.145 296.802C141.817 298.802 139.007 301.117 135.675 304.585L135.537 304.73C133.162 307.206 131.191 309.3 130.598 309.947C130.577 309.966 130.558 309.986 130.541 310.007L130.473 310.079L128.26 312.19L125.014 309.336C125.014 309.336 128.695 304.245 130.768 300.334C133.68 294.853 138.574 288.393 140.836 286.592C144.713 283.51 145.781 282.905 145.781 279.956C145.781 276.794 127.563 259.13 127.563 259.13C127.563 259.13 124.917 248.074 131.233 245.182C137.385 242.36 142.918 245.897 142.918 245.897Z" fill="#23344A"/>
<path d="M127.768 319.13C127.768 319.13 127.642 317.535 127.91 316.515C128.179 315.494 123.796 316.082 123.796 316.082C123.796 316.082 123.229 320.34 123.396 321.315C123.562 322.29 127.768 319.13 127.768 319.13Z" fill="#41608A"/>
<path d="M128.586 316.52L122.673 317.582C122.673 317.582 122.248 310.038 122.323 304.258C122.407 298.044 122.095 293.16 123.992 288.214C125.766 283.587 125.362 281.826 125.517 278.667C125.672 275.509 124.005 259.248 124.005 259.248C124.005 259.248 121.985 251.967 126.66 246.83C131.216 241.826 142.998 246.81 142.998 246.81C142.998 246.81 140.542 269.025 134.652 282.767C132.983 286.656 133.884 289.019 131.757 295.027C131.753 295.031 128.522 308.132 128.586 316.52Z" fill="#2F4563"/>
<path d="M133.732 202.888C133.406 203.484 133.17 204.124 133.031 204.789C132.883 205.462 132.777 206.143 132.713 206.828C132.626 207.686 132.587 208.548 132.594 209.41C132.594 209.41 124.709 207.694 126.003 205.855C127.297 204.016 126.534 198.441 126.534 198.441C126.534 198.441 134.754 201.168 133.732 202.888Z" fill="#EEA987"/>
<path d="M138.169 187.696C138.169 187.696 140.187 189.448 139.285 194.5C139.285 194.5 139.731 198.524 140.347 199.225C140.963 199.926 138.694 200.187 138.458 200.692C138.222 201.196 137.768 203.562 136.19 204.988C134.612 206.413 126.776 202.117 126.394 199.696C126.012 197.274 120.585 186.862 129.176 186.386C137.766 185.91 138.169 187.696 138.169 187.696Z" fill="#EEA886"/>
<path d="M143.572 224.972C143.414 225.479 144.015 233.251 143.95 233.922C143.65 237.598 144.6 243.183 144.973 245.186C145.061 245.658 145.111 245.9 145.111 245.9C136.596 250.058 124.753 249.701 124.753 249.701C124.795 249.378 126.454 245.377 126.49 245.071C127.191 240.07 128.226 237.787 127.945 234.405C127.788 232.506 127.304 230.52 126.303 228.059C123.41 220.952 123.568 216.222 124.035 212.317C124.502 208.412 125.677 206.186 125.677 206.186L132.871 206.959C134.398 208.65 135.757 209.552 140.097 213.406C144.729 217.503 145.538 218.747 143.572 224.972Z" fill="#EB4747"/>
<path d="M123.131 320.209C123.131 320.209 127.289 319.026 127.415 318.909C127.542 318.792 127.566 318.543 128.141 318.771C128.715 319 128.951 319.871 129.515 320.147C130.078 320.423 133.513 321.427 135.393 322.353C136.074 322.687 138.95 323.783 139.362 324.7C139.774 325.617 139.647 326.995 134.704 326.668C129.76 326.341 124.354 327.046 123.271 326.498C122.188 325.949 122.848 321.64 123.131 320.209Z" fill="#23344A"/>
<path d="M139.501 192.684C139.501 192.684 140.466 182.194 130.298 184.067C120.13 185.94 125.37 197.405 126.74 201.141C126.74 201.141 126.574 195.339 131.464 195.15C136.354 194.961 137.377 193.827 139.501 192.684Z" fill="#464240"/>
<path d="M130.674 193.676C130.062 192.612 127.963 193.179 128.203 194.81C128.443 196.441 130.124 198.051 130.684 197.267C131.243 196.483 131.579 195.241 130.674 193.676Z" fill="#EEA987"/>
<path d="M130.906 214.284C130.906 214.284 130.067 223.271 131.222 224.46C135.634 228.996 153.044 229.093 153.044 229.093L153.875 231.705C153.875 231.705 127.998 233.468 125.689 228.647C122.913 222.852 123.988 213.402 123.988 213.402L130.906 214.284Z" fill="#EEA987"/>
<path d="M127.075 186.649C127.075 186.649 123.159 182.892 120.374 187.148C117.589 191.404 123.683 197.341 126.151 193.818C128.619 190.295 127.075 186.649 127.075 186.649Z" fill="#464240"/>
<path d="M133.031 204.789C132.883 205.462 132.777 206.143 132.713 206.828C130.092 205.634 128.135 201.984 128.135 201.984C130.024 203.621 133.037 204.799 133.037 204.799L133.031 204.789Z" fill="#A77860"/>
<path d="M170.464 231.705H145.783V233.082H170.464V231.705Z" fill="#6E6760"/>
<path d="M180.349 210.399L169.232 232.439L170.462 233.059L181.579 211.02L180.349 210.399Z" fill="#6E6760"/>
<path d="M149.41 229.093C149.41 229.093 153.03 228.815 154.045 228.097C155.06 227.378 161.906 230.125 162.033 230.76C162.159 231.395 162.033 231.705 162.033 231.705H148.586L149.41 229.093Z" fill="#EEA987"/>
<path d="M125.693 206.182L126.2 204.806L133.11 206.182V207.407L125.693 206.182Z" fill="#EB4747"/>
<path d="M130.895 214.403C130.895 214.403 131.636 209.195 128.011 208.733C124.387 208.272 123.988 213.417 123.988 213.417L130.895 214.403Z" fill="#EEA987"/>
<path d="M367.086 312.596C367.086 312.596 367.505 315.545 367.558 315.987C367.611 316.429 372.239 315.726 372.239 315.726L372.617 312.217C372.617 312.217 367.664 312.181 367.086 312.596Z" fill="#5C544D"/>
<path d="M367.51 315.613C367.51 315.613 366.044 317.389 364.627 318.164C363.209 318.939 360.979 319.245 360.142 320.054C359.536 320.633 357.937 323.124 363.827 323.078C369.717 323.033 372.556 323.432 373.187 322.475C373.818 321.519 372.274 315.426 372.274 315.426C372.274 315.426 370.879 315.919 367.51 315.613Z" fill="#3C4145"/>
<path d="M333.93 312.596C333.93 312.596 334.351 315.545 334.404 315.987C334.457 316.429 339.083 315.726 339.083 315.726L339.461 312.217C339.461 312.217 334.508 312.181 333.93 312.596Z" fill="#5C544D"/>
<path d="M334.355 315.613C334.355 315.613 332.888 317.39 331.469 318.164C330.05 318.939 324.833 319.574 323.996 320.376C323.389 320.954 322.384 323.284 330.67 323.065C336.556 322.912 339.398 323.419 340.029 322.462C340.661 321.506 339.117 315.413 339.117 315.413C339.117 315.413 337.802 315.953 334.355 315.613Z" fill="#3C4145"/>
<path d="M365.442 236.473C365.442 236.473 367.898 243.789 367.581 250.094C367.264 256.399 368.855 263.3 369.507 269.886C370.236 277.231 373.216 294.615 373.324 298.543C373.431 302.47 372.861 315.012 372.861 315.012L366.895 315.15C366.895 315.15 361.886 284.759 360.589 281.657C359.293 278.556 352.857 256.448 352.639 253.969C352.422 251.489 365.442 236.473 365.442 236.473Z" fill="#33373B"/>
<path d="M340.366 237.775C340.366 237.775 337.089 255.057 336.657 258.917C336.224 262.776 335.935 277.592 335.712 280.004C335.489 282.415 334.27 311.567 333.117 315.158H340.742C340.742 315.158 346.6 293.967 346.6 283.94C346.6 273.914 351.122 262.143 354.041 255.526C356.961 248.909 363.643 248.754 365.438 236.481C365.442 236.473 342.794 233.882 340.366 237.775Z" fill="#3C4145"/>
<path d="M355.864 178.713C355.864 178.713 349.853 176.467 347.081 181.043C344.309 185.619 344.577 194.783 347.607 195.91C350.636 197.036 355.19 196.447 356.739 193.583C358.289 190.72 359.693 186.579 359.625 183.812C359.557 181.045 357.442 179.51 355.864 178.713Z" fill="#EEA886"/>
<path d="M348.615 195.628C348.615 195.628 348.859 197.205 348.456 197.981C348.054 198.758 356.015 198.777 356.015 198.777C356.015 198.777 356.661 194.555 357.886 190.986C359.11 187.418 348.615 195.628 348.615 195.628Z" fill="#EEA886"/>
<path d="M357.889 190.986C357.889 190.986 357.339 191.894 355.096 191.542C352.853 191.191 350.117 188.204 349.18 187.877C348.242 187.55 348.235 186.999 348.235 186.999L347.649 187.855L346.653 187.919C346.653 187.919 347.56 185.248 346.192 184.16C344.824 183.071 347.613 175.517 354.807 178.031C354.807 178.031 360.332 179.554 360.132 182.697C359.932 185.84 359.127 189.422 357.889 190.986Z" fill="#FCCCA2"/>
<path d="M347.984 197.887C347.984 197.887 348.011 196.403 348.682 196.261C349.353 196.12 356.102 195.469 356.928 195.795V197.522C356.928 197.522 355.337 198.501 347.984 197.887Z" fill="#E2D2CA"/>
<path d="M348.385 185.849C348.509 185.322 349.849 183.816 350.363 185.43C350.877 187.044 349.588 189.21 348.868 189.021C348.148 188.832 348.065 187.191 348.385 185.849Z" fill="#EEA886"/>
<path d="M347.983 197.887C347.983 197.887 344.285 199.21 340 201.037C340 201.037 335.071 202.878 334.538 208.323C334.255 211.213 331.179 226.551 330.6 227.847C330.022 229.144 323.202 249.992 322.962 250.425C322.722 250.858 328.529 253.26 328.915 253.071C329.3 252.882 335.529 234.058 336.145 232.659C336.145 232.659 339.735 221.374 339.822 219.69C339.822 219.69 339.924 224.487 340.117 225.832C340.309 227.178 336.933 253.311 337.027 254.031C337.122 254.751 352.373 255.668 358.477 254.995C362.2 254.579 365.886 253.885 369.505 252.916C369.505 252.916 364.703 232.292 364.851 230.005C365.172 225.023 366.837 215.641 366.837 215.641L371.812 225.025L365.442 241.417L366.901 246.399C366.901 246.399 378.738 228.509 379.123 226.874C379.509 225.239 378.543 223.158 377.918 221.812C377.292 220.467 373.193 210.223 372.228 208.781C371.262 207.339 369.643 201.565 365.718 199.958C362.436 198.614 356.927 197.513 356.927 197.513L347.983 197.887Z" fill="#EB4747"/>
<path d="M344.844 240.408L316.959 233.257L311.971 252.715L339.857 259.865L344.844 240.408Z" fill="#D6D6D6"/>
<path d="M320.535 254.679C320.535 254.679 319.737 255.968 319.446 256.335C319.155 256.702 320.163 256.932 320.593 256.562C321.024 256.191 320.535 254.679 320.535 254.679Z" fill="#C98462"/>
<path d="M326.341 259.079C326.341 259.079 326.812 258.588 326.908 258.272C326.908 258.272 327.048 257.686 327.172 257.274C327.203 257.168 327.239 257.063 327.282 256.961C327.416 256.666 327.798 256.061 327.921 255.26C328.044 254.458 328.391 250.898 328.391 250.898L326.231 250.353L324.495 249.987C324.495 249.987 320.746 253.727 320.545 254.455C320.526 254.524 320.511 254.594 320.5 254.664C320.39 255.297 320.574 255.813 320.555 256.152C320.555 256.276 320.566 257.516 320.855 257.749C321.007 257.889 321.192 257.987 321.392 258.036C321.592 258.084 321.802 258.08 322 258.025C322 258.025 322.813 258.622 323.491 258.592C323.491 258.592 324.223 259.159 325.054 258.883C325.06 258.883 325.867 259.382 326.341 259.079Z" fill="#DE9D7D"/>
<path d="M334.773 236.513C334.773 236.513 329.824 251.504 328.915 253.077C328.915 253.077 325.285 252.321 322.963 250.431L328.398 234.252L334.773 236.513Z" fill="#EB4747"/>
<path d="M440.54 254.409C440.54 254.409 440.34 250.958 439.425 250.421C438.51 249.884 439.047 250.954 439.047 250.954C439.047 250.954 439.561 253.458 439.674 254.475C439.68 254.522 440.54 254.409 440.54 254.409Z" fill="#1D3B54"/>
<path d="M416.224 181.809C416.224 181.809 424.807 181.094 424.573 190.125C424.338 199.155 422.906 200.52 424.573 206.893C426.239 213.266 416.205 203.27 416.205 203.27L416.224 181.809Z" fill="#434343"/>
<path d="M409.005 206.208C409.005 206.208 396.847 213.795 395.819 212.988C394.381 211.854 390.475 202.234 390.475 202.234L387.416 203.691C387.416 203.691 391.065 220.334 395.98 219.11C400.895 217.885 412.184 210.901 412.184 210.901L409.005 206.208Z" fill="#EEA987"/>
<path d="M425.576 237.609C425.576 237.609 428.737 241.638 429.852 244.303C430.967 246.968 432.827 252.808 432.579 257.344C432.331 261.88 430.844 270.361 431.277 272.275C431.71 274.19 432.144 278.163 432.609 279.525C433.074 280.888 434.934 284.857 435.121 288.947C435.308 293.037 432.517 311.013 432.641 312.687C432.766 314.362 429.48 313.368 429.48 313.368C429.48 313.368 428.365 297.129 427.745 294.339C427.125 291.55 426.383 282.067 425.823 281.385C425.264 280.703 423.745 273.636 423.977 272.523C424.21 271.41 417.892 254.672 417.52 251.325C417.148 247.977 407.828 237.611 407.828 237.611C407.828 237.611 415.975 234.494 425.576 237.609Z" fill="#EEA987"/>
<path d="M410.494 237.609C410.494 237.609 410.333 239.299 410.146 239.918C409.959 240.538 405.685 256.343 405.252 262.409C404.819 268.476 403.703 273.636 403.516 274.934C403.329 276.233 403.705 280.57 404.082 281.686C404.46 282.801 402.225 309.143 402.038 309.763C401.851 310.383 403.525 310.57 404.702 310.383C405.88 310.196 411.817 291.052 411.439 287.83C411.061 284.608 410.694 277.734 411.749 274.942C412.803 272.151 422.284 251.943 422.346 250.703C422.408 249.463 426.456 228.11 410.494 237.609Z" fill="#EEA987"/>
<path d="M429.538 311.391C429.538 311.391 429.233 313.53 428.899 314.114C428.564 314.698 427.65 317.671 427.232 318.227C426.815 318.782 425.898 322.952 427.232 323.451C428.566 323.95 431.705 324.785 432.761 323.118C433.64 321.751 434.004 320.116 433.789 318.505C433.623 317.225 432.355 311.359 432.372 310.778C432.389 310.198 429.538 311.391 429.538 311.391Z" fill="#EEA987"/>
<path d="M427.765 317.072C427.765 317.072 427.622 320.311 430.067 320.311C432.512 320.311 433.595 317.363 433.595 317.363C433.595 317.363 434.428 318.811 433.595 321.899C432.762 324.987 429.289 324.345 428.51 324.233C427.731 324.122 424.045 323.143 427.765 317.072Z" fill="#EB4747"/>
<path d="M402.291 308.482C402.291 308.482 400.562 311.574 399.536 312.2C398.257 312.98 395.776 315.484 394.909 315.602C394.041 315.719 390.923 316.269 391.526 318.03C392.019 319.472 399.463 319.264 400.292 318.542C401.122 317.82 403.639 315.225 404.65 315.282C405.661 315.339 405.287 319.024 405.287 319.024H406.384C406.384 319.024 406.762 315.433 406.815 314.823C406.951 312.999 405.651 311.657 405.593 310.618C405.534 309.578 405.476 308.799 405.476 308.799L402.291 308.482Z" fill="#EB4747"/>
<path d="M395.156 315.517C395.156 315.517 397.613 316.363 399.503 315.279C401.392 314.194 405.009 312.548 406.288 312.536C406.288 312.536 405.591 310.402 405.576 310.162C405.561 309.922 405.485 308.8 405.485 308.8L402.32 308.291C402.32 308.291 400.268 311.315 399.363 312.016C398.458 312.718 396.133 314.496 395.156 315.517Z" fill="#EEA987"/>
<path d="M407.775 237.329C407.775 237.329 406.893 241.001 406.566 242.071C406.239 243.141 404.153 259.728 403.639 270.104C403.639 270.104 416.141 274.844 433.339 274.054C433.339 274.054 433.756 254.995 432.176 249.603C430.597 244.211 427.736 239.164 425.576 237.609C423.656 236.225 407.775 237.329 407.775 237.329Z" fill="#EB4747"/>
<path d="M436.319 246.637C436.139 247.664 435.897 248.679 435.593 249.677C435.124 251.17 434.694 251.646 434.881 252.5C435.022 253.147 435.754 253.634 435.937 253.423C436.12 253.211 436.211 250.707 437.26 250.718C438.309 250.729 436.95 253.827 437.568 253.598C438.186 253.37 440.569 252.066 440.419 250.801C440.27 249.537 439.316 248.622 439.378 246.734C439.433 245.02 438.9 244.303 438.9 244.303L436.319 246.637Z" fill="#EEA987"/>
<path d="M386.59 202.95C386.59 202.95 388.041 204.84 388.935 205.029C389.829 205.218 390.802 203.098 390.802 203.098L390.275 201.179L386.59 202.95Z" fill="#EEA886"/>
<path d="M390.173 202.319C390.173 202.319 390.866 200.143 390.963 199.809C391.059 199.474 390.719 198.486 390.101 197.55C389.612 196.79 389.072 196.063 388.485 195.375C388.347 195.239 388.272 195.084 387.818 195.288C387.528 195.431 387.28 195.647 387.096 195.914C387.096 195.914 386.42 195.914 386.125 196.448C385.928 196.465 385.74 196.539 385.585 196.663C385.43 196.786 385.316 196.953 385.256 197.142C385.256 197.142 384.634 197.176 384.5 197.681C384.642 198.106 384.746 198.542 384.812 198.985C384.823 199.363 385.579 201.253 386.582 202.954C386.59 202.95 388.083 204.235 390.173 202.319Z" fill="#EEA886"/>
<path d="M388.574 199.495C388.574 199.495 387.818 200.365 387.738 200.714C387.659 201.064 385.471 199.769 385.471 199.769C385.471 199.769 387.498 198.613 388.574 199.495Z" fill="#CF8C6C"/>
<path d="M388.599 195.594C388.599 195.594 389.808 198.157 389.404 198.378C389.303 198.444 389.187 198.484 389.067 198.494C388.947 198.504 388.826 198.484 388.716 198.435L388.652 199.72C388.652 199.72 388.128 200.546 387.382 199.735C387.382 199.735 386.974 200.559 386.345 199.69C386.345 199.69 385.834 200.113 385.472 199.762C385.109 199.41 384.508 197.683 384.508 197.683C384.508 197.683 384.544 197.259 385.264 197.144C385.322 196.954 385.436 196.786 385.591 196.662C385.746 196.539 385.935 196.465 386.133 196.45C386.133 196.45 386.511 195.776 387.267 195.745C387.409 195.565 387.604 195.432 387.824 195.366C388.045 195.3 388.28 195.304 388.499 195.377C388.538 195.446 388.572 195.519 388.599 195.594Z" fill="#DB9C7C"/>
<path d="M390.939 199.722C390.939 199.722 389.473 198.433 388.363 198.081C388.112 198.002 387.855 197.97 387.685 198.172C387.515 198.374 387.598 198.879 388.205 199.469C388.811 200.058 389.325 201.102 389.325 201.102C389.325 201.102 390.126 201.525 390.939 199.722Z" fill="#EEA886"/>
<path d="M387.252 195.744C387.252 195.744 388.749 198.407 388.732 198.72C388.715 199.034 389.712 198.499 389.709 198.233C389.705 197.966 388.624 195.587 388.484 195.375C388.344 195.163 387.522 194.995 387.252 195.744Z" fill="#EEA886"/>
<path d="M388.791 195.887C388.791 195.887 386.407 191.436 386.055 191.599C385.545 191.835 385.677 193.067 387.693 196.39C389.649 199.62 388.791 195.887 388.791 195.887Z" fill="#EEA886"/>
<path d="M408.353 215.434L403.439 208.919C403.439 208.919 412.215 202.115 414.923 206.443C414.927 206.45 415.119 213.566 408.353 215.434Z" fill="#323657"/>
<path d="M405.406 215.203C405.544 217.388 406.66 219.2 406.846 219.99C407.031 220.78 406.846 222.593 407.078 224.407C407.31 226.222 408.008 234.867 407.775 237.329C407.543 239.792 424.684 238.681 425.984 237.938C425.984 237.938 423.097 232.774 423.019 230.637C422.993 229.902 422.556 227.613 423.764 225.94C424.401 225.057 425.583 222.245 426.766 220.191C427.224 219.393 427.711 218.597 428.038 218.006C428.326 217.47 428.554 216.904 428.718 216.318C428.718 216.318 429.474 206.834 427.396 205.766C425.317 204.698 424.183 204.511 422.144 204.417C420.995 204.379 419.853 204.208 418.743 203.906L413.954 204.417C413.954 204.417 410.888 205.487 409.678 205.579C408.469 205.672 406.936 208.276 407.076 209.949C407.216 211.621 405.266 213.018 405.406 215.203Z" fill="#323657"/>
<path d="M437.147 250.614C437.147 250.614 435.762 250.967 435.845 255.651L437.412 255.388C437.412 255.388 437.384 252.801 437.852 251.389C437.852 251.389 437.771 250.474 437.147 250.614Z" fill="#1D3B54"/>
<path d="M431.4 256.707L443.608 253.243L443.572 268.282L431.423 275.564L431.4 256.707Z" fill="#1D3B54"/>
<path d="M431.422 275.564L432.951 275.846L444.769 268.495L444.621 253.313L443.606 253.243L431.422 275.564Z" fill="#1D3B54"/>
<path d="M425.352 204.895C425.352 204.895 429.154 204.882 430.874 208.229C432.594 211.576 432.781 215.108 433.198 216.356C433.616 217.603 434.71 224.995 435.128 226.065C435.545 227.135 438.032 234.392 438.637 238.482C439.019 241.215 439.263 243.966 439.368 246.724L436.318 246.628C436.318 246.628 433.295 235.498 432.248 232.848C431.356 230.58 431.014 226.628 430.502 225.235C429.99 223.842 426.83 214.031 426.18 213.328C425.53 212.625 422.11 205.505 425.352 204.895Z" fill="#EEA886"/>
<path d="M426.597 218.459L434.345 216.019C434.345 216.019 431.97 204.591 425.352 204.895C420.044 205.141 426.597 218.459 426.597 218.459Z" fill="#323657"/>
<path d="M417.064 182.723C414.936 182.374 410.072 182.912 408.689 188.493C408.692 189.429 408.769 190.363 408.92 191.287C409.152 192.531 407.673 195.948 407.933 196.154C408.194 196.36 409.328 196.721 409.328 196.721C409.328 196.721 410.133 200.733 411.495 200.854C412.858 200.975 418.109 200.503 421.091 195.967C424.073 191.431 425.653 184.129 417.064 182.723Z" fill="#EEA886"/>
<path d="M413.533 199.297C413.533 199.297 413.637 199.864 413.735 200.684C413.784 201.105 413.834 201.597 413.864 202.117C413.949 203.557 413.905 205.224 413.414 206.275C413.414 206.275 416.078 207.927 418.938 203.954C418.938 203.954 418.658 198.996 420.298 196.377C421.938 193.757 413.533 199.297 413.533 199.297Z" fill="#EEA886"/>
<path d="M408.689 188.495C408.689 188.495 411.891 191.262 415.283 192.134C418.674 193.005 420.47 196.817 420.47 196.817C420.47 196.817 426.469 190.83 422.849 185.02C419.228 179.21 408.695 181.799 408.689 188.495Z" fill="#434343"/>
<path d="M413.734 200.684C413.784 201.105 413.833 201.597 413.863 202.117C415.618 201.282 417.194 200.113 418.502 198.675C416.745 199.936 413.734 200.684 413.734 200.684Z" fill="#A77860"/>
<path d="M415.906 192.33C415.906 192.33 419.376 201.661 418.96 203.907C418.96 203.907 420.797 203.591 424.062 204.591C424.066 204.591 422.486 187.945 415.906 192.33Z" fill="#434343"/>
<path d="M420.117 204.207C420.117 204.207 418.984 211.2 414.745 210.414C410.506 209.627 413.725 204.496 413.725 204.496C413.725 204.496 415.376 203.014 420.117 204.207Z" fill="#EEA886"/>
<path d="M337.585 117.216C337.586 121.63 336.277 125.945 333.826 129.615C331.374 133.286 327.889 136.146 323.812 137.836C319.735 139.525 315.248 139.967 310.92 139.106C306.591 138.245 302.615 136.12 299.494 132.998C296.374 129.877 294.249 125.901 293.388 121.571C292.527 117.242 292.969 112.755 294.658 108.677C296.347 104.599 299.207 101.113 302.877 98.661C306.546 96.209 310.861 94.9003 315.274 94.9007C318.208 94.8882 321.114 95.4569 323.827 96.5739C326.54 97.6909 329.004 99.3342 331.078 101.409C333.153 103.483 334.796 105.948 335.912 108.662C337.029 111.375 337.598 114.282 337.585 117.216Z" fill="#EEF0F7"/>
<path d="M331.232 129.182C331.112 129.099 330.986 129.026 330.854 128.962L330.833 128.947C329.855 128.407 326.984 126.98 321.323 125.356C320.297 125.042 319.52 124.838 319.244 124.77L318.764 124.014C318.702 123.12 318.689 122.224 318.726 121.329C319.524 120.402 320.238 118.957 320.648 116.7C320.777 116.798 320.877 116.587 320.877 116.587C320.805 116.458 321.954 113.655 321.746 113.022C321.629 112.665 321.391 112.71 321.204 112.814C321.232 112.65 321.26 112.48 321.291 112.3C321.291 112.3 321.746 108 319.569 105.606C319.344 105.39 318.543 105.335 318.543 105.335C315.049 104.266 312.953 104.744 311.642 105.305C309.696 106.9 309.548 109.612 309.637 111.107C309.677 111.461 309.716 111.816 309.756 112.164C309.773 112.302 309.788 112.436 309.805 112.57C309.616 112.459 309.386 112.402 309.254 112.759C309.021 113.383 309.87 116.184 309.975 116.35C309.975 116.35 310.164 116.638 310.302 116.507C310.705 118.964 311.436 120.476 312.192 121.421C312.137 122.419 312.003 123.593 311.891 124.343L311.028 125.245C310.983 125.257 310.937 125.272 310.892 125.29C301.124 127.896 298.365 129.711 298.365 129.711C298.12 129.862 297.868 130.266 297.609 130.867C299.647 133.505 302.249 135.653 305.226 137.154C308.202 138.654 311.477 139.468 314.809 139.536C318.141 139.605 321.446 138.925 324.481 137.549C327.517 136.172 330.205 134.132 332.349 131.58C331.935 130.546 331.633 129.582 331.232 129.182Z" fill="#3B4045"/>
<path d="M158.528 99.6313H158.129V137.343H158.528V99.6313Z" fill="#E0E0E0"/>
<path d="M186.938 99.6313H186.539V137.343H186.938V99.6313Z" fill="#E0E0E0"/>
<path d="M215.346 99.6313H214.947V137.343H215.346V99.6313Z" fill="#E0E0E0"/>
<path d="M243.758 99.6313H243.359V137.343H243.758V99.6313Z" fill="#E0E0E0"/>
<path d="M272.166 99.6313H271.768V137.343H272.166V99.6313Z" fill="#E0E0E0"/>
<path d="M162.848 139.577H158.328V140.886H162.848V139.577Z" fill="#B8B8B8"/>
<path d="M165.133 94.9839H158.328V95.9667H165.133V94.9839Z" fill="#D9D9D9"/>
<path d="M167.981 96.802H158.328V97.7848H167.981V96.802Z" fill="#D9D9D9"/>
<path d="M194.421 94.9839H186.432V95.9667H194.421V94.9839Z" fill="#D9D9D9"/>
<path d="M191.539 96.802H186.432V97.7848H191.539V96.802Z" fill="#D9D9D9"/>
<path d="M220.299 94.9839H215.348V95.9667H220.299V94.9839Z" fill="#D9D9D9"/>
<path d="M221.119 96.802H215.348V97.7848H221.119V96.802Z" fill="#D9D9D9"/>
<path d="M250.969 94.9839H243.758V95.9667H250.969V94.9839Z" fill="#D9D9D9"/>
<path d="M249.529 96.802H243.758V97.7848H249.529V96.802Z" fill="#D9D9D9"/>
<path d="M276.275 94.9839H271.969V95.9667H276.275V94.9839Z" fill="#D9D9D9"/>
<path d="M275.416 96.802H271.969V97.7848H275.416V96.802Z" fill="#D9D9D9"/>
<path d="M191.258 139.577H186.738V140.886H191.258V139.577Z" fill="#B8B8B8"/>
<path d="M219.868 139.577H215.348V140.886H219.868V139.577Z" fill="#B8B8B8"/>
<path d="M248.278 139.577H243.758V140.886H248.278V139.577Z" fill="#B8B8B8"/>
<path d="M276.688 139.577H272.168V140.886H276.688V139.577Z" fill="#B8B8B8"/>
<path d="M262.124 126.137C253.261 126.137 245.559 122.691 237.528 119.098C227.615 114.664 217.363 110.077 203.703 111.334C194.984 112.139 189.508 115.332 184.68 118.15C180.305 120.703 176.176 122.946 170.571 123.139C161.522 123.449 158.381 119.977 158.328 119.765V117.537C158.339 117.575 160.316 121.472 170.562 121.425C175.607 121.402 179.33 119.229 183.642 116.713C188.654 113.789 194.332 110.476 203.512 109.629C217.717 108.323 228.219 113.022 238.376 117.567C249.004 122.321 259.146 126.779 271.969 122.91V124.744C268.314 125.844 265.389 126.137 262.124 126.137Z" fill="#3B4045"/>
<path d="M208.933 125.71C202.393 125.71 197.206 121.754 192.127 117.879C188.276 114.942 184.281 111.939 179.668 110.459C165.594 105.938 158.392 114.192 158.328 114.266V111.761C158.406 111.676 159.689 110.176 163.406 108.737C166.788 107.433 172.465 106.392 180.294 108.843C185.254 110.395 189.373 113.536 193.359 116.575C201.439 122.739 208.419 128.063 220.54 119.724C229.722 113.41 238.374 107.39 246.889 105.192C255.219 103.041 263.896 104.615 272.022 111.928L271.961 114.207C254.697 98.6089 239.996 108.492 221.696 121.085C216.847 124.424 212.669 125.71 208.933 125.71Z" fill="url(#paint1_linear_265_3)"/>
<defs>
<linearGradient id="paint0_linear_265_3" x1="146.664" y1="77.851" x2="356.664" y2="77.851" gradientUnits="userSpaceOnUse">
<stop stop-color="#FFBC55"/>
<stop offset="1" stop-color="#FFD055"/>
</linearGradient>
<linearGradient id="paint1_linear_265_3" x1="158.328" y1="115.007" x2="272.029" y2="115.007" gradientUnits="userSpaceOnUse">
<stop stop-color="#EEF0F7"/>
<stop offset="1" stop-color="#EEF0F7"/>
</linearGradient>
</defs>
</svg>
