<svg width="68" height="58" viewBox="0 0 68 58" fill="none" xmlns="http://www.w3.org/2000/svg">
<g clip-path="url(#clip0_1402_3)">
<path d="M34.2367 58.4693H8.11452C6.31806 58.4693 6.28416 58.3455 6.17118 56.5508C5.9678 53.2764 6.7361 50.4521 9.798 48.7586C10.8882 48.131 12.1157 47.7776 13.374 47.7291C27.2598 47.6616 41.1457 47.6784 55.0259 47.6897C56.9257 47.7099 58.7426 48.467 60.0908 49.8002C61.4389 51.1333 62.212 52.9374 62.2457 54.8292C62.2457 58.9531 62.6355 58.458 58.6697 58.4636C50.5235 58.4749 42.3791 58.4768 34.2367 58.4693Z" fill="black"/>
<path d="M68.679 21.1183C65.6699 28.7616 62.6958 36.44 59.6867 44.0833C59.0568 45.661 58.602 46.0116 56.8875 46.0116C41.9468 46.0116 27.0061 46.0116 12.0655 46.0116C10.3509 46.0116 9.89608 45.6961 9.23127 44.1183C6.25714 36.7205 3.24801 29.3226 0.27387 21.8897C-0.320958 20.4171 0.0639305 19.225 1.32357 18.7692C2.30328 18.3836 3.10805 18.7692 3.80785 19.4705C7.30683 22.9415 10.8058 26.4125 14.2698 29.9186C14.4448 30.0939 14.5497 30.3043 14.8297 30.6549C14.9696 30.2342 15.0746 30.0589 15.1096 29.8485C16.1943 26.658 17.2789 23.5025 18.3286 20.3119C18.9934 18.3836 20.3231 17.9278 22.0376 19.0848C24.2069 20.5223 26.3763 21.9948 28.6856 23.5025C29.6654 20.0665 30.6451 16.6656 31.6248 13.2296C29.7003 12.318 28.3707 10.9156 27.7409 8.84698C27.321 7.40948 27.321 5.97198 27.8459 4.56954C28.8956 1.65948 31.6598 -0.163694 34.8439 0.0116113C37.643 0.151855 40.3023 2.39576 41.0021 5.20064C41.6669 7.93539 40.6872 11.4415 37.0132 13.2647C37.9579 16.6305 38.9377 19.9613 39.9174 23.3973C40.1973 23.222 40.3722 23.1168 40.5822 22.9766C42.5066 21.6793 44.4661 20.382 46.3905 19.0848C48.175 17.8927 49.4696 18.3485 50.1694 20.347C51.2541 23.5375 52.3388 26.693 53.3885 29.8836C53.4585 30.0939 53.5634 30.3043 53.8433 30.6549C53.9833 30.4445 54.0533 30.1991 54.2282 30.0238C57.7622 26.4826 61.2962 22.9766 64.8302 19.4354C65.7399 18.5238 66.6496 18.2784 67.5244 18.8394C68.0142 19.1549 68.2942 19.786 68.679 20.2418C68.679 20.5924 68.679 20.8729 68.679 21.1183ZM21.6527 23.8531C21.5827 23.9583 21.5477 23.9933 21.5127 24.0634C20.463 27.1839 19.3783 30.3394 18.3286 33.4598C18.2587 33.6701 18.3986 34.0208 18.5736 34.161C20.1131 35.7387 21.6877 37.2464 23.2272 38.8241C23.4721 39.0695 23.6471 39.4202 23.857 39.7006C23.927 39.6305 24.032 39.5955 24.102 39.5253C25.2216 35.5985 26.3413 31.6717 27.496 27.7448C25.5016 26.4476 23.5771 25.1503 21.6527 23.8531ZM46.8804 23.818C45.0959 25.0101 43.3814 26.1671 41.6319 27.2891C41.247 27.5345 41.107 27.7799 41.247 28.2357C42.1567 31.286 42.9965 34.3363 43.9062 37.3866C44.1162 38.0878 44.3261 38.8241 44.571 39.7006C46.4955 37.7372 48.3149 35.9141 50.0644 34.0558C50.1694 33.9506 50.1694 33.6 50.0994 33.3897C49.6796 32.1275 49.2597 30.8302 48.8048 29.568C48.21 27.7448 47.5452 25.8165 46.8804 23.818Z" fill="black"/>
</g>
<defs>
<clipPath id="clip0_1402_3">
<rect width="68" height="58" fill="white"/>
</clipPath>
</defs>
</svg>
