<?xml version="1.0" encoding="utf-8"?>
<!-- Generator: Adobe Illustrator 24.3.0, SVG Export Plug-In . SVG Version: 6.00 Build 0)  -->
<svg version="1.1" id="Layer_1" xmlns="http://www.w3.org/2000/svg" xmlns:xlink="http://www.w3.org/1999/xlink" x="0px" y="0px"
	 viewBox="0 0 1080 1080" style="enable-background:new 0 0 1080 1080;" xml:space="preserve">
<style type="text/css">
	.st0{fill:#FFFFFF;}
</style>
<g>
	<path class="st0" d="M296,739.8c19.7-34.1,39.5-68.2,59-102.4c3.4-5.9,7.6-8.5,14.5-8.5c113.9,0.1,227.8,0.1,341.6,0
		c6.9,0,11.2,2.5,14.6,8.4c18.3,32.2,36.9,64.2,55.4,96.2c0.9,1.5,1.8,3,2.5,4.6c3,7-1.3,14.2-9,14.9c-1.4,0.1-2.9,0.1-4.3,0.1
		c-153.3,0-306.7,0-460,0.1c-6.6,0-11.4-1.8-14.4-7.7C296,743.6,296,741.7,296,739.8z"/>
	<path class="st0" d="M540.3,595.7c-46.6,0-93.2,0.1-139.8-0.1c-3.4,0-7.4-1.1-10.1-3c-4.4-3.1-4.5-8.6-1-14.6
		c12.6-21.9,25.2-43.8,37.8-65.6c4-7,8.1-14,12.1-21.1c2.5-4.4,6.1-6.6,11.2-6.6c59.8,0.1,119.6,0.1,179.4,0c5.2,0,8.7,2.2,11.2,6.6
		c16.7,29,33.5,58,50.2,87.1c5.3,9.2,0.4,17.3-10.4,17.3C634.1,595.7,587.2,595.7,540.3,595.7z"/>
	<path class="st0" d="M540.3,451.3c-19.1,0-38.2,0.1-57.2,0c-8.7,0-13.7-5.1-12.4-12.5c0.3-1.8,1.2-3.6,2.1-5.3
		c19.1-33.2,38.2-66.3,57.4-99.4c5.2-9,15.1-9,20.4,0.1c19.2,33.1,38.3,66.3,57.4,99.5c5.5,9.5,0.7,17.6-10.4,17.7
		C578.4,451.4,559.3,451.3,540.3,451.3z"/>
</g>
</svg>
