<svg width="100" height="18" viewBox="0 0 100 18" fill="none" xmlns="http://www.w3.org/2000/svg">
<path d="M11.1653 14.7404H10.3027C9.86674 14.7285 9.45328 14.5425 9.1531 14.2233C8.85293 13.9041 8.69058 13.4776 8.70171 13.0377V9.35382C8.70171 8.4137 9.41766 7.64767 10.2958 7.64767H11.1584C12.0365 7.64767 12.7507 8.4137 12.7507 9.35382V13.0377C12.7576 13.9761 12.0434 14.7404 11.1653 14.7404ZM10.2958 8.51119C10.0795 8.51802 9.87468 8.61109 9.72625 8.77001C9.57783 8.92893 9.49788 9.14074 9.50392 9.35904V13.0377C9.49834 13.2557 9.5785 13.4671 9.72688 13.6256C9.87525 13.7842 10.0798 13.877 10.2958 13.8838H11.1584C11.2658 13.8813 11.3718 13.8574 11.47 13.8135C11.5683 13.7696 11.6571 13.7065 11.7311 13.6279C11.8052 13.5493 11.8631 13.4567 11.9016 13.3554C11.9401 13.2541 11.9584 13.1461 11.9554 13.0377V9.35382C11.9605 9.13658 11.8803 8.9261 11.7323 8.76826C11.5843 8.61043 11.3805 8.51802 11.1653 8.51119H10.2958Z" fill="#3B4045"/>
<path d="M8.60647 7.2369V17.2892C8.60568 17.4192 8.62788 17.5484 8.67202 17.6705C9.02505 17.6056 9.34569 17.4214 9.58119 17.1482C9.90215 16.7778 10.1378 16.3402 10.2713 15.8669C10.3196 15.7084 10.361 15.543 10.3955 15.3724C10.4179 15.2802 10.4421 15.174 10.4697 15.0608V7.2369C10.4697 6.83996 10.2782 6.51962 10.0401 6.51962H9.04121C8.80314 6.51962 8.60647 6.83996 8.60647 7.2369Z" fill="#FBC108"/>
<path d="M3.38933 9.71237V17.3726C3.38997 17.4735 3.36692 17.5732 3.32205 17.6634L3.25477 17.6529C2.94426 17.6003 2.65349 17.4644 2.41288 17.2595C2.10666 16.9955 1.86964 16.6595 1.72281 16.281C1.67368 16.1584 1.6322 16.0328 1.5986 15.905L1.52441 15.6665V9.71237C1.52441 9.41119 1.71763 9.16571 1.95571 9.16571H2.96494C3.19611 9.16571 3.38933 9.41119 3.38933 9.71237Z" fill="#FFBC00"/>
<path d="M3.80566 8.14378V17.6982C4.42521 17.7619 5.0479 17.7892 5.67058 17.78C5.67234 17.7446 5.67234 17.7092 5.67058 17.6738V8.14378C5.67058 7.7747 5.47736 7.47525 5.24101 7.47525H4.23696C3.99888 7.47525 3.80566 7.7747 3.80566 8.14378Z" fill="#FBC108"/>
<path d="M3.38934 9.55579V17.3431C3.38927 17.4024 3.37731 17.461 3.35419 17.5154C3.33106 17.5699 3.29724 17.6191 3.25477 17.66C2.94427 17.6074 2.65349 17.4715 2.41288 17.2665C2.10667 17.0026 1.86965 16.6665 1.72281 16.2881C1.67368 16.1655 1.6322 16.0399 1.5986 15.9121L1.52442 15.6735V9.55579C1.52396 9.43973 1.56909 9.32822 1.64992 9.24567C1.73075 9.16311 1.84071 9.11625 1.95571 9.11533H2.96494C3.07874 9.11806 3.18694 9.16573 3.26629 9.24808C3.34564 9.33044 3.38982 9.44092 3.38934 9.55579Z" fill="#FBC108"/>
<path d="M6.23145 10.7188V17.6374C6.23144 17.6854 6.2433 17.7327 6.26595 17.7749C7.01295 17.7645 7.67887 17.7401 8.08946 17.7209C8.09792 17.6939 8.102 17.6657 8.10154 17.6374V10.7188C8.08897 10.6157 8.03705 10.5217 7.95683 10.4566C7.8766 10.3916 7.7744 10.3607 7.67197 10.3706H6.66101C6.55849 10.3603 6.45605 10.391 6.37572 10.4561C6.2954 10.5212 6.24359 10.6155 6.23145 10.7188Z" fill="#FBC108"/>
<path d="M3.48432 7.59717C3.43084 8.16298 3.1203 8.67135 2.55099 8.67135C2.40962 8.67021 2.26986 8.64098 2.13968 8.58533C2.00951 8.52968 1.89146 8.4487 1.7923 8.34701C1.69314 8.24533 1.61479 8.12492 1.56174 7.99268C1.50869 7.86044 1.48197 7.71894 1.48311 7.57628C1.48231 7.51801 1.48635 7.45977 1.49518 7.40218V6.48295C1.51243 6.44331 1.51671 6.39916 1.5074 6.3569C1.49809 6.31463 1.47569 6.27646 1.44343 6.24792C1.37787 6.21485 1.31404 6.17829 1.25193 6.13998C1.23911 6.13473 1.2274 6.12704 1.21743 6.11735C0.893628 5.90583 0.627608 5.61568 0.443748 5.27349C0.259888 4.9313 0.164069 4.54802 0.165071 4.15877C0.161854 3.54955 0.398119 2.9639 0.822079 2.53019C1.24604 2.09648 1.8231 1.85008 2.42678 1.84502C2.66798 1.84483 2.90755 1.88483 3.13583 1.96341C3.22818 1.50631 3.45825 1.08918 3.79455 0.769097C4.13084 0.449015 4.55693 0.241624 5.01451 0.175303C5.47209 0.108983 5.9388 0.186974 6.35077 0.398604C6.76274 0.610233 7.09984 0.945162 7.31594 1.35755C7.60454 1.14685 7.95171 1.03352 8.30792 1.03373C8.55968 1.03723 8.80771 1.09565 9.035 1.20496C9.26229 1.31428 9.46346 1.47192 9.62471 1.66706C9.78597 1.8622 9.90349 2.09023 9.96921 2.33551C10.0349 2.58079 10.0473 2.83751 10.0055 3.08807C10.3423 3.25006 10.6089 3.5305 10.7554 3.87678C10.9018 4.22306 10.918 4.61136 10.8009 4.96884C10.6838 5.32631 10.4415 5.62838 10.1194 5.81837C9.79731 6.00835 9.41757 6.07318 9.05147 6.00071C9.05147 6.00071 8.17163 5.82661 8.17163 6.65531V8.64523C8.17173 8.74492 8.16015 8.84426 8.13712 8.9412C8.09059 9.18008 7.96539 9.39608 7.78186 9.5541C7.59834 9.71213 7.36726 9.8029 7.12617 9.81168C6.55686 9.81168 6.09106 9.30506 6.08244 8.67657V8.65045C6.08244 8.57037 6.08244 8.32141 6.08244 7.98889C6.08244 7.65636 6.08244 7.2925 6.08244 6.90253C6.04751 6.85638 5.99834 6.8233 5.9427 6.80851C5.74258 6.75803 3.71549 6.80851 3.71549 6.80851C3.71549 6.80851 3.48604 6.72669 3.51537 7.23853C3.51283 7.40669 3.50189 7.57462 3.48259 7.74167" fill="white"/>
<path d="M7.12535 9.99273C6.82328 9.97906 6.53589 9.85734 6.31462 9.64936C6.09335 9.44138 5.95266 9.16072 5.91773 8.85762H5.89703V8.64522C5.89703 8.56688 5.89703 8.31792 5.89703 7.98539C5.89703 7.69465 5.89703 7.34124 5.89703 6.98434C5.76591 6.95648 4.6894 6.96519 3.71985 6.98434C3.70038 7.06046 3.69512 7.13957 3.70432 7.21763C3.70949 7.34747 3.70198 7.47751 3.6819 7.60586L3.67155 7.68595V7.71032C3.56976 8.40671 3.14537 8.84195 2.56916 8.84195C2.23483 8.83919 1.91523 8.70275 1.68045 8.46255C1.44566 8.22235 1.31484 7.89799 1.31668 7.5606C1.31746 7.50238 1.32149 7.44426 1.32875 7.3865V6.42201L1.34428 6.40112C1.28907 6.37326 1.23732 6.34192 1.18556 6.31059C1.16294 6.29955 1.14155 6.28613 1.12173 6.27054C0.677335 5.97543 0.338227 5.5445 0.154053 5.04084C-0.0301215 4.53719 -0.0496888 3.98726 0.0982155 3.47157C0.24612 2.95588 0.553728 2.50152 0.976005 2.175C1.39828 1.84847 1.91305 1.66695 2.44494 1.65699C2.64099 1.65706 2.83627 1.68162 3.02633 1.73011C3.16198 1.28622 3.41974 0.890326 3.76962 0.588481C4.1195 0.286635 4.54711 0.0912454 5.00272 0.0250422C5.45832 -0.041161 5.92319 0.0245435 6.34324 0.214512C6.7633 0.404481 7.12126 0.710905 7.37551 1.09814C7.65926 0.934901 7.98049 0.849657 8.3071 0.85092C8.81455 0.856891 9.29902 1.06535 9.65462 1.43072C10.0102 1.7961 10.208 2.28868 10.2048 2.8008C10.2053 2.86301 10.2024 2.9252 10.1962 2.98708C10.5283 3.19211 10.782 3.50451 10.9159 3.87348C11.0499 4.24244 11.0562 4.64628 10.9338 5.01932C10.8114 5.39235 10.5676 5.71265 10.242 5.92812C9.91642 6.1436 9.52815 6.24158 9.14036 6.20613L9.01097 6.18001C8.83266 6.14553 8.64802 6.17969 8.49342 6.27577C8.44437 6.32424 8.40668 6.38316 8.3831 6.44822C8.35952 6.51329 8.35065 6.58285 8.35713 6.65181V8.64522C8.35792 8.76258 8.34401 8.87957 8.31573 8.99341C8.25761 9.27082 8.1085 9.52034 7.8925 9.70167C7.6765 9.883 7.40623 9.98554 7.12535 9.99273ZM6.26276 8.6487V8.66785C6.27312 9.19014 6.65783 9.62016 7.12535 9.62016C7.32438 9.61199 7.51483 9.53617 7.66578 9.40501C7.81673 9.27386 7.91932 9.09506 7.95689 8.89766C7.97639 8.81495 7.98623 8.73023 7.98622 8.64522V6.6553C7.97864 6.53093 7.99942 6.40646 8.04698 6.29147C8.09453 6.17648 8.16758 6.07402 8.26052 5.99199C8.43559 5.86054 8.64971 5.79302 8.86779 5.80048V5.77437L9.08688 5.81789C9.16879 5.83357 9.25194 5.84173 9.33531 5.84227C9.63703 5.83483 9.92769 5.72615 10.1614 5.53341C10.3951 5.34066 10.5584 5.07484 10.6257 4.77793C10.693 4.48103 10.6603 4.16997 10.5328 3.89389C10.4054 3.61782 10.1904 3.39247 9.92187 3.25345L9.80111 3.19252L9.82181 3.05846C9.8369 2.97284 9.84441 2.88603 9.84424 2.79906C9.84746 2.38409 9.68742 1.98479 9.39925 1.68875C9.11107 1.39272 8.7183 1.22414 8.3071 1.22C7.98938 1.2204 7.67981 1.32149 7.42209 1.509L7.24957 1.63261L7.14951 1.44807C6.94691 1.07537 6.63647 0.773906 6.25963 0.583931C5.88279 0.393956 5.4575 0.32451 5.04052 0.384867C4.62355 0.445223 4.23474 0.632508 3.92601 0.921717C3.61728 1.21093 3.40333 1.58829 3.31271 2.00344L3.26785 2.20539L3.08499 2.13923C2.87542 2.0679 2.65576 2.03144 2.43459 2.03129C1.97985 2.03845 1.53944 2.19298 1.17838 2.47206C0.817327 2.75115 0.554766 3.13999 0.429465 3.58119C0.304165 4.02239 0.322766 4.49255 0.482522 4.92227C0.642279 5.35198 0.934723 5.71847 1.31668 5.96761L1.34773 5.98851C1.40466 6.02333 1.46504 6.0564 1.52025 6.08774L1.54785 6.09993L1.57028 6.12256C1.62174 6.1722 1.65876 6.23511 1.67731 6.30447C1.69586 6.37383 1.69524 6.44699 1.67551 6.51602V7.43873C1.65634 7.56663 1.66444 7.69718 1.69927 7.82166C1.7341 7.94615 1.79487 8.06169 1.8775 8.16057C1.96014 8.25946 2.06274 8.3394 2.17844 8.39506C2.29415 8.45071 2.4203 8.4808 2.54845 8.48331C3.00735 8.48331 3.22818 8.0707 3.28856 7.65635C3.28856 7.62501 3.28856 7.59193 3.29891 7.5606C3.31588 7.45473 3.32281 7.34746 3.31961 7.24026C3.30236 6.95648 3.35584 6.7702 3.4835 6.67271C3.5173 6.64744 3.55582 6.62933 3.59673 6.61946C3.63764 6.60958 3.6801 6.60815 3.72158 6.61525C4.22705 6.60307 5.77109 6.56825 5.97639 6.61525C6.07024 6.64051 6.15328 6.69617 6.21273 6.77368L6.25414 6.82417V6.89033C6.25414 7.27682 6.25414 7.66331 6.25414 7.97495C6.25414 8.28658 6.25414 8.55643 6.25414 8.63477L6.26276 8.6487Z" fill="#3B4045"/>
<path d="M23.6934 8.79492H25.0631V12.2333C25.0631 12.7243 25.1994 13.0841 25.472 13.3127C25.7322 13.5383 26.0641 13.6619 26.4071 13.6609C26.7467 13.6634 27.0753 13.5394 27.33 13.3127C27.5934 13.0806 27.7257 12.7208 27.7268 12.2333V8.79492H29.107V14.7403H27.7268V14.1205C27.3162 14.6034 26.7412 14.8448 26.0016 14.8448C25.4048 14.8587 24.824 14.6491 24.3714 14.2563C23.9194 13.8652 23.6934 13.2599 23.6934 12.4405V8.79492Z" fill="#3B4045"/>
<path d="M34.6318 8.79492H36.0534L37.6147 12.8531L39.2036 8.79492H40.6372L38.2944 14.7403H36.9488L34.6318 8.79492Z" fill="#3B4045"/>
<path d="M41.9302 9.55576C42.2032 9.26661 42.5341 9.03944 42.9009 8.88935C43.2677 8.73926 43.6619 8.66969 44.0574 8.68528C44.442 8.67028 44.8253 8.74043 45.1803 8.89081C45.5352 9.04119 45.8533 9.26815 46.1121 9.55576C46.6296 10.1361 46.8878 10.8731 46.8867 11.7668V12.155H42.4564C42.5033 12.579 42.7014 12.9713 43.0136 13.2588C43.3182 13.5315 43.7142 13.6771 44.1212 13.6662C44.8113 13.6662 45.3236 13.4248 45.6583 12.9419L46.6054 13.6383C46.3438 14.0223 45.9869 14.3302 45.5703 14.5314C45.1187 14.7494 44.6235 14.8597 44.1229 14.8535C43.7218 14.8691 43.3219 14.7998 42.949 14.6498C42.576 14.4999 42.2384 14.2727 41.9578 13.983C41.6802 13.688 41.4636 13.34 41.3209 12.9594C41.1781 12.5789 41.1119 12.1734 41.1263 11.7668C41.0953 10.9517 41.3842 10.1572 41.9302 9.55576ZM42.4685 11.2619H45.6066C45.5483 10.861 45.3673 10.4885 45.089 10.1964C44.9533 10.0606 44.7914 9.9544 44.6134 9.88432C44.4353 9.81424 44.2449 9.78182 44.0539 9.78905C43.6638 9.77471 43.2839 9.91608 42.9964 10.1825C42.7063 10.4737 42.5206 10.8541 42.4685 11.2636V11.2619Z" fill="#3B4045"/>
<path d="M48.821 8.79492L50.384 12.8148L51.9729 8.79492H53.4065L50.1286 17.1185H48.783L49.7181 14.7403L47.3994 8.79492H48.821Z" fill="#3B4045"/>
<path d="M54.1875 6.45401H58.0433C58.6693 6.43627 59.2783 6.66046 59.746 7.08076C59.9772 7.29582 60.1588 7.55944 60.278 7.85303C60.3973 8.14661 60.4512 8.46302 60.4361 8.77994C60.4361 9.55641 60.1543 10.1298 59.5908 10.5C60.359 10.8946 60.7432 11.5452 60.7432 12.4516C60.7549 12.779 60.6952 13.105 60.5682 13.4064C60.4412 13.7079 60.25 13.9775 60.0083 14.1961C59.5389 14.6326 58.9213 14.8707 58.2831 14.8611H54.1875V6.45401ZM57.8104 9.93594C58.1177 9.95153 58.4188 9.84461 58.6488 9.63824C58.7546 9.53892 58.8383 9.418 58.8942 9.28351C58.9501 9.14903 58.9771 9.00407 58.9731 8.85828C58.9805 8.71069 58.9563 8.56323 58.9021 8.42594C58.8479 8.28865 58.765 8.16475 58.6592 8.06266C58.4271 7.86058 58.1269 7.75646 57.8207 7.77192H55.609V9.9429L57.8104 9.93594ZM55.609 13.5363H58.0674C58.2298 13.5438 58.392 13.5167 58.5433 13.4567C58.6946 13.3967 58.8317 13.3052 58.9455 13.1881C59.0537 13.074 59.1382 12.9394 59.1942 12.792C59.2502 12.6447 59.2765 12.4875 59.2716 12.3298C59.2755 12.1731 59.248 12.0173 59.1908 11.8716C59.1336 11.7259 59.0478 11.5934 58.9386 11.4819C58.8252 11.3662 58.6892 11.2756 58.5392 11.2156C58.3893 11.1557 58.2286 11.1278 58.0674 11.1337H55.609V13.5363Z" fill="#3B4045"/>
<path d="M66.9168 9.55576C67.1899 9.26661 67.5208 9.03944 67.8875 8.88935C68.2543 8.73926 68.6485 8.66969 69.044 8.68528C69.4287 8.67004 69.812 8.74009 70.167 8.89048C70.522 9.04087 70.84 9.26796 71.0987 9.55576C71.6162 10.1361 71.8744 10.8731 71.8733 11.7668V12.155H67.4447C67.4917 12.579 67.6897 12.9713 68.002 13.2588C68.3066 13.5315 68.7025 13.6771 69.1095 13.6662C69.7996 13.6662 70.312 13.4248 70.6467 12.9419L71.5938 13.6383C71.3321 14.0223 70.9752 14.3302 70.5587 14.5314C70.1071 14.7494 69.6118 14.8597 69.1113 14.8535C68.7101 14.8691 68.3102 14.7998 67.9373 14.6498C67.5644 14.4999 67.2267 14.2727 66.9462 13.983C66.6685 13.688 66.452 13.34 66.3092 12.9594C66.1664 12.5789 66.1003 12.1734 66.1146 11.7668C66.0832 10.9519 66.3714 10.1575 66.9168 9.55576ZM67.4551 11.2619H70.5932C70.5349 10.861 70.3539 10.4885 70.0756 10.1964C69.9399 10.0606 69.778 9.9544 69.6 9.88432C69.4219 9.81424 69.2315 9.78182 69.0405 9.78905C68.6505 9.77471 68.2705 9.91608 67.983 10.1825C67.6936 10.474 67.5085 10.8543 67.4568 11.2636L67.4551 11.2619Z" fill="#3B4045"/>
<path d="M73.8177 8.79492L75.0771 12.7765L76.4486 8.79492H77.4734L78.8311 12.7765L80.0853 8.79492H81.5207L79.5729 14.7403H78.229L76.9472 10.9485L75.6551 14.7473H74.3094L72.4014 8.79492H73.8177Z" fill="#3B4045"/>
<path d="M82.8147 9.55566C83.3518 8.97534 84.0602 8.68518 84.9401 8.68518C85.3248 8.66994 85.7081 8.73999 86.0631 8.89038C86.4181 9.04078 86.7361 9.26787 86.9948 9.55566C87.5241 10.1654 87.802 10.9566 87.7711 11.7667V12.1549H83.3391C83.386 12.5789 83.5841 12.9712 83.8963 13.2587C84.2011 13.5311 84.5969 13.6767 85.0039 13.6661C85.694 13.6661 86.2064 13.4247 86.541 12.9418L87.4882 13.6382C87.2269 14.0226 86.8699 14.3306 86.4531 14.5313C86.0015 14.7495 85.5062 14.8597 85.0056 14.8534C84.6045 14.8691 84.2046 14.7997 83.8317 14.6497C83.4587 14.4998 83.1211 14.2727 82.8405 13.9829C82.5632 13.6876 82.3469 13.3396 82.2041 12.9591C82.0614 12.5786 81.995 12.1733 82.009 11.7667C81.9787 10.9514 82.2682 10.1569 82.8147 9.55566ZM83.3512 11.2618H86.4893C86.4311 10.8609 86.2501 10.4883 85.9717 10.1963C85.8359 10.0607 85.674 9.95458 85.496 9.88451C85.3179 9.81445 85.1276 9.78193 84.9366 9.78895C84.5466 9.77461 84.1666 9.91598 83.8791 10.1824C83.5897 10.4741 83.4041 10.8542 83.3512 11.2636V11.2618Z" fill="#3B4045"/>
<path d="M94.5075 8.79492L96.0722 12.8148L97.6611 8.79492H99.0947L95.8169 17.1185H94.4713L95.4063 14.7403L93.0859 8.79492H94.5075Z" fill="#3B4045"/>
<path d="M30.584 8.80195H31.9365V9.7943C32.3057 8.90293 32.9872 8.64179 34.0292 8.68705V9.90573H33.9498C32.7629 9.90573 31.9348 10.7066 31.9348 12.4998V14.763H30.584V8.80195ZM62.103 8.80195H63.4555V9.7943C63.8265 8.90293 64.5079 8.64179 65.5482 8.68705V9.90573H65.4688C64.2819 9.90573 63.4538 10.7066 63.4538 12.4998V14.763H62.103V8.80195ZM89.0382 8.80195H90.3908V9.7943C90.76 8.90293 91.4414 8.64179 92.4834 8.68705V9.90573H92.4041C91.2171 9.90573 90.389 10.7066 90.389 12.4998V14.763H89.0382V8.80195Z" fill="#3B4045"/>
<path d="M15.7275 13.4625L16.6402 12.3674C17.4682 13.0899 18.2929 13.4973 19.3659 13.4973C20.3027 13.4973 20.8962 13.0603 20.8962 12.4022V12.3779C20.8962 11.7546 20.5511 11.4186 18.9467 11.046C17.1077 10.6003 16.0726 10.0502 16.0726 8.44503V8.41891C16.0726 6.92517 17.3078 5.89277 19.0192 5.89277C20.1585 5.87026 21.2685 6.25785 22.1504 6.9861L21.3361 8.14384C20.5598 7.56062 19.7834 7.24202 18.9933 7.24202C18.0979 7.24202 17.5873 7.69293 17.5873 8.27616V8.30053C17.5873 8.97776 17.9823 9.27025 19.6351 9.67067C21.4638 10.1251 22.4247 10.7866 22.4247 12.2316V12.256C22.4247 13.8855 21.155 14.857 19.3418 14.857C18.0063 14.8664 16.7162 14.3686 15.7275 13.4625Z" fill="#3B4045"/>
</svg>
