<svg width="245" height="44" viewBox="0 0 245 44" fill="none" xmlns="http://www.w3.org/2000/svg">
<path d="M27.6009 36.4376H25.4686C24.391 36.4084 23.3689 35.9487 22.6269 35.1595C21.8849 34.3703 21.4836 33.3163 21.5111 32.2287V23.1223C21.5111 20.7984 23.2809 18.9048 25.4516 18.9048H27.5839C29.7545 18.9048 31.5201 20.7984 31.5201 23.1223V32.2287C31.5371 34.5484 29.7716 36.4376 27.6009 36.4376ZM25.4516 21.0394C24.9169 21.0562 24.4106 21.2863 24.0437 21.6792C23.6768 22.072 23.4792 22.5956 23.4941 23.1352V32.2287C23.4803 32.7676 23.6785 33.2901 24.0453 33.682C24.412 34.0739 24.9176 34.3034 25.4516 34.3203H27.5839C27.8495 34.3141 28.1113 34.2551 28.3543 34.1465C28.5973 34.038 28.8166 33.8821 28.9997 33.6877C29.1828 33.4934 29.326 33.2644 29.4211 33.014C29.5163 32.7637 29.5615 32.4968 29.5541 32.2287V23.1223C29.5667 22.5853 29.3685 22.065 29.0027 21.6748C28.6368 21.2847 28.1329 21.0563 27.6009 21.0394H25.4516Z" fill="white"/>
<path d="M21.2715 17.8893V42.7383C21.2696 43.0597 21.3245 43.3788 21.4336 43.6808C22.3063 43.5204 23.0989 43.0651 23.681 42.3897C24.4744 41.4739 25.057 40.3922 25.3869 39.2222C25.5063 38.8306 25.6086 38.4218 25.6939 38C25.7493 37.7719 25.809 37.5094 25.8773 37.2297V17.8893C25.8773 16.9081 25.4039 16.1162 24.8154 16.1162H22.3462C21.7577 16.1162 21.2715 16.9081 21.2715 17.8893Z" fill="#FBC108"/>
<path d="M8.37954 24.0086V42.9444C8.38112 43.1939 8.32413 43.4401 8.21322 43.6631L8.0469 43.6373C7.27935 43.5072 6.56056 43.1713 5.96579 42.6647C5.20883 42.0122 4.62293 41.1815 4.25996 40.246C4.13851 39.9429 4.03596 39.6325 3.95291 39.3165L3.76953 38.7269V24.0086C3.76953 23.264 4.24716 22.6572 4.83568 22.6572H7.33045C7.90191 22.6572 8.37954 23.264 8.37954 24.0086Z" fill="#FFBC00"/>
<path d="M9.4082 20.1311V43.7493C10.9397 43.9067 12.479 43.9743 14.0182 43.9515C14.0226 43.8641 14.0226 43.7765 14.0182 43.689V20.1311C14.0182 19.2187 13.5406 18.4785 12.9563 18.4785H10.4743C9.88584 18.4785 9.4082 19.2187 9.4082 20.1311Z" fill="#FBC108"/>
<path d="M8.37955 23.6215V42.8715C8.37938 43.018 8.34983 43.1629 8.29266 43.2975C8.23549 43.4321 8.15189 43.5537 8.04691 43.6548C7.27935 43.5247 6.56057 43.1888 5.9658 42.6822C5.20883 42.0297 4.62294 41.199 4.25997 40.2635C4.13852 39.9604 4.03597 39.65 3.95292 39.334L3.76954 38.7444V23.6215C3.7684 23.3346 3.87996 23.059 4.07978 22.8549C4.2796 22.6508 4.5514 22.535 4.83568 22.5327H7.33046C7.61176 22.5395 7.87922 22.6573 8.07538 22.8609C8.27153 23.0645 8.38074 23.3376 8.37955 23.6215Z" fill="#FBC108"/>
<path d="M15.4043 26.4964V43.5989C15.4043 43.7176 15.4336 43.8345 15.4896 43.9389C17.3361 43.9131 18.9823 43.8528 19.9972 43.8055C20.0182 43.7387 20.0282 43.6689 20.0271 43.5989V26.4964C19.996 26.2416 19.8677 26.0092 19.6694 25.8484C19.4711 25.6877 19.2184 25.6114 18.9652 25.6357H16.4662C16.2127 25.6102 15.9595 25.6861 15.7609 25.8471C15.5624 26.008 15.4343 26.2412 15.4043 26.4964Z" fill="#FBC108"/>
<path d="M8.61138 18.7799C8.47918 20.1785 7.71155 21.4352 6.30424 21.4352C5.95478 21.4324 5.60929 21.3601 5.28749 21.2226C4.9657 21.085 4.67391 20.8848 4.42878 20.6335C4.18365 20.3821 3.98999 20.0845 3.85885 19.7576C3.72771 19.4307 3.66166 19.0809 3.66447 18.7282C3.66251 18.5842 3.67249 18.4402 3.69432 18.2979V16.0256C3.73694 15.9276 3.74752 15.8184 3.72452 15.714C3.70151 15.6095 3.64612 15.5151 3.56638 15.4446C3.40433 15.3628 3.24654 15.2724 3.09301 15.1778C3.06131 15.1648 3.03236 15.1458 3.00772 15.1218C2.20729 14.5989 1.5497 13.8817 1.09521 13.0358C0.640714 12.1899 0.403853 11.2425 0.40633 10.2803C0.398377 8.77431 0.982416 7.3266 2.03043 6.25448C3.07844 5.18236 4.50492 4.57329 5.99719 4.56078C6.59342 4.56031 7.18563 4.65918 7.74993 4.85343C7.97823 3.7235 8.54695 2.69236 9.37825 1.90113C10.2096 1.1099 11.2628 0.597237 12.394 0.433295C13.5251 0.269354 14.6788 0.462145 15.6971 0.985286C16.7155 1.50843 17.5488 2.33636 18.083 3.35577C18.7964 2.83493 19.6546 2.55478 20.5351 2.5553C21.1575 2.56396 21.7706 2.70835 22.3325 2.97858C22.8943 3.24881 23.3916 3.63848 23.7902 4.12086C24.1888 4.60324 24.4793 5.16693 24.6418 5.77325C24.8043 6.37957 24.8349 7.01418 24.7315 7.63355C25.564 8.03397 26.2231 8.72722 26.5851 9.5832C26.9472 10.4392 26.9872 11.3991 26.6978 12.2827C26.4083 13.1664 25.8093 13.9131 25.0131 14.3827C24.2169 14.8524 23.2782 15.0126 22.3732 14.8335C22.3732 14.8335 20.1982 14.4031 20.1982 16.4516V21.3706C20.1985 21.6171 20.1699 21.8626 20.1129 22.1023C19.9979 22.6928 19.6884 23.2267 19.2348 23.6173C18.7811 24.008 18.2099 24.2324 17.6139 24.2541C16.2066 24.2541 15.0552 23.0017 15.0338 21.4481V21.3836C15.0338 21.1856 15.0338 20.5702 15.0338 19.7482C15.0338 18.9262 15.0338 18.0267 15.0338 17.0627C14.9475 16.9487 14.8259 16.8669 14.6884 16.8303C14.1937 16.7055 9.18283 16.8303 9.18283 16.8303C9.18283 16.8303 8.61564 16.6281 8.68814 17.8933C8.68185 18.309 8.65481 18.7241 8.60711 19.1371" fill="white"/>
<path d="M17.6136 24.7016C16.8669 24.6679 16.1565 24.367 15.6095 23.8529C15.0625 23.3387 14.7148 22.645 14.6284 21.8957H14.5772V21.3707C14.5772 21.177 14.5772 20.5616 14.5772 19.7396C14.5772 19.0209 14.5772 18.1473 14.5772 17.265C14.2531 17.1962 11.592 17.2177 9.19533 17.265C9.1472 17.4532 9.13419 17.6487 9.15695 17.8417C9.16973 18.1627 9.15116 18.4841 9.10151 18.8014L9.07592 18.9994V19.0596C8.82431 20.7811 7.77523 21.857 6.35086 21.857C5.52442 21.8501 4.73439 21.5129 4.154 20.9191C3.57361 20.3253 3.25023 19.5235 3.25478 18.6895C3.25671 18.5456 3.26668 18.4019 3.28463 18.2592V15.875L3.32301 15.8233C3.18654 15.7545 3.0586 15.677 2.93067 15.5995C2.87475 15.5723 2.82186 15.5391 2.77288 15.5005C1.67435 14.771 0.836085 13.7058 0.380813 12.4608C-0.0744593 11.2158 -0.122829 9.85635 0.242785 8.58159C0.608399 7.30683 1.36879 6.18366 2.41265 5.37651C3.4565 4.56936 4.72898 4.12063 6.04381 4.09601C6.52842 4.09618 7.01114 4.1569 7.48097 4.27676C7.8163 3.17949 8.45347 2.20085 9.31836 1.4547C10.1832 0.708551 11.2403 0.225555 12.3665 0.0619033C13.4928 -0.101749 14.6419 0.0606707 15.6803 0.530266C16.7186 0.999862 17.6035 1.75733 18.232 2.71455C18.9334 2.31104 19.7275 2.10032 20.5348 2.10344C21.7892 2.1182 22.9868 2.6335 23.8659 3.5367C24.7449 4.4399 25.2339 5.65754 25.2259 6.92347C25.2272 7.07725 25.2201 7.23098 25.2046 7.38396C26.0257 7.89078 26.6527 8.66302 26.9838 9.57509C27.3148 10.4872 27.3304 11.4854 27.0279 12.4076C26.7255 13.3297 26.1228 14.1215 25.3179 14.6541C24.513 15.1867 23.5532 15.4289 22.5946 15.3413L22.2748 15.2768C21.834 15.1915 21.3776 15.276 20.9954 15.5135C20.8742 15.6333 20.781 15.7789 20.7227 15.9398C20.6644 16.1006 20.6425 16.2725 20.6585 16.443V21.3707C20.6605 21.6608 20.6261 21.95 20.5562 22.2314C20.4125 22.9171 20.0439 23.5339 19.51 23.9822C18.976 24.4304 18.3079 24.6839 17.6136 24.7016ZM15.4813 21.3793V21.4266C15.5069 22.7177 16.4579 23.7807 17.6136 23.7807C18.1056 23.7605 18.5764 23.5731 18.9495 23.2488C19.3227 22.9246 19.5763 22.4827 19.6691 21.9947C19.7173 21.7902 19.7417 21.5808 19.7416 21.3707V16.4516C19.7229 16.1442 19.7743 15.8365 19.8918 15.5523C20.0094 15.268 20.19 15.0148 20.4197 14.812C20.8525 14.487 21.3818 14.3201 21.9208 14.3386V14.274L22.4624 14.3816C22.6649 14.4204 22.8705 14.4405 23.0765 14.4419C23.8224 14.4235 24.5409 14.1548 25.1185 13.6784C25.6962 13.2019 26.1001 12.5448 26.2663 11.8109C26.4326 11.0769 26.3519 10.308 26.0368 9.62555C25.7217 8.94311 25.1903 8.38606 24.5265 8.04241L24.228 7.89178L24.2791 7.56041C24.3165 7.34875 24.335 7.13415 24.3346 6.91917C24.3425 5.89339 23.9469 4.90632 23.2346 4.17454C22.5222 3.44276 21.5513 3.02603 20.5348 3.01581C19.7495 3.01677 18.9842 3.26667 18.3471 3.7302L17.9207 4.03576L17.6733 3.57958C17.1725 2.65827 16.4051 1.91307 15.4736 1.44345C14.542 0.973844 13.4907 0.802178 12.46 0.951376C11.4292 1.10057 10.4681 1.56354 9.70495 2.27845C8.94179 2.99336 8.4129 3.9262 8.18889 4.95243L8.07801 5.45164L7.62597 5.28811C7.10794 5.11177 6.56493 5.02165 6.01822 5.02128C4.89411 5.03897 3.80543 5.42096 2.91291 6.11085C2.0204 6.80073 1.37136 7.76195 1.06162 8.85257C0.751884 9.9432 0.797865 11.1054 1.19278 12.1677C1.58769 13.2299 2.3106 14.1358 3.25478 14.7517L3.33154 14.8034C3.47227 14.8894 3.62153 14.9712 3.758 15.0487L3.82623 15.0788L3.88167 15.1347C4.00889 15.2574 4.10039 15.413 4.14625 15.5844C4.1921 15.7559 4.19057 15.9367 4.14181 16.1074V18.3883C4.0944 18.7044 4.11442 19.0271 4.20053 19.3349C4.28663 19.6426 4.43684 19.9282 4.64112 20.1726C4.84539 20.4171 5.09901 20.6147 5.38503 20.7523C5.67106 20.8898 5.98289 20.9642 6.29968 20.9704C7.43406 20.9704 7.97993 19.9505 8.12919 18.9262C8.12919 18.8487 8.12919 18.767 8.15478 18.6895C8.19674 18.4278 8.21387 18.1626 8.20595 17.8977C8.16331 17.1962 8.29551 16.7357 8.61108 16.4947C8.69464 16.4322 8.78985 16.3875 8.89098 16.363C8.99211 16.3386 9.09708 16.3351 9.1996 16.3527C10.4491 16.3225 14.2659 16.2365 14.7734 16.3527C15.0054 16.4151 15.2107 16.5527 15.3576 16.7443L15.46 16.8691V17.0326C15.46 17.988 15.46 18.9434 15.46 19.7138C15.46 20.4841 15.46 21.1512 15.46 21.3448L15.4813 21.3793Z" fill="white"/>
<path d="M58.5703 21.7407H61.9564V30.2403C61.9564 31.4539 62.2933 32.3434 62.9671 32.9086C63.6102 33.4662 64.4306 33.7717 65.2785 33.7693C66.118 33.7755 66.9304 33.469 67.56 32.9086C68.2111 32.3348 68.538 31.4453 68.5409 30.2403V21.7407H71.9526V36.4375H68.5409V34.9054C67.5259 36.099 66.1044 36.6957 64.2763 36.6957C62.801 36.7301 61.3653 36.2119 60.2463 35.2411C59.129 34.2742 58.5703 32.778 58.5703 30.7525V21.7407Z" fill="white"/>
<path d="M85.6084 21.7407H89.1224L92.9819 31.7724L96.9095 21.7407H100.453L94.6621 36.4375H91.3357L85.6084 21.7407Z" fill="white"/>
<path d="M103.651 23.6215C104.326 22.9067 105.144 22.3451 106.051 21.9741C106.957 21.6031 107.932 21.4311 108.909 21.4697C109.86 21.4326 110.808 21.606 111.685 21.9777C112.563 22.3495 113.349 22.9105 113.988 23.6215C115.268 25.056 115.906 26.8778 115.903 29.087V30.0467H104.952C105.068 31.0947 105.557 32.0644 106.329 32.7752C107.082 33.4493 108.061 33.8093 109.067 33.7823C110.773 33.7823 112.04 33.1855 112.867 31.992L115.208 33.7134C114.561 34.6625 113.679 35.4238 112.649 35.9211C111.533 36.4601 110.309 36.7325 109.071 36.7173C108.08 36.7559 107.091 36.5844 106.169 36.2138C105.248 35.8432 104.413 35.2817 103.719 34.5655C103.033 33.8361 102.498 32.9759 102.145 32.0352C101.792 31.0945 101.628 30.0922 101.664 29.087C101.587 27.0722 102.301 25.1081 103.651 23.6215ZM104.982 27.839H112.739C112.595 26.848 112.147 25.9272 111.46 25.2052C111.124 24.8695 110.724 24.6069 110.284 24.4336C109.844 24.2604 109.373 24.1803 108.901 24.1981C107.937 24.1627 106.997 24.5121 106.287 25.1707C105.57 25.8907 105.11 26.8309 104.982 27.8433V27.839Z" fill="white"/>
<path d="M120.684 21.7407L124.548 31.6777L128.475 21.7407H132.019L123.916 42.3162H120.59L122.902 36.4375L117.17 21.7407H120.684Z" fill="white"/>
<path d="M133.95 15.9541H143.482C145.029 15.9102 146.535 16.4644 147.691 17.5034C148.262 18.035 148.711 18.6867 149.006 19.4124C149.3 20.1381 149.434 20.9203 149.396 21.7037C149.396 23.6231 148.7 25.0404 147.307 25.9556C149.206 26.9311 150.156 28.5392 150.156 30.78C150.185 31.5892 150.037 32.395 149.723 33.1402C149.409 33.8854 148.937 34.5518 148.339 35.0922C147.179 36.1713 145.652 36.7598 144.074 36.7362H133.95V15.9541ZM142.906 24.5613C143.666 24.5998 144.41 24.3355 144.978 23.8254C145.24 23.5799 145.447 23.2809 145.585 22.9485C145.723 22.6161 145.79 22.2577 145.78 21.8973C145.798 21.5325 145.738 21.168 145.604 20.8286C145.471 20.4892 145.266 20.1829 145.004 19.9306C144.43 19.4311 143.688 19.1737 142.931 19.2119H137.464V24.5785L142.906 24.5613ZM137.464 33.4611H143.541C143.943 33.4798 144.344 33.4127 144.718 33.2644C145.092 33.1161 145.43 32.8898 145.712 32.6004C145.979 32.3186 146.188 31.9858 146.327 31.6215C146.465 31.2572 146.53 30.8687 146.518 30.4787C146.527 30.0915 146.46 29.7062 146.318 29.3461C146.177 28.986 145.965 28.6584 145.695 28.3829C145.414 28.0969 145.078 27.8728 144.707 27.7246C144.337 27.5765 143.94 27.5075 143.541 27.5222H137.464V33.4611Z" fill="white"/>
<path d="M165.415 23.6215C166.089 22.9067 166.907 22.3451 167.814 21.9741C168.721 21.6031 169.695 21.4311 170.673 21.4697C171.624 21.432 172.571 21.6051 173.449 21.9769C174.326 22.3487 175.113 22.91 175.752 23.6215C177.031 25.056 177.67 26.8778 177.667 29.087V30.0467H166.72C166.836 31.0947 167.325 32.0644 168.097 32.7752C168.85 33.4493 169.829 33.8093 170.835 33.7823C172.541 33.7823 173.807 33.1855 174.635 31.992L176.976 33.7134C176.329 34.6625 175.447 35.4238 174.417 35.9211C173.301 36.4601 172.077 36.7325 170.839 36.7173C169.848 36.7559 168.859 36.5844 167.937 36.2138C167.015 35.8432 166.181 35.2817 165.487 34.5655C164.801 33.8361 164.265 32.9759 163.913 32.0352C163.56 31.0945 163.396 30.0922 163.432 29.087C163.354 27.0728 164.066 25.1088 165.415 23.6215ZM166.745 27.839H174.502C174.358 26.848 173.911 25.9272 173.223 25.2052C172.888 24.8695 172.487 24.6069 172.047 24.4336C171.607 24.2604 171.136 24.1803 170.664 24.1981C169.7 24.1627 168.761 24.5121 168.05 25.1707C167.335 25.8913 166.877 26.8315 166.749 27.8433L166.745 27.839Z" fill="white"/>
<path d="M182.474 21.7407L185.587 31.5831L188.977 21.7407H191.511L194.867 31.5831L197.967 21.7407H201.515L196.7 36.4375H193.378L190.21 27.0643L187.016 36.4547H183.689L178.973 21.7407H182.474Z" fill="white"/>
<path d="M204.714 23.6212C206.041 22.1867 207.793 21.4694 209.968 21.4694C210.919 21.4317 211.866 21.6049 212.744 21.9767C213.621 22.3484 214.407 22.9098 215.047 23.6212C216.355 25.1285 217.042 27.0843 216.966 29.0868V30.0465H206.01C206.126 31.0945 206.616 32.0642 207.388 32.775C208.141 33.4483 209.119 33.8082 210.125 33.782C211.831 33.782 213.098 33.1852 213.925 31.9917L216.266 33.7132C215.621 34.6632 214.738 35.4247 213.708 35.9209C212.592 36.4603 211.367 36.7327 210.13 36.7171C209.138 36.7557 208.15 36.5842 207.228 36.2136C206.306 35.8429 205.471 35.2814 204.778 34.5653C204.092 33.8353 203.557 32.975 203.205 32.0344C202.852 31.0939 202.688 30.0919 202.722 29.0868C202.647 27.0714 203.363 25.1075 204.714 23.6212ZM206.04 27.8387H213.797C213.653 26.8477 213.206 25.9268 212.518 25.2049C212.182 24.8696 211.782 24.6073 211.342 24.4341C210.902 24.2609 210.431 24.1805 209.959 24.1979C208.995 24.1624 208.056 24.5119 207.345 25.1705C206.63 25.8916 206.171 26.8313 206.04 27.843V27.8387Z" fill="white"/>
<path d="M233.618 21.7407L237.485 31.6777L241.413 21.7407H244.957L236.854 42.3162H233.528L235.839 36.4375L230.104 21.7407H233.618Z" fill="white"/>
<path d="M75.6035 21.758H78.9469V24.2111C79.8596 22.0077 81.5441 21.3621 84.1199 21.474V24.4865H83.9237C80.9897 24.4865 78.9427 26.4662 78.9427 30.8989V36.4936H75.6035V21.758ZM153.517 21.758H156.861V24.2111C157.778 22.0077 159.462 21.3621 162.034 21.474V24.4865H161.838C158.904 24.4865 156.857 26.4662 156.857 30.8989V36.4936H153.517V21.758ZM220.1 21.758H223.444V24.2111C224.356 22.0077 226.041 21.3621 228.617 21.474V24.4865H228.42C225.486 24.4865 223.439 26.4662 223.439 30.8989V36.4936H220.1V21.758Z" fill="white"/>
<path d="M38.877 33.2788L41.1329 30.5718C43.1799 32.3578 45.2184 33.3649 47.8709 33.3649C50.1866 33.3649 51.6536 32.2847 51.6536 30.6579V30.5977C51.6536 29.057 50.8007 28.2264 46.8347 27.3054C42.2886 26.2037 39.7299 24.8437 39.7299 20.8758V20.8113C39.7299 17.1188 42.7833 14.5667 47.0138 14.5667C49.8301 14.5111 52.574 15.4692 54.754 17.2694L52.7411 20.1313C50.822 18.6896 48.903 17.902 46.9498 17.902C44.7365 17.902 43.4742 19.0167 43.4742 20.4584V20.5186C43.4742 22.1927 44.4508 22.9157 48.5362 23.9056C53.0567 25.0288 55.432 26.6642 55.432 30.2362V30.2964C55.432 34.3246 52.2933 36.726 47.8112 36.726C44.51 36.7492 41.3208 35.5187 38.877 33.2788Z" fill="white"/>
</svg>
