<?xml version="1.0" encoding="utf-8"?>
<!-- Generator: Adobe Illustrator 24.3.0, SVG Export Plug-In . SVG Version: 6.00 Build 0)  -->
<svg version="1.1" id="Layer_1" xmlns="http://www.w3.org/2000/svg" xmlns:xlink="http://www.w3.org/1999/xlink" x="0px" y="0px"
	 viewBox="0 0 1080 1080" style="enable-background:new 0 0 1080 1080;" xml:space="preserve">
<style type="text/css">
	.st0{fill:#FFFFFF;}
</style>
<g>
	<path class="st0" d="M594,732.8c-4.9-1.6-10.3-2.5-14.7-5c-11.6-6.5-18.2-16.7-18.3-30.2c-0.2-34-0.3-67.9,0-101.9
		c0.2-20,15.7-34.9,36.3-35.1c33-0.3,66-0.3,98.9,0c18.7,0.1,32.1,11.6,36,29.9c0.1,0.5,0.4,0.9,0.6,1.4c0,36.5,0,73,0,109.5
		c-0.3,0.8-0.6,1.6-0.7,2.5c-3.2,13.6-11.5,22.7-24.7,27.2c-2.5,0.8-5,1.3-7.6,1.9C664.5,732.8,629.2,732.8,594,732.8z"/>
	<path class="st0" d="M348.8,380.2c1.2-3.5,2-7.2,3.7-10.5c6.4-12.8,16.9-20.1,31.3-20.3c34-0.3,68-0.3,102,0
		c19,0.1,34.6,15.3,34.8,34.2c0.4,34.2,0.4,68.5,0,102.7c-0.2,19.7-16,34.8-35.8,34.8c-33.2,0.2-66.5,0.1-99.7,0
		c-17.8-0.1-31.8-11.7-35.5-29.1c-0.1-0.6-0.5-1.1-0.7-1.7C348.8,453.8,348.8,417,348.8,380.2z"/>
	<path class="st0" d="M732.8,490.5c-0.6,1.9-1.1,3.8-1.7,5.6c-4.6,14.5-18.1,25-33.4,25c-33.9,0.2-67.7,0.2-101.6,0
		c-19.1-0.1-34.9-15.4-35.1-34.4c-0.4-34.4-0.4-68.7,0-103.1c0.2-18.7,15.8-34,34.5-34.2c34.1-0.3,68.2-0.2,102.4,0
		c16.6,0.1,30.6,12,34.2,28.4c0.2,0.8,0.5,1.6,0.8,2.4C732.8,417,732.8,453.8,732.8,490.5z"/>
	<path class="st0" d="M348.8,571.5c3.1-7,8.7-8.9,16-8.9c47,0.2,93.9,0.1,140.9,0.1c1.9,0,3.8,0,5.6,0.4c6.1,1.2,9.9,6.6,9.4,12.9
		c-0.5,5.8-5.2,10.2-11.2,10.6c-1.1,0.1-2.2,0-3.4,0c-47.5,0-94.9-0.1-142.4,0.1c-7.3,0-12.2-2.5-14.9-9.3
		C348.8,575.5,348.8,573.5,348.8,571.5z"/>
	<path class="st0" d="M348.8,644.2c3-7,8.5-9,15.9-9c46.8,0.2,93.7,0.1,140.5,0.1c8.2,0,13.6,5.3,13.2,12.9
		c-0.3,5.8-4.9,10.6-10.8,11.1c-1.4,0.1-2.7,0.1-4.1,0.1c-46.6,0-93.2-0.1-139.7,0.1c-7.3,0-12.2-2.5-15-9.2
		C348.8,648.2,348.8,646.2,348.8,644.2z"/>
	<path class="st0" d="M348.8,717c2.9-6.9,8.1-9.1,15.4-9.1c47,0.2,93.9,0.1,140.9,0.1c7.8,0,13.2,4.7,13.3,11.6
		c0.2,6.8-4.9,12.2-11.8,12.3c-4.7,0.1-9.5,0-14.2,0c-42.7,0-85.4-0.1-128.1,0.1c-7.4,0-12.5-2.3-15.5-9.1
		C348.8,721,348.8,719,348.8,717z"/>
</g>
</svg>
