<svg width="15" height="17" viewBox="0 0 15 17" fill="none" xmlns="http://www.w3.org/2000/svg">
<path d="M5.62863 2.84512C5.62863 2.01761 5.64211 1.25433 5.62863 0.492593C5.61177 0.134666 5.73316 -0.0106467 6.14959 6.056e-05C7.04821 0.0245342 7.94682 0.00770857 8.84713 0.00923817C9.35292 0.00923817 9.38495 0.036771 9.38663 0.515537C9.38663 1.17938 9.39675 1.8417 9.37652 2.50402C9.37652 2.77476 9.4743 2.86807 9.76598 2.84818C10.029 2.83135 10.2954 2.84818 10.6208 2.84818C10.6208 2.18127 10.6208 1.54802 10.6208 0.914763C10.6224 -0.105482 10.5145 0.0122974 11.6037 0.00770857C12.1786 0.00770857 12.7552 0.0168862 13.3301 0.00770857C13.6302 0.00770857 13.7803 0.0994847 13.7786 0.376343C13.7786 2.3893 13.7904 4.40226 13.7566 6.41521C13.7448 7.18001 13.0131 7.82704 12.1938 7.95246C12.1138 7.96642 12.0379 7.99507 11.9707 8.03663C11.9034 8.07819 11.8462 8.13179 11.8026 8.19414C11.4772 8.79375 10.9799 9.0859 10.2313 9.07978C8.41945 9.06448 6.60761 9.06448 4.79576 9.07978C4.46474 9.10056 4.13484 9.02695 3.85219 8.86925C3.56955 8.71155 3.3483 8.47765 3.21939 8.20026C3.17687 8.13632 3.12064 8.08076 3.05403 8.03689C2.98743 7.99301 2.9118 7.9617 2.83162 7.94482C1.98864 7.79186 1.28053 7.09589 1.27379 6.30814C1.25693 4.34566 1.27379 2.38318 1.26367 0.422231C1.26367 0.11631 1.41035 -0.00452825 1.7526 0.00311976C2.48262 0.0184158 3.21264 0.0199454 3.94435 0.00311976C4.30177 6.05601e-05 4.4063 0.137725 4.40125 0.437527C4.38439 1.13808 4.40293 1.83558 4.38439 2.5392C4.38439 2.77323 4.46868 2.86195 4.72158 2.84512C4.97447 2.8283 5.28638 2.84512 5.62863 2.84512Z" fill="black"/>
<path d="M7.48883 16.9924C5.17232 16.9924 2.85581 16.9924 0.539301 16.9924C0.138042 16.9924 0.033512 16.8869 0.00653664 16.5198C-0.0406703 15.6586 0.154901 14.9091 1.01811 14.4518C1.34058 14.2764 1.7063 14.177 2.08196 14.1627C5.68991 14.1412 9.29619 14.1474 12.9041 14.1504C13.4615 14.1524 13.9953 14.3545 14.3889 14.7125C14.7825 15.0705 15.004 15.5553 15.0049 16.0609C15.0049 17.1637 15.1212 16.9924 13.9815 16.997C11.8116 16.997 9.65024 16.9924 7.48883 16.9924Z" fill="black"/>
<path d="M7.49321 9.63657C8.37834 9.63657 9.26347 9.64575 10.1469 9.63657C10.4841 9.63657 10.6207 9.7467 10.6628 10.048C10.746 10.6306 11.0258 11.1755 11.4637 11.6082C11.6153 11.7489 11.8056 11.8503 12.015 11.9019C12.7568 12.0946 13.2777 12.4908 13.5323 13.1623C13.6503 13.4866 13.5037 13.6441 13.1294 13.6426C9.55514 13.6232 5.9854 13.61 2.42016 13.6028C2.32206 13.6049 2.22414 13.6115 2.1268 13.6227C1.45241 13.6762 1.29393 13.4789 1.59572 12.9206C1.73229 12.661 1.93315 12.4336 2.18263 12.2561C2.4321 12.0786 2.72342 11.9558 3.03385 11.8973C3.2299 11.8508 3.40827 11.7567 3.54975 11.6251C4.00837 11.1873 4.29262 10.6231 4.35733 10.022C4.39948 9.71458 4.55121 9.62433 4.8884 9.63657C5.75162 9.63657 6.62326 9.63657 7.49321 9.63657Z" fill="black"/>
</svg>
