<svg width="177" height="139" viewBox="0 0 177 139" fill="none" xmlns="http://www.w3.org/2000/svg">
<rect width="177" height="139" rx="12" fill="#FBC108"/>
<rect x="15" y="12" width="147" height="115" rx="12" fill="white"/>
<g clip-path="url(#clip0_577_918)">
<path d="M128.977 101.117C128.123 93.9594 123.558 72.3744 99.5674 69.0798C99.2076 69.0344 98.4657 68.9435 98.4207 69.6478C98.0834 74.3966 95.1379 86.9386 93.0919 95.0501C93.0019 95.3909 92.7996 95.5272 92.7546 95.0273C92.7096 94.5502 91.3381 78.0774 91.3381 78.0774C93.4741 77.6911 95.0255 76.6005 95.0255 75.3054C95.0255 73.6922 92.6422 72.3971 89.7192 72.3971C89.4718 72.3971 88.5275 72.3971 88.2802 72.3971C85.3347 72.3971 82.9738 73.7149 82.9738 75.3054C82.9738 76.6005 84.5252 77.7138 86.6613 78.0774C86.6613 78.0774 85.2897 94.2321 85.2447 94.891C85.2223 95.5499 84.9524 95.3227 84.8625 94.9365C82.8614 87.0068 79.8035 74.9419 79.6011 69.9887C79.5562 69.0571 78.9041 69.0344 78.5668 69.0798C54.5309 72.2835 49.9215 93.8004 49.0446 101.048C48.8648 102.548 49.3819 103.889 50.5736 104.616C54.4409 106.956 65.1885 111.909 86.7962 111.909C87.2234 112.114 91.2481 111.909 91.2481 111.909C113.823 111.909 124.548 106.479 127.943 104.298C128.775 103.775 129.135 102.571 128.977 101.117Z" fill="#3B3E43"/>
<path d="M72.1141 51.6981C73.8678 56.1288 79.6239 68.8753 87.9432 68.8753C88.3029 68.8753 89.7194 68.8753 90.0792 68.8753C98.3985 68.8753 104.155 56.106 105.908 51.6981C105.931 51.6754 105.976 51.63 105.998 51.5618C106.313 50.8347 109.798 41.7008 105.481 34.8163C105.189 34.3392 104.874 33.9529 104.559 33.6121C104.222 31.6354 102.131 28 89.0674 28C89.0449 28 89.0224 28 88.9999 28C88.9775 28 88.955 28 88.9325 28C75.869 28 73.7779 31.6354 73.4406 33.5894C73.1259 33.9302 72.8111 34.3165 72.5188 34.7936C68.2017 41.6781 71.6868 50.812 72.0016 51.5391C72.0466 51.63 72.0691 51.6754 72.1141 51.6981ZM75.5092 45.7906C75.4867 42.9959 74.9921 40.2012 75.1495 39.7923C76.9707 42.4506 80.6582 45.109 88.1455 45.109C88.4378 45.109 88.7301 45.109 89.0224 45.0863C89.3147 45.0863 89.607 45.109 89.8993 45.109C97.3867 45.109 101.074 42.4506 102.895 39.7923C103.053 40.2012 102.536 40.8829 102.536 44.8591C102.536 48.8353 103.345 51.8799 103.345 51.8799C101.344 56.6059 96.3974 66.4896 90.1017 66.4896C89.7419 66.4896 88.3254 66.4896 87.9657 66.4896C81.67 66.4896 76.7234 56.5832 74.7223 51.8799C74.6998 51.8799 75.5092 48.5853 75.5092 45.7906Z" fill="#3B3E43"/>
</g>
<defs>
<clipPath id="clip0_577_918">
<rect width="80" height="84" fill="white" transform="translate(49 28)"/>
</clipPath>
</defs>
</svg>
