<svg width="177" height="139" viewBox="0 0 177 139" fill="none" xmlns="http://www.w3.org/2000/svg">
<rect width="177" height="139" rx="12" fill="#FBC108"/>
<rect x="16" y="12" width="145" height="115" rx="16" fill="white"/>
<g clip-path="url(#clip0_317_54)">
<path d="M88.2398 103C87.9308 102.803 87.6055 102.639 87.2965 102.426C83.7024 99.821 80.0758 97.2485 76.5304 94.5613C74.4325 92.9719 73.3429 90.7107 73.3104 88.0563C73.2453 82.9113 73.2779 77.7662 73.2779 72.6212C73.2779 71.5398 74.026 71.0155 75.0668 71.294C75.5709 71.4251 76.0588 71.5889 76.563 71.6873C77.7339 71.933 78.7585 71.6217 79.5716 70.7369C80.3848 69.8357 81.1329 68.9017 82.0273 67.8367C81.6045 67.8203 81.3768 67.8039 81.1491 67.8039C76.4817 67.8039 71.7979 67.8039 67.1304 67.8039C66.9841 67.8039 66.8215 67.8039 66.6751 67.8039C65.6343 67.7875 65 67.296 65 66.4767C65 65.6574 65.618 65.1822 66.6751 65.1659C67.2606 65.1659 67.846 65.1659 68.4315 65.1659C68.464 65.1659 68.5128 65.1495 68.6592 65.1003C68.1388 64.281 67.6834 63.4454 67.1142 62.6917C66.4474 61.8068 66.4799 61.0367 67.0003 60.0536C71.1311 52.4508 75.2131 44.7988 79.2952 37.1468C79.718 36.3439 80.2709 35.9834 81.1979 35.9998C86.0931 36.0326 90.972 36.0326 95.8671 35.9998C96.6965 35.9998 97.2332 36.2947 97.6235 37.0485C101.787 44.8315 105.966 52.6146 110.146 60.3813C110.553 61.1187 110.52 61.7577 110.048 62.4459C109.463 63.2979 108.926 64.1991 108.292 65.1822C109.089 65.1822 109.772 65.1822 110.439 65.1822C111.398 65.1986 111.984 65.6902 111.967 66.4931C111.967 67.2796 111.366 67.7875 110.422 67.7875C105.576 67.7875 100.73 67.7875 95.8834 67.7875C95.6557 67.7875 95.4118 67.7875 95.0377 67.7875C96.0623 69.2294 96.9567 70.655 98.4529 71.4906C99.2498 71.933 100.095 71.72 100.925 71.5726C101.234 71.507 101.543 71.3923 101.852 71.294C102.974 70.9827 103.673 71.507 103.69 72.6868C103.706 73.2603 103.69 73.8174 103.69 74.3908C103.69 78.6838 103.673 82.9768 103.69 87.2698C103.706 90.6288 102.372 93.2341 99.6727 95.184C96.3225 97.5926 93.0048 100.018 89.6547 102.426C89.3619 102.639 89.0367 102.803 88.7114 103C88.5813 103 88.4024 103 88.2398 103ZM73.2291 65.1822C73.5218 65.1822 73.717 65.1822 73.8958 65.1822C75.7173 65.1822 77.5225 65.1659 79.3439 65.1986C79.7993 65.1986 80.027 65.0512 80.2384 64.6579C84.6619 56.1539 89.0692 47.6826 93.4927 39.195C93.574 39.0311 93.6391 38.8509 93.7367 38.6542C93.5903 38.6379 93.4927 38.6215 93.4114 38.6215C89.5896 38.6215 85.7516 38.6215 81.9298 38.6051C81.5069 38.6051 81.3768 38.8181 81.2142 39.113C79.9945 41.407 78.7422 43.7173 77.5225 46.0113C74.8879 50.9269 72.237 55.8589 69.6024 60.7746C69.4886 60.9876 69.3747 61.3153 69.4561 61.4791C69.8952 62.2656 70.4156 63.003 70.9522 63.855C71.1311 63.5437 71.2612 63.3143 71.3751 63.0849C74.4325 57.2353 77.49 51.3693 80.5474 45.5197C80.6612 45.2903 80.7913 45.0609 80.9377 44.8479C81.3443 44.3072 81.9948 44.1597 82.5478 44.4547C83.1007 44.7332 83.3609 45.3723 83.1657 46.0113C83.0844 46.2571 82.9706 46.4865 82.8405 46.7159C79.783 52.5982 76.7093 58.4806 73.6519 64.3466C73.5218 64.5924 73.408 64.8381 73.2291 65.1822ZM95.4118 83.6486C95.4118 82.3706 95.428 81.0761 95.3955 79.798C95.3955 79.585 95.2491 79.2737 95.0702 79.1918C92.6796 78.0284 90.8744 76.226 89.3131 74.1287C88.6952 73.293 88.2886 73.293 87.6706 74.1123C86.1093 76.2096 84.3042 78.0284 81.9135 79.1918C81.7346 79.2737 81.5882 79.6178 81.5882 79.8472C81.572 82.3542 81.5882 84.8611 81.572 87.3681C81.572 87.8433 81.7509 88.1382 82.1086 88.4004C84.0927 89.8259 86.0768 91.2678 88.0609 92.7098C88.3699 92.9392 88.5813 92.9719 88.9066 92.7261C90.8744 91.2678 92.8585 89.8259 94.8588 88.4168C95.2491 88.1382 95.428 87.8269 95.428 87.3353C95.3955 86.09 95.4118 84.8611 95.4118 83.6486ZM96.1273 39.7684C95.1678 41.6036 94.3059 43.3241 93.3789 45.0118C93.1512 45.4378 93.1512 45.7655 93.3626 46.2079C96.1761 51.91 98.9734 57.6286 101.787 63.3307C102.08 63.9369 102.258 64.7726 102.746 65.0512C103.267 65.3625 104.096 65.1659 104.779 65.1331C105.007 65.1167 105.3 64.9528 105.43 64.7726C106.097 63.8059 106.682 62.79 107.349 61.8232C107.625 61.43 107.609 61.135 107.381 60.709C104.796 55.9409 102.242 51.1399 99.6727 46.3554C98.518 44.2253 97.3633 42.0624 96.1273 39.7684ZM101.12 74.1942C98.3879 74.8824 96.4201 73.7027 94.81 71.7692C93.8668 70.6386 93.0699 69.3769 92.208 68.1972C92.0941 68.0333 91.9152 67.8367 91.7526 67.8203C91.1183 67.7711 90.4678 67.8039 89.8173 67.8039C89.8173 68.9017 89.8173 69.9012 89.8173 70.6386C90.4678 71.4251 90.9882 72.0313 91.4924 72.6704C92.9235 74.5383 94.5498 76.1605 96.7941 77.0453C97.8675 77.4713 98.0301 77.7171 98.0301 78.9132C98.0301 81.6824 97.9976 84.4515 98.0464 87.2206C98.0626 88.6789 97.5097 89.7604 96.3225 90.596C94.2734 92.0216 92.273 93.5126 90.2564 94.9873C90.0938 95.102 89.8498 95.2823 89.8336 95.4297C89.801 96.6259 89.8173 97.8384 89.8173 99.1492C92.6958 97.0683 95.4443 95.0529 98.209 93.0702C100.193 91.6447 101.169 89.7604 101.153 87.2862C101.12 83.1898 101.136 79.0935 101.136 74.9807C101.12 74.7513 101.12 74.5219 101.12 74.1942ZM87.199 99.1328C87.199 97.9367 87.1827 96.888 87.2152 95.8394C87.2315 95.4134 87.0851 95.1676 86.7599 94.9218C84.6945 93.4471 82.6453 91.9396 80.5799 90.465C79.5879 89.744 79.0024 88.8264 79.0024 87.5647C79.0024 84.5498 79.0024 81.5513 79.0024 78.5364C79.0024 77.8318 79.3114 77.3566 79.9457 77.1272C82.3689 76.2588 84.0927 74.5219 85.6215 72.5229C86.0443 71.9658 86.581 71.4906 87.0526 70.9663C87.1176 70.9008 87.199 70.7861 87.199 70.7041C87.2152 69.7374 87.199 68.7706 87.199 67.7711C86.6298 67.7711 86.1419 67.8039 85.6702 67.7548C85.1986 67.7056 84.9384 67.9022 84.6782 68.2791C83.8488 69.4916 83.0356 70.7369 82.0761 71.8511C80.6612 73.5388 78.9536 74.6694 76.6443 74.3417C76.4166 74.3089 76.1889 74.2925 75.9287 74.2598C75.9125 74.44 75.8799 74.5875 75.8799 74.7349C75.8799 79.0279 75.8637 83.3209 75.8799 87.6139C75.8799 89.8423 76.8394 91.5955 78.6121 92.9064C80.8239 94.5122 83.0356 96.1179 85.2474 97.7237C85.8654 98.1661 86.4671 98.6085 87.199 99.1328ZM94.0945 65.1495C92.2405 61.5774 90.4028 58.071 88.5 54.417C86.5972 58.0546 84.7758 61.5774 82.9055 65.1495C86.6948 65.1495 90.3377 65.1495 94.0945 65.1495ZM91.6062 48.4855C91.0696 49.5178 90.5817 50.4026 90.1426 51.3202C90.0612 51.5004 90.0938 51.7954 90.1913 51.9756C92.4031 56.2522 94.6311 60.5288 96.8754 64.8054C96.9567 64.9692 97.1682 65.1659 97.3308 65.1659C98.1277 65.1986 98.9083 65.1822 99.819 65.1822C97.0543 59.5948 94.3547 54.1057 91.6062 48.4855Z" fill="black"/>
<path d="M85.3941 41.5383C85.3779 42.2428 84.7273 42.8327 84.0118 42.7835C83.3612 42.7344 82.792 42.079 82.8246 41.3908C82.8571 40.7026 83.4751 40.1619 84.1907 40.1947C84.89 40.2274 85.4104 40.8173 85.3941 41.5383Z" fill="black"/>
<path d="M89.8006 83.3866C89.8006 84.0584 89.8169 84.7302 89.8006 85.402C89.7681 86.2377 89.2802 86.762 88.5484 86.7784C87.784 86.7948 87.2311 86.2705 87.2148 85.402C87.1823 84.0584 87.1823 82.6984 87.2148 81.3548C87.2311 80.5028 87.8003 79.9457 88.5321 79.9621C89.264 79.9785 89.7681 80.552 89.8006 81.4204C89.8006 81.4695 89.8006 81.5023 89.8006 81.5515C89.8006 82.1741 89.8006 82.7804 89.8006 83.3866Z" fill="black"/>
</g>
<defs>
<clipPath id="clip0_317_54">
<rect width="47" height="67" fill="white" transform="translate(65 36)"/>
</clipPath>
</defs>
</svg>
