<svg width="776" height="452" viewBox="0 0 776 452" fill="none" xmlns="http://www.w3.org/2000/svg">
<path d="M234.025 268.209L219.499 268.503L212.137 268.601C209.684 268.601 207.23 268.601 204.776 268.698H204.383V268.307L204.285 255.969V255.479H204.776L219.401 255.577C224.308 255.577 229.216 255.675 234.025 255.773H234.32V256.067C234.32 258.123 234.222 260.277 234.222 262.334L234.025 268.209ZM234.025 268.209L233.927 261.942C233.927 259.886 233.829 257.829 233.829 255.773L234.124 256.067C229.216 256.164 224.308 256.262 219.499 256.262L204.874 256.36L205.365 255.871L205.267 268.209L204.874 267.817C207.328 267.817 209.684 267.817 212.137 267.915L219.401 268.013L234.025 268.209Z" fill="#EBEBEB"/>
<path d="M217.639 283.778L203.112 284.072L195.751 284.17C193.297 284.17 190.843 284.17 188.389 284.268H187.997V283.876L187.898 271.538V271.049H188.389L203.014 271.147C207.922 271.147 212.829 271.244 217.639 271.342H217.933V271.636C217.933 273.692 217.835 275.847 217.835 277.903L217.639 283.778ZM217.639 283.778L217.541 277.511C217.541 275.455 217.442 273.399 217.442 271.342L217.737 271.636C212.829 271.734 207.922 271.832 203.112 271.832L188.487 271.93L188.978 271.44L188.88 283.778L188.487 283.387C190.941 283.387 193.297 283.387 195.751 283.485L203.014 283.583L217.639 283.778Z" fill="#EBEBEB"/>
<path d="M217.635 16.059L203.109 16.3528L195.747 16.4507C193.293 16.4507 190.84 16.4507 188.386 16.5486H187.993V16.1569L187.797 3.72081V3.2312H188.288L202.912 3.32912C207.82 3.32912 212.728 3.42705 217.537 3.52497H217.832V3.81873C217.832 5.8751 217.733 8.02939 217.733 10.0858L217.635 16.059ZM217.635 16.059L217.439 9.79198C217.439 7.73562 217.341 5.67925 217.341 3.62289L217.635 3.91666C212.728 4.01458 207.82 4.1125 203.011 4.1125L188.288 4.21042L188.778 3.72081L188.68 16.059L188.288 15.6673C190.741 15.6673 193.097 15.6673 195.551 15.7652L202.814 15.8632L217.635 16.059Z" fill="#EBEBEB"/>
<path d="M588.654 16.0592L574.128 16.353L566.766 16.4509C564.312 16.4509 561.859 16.4509 559.405 16.5488H559.012V16.1571L558.914 3.81896V3.32935H559.405L574.03 3.42727C578.937 3.42727 583.845 3.52519 588.654 3.62311H588.949V3.91688C588.949 5.97324 588.851 8.12753 588.851 10.1839L588.654 16.0592ZM588.654 16.0592L588.556 9.79221C588.556 7.73584 588.458 5.67948 588.458 3.62311L588.753 3.91688C583.845 4.0148 578.937 4.11272 574.128 4.11272L559.503 4.21064L559.994 3.72103L559.896 16.0592L559.503 15.6675C561.957 15.6675 564.312 15.6675 566.766 15.7655L574.03 15.8634L588.654 16.0592Z" fill="#EBEBEB"/>
<path d="M572.26 31.629L557.733 31.9228L550.372 32.0207C547.918 32.0207 545.464 32.0207 543.01 32.1187H542.618V31.727L542.52 19.3888V18.8992H543.01L557.635 18.9971C562.543 18.9971 567.45 19.095 572.26 19.1929H572.554V19.4867C572.554 21.5431 572.456 23.6974 572.456 25.7537L572.26 31.629ZM572.26 31.629L572.162 25.362C572.162 23.3057 572.064 21.2493 572.064 19.1929L572.358 19.4867C567.45 19.5846 562.543 19.6825 557.733 19.6825L542.912 19.7805L543.403 19.2909L543.305 31.629L542.912 31.2374C545.366 31.2374 547.722 31.2374 550.175 31.3353L557.439 31.4332L572.26 31.629Z" fill="#EBEBEB"/>
<path d="M497.072 176.358L482.546 176.651L475.184 176.749C472.73 176.749 470.277 176.749 467.823 176.847H467.43V176.455L467.332 164.117V163.628H467.823L482.448 163.726C487.355 163.726 492.263 163.824 497.072 163.921H497.367V164.215C497.367 166.272 497.269 168.426 497.269 170.482L497.072 176.358ZM497.072 176.358L496.974 170.091C496.974 168.034 496.876 165.978 496.876 163.921L497.17 164.215C492.263 164.313 487.355 164.411 482.546 164.411L467.921 164.509L468.412 164.019L468.314 176.358L467.921 175.966C470.375 175.966 472.73 175.966 475.184 176.064L482.448 176.162L497.072 176.358Z" fill="#EBEBEB"/>
<path d="M480.69 192.026L466.163 192.32L458.801 192.417C456.348 192.417 453.894 192.417 451.44 192.515H451.047V192.124L450.949 179.786V179.296H451.44L466.065 179.394C470.972 179.394 475.88 179.492 480.69 179.59H480.984V179.883C480.984 181.94 480.886 184.094 480.886 186.15L480.69 192.026ZM480.69 192.026L480.591 185.759C480.591 183.702 480.493 181.646 480.493 179.59L480.788 179.883C475.88 179.981 470.972 180.079 466.163 180.079L451.538 180.177L452.029 179.688L451.931 192.026L451.538 191.634C453.992 191.634 456.348 191.634 458.801 191.732L466.065 191.83L480.69 192.026Z" fill="#EBEBEB"/>
<path d="M464.393 176.358L449.866 176.651L442.505 176.749C440.051 176.749 437.597 176.749 435.143 176.847H434.751V176.455L434.652 164.117V163.628H435.143L449.768 163.726C454.676 163.726 459.583 163.824 464.393 163.921H464.687V164.215C464.687 166.272 464.589 168.426 464.589 170.482L464.393 176.358ZM464.393 176.358L464.294 170.091C464.294 168.034 464.196 165.978 464.196 163.921L464.491 164.215C459.583 164.313 454.676 164.411 449.866 164.411L435.241 164.509L435.732 164.019L435.634 176.358L435.241 175.966C437.695 175.966 440.051 175.966 442.505 176.064L449.768 176.162L464.393 176.358Z" fill="#EBEBEB"/>
<path d="M588.654 283.778L574.128 284.072L566.766 284.17C564.312 284.17 561.859 284.17 559.405 284.268H559.012V283.876L558.914 271.538V271.049H559.405L574.03 271.147C578.937 271.147 583.845 271.244 588.654 271.342H588.949V271.636C588.949 273.692 588.851 275.847 588.851 277.903L588.654 283.778ZM588.654 283.778L588.556 277.511C588.556 275.455 588.458 273.399 588.458 271.342L588.753 271.636C583.845 271.734 578.937 271.832 574.128 271.832L559.503 271.93L559.994 271.44L559.896 283.778L559.503 283.387C561.957 283.387 564.312 283.387 566.766 283.485L574.03 283.583L588.654 283.778Z" fill="#EBEBEB"/>
<path d="M339.35 52.8778L324.823 53.1716L317.462 53.2695C315.008 53.2695 312.554 53.2695 310.1 53.3674H309.708V52.9757L309.609 40.6376V40.1479H310.1L324.725 40.2459C329.633 40.2459 334.54 40.3438 339.35 40.4417H339.644V40.7355C339.644 42.7918 339.546 44.9461 339.546 47.0025L339.35 52.8778ZM339.35 52.8778L339.252 46.6108C339.252 44.5544 339.153 42.4981 339.153 40.4417L339.448 40.7355C334.54 40.8334 329.633 40.9313 324.823 40.9313L310.198 41.0292L310.689 40.5396L310.395 52.8778L310.002 52.4861C312.456 52.4861 314.811 52.4861 317.265 52.5841L324.529 52.682L339.35 52.8778Z" fill="#EBEBEB"/>
<path d="M558.523 134.839L564.314 125.536L561.468 123.774C560.584 123.284 560.192 122.305 560.29 121.326C560.29 120.738 560.388 120.248 560.388 119.661C560.388 118.682 560.879 117.8 561.762 117.311L564.707 115.744L559.505 106.148L556.56 107.714C555.677 108.204 554.597 108.106 553.812 107.519C553.321 107.225 552.929 106.931 552.438 106.637C551.554 106.148 551.064 105.266 551.064 104.287L551.162 100.958L540.169 100.664L540.071 103.993C540.071 104.973 539.482 105.854 538.5 106.246C538.304 106.344 538.009 106.441 537.813 106.637C537.617 106.735 537.322 106.931 537.126 107.029C536.243 107.519 535.261 107.519 534.378 107.029L531.531 105.266L525.74 114.569L528.587 116.332C529.47 116.821 529.863 117.8 529.765 118.78C529.765 119.367 529.666 119.857 529.666 120.444C529.666 121.424 529.176 122.305 528.292 122.794L525.348 124.361L530.55 133.958L533.494 132.391C534.378 131.901 535.359 131.999 536.243 132.587C536.733 132.88 537.126 133.174 537.617 133.468C538.5 133.958 538.991 134.839 538.991 135.818L538.893 139.147L549.886 139.441L549.984 136.112C549.984 135.133 550.573 134.251 551.554 133.86C551.751 133.762 552.045 133.664 552.242 133.468C552.438 133.37 552.732 133.174 552.929 133.076C553.812 132.587 554.793 132.489 555.677 133.076L558.523 134.839ZM549.199 127.886C544.782 130.237 539.383 128.572 537.028 124.263C534.672 119.857 536.341 114.471 540.659 112.121C545.076 109.771 550.475 111.435 552.83 115.744C555.186 120.151 553.616 125.536 549.199 127.886Z" fill="white"/>
<path d="M242.765 240.105L248.556 230.803L245.71 229.04C244.827 228.55 244.434 227.571 244.532 226.592C244.532 226.004 244.63 225.515 244.63 224.927C244.63 223.948 245.121 223.067 246.005 222.577L248.949 221.01L243.747 211.414L240.802 212.981C239.919 213.47 238.839 213.373 238.054 212.785C237.563 212.491 237.171 212.197 236.68 211.904C235.797 211.414 235.306 210.533 235.306 209.554L235.404 206.224L224.411 205.93L224.313 209.26C224.313 210.239 223.724 211.12 222.742 211.512C222.546 211.61 222.252 211.708 222.055 211.904C221.859 212.002 221.564 212.197 221.368 212.295C220.485 212.785 219.503 212.785 218.62 212.295L215.773 210.533L209.982 219.835L212.829 221.598C213.712 222.088 214.105 223.067 214.007 224.046C214.007 224.634 213.909 225.123 213.909 225.711C213.909 226.69 213.418 227.571 212.534 228.061L209.59 229.628L214.792 239.224L217.737 237.657C218.62 237.168 219.601 237.265 220.485 237.853C220.976 238.147 221.368 238.441 221.859 238.734C222.742 239.224 223.233 240.105 223.233 241.084L223.135 244.414L234.128 244.708L234.226 241.378C234.226 240.399 234.815 239.518 235.797 239.126C235.993 239.028 236.287 238.93 236.484 238.734C236.68 238.636 236.974 238.441 237.171 238.343C238.054 237.853 239.036 237.755 239.919 238.343L242.765 240.105ZM233.441 233.251C229.024 235.601 223.626 233.936 221.27 229.628C218.914 225.221 220.583 219.835 224.902 217.485C229.319 215.135 234.717 216.8 237.073 221.108C239.428 225.417 237.858 230.901 233.441 233.251Z" fill="white"/>
<path d="M354.951 62.0828L351.123 55.4241L349.061 56.5992C348.472 56.9909 347.687 56.893 347.098 56.5013C346.804 56.3054 346.411 56.1096 346.117 55.9137C345.528 55.62 345.135 54.9345 345.135 54.2491V51.8989H337.479V54.2491C337.479 54.9345 337.087 55.522 336.498 55.9137C336.203 56.1096 335.811 56.3054 335.516 56.5013C334.927 56.893 334.24 56.893 333.553 56.5992L331.492 55.4241L327.664 62.0828L329.725 63.2579C330.314 63.6496 330.609 64.2371 330.609 64.9226C330.609 65.1184 330.609 65.3143 330.609 65.5101C330.609 65.7059 330.609 65.9018 330.609 66.0976C330.609 66.7831 330.314 67.4685 329.725 67.7623L327.664 68.9374L331.492 75.5961L333.553 74.421C334.142 74.0293 334.927 74.1272 335.516 74.5189C335.811 74.7148 336.203 74.9106 336.498 75.1065C337.087 75.4002 337.479 76.0857 337.479 76.7711V79.1213H345.135V76.7711C345.135 76.0857 345.528 75.4982 346.117 75.1065C346.411 74.9106 346.804 74.7148 347.098 74.5189C347.687 74.1272 348.374 74.1272 349.061 74.421L351.123 75.5961L354.951 68.9374L352.889 67.7623C352.3 67.3706 352.006 66.7831 352.006 66.0976C352.006 65.9018 352.006 65.7059 352.006 65.5101C352.006 65.3143 352.006 65.1184 352.006 64.9226C352.006 64.2371 352.3 63.5517 352.889 63.2579L354.951 62.0828ZM347.589 65.5101C347.589 68.9374 344.743 71.7771 341.307 71.7771C337.872 71.7771 335.026 68.9374 335.026 65.5101C335.026 62.0828 337.872 59.2431 341.307 59.2431C344.743 59.2431 347.589 62.0828 347.589 65.5101Z" fill="white"/>
<path d="M185.641 332.74L236.386 332.544L287.032 332.446L388.424 332.25L489.816 332.446L540.561 332.544L591.306 332.74L540.561 333.034L489.816 333.132L388.424 333.229L287.032 333.132L236.386 333.034L185.641 332.74Z" fill="#263238"/>
<path d="M387.999 452C602.12 452 775.698 427.445 775.698 397.155C775.698 366.865 602.12 342.31 387.999 342.31C173.879 342.31 0.300781 366.865 0.300781 397.155C0.300781 427.445 173.879 452 387.999 452Z" fill="white"/>
<path d="M297.732 180.569L291.647 156.676L243.552 168.916L237.172 143.946L275.648 56.5014L294.689 51.7032L313.24 124.361L328.65 120.445L335.03 145.611L319.62 149.527L325.706 173.42L297.732 180.569ZM264.753 136.7L288.604 130.628L280.752 99.6851L264.753 136.7Z" fill="#263238"/>
<path d="M435.539 100.664C435.539 108.596 434.361 115.842 431.907 122.599C429.454 129.258 426.215 135.035 421.994 139.931C417.773 144.827 412.768 148.548 407.075 151.29C401.382 154.032 395.1 155.305 388.426 155.305C381.653 155.305 375.47 153.934 369.679 151.29C363.888 148.548 358.882 144.827 354.661 139.931C350.441 135.035 347.202 129.258 344.846 122.599C342.49 115.94 341.312 108.596 341.312 100.664C341.312 92.7326 342.49 85.4863 344.846 78.7297C347.202 72.071 350.441 66.2936 354.661 61.3975C358.882 56.5014 363.888 52.6824 369.679 49.9406C375.47 47.1988 381.751 45.8279 388.426 45.8279C395.198 45.8279 401.382 47.1988 407.075 49.9406C412.768 52.6824 417.773 56.5014 421.994 61.3975C426.215 66.2936 429.552 72.071 431.907 78.7297C434.361 85.4863 435.539 92.7326 435.539 100.664ZM406.486 100.664C406.486 92.243 404.817 85.4863 401.382 80.1985C398.045 75.0087 393.726 72.3648 388.426 72.3648C382.929 72.3648 378.414 75.0087 375.175 80.1985C371.838 85.3884 370.169 92.243 370.169 100.664C370.169 109.086 371.838 115.842 375.175 121.032C378.512 126.222 382.929 128.768 388.426 128.768C393.726 128.768 398.045 126.222 401.382 121.032C404.817 115.842 406.486 109.086 406.486 100.664Z" fill="#263238"/>
<path d="M487.462 175.966L491.388 151.584L442.41 143.652L446.533 118.192L516.712 53.2699L536.146 56.4034L524.073 130.53L539.778 133.076L535.655 158.732L519.951 156.186L516.025 180.569L487.462 175.966ZM474.702 122.599L498.946 126.516L504.05 95.0826L474.702 122.599Z" fill="#263238"/>
<path d="M347.885 28.5932C345.824 28.5932 343.959 28.2015 342.291 27.4182C340.622 26.6348 339.15 25.5577 337.972 24.1867C336.794 22.8158 335.813 21.347 335.224 19.5844C334.537 17.8218 334.242 16.1571 334.242 14.2966C334.242 12.4361 334.635 10.6735 335.322 8.91089C336.009 7.14829 336.99 5.67946 338.168 4.40647C339.444 3.13349 340.818 2.05634 342.585 1.27297C344.254 0.489589 346.119 0.0979004 348.082 0.0979004C350.143 0.0979004 352.008 0.489589 353.676 1.37089C355.345 2.15426 356.817 3.32933 357.995 4.60232C359.173 5.97323 360.155 7.44206 360.743 9.20466C361.43 10.9673 361.725 12.6319 361.725 14.3945C361.725 16.255 361.332 18.0176 360.645 19.7802C359.958 21.4449 358.977 23.0117 357.799 24.2847C356.621 25.5576 355.149 26.6348 353.48 27.4182C351.713 28.2015 349.848 28.5932 347.885 28.5932ZM339.739 14.2966C339.739 15.4717 339.935 16.6467 340.328 17.8218C340.72 18.9969 341.211 19.9761 341.898 20.8574C342.585 21.7387 343.469 22.4241 344.45 22.9138C345.432 23.4034 346.609 23.6971 347.885 23.6971C349.161 23.6971 350.339 23.4034 351.419 22.9138C352.4 22.3262 353.284 21.6408 353.971 20.7595C354.658 19.8782 355.247 18.8989 355.541 17.7239C355.934 16.6467 356.032 15.4717 356.032 14.2966C356.032 13.1215 355.836 11.9465 355.443 10.7714C355.051 9.59634 354.56 8.61712 353.775 7.73583C353.088 6.85453 352.204 6.16907 351.223 5.67946C350.241 5.18985 349.063 4.89608 347.787 4.89608C346.511 4.89608 345.333 5.18985 344.254 5.67946C343.174 6.26699 342.389 6.95245 341.702 7.83375C341.015 8.71505 340.524 9.69427 340.131 10.8693C339.935 12.0444 339.739 13.1215 339.739 14.2966Z" fill="#263238"/>
<path d="M374.977 28.789C373.308 28.789 371.738 28.4952 370.462 27.9077C369.088 27.3201 368.008 26.5368 367.027 25.5575C366.045 24.5783 365.358 23.4032 364.867 22.1303C364.376 20.8573 364.082 19.4864 364.082 18.0175C364.082 16.5487 364.376 15.1778 364.867 13.9048C365.358 12.6318 366.045 11.4567 367.027 10.4775C368.008 9.4983 369.088 8.71493 370.462 8.12739C371.836 7.53986 373.308 7.24609 374.977 7.24609C376.646 7.24609 378.216 7.53986 379.492 8.12739C380.866 8.71493 381.946 9.4983 382.927 10.4775C383.909 11.4567 384.596 12.6318 385.087 13.9048C385.577 15.1778 385.872 16.5487 385.872 18.0175C385.872 19.4864 385.577 20.7593 385.087 22.1303C384.596 23.4032 383.909 24.5783 382.927 25.5575C382.044 26.5368 380.866 27.3201 379.492 27.9077C378.118 28.4952 376.646 28.789 374.977 28.789ZM369.48 18.0175C369.48 18.8988 369.579 19.7801 369.873 20.5635C370.167 21.3469 370.56 21.9344 371.051 22.5219C371.542 23.1095 372.131 23.5012 372.818 23.7949C373.505 24.0887 374.192 24.2845 374.977 24.2845C375.762 24.2845 376.449 24.0887 377.136 23.7949C377.823 23.5012 378.412 23.1095 378.903 22.5219C379.394 21.9344 379.786 21.3469 380.081 20.5635C380.375 19.7801 380.474 18.9967 380.474 18.0175C380.474 17.1362 380.375 16.2549 380.081 15.5695C379.786 14.7861 379.394 14.1006 378.903 13.611C378.412 13.0235 377.823 12.6318 377.136 12.338C376.449 12.0443 375.762 11.8484 374.977 11.8484C374.192 11.8484 373.505 12.0443 372.818 12.338C372.131 12.6318 371.542 13.1214 371.051 13.611C370.56 14.1986 370.167 14.7861 369.873 15.5695C369.677 16.3529 369.48 17.1362 369.48 18.0175Z" fill="#263238"/>
<path d="M401.774 28.789C400.105 28.789 398.731 28.3973 397.455 27.7118C396.277 27.0264 395.296 26.0471 394.609 24.7742V36.8186H389.309V7.63778H393.922V11.163C394.707 9.98791 395.689 9.00869 396.866 8.32324C398.044 7.63778 399.516 7.24609 401.087 7.24609C402.461 7.24609 403.737 7.53986 405.013 8.12739C406.191 8.71493 407.271 9.4983 408.056 10.3796C408.939 11.3588 409.626 12.436 410.117 13.8069C410.608 15.0799 410.804 16.4508 410.804 17.9196C410.804 19.3884 410.608 20.8573 410.117 22.1303C409.626 23.4032 409.037 24.5783 408.252 25.5575C407.467 26.5368 406.485 27.3201 405.406 27.8097C404.326 28.4952 403.148 28.789 401.774 28.789ZM400.007 24.2845C400.792 24.2845 401.578 24.0887 402.167 23.7949C402.854 23.5012 403.443 23.0116 403.933 22.424C404.424 21.8365 404.817 21.151 405.013 20.3677C405.307 19.5843 405.406 18.8009 405.406 18.0175C405.406 17.1362 405.307 16.3529 405.013 15.5695C404.719 14.7861 404.326 14.1986 403.835 13.611C403.344 13.0235 402.756 12.6318 401.97 12.338C401.283 12.0443 400.498 11.8484 399.713 11.8484C399.222 11.8484 398.731 11.9464 398.142 12.1422C397.652 12.338 397.161 12.5339 396.67 12.8277C396.179 13.1214 395.787 13.5131 395.492 13.9048C395.1 14.2965 394.903 14.7861 394.707 15.2757V20.1718C395.198 21.3469 395.885 22.3261 396.866 23.1095C397.848 23.8929 398.928 24.2845 400.007 24.2845Z" fill="#263238"/>
<path d="M422.384 28.7891C420.617 28.7891 418.948 28.4953 417.28 28.0057C415.611 27.4182 414.139 26.6348 412.961 25.6556L414.924 22.3262C416.2 23.2075 417.476 23.893 418.654 24.3826C419.832 24.8722 421.009 25.068 422.285 25.068C423.365 25.068 424.15 24.8722 424.739 24.4805C425.328 24.0888 425.623 23.5013 425.623 22.8158C425.623 22.0324 425.23 21.5428 424.543 21.1511C423.856 20.7594 422.678 20.3678 421.009 19.9761C419.635 19.5844 418.556 19.2906 417.574 18.8989C416.593 18.6052 415.807 18.2135 415.317 17.7239C414.728 17.3322 414.335 16.7446 414.041 16.255C413.746 15.6675 413.648 14.982 413.648 14.1987C413.648 13.1215 413.844 12.2402 414.237 11.3589C414.63 10.4776 415.218 9.79217 416.004 9.20464C416.789 8.6171 417.574 8.12749 418.556 7.83373C419.537 7.53996 420.617 7.34412 421.795 7.34412C423.365 7.34412 424.837 7.53996 426.212 8.02957C427.586 8.51918 428.862 9.20464 429.941 10.1839L427.782 13.4153C426.702 12.6319 425.721 12.0444 424.739 11.6527C423.758 11.261 422.776 11.0652 421.795 11.0652C420.911 11.0652 420.126 11.261 419.537 11.6527C418.948 12.0444 418.654 12.6319 418.654 13.4153C418.654 13.807 418.752 14.1007 418.85 14.2966C418.948 14.4924 419.243 14.7862 419.537 14.8841C419.832 15.08 420.224 15.2758 420.813 15.3737C421.304 15.5696 421.991 15.7654 422.776 15.8633C424.249 16.255 425.426 16.6467 426.408 16.9405C427.389 17.3322 428.273 17.7239 428.862 18.2135C429.549 18.7031 429.941 19.1927 430.334 19.8781C430.628 20.4657 430.825 21.2491 430.825 22.1304C430.825 24.1867 430.04 25.7535 428.567 26.9285C426.997 28.2015 424.936 28.7891 422.384 28.7891Z" fill="#263238"/>
<path d="M435.242 17.8218V0H440.542V17.8218H435.242ZM435.242 28.3974V22.4242H440.542V28.3974H435.242Z" fill="#263238"/>
<path d="M408.645 264.978H373.801V267.818H408.645V264.978Z" fill="#37474F"/>
<path d="M408.645 268.601H373.801V271.441H408.645V268.601Z" fill="#37474F"/>
<path d="M408.645 272.322H373.801V275.162H408.645V272.322Z" fill="#37474F"/>
<path d="M408.645 276.043H373.801V278.883H408.645V276.043Z" fill="#37474F"/>
<path d="M408.645 279.764H373.801V282.604H408.645V279.764Z" fill="#37474F"/>
<path d="M423.757 353.793H357.504V356.632H423.757V353.793Z" fill="#37474F"/>
<path d="M423.757 357.514H357.504V360.354H423.757V357.514Z" fill="#37474F"/>
<path d="M423.757 361.235H357.504V364.075H423.757V361.235Z" fill="#37474F"/>
<path d="M423.757 364.956H357.504V367.796H423.757V364.956Z" fill="#37474F"/>
<path d="M423.757 368.677H357.504V371.516H423.757V368.677Z" fill="#37474F"/>
<path d="M328.448 241.378C328.448 240.986 313.922 236.09 313.922 236.09L314.805 186.248L334.043 182.135L328.448 241.378Z" fill="#FFC727"/>
<path opacity="0.2" d="M328.448 241.378C328.448 240.986 313.922 236.09 313.922 236.09L314.805 186.248L334.043 182.135L328.448 241.378Z" fill="black"/>
<path d="M461.547 260.963C461.645 260.571 476.957 261.061 476.957 261.061L493.348 213.96L476.662 203.482L461.547 260.963Z" fill="#FFC727"/>
<path opacity="0.2" d="M461.547 260.963C461.645 260.571 476.957 261.061 476.957 261.061L493.348 213.96L476.662 203.482L461.547 260.963Z" fill="black"/>
<path d="M325.605 259.69C325.605 259.69 331.004 179.1 335.715 152.563C335.715 152.563 433.279 159.907 485.987 179.981C485.987 179.981 458.799 274.084 457.425 278.784C457.425 278.882 388.718 265.369 325.605 259.69Z" fill="#FFC727"/>
<path opacity="0.1" d="M412.667 163.432C411.096 173.126 409.428 182.82 407.857 192.515L402.852 221.598L402.557 221.206L435.242 228.942L451.535 232.859L467.829 236.873L451.437 233.25L435.046 229.529L402.361 221.891L402.066 221.793L402.165 221.5L407.367 192.515C409.035 182.723 410.9 173.028 412.667 163.432Z" fill="black"/>
<path opacity="0.1" d="M409.137 168.916C409.137 169.797 408.449 170.678 407.468 170.776C406.977 170.776 406.388 170.678 405.996 170.286C405.603 169.895 405.309 169.405 405.309 168.818C405.309 168.23 405.505 167.74 405.996 167.349C406.388 166.957 406.977 166.859 407.468 166.859C408.449 167.153 409.137 168.034 409.137 168.916ZM409.137 168.916C409.137 168.426 408.94 168.034 408.646 167.74C408.351 167.447 407.861 167.349 407.468 167.349C406.683 167.447 406.094 168.132 406.094 168.916C406.094 169.601 406.585 170.384 407.468 170.482C407.861 170.482 408.351 170.384 408.646 170.091C408.94 169.797 409.137 169.405 409.137 168.916Z" fill="black"/>
<path opacity="0.1" d="M407.367 180.96C407.367 181.841 406.68 182.723 405.698 182.821C405.208 182.821 404.619 182.723 404.226 182.331C403.834 181.939 403.539 181.45 403.539 180.862C403.539 180.275 403.735 179.785 404.226 179.393C404.619 179.002 405.208 178.904 405.698 178.904C406.68 179.1 407.465 179.981 407.367 180.96ZM407.367 180.96C407.367 180.471 407.171 180.079 406.876 179.785C406.582 179.491 406.091 179.393 405.698 179.393C404.913 179.491 404.324 180.177 404.324 180.96C404.324 181.646 404.815 182.429 405.698 182.527C406.091 182.527 406.582 182.429 406.876 182.135C407.171 181.841 407.367 181.352 407.367 180.96Z" fill="black"/>
<path opacity="0.1" d="M405.305 193.592C405.305 194.473 404.617 195.354 403.636 195.452C403.145 195.452 402.556 195.354 402.164 194.963C401.771 194.571 401.477 194.081 401.477 193.494C401.477 192.906 401.673 192.417 402.164 192.025C402.556 191.633 403.145 191.535 403.636 191.535C404.617 191.829 405.305 192.71 405.305 193.592ZM405.305 193.592C405.305 193.102 405.108 192.71 404.814 192.417C404.519 192.123 404.029 192.025 403.636 192.025C402.851 192.123 402.262 192.808 402.262 193.592C402.262 194.277 402.753 195.061 403.636 195.159C404.029 195.159 404.519 195.061 404.814 194.767C405.108 194.473 405.305 194.081 405.305 193.592Z" fill="black"/>
<path opacity="0.1" d="M403.144 206.224C403.144 207.105 402.457 207.986 401.476 208.084C400.985 208.084 400.396 207.986 400.003 207.595C399.611 207.203 399.316 206.713 399.316 206.126C399.316 205.538 399.513 205.049 400.003 204.657C400.396 204.265 400.985 204.167 401.476 204.167C402.457 204.461 403.243 205.342 403.144 206.224ZM403.144 206.224C403.144 205.734 402.948 205.342 402.654 205.049C402.359 204.755 401.868 204.657 401.476 204.657C400.691 204.755 400.102 205.44 400.102 206.224C400.102 206.909 400.592 207.692 401.476 207.79C401.868 207.79 402.359 207.692 402.654 207.399C402.948 207.105 403.144 206.713 403.144 206.224Z" fill="black"/>
<path opacity="0.1" d="M410.41 226.494C410.41 227.375 409.723 228.256 408.741 228.354C408.251 228.354 407.662 228.256 407.269 227.865C406.876 227.473 406.582 226.983 406.582 226.396C406.582 225.808 406.778 225.319 407.269 224.927C407.662 224.535 408.251 224.437 408.741 224.437C409.723 224.633 410.41 225.612 410.41 226.494ZM410.41 226.494C410.41 226.004 410.214 225.612 409.919 225.319C409.625 225.025 409.134 224.927 408.741 224.927C407.956 225.025 407.367 225.71 407.367 226.494C407.367 227.179 407.858 227.962 408.741 228.06C409.134 228.06 409.625 227.962 409.919 227.669C410.214 227.375 410.41 226.885 410.41 226.494Z" fill="black"/>
<path opacity="0.1" d="M422.383 229.333C422.383 230.215 421.696 231.096 420.714 231.194C420.223 231.194 419.634 231.096 419.242 230.704C418.849 230.313 418.555 229.823 418.555 229.236C418.555 228.648 418.751 228.158 419.242 227.767C419.634 227.375 420.223 227.277 420.714 227.277C421.696 227.571 422.383 228.452 422.383 229.333ZM422.383 229.333C422.383 228.844 422.186 228.452 421.892 228.158C421.597 227.865 421.107 227.767 420.714 227.767C419.929 227.865 419.34 228.55 419.34 229.333C419.34 230.019 419.831 230.802 420.714 230.9C421.107 230.9 421.597 230.802 421.892 230.509C422.186 230.313 422.383 229.823 422.383 229.333Z" fill="black"/>
<path opacity="0.1" d="M434.359 232.271C434.359 233.152 433.672 234.034 432.691 234.131C432.2 234.131 431.611 234.034 431.218 233.642C430.826 233.25 430.531 232.761 430.531 232.173C430.531 231.586 430.728 231.096 431.218 230.704C431.611 230.313 432.2 230.215 432.691 230.215C433.672 230.508 434.359 231.39 434.359 232.271ZM434.359 232.271C434.359 231.781 434.163 231.39 433.868 231.096C433.574 230.802 433.083 230.704 432.691 230.704C431.905 230.802 431.316 231.488 431.316 232.271C431.316 232.956 431.807 233.74 432.691 233.838C433.083 233.838 433.574 233.74 433.868 233.446C434.163 233.152 434.359 232.761 434.359 232.271Z" fill="black"/>
<path opacity="0.1" d="M446.336 235.209C446.336 236.09 445.649 236.971 444.667 237.069C444.176 237.069 443.587 236.971 443.195 236.58C442.802 236.188 442.508 235.698 442.508 235.111C442.508 234.523 442.704 234.034 443.195 233.642C443.587 233.25 444.176 233.152 444.667 233.152C445.649 233.446 446.336 234.327 446.336 235.209ZM446.336 235.209C446.336 234.719 446.139 234.327 445.845 234.034C445.551 233.74 445.06 233.642 444.667 233.642C443.882 233.74 443.293 234.425 443.293 235.209C443.293 235.894 443.784 236.678 444.667 236.775C445.06 236.775 445.551 236.678 445.845 236.384C446.139 236.09 446.336 235.698 446.336 235.209Z" fill="black"/>
<path opacity="0.1" d="M458.306 238.244C458.207 239.126 457.52 240.007 456.441 240.007C455.95 240.007 455.459 239.811 455.067 239.419C454.674 239.028 454.478 238.44 454.576 237.951C454.576 237.363 454.87 236.873 455.361 236.58C455.754 236.286 456.343 236.188 456.833 236.188C457.815 236.384 458.404 237.363 458.306 238.244ZM458.306 238.244C458.306 237.755 458.207 237.363 457.815 237.069C457.52 236.776 457.03 236.58 456.637 236.58C455.852 236.58 455.263 237.265 455.165 237.951C455.067 238.636 455.557 239.419 456.343 239.615C456.735 239.713 457.226 239.615 457.52 239.321C458.011 239.126 458.306 238.734 458.306 238.244Z" fill="black"/>
<path opacity="0.1" d="M401.086 218.954C401.086 219.835 400.399 220.716 399.417 220.814C398.926 220.814 398.337 220.716 397.945 220.325C397.552 219.933 397.258 219.443 397.258 218.856C397.258 218.268 397.454 217.779 397.945 217.387C398.337 216.995 398.926 216.897 399.417 216.897C400.399 217.093 401.086 218.073 401.086 218.954ZM401.086 218.954C401.086 218.464 400.889 218.073 400.595 217.779C400.301 217.485 399.81 217.387 399.417 217.387C398.632 217.485 398.043 218.17 398.043 218.954C398.043 219.639 398.534 220.423 399.417 220.521C399.81 220.521 400.301 220.423 400.595 220.129C400.889 219.835 401.086 219.346 401.086 218.954Z" fill="black"/>
<path opacity="0.2" d="M380.891 239.859C392.259 229.662 393.188 212.203 382.967 200.862C372.747 189.522 355.246 188.594 343.879 198.791C332.512 208.988 331.582 226.447 341.803 237.788C352.024 249.128 369.524 250.055 380.891 239.859Z" fill="black"/>
<path d="M383.108 227.155C387.445 215.725 381.673 202.951 370.216 198.624C358.759 194.298 345.955 200.056 341.618 211.487C337.281 222.917 343.054 235.69 354.511 240.017C365.968 244.344 378.772 238.585 383.108 227.155Z" fill="#263238"/>
<path d="M361.04 211.174L355.809 210.328L354.961 215.548L360.193 216.393L361.04 211.174Z" fill="#FFC727"/>
<path d="M356.712 205.206L351.48 204.36L350.633 209.58L355.865 210.425L356.712 205.206Z" fill="#FFC727"/>
<path d="M377.525 208.539L372.293 207.694L371.445 212.913L376.677 213.759L377.525 208.539Z" fill="#FFC727"/>
<path d="M353.384 225.771L348.152 224.926L347.305 230.145L352.537 230.991L353.384 225.771Z" fill="#FFC727"/>
<path d="M374.181 229.201L368.949 228.356L368.102 233.575L373.334 234.421L374.181 229.201Z" fill="#FFC727"/>
<path d="M359.369 221.454L354.137 220.609L353.289 225.828L358.521 226.674L359.369 221.454Z" fill="#FFC727"/>
<path d="M365.455 217.155L360.223 216.31L359.375 221.529L364.607 222.375L365.455 217.155Z" fill="#FFC727"/>
<path d="M371.427 212.937L366.195 212.092L365.348 217.311L370.58 218.157L371.427 212.937Z" fill="#FFC727"/>
<path d="M369.779 223.118L364.547 222.273L363.699 227.493L368.931 228.338L369.779 223.118Z" fill="#FFC727"/>
<path d="M458.085 248.422C467.774 236.626 466.043 219.227 454.218 209.561C442.394 199.895 424.954 201.622 415.266 213.419C405.577 225.215 407.308 242.614 419.132 252.28C430.957 261.946 448.396 260.219 458.085 248.422Z" fill="#FFC727"/>
<path opacity="0.2" d="M458.085 248.422C467.774 236.626 466.043 219.227 454.218 209.561C442.394 199.895 424.954 201.622 415.266 213.419C405.577 225.215 407.308 242.614 419.132 252.28C430.957 261.946 448.396 260.219 458.085 248.422Z" fill="black"/>
<path opacity="0.2" d="M463.697 237.363C463.599 237.951 463.402 238.441 463.304 238.93L409.32 227.473C409.418 226.494 409.615 225.515 409.811 224.536C413.345 209.651 428.264 200.545 443.183 204.07C458.004 207.595 467.23 222.479 463.697 237.363Z" fill="black"/>
<path d="M445.239 251.334C456.543 246.623 461.878 233.661 457.155 222.383C452.432 211.106 439.44 205.783 428.136 210.495C416.832 215.207 411.497 228.168 416.219 239.446C420.942 250.723 433.934 256.046 445.239 251.334Z" fill="#263238"/>
<path d="M442.321 218.833L437.164 217.61L431.105 243.047L436.262 244.27L442.321 218.833Z" fill="#FFC727"/>
<path d="M465.271 236.776L408.539 223.361C412.269 207.693 427.973 198.097 443.678 201.818C459.284 205.539 469.001 221.206 465.271 236.776Z" fill="#FFC727"/>
<path opacity="0.2" d="M465.271 236.776L408.539 223.361C412.269 207.693 427.973 198.097 443.678 201.818C459.284 205.539 469.001 221.206 465.271 236.776Z" fill="black"/>
<path opacity="0.1" d="M388.52 247.352C388.618 245.1 389.501 242.945 391.072 241.085C391.857 240.203 392.936 239.518 394.114 239.028C395.292 238.637 396.568 238.539 397.746 238.637C398.924 238.735 400.2 239.224 401.181 240.008C402.163 240.791 402.948 241.77 403.439 242.945C404.322 245.1 404.42 247.45 404.028 249.604C403.635 247.45 403.144 245.295 402.065 243.631C401.083 241.868 399.414 240.791 397.55 240.595C395.587 240.399 393.722 240.889 392.151 242.162C390.581 243.533 389.403 245.393 388.52 247.352Z" fill="black"/>
<path d="M333.156 190.948C333.353 188.011 333.745 185.073 334.04 182.135C334.334 179.198 334.727 176.26 335.021 173.322C335.316 170.385 335.708 167.447 336.101 164.509C336.493 161.572 336.886 158.634 337.279 155.696L337.377 154.913L338.162 155.011C344.542 155.402 350.922 155.892 357.302 156.578C360.443 156.871 363.682 157.263 366.823 157.655C369.964 158.144 373.203 158.536 376.343 159.123L357.204 157.948L338.064 156.675L338.947 155.99C338.555 158.928 338.064 161.865 337.671 164.803C337.181 167.741 336.788 170.678 336.297 173.518C335.806 176.456 335.316 179.393 334.825 182.233C334.334 185.171 333.843 188.108 333.156 190.948Z" fill="white"/>
<path d="M337.77 213.373C338.457 209.847 340.027 206.42 342.186 203.482C342.775 202.699 343.364 202.014 343.953 201.328C344.64 200.643 345.229 200.055 345.916 199.37C346.603 198.782 347.388 198.195 348.076 197.607C348.861 197.117 349.646 196.628 350.431 196.138C351.315 195.747 352.1 195.355 352.983 194.963L355.633 194.082L358.382 193.494C359.265 193.396 360.247 193.298 361.13 193.298C364.86 193.201 368.491 193.984 371.829 195.355C368.295 194.669 364.762 194.278 361.228 194.669C357.793 194.963 354.357 196.04 351.315 197.705C348.272 199.37 345.524 201.622 343.266 204.266C341.009 207.008 339.144 209.945 337.77 213.373Z" fill="white"/>
<path d="M414.227 220.815C415.306 217.387 417.466 214.254 420.018 211.61C420.607 210.924 421.392 210.337 422.079 209.749C422.766 209.162 423.551 208.672 424.336 208.085C425.122 207.595 425.907 207.105 426.692 206.714C427.575 206.322 428.361 205.93 429.244 205.539C430.127 205.245 431.011 204.951 431.894 204.657L434.642 204.168L437.391 203.972C438.274 203.972 439.256 204.07 440.139 204.168C443.771 204.559 447.304 205.832 450.445 207.693C447.01 206.518 443.574 205.735 440.041 205.539C436.507 205.343 433.072 205.93 429.833 207.203C426.594 208.378 423.551 210.337 420.999 212.687C418.349 214.939 415.993 217.681 414.227 220.815Z" fill="white"/>
<path d="M328.747 309.435C321.68 309.435 306.074 307.868 296.062 295.04C283.302 278.589 287.915 247.156 288.112 245.785L293.706 246.666C293.706 246.96 289.289 277.12 300.577 291.613C311.668 305.811 331.691 303.755 331.888 303.755L332.477 309.337C332.28 309.239 330.906 309.435 328.747 309.435Z" fill="#FFC727"/>
<path opacity="0.4" d="M328.747 309.435C321.68 309.435 306.074 307.868 296.062 295.04C283.302 278.589 287.915 247.156 288.112 245.785L293.706 246.666C293.706 246.96 289.289 277.12 300.577 291.613C311.668 305.811 331.691 303.755 331.888 303.755L332.477 309.337C332.28 309.239 330.906 309.435 328.747 309.435Z" fill="white"/>
<path d="M295.277 250.387C294.296 250.387 293.216 250.289 292.137 250.094C282.812 248.625 278.592 242.945 276.825 238.539C274.96 234.132 274.567 228.746 275.549 222.577L287.425 224.536C286.836 228.355 287.033 231.684 287.916 233.936C288.603 235.601 289.879 237.559 294.1 238.147C295.965 238.441 298.026 238.245 300.185 235.013C301.854 232.468 302.835 229.138 303.228 226.984L315.104 228.942C314.81 230.607 313.632 236.58 310.197 241.672C306.565 247.45 301.265 250.387 295.277 250.387Z" fill="#FFC727"/>
<path d="M340.428 325.395C340.428 325.102 330.318 323.535 330.318 323.535L325.41 290.829L337.581 286.031L340.428 325.395Z" fill="#FFC727"/>
<path opacity="0.2" d="M340.428 325.395C340.428 325.102 330.318 323.535 330.318 323.535L325.41 290.829L337.581 286.031L340.428 325.395Z" fill="black"/>
<path d="M439.758 325.493C439.758 325.2 449.868 323.829 449.868 323.829L455.462 291.221L443.389 286.129L439.758 325.493Z" fill="#FFC727"/>
<path opacity="0.2" d="M439.758 325.493C439.758 325.2 449.868 323.829 449.868 323.829L455.462 291.221L443.389 286.129L439.758 325.493Z" fill="black"/>
<path d="M336.306 278.785C336.306 278.785 417.576 275.357 445.059 279.862C445.059 279.862 437.01 358.297 436.52 359.864C436.52 359.864 355.642 359.668 343.078 359.864C342.98 359.766 336.208 307.672 336.306 278.785Z" fill="#FFC727"/>
<path opacity="0.2" d="M360.945 300.23C360.945 300.23 405.31 298.467 420.328 300.817C420.328 300.817 415.911 340.378 415.715 341.161C415.715 341.161 371.546 341.063 364.675 341.161C364.675 341.161 361.632 314.037 360.945 300.23Z" fill="black"/>
<path opacity="0.2" d="M367.031 341.063C366.049 341.063 365.166 341.063 364.675 341.063C364.675 341.063 361.632 313.939 360.945 300.23C360.945 300.23 361.927 300.23 363.694 300.132L367.031 341.063Z" fill="black"/>
<path d="M380.093 310.022C377.639 309.239 374.989 310.61 374.204 313.058C373.419 315.506 374.793 318.15 377.247 318.933C379.7 319.716 382.351 318.345 383.136 315.897C384.019 313.449 382.645 310.805 380.093 310.022ZM382.645 315.702C381.958 317.856 379.602 319.129 377.443 318.443C375.284 317.758 374.008 315.408 374.695 313.254C375.382 311.099 377.737 309.826 379.897 310.512C382.154 311.197 383.332 313.547 382.645 315.702ZM380.093 310.022C377.639 309.239 374.989 310.61 374.204 313.058C373.419 315.506 374.793 318.15 377.247 318.933C379.7 319.716 382.351 318.345 383.136 315.897C384.019 313.449 382.645 310.805 380.093 310.022ZM382.645 315.702C381.958 317.856 379.602 319.129 377.443 318.443C375.284 317.758 374.008 315.408 374.695 313.254C375.382 311.099 377.737 309.826 379.897 310.512C382.154 311.197 383.332 313.547 382.645 315.702ZM380.093 310.022C377.639 309.239 374.989 310.61 374.204 313.058C373.419 315.506 374.793 318.15 377.247 318.933C379.7 319.716 382.351 318.345 383.136 315.897C384.019 313.449 382.645 310.805 380.093 310.022ZM382.645 315.702C381.958 317.856 379.602 319.129 377.443 318.443C375.284 317.758 374.008 315.408 374.695 313.254C375.382 311.099 377.737 309.826 379.897 310.512C382.154 311.197 383.332 313.547 382.645 315.702ZM381.664 305.028C376.461 303.363 370.867 306.301 369.198 311.491C367.53 316.681 370.474 322.262 375.676 323.927C380.878 325.592 386.473 322.654 388.142 317.464C389.81 312.274 386.964 306.693 381.664 305.028ZM383.921 316.093C383.038 318.933 379.995 320.598 377.05 319.618C374.204 318.737 372.633 315.702 373.517 312.764C374.4 309.924 377.443 308.357 380.388 309.239C383.234 310.218 384.804 313.254 383.921 316.093ZM383.234 315.897C384.019 313.449 382.645 310.805 380.191 310.022C377.737 309.239 375.087 310.61 374.302 313.058C373.517 315.506 374.891 318.15 377.345 318.933C379.799 319.716 382.449 318.345 383.234 315.897ZM382.645 315.702C381.958 317.856 379.602 319.129 377.443 318.443C375.284 317.758 374.008 315.408 374.695 313.254C375.382 311.099 377.737 309.826 379.897 310.512C382.154 311.197 383.332 313.547 382.645 315.702ZM380.093 310.022C377.639 309.239 374.989 310.61 374.204 313.058C373.419 315.506 374.793 318.15 377.247 318.933C379.7 319.716 382.351 318.345 383.136 315.897C384.019 313.449 382.645 310.805 380.093 310.022ZM382.645 315.702C381.958 317.856 379.602 319.129 377.443 318.443C375.284 317.758 374.008 315.408 374.695 313.254C375.382 311.099 377.737 309.826 379.897 310.512C382.154 311.197 383.332 313.547 382.645 315.702ZM380.093 310.022C377.639 309.239 374.989 310.61 374.204 313.058C373.419 315.506 374.793 318.15 377.247 318.933C379.7 319.716 382.351 318.345 383.136 315.897C384.019 313.449 382.645 310.805 380.093 310.022ZM382.645 315.702C381.958 317.856 379.602 319.129 377.443 318.443C375.284 317.758 374.008 315.408 374.695 313.254C375.382 311.099 377.737 309.826 379.897 310.512C382.154 311.197 383.332 313.547 382.645 315.702Z" fill="#FFC727"/>
<path d="M377.642 324.123L374.011 322.948L373.422 325.592L376.661 326.669L377.642 324.123Z" fill="#FFC727"/>
<path d="M371.063 320.695L369.297 317.366L367.039 318.737L368.609 321.772L371.063 320.695Z" fill="#FFC727"/>
<path d="M368.904 313.645L369.983 310.022L367.431 309.435L366.352 312.666L368.904 313.645Z" fill="#FFC727"/>
<path d="M372.341 307.182L375.679 305.419L374.206 303.069L371.262 304.636L372.341 307.182Z" fill="#FFC727"/>
<path d="M379.309 304.93L383.038 306.105L383.627 303.461L380.388 302.384L379.309 304.93Z" fill="#FFC727"/>
<path d="M385.883 308.357L387.65 311.687L390.005 310.316L388.435 307.28L385.883 308.357Z" fill="#FFC727"/>
<path d="M388.139 315.408L386.961 319.031L389.611 319.618L390.593 316.387L388.139 315.408Z" fill="#FFC727"/>
<path d="M384.705 321.871L381.27 323.633L382.742 325.983L385.785 324.417L384.705 321.871Z" fill="#FFC727"/>
<path d="M396.166 323.83C394.694 322.85 392.731 323.242 391.75 324.711C390.768 326.18 391.161 328.138 392.633 329.117C394.105 330.097 396.068 329.705 397.05 328.236C398.031 326.767 397.639 324.809 396.166 323.83ZM396.755 328.04C395.872 329.313 394.203 329.705 392.927 328.824C391.651 327.942 391.259 326.278 392.142 325.005C393.026 323.732 394.694 323.34 395.97 324.221C397.246 325.005 397.541 326.767 396.755 328.04ZM396.166 323.83C394.694 322.85 392.731 323.242 391.75 324.711C390.768 326.18 391.161 328.138 392.633 329.117C394.105 330.097 396.068 329.705 397.05 328.236C398.031 326.767 397.639 324.809 396.166 323.83ZM396.755 328.04C395.872 329.313 394.203 329.705 392.927 328.824C391.651 327.942 391.259 326.278 392.142 325.005C393.026 323.732 394.694 323.34 395.97 324.221C397.246 325.005 397.541 326.767 396.755 328.04ZM396.166 323.83C394.694 322.85 392.731 323.242 391.75 324.711C390.768 326.18 391.161 328.138 392.633 329.117C394.105 330.097 396.068 329.705 397.05 328.236C398.031 326.767 397.639 324.809 396.166 323.83ZM396.755 328.04C395.872 329.313 394.203 329.705 392.927 328.824C391.651 327.942 391.259 326.278 392.142 325.005C393.026 323.732 394.694 323.34 395.97 324.221C397.246 325.005 397.541 326.767 396.755 328.04ZM398.031 320.892C394.89 318.836 390.768 319.717 388.805 322.85C386.744 325.984 387.627 330.097 390.768 332.055C393.909 334.111 398.031 333.23 399.994 330.097C402.056 327.061 401.172 322.948 398.031 320.892ZM397.442 328.53C396.363 330.195 394.105 330.684 392.338 329.607C390.67 328.53 390.179 326.278 391.259 324.515C392.338 322.85 394.596 322.361 396.363 323.438C398.129 324.515 398.62 326.767 397.442 328.53ZM397.05 328.236C398.031 326.767 397.639 324.809 396.166 323.83C394.694 322.85 392.731 323.242 391.75 324.711C390.768 326.18 391.161 328.138 392.633 329.117C394.105 330.097 396.068 329.705 397.05 328.236ZM396.755 328.04C395.872 329.313 394.203 329.705 392.927 328.824C391.651 327.942 391.259 326.278 392.142 325.005C393.026 323.732 394.694 323.34 395.97 324.221C397.246 325.005 397.541 326.767 396.755 328.04ZM396.166 323.83C394.694 322.85 392.731 323.242 391.75 324.711C390.768 326.18 391.161 328.138 392.633 329.117C394.105 330.097 396.068 329.705 397.05 328.236C398.031 326.767 397.639 324.809 396.166 323.83ZM396.755 328.04C395.872 329.313 394.203 329.705 392.927 328.824C391.651 327.942 391.259 326.278 392.142 325.005C393.026 323.732 394.694 323.34 395.97 324.221C397.246 325.005 397.541 326.767 396.755 328.04ZM396.166 323.83C394.694 322.85 392.731 323.242 391.75 324.711C390.768 326.18 391.161 328.138 392.633 329.117C394.105 330.097 396.068 329.705 397.05 328.236C398.031 326.767 397.639 324.809 396.166 323.83ZM396.755 328.04C395.872 329.313 394.203 329.705 392.927 328.824C391.651 327.942 391.259 326.278 392.142 325.005C393.026 323.732 394.694 323.34 395.97 324.221C397.246 325.005 397.541 326.767 396.755 328.04Z" fill="#DBDBDB"/>
<path d="M391.945 332.545L389.786 331.174L388.902 332.741L390.865 334.014L391.945 332.545Z" fill="#DBDBDB"/>
<path d="M388.312 329.215L387.821 326.669L386.055 327.159L386.545 329.411L388.312 329.215Z" fill="#DBDBDB"/>
<path d="M388.214 324.222L389.589 322.067L388.018 321.186L386.742 323.144L388.214 324.222Z" fill="#DBDBDB"/>
<path d="M391.552 320.598L394.104 320.011L393.613 318.346L391.355 318.738L391.552 320.598Z" fill="#DBDBDB"/>
<path d="M396.559 320.403L398.718 321.872L399.601 320.207L397.638 318.934L396.559 320.403Z" fill="#DBDBDB"/>
<path d="M400.188 323.83L400.678 326.376L402.445 325.788L401.954 323.536L400.188 323.83Z" fill="#DBDBDB"/>
<path d="M400.386 328.824L398.914 330.978L400.583 331.761L401.76 329.901L400.386 328.824Z" fill="#DBDBDB"/>
<path d="M396.95 332.447L394.398 332.937L394.987 334.699L397.147 334.21L396.95 332.447Z" fill="#DBDBDB"/>
<path d="M442.996 350.659L446.137 351.247L455.069 290.927L451.535 290.241L442.996 350.659Z" fill="#FFC727"/>
<path d="M415.613 341.161L420.226 300.817L451.439 290.241C451.439 290.241 442.9 351.345 442.9 350.659L415.613 341.161Z" fill="#FFC727"/>
<path opacity="0.4" d="M415.613 341.161L420.226 300.817L451.439 290.241C451.439 290.241 442.9 351.345 442.9 350.659L415.613 341.161Z" fill="white"/>
<path d="M340.038 302.384C339.547 299.054 339.253 295.627 339.056 292.298C338.958 290.633 338.958 288.968 338.86 287.206C338.86 285.541 338.762 283.876 338.86 282.114V281.624H339.253C345.436 281.33 351.62 280.841 357.902 280.645C364.085 280.351 370.269 280.057 376.551 279.862C370.367 280.449 364.183 280.939 358 281.33C351.816 281.82 345.633 282.114 339.449 282.603L339.94 282.114V287.108L340.038 292.2C340.038 293.864 340.038 295.529 340.136 297.292L340.038 302.384Z" fill="white"/>
<path d="M424.645 301.404C426.608 300.523 428.571 299.642 430.534 298.858C432.497 298.075 434.558 297.292 436.521 296.606C438.582 295.921 440.545 295.235 442.606 294.648C444.668 294.06 446.729 293.571 448.888 293.179L449.379 293.081L449.281 293.571C448.79 296.215 448.299 298.761 447.71 301.404C447.907 298.761 448.299 296.117 448.594 293.473L448.986 293.864C446.925 294.354 444.864 294.942 442.803 295.529C440.742 296.117 438.779 296.802 436.717 297.39L424.645 301.404Z" fill="white"/>
<path opacity="0.1" d="M353.48 278.883L354.069 288.969L354.462 299.055L355.247 319.226L355.836 339.496L356.131 349.582L356.327 359.668L355.738 349.582L355.345 339.496L354.56 319.324L353.873 299.055L353.677 288.969L353.48 278.883Z" fill="black"/>
<path opacity="0.1" d="M350.636 284.954C350.832 285.835 350.341 286.814 349.36 287.108C348.869 287.206 348.28 287.206 347.888 286.912C347.397 286.618 347.102 286.129 347.004 285.639C346.906 285.15 347.004 284.562 347.397 284.072C347.691 283.681 348.182 283.387 348.673 283.289C349.556 283.387 350.44 284.072 350.636 284.954ZM350.636 284.954C350.538 284.562 350.243 284.17 349.851 283.877C349.458 283.681 348.967 283.681 348.673 283.779C347.888 284.072 347.495 284.856 347.691 285.541C347.789 286.227 348.476 286.814 349.36 286.814C349.752 286.814 350.145 286.618 350.439 286.227C350.636 285.933 350.734 285.443 350.636 284.954Z" fill="black"/>
<path opacity="0.1" d="M351.323 297.096C351.52 297.977 351.029 298.957 350.047 299.25C349.557 299.348 348.968 299.348 348.575 299.054C348.084 298.761 347.79 298.271 347.692 297.782C347.593 297.292 347.692 296.704 348.084 296.215C348.379 295.823 348.869 295.529 349.36 295.431C350.244 295.431 351.127 296.215 351.323 297.096ZM351.323 297.096C351.225 296.704 350.931 296.313 350.538 296.019C350.145 295.823 349.655 295.823 349.36 295.921C348.575 296.215 348.182 296.998 348.379 297.684C348.477 298.369 349.164 298.957 350.047 298.957C350.44 298.957 350.833 298.761 351.127 298.369C351.323 297.977 351.421 297.488 351.323 297.096Z" fill="black"/>
<path opacity="0.1" d="M351.71 309.924C351.906 310.805 351.416 311.784 350.434 312.078C349.943 312.176 349.354 312.176 348.962 311.882C348.471 311.589 348.177 311.099 348.078 310.609C347.98 310.12 348.078 309.532 348.471 309.043C348.765 308.651 349.256 308.357 349.747 308.259C350.728 308.259 351.612 309.043 351.71 309.924ZM351.71 309.924C351.612 309.532 351.317 309.141 350.925 308.847C350.532 308.651 350.041 308.651 349.747 308.749C348.962 309.043 348.569 309.826 348.765 310.512C348.864 311.197 349.551 311.784 350.434 311.784C350.827 311.784 351.219 311.589 351.514 311.197C351.71 310.805 351.808 310.316 351.71 309.924Z" fill="black"/>
<path opacity="0.1" d="M352.206 322.752C352.402 323.633 351.912 324.612 350.93 324.906C350.439 325.004 349.85 325.004 349.458 324.71C348.967 324.416 348.673 323.927 348.574 323.437C348.476 322.947 348.574 322.36 348.967 321.87C349.262 321.479 349.752 321.185 350.243 321.087C351.126 321.087 352.01 321.87 352.206 322.752ZM352.206 322.752C352.108 322.36 351.813 321.968 351.421 321.674C351.028 321.479 350.538 321.479 350.243 321.577C349.458 321.87 349.065 322.654 349.262 323.339C349.36 324.025 350.047 324.612 350.93 324.612C351.323 324.612 351.715 324.416 352.01 324.025C352.206 323.633 352.304 323.241 352.206 322.752Z" fill="black"/>
<path opacity="0.1" d="M352.601 335.579C352.797 336.461 352.306 337.44 351.325 337.734C350.834 337.832 350.245 337.832 349.852 337.538C349.362 337.244 349.067 336.755 348.969 336.265C348.871 335.775 348.969 335.188 349.362 334.698C349.656 334.306 350.147 334.013 350.638 333.915C351.619 333.915 352.503 334.698 352.601 335.579ZM352.601 335.579C352.503 335.188 352.208 334.796 351.815 334.502C351.423 334.306 350.932 334.306 350.638 334.404C349.852 334.698 349.46 335.482 349.656 336.167C349.754 336.852 350.441 337.44 351.325 337.44C351.717 337.44 352.11 337.244 352.404 336.852C352.601 336.461 352.699 336.069 352.601 335.579Z" fill="black"/>
<path opacity="0.1" d="M353.089 348.407C353.285 349.288 352.794 350.268 351.813 350.561C351.322 350.659 350.733 350.659 350.341 350.366C349.85 350.072 349.555 349.582 349.457 349.093C349.359 348.603 349.457 348.015 349.85 347.526C350.144 347.134 350.635 346.84 351.126 346.742C352.009 346.84 352.893 347.526 353.089 348.407ZM353.089 348.407C352.991 348.015 352.696 347.624 352.304 347.33C351.911 347.134 351.42 347.134 351.126 347.232C350.341 347.526 349.948 348.309 350.144 348.995C350.243 349.68 350.93 350.268 351.813 350.268C352.206 350.268 352.598 350.072 352.893 349.68C353.089 349.386 353.187 348.897 353.089 348.407Z" fill="black"/>
<path d="M357.097 367.997L311.07 381.912L312.693 387.253L358.72 373.338L357.097 367.997Z" fill="#FFC727"/>
<path opacity="0.4" d="M357.097 367.997L311.07 381.912L312.693 387.253L358.72 373.338L357.097 367.997Z" fill="white"/>
<path d="M335.031 372.938L329.699 374.629L332.228 382.562L337.56 380.87L335.031 372.938Z" fill="#FFC727"/>
<path d="M312.359 395.214L300.482 343.903L264.559 352.324L282.226 402.362L312.359 395.214Z" fill="#FFC727"/>
<path d="M320.307 392.57L312.357 395.214L300.48 343.903L311.866 346.644L320.307 392.57Z" fill="#FFC727"/>
<path opacity="0.2" d="M320.307 392.57L312.357 395.214L300.48 343.903L311.866 346.644L320.307 392.57Z" fill="black"/>
<path d="M357.898 376.805C361.259 376.805 363.983 374.087 363.983 370.734C363.983 367.381 361.259 364.662 357.898 364.662C354.537 364.662 351.812 367.381 351.812 370.734C351.812 374.087 354.537 376.805 357.898 376.805Z" fill="#FFC727"/>
<path d="M420.638 367.891L419.004 373.229L465.002 387.239L466.635 381.901L420.638 367.891Z" fill="#FFC727"/>
<path opacity="0.4" d="M420.638 367.891L419.004 373.229L465.002 387.239L466.635 381.901L420.638 367.891Z" fill="white"/>
<path d="M442.656 372.718L440.109 380.645L445.437 382.348L447.983 374.422L442.656 372.718Z" fill="#FFC727"/>
<path d="M465.375 395.116L477.35 343.902L513.175 352.422L495.41 402.362L465.375 395.116Z" fill="#FFC727"/>
<path d="M457.426 392.472L465.376 395.116L477.351 343.902L465.867 346.546L457.426 392.472Z" fill="#FFC727"/>
<path opacity="0.2" d="M457.426 392.472L465.376 395.116L477.351 343.902L465.867 346.546L457.426 392.472Z" fill="black"/>
<path d="M413.746 370.537C413.746 373.867 416.494 376.608 419.832 376.608C423.169 376.608 425.917 373.867 425.917 370.537C425.917 367.208 423.169 364.466 419.832 364.466C416.494 364.466 413.746 367.208 413.746 370.537Z" fill="#FFC727"/>
<path d="M459.778 307.28C459.876 307.182 474.697 293.473 492.07 298.173C509.836 302.971 524.558 329.704 524.657 329.9L529.564 327.256C528.877 326.081 513.565 298.173 493.444 292.787C472.93 287.304 456.539 302.58 455.852 303.265L459.778 307.28Z" fill="#FFC727"/>
<path opacity="0.4" d="M459.778 307.28C459.876 307.182 474.697 293.473 492.07 298.173C509.836 302.971 524.558 329.704 524.657 329.9L529.564 327.256C528.877 326.081 513.565 298.173 493.444 292.787C472.93 287.304 456.539 302.58 455.852 303.265L459.778 307.28Z" fill="white"/>
<path d="M518.079 356.828L528.679 351.247C527.698 349.288 526.422 345.959 526.226 343.021C526.029 339.104 527.502 337.734 529.268 336.852C532.998 334.894 535.256 335.677 536.728 336.559C538.887 337.832 541.047 340.377 542.813 343.805L553.414 338.223C550.469 332.74 546.936 328.725 542.813 326.277C538.691 323.829 532.017 321.87 523.575 326.277C516.999 329.704 513.662 335.971 514.153 343.805C514.644 349.876 517.294 355.36 518.079 356.828Z" fill="#FFC727"/>
<path d="M462.035 288.577C464.391 287.01 466.746 285.443 469.102 283.974C471.458 282.506 473.912 281.037 476.267 279.666C478.721 278.295 481.077 276.826 483.531 275.553L487.26 273.595C488.536 272.909 489.714 272.322 490.99 271.636C489.812 272.42 488.635 273.203 487.457 273.986L483.923 276.239C481.568 277.707 479.114 279.176 476.758 280.547C474.304 281.918 471.949 283.387 469.495 284.66C466.943 286.031 464.489 287.402 462.035 288.577Z" fill="#263238"/>
<path d="M455.852 311.49C459.189 313.351 462.33 315.505 465.372 317.66C468.415 319.814 471.458 322.164 474.304 324.612C470.967 322.752 467.826 320.597 464.783 318.443C461.741 316.289 458.796 314.036 455.852 311.49Z" fill="#263238"/>
<path d="M461.348 308.749C463.9 309.532 466.452 310.413 468.905 311.295C471.457 312.176 473.911 313.155 476.365 314.037C478.819 315.016 481.273 315.995 483.727 317.072L487.358 318.639C488.536 319.226 489.812 319.716 490.99 320.304C489.714 319.912 488.438 319.52 487.162 319.129L483.432 317.856C480.88 316.974 478.426 315.995 475.972 315.114C473.519 314.134 471.065 313.155 468.611 312.078C466.157 310.903 463.703 309.826 461.348 308.749Z" fill="#263238"/>
<path d="M468.609 290.731C471.063 290.144 473.517 289.556 475.971 289.066C478.425 288.577 480.878 288.087 483.43 287.696C485.884 287.304 488.436 286.814 490.89 286.52L494.62 286.031C495.896 285.933 497.074 285.737 498.35 285.639C497.172 285.933 495.896 286.227 494.718 286.52L490.988 287.304C488.534 287.793 486.081 288.283 483.529 288.675C481.075 289.066 478.523 289.556 476.069 289.85C473.615 290.144 471.063 290.535 468.609 290.731Z" fill="#263238"/>
<path d="M409.621 306.007C410.014 304.049 410.701 302.09 411.584 300.23C412.468 298.369 413.547 296.606 414.823 295.04C416.197 293.473 417.768 292.102 419.731 291.319C421.694 290.633 423.951 290.633 425.914 291.417C427.878 292.2 429.448 293.865 430.331 295.823C430.724 296.802 431.018 297.782 431.117 298.859C431.215 299.936 431.215 301.013 430.724 302.09C430.528 302.58 430.135 303.167 429.644 303.461C429.35 303.657 429.055 303.755 428.761 303.755C428.466 303.755 428.172 303.755 427.779 303.657C427.092 303.363 426.798 302.873 426.503 302.384C426.209 301.894 426.013 301.405 425.914 300.915C425.326 298.859 425.326 296.802 425.424 294.746C425.718 290.633 426.798 286.52 428.957 282.995C430.037 281.233 431.509 279.666 433.178 278.491C434.945 277.316 436.908 276.532 438.969 276.239C439.95 276.043 441.03 276.043 442.012 275.945C442.502 275.847 443.091 276.043 443.582 276.043C444.073 276.141 444.662 276.141 445.152 276.239C447.214 276.63 449.078 277.414 450.943 278.393C452.71 279.372 454.281 280.743 455.753 282.114C457.225 283.583 458.501 285.15 459.581 286.912C457.225 283.583 454.281 280.743 450.747 278.785C448.98 277.903 447.115 277.12 445.152 276.826C444.662 276.728 444.171 276.728 443.68 276.63C443.189 276.63 442.699 276.532 442.208 276.532C441.226 276.63 440.245 276.63 439.263 276.826C437.3 277.12 435.435 277.903 433.865 278.98C432.196 280.058 430.92 281.624 429.841 283.289C427.779 286.618 426.7 290.633 426.503 294.55C426.405 296.509 426.405 298.565 426.896 300.425C427.092 301.307 427.583 302.286 428.172 302.58C428.27 302.58 428.27 302.678 428.368 302.678C428.466 302.678 428.565 302.678 428.663 302.678C428.859 302.678 429.055 302.58 429.153 302.482C429.448 302.286 429.742 301.894 429.939 301.503C430.331 300.719 430.331 299.642 430.233 298.761C430.135 297.782 429.939 296.9 429.448 296.019C428.663 294.256 427.289 292.69 425.522 292.004C423.755 291.221 421.694 291.221 419.829 291.808C417.964 292.494 416.394 293.767 415.019 295.236C412.566 298.369 410.701 302.09 409.621 306.007Z" fill="#263238"/>
<path d="M318.93 331.369C319.911 329.606 321.285 328.039 322.856 326.864C324.524 325.689 326.389 324.71 328.352 324.221C330.315 323.731 332.475 323.731 334.536 324.318C336.499 324.906 338.364 326.081 339.738 327.55C341.21 329.019 342.29 330.879 342.977 332.74C343.664 334.698 344.155 336.755 343.959 338.811C343.86 339.888 343.664 340.965 342.781 341.847C342.388 342.336 341.701 342.532 341.112 342.63C340.523 342.63 339.934 342.532 339.444 342.238C338.953 341.944 338.462 341.455 338.266 340.965C337.971 340.476 337.873 339.888 337.873 339.301C337.873 338.223 338.069 337.146 338.364 336.167C339.051 334.209 340.131 332.348 341.407 330.781C342.683 329.117 344.155 327.746 345.824 326.473C349.161 324.025 353.381 322.752 357.504 323.241C359.565 323.535 361.528 324.123 363.393 325.102C365.16 326.081 366.73 327.452 368.006 329.117C369.282 330.683 370.264 332.544 371.049 334.404C371.834 336.265 372.423 338.223 372.619 340.182C371.834 336.265 370.165 332.446 367.613 329.41C366.337 327.844 364.767 326.571 363.098 325.689C361.332 324.71 359.467 324.221 357.504 324.025C353.578 323.633 349.553 324.808 346.412 327.158C343.272 329.508 340.621 332.74 339.345 336.363C339.051 337.244 338.855 338.223 338.855 339.105C338.855 339.986 339.149 340.867 339.934 341.259C340.327 341.455 340.72 341.553 341.21 341.553C341.603 341.553 341.996 341.357 342.29 341.063C342.879 340.476 343.075 339.496 343.173 338.517C343.37 336.559 342.977 334.6 342.29 332.838C341.603 330.977 340.523 329.312 339.247 327.844C337.873 326.375 336.205 325.298 334.34 324.71C332.475 324.123 330.414 324.025 328.549 324.416C324.721 325.591 321.089 327.942 318.93 331.369Z" fill="#263238"/>
<path d="M273.582 94.8868C273.484 90.872 272.6 86.7593 270.735 83.2341C269.754 81.4715 268.576 79.9047 266.907 78.8276C265.239 77.7504 263.276 77.3588 261.313 77.6525C259.448 77.9463 257.681 79.1213 256.503 80.5902C255.914 81.3736 255.424 82.2549 255.129 83.1362C254.835 84.0175 254.638 84.9967 254.736 85.878C254.835 86.2697 254.933 86.7593 255.227 86.9551C255.325 87.053 255.522 87.151 255.718 87.2489C255.816 87.2489 255.914 87.2489 256.012 87.3468C256.111 87.3468 256.209 87.3468 256.209 87.3468C256.896 87.2489 257.485 86.3676 257.976 85.4863C258.859 83.8216 259.448 81.8632 259.84 79.9047C260.527 75.9878 260.527 71.8751 259.252 68.1541C258.663 66.2935 257.681 64.531 256.405 63.0621C255.129 61.5933 253.46 60.4182 251.694 59.6348C250.81 59.1452 249.829 58.9494 248.945 58.6556C248.455 58.4598 247.964 58.4598 247.473 58.3619C246.982 58.2639 246.492 58.166 246.001 58.166C244.038 57.9702 241.977 58.2639 240.112 58.7535C236.186 59.7328 232.652 61.8871 229.609 64.531C231.082 63.0621 232.652 61.8871 234.419 60.8099C236.186 59.7328 238.051 58.8515 240.014 58.2639C241.977 57.7743 244.038 57.3826 246.099 57.4806C246.59 57.4806 247.081 57.5785 247.669 57.6764C248.16 57.7743 248.749 57.7743 249.24 57.9702C250.221 58.2639 251.203 58.4598 252.185 58.9494C254.148 59.6348 255.914 60.9078 257.288 62.4746C258.663 64.0413 259.644 65.9019 260.331 67.8603C261.607 71.7772 261.705 76.0858 261.018 80.1006C260.626 82.1569 260.037 84.1154 259.055 85.9759C258.761 86.4655 258.466 86.8572 258.172 87.3468C257.779 87.7385 257.387 88.1302 256.601 88.326C256.209 88.326 255.914 88.326 255.62 88.2281C255.325 88.1302 255.031 87.9343 254.835 87.7385C254.442 87.2489 254.246 86.6614 254.148 86.1717C253.951 85.0946 254.246 84.0175 254.54 82.9403C254.933 81.9611 255.424 80.9819 256.111 80.1985C257.387 78.5338 259.35 77.2608 261.411 76.9671C263.472 76.6733 265.73 77.1629 267.398 78.338C269.165 79.513 270.343 81.2756 271.324 83.0382C272.208 84.8988 272.797 86.8572 273.189 88.8156C273.484 90.872 273.68 92.8304 273.582 94.8868Z" fill="#263238"/>
<path d="M490.298 146.002C486.372 145.121 482.152 145.023 478.324 146.1C476.361 146.59 474.496 147.471 473.121 148.744C471.747 150.115 470.766 151.976 470.668 153.836C470.471 155.795 471.257 157.655 472.434 159.222C473.023 160.005 473.809 160.593 474.594 161.18C475.379 161.67 476.262 162.062 477.244 162.16C477.735 162.16 478.127 162.16 478.422 161.964C478.618 161.866 478.716 161.768 478.814 161.572C478.913 161.474 478.912 161.376 478.912 161.278C478.912 161.18 478.913 161.082 479.011 161.082C479.011 160.397 478.324 159.516 477.637 158.928C476.164 157.655 474.397 156.676 472.631 155.893C468.999 154.326 464.975 153.347 461.049 153.64C459.086 153.836 457.123 154.228 455.356 155.207C453.589 156.088 452.117 157.361 450.939 159.026C450.252 159.809 449.859 160.691 449.27 161.474C448.976 161.866 448.878 162.355 448.681 162.845C448.485 163.335 448.289 163.726 448.191 164.216C447.602 166.076 447.405 168.133 447.405 170.091C447.504 174.106 448.681 178.023 450.546 181.646C449.467 179.883 448.681 178.023 448.093 176.064C447.504 174.106 447.013 172.148 446.915 170.091C446.817 168.035 447.013 165.978 447.602 164.02C447.7 163.53 447.994 163.041 448.093 162.551C448.289 162.062 448.387 161.572 448.681 161.18C449.172 160.299 449.663 159.32 450.35 158.536C451.528 156.872 453.098 155.403 454.963 154.424C456.828 153.444 458.889 152.955 460.951 152.759C465.073 152.367 469.294 153.347 473.023 154.913C474.888 155.795 476.753 156.774 478.324 158.243C478.716 158.634 479.109 159.026 479.403 159.418C479.698 159.907 479.992 160.397 479.992 161.082C479.894 161.474 479.796 161.768 479.6 161.964C479.403 162.257 479.207 162.453 478.912 162.551C478.324 162.845 477.735 162.943 477.146 162.845C476.066 162.747 474.986 162.257 474.103 161.67C473.22 161.082 472.434 160.397 471.747 159.516C470.373 157.851 469.686 155.697 469.882 153.542C470.079 151.388 471.158 149.43 472.631 148.059C474.201 146.688 476.164 145.807 478.127 145.415C480.09 144.925 482.152 144.827 484.213 144.925C486.274 145.121 488.335 145.415 490.298 146.002Z" fill="#263238"/>
<path d="M429.548 82.6466C428.861 80.2965 428.763 77.8484 429.155 75.4004C429.548 73.0503 430.333 70.6022 431.707 68.5458C432.983 66.4895 434.848 64.7269 437.008 63.5518C439.167 62.3767 441.719 61.8871 444.173 61.9851C446.627 62.083 449.08 62.6705 451.338 63.7477C453.595 64.8248 455.657 66.1957 457.325 68.0562C458.11 69.0354 458.896 70.1126 458.896 71.5814C458.896 72.2669 458.601 73.0503 458.11 73.5399C457.62 74.0295 457.031 74.4212 456.344 74.617C455.657 74.8128 454.871 74.8128 454.283 74.5191C453.595 74.3232 453.105 73.8336 452.614 73.4419C451.632 72.5606 451.043 71.4835 450.455 70.3084C449.375 68.0562 448.786 65.6082 448.491 63.258C448.197 60.81 448.295 58.3619 448.688 55.9139C449.473 51.1157 452.025 46.4154 455.951 43.4778C457.914 42.0089 460.172 40.8339 462.527 40.2463C464.883 39.5609 467.435 39.463 469.791 39.7567C472.244 40.0505 474.6 40.736 476.759 41.7152C479.017 42.6944 481.078 43.8695 483.041 45.3383C479.017 42.6944 474.502 40.736 469.692 40.2463C467.337 40.0505 464.883 40.1484 462.626 40.8339C460.368 41.4214 458.209 42.5965 456.344 44.0653C454.479 45.5341 452.908 47.3947 451.829 49.451C450.651 51.5074 449.964 53.7596 449.473 56.1097C448.688 60.7121 449.179 65.7061 451.142 70.0147C451.632 71.0918 452.319 72.071 453.105 72.8544C453.89 73.6378 454.97 74.1274 455.951 73.8336C456.442 73.7357 456.933 73.344 457.325 73.0503C457.718 72.6586 457.816 72.2669 457.816 71.7773C457.816 70.7001 457.227 69.7209 456.442 68.8396C454.97 67.077 452.908 65.7061 450.847 64.7269C448.688 63.7477 446.332 63.1601 443.976 63.0622C441.621 62.9643 439.265 63.4539 437.106 64.4331C434.946 65.5103 433.18 67.1749 431.904 69.1334C429.45 72.8544 428.468 77.9464 429.548 82.6466Z" fill="#263238"/>
<path d="M315.684 331.564C313.524 330.879 311.169 332.054 310.482 334.306C309.794 336.46 310.972 338.81 313.23 339.496C315.389 340.181 317.745 339.006 318.432 336.754C319.119 334.6 317.843 332.25 315.684 331.564ZM317.941 336.656C317.352 338.615 315.291 339.692 313.328 339.006C311.365 338.419 310.285 336.362 310.972 334.404C311.561 332.445 313.622 331.368 315.585 332.054C317.45 332.641 318.53 334.698 317.941 336.656ZM315.684 331.564C313.524 330.879 311.169 332.054 310.482 334.306C309.794 336.46 310.972 338.81 313.23 339.496C315.389 340.181 317.745 339.006 318.432 336.754C319.119 334.6 317.843 332.25 315.684 331.564ZM317.941 336.656C317.352 338.615 315.291 339.692 313.328 339.006C311.365 338.419 310.285 336.362 310.972 334.404C311.561 332.445 313.622 331.368 315.585 332.054C317.45 332.641 318.53 334.698 317.941 336.656ZM315.684 331.564C313.524 330.879 311.169 332.054 310.482 334.306C309.794 336.46 310.972 338.81 313.23 339.496C315.389 340.181 317.745 339.006 318.432 336.754C319.119 334.6 317.843 332.25 315.684 331.564ZM317.941 336.656C317.352 338.615 315.291 339.692 313.328 339.006C311.365 338.419 310.285 336.362 310.972 334.404C311.561 332.445 313.622 331.368 315.585 332.054C317.45 332.641 318.53 334.698 317.941 336.656ZM317.058 327.158C312.445 325.689 307.439 328.235 306.065 332.935C304.592 337.537 307.144 342.531 311.856 343.902C316.469 345.371 321.475 342.825 322.849 338.125C324.321 333.62 321.671 328.626 317.058 327.158ZM319.021 337.048C318.236 339.594 315.487 340.965 312.935 340.181C310.383 339.398 309.009 336.656 309.794 334.11C310.58 331.564 313.328 330.193 315.88 330.977C318.432 331.76 319.806 334.502 319.021 337.048ZM318.432 336.852C319.119 334.698 317.941 332.348 315.684 331.662C313.524 330.977 311.169 332.152 310.482 334.404C309.794 336.558 310.972 338.908 313.23 339.594C315.389 340.181 317.745 339.006 318.432 336.852ZM317.941 336.656C317.352 338.615 315.291 339.692 313.328 339.006C311.365 338.419 310.285 336.362 310.972 334.404C311.561 332.445 313.622 331.368 315.585 332.054C317.45 332.641 318.53 334.698 317.941 336.656ZM315.684 331.564C313.524 330.879 311.169 332.054 310.482 334.306C309.794 336.46 310.972 338.81 313.23 339.496C315.389 340.181 317.745 339.006 318.432 336.754C319.119 334.6 317.843 332.25 315.684 331.564ZM317.941 336.656C317.352 338.615 315.291 339.692 313.328 339.006C311.365 338.419 310.285 336.362 310.972 334.404C311.561 332.445 313.622 331.368 315.585 332.054C317.45 332.641 318.53 334.698 317.941 336.656ZM315.684 331.564C313.524 330.879 311.169 332.054 310.482 334.306C309.794 336.46 310.972 338.81 313.23 339.496C315.389 340.181 317.745 339.006 318.432 336.754C319.119 334.6 317.843 332.25 315.684 331.564ZM317.941 336.656C317.352 338.615 315.291 339.692 313.328 339.006C311.365 338.419 310.285 336.362 310.972 334.404C311.561 332.445 313.622 331.368 315.585 332.054C317.45 332.641 318.53 334.698 317.941 336.656Z" fill="#455A64"/>
<path d="M313.523 344.098L310.284 343.119L309.695 345.371L312.64 346.351L313.523 344.098Z" fill="#455A64"/>
<path d="M307.729 341.063L306.159 338.125L304.098 339.398L305.472 342.042L307.729 341.063Z" fill="#455A64"/>
<path d="M305.769 334.894L306.751 331.662L304.395 331.075L303.512 333.914L305.769 334.894Z" fill="#455A64"/>
<path d="M308.814 329.116L311.758 327.55L310.482 325.493L307.832 326.864L308.814 329.116Z" fill="#455A64"/>
<path d="M314.996 327.158L318.235 328.137L318.726 325.787L315.879 324.906L314.996 327.158Z" fill="#455A64"/>
<path d="M320.785 330.095L322.356 333.131L324.417 331.858L323.043 329.214L320.785 330.095Z" fill="#455A64"/>
<path d="M322.747 336.362L321.766 339.594L324.121 340.083L325.005 337.244L322.747 336.362Z" fill="#455A64"/>
<path d="M319.71 342.14L316.766 343.706L318.042 345.763L320.692 344.294L319.71 342.14Z" fill="#455A64"/>
<path d="M478.422 303.657C482.839 297.684 481.563 289.262 475.674 284.856C469.686 280.449 461.245 281.722 456.828 287.598C452.411 293.571 453.687 301.992 459.577 306.399C465.564 310.805 474.005 309.532 478.422 303.657ZM472.631 299.348C470.57 302.09 466.644 302.678 463.895 300.621C461.147 298.565 460.558 294.648 462.619 291.808C464.681 289.067 468.607 288.479 471.355 290.535C474.103 292.69 474.692 296.607 472.631 299.348Z" fill="#263238"/>
<path d="M462.031 307.476L457.908 304.44L455.945 307.476L459.577 310.218L462.031 307.476Z" fill="#263238"/>
<path d="M455.159 300.229L454.373 295.137L450.84 295.921L451.527 300.523L455.159 300.229Z" fill="#263238"/>
<path d="M455.455 290.241L458.498 286.129L455.455 284.17L452.707 287.891L455.455 290.241Z" fill="#263238"/>
<path d="M462.712 283.387L467.816 282.701L467.031 279.078L462.418 279.764L462.712 283.387Z" fill="#263238"/>
<path d="M472.727 283.681L476.849 286.814L478.812 283.681L475.082 280.939L472.727 283.681Z" fill="#263238"/>
<path d="M479.598 290.927L480.285 296.019L483.916 295.235L483.229 290.731L479.598 290.927Z" fill="#263238"/>
<path d="M479.305 300.915L476.164 305.028L479.305 306.986L482.053 303.363L479.305 300.915Z" fill="#263238"/>
<path d="M472.038 307.77L466.934 308.553L467.719 312.078L472.234 311.393L472.038 307.77Z" fill="#263238"/>
<path d="M462.82 296.214L465.667 299.838L470.182 299.152L471.85 294.844L469.004 291.22L464.489 291.906L462.82 296.214ZM468.219 294.452C468.906 294.942 469.004 295.823 468.513 296.508C468.022 297.194 467.139 297.292 466.452 296.802C465.765 296.312 465.667 295.431 466.157 294.746C466.648 294.06 467.63 293.962 468.219 294.452Z" fill="#263238"/>
<path d="M488.536 42.4002C486.573 41.8127 484.61 42.8898 483.923 44.7504C483.334 46.7088 484.414 48.7652 486.279 49.3527C488.242 49.9402 490.205 48.8631 490.892 47.0026C491.481 45.0441 490.401 42.9878 488.536 42.4002ZM490.499 46.8067C490.008 48.4714 488.144 49.4506 486.475 48.8631C484.806 48.3735 483.825 46.5129 484.414 44.8483C484.905 43.1836 486.769 42.2044 488.438 42.7919C490.107 43.3794 490.99 45.142 490.499 46.8067ZM488.536 42.4002C486.573 41.8127 484.61 42.8898 483.923 44.7504C483.334 46.7088 484.414 48.7652 486.279 49.3527C488.242 49.9402 490.205 48.8631 490.892 47.0026C491.481 45.0441 490.401 42.9878 488.536 42.4002ZM490.499 46.8067C490.008 48.4714 488.144 49.4506 486.475 48.8631C484.806 48.3735 483.825 46.5129 484.414 44.8483C484.905 43.1836 486.769 42.2044 488.438 42.7919C490.107 43.3794 490.99 45.142 490.499 46.8067ZM488.536 42.4002C486.573 41.8127 484.61 42.8898 483.923 44.7504C483.334 46.7088 484.414 48.7652 486.279 49.3527C488.242 49.9402 490.205 48.8631 490.892 47.0026C491.481 45.0441 490.401 42.9878 488.536 42.4002ZM490.499 46.8067C490.008 48.4714 488.144 49.4506 486.475 48.8631C484.806 48.3735 483.825 46.5129 484.414 44.8483C484.905 43.1836 486.769 42.2044 488.438 42.7919C490.107 43.3794 490.99 45.142 490.499 46.8067ZM489.714 38.5813C485.69 37.3083 481.371 39.5605 480.095 43.5753C478.819 47.5901 481.077 51.8987 485.101 53.1717C489.125 54.4446 493.444 52.1924 494.72 48.1776C495.996 44.1628 493.738 39.8542 489.714 38.5813ZM491.481 47.1005C490.794 49.3527 488.438 50.5278 486.181 49.8423C483.923 49.1568 482.745 46.8067 483.432 44.5545C484.119 42.3023 486.475 41.1272 488.732 41.8127C490.892 42.5961 492.168 44.9462 491.481 47.1005ZM490.892 47.0026C491.481 45.0441 490.401 43.0857 488.536 42.4002C486.573 41.8127 484.61 42.8898 483.923 44.7504C483.334 46.7088 484.414 48.7652 486.279 49.3527C488.242 49.9402 490.303 48.8631 490.892 47.0026ZM490.499 46.8067C490.008 48.4714 488.144 49.4506 486.475 48.8631C484.806 48.3735 483.825 46.5129 484.414 44.8483C484.905 43.1836 486.769 42.2044 488.438 42.7919C490.107 43.3794 490.99 45.142 490.499 46.8067ZM488.536 42.4002C486.573 41.8127 484.61 42.8898 483.923 44.7504C483.334 46.7088 484.414 48.7652 486.279 49.3527C488.242 49.9402 490.205 48.8631 490.892 47.0026C491.481 45.0441 490.401 42.9878 488.536 42.4002ZM490.499 46.8067C490.008 48.4714 488.144 49.4506 486.475 48.8631C484.806 48.3735 483.825 46.5129 484.414 44.8483C484.905 43.1836 486.769 42.2044 488.438 42.7919C490.107 43.3794 490.99 45.142 490.499 46.8067ZM488.536 42.4002C486.573 41.8127 484.61 42.8898 483.923 44.7504C483.334 46.7088 484.414 48.7652 486.279 49.3527C488.242 49.9402 490.205 48.8631 490.892 47.0026C491.481 45.0441 490.401 42.9878 488.536 42.4002ZM490.499 46.8067C490.008 48.4714 488.144 49.4506 486.475 48.8631C484.806 48.3735 483.825 46.5129 484.414 44.8483C484.905 43.1836 486.769 42.2044 488.438 42.7919C490.107 43.3794 490.99 45.142 490.499 46.8067Z" fill="#263238"/>
<path d="M486.579 53.3678L483.831 52.4865L483.34 54.5428L485.794 55.3262L486.579 53.3678Z" fill="#263238"/>
<path d="M481.571 50.7239L480.196 48.08L478.43 49.1571L479.608 51.5072L481.571 50.7239Z" fill="#263238"/>
<path d="M479.807 45.2402L480.69 42.4005L478.629 42.0088L477.844 44.4568L479.807 45.2402Z" fill="#263238"/>
<path d="M482.457 40.2462L485.107 38.8753L483.929 37.0148L481.672 38.2878L482.457 40.2462Z" fill="#263238"/>
<path d="M487.953 38.4836L490.701 39.3649L491.192 37.3085L488.738 36.5251L487.953 38.4836Z" fill="#263238"/>
<path d="M492.953 41.1274L494.327 43.7713L496.094 42.5962L494.916 40.344L492.953 41.1274Z" fill="#263238"/>
<path d="M494.727 46.6112L493.844 49.353L495.905 49.8426L496.69 47.3946L494.727 46.6112Z" fill="#263238"/>
<path d="M492.072 51.6052L489.422 52.9761L490.502 54.7387L492.857 53.5637L492.072 51.6052Z" fill="#263238"/>
<path d="M451.044 182.331C449.081 181.744 447.02 182.821 446.431 184.681C445.842 186.64 446.922 188.696 448.786 189.284C450.75 189.871 452.713 188.794 453.4 186.933C453.989 184.975 452.909 182.919 451.044 182.331ZM453.007 186.738C452.516 188.402 450.651 189.382 448.983 188.794C447.314 188.304 446.333 186.444 446.922 184.779C447.412 183.115 449.277 182.135 450.946 182.723C452.516 183.212 453.498 185.073 453.007 186.738ZM451.044 182.331C449.081 181.744 447.02 182.821 446.431 184.681C445.842 186.64 446.922 188.696 448.786 189.284C450.75 189.871 452.713 188.794 453.4 186.933C453.989 184.975 452.909 182.919 451.044 182.331ZM453.007 186.738C452.516 188.402 450.651 189.382 448.983 188.794C447.314 188.304 446.333 186.444 446.922 184.779C447.412 183.115 449.277 182.135 450.946 182.723C452.516 183.212 453.498 185.073 453.007 186.738ZM451.044 182.331C449.081 181.744 447.02 182.821 446.431 184.681C445.842 186.64 446.922 188.696 448.786 189.284C450.75 189.871 452.713 188.794 453.4 186.933C453.989 184.975 452.909 182.919 451.044 182.331ZM453.007 186.738C452.516 188.402 450.651 189.382 448.983 188.794C447.314 188.304 446.333 186.444 446.922 184.779C447.412 183.115 449.277 182.135 450.946 182.723C452.516 183.212 453.498 185.073 453.007 186.738ZM452.222 178.414C448.198 177.141 443.879 179.393 442.603 183.408C441.327 187.423 443.584 191.732 447.609 193.005C451.633 194.278 455.952 192.025 457.228 188.011C458.504 183.996 456.246 179.687 452.222 178.414ZM453.89 187.031C453.203 189.284 450.848 190.459 448.59 189.773C446.333 189.088 445.155 186.738 445.842 184.485C446.529 182.233 448.885 181.058 451.142 181.744C453.4 182.429 454.577 184.877 453.89 187.031ZM453.4 186.836C453.989 184.877 452.909 182.919 451.044 182.233C449.081 181.646 447.02 182.723 446.431 184.583C445.842 186.542 446.922 188.598 448.786 189.186C450.75 189.871 452.811 188.794 453.4 186.836ZM453.007 186.738C452.516 188.402 450.651 189.382 448.983 188.794C447.314 188.304 446.333 186.444 446.922 184.779C447.412 183.115 449.277 182.135 450.946 182.723C452.516 183.212 453.498 185.073 453.007 186.738ZM451.044 182.331C449.081 181.744 447.02 182.821 446.431 184.681C445.842 186.64 446.922 188.696 448.786 189.284C450.75 189.871 452.713 188.794 453.4 186.933C453.989 184.975 452.909 182.919 451.044 182.331ZM453.007 186.738C452.516 188.402 450.651 189.382 448.983 188.794C447.314 188.304 446.333 186.444 446.922 184.779C447.412 183.115 449.277 182.135 450.946 182.723C452.516 183.212 453.498 185.073 453.007 186.738ZM451.044 182.331C449.081 181.744 447.02 182.821 446.431 184.681C445.842 186.64 446.922 188.696 448.786 189.284C450.75 189.871 452.713 188.794 453.4 186.933C453.989 184.975 452.909 182.919 451.044 182.331ZM453.007 186.738C452.516 188.402 450.651 189.382 448.983 188.794C447.314 188.304 446.333 186.444 446.922 184.779C447.412 183.115 449.277 182.135 450.946 182.723C452.516 183.212 453.498 185.073 453.007 186.738Z" fill="#263238"/>
<path d="M449.083 193.2L446.236 192.319L445.844 194.375L448.298 195.159L449.083 193.2Z" fill="#263238"/>
<path d="M443.977 190.557L442.701 188.011L440.836 189.088L442.112 191.438L443.977 190.557Z" fill="#263238"/>
<path d="M442.311 185.171L443.194 182.331L441.133 181.842L440.348 184.388L442.311 185.171Z" fill="#263238"/>
<path d="M444.961 180.079L447.611 178.708L446.433 176.946L444.176 178.121L444.961 180.079Z" fill="#263238"/>
<path d="M450.363 178.414L453.21 179.296L453.7 177.239L451.148 176.456L450.363 178.414Z" fill="#263238"/>
<path d="M455.457 181.058L456.831 183.604L458.598 182.527L457.42 180.177L455.457 181.058Z" fill="#263238"/>
<path d="M457.231 186.444L456.348 189.284L458.311 189.773L459.194 187.227L457.231 186.444Z" fill="#263238"/>
<path d="M454.576 191.536L451.926 192.907L453.005 194.669L455.361 193.494L454.576 191.536Z" fill="#263238"/>
<path d="M236.278 72.1681C237.751 65.9991 234.021 59.732 227.739 58.1653C221.555 56.6965 215.274 60.4175 213.703 66.6845C212.231 72.8536 215.961 79.1206 222.243 80.6874C228.524 82.1562 234.806 78.3372 236.278 72.1681ZM230.291 70.6993C229.604 73.637 226.659 75.3996 223.715 74.6162C220.77 73.9307 219.004 70.9931 219.789 68.0554C220.476 65.1178 223.42 63.3552 226.365 64.1385C229.211 64.9219 231.076 67.8596 230.291 70.6993Z" fill="#263238"/>
<path d="M224.602 80.6874L220.284 79.7081L219.793 82.7437L223.621 83.7229L224.602 80.6874Z" fill="#263238"/>
<path d="M216.747 77.2602L214.392 73.4413L211.84 75.3018L213.901 78.7291L216.747 77.2602Z" fill="#263238"/>
<path d="M213.609 69.2306L214.689 64.922L211.548 64.4324L210.566 68.2513L213.609 69.2306Z" fill="#263238"/>
<path d="M217.046 61.3967L220.874 59.0466L219.009 56.5006L215.672 58.557L217.046 61.3967Z" fill="#263238"/>
<path d="M225.09 58.2632L229.409 59.3404L229.899 56.2069L226.071 55.3256L225.09 58.2632Z" fill="#263238"/>
<path d="M232.945 61.7884L235.301 65.5095L237.853 63.6489L235.792 60.3196L232.945 61.7884Z" fill="#263238"/>
<path d="M236.084 69.7202L235.004 74.0288L238.145 74.5184L239.126 70.6994L236.084 69.7202Z" fill="#263238"/>
<path d="M232.648 77.554L228.82 79.9041L230.685 82.4501L234.022 80.3937L232.648 77.554Z" fill="#263238"/>
<path d="M221.461 71.5809L224.897 73.4414L228.234 71.3851L228.136 67.4682L224.7 65.6077L221.363 67.5661L221.461 71.5809ZM225.191 68.2516C225.878 68.4474 226.271 69.1329 226.075 69.7204C225.878 70.4058 225.191 70.7975 224.602 70.6017C223.915 70.4058 223.523 69.7204 223.719 69.1329C223.817 68.5453 224.504 68.1536 225.191 68.2516Z" fill="#263238"/>
</svg>
