<svg width="849" height="491" viewBox="0 0 849 491" fill="none" xmlns="http://www.w3.org/2000/svg">
<path d="M776.142 406.856H775.931L700.22 375.624C699.799 375.413 699.588 374.991 699.799 374.569C700.009 374.147 700.431 373.936 700.853 374.147L775.509 404.957L813.892 312.528C814.102 312.106 814.524 311.895 814.946 312.106C815.368 312.317 815.579 312.739 815.368 313.161L776.774 406.434C776.774 406.645 776.353 406.856 776.142 406.856Z" fill="black"/>
<path d="M751.257 275.81L727.215 286.994L695.581 362.963L770.026 393.773L809.041 299.867L751.257 275.81Z" fill="white"/>
<path d="M770.026 394.617H769.815L695.37 364.018C695.159 364.018 694.948 363.807 694.948 363.596C694.948 363.385 694.948 363.174 694.948 362.963L726.582 286.994C726.582 286.783 726.793 286.572 727.004 286.572L751.046 275.388C751.257 275.388 751.468 275.388 751.678 275.388L809.463 299.445C809.885 299.656 810.096 300.078 809.885 300.5L770.87 394.406C770.659 394.406 770.237 394.617 770.026 394.617ZM696.635 362.541L769.393 392.507L807.776 300.078L751.257 276.443L727.848 287.416L696.635 362.541Z" fill="black"/>
<path d="M727.215 286.994L744.086 293.536L751.257 275.81L727.215 286.994Z" fill="#FFD42E"/>
<path d="M744.086 294.38H743.875L727.004 287.838C726.793 287.627 726.582 287.416 726.582 286.994C726.582 286.572 726.793 286.361 727.004 286.15L751.046 274.966C751.257 274.755 751.678 274.966 751.889 275.177C752.1 275.388 752.311 275.81 752.1 276.021L744.93 293.747C744.719 294.169 744.508 294.38 744.086 294.38ZM729.324 286.994L743.664 292.481L749.78 277.498L729.324 286.994Z" fill="black"/>
<path d="M789.217 308.097L775.509 302.399C775.298 302.399 775.298 302.188 775.298 301.977C775.298 301.766 775.509 301.766 775.72 301.766L789.217 307.464C789.428 307.464 789.428 307.675 789.428 307.886L789.217 308.097Z" fill="black"/>
<path d="M787.319 312.528L768.128 304.509C767.917 304.509 767.917 304.298 767.917 304.087C767.917 303.876 768.128 303.876 768.339 303.876L787.53 311.895C787.741 311.895 787.741 312.106 787.741 312.317C787.53 312.317 787.53 312.528 787.319 312.528Z" fill="black"/>
<path d="M779.305 331.942L732.065 312.317C731.855 312.317 731.854 312.106 731.854 311.895C731.854 311.684 732.065 311.684 732.276 311.684L779.305 331.309C779.516 331.309 779.516 331.52 779.516 331.731C779.516 331.942 779.305 331.942 779.305 331.942Z" fill="black"/>
<path d="M773.189 346.503L725.949 326.878C725.738 326.878 725.738 326.667 725.738 326.456C725.738 326.245 725.949 326.245 726.16 326.245L773.189 345.87C773.4 345.87 773.4 346.081 773.4 346.292C773.4 346.292 773.4 346.503 773.189 346.503Z" fill="black"/>
<path d="M767.285 360.853L720.045 341.228C719.834 341.228 719.834 341.017 719.834 340.805C719.834 340.594 720.045 340.594 720.256 340.594L767.285 360.22C767.496 360.22 767.496 360.431 767.496 360.642C767.496 360.853 767.285 360.853 767.285 360.853Z" fill="black"/>
<path d="M749.991 221.365C749.358 221.365 748.725 221.154 747.882 220.943L743.453 219.255C740.29 218.2 738.813 214.612 739.868 211.447L756.318 163.333C756.95 161.434 758.426 159.957 760.114 159.113C761.801 158.269 763.699 158.269 765.597 158.902L776.563 163.333C778.25 163.966 779.727 165.443 780.359 167.132C781.203 169.031 780.992 170.93 780.359 172.829L760.957 217.778C760.746 218.2 760.324 218.411 759.903 218.2C759.481 217.989 759.27 217.567 759.481 217.145L778.883 172.196C779.516 170.719 779.516 169.242 778.883 167.765C778.25 166.499 777.407 165.443 775.931 164.81L764.964 160.379C763.699 159.957 762.223 159.957 760.746 160.59C759.27 161.223 758.216 162.489 757.794 163.966L741.344 212.08C740.501 214.401 741.555 216.934 743.875 217.778L748.304 219.466C750.412 220.31 752.943 219.044 753.998 216.723L768.76 179.371C769.815 176.839 768.549 173.884 766.019 172.829C764.753 172.407 763.488 172.407 762.222 173.04C760.957 173.673 759.903 174.729 759.481 175.995L748.514 208.282C748.304 208.704 747.882 208.915 747.46 208.704C747.038 208.493 746.827 208.071 747.038 207.648L758.005 175.362C758.637 173.673 759.903 172.196 761.59 171.352C763.277 170.508 764.964 170.508 766.651 171.141C770.026 172.407 771.502 176.417 770.236 179.793L755.474 217.145C754.63 219.888 752.311 221.365 749.991 221.365Z" fill="black"/>
<path d="M637.797 35.241H627.674V45.3702H637.797V35.241Z" fill="black"/>
<path d="M637.796 46.2144H627.674C627.252 46.2144 626.83 45.7923 626.83 45.3703V35.2411C626.83 34.819 627.252 34.397 627.674 34.397H637.796C638.218 34.397 638.64 34.819 638.64 35.2411V45.3703C638.429 45.7923 638.218 46.2144 637.796 46.2144ZM628.306 44.5262H636.742V36.0852H628.306V44.5262Z" fill="black"/>
<path d="M84.4139 111.632H74.291V121.761H84.4139V111.632Z" fill="black"/>
<path d="M84.4137 122.605H74.2908C73.8691 122.605 73.4473 122.183 73.4473 121.761V111.632C73.4473 111.21 73.8691 110.788 74.2908 110.788H84.4137C84.8355 110.788 85.2573 111.21 85.2573 111.632V121.761C85.2573 122.183 84.8355 122.605 84.4137 122.605ZM75.1344 120.917H83.5701V112.476H75.1344V120.917Z" fill="black"/>
<path d="M630.626 174.517C630.626 173.462 631.47 172.407 632.735 172.407C634 172.407 634.844 173.251 634.844 174.517C634.844 175.573 634 176.628 632.735 176.628C631.47 176.628 630.626 175.784 630.626 174.517Z" fill="black"/>
<path d="M632.735 177.472C631.048 177.472 629.782 176.206 629.782 174.518C629.782 172.829 631.048 171.563 632.735 171.563C634.422 171.563 635.687 172.829 635.687 174.518C635.476 176.206 634.211 177.472 632.735 177.472ZM632.735 173.251C632.102 173.251 631.469 173.885 631.469 174.518C631.469 175.151 632.102 175.784 632.735 175.784C633.367 175.784 634 175.151 634 174.518C633.789 173.885 633.367 173.251 632.735 173.251Z" fill="black"/>
<path d="M651.926 174.517C651.926 173.462 652.769 172.407 654.035 172.407C655.089 172.407 656.144 173.251 656.144 174.517C656.144 175.573 655.3 176.628 654.035 176.628C652.98 176.628 651.926 175.784 651.926 174.517Z" fill="black"/>
<path d="M654.035 177.472C652.347 177.472 651.082 176.206 651.082 174.518C651.082 172.829 652.347 171.563 654.035 171.563C655.722 171.563 656.987 172.829 656.987 174.518C656.987 176.206 655.722 177.472 654.035 177.472ZM654.035 173.251C653.402 173.251 652.769 173.885 652.769 174.518C652.769 175.151 653.402 175.784 654.035 175.784C654.667 175.784 655.3 175.151 655.3 174.518C655.3 173.885 654.667 173.251 654.035 173.251Z" fill="black"/>
<path d="M845.104 278.553C846.269 278.553 847.213 277.608 847.213 276.443C847.213 275.277 846.269 274.332 845.104 274.332C843.939 274.332 842.995 275.277 842.995 276.443C842.995 277.608 843.939 278.553 845.104 278.553Z" fill="black"/>
<path d="M845.104 279.397C843.417 279.397 842.151 278.131 842.151 276.443C842.151 274.754 843.417 273.488 845.104 273.488C846.791 273.488 848.056 274.754 848.056 276.443C848.056 278.131 846.791 279.397 845.104 279.397ZM845.104 275.387C844.471 275.387 843.839 276.021 843.839 276.654C843.839 277.287 844.471 277.92 845.104 277.92C845.737 277.92 846.369 277.287 846.369 276.654C846.369 275.81 845.737 275.387 845.104 275.387Z" fill="black"/>
<path d="M371.017 34.6081C371.017 33.5529 371.86 32.4978 373.126 32.4978C374.18 32.4978 375.234 33.3419 375.234 34.6081C375.234 35.8742 374.391 36.7183 373.126 36.7183C371.86 36.5073 371.017 35.6632 371.017 34.6081Z" fill="black"/>
<path d="M373.125 37.3513C371.438 37.3513 370.173 36.0852 370.173 34.397C370.173 32.7088 371.438 31.4426 373.125 31.4426C374.812 31.4426 376.078 32.7088 376.078 34.397C375.867 36.0852 374.602 37.3513 373.125 37.3513ZM373.125 33.3419C372.493 33.3419 371.86 33.9749 371.86 34.608C371.86 35.2411 372.493 35.8742 373.125 35.8742C373.758 35.8742 374.391 35.2411 374.391 34.608C374.391 33.7639 373.758 33.3419 373.125 33.3419Z" fill="black"/>
<path d="M365.112 472.907C366.277 472.907 367.221 471.962 367.221 470.797C367.221 469.631 366.277 468.686 365.112 468.686C363.947 468.686 363.003 469.631 363.003 470.797C363.003 471.962 363.947 472.907 365.112 472.907Z" fill="black"/>
<path d="M365.112 473.751C363.425 473.751 362.159 472.485 362.159 470.797C362.159 469.108 363.425 467.842 365.112 467.842C366.799 467.842 368.064 469.108 368.064 470.797C368.064 472.485 366.588 473.751 365.112 473.751ZM365.112 469.53C364.479 469.53 363.846 470.164 363.846 470.797C363.846 471.43 364.479 472.063 365.112 472.063C365.744 472.063 366.377 471.43 366.377 470.797C366.377 470.164 365.744 469.53 365.112 469.53Z" fill="black"/>
<path d="M146.205 415.086C146.205 414.031 147.049 412.976 148.314 412.976C149.368 412.976 150.423 413.82 150.423 415.086C150.423 416.141 149.579 417.197 148.314 417.197C147.049 416.986 146.205 416.141 146.205 415.086Z" fill="black"/>
<path d="M148.314 417.83C146.627 417.83 145.361 416.563 145.361 414.875C145.361 413.187 146.627 411.921 148.314 411.921C150.001 411.921 151.266 413.187 151.266 414.875C151.266 416.563 149.79 417.83 148.314 417.83ZM148.314 413.82C147.681 413.82 147.048 414.453 147.048 415.086C147.048 415.719 147.681 416.352 148.314 416.352C148.947 416.352 149.579 415.719 149.579 415.086C149.368 414.242 148.947 413.82 148.314 413.82Z" fill="black"/>
<path d="M88.4199 238.458C88.4199 237.403 89.2635 236.348 90.5289 236.348C91.5833 236.348 92.6378 237.192 92.6378 238.458C92.6378 239.513 91.7942 240.568 90.5289 240.568C89.2635 240.568 88.4199 239.513 88.4199 238.458Z" fill="black"/>
<path d="M90.5287 241.413C88.8415 241.413 87.5762 240.146 87.5762 238.458C87.5762 236.77 88.8415 235.504 90.5287 235.504C92.2158 235.504 93.4812 236.77 93.4812 238.458C93.4812 240.146 92.0049 241.413 90.5287 241.413ZM90.5287 237.192C89.896 237.192 89.2633 237.825 89.2633 238.458C89.2633 239.091 89.896 239.724 90.5287 239.724C91.1614 239.724 91.794 239.091 91.794 238.458C91.5831 237.825 91.1614 237.192 90.5287 237.192Z" fill="black"/>
<path d="M261.774 198.574C261.774 197.519 262.618 196.464 263.883 196.464C264.938 196.464 265.992 197.308 265.992 198.574C265.992 199.841 265.149 200.685 263.883 200.685C262.618 200.685 261.774 199.629 261.774 198.574Z" fill="black"/>
<path d="M263.672 201.529C261.985 201.529 260.72 200.263 260.72 198.574C260.72 196.886 261.985 195.62 263.672 195.62C265.359 195.62 266.625 196.886 266.625 198.574C266.625 200.052 265.359 201.529 263.672 201.529ZM263.672 197.308C263.04 197.308 262.407 197.941 262.407 198.574C262.407 199.208 263.04 199.841 263.672 199.841C264.305 199.841 264.938 199.208 264.938 198.574C264.938 197.941 264.516 197.308 263.672 197.308Z" fill="black"/>
<path d="M243.637 216.934C244.802 216.934 245.746 215.989 245.746 214.823C245.746 213.658 244.802 212.713 243.637 212.713C242.473 212.713 241.528 213.658 241.528 214.823C241.528 215.989 242.473 216.934 243.637 216.934Z" fill="black"/>
<path d="M243.637 217.778C241.95 217.778 240.685 216.512 240.685 214.823C240.685 213.135 241.95 211.869 243.637 211.869C245.324 211.869 246.59 213.135 246.59 214.823C246.59 216.512 245.324 217.778 243.637 217.778ZM243.637 213.557C243.004 213.557 242.372 214.19 242.372 214.823C242.372 215.457 243.004 216.09 243.637 216.09C244.27 216.09 244.902 215.457 244.902 214.823C244.902 214.19 244.27 213.557 243.637 213.557Z" fill="black"/>
<path d="M845.104 247.11H670.906C670.484 247.11 670.062 246.688 670.062 246.266C670.062 245.844 670.484 245.422 670.906 245.422H845.104C845.525 245.422 845.947 245.844 845.947 246.266C845.947 246.688 845.525 247.11 845.104 247.11Z" fill="black"/>
<path d="M221.072 41.1497H132.075V73.8585H221.072V41.1497Z" fill="white"/>
<path d="M221.072 74.4917H132.075C131.653 74.4917 131.231 74.0697 131.231 73.6476V41.1498C131.231 40.7277 131.653 40.3057 132.075 40.3057H221.072C221.494 40.3057 221.915 40.7277 221.915 41.1498V73.8586C221.915 74.2807 221.494 74.4917 221.072 74.4917ZM132.919 73.0145H220.228V41.9939H132.919V73.0145Z" fill="black"/>
<path d="M221.072 73.4365H132.075V106.145H221.072V73.4365Z" fill="white"/>
<path d="M221.072 106.99H132.075C131.653 106.99 131.231 106.568 131.231 106.146V73.4366C131.231 73.0146 131.653 72.5925 132.075 72.5925H221.072C221.494 72.5925 221.915 73.0146 221.915 73.4366V106.146C221.915 106.568 221.494 106.99 221.072 106.99ZM132.919 105.301H220.228V74.2807H132.919V105.301Z" fill="black"/>
<path d="M221.072 106.145H132.075V138.854H221.072V106.145Z" fill="white"/>
<path d="M221.072 139.698H132.075C131.653 139.698 131.231 139.276 131.231 138.854V106.145C131.231 105.723 131.653 105.301 132.075 105.301H221.072C221.494 105.301 221.915 105.723 221.915 106.145V138.854C221.915 139.276 221.494 139.698 221.072 139.698ZM132.919 138.01H220.228V106.989H132.919V138.01Z" fill="black"/>
<path d="M147.893 57.3985C147.893 55.9213 149.158 54.8662 150.423 54.8662C151.9 54.8662 152.954 56.1324 152.954 57.3985C152.954 58.8757 151.689 59.9308 150.423 59.9308C149.158 59.9308 147.893 58.8757 147.893 57.3985Z" fill="black"/>
<path d="M150.423 60.775C148.525 60.775 147.049 59.2978 147.049 57.3986C147.049 55.4994 148.525 54.0222 150.423 54.0222C152.321 54.0222 153.797 55.4994 153.797 57.3986C153.797 59.2978 152.321 60.775 150.423 60.775ZM150.423 55.7104C149.369 55.7104 148.736 56.5545 148.736 57.3986C148.736 58.2427 149.58 59.0868 150.423 59.0868C151.478 59.0868 152.11 58.2427 152.11 57.3986C152.11 56.5545 151.478 55.7104 150.423 55.7104Z" fill="black"/>
<path d="M147.893 89.8963C147.893 88.4191 149.158 87.364 150.423 87.364C151.9 87.364 152.954 88.6302 152.954 89.8963C152.954 91.1625 151.689 92.4286 150.423 92.4286C149.158 92.4286 147.893 91.3735 147.893 89.8963Z" fill="black"/>
<path d="M150.423 93.2728C148.525 93.2728 147.049 91.7956 147.049 89.8964C147.049 87.9972 148.525 86.52 150.423 86.52C152.321 86.52 153.797 87.9972 153.797 89.8964C154.008 91.7956 152.321 93.2728 150.423 93.2728ZM150.423 87.9972C149.369 87.9972 148.736 88.8413 148.736 89.6854C148.736 90.5295 149.58 91.3736 150.423 91.3736C151.478 91.3736 152.11 90.5295 152.11 89.6854C152.11 88.8413 151.478 87.9972 150.423 87.9972Z" fill="black"/>
<path d="M147.893 122.605C147.893 121.128 149.158 120.073 150.423 120.073C153.798 120.073 153.798 125.349 150.423 125.349C149.158 125.138 147.893 123.871 147.893 122.605Z" fill="black"/>
<path d="M150.423 125.982C148.525 125.982 147.049 124.505 147.049 122.605C147.049 120.706 148.525 119.229 150.423 119.229C152.743 119.229 153.797 120.917 153.797 122.605C153.797 123.45 153.587 124.294 152.954 124.927C152.532 125.56 151.478 125.982 150.423 125.982ZM150.423 120.706C149.369 120.706 148.736 121.55 148.736 122.394C148.736 123.238 149.58 124.083 150.423 124.083C151.056 124.083 151.478 123.872 151.688 123.45C151.899 123.027 152.11 122.605 152.11 122.183C152.321 121.761 151.899 120.706 150.423 120.706Z" fill="black"/>
<path d="M209.051 57.6098H168.77C168.56 57.6098 168.56 57.3988 168.56 57.3988C168.56 57.3988 168.56 57.1877 168.77 57.1877H209.262C209.473 57.1877 209.473 57.3988 209.473 57.3988C209.473 57.3988 209.262 57.6098 209.051 57.6098Z" fill="black"/>
<path d="M209.051 90.1076H168.77C168.56 90.1076 168.56 89.8966 168.56 89.8966C168.56 89.6855 168.77 89.6855 168.77 89.6855H209.262C209.473 89.6855 209.473 89.8966 209.473 89.8966C209.473 89.8966 209.262 90.1076 209.051 90.1076Z" fill="black"/>
<path d="M209.051 122.605H168.77C168.56 122.605 168.56 122.394 168.56 122.394C168.56 122.183 168.77 122.183 168.77 122.183H209.262C209.473 122.183 209.473 122.394 209.473 122.394C209.473 122.394 209.262 122.605 209.051 122.605Z" fill="black"/>
<path d="M109.299 175.573C114.782 171.141 121.531 169.875 126.803 174.94C132.075 180.004 132.708 190.556 127.436 195.409C121.742 200.896 108.455 200.685 101.074 200.685C86.9442 200.474 72.6035 201.107 58.6846 201.107C32.323 201.107 35.0646 178.527 42.235 173.674C45.6093 171.352 50.2489 171.774 53.4123 174.518C52.1469 165.022 58.0519 154.892 66.0659 152.571C74.0798 150.461 83.3591 156.369 85.6789 165.655C89.2641 161.223 95.38 159.746 100.23 162.278C105.081 164.599 108.244 169.875 109.299 175.573Z" fill="white"/>
<path d="M58.6842 201.951C43.2891 201.951 38.6494 194.354 37.1732 189.923C35.0642 182.959 37.8058 175.573 41.6019 172.83C44.7653 170.719 48.9832 170.719 52.1466 172.619C51.7248 163.122 57.6298 153.837 65.6437 151.727C69.4398 150.672 73.4467 151.305 77.2428 153.415C81.2498 155.737 84.4131 159.535 85.8894 163.966C89.8964 160.168 95.5905 159.113 100.441 161.434C104.87 163.544 108.244 168.187 109.72 173.885C115.836 169.453 122.374 169.453 127.224 174.096C129.966 176.839 131.653 181.271 131.653 185.702C131.653 189.712 130.177 193.51 127.857 195.831C121.741 201.74 107.822 201.318 100.863 201.318C92.8489 201.107 84.4131 201.318 76.3992 201.529C70.7051 201.74 64.5892 201.951 58.6842 201.951ZM47.0851 172.83C45.6089 172.83 43.9217 173.252 42.6564 174.307C39.2821 176.628 36.9623 183.381 38.8603 189.501C40.9692 196.464 48.1396 200.263 58.6842 200.263C64.5892 200.263 70.7051 200.052 76.6101 200.052C84.624 199.841 93.0598 199.63 101.074 199.841C107.19 200.052 121.319 200.263 126.803 194.776C128.912 192.666 130.177 189.501 130.177 185.913C130.177 181.693 128.701 177.894 126.17 175.362C121.741 171.141 115.625 171.352 109.931 175.995C109.72 176.206 109.509 176.206 109.088 176.206C108.877 176.206 108.666 175.784 108.455 175.573C107.19 169.664 104.026 165.022 99.8083 162.911C95.3796 160.801 89.6855 162.067 86.3112 166.077C86.1003 166.288 85.8894 166.499 85.4676 166.288C85.2567 166.288 84.8349 166.077 84.8349 165.655C83.5696 161.012 80.6171 157.003 76.6101 154.681C73.2358 152.782 69.6507 152.149 66.2764 152.993C58.6842 155.103 52.9901 164.811 54.2555 173.885C54.2555 174.307 54.0446 174.518 53.8337 174.729C53.4119 175.362 52.9901 175.362 52.7792 175.151C51.303 173.674 49.194 172.83 47.0851 172.83Z" fill="black"/>
<path d="M678.288 456.658L629.571 410.444L639.483 400.104L688.199 446.107L690.308 458.557L678.288 456.658Z" fill="white"/>
<path d="M690.308 459.401L678.076 457.502C677.866 457.502 677.655 457.502 677.655 457.291L628.938 411.077C628.728 410.866 628.728 410.655 628.728 410.444C628.728 410.233 628.728 410.022 628.938 409.811L638.85 399.47C639.061 399.048 639.694 399.048 640.116 399.47L688.832 445.685C689.043 445.896 689.043 445.896 689.043 446.107L691.152 458.346C691.152 458.557 691.152 458.979 690.941 458.979C690.73 459.19 690.519 459.401 690.308 459.401ZM678.709 455.814L689.465 457.502L687.567 446.529L639.483 401.159L630.836 410.444L678.709 455.814Z" fill="black"/>
<path d="M678.077 457.291C677.866 457.291 677.655 457.291 677.444 457.08C677.022 456.869 677.022 456.236 677.444 455.814L686.934 445.685C687.145 445.263 687.778 445.263 688.2 445.685C688.622 445.896 688.622 446.529 688.2 446.951L678.71 457.08C678.499 457.08 678.288 457.291 678.077 457.291Z" fill="black"/>
<path d="M692.839 461.723C692.628 461.723 692.417 461.723 692.206 461.512L689.465 458.979C689.043 458.768 689.043 458.135 689.465 457.713C689.676 457.291 690.308 457.291 690.73 457.713L693.472 460.246C693.894 460.457 693.894 461.09 693.472 461.512C693.472 461.723 693.261 461.723 692.839 461.723Z" fill="black"/>
<path d="M629.17 392.523L621.627 400.489L631.271 409.633L638.814 401.667L629.17 392.523Z" fill="black"/>
<path d="M123.006 381.111C122.585 381.111 122.374 380.9 122.163 380.478L84.2021 276.654C84.2021 276.443 84.2021 276.232 84.2021 276.021C84.2021 275.81 84.413 275.599 84.6239 275.599L169.825 244.367C170.036 244.367 170.246 244.367 170.457 244.367C170.668 244.367 170.879 244.578 170.879 244.789L181.213 272.855C181.424 273.277 181.213 273.699 180.791 273.91C180.369 274.121 179.947 273.91 179.737 273.488L169.825 246.055L86.1002 276.654L123.428 379.001L206.942 348.402L200.826 331.731C200.615 331.309 200.826 330.887 201.248 330.676C201.669 330.465 202.091 330.676 202.302 331.098L208.629 348.402C208.84 348.824 208.629 349.246 208.207 349.457L123.006 380.689C123.217 381.111 123.006 381.111 123.006 381.111Z" fill="black"/>
<path d="M144.096 272.433C143.885 272.433 143.885 272.433 143.885 272.222C143.885 272.011 143.885 272.011 144.096 271.8L159.702 266.103C159.913 266.103 159.913 266.103 160.124 266.314C160.124 266.525 160.124 266.525 159.913 266.736L144.096 272.433C144.307 272.433 144.307 272.433 144.096 272.433Z" fill="black"/>
<path d="M139.667 279.608C139.456 279.608 139.456 279.608 139.456 279.397C139.456 279.186 139.456 279.186 139.667 278.975L161.6 270.956C161.811 270.956 161.811 270.956 162.022 271.167C162.022 271.378 162.022 271.378 161.811 271.589L139.667 279.608Z" fill="black"/>
<path d="M115.414 312.95C115.203 312.95 115.203 312.95 115.203 312.739C115.203 312.528 115.203 312.528 115.414 312.317L163.287 294.802C163.498 294.802 163.498 294.802 163.708 295.013C163.708 295.224 163.708 295.224 163.498 295.435L115.414 312.95Z" fill="black"/>
<path d="M121.319 328.566C121.108 328.566 121.108 328.566 121.108 328.355C121.108 328.144 121.108 328.144 121.319 327.933L161.6 313.161C161.811 313.161 161.811 313.161 162.022 313.372C162.022 313.583 162.022 313.583 161.811 313.794L121.319 328.566C121.53 328.566 121.53 328.566 121.319 328.566Z" fill="black"/>
<path d="M127.014 344.815C126.803 344.815 126.803 344.815 126.803 344.604C126.803 344.393 126.803 344.393 127.014 344.182L170.036 328.566C170.247 328.566 170.247 328.566 170.458 328.777C170.458 328.988 170.458 328.988 170.247 329.199L127.014 344.815Z" fill="black"/>
<path d="M211.16 299.655C208.84 298.811 207.364 299.233 205.466 298.811C204.622 297.123 203.146 294.169 202.091 292.48C203.357 290.37 203.989 289.526 205.044 287.838C205.044 287.627 204.622 287.416 204.411 287.205C203.778 286.783 203.146 286.361 202.724 285.939C200.615 284.461 198.084 282.984 195.765 281.929C194.71 284.039 193.867 286.15 193.023 288.26C190.703 288.26 188.172 288.471 185.853 289.104C184.798 287.205 183.744 285.095 182.478 283.406C179.737 284.884 176.995 286.783 174.675 289.104C175.941 290.792 176.784 291.847 178.05 293.325C176.784 295.646 175.73 297.756 174.886 299.866C172.355 299.444 170.668 299.655 168.348 299.233C167.505 303.032 167.294 306.83 168.559 310.207C170.879 309.784 172.145 309.151 174.043 308.518C175.097 310.629 176.784 312.739 178.471 314.427C177.417 316.537 176.995 318.225 175.941 319.703C178.05 322.024 180.791 323.501 183.744 324.345C184.587 322.446 185.22 321.18 186.063 319.281C188.172 319.281 190.914 319.492 193.023 319.07C194.288 320.758 194.921 321.813 195.765 323.712C199.139 323.079 202.091 321.813 205.044 319.914C203.989 317.803 203.778 316.537 202.513 314.849C203.778 312.95 205.044 310.629 205.466 308.518C207.575 308.096 208.629 308.307 210.527 308.096C211.582 305.142 211.582 302.399 211.16 299.655ZM194.499 308.729C193.234 309.784 192.179 310.629 187.751 309.573C186.063 309.151 181.635 306.619 183.533 300.499C184.165 298.6 185.853 296.912 187.751 296.49C189.649 296.068 191.336 296.068 192.812 296.49C195.132 297.334 196.819 299.655 197.03 301.977C197.241 304.298 196.397 307.041 194.499 308.729Z" fill="#FFD42E"/>
<path d="M183.743 325.189H183.532C180.369 324.345 177.627 322.446 175.518 320.336C175.308 320.125 175.308 319.703 175.308 319.281C175.729 318.437 176.151 317.593 176.573 316.537C176.784 315.904 177.206 315.06 177.416 314.427C175.94 312.739 174.675 311.051 173.62 309.363C173.199 309.574 172.566 309.574 172.144 309.785C171.09 310.207 170.035 310.418 168.559 310.84C168.137 310.84 167.715 310.629 167.505 310.418C166.239 307.041 166.239 303.243 167.294 298.811C167.294 298.389 167.715 298.178 168.137 298.178C169.192 298.389 170.246 298.389 171.301 298.6C172.144 298.6 172.988 298.811 174.042 298.811C174.675 297.123 175.518 295.435 176.573 293.747L176.784 293.325C175.729 292.059 174.675 291.003 173.62 289.315C173.41 288.893 173.41 288.471 173.62 288.26C175.729 286.15 178.26 284.04 181.634 282.351C182.056 282.14 182.478 282.351 182.689 282.562C183.743 284.251 184.798 285.939 185.852 287.838C187.75 287.416 189.859 287.205 191.968 287.205C192.812 285.306 193.655 283.406 194.71 281.507C194.921 281.085 195.342 280.874 195.764 281.085C198.295 282.14 200.826 283.406 202.935 285.095C203.567 285.517 204.2 285.939 204.622 286.361C204.833 286.572 205.254 286.783 205.465 287.416C205.465 287.627 205.465 287.838 205.465 288.049C205.043 288.893 204.622 289.526 204.2 290.159C203.778 290.792 203.356 291.425 202.724 292.27C202.935 292.903 203.356 293.325 203.567 294.169C204.2 295.435 205.043 296.912 205.465 298.178C206.098 298.389 206.731 298.389 207.363 298.389C208.418 298.389 209.472 298.6 210.738 299.022C210.948 299.022 211.159 299.444 211.37 299.655C211.792 302.821 211.581 305.775 210.738 308.518C210.738 308.941 210.316 309.152 209.894 309.152C209.261 309.152 208.84 309.152 208.418 309.152C207.363 309.152 206.52 309.152 205.465 309.363C204.833 311.262 203.989 313.372 202.724 315.06C203.356 315.904 203.567 316.748 203.989 317.593C204.2 318.226 204.622 318.859 205.043 319.703C205.254 320.125 205.043 320.547 204.833 320.758C201.88 322.657 198.506 324.134 195.342 324.767C194.921 324.767 194.71 324.556 194.499 324.345L194.288 324.134C193.655 322.657 193.023 321.813 192.179 320.336C190.281 320.758 187.961 320.547 186.063 320.547H185.852C185.22 322.235 184.587 323.29 183.954 324.978C184.376 324.978 184.165 325.189 183.743 325.189ZM177.206 319.492C178.893 321.18 181.002 322.446 183.321 323.29C183.954 321.813 184.587 320.547 185.22 319.07C185.43 318.859 185.641 318.648 186.063 318.648H186.696C188.594 318.648 191.125 318.859 192.812 318.437C193.023 318.437 193.444 318.437 193.655 318.648C194.921 320.336 195.553 321.391 196.186 322.868C198.717 322.235 201.458 321.18 203.778 319.703C203.567 319.07 203.356 318.648 203.145 318.226C202.724 317.382 202.513 316.537 201.669 315.482C201.458 315.271 201.458 314.849 201.669 314.638C202.935 312.95 203.989 310.629 204.622 308.518C204.622 308.307 205.043 307.885 205.254 307.885C206.941 307.674 207.785 307.674 209.05 307.463C209.261 307.463 209.683 307.463 209.894 307.463C210.527 305.142 210.527 302.821 210.316 300.288C209.261 300.077 208.629 300.077 207.785 299.866C206.941 299.866 206.098 299.866 205.043 299.444C204.833 299.444 204.622 299.233 204.411 299.022C203.989 297.967 203.145 296.279 202.302 294.802C201.88 293.958 201.458 293.114 201.247 292.692C201.036 292.481 201.036 292.27 201.247 291.847C201.88 290.581 202.513 289.948 202.935 289.104C203.356 288.682 203.567 288.26 203.989 287.627C203.356 287.205 202.935 286.783 202.302 286.361C200.404 284.884 198.295 283.829 196.186 282.773C195.131 284.673 194.499 286.572 193.655 288.26C193.444 288.471 193.233 288.682 192.812 288.682C190.492 288.682 188.172 288.893 185.852 289.526C185.43 289.526 185.009 289.526 185.009 289.104C184.165 287.416 183.111 285.728 182.056 284.04C179.525 285.517 177.416 286.994 175.729 288.893C176.573 290.159 177.416 291.214 178.471 292.27L178.682 292.481C178.893 292.692 178.893 293.114 178.893 293.325L178.471 294.169C177.416 296.068 176.573 297.967 175.94 299.655C175.729 300.077 175.518 300.288 175.097 300.288C173.831 300.077 172.777 300.077 171.933 299.866C171.09 299.866 170.246 299.655 169.403 299.655C168.559 303.032 168.77 306.197 169.403 308.729C170.457 308.518 171.301 308.307 172.144 307.885C172.777 307.674 173.41 307.463 174.253 307.252C174.675 307.041 175.097 307.252 175.308 307.674C176.362 309.574 177.627 311.473 179.525 313.372C179.736 313.583 179.736 314.005 179.736 314.216C179.315 315.06 178.893 315.904 178.682 316.748C177.838 318.015 177.627 318.859 177.206 319.492ZM190.914 310.84C190.07 310.84 188.805 310.629 187.539 310.418C186.485 310.207 184.376 309.152 183.111 307.041C182.056 305.142 181.845 302.821 182.689 300.288C183.532 297.967 185.43 296.279 187.539 295.857C189.859 295.435 191.546 295.435 193.023 296.068C195.553 297.123 197.451 299.444 197.873 302.188C198.084 304.931 197.03 307.674 194.921 309.363C194.077 310.207 193.023 310.84 190.914 310.84ZM190.492 297.123C189.859 297.123 189.016 297.123 187.961 297.334C186.274 297.756 184.798 299.022 184.376 300.711C183.743 302.821 183.743 304.509 184.587 306.197C185.43 307.674 187.118 308.518 187.961 308.729C191.968 309.574 193.023 308.729 194.077 307.885C195.764 306.408 196.608 304.298 196.397 302.188C196.186 300.077 194.71 298.178 192.601 297.334C191.968 297.334 191.335 297.123 190.492 297.123Z" fill="black"/>
<path d="M564.616 68.7941C564.406 68.7941 564.405 68.7942 564.195 68.5831C559.344 65.6288 555.97 60.5642 554.915 54.6555C554.494 51.9121 554.494 49.3799 554.915 46.8476C550.697 46.8476 546.691 45.3704 543.527 42.6271C539.52 39.2507 537.411 33.975 537.622 28.6994C525.39 25.9561 516.111 13.5056 516.955 0.8441C516.955 0.42205 517.376 0 517.798 0C518.22 0 518.642 0.42205 518.642 0.8441C517.798 12.4505 526.234 24.0569 537.622 26.8002C537.833 24.2679 538.677 21.7356 539.942 19.6253C540.996 17.9371 542.684 15.8269 545.425 15.6159C547.323 15.4048 549.01 16.46 549.854 18.3592C551.119 20.6805 550.908 23.8458 549.221 25.534C547.112 28.0663 543.316 29.1215 539.098 28.4884C539.098 33.1309 540.996 37.7735 544.582 40.9389C547.534 43.4711 551.33 44.7373 555.126 44.7373C555.759 42.205 556.813 39.8837 558.5 37.7735C560.188 35.6632 561.875 34.3971 563.562 34.1861C564.827 33.975 566.304 34.3971 567.358 35.0302C568.202 35.6632 568.834 36.7184 568.834 37.5625C569.045 39.0396 568.202 40.7278 566.304 42.205C563.562 44.5263 559.977 45.7924 556.181 46.2145C555.759 48.7468 555.759 51.2791 556.181 53.8114C557.235 59.298 560.399 64.1516 564.616 66.6839C565.038 66.8949 565.038 67.528 564.827 67.739C565.249 68.7941 564.827 68.7941 564.616 68.7941ZM564.406 36.2963C564.195 36.2963 563.984 36.2963 563.984 36.2963C562.507 36.5073 561.242 37.5625 559.766 39.2507C558.5 40.9389 557.446 43.0491 556.813 45.1593C559.977 44.7373 562.929 43.6822 565.46 41.5719C566.304 40.7278 567.358 39.6727 567.358 38.4066C567.358 37.7735 566.936 37.1404 566.514 36.9294C565.882 36.5073 565.038 36.2963 564.406 36.2963ZM539.098 27.4333C541.418 27.8553 545.636 27.8553 547.956 25.112C549.221 23.6348 549.221 21.1025 548.378 19.6253C548.167 18.9923 547.112 17.5151 545.425 17.7261C543.527 17.9371 542.051 19.8364 541.418 20.8915C540.153 22.7907 539.309 25.112 539.098 27.4333Z" fill="black"/>
<path d="M0.899666 276.654C0.47788 276.654 0.266987 276.443 0.0560946 276.021C-0.154798 275.599 0.266987 275.177 0.688773 274.966C6.38288 273.277 10.6007 267.58 11.8661 261.46C8.07002 260.194 4.69574 257.239 4.69574 253.019C4.69574 251.542 5.11752 250.276 6.17199 249.432C7.43734 248.165 9.54627 248.376 11.2334 249.643C12.2879 250.487 12.9206 251.964 13.5532 254.074C13.975 256.184 14.1859 258.295 13.975 260.405C14.1859 260.405 14.3968 260.405 14.6077 260.405C20.3018 261.249 26.2068 258.928 30.0029 254.496C32.1118 252.175 33.3772 249.221 34.0098 246.266C32.5336 245.422 31.0573 244.578 29.792 243.523C28.3157 242.257 26.4177 240.78 25.785 238.247C25.1523 235.926 25.9959 232.761 28.3157 231.705C29.3702 231.283 30.4247 231.283 31.4791 231.705C33.1663 232.55 34.6425 234.449 35.2752 236.77C36.1188 239.513 36.3297 242.468 35.697 245.211C40.3366 247.532 45.8198 248.376 50.8813 247.532C51.303 247.532 51.7248 247.743 51.7248 248.165C51.7248 248.587 51.5139 249.01 51.0922 249.01C45.6089 249.854 40.1257 249.01 35.2752 246.688C34.4316 249.854 32.9554 252.808 30.8464 255.34C26.6286 260.194 20.0909 262.726 13.975 261.671C13.7641 261.671 13.5532 261.671 13.3423 261.671C11.8661 268.424 7.22645 274.544 1.11056 276.443C1.11056 276.654 0.899666 276.654 0.899666 276.654ZM8.28091 250.276C7.85913 250.276 7.43734 250.487 7.22645 250.698C6.80466 251.12 6.38288 252.175 6.38288 253.019C6.38288 256.395 8.91359 258.717 12.077 259.772C12.2879 257.873 12.077 255.973 11.6552 254.074C11.2334 252.386 10.6007 251.331 9.96806 250.698C9.54627 250.487 8.91359 250.276 8.28091 250.276ZM29.5811 233.183C29.3702 233.183 28.9484 233.183 28.7375 233.394C27.2613 234.027 26.8395 236.348 27.2613 238.036C27.8939 239.935 29.3702 241.413 30.6356 242.468C31.69 243.312 32.9554 244.156 34.0098 244.789C34.2207 242.257 34.2207 239.935 33.3772 237.614C32.7445 235.715 31.69 234.238 30.4247 233.605C30.2138 233.183 29.792 233.183 29.5811 233.183Z" fill="black"/>
<path d="M551.962 467.209C551.119 467.209 550.275 466.998 549.432 466.576C547.744 465.732 546.901 464.044 546.268 462.778C544.37 459.401 543.527 455.392 543.316 451.171H543.105C537.622 449.694 531.927 450.327 526.866 450.749C526.444 450.749 526.022 450.538 526.022 449.905C526.022 449.483 526.233 449.061 526.866 449.061C532.138 448.639 538.043 448.006 543.527 449.483C543.527 446.951 543.948 444.419 544.37 441.886C546.057 434.711 549.432 428.17 552.384 422.261C552.595 421.839 553.017 421.628 553.439 421.839C553.86 422.05 554.071 422.472 553.86 422.894C550.908 428.592 547.744 435.133 546.057 442.097C545.425 444.63 545.214 447.373 545.214 449.694C549.853 451.382 554.704 454.97 556.18 460.667C556.813 462.989 556.391 465.099 555.126 466.154C553.86 466.998 553.017 467.209 551.962 467.209ZM545.003 451.593C545.214 455.392 546.057 458.979 547.744 461.934C548.166 462.989 549.01 464.255 550.275 465.099C551.33 465.732 552.595 465.732 553.649 465.099C554.915 464.044 554.493 461.934 554.282 461.301C553.228 457.08 549.642 453.493 545.003 451.593Z" fill="black"/>
<path d="M539.31 175.151C537.412 185.913 542.262 198.153 551.963 203.428C557.235 206.171 563.351 207.016 568.835 209.337C574.318 211.658 579.59 216.934 578.536 222.842C577.903 226.852 574.318 235.293 585.284 242.468C594.353 248.376 588.448 271.378 556.814 276.443C547.113 277.92 554.283 271.378 544.793 268.424C535.513 265.469 527.71 258.717 522.438 250.698C516.955 242.679 513.792 233.394 511.472 223.898C508.941 212.924 507.887 201.318 512.104 190.978C516.533 180.426 527.5 172.407 539.31 175.151Z" fill="black"/>
<path d="M554.494 277.287C551.33 277.287 550.698 275.81 550.065 273.911C549.432 272.222 548.8 270.323 544.793 269.057C535.935 266.314 527.921 259.983 522.016 251.12C517.166 243.945 513.581 235.082 511.05 224.109C507.886 210.181 507.886 199.63 511.683 190.556C515.9 180.426 527.078 171.352 539.731 174.307C540.153 174.307 540.364 174.729 540.364 175.362C538.466 186.335 543.527 197.73 552.596 202.584C555.548 204.061 558.712 205.116 561.875 205.96C564.406 206.594 567.147 207.438 569.467 208.493C575.161 211.025 580.644 216.512 579.801 222.842C579.801 223.265 579.59 223.898 579.379 224.531C578.325 228.962 577.059 235.715 586.128 241.624C589.502 243.945 590.978 248.376 589.924 253.441C588.026 262.093 578.536 273.488 557.235 277.076C556.181 277.287 555.337 277.287 554.494 277.287ZM534.67 175.362C524.758 175.362 516.533 182.959 513.159 191.189C509.574 199.841 509.574 210.181 512.737 223.687C515.268 234.449 518.853 243.312 523.492 250.276C529.187 258.717 536.99 264.836 545.425 267.58C550.276 269.057 551.119 271.589 551.752 273.488C552.385 275.388 552.596 276.232 557.024 275.599C577.481 272.222 586.76 261.46 588.447 253.23C589.291 248.799 588.237 245 585.284 243.101C575.161 236.559 576.848 228.54 577.903 224.32C578.114 223.687 578.114 223.053 578.325 222.631C579.168 217.145 574.107 212.08 569.045 209.97C566.725 208.915 563.984 208.282 561.664 207.438C558.501 206.594 555.126 205.538 552.174 204.061C542.684 198.997 537.201 187.179 538.888 175.784C537.201 175.573 535.935 175.362 534.67 175.362Z" fill="black"/>
<path d="M501.348 148.984C504.511 164.599 487.007 186.757 480.68 201.529C478.571 206.382 475.619 210.603 473.932 215.457C471.823 221.365 471.823 227.696 472.455 233.816C473.51 245.422 477.095 257.45 485.109 265.68C493.334 273.91 507.042 277.709 516.954 271.8C525.811 266.736 529.818 255.551 529.186 245.422C528.553 235.293 524.335 225.586 519.695 216.512C508.518 194.143 516.321 167.765 501.348 148.984Z" fill="black"/>
<path d="M505.777 275.388C498.185 275.388 490.171 272.222 484.477 266.102C477.095 258.717 472.877 247.743 471.612 233.816C470.979 226.219 471.401 220.31 473.299 215.245C474.354 212.291 475.83 209.548 477.306 207.015C478.361 205.116 479.415 203.217 480.259 201.318C482.157 197.097 484.898 192.244 487.851 187.179C495.021 174.518 503.246 160.168 500.926 149.406C500.926 148.984 501.137 148.562 501.348 148.562C501.77 148.351 502.192 148.562 502.402 148.773C510.838 159.324 512.104 171.985 513.58 185.28C514.634 195.62 515.9 206.593 520.75 216.301C525.39 225.375 529.819 235.082 530.451 245.633C531.084 257.239 526.022 268.002 517.798 272.855C513.791 274.332 509.784 275.388 505.777 275.388ZM502.613 151.938C503.035 162.911 495.654 175.995 488.905 187.601C485.953 192.666 483.211 197.519 481.524 201.529C480.681 203.639 479.626 205.538 478.572 207.437C477.095 209.97 475.83 212.713 474.776 215.456C473.088 220.31 472.667 226.008 473.299 233.394C474.565 247.11 478.782 257.661 485.742 264.836C494.178 273.488 507.464 276.021 516.743 270.745C524.546 266.102 529.186 256.184 528.553 245C527.921 234.66 523.492 225.164 519.063 216.301C514.002 206.382 512.947 195.409 511.682 184.858C510.206 173.04 508.94 161.645 502.613 151.938Z" fill="black"/>
<path d="M522.859 229.595C522.648 221.154 522.648 212.924 523.07 206.805C519.696 205.116 516.111 203.85 512.314 203.428C510.627 203.217 508.729 203.006 507.464 204.061C506.62 204.694 502.824 201.318 502.402 202.162C499.661 208.493 496.919 223.898 494.178 230.228C493.967 230.65 481.313 232.55 481.102 232.972C480.259 235.082 486.796 243.523 487.429 243.945C522.226 267.158 540.996 232.339 540.996 232.339C540.996 232.339 532.56 231.494 522.859 229.595Z" fill="white"/>
<path d="M510.416 252.597C502.824 252.597 495.021 249.854 486.796 244.578C485.953 244.156 478.993 235.293 480.259 232.761C480.47 232.128 480.47 232.128 487.429 230.861C489.749 230.439 492.701 230.017 493.545 229.806C494.81 226.641 496.287 221.365 497.552 216.09C498.817 210.814 500.294 205.116 501.77 201.951C501.981 201.74 502.192 201.529 502.403 201.318C503.035 201.107 503.879 201.529 505.355 202.373C505.988 202.795 506.831 203.217 507.253 203.217C508.729 202.162 510.838 202.162 512.525 202.584C516.321 203.217 520.118 204.483 523.492 206.172C523.703 206.383 523.914 206.594 523.914 207.016C523.492 213.768 523.492 221.787 523.703 229.173C532.982 230.861 540.996 231.706 541.207 231.706C541.418 231.706 541.629 231.917 541.839 232.128C542.05 232.339 542.05 232.761 541.839 232.972C541.418 233.605 533.404 248.165 518.009 251.964C515.478 252.386 512.947 252.597 510.416 252.597ZM481.735 233.605C481.735 235.504 486.586 242.257 487.851 243.312C498.185 250.276 508.097 252.597 517.376 250.276C529.819 247.11 537.411 236.559 539.52 233.183C536.778 232.761 530.029 231.917 522.648 230.65C522.226 230.65 522.016 230.228 522.016 229.806C521.805 222.42 521.805 214.401 522.226 207.438C519.063 205.96 515.689 204.905 512.314 204.272C510.838 204.061 509.151 203.85 508.097 204.694C507.253 205.327 505.988 204.694 504.511 203.85C504.09 203.639 503.457 203.217 503.035 203.006C501.77 206.172 500.504 211.447 499.239 216.512C497.974 221.787 496.498 227.485 495.021 230.65C494.81 231.283 494.81 231.283 487.851 232.55C485.742 232.761 482.789 233.183 481.735 233.605Z" fill="black"/>
<path d="M490.803 148.562C488.905 156.158 487.429 164.177 482.79 170.719C480.259 174.307 472.456 194.143 486.164 205.96C493.334 212.291 503.246 215.456 513.791 213.557C520.961 212.291 532.56 204.061 535.513 192.666C539.731 195.831 545.847 194.565 547.745 190.133C548.799 187.601 547.323 183.381 544.37 182.326C542.05 181.481 541.84 181.481 539.52 182.114C540.363 176.417 541.629 170.93 544.159 165.232C540.996 157.003 533.404 150.461 525.179 145.607C522.437 143.919 519.485 142.653 516.532 141.809C507.253 139.487 492.702 140.754 490.803 148.562Z" fill="white"/>
<path d="M507.675 215.034C499.45 215.034 491.647 212.08 485.32 206.593C471.612 194.565 478.782 174.518 481.735 170.086C485.742 164.599 487.429 157.636 489.116 151.094C489.327 150.25 489.538 149.195 489.749 148.351C490.381 146.029 491.858 144.341 494.178 142.864C499.872 139.488 509.784 139.276 516.11 140.965C519.485 141.809 522.648 143.497 524.968 144.974C531.927 148.984 540.785 155.736 544.37 165.022C544.37 165.233 544.37 165.444 544.37 165.655C542.261 170.508 540.996 175.573 539.941 181.27C541.418 181.059 542.05 181.27 543.948 181.904C545.424 182.326 546.69 183.803 547.533 185.491C548.377 187.39 548.377 189.289 547.955 190.767C547.112 192.877 545.214 194.565 542.683 195.198C540.363 195.831 537.621 195.409 535.513 194.143C531.927 205.749 520.75 213.346 513.58 214.612C511.682 214.823 509.784 215.034 507.675 215.034ZM507.464 141.598C503.035 141.598 498.395 142.442 495.232 144.341C493.334 145.607 492.069 147.084 491.647 148.773C491.436 149.617 491.225 150.672 491.014 151.516C489.327 158.269 487.64 165.444 483.422 171.141C481.735 173.463 472.877 193.299 486.585 205.327C493.967 211.869 503.668 214.401 513.58 212.713C520.328 211.658 531.716 203.639 534.458 192.455C534.458 192.244 534.669 192.033 535.091 191.822C535.302 191.822 535.723 191.822 535.934 192.033C537.832 193.51 540.363 193.932 542.683 193.51C544.581 193.088 546.057 191.822 546.69 190.134C547.112 189.078 546.901 187.601 546.268 186.124C545.635 184.858 544.792 183.803 543.526 183.381C541.207 182.537 541.207 182.537 539.098 183.17C538.887 183.17 538.465 183.17 538.254 182.959C538.043 182.748 538.043 182.537 538.043 182.115C538.887 175.995 540.363 170.508 542.683 165.233C539.309 156.581 530.662 150.039 524.124 146.24C521.805 144.974 518.852 143.286 515.689 142.442C513.58 142.02 510.627 141.598 507.464 141.598Z" fill="black"/>
<path d="M517.798 192.244C516.954 192.244 516.111 192.244 515.267 191.822C512.315 190.977 509.995 189.078 508.308 186.335C506.831 183.592 506.41 180.215 507.253 177.05C508.097 173.884 509.995 171.141 512.526 169.453C515.267 167.765 518.22 167.132 521.172 167.765C524.125 168.609 526.444 170.508 528.132 173.251C529.608 175.995 530.03 179.371 529.186 182.536C527.71 188.445 522.859 192.244 517.798 192.244ZM518.641 169.242C516.743 169.242 515.056 169.875 513.369 170.93C511.049 172.407 509.362 174.94 508.729 177.683C508.097 180.426 508.308 183.381 509.573 185.702C510.838 188.023 512.947 189.711 515.478 190.344C520.539 191.611 526.023 188.023 527.499 182.325C528.132 179.582 527.921 176.628 526.655 174.307C525.39 171.985 523.281 170.297 520.75 169.664C520.118 169.242 519.485 169.242 518.641 169.242Z" fill="black"/>
<path d="M488.483 182.115C487.64 182.115 486.796 181.903 485.953 181.692C483 180.848 480.68 178.949 478.993 176.206C477.517 173.462 477.095 170.086 477.939 166.921C479.626 160.379 485.953 156.158 491.858 157.636C494.81 158.48 497.13 160.379 498.817 163.122C500.293 165.866 500.715 169.242 499.872 172.407C499.028 175.573 497.13 178.316 494.599 180.004C492.701 181.481 490.592 182.115 488.483 182.115ZM489.538 159.113C485.109 159.113 480.891 162.489 479.626 167.343C478.993 170.086 479.204 173.04 480.469 175.362C481.735 177.683 483.844 179.371 486.374 180.004C488.905 180.637 491.436 180.215 493.756 178.738C496.076 177.261 497.763 174.729 498.395 171.985C499.028 169.242 498.817 166.288 497.552 163.966C496.286 161.645 494.177 159.957 491.647 159.324C490.803 159.324 490.171 159.113 489.538 159.113Z" fill="black"/>
<path d="M567.99 128.514C568.834 117.752 560.82 108.256 550.064 107.201C539.309 106.357 529.819 114.375 528.764 125.138C527.92 135.9 535.934 145.396 546.69 146.451C557.656 147.295 567.147 139.276 567.99 128.514Z" fill="black"/>
<path d="M548.588 147.295C547.955 147.295 547.534 147.295 546.901 147.295C535.724 146.451 527.288 136.533 528.131 125.138C528.975 113.953 538.887 105.512 550.275 106.357C555.758 106.779 560.609 109.311 564.194 113.531C567.779 117.752 569.466 123.027 569.045 128.514C568.623 134.001 566.092 138.854 561.874 142.442C558.078 145.607 553.439 147.295 548.588 147.295ZM548.377 108.045C538.676 108.045 530.451 115.431 529.608 125.349C528.764 135.689 536.567 144.763 546.901 145.607C551.962 146.029 556.813 144.552 560.609 141.176C564.405 138.01 566.725 133.368 567.147 128.303C567.568 123.239 566.092 118.385 562.718 114.586C559.554 110.788 554.915 108.467 549.853 108.045C549.432 108.045 549.01 108.045 548.377 108.045Z" fill="black"/>
<path d="M538.255 182.748C536.568 173.673 535.724 167.343 537.622 158.058C516.533 161.434 499.662 156.58 483.423 149.406C484.266 146.451 487.219 140.543 489.328 138.432C494.811 133.157 500.505 128.936 512.104 128.303C520.329 127.881 530.452 129.569 537.622 133.579C544.582 137.588 549.432 144.13 552.807 151.094C555.337 156.58 556.392 164.388 555.126 171.141C554.072 176.839 551.119 180.426 546.691 184.858C545.636 183.592 544.582 182.325 542.895 182.114C541.418 181.692 539.942 182.114 538.255 182.748Z" fill="black"/>
<path d="M546.69 185.702C546.479 185.702 546.268 185.491 546.058 185.491L545.847 185.28C544.792 184.225 544.159 183.17 542.683 182.959C541.207 182.748 540.153 182.959 538.255 183.592C538.044 183.592 537.833 183.592 537.622 183.592C537.411 183.381 537.2 183.17 537.2 182.959C535.513 174.94 534.669 168.398 536.356 159.113C514.424 162.278 497.13 156.37 483.001 150.039C482.579 149.828 482.368 149.406 482.579 148.984C483.422 145.818 486.375 139.91 488.695 137.588C494.811 131.68 500.716 127.67 512.104 127.248C519.485 127.037 530.03 128.092 538.044 132.735C544.37 136.322 549.643 142.442 553.439 150.672C556.18 156.581 557.235 164.388 555.97 171.141C554.915 177.472 551.541 181.059 547.323 185.28C547.112 185.491 546.901 185.702 546.69 185.702ZM541.84 181.059C542.261 181.059 542.683 181.059 543.105 181.27C544.792 181.481 545.847 182.537 546.69 183.592C551.119 179.16 553.439 175.995 554.282 170.93C555.548 164.599 554.493 156.792 551.963 151.516C548.167 143.497 543.105 137.799 537.2 134.423C529.608 129.991 519.274 128.936 512.315 129.147C500.294 129.569 494.811 134.212 489.96 139.065C488.062 140.965 485.32 146.029 484.477 148.984C498.396 155.103 515.689 160.801 537.622 157.214C537.833 157.214 538.255 157.214 538.255 157.425C538.465 157.636 538.465 157.847 538.465 158.269C536.567 167.554 537.411 173.885 538.887 181.693C539.942 181.27 540.785 181.059 541.84 181.059Z" fill="black"/>
<path d="M505.144 201.107C502.613 201.107 500.504 200.052 499.45 198.152C499.239 197.73 499.45 197.308 499.872 197.097C500.293 196.886 500.715 197.097 500.926 197.519C501.981 199.63 504.511 199.63 505.355 199.63C507.675 199.63 509.784 198.574 511.471 197.097C511.893 196.886 512.314 196.886 512.736 197.097C512.947 197.519 512.947 197.941 512.736 198.363C510.627 199.841 508.097 200.896 505.144 201.107C505.355 201.107 505.355 201.107 505.144 201.107Z" fill="black"/>
<path d="M517.587 180.215C517.798 179.371 517.165 178.316 516.322 178.105C515.267 177.894 514.424 178.316 514.002 179.371C513.791 180.215 514.424 181.27 515.267 181.481C516.322 181.692 517.376 181.059 517.587 180.215Z" fill="black"/>
<path d="M491.436 171.352C491.647 170.508 491.014 169.453 490.17 169.242C489.116 169.031 488.272 169.453 487.85 170.508C487.64 171.352 488.272 172.407 489.116 172.618C490.17 172.829 491.225 172.407 491.436 171.352Z" fill="black"/>
<path d="M497.13 185.913C496.919 185.913 496.708 185.913 496.497 185.702L494.599 183.803C494.389 183.592 493.756 183.17 493.756 182.325C493.756 181.481 494.389 181.059 494.81 180.848C497.552 179.16 499.239 176.417 499.45 173.462C499.45 173.04 499.872 172.618 500.294 172.829C500.715 172.829 501.137 173.251 500.926 173.673C500.504 177.261 498.606 180.426 495.443 182.325C495.443 182.325 495.232 182.325 495.232 182.536C495.232 182.536 495.232 182.536 495.443 182.747L497.341 184.647C497.763 184.858 497.763 185.491 497.341 185.913C497.552 185.913 497.341 185.913 497.13 185.913Z" fill="black"/>
<path d="M509.362 173.462C509.151 173.462 508.729 173.251 508.729 173.04C507.675 170.93 505.566 169.453 503.246 169.242C502.191 169.031 500.715 169.453 500.504 170.086C500.293 170.508 499.872 170.719 499.45 170.508C499.028 170.297 498.817 169.875 499.028 169.453C499.661 167.765 501.77 167.132 503.457 167.343C506.198 167.765 508.94 169.453 510.205 171.985C510.416 172.407 510.205 172.829 509.784 173.04C509.573 173.462 509.573 173.462 509.362 173.462Z" fill="black"/>
<path d="M537.622 182.748H537.411L528.975 179.371C528.553 179.16 528.343 178.738 528.553 178.316C528.764 177.894 529.186 177.683 529.608 177.894L538.044 181.27C538.465 181.482 538.676 181.904 538.465 182.326C538.255 182.537 538.044 182.748 537.622 182.748Z" fill="black"/>
<path d="M536.989 189.289H536.778C536.356 189.078 536.145 188.656 536.356 188.234C537.2 186.124 537.622 184.014 537.622 181.692C537.622 181.27 538.043 180.848 538.465 180.848C538.887 180.848 539.309 181.27 539.309 181.692C539.309 184.014 538.887 186.546 538.043 188.867C537.622 189.078 537.2 189.289 536.989 189.289Z" fill="black"/>
<path d="M554.493 302.61C562.718 297.756 576.426 280.874 572.63 266.947C570.732 259.561 567.147 233.183 528.554 230.65C527.71 242.89 515.9 248.377 508.097 249.432C503.879 249.854 488.273 249.432 488.273 231.284C477.939 231.917 464.864 233.394 444.618 241.413C429.223 247.532 403.283 251.542 403.283 251.542C403.283 251.542 376.922 217.778 367.431 203.85C362.159 196.253 352.88 227.696 346.975 214.402C346.131 212.291 373.969 268.213 376.289 272.433C388.099 294.591 442.72 280.452 453.476 280.452C452.421 295.857 458.959 304.931 464.442 309.574C466.129 345.026 457.483 369.716 457.483 369.716C457.483 369.716 505.988 387.653 556.181 372.881C559.977 372.037 546.479 341.017 554.493 302.61Z" fill="#FFD44B"/>
<path d="M513.58 379.845C503.879 379.845 495.022 379.001 487.641 377.946C469.293 375.414 457.061 370.771 456.85 370.771C456.428 370.56 456.218 370.138 456.428 369.716C456.428 369.505 464.864 345.026 463.388 310.418C458.748 306.408 451.789 297.334 452.422 281.718C450.102 281.929 446.727 282.352 442.299 282.985C422.264 285.939 385.147 291.215 375.446 273.066C374.18 270.956 366.588 255.551 358.996 240.569C353.935 230.65 348.873 220.521 346.975 216.512C346.764 216.09 346.342 215.457 346.132 214.824C345.921 214.19 346.132 213.768 346.553 213.768C347.186 213.346 347.608 213.979 348.03 214.613C348.24 214.824 348.24 215.246 348.451 215.668C349.084 216.512 349.506 216.934 350.139 216.934C352.247 217.145 355.2 212.924 357.731 209.337C360.472 205.327 363.003 201.74 365.534 201.74C366.588 201.74 367.432 202.373 368.064 203.217C376.922 216.09 400.542 246.688 403.494 250.487C407.08 249.854 430.278 246.055 444.197 240.569C464.442 232.55 477.729 230.861 488.062 230.228C488.273 230.228 488.484 230.228 488.695 230.439C488.906 230.65 488.906 230.861 488.906 231.072C488.906 236.981 490.593 241.413 493.967 244.578C498.396 248.377 504.723 248.799 507.886 248.588C514.424 247.743 526.656 243.101 527.499 230.65C527.499 230.439 527.71 230.228 527.71 230.017C527.921 229.806 528.132 229.806 528.343 229.806C564.827 232.128 570.521 255.973 572.63 264.836C572.841 265.47 572.841 266.103 573.052 266.736C576.848 280.874 563.14 297.967 554.915 303.032C549.854 327.933 553.861 350.302 555.97 362.119C557.446 369.716 558.079 373.303 555.97 373.936C541.418 378.368 526.656 379.845 513.58 379.845ZM458.327 369.505C464.653 371.615 509.784 385.965 555.759 372.459C556.392 371.615 555.548 367.184 554.705 362.541C552.596 350.302 548.378 327.722 553.65 302.399C553.65 302.188 553.861 301.977 554.072 301.766C562.297 296.912 575.372 280.241 571.787 267.158C571.576 266.736 571.576 266.103 571.365 265.259C569.045 255.973 563.773 234.027 529.397 231.495C528.132 244.367 515.057 249.432 508.308 250.065C507.465 250.276 499.029 250.909 493.124 245.633C489.539 242.468 487.641 237.825 487.43 231.917C477.307 232.55 464.231 234.238 444.829 242.046C429.645 248.165 403.494 252.175 403.283 252.175C403.073 252.175 402.651 252.175 402.44 251.964C402.229 251.542 375.867 217.989 366.588 204.272C365.955 203.428 365.534 203.428 365.323 203.428C363.636 203.428 361.105 207.016 358.996 210.181C356.044 214.401 353.302 218.411 350.349 218.411H350.139C350.56 219.466 351.193 220.521 351.826 221.576C354.145 226.219 357.52 232.761 360.683 239.302C367.854 253.441 375.867 269.69 377.133 271.8C386.412 288.893 422.686 283.618 442.299 280.874C447.36 280.241 451.367 279.608 453.476 279.608C453.687 279.608 453.898 279.608 454.109 279.819C454.32 280.03 454.32 280.241 454.32 280.452C453.265 296.279 460.435 305.142 464.864 308.941C465.075 309.152 465.075 309.363 465.075 309.574C466.762 341.65 459.803 365.073 458.327 369.505Z" fill="black"/>
<path d="M373.126 128.514L347.186 155.947L336.009 282.351L440.612 292.903L454.32 136.955L373.126 128.514Z" fill="white"/>
<path d="M440.611 293.747L336.009 283.196C335.587 283.196 335.165 282.774 335.165 282.351L346.342 155.948C346.342 155.736 346.342 155.525 346.553 155.525L372.493 127.881C372.704 127.67 372.915 127.67 373.126 127.67L454.319 136.111C454.741 136.111 455.163 136.533 455.163 136.955L441.244 293.114C441.244 293.325 441.033 293.536 441.033 293.747C440.822 293.747 440.822 293.747 440.611 293.747ZM336.852 281.718L439.768 292.059L453.476 137.588L373.337 129.358L347.819 156.37L336.852 281.718Z" fill="black"/>
<path d="M347.186 155.947L370.806 157.847L373.125 128.514L347.186 155.947Z" fill="#FFD42E"/>
<path d="M370.806 158.691L347.186 156.792C346.764 156.792 346.553 156.581 346.553 156.37C346.342 156.159 346.553 155.736 346.764 155.525L372.704 127.881C372.915 127.67 373.337 127.459 373.547 127.67C373.969 127.881 373.969 128.092 373.969 128.514L371.649 157.847C371.649 158.269 371.228 158.691 370.806 158.691ZM348.873 155.314L369.962 157.003L372.071 130.836L348.873 155.314Z" fill="black"/>
<path d="M432.597 158.058L413.406 156.159C413.195 156.159 413.195 155.948 413.195 155.948L413.406 155.737L432.597 157.636C432.808 157.636 432.808 157.847 432.808 157.847C432.808 157.847 432.808 158.058 432.597 158.058Z" fill="black"/>
<path d="M431.965 165.233L404.971 162.489C404.76 162.489 404.76 162.278 404.76 162.278C404.76 162.067 404.971 162.067 404.971 162.067L431.965 164.811C432.176 164.811 432.176 165.022 432.176 165.022C432.176 165.233 431.965 165.233 431.965 165.233Z" fill="black"/>
<path d="M429.012 197.731L362.792 190.978C362.581 190.978 362.581 190.767 362.581 190.767C362.581 190.556 362.792 190.556 362.792 190.556L429.012 197.519C429.223 197.519 429.223 197.731 429.223 197.731C429.223 197.731 429.223 197.731 429.012 197.731Z" fill="black"/>
<path d="M426.903 221.787L360.683 214.823C360.472 214.823 360.472 214.612 360.472 214.612C360.472 214.401 360.683 214.401 360.683 214.401L426.903 221.365C427.114 221.365 427.114 221.576 427.114 221.576C427.114 221.787 427.114 221.787 426.903 221.787Z" fill="black"/>
<path d="M424.795 245.844L358.574 238.88C358.363 238.88 358.363 238.669 358.363 238.669C358.363 238.458 358.574 238.458 358.574 238.458L424.795 245.422C425.005 245.422 425.005 245.633 425.005 245.633C425.005 245.633 425.005 245.844 424.795 245.844Z" fill="black"/>
<path d="M477.517 249.642C473.932 246.055 469.925 242.89 466.34 234.238C464.02 228.751 456.006 216.723 453.054 215.245C448.203 212.713 445.251 210.603 440.611 209.97C436.815 209.548 429.223 210.392 429.012 211.869C428.379 216.089 438.291 213.346 439.135 213.768C442.087 214.823 445.04 216.089 447.57 219.255C443.563 219.466 436.393 220.31 434.495 221.365C432.597 222.631 427.536 228.751 427.114 229.806C426.059 231.705 427.114 233.605 429.434 231.705C429.645 231.494 434.495 228.118 436.182 226.008C436.815 225.164 444.196 224.53 447.36 225.164C443.985 224.108 437.448 224.741 436.182 226.008C435.76 226.219 430.488 232.127 430.277 232.76C428.801 235.293 431.332 236.137 433.23 234.66C435.339 232.971 437.658 230.439 438.08 230.228C441.033 228.751 444.196 229.595 446.727 229.806C444.196 229.384 441.244 228.751 438.08 230.017C437.448 230.228 431.753 234.871 433.23 236.981C433.862 238.247 436.604 237.614 439.978 233.816C441.876 234.027 443.142 234.66 444.618 234.871C445.672 235.082 449.679 243.734 454.108 246.266C454.952 246.688 457.904 254.285 463.387 264.414C464.653 266.524 469.925 270.112 475.83 261.882C478.15 258.928 480.891 253.019 477.517 249.642Z" fill="white"/>
<path d="M468.238 268.002C468.027 268.002 468.027 268.002 467.816 268.002C465.497 267.791 463.599 266.314 462.755 265.047C460.224 260.194 458.115 255.973 456.639 252.808C455.374 250.065 454.108 247.743 453.687 247.321C450.734 245.633 448.203 241.624 446.305 238.669C445.673 237.614 444.829 236.348 444.407 235.926C443.775 235.715 443.353 235.715 442.931 235.504C442.088 235.293 441.244 235.082 440.4 234.871C438.081 237.403 435.972 238.669 434.284 238.458C433.652 238.458 433.019 238.036 432.808 237.403C432.597 236.981 432.386 236.559 432.597 235.926C431.543 236.137 430.699 236.137 430.067 235.504C429.856 235.293 429.012 234.449 429.645 232.761C428.379 233.605 427.536 232.972 427.114 232.761C426.271 232.127 426.06 230.65 426.903 229.384C427.536 228.118 432.597 221.787 434.706 220.521C436.604 219.255 442.509 218.622 446.516 218.2C444.407 216.09 442.088 215.034 439.557 214.19C439.346 214.19 438.502 214.19 437.87 214.401C434.284 214.823 430.699 215.245 429.223 213.768C428.801 213.346 428.379 212.713 428.59 211.658C429.012 209.126 438.081 208.704 441.033 209.126C444.618 209.548 447.36 211.025 450.523 212.713C451.578 213.346 452.632 213.768 453.898 214.401C457.272 216.09 465.286 228.751 467.395 233.816C470.558 241.202 473.932 244.578 477.307 247.743C477.728 248.165 478.15 248.587 478.572 249.009C482.368 252.808 479.416 259.139 477.096 262.304C473.511 266.947 470.347 268.002 468.238 268.002ZM440.189 232.972C441.666 233.183 442.72 233.394 443.564 233.816C443.986 234.027 444.618 234.027 445.04 234.238C445.673 234.449 446.305 235.293 447.782 237.614C449.469 240.357 451.999 244.367 454.741 245.844C455.374 246.266 456.006 247.532 458.326 252.175C459.803 255.34 461.911 259.561 464.442 264.414C464.864 265.258 466.129 266.525 468.027 266.525C470.558 266.736 473.089 265.047 475.409 261.671C477.307 259.139 480.048 253.441 477.096 250.487C476.674 250.065 476.252 249.643 475.83 249.22C472.667 246.055 469.082 242.468 465.708 234.871C463.388 229.173 455.585 217.567 452.843 216.301C451.578 215.668 450.523 215.034 449.469 214.612C446.305 212.924 443.986 211.658 440.611 211.236C436.815 210.814 430.699 211.658 429.856 212.502C429.856 212.924 429.856 213.135 430.067 213.135C431.121 214.19 435.128 213.557 437.237 213.346C438.713 213.135 439.135 213.135 439.557 213.135C442.72 214.19 445.673 215.456 448.414 219.044C448.625 219.255 448.625 219.677 448.414 219.888C448.203 220.099 447.993 220.31 447.782 220.31C443.353 220.521 436.604 221.365 435.128 222.42C433.441 223.475 428.379 229.595 427.958 230.65C427.536 231.494 427.747 231.916 427.747 232.127C427.747 232.127 428.169 232.127 429.012 231.494C429.012 231.494 429.223 231.494 429.223 231.283C431.965 229.384 433.441 227.907 434.495 227.063C435.128 226.43 435.55 225.797 435.55 225.797C437.237 224.109 444.196 223.475 447.571 224.742C447.993 224.953 448.203 225.375 448.203 225.797C447.993 226.219 447.571 226.43 447.149 226.43C443.986 225.797 437.659 226.43 436.604 227.063C436.393 227.485 435.972 227.907 435.339 228.329C433.652 230.017 430.91 233.183 430.699 233.605C430.278 234.238 430.278 234.66 430.488 234.871C430.699 235.082 431.543 235.082 432.386 234.449C432.597 234.238 433.019 234.027 433.23 233.816C434.706 231.705 437.237 230.017 437.659 229.806C438.081 229.595 438.713 229.384 439.135 229.384C439.979 229.173 440.822 228.962 441.666 228.962C443.564 228.962 445.251 229.173 446.727 229.595C447.149 229.595 447.36 230.017 447.36 230.439C447.36 230.861 446.938 231.283 446.516 231.072C446.094 231.072 445.673 230.861 445.04 230.861C443.986 230.65 442.72 230.439 441.666 230.439C441.033 230.439 440.4 230.439 439.768 230.65C439.346 230.861 438.713 230.861 438.291 231.283C438.081 231.283 437.659 231.916 437.026 232.55C436.393 233.183 435.55 234.027 434.495 234.871C434.074 235.293 433.863 235.926 433.652 236.348C433.441 236.77 433.652 236.981 433.652 237.192C433.652 237.192 433.652 237.403 433.863 237.403C434.495 237.403 436.393 236.77 438.924 234.027C439.768 233.183 439.979 232.972 440.189 232.972Z" fill="black"/>
<path d="M329.681 219.255C328.627 213.346 331.368 202.584 333.899 200.474C337.906 196.886 340.226 193.932 344.444 192.033C348.029 190.556 355.621 189.5 356.043 190.767C357.73 194.565 347.396 194.776 346.763 195.198C344.233 196.886 341.702 198.997 340.015 202.795C344.022 201.951 351.192 200.896 353.301 201.529C355.41 202.162 361.948 206.804 362.791 207.649C364.267 209.126 363.846 211.236 360.893 209.97C360.682 209.97 355.199 207.86 352.879 206.382C352.036 205.749 344.865 207.015 341.913 208.493C344.865 206.593 351.403 205.538 353.09 206.382C353.512 206.593 360.26 210.814 360.682 211.236C362.58 213.135 360.682 214.823 358.362 213.979C355.832 212.924 353.09 211.025 352.457 211.025C349.083 210.392 346.342 212.08 344.022 212.924C346.342 211.869 349.083 210.603 352.457 210.814C353.09 210.814 359.839 213.768 358.995 216.301C358.573 217.567 355.832 217.778 351.614 215.034C349.716 215.879 348.872 216.512 347.396 217.356C346.342 217.989 344.865 227.274 341.28 230.861C340.647 231.494 340.015 238.247 339.171 244.367C338.117 251.12 330.946 225.586 329.681 219.255Z" fill="white"/>
<path d="M338.328 246.266C337.484 246.266 336.43 245.633 332.845 234.66C330.947 228.54 329.26 222.209 328.838 219.466C327.573 213.346 330.525 202.162 333.267 199.841C334.321 198.997 335.165 198.153 336.008 197.308C338.539 194.776 340.648 192.666 344.022 191.189C346.764 189.923 355.832 188.023 356.676 190.345C357.098 191.4 356.887 192.244 356.676 192.666C355.621 194.565 352.036 195.198 348.662 195.62C348.029 195.62 347.186 195.831 346.975 195.831C344.866 197.308 342.757 198.997 341.281 201.529C345.077 200.685 351.193 199.841 353.301 200.474C355.621 201.107 362.159 205.96 363.213 206.805C364.268 207.86 364.479 209.337 363.846 210.181C363.635 210.603 362.792 211.236 361.315 210.814C362.37 212.08 361.737 213.135 361.526 213.557C361.104 214.19 360.261 214.612 359.206 214.612C359.417 215.035 359.417 215.668 359.206 216.09C358.996 216.723 358.574 217.145 357.941 217.356C356.465 217.989 353.934 217.356 350.982 215.457C350.138 215.879 349.295 216.301 348.662 216.723C348.24 216.934 347.818 217.145 347.396 217.567C347.186 217.989 346.764 219.466 346.342 220.732C345.288 224.109 343.811 228.54 341.491 231.072C341.07 231.917 340.437 237.403 340.015 241.624C340.015 242.468 339.804 243.312 339.804 244.156C339.804 244.789 339.593 246.055 338.328 246.266ZM353.934 190.978C351.614 190.978 347.396 191.611 344.655 192.877C341.491 194.143 339.593 196.042 337.063 198.575C336.219 199.419 335.376 200.263 334.321 201.107C332.212 203.006 329.26 213.557 330.525 219.255C331.58 224.742 336.219 240.358 338.117 244.156C338.117 243.312 338.328 242.679 338.328 241.835C339.172 233.605 339.593 231.072 340.226 230.439C342.335 228.329 343.811 223.687 344.655 220.732C345.498 217.989 345.709 217.145 346.553 216.723C346.975 216.512 347.396 216.09 347.818 215.879C348.662 215.457 349.505 214.823 350.771 214.19C350.982 213.979 351.403 214.19 351.614 214.19C354.778 216.301 356.676 216.301 357.519 216.09C357.73 216.09 357.73 215.879 357.73 215.879C357.73 215.879 357.73 215.668 357.519 215.035C357.308 214.612 356.887 214.19 356.465 213.979C355.41 213.557 354.356 212.924 353.512 212.291C352.88 211.869 352.247 211.447 352.036 211.447C351.403 211.236 350.982 211.236 350.349 211.236C349.716 211.236 349.084 211.447 348.451 211.447C347.396 211.658 346.131 212.291 345.077 212.713C344.655 212.924 344.233 213.135 343.811 213.346C343.39 213.557 342.968 213.346 342.757 212.924C342.546 212.502 342.757 212.08 343.179 211.869C344.444 211.236 345.92 210.392 347.818 209.97C348.662 209.759 349.505 209.548 350.349 209.548C350.771 209.548 351.403 209.548 351.825 209.548C352.458 209.548 355.2 210.814 357.098 212.291C357.519 212.502 357.73 212.502 358.152 212.713C358.996 213.135 359.839 212.924 360.05 212.502C360.261 212.291 360.05 211.869 359.628 211.447C359.206 211.025 355.832 208.915 353.723 207.649C353.091 207.227 352.458 207.016 352.036 206.594C350.982 206.171 344.655 207.227 341.702 208.704C341.281 208.915 340.859 208.704 340.648 208.282C340.437 207.86 340.437 207.438 340.859 207.227C343.811 205.327 350.56 204.061 352.88 205.116C352.88 205.116 353.512 205.538 354.356 205.96C355.621 206.594 357.519 207.438 360.472 208.704C360.683 208.704 360.683 208.704 360.683 208.915C361.737 209.337 362.159 209.126 362.159 209.126C362.159 208.915 362.159 208.493 361.526 207.86C360.683 207.016 354.356 202.373 352.458 201.951C350.771 201.529 344.022 202.373 339.593 203.217C339.383 203.217 338.961 203.217 338.75 203.006C338.539 202.795 338.539 202.373 338.539 202.162C340.226 198.153 342.757 196.042 345.498 194.143C345.92 193.932 346.342 193.932 347.818 193.721C349.716 193.51 353.934 192.877 354.567 191.611C354.567 191.4 354.778 191.189 354.567 190.978C355.2 190.978 354.567 190.978 353.934 190.978Z" fill="black"/>
<path d="M515.267 283.195C513.158 282.984 484.055 257.028 477.096 250.276C476.674 249.854 476.674 249.431 477.096 249.009C477.517 248.587 477.939 248.587 478.361 249.009C487.64 258.083 512.947 280.241 515.478 281.507C518.431 281.085 542.051 262.937 551.119 255.973C551.541 255.762 551.963 255.762 552.173 256.184C552.384 256.606 552.384 257.028 551.963 257.239C527.499 276.232 517.376 283.195 515.267 283.195Z" fill="black"/>
<path d="M510.839 325.401C509.363 325.401 508.097 325.19 507.043 324.768C501.56 322.868 487.641 306.619 464.653 274.755L463.599 273.489C461.49 270.534 459.381 264.414 461.068 261.038C461.279 260.616 461.701 260.405 462.123 260.616C462.544 260.827 462.755 261.249 462.544 261.671C461.279 264.414 462.966 269.901 464.864 272.433L465.919 273.7C488.273 304.72 502.192 321.391 507.465 323.079C515.479 325.823 532.772 317.382 558.712 298.389C559.133 298.178 559.555 298.178 559.766 298.6C559.977 299.023 559.977 299.445 559.555 299.656C536.568 316.96 520.329 325.401 510.839 325.401Z" fill="black"/>
<path d="M468.449 272.433C468.238 272.433 468.238 272.433 468.238 272.222C468.238 272.011 468.238 272.011 468.449 272.011C473.089 271.378 476.674 267.791 480.259 263.57C480.259 263.359 480.47 263.359 480.681 263.57C480.892 263.57 480.892 263.781 480.681 263.992C476.885 268.002 473.3 271.8 468.449 272.433Z" fill="black"/>
<path d="M470.979 276.232C470.769 276.232 470.769 276.232 470.769 276.021C470.769 275.81 470.769 275.81 470.979 275.599C472.877 275.177 474.776 274.121 476.252 272.855C476.463 272.855 476.463 272.855 476.674 272.855C476.884 273.066 476.674 273.066 476.674 273.277C474.986 274.754 473.088 275.599 470.979 276.232C471.19 276.232 471.19 276.232 470.979 276.232Z" fill="black"/>
<path d="M514.634 371.826C490.803 371.826 469.925 367.395 462.122 365.495C461.911 365.495 461.911 365.284 461.911 365.073C461.911 364.862 462.122 364.862 462.333 364.862C474.143 367.606 515.689 376.258 551.541 366.973C551.751 366.973 551.751 366.973 551.962 367.184C551.962 367.395 551.962 367.395 551.751 367.606C539.52 370.771 526.655 371.826 514.634 371.826Z" fill="black"/>
<path d="M453.265 282.351H453.054C452.633 282.14 452.422 281.718 452.633 281.296L457.483 268.635C457.694 268.213 458.116 268.002 458.538 268.213C458.959 268.424 459.17 268.846 458.959 269.268L454.109 281.929C453.898 282.14 453.476 282.351 453.265 282.351Z" fill="black"/>
<path d="M449.89 471.43C449.469 471.43 449.047 471.008 449.047 470.586C449.047 447.373 456.85 395.25 459.802 375.835C460.013 374.147 460.224 372.881 460.435 371.826C460.435 371.404 460.857 370.982 461.279 371.193C461.7 371.193 462.122 371.615 461.911 372.037C461.7 373.092 461.49 374.569 461.279 376.046C458.326 395.672 450.523 447.584 450.523 470.586C450.734 471.008 450.312 471.43 449.89 471.43Z" fill="black"/>
<path d="M556.18 389.13C555.758 389.13 555.547 388.919 555.337 388.497C554.282 385.121 552.806 380.689 550.486 374.78C550.275 374.358 550.486 373.936 550.908 373.725C551.33 373.514 551.751 373.725 551.962 374.147C554.071 380.056 555.758 384.488 556.813 388.075C557.024 388.497 556.602 388.919 556.18 389.13C556.391 389.13 556.391 389.13 556.18 389.13Z" fill="black"/>
<path d="M349.505 135.478C349.084 135.478 348.662 135.056 348.662 134.634C348.24 127.881 350.771 121.128 355.199 116.064C355.41 115.642 356.043 115.642 356.465 116.064C356.887 116.275 356.887 116.908 356.465 117.33C352.247 121.973 349.927 128.303 350.349 134.634C350.349 135.056 350.138 135.478 349.505 135.478Z" fill="black"/>
<path d="M339.171 134.212H338.96C337.906 134.212 338.117 132.946 338.117 132.102C338.539 128.514 338.96 125.138 339.593 121.55C339.593 121.128 340.015 120.917 340.437 120.917C340.858 120.917 341.28 121.339 341.069 121.761C340.226 133.368 339.804 134.212 339.171 134.212Z" fill="black"/>
<path d="M425.638 490.211C425.216 490.211 425.216 490 425.005 489.789L209.473 211.025C209.262 210.814 209.262 210.603 209.262 210.392C209.262 210.181 209.473 209.97 209.473 209.759L461.7 14.9829C462.122 14.7718 462.544 14.7718 462.755 15.1939L678.076 294.169C678.287 294.591 678.287 295.013 677.866 295.224L426.06 490C425.849 490.211 425.849 490.211 425.638 490.211ZM211.371 210.603L425.638 488.101L676.389 294.38L462.122 16.8821L211.371 210.603Z" fill="black"/>
<path d="M496.709 434.5H496.498C496.076 434.289 495.865 433.867 496.076 433.445L505.566 408.122C505.777 407.911 505.988 407.7 506.41 407.489C506.831 407.489 507.042 407.7 507.253 407.911C509.573 412.765 511.26 417.829 512.315 423.105C512.315 423.527 512.104 423.949 511.682 424.16C511.26 424.16 510.838 423.949 510.628 423.527C509.573 419.096 508.308 414.664 506.41 410.444L497.552 433.867C497.341 434.289 496.919 434.5 496.709 434.5Z" fill="black"/>
<path d="M495.021 409.388C494.6 409.388 494.178 408.966 494.178 408.544C494.178 408.122 494.6 407.7 495.021 407.7L505.988 407.067C506.409 407.067 506.831 407.489 506.831 407.911C506.831 408.333 506.409 408.755 505.988 408.755L495.021 409.388C495.232 409.388 495.232 409.388 495.021 409.388Z" fill="black"/>
<path d="M389.785 376.258L354.355 443.364L266.624 421.417L270.209 351.146L389.785 376.258Z" fill="black"/>
<path d="M354.355 444.208C354.144 444.208 354.144 444.208 354.355 444.208L266.413 422.261C265.991 422.261 265.78 421.839 265.78 421.417L269.155 350.935C269.155 350.724 269.365 350.513 269.576 350.302C269.787 350.091 269.998 350.091 270.209 350.091L389.785 375.203C389.996 375.203 390.207 375.414 390.418 375.625C390.629 375.836 390.418 376.047 390.418 376.258L354.988 443.364C354.988 443.997 354.566 444.208 354.355 444.208ZM267.467 420.784L353.723 442.308L388.309 376.68L270.842 351.99L267.467 420.784Z" fill="black"/>
<path d="M376.71 338.062L353.301 443.786L258.821 423.949L280.332 318.015L376.71 338.062Z" fill="white"/>
<path d="M353.301 444.63L258.61 424.793C258.188 424.793 257.978 424.16 257.978 423.738L279.489 317.804C279.489 317.593 279.699 317.382 279.91 317.382C280.121 317.171 280.332 317.171 280.543 317.171L376.921 337.218C377.132 337.218 377.343 337.429 377.343 337.64C377.554 337.851 377.554 338.062 377.554 338.273L354.145 443.997C354.145 444.419 353.723 444.63 353.301 444.63ZM259.876 423.316L352.879 442.942L375.867 338.695L281.176 319.07L259.876 423.316Z" fill="black"/>
<path d="M350.77 377.313L312.388 369.294C312.177 369.294 312.177 369.083 312.177 368.872C312.177 368.661 312.388 368.661 312.599 368.661L350.77 376.68C350.981 376.68 350.981 376.891 350.981 377.102C351.192 377.313 350.981 377.313 350.77 377.313Z" fill="black"/>
<path d="M347.396 393.773L313.653 386.809C313.442 386.809 313.442 386.598 313.442 386.387C313.442 386.176 313.653 386.176 313.864 386.176L347.607 393.14C347.818 393.14 347.818 393.351 347.818 393.562C347.818 393.562 347.607 393.773 347.396 393.773Z" fill="black"/>
<path d="M344.022 410.022L310.279 403.058C310.068 403.058 310.068 402.847 310.068 402.636C310.068 402.425 310.279 402.425 310.49 402.425L344.233 409.389C344.444 409.389 344.444 409.6 344.444 409.811C344.233 410.022 344.233 410.022 344.022 410.022Z" fill="black"/>
<path d="M286.659 338.906L298.047 357.265L353.512 368.028L353.301 443.786L245.535 420.995L245.746 330.465L286.659 338.906Z" fill="white"/>
<path d="M353.301 444.63L245.324 421.839C244.902 421.839 244.691 421.417 244.691 420.995L244.902 330.254C244.902 330.043 245.113 329.832 245.113 329.621C245.324 329.41 245.535 329.41 245.746 329.41L286.448 338.062C286.659 338.062 286.87 338.273 287.081 338.484L298.258 356.421L353.512 367.184C353.934 367.184 354.145 367.606 354.145 368.028L353.934 443.786C353.934 443.997 353.723 444.208 353.723 444.419C353.723 444.419 353.512 444.63 353.301 444.63ZM246.379 420.362L352.458 442.731L352.669 368.661L297.836 357.899C297.625 357.899 297.415 357.688 297.204 357.476L286.026 339.539L246.589 331.309L246.379 420.362Z" fill="black"/>
<path d="M353.934 351.568L300.156 340.383C299.945 340.383 299.945 340.172 299.945 339.961C299.945 339.75 300.156 339.75 300.367 339.75L354.145 350.935C354.356 350.935 354.356 351.146 354.356 351.357C354.356 351.568 354.145 351.568 353.934 351.568Z" fill="black"/>
<path d="M352.247 359.798L323.143 353.678C322.933 353.678 322.933 353.467 322.933 353.256C322.933 353.045 323.144 353.045 323.354 353.045L352.458 359.165C352.669 359.165 352.668 359.376 352.668 359.587C352.668 359.798 352.458 359.798 352.247 359.798Z" fill="black"/>
<path d="M690.308 247.321C689.887 247.321 689.465 246.899 689.465 246.477V157.425C689.465 157.003 689.887 156.581 690.308 156.581C690.73 156.581 691.152 157.003 691.152 157.425V246.477C691.152 246.899 690.73 247.321 690.308 247.321Z" fill="black"/>
<path d="M698.104 254.051V238.435H682.497V254.051H698.104Z" fill="#FFD42E"/>
<path d="M698.112 254.918H682.506C682.084 254.918 681.662 254.496 681.662 254.074V238.458C681.662 238.036 682.084 237.614 682.506 237.614H698.112C698.534 237.614 698.955 238.036 698.955 238.458V254.074C698.955 254.496 698.534 254.918 698.112 254.918ZM683.349 253.23H697.268V239.302H683.349V253.23Z" fill="black"/>
<path d="M365.111 67.739H232.671C232.249 67.739 231.827 67.3169 231.827 66.8949C231.827 66.4728 232.249 66.0508 232.671 66.0508H365.111C365.533 66.0508 365.955 66.4728 365.955 66.8949C365.955 67.3169 365.533 67.739 365.111 67.739Z" fill="black"/>
<path d="M313.443 67.95C313.021 67.95 312.6 67.528 312.6 67.1059V2.11021C312.6 1.68816 313.021 1.26611 313.443 1.26611C313.865 1.26611 314.287 1.68816 314.287 2.11021V67.1059C314.287 67.528 314.076 67.95 313.443 67.95Z" fill="black"/>
<path d="M321.392 74.6674V59.0515H305.786V74.6674H321.392Z" fill="#FFD42E"/>
<path d="M321.246 75.547H305.639C305.218 75.547 304.796 75.1249 304.796 74.7029V59.087C304.796 58.665 305.218 58.2429 305.639 58.2429H321.246C321.667 58.2429 322.089 58.665 322.089 59.087V74.7029C322.089 75.1249 321.878 75.547 321.246 75.547ZM306.483 73.8588H320.402V59.9311H306.483V73.8588Z" fill="black"/>
<path d="M365.111 67.739H232.671C232.249 67.739 231.827 67.3169 231.827 66.8949C231.827 66.4728 232.249 66.0508 232.671 66.0508H365.111C365.533 66.0508 365.955 66.4728 365.955 66.8949C365.955 67.3169 365.533 67.739 365.111 67.739Z" fill="black"/>
<path d="M313.443 67.95C313.021 67.95 312.6 67.528 312.6 67.1059V2.11021C312.6 1.68816 313.021 1.26611 313.443 1.26611C313.865 1.26611 314.287 1.68816 314.287 2.11021V67.1059C314.287 67.528 314.076 67.95 313.443 67.95Z" fill="black"/>
<path d="M321.392 74.6674V59.0515H305.786V74.6674H321.392Z" fill="#FFD42E"/>
<path d="M321.246 75.547H305.639C305.218 75.547 304.796 75.1249 304.796 74.7029V59.087C304.796 58.665 305.218 58.2429 305.639 58.2429H321.246C321.667 58.2429 322.089 58.665 322.089 59.087V74.7029C322.089 75.1249 321.878 75.547 321.246 75.547ZM306.483 73.8588H320.402V59.9311H306.483V73.8588Z" fill="black"/>
<path d="M259.032 450.538H126.381C125.959 450.538 125.537 450.116 125.537 449.694C125.537 449.272 125.959 448.85 126.381 448.85H258.821C259.243 448.85 259.665 449.272 259.665 449.694C259.665 450.116 259.454 450.538 259.032 450.538Z" fill="black"/>
<path d="M192.601 450.538C192.18 450.538 191.758 450.116 191.758 449.694V371.615C191.758 371.193 192.18 370.771 192.601 370.771C193.023 370.771 193.445 371.193 193.445 371.615V449.694C193.445 450.116 193.234 450.538 192.601 450.538Z" fill="black"/>
<path d="M200.519 457.23V441.615H184.912V457.23H200.519Z" fill="#FFD42E"/>
<path d="M200.405 458.135H184.799C184.377 458.135 183.955 457.713 183.955 457.291V441.675C183.955 441.253 184.377 440.831 184.799 440.831H200.405C200.827 440.831 201.248 441.253 201.248 441.675V457.291C201.248 457.713 201.037 458.135 200.405 458.135ZM185.642 456.447H199.561V442.52H185.642V456.447Z" fill="black"/>
<path d="M649.395 115.22C642.225 109.311 633.157 107.834 626.408 114.376C619.66 120.917 618.605 134.845 625.565 141.387C632.946 148.562 650.661 148.562 660.362 148.351C678.92 147.929 697.901 148.984 716.459 148.984C751.257 148.984 747.461 119.018 738.181 112.687C733.753 109.522 727.637 110.155 723.419 113.954C725.106 101.292 717.514 87.9974 706.758 85.0431C696.003 82.0887 683.982 90.1077 680.818 102.347C675.968 96.4384 667.954 94.5392 661.627 97.7046C655.09 101.081 650.872 107.623 649.395 115.22Z" fill="white"/>
<path d="M716.248 149.828C708.445 149.828 700.22 149.617 692.417 149.406C681.873 149.195 670.906 148.984 660.151 149.195C651.293 149.406 632.735 149.617 624.932 142.02C621.768 139.065 620.081 134.212 620.081 128.936C620.081 123.027 622.19 117.33 625.986 113.742C632.313 107.623 640.959 107.623 648.973 113.742C650.871 105.934 655.3 100.026 661.205 97.0714C667.532 93.906 675.335 95.3832 680.396 100.659C682.294 94.7501 686.512 89.4745 691.785 86.5202C696.635 83.7768 701.907 82.9327 706.969 84.1989C717.514 87.1532 725.317 99.6037 724.473 112.054C728.691 109.1 734.385 109.1 738.603 112.054C743.664 115.431 747.249 125.138 744.297 134.212C742.399 140.121 736.283 149.828 716.248 149.828ZM668.586 147.506C676.6 147.506 684.614 147.717 692.417 147.928C700.22 148.139 708.234 148.35 716.037 148.35C735.018 148.35 740.712 139.276 742.399 133.79C744.93 125.56 741.766 116.486 737.337 113.531C733.12 110.577 727.425 111.21 723.629 114.586C723.419 114.798 722.997 114.798 722.786 114.798C722.575 114.586 722.364 114.375 722.364 113.953C724.051 101.925 716.459 88.8414 706.336 86.0981C701.907 84.832 696.846 85.6761 692.417 88.2084C686.934 91.3737 682.927 96.6494 681.451 102.769C681.451 102.98 681.029 103.402 680.818 103.402C680.607 103.402 680.185 103.402 679.975 103.191C675.335 97.7045 667.743 95.8053 661.838 98.7596C656.144 101.503 651.926 107.834 650.239 115.642C650.239 115.853 650.028 116.064 649.606 116.275C649.395 116.275 648.973 116.275 648.762 116.064C640.959 109.733 632.946 109.311 626.83 115.22C623.455 118.385 621.557 123.661 621.557 129.147C621.557 134.001 623.244 138.432 625.986 141.176C633.367 148.35 652.137 147.928 660.151 147.928C662.892 147.506 665.845 147.506 668.586 147.506Z" fill="black"/>
<path d="M265.781 124.505C261.563 124.505 257.978 121.128 257.978 116.697C257.978 112.476 261.352 108.889 265.781 108.889C269.998 108.889 273.584 112.265 273.584 116.697C273.584 120.917 269.998 124.505 265.781 124.505ZM265.781 110.577C262.406 110.577 259.665 113.32 259.665 116.697C259.665 120.073 262.406 122.817 265.781 122.817C269.155 122.817 271.896 120.073 271.896 116.697C271.896 113.32 269.155 110.577 265.781 110.577Z" fill="black"/>
<path d="M819.374 206.172C815.156 206.172 811.571 202.795 811.571 198.364C811.571 194.143 814.946 190.556 819.374 190.556C823.592 190.556 827.177 193.932 827.177 198.364C826.967 202.795 823.592 206.172 819.374 206.172ZM819.374 192.455C816 192.455 813.258 195.198 813.258 198.575C813.258 201.951 816 204.694 819.374 204.694C822.749 204.694 825.49 201.951 825.49 198.575C825.49 195.198 822.749 192.455 819.374 192.455Z" fill="black"/>
<path d="M47.5071 348.613C43.2893 348.613 39.7041 345.237 39.7041 340.805C39.7041 336.585 43.0784 332.998 47.5071 332.998C51.725 332.998 55.3102 336.374 55.3102 340.805C55.3102 345.237 51.725 348.613 47.5071 348.613ZM47.5071 334.897C44.1329 334.897 41.3912 337.64 41.3912 341.017C41.3912 344.393 44.1329 347.136 47.5071 347.136C50.8814 347.136 53.623 344.393 53.623 341.017C53.623 337.64 50.8814 334.897 47.5071 334.897Z" fill="black"/>
</svg>
