<?xml version="1.0" encoding="utf-8"?>
<!-- Generator: Adobe Illustrator 24.3.0, SVG Export Plug-In . SVG Version: 6.00 Build 0)  -->
<svg version="1.1" id="Layer_1" xmlns="http://www.w3.org/2000/svg" xmlns:xlink="http://www.w3.org/1999/xlink" x="0px" y="0px"
	 viewBox="0 0 1080 1080" style="enable-background:new 0 0 1080 1080;" xml:space="preserve">
<style type="text/css">
	.st0{fill:#FFFFFF;}
</style>
<g>
	<path class="st0" d="M596.5,618.1c0-6.4-0.2-12.1,0-17.8c0.5-16.4,13.3-29.8,29.6-30.1c23.2-0.3,46.7-0.3,69.9,0
		c16,0.3,28.8,13.6,29.5,29.6c0.2,5.9,0,11.8,0,18.3c10.5,0,20.1,0,30,0c21.3,0,34.2,12.6,34.2,33.7c0.2,36.7,0.2,73.2,0,109.9
		c0,21-12.8,33.7-33.6,33.9c-63.4,0.2-126.9,0.2-190.2,0c-20.5,0-33.4-12.9-33.4-33.4c-0.2-37-0.2-74,0-111.2
		c0-20,13.1-32.9,33.1-33.1C575.5,618.1,585.5,618.1,596.5,618.1z M617,617.6c29.8,0,58.9,0,88.2,0c0.2-2.1,0.3-3.9,0.3-5.9
		c0-3.6,0.2-7.4-0.2-11c-0.7-6.2-4.4-10.5-10.6-10.5c-22.3-0.3-44.5-0.3-66.8,0c-6.5,0-10.5,4.4-10.8,11
		C616.8,606.6,617,611.9,617,617.6z"/>
	<path class="st0" d="M402.7,748.2c-2.3,0.2-3.8,0.3-5.4,0.3c-25.2,0-50.3,0-75.5,0c-10,0-13.9-4.1-12.3-13.6
		c6.9-42.2,12.9-84.5,21-126.4c9.3-48.8,55-85.1,104.8-85.6c5.6,0,9.2,2.3,12.3,6.5c14.1,19.8,28.5,39.5,42.7,59.3
		c1.1,1.6,2.5,3.3,4.1,5.4c6.2-8.7,12.1-16.9,18.2-25c9.5-13.3,18.8-26.7,28.8-39.6c2.3-2.9,6.9-6.1,10.3-6.1
		c25.5-0.2,48.5,8.2,68.4,24.4c0.5,0.3,0.7,1,1.3,1.8c-1.8,0.5-3.3,0.8-4.7,1.1c-20.3,4.7-36.2,21.1-39.5,41.4
		c-0.7,4.6-2.5,5.7-6.7,5.6c-10.8-0.5-21.3,0.7-30.9,6.1c-17.8,10.2-27.3,25.5-27.5,46c-0.3,30.5,0,60.9,0,91.5c0,2.1,0,4.4,0,6.9
		c-29.8,0-58.8,0-88.7,0c0-2.8,0-5.4,0-8c0-18.2,0-36.3,0-54.7c0-8.3-4.1-13.3-10.6-12.9c-6.2,0.2-10,4.9-10,12.9
		c0,18.7,0,37.2,0,55.8C402.7,743.7,402.7,745.8,402.7,748.2z"/>
	<path class="st0" d="M494,285.9c57.1,0,100,51.7,89.9,108.5c-5.7,32.1-18.2,61.6-40.1,86.1c-13.6,15.4-29.6,26.4-51.4,25.9
		c-13.9-0.3-25.9-5.9-36.3-14.6c-21.6-17.7-34.5-41.1-43.7-66.8c-6.9-19.2-11.6-38.8-8.8-59.4C409.5,319.9,448.2,285.9,494,285.9z"
		/>
</g>
</svg>
