<?xml version="1.0" encoding="utf-8"?>
<!-- Generator: Adobe Illustrator 24.3.0, SVG Export Plug-In . SVG Version: 6.00 Build 0)  -->
<svg version="1.1" id="Layer_1" xmlns="http://www.w3.org/2000/svg" xmlns:xlink="http://www.w3.org/1999/xlink" x="0px" y="0px"
	 viewBox="0 0 1080 1080" style="enable-background:new 0 0 1080 1080;" xml:space="preserve">
<style type="text/css">
	.st0{fill:#FFFFFF;}
</style>
<g>
	<path class="st0" d="M578.2,588c0-3.9-0.1-7.4,0-10.9c0.3-10,8.1-18.2,18.1-18.4c14.2-0.2,28.5-0.2,42.7,0
		c9.8,0.2,17.6,8.3,18,18.1c0.1,3.6,0,7.2,0,11.2c6.4,0,12.3,0,18.3,0c13,0,20.9,7.7,20.9,20.6c0.1,22.4,0.1,44.7,0,67.1
		c0,12.8-7.8,20.6-20.5,20.7c-38.7,0.1-77.5,0.1-116.2,0c-12.5,0-20.4-7.9-20.4-20.4c-0.1-22.6-0.1-45.2,0-67.9
		c0-12.2,8-20.1,20.2-20.2C565.4,588,571.5,588,578.2,588z M590.7,587.7c18.2,0,36,0,53.9,0c0.1-1.3,0.2-2.4,0.2-3.6
		c0-2.2,0.1-4.5-0.1-6.7c-0.4-3.8-2.7-6.4-6.5-6.4c-13.6-0.2-27.2-0.2-40.8,0c-4,0-6.4,2.7-6.6,6.7
		C590.6,581,590.7,584.2,590.7,587.7z"/>
	<path class="st0" d="M459.8,667.5c-1.4,0.1-2.3,0.2-3.3,0.2c-15.4,0-30.7,0-46.1,0c-6.1,0-8.5-2.5-7.5-8.3
		c4.2-25.8,7.9-51.6,12.8-77.2c5.7-29.8,33.6-52,64-52.3c3.4,0,5.6,1.4,7.5,4c8.6,12.1,17.4,24.1,26.1,36.2c0.7,1,1.5,2,2.5,3.3
		c3.8-5.3,7.4-10.3,11.1-15.3c5.8-8.1,11.5-16.3,17.6-24.2c1.4-1.8,4.2-3.7,6.3-3.7c15.6-0.1,29.6,5,41.8,14.9
		c0.3,0.2,0.4,0.6,0.8,1.1c-1.1,0.3-2,0.5-2.9,0.7c-12.4,2.9-22.1,12.9-24.1,25.3c-0.4,2.8-1.5,3.5-4.1,3.4
		c-6.6-0.3-13,0.4-18.9,3.7c-10.9,6.2-16.7,15.6-16.8,28.1c-0.2,18.6,0,37.2,0,55.9c0,1.3,0,2.7,0,4.2c-18.2,0-35.9,0-54.2,0
		c0-1.7,0-3.3,0-4.9c0-11.1,0-22.2,0-33.4c0-5.1-2.5-8.1-6.5-7.9c-3.8,0.1-6.1,3-6.1,7.9c0,11.4,0,22.7,0,34.1
		C459.8,664.7,459.8,666,459.8,667.5z"/>
	<path class="st0" d="M515.6,385.1c34.9,0,61.1,31.6,54.9,66.3c-3.5,19.6-11.1,37.6-24.5,52.6c-8.3,9.4-18.1,16.1-31.4,15.8
		c-8.5-0.2-15.8-3.6-22.2-8.9c-13.2-10.8-21.1-25.1-26.7-40.8c-4.2-11.7-7.1-23.7-5.4-36.3C464,405.9,487.6,385.1,515.6,385.1z"/>
</g>
</svg>
