<?xml version="1.0" encoding="utf-8"?>
<!-- Generator: Adobe Illustrator 24.3.0, SVG Export Plug-In . SVG Version: 6.00 Build 0)  -->
<svg version="1.1" id="Layer_1" xmlns="http://www.w3.org/2000/svg" xmlns:xlink="http://www.w3.org/1999/xlink" x="0px" y="0px"
	 viewBox="0 0 1080 1080" style="enable-background:new 0 0 1080 1080;" xml:space="preserve">
<style type="text/css">
	.st0{fill:#FFFFFF;}
</style>
<g>
	<path class="st0" d="M395.7,745.4c-9.6-4-13.2-11.9-8.5-19.4c1.2-2,3.1-3.7,5-5c39.9-27.7,79.8-55.3,119.7-83
		c5.5-3.8,10.9-4.1,16.8-0.9c52.4,27.8,104.7,55.5,157.1,83.2c9.4,5,11.4,15.1,4.2,21.5c-1.7,1.5-4.1,2.3-6.1,3.5
		C587.8,745.4,491.8,745.4,395.7,745.4z"/>
	<path class="st0" d="M519,429.9c0,6.1-3.1,16.5-7.3,26.6c-7.8,18.6-18.1,35.9-30,52c-13.3,17.9-27.5,35.2-41.5,52.6
		c-5.9,7.3-14.5,7.4-20.6,0.4c-22.8-26.1-44.1-53.2-61.3-83.4c-6.4-11.3-12-23.1-15.5-35.7c-4.9-18-2.4-35.5,5.1-52.1
		c12.4-27.6,33.8-44.8,63.3-51.7c35.1-8.1,74.6,8.6,93.7,39.2C513.9,392.3,518.8,407.9,519,429.9z M391.5,426.2
		c0.2,21.1,17.7,38.4,38.5,38.1c21-0.3,37.9-17.4,38-38.3c0-20.9-17.4-38.4-38.3-38.3C408.6,387.8,391.3,405.3,391.5,426.2z"/>
	<path class="st0" d="M379.6,554.2c6.8,8,13.1,15.5,19.6,22.9c17.5,20.2,43.6,20,61.2-0.2c23-26.5,44.5-54,61.8-84.6
		c1.2-2.2,2.7-2.4,4.8-2.4c37,0,74,0,111,0c7.7,0,12.5,3,14.4,9c1.9,5.8-0.4,11.2-6.8,15.6c-61.2,42.4-122.5,84.8-183.7,127.2
		c-30.5,21.1-61,42.2-91.5,63.4c-6.4,4.4-11.8,4.8-16.6,1.2c-4.9-3.7-6.1-8.7-4.8-14.6c9-40.5,18-80.9,26.9-121.4
		C377.1,565.1,378.3,559.9,379.6,554.2z"/>
	<path class="st0" d="M741.6,699c0.1,9.5-8.5,15.8-16.8,12.9c-1.2-0.4-2.5-1-3.6-1.6c-52.4-27.7-104.7-55.4-157.1-83.2
		c-7.4-3.9-10.5-10.2-7.7-16.6c1.2-2.6,3.3-5.2,5.7-6.9c40.1-28,80.4-55.8,120.7-83.6c9.2-6.3,18.7-2.4,21.2,8.5
		c12.4,55.6,24.8,111.2,37.1,166.9C741.4,696.7,741.5,698.2,741.6,699z"/>
</g>
</svg>
