<?xml version="1.0" encoding="utf-8"?>
<!-- Generator: Adobe Illustrator 24.3.0, SVG Export Plug-In . SVG Version: 6.00 Build 0)  -->
<svg version="1.1" id="Layer_1" xmlns="http://www.w3.org/2000/svg" xmlns:xlink="http://www.w3.org/1999/xlink" x="0px" y="0px"
	 viewBox="0 0 1080 1080" style="enable-background:new 0 0 1080 1080;" xml:space="preserve">
<style type="text/css">
	.st0{fill:#FFFFFF;}
</style>
<g>
	<path class="st0" d="M347.4,813.4c-12.8-5.3-17.6-15.9-11.3-25.9c1.6-2.7,4.1-4.9,6.7-6.7c53.2-36.9,106.3-73.7,159.5-110.6
		c7.3-5.1,14.5-5.5,22.4-1.2c69.8,37,139.5,74,209.4,110.9c12.5,6.7,15.2,20.1,5.6,28.7c-2.3,2-5.5,3.1-8.1,4.7
		C603.4,813.4,475.5,813.4,347.4,813.4z"/>
	<path class="st0" d="M511.7,392.9c0,8.1-4.1,22-9.7,35.4c-10.4,24.8-24.1,47.8-40,69.3c-17.7,23.9-36.6,46.9-55.3,70.1
		c-7.9,9.7-19.3,9.9-27.5,0.5c-30.4-34.8-58.8-70.9-81.7-111.1c-8.5-15.1-16-30.8-20.7-47.6c-6.5-24-3.2-47.3,6.8-69.4
		c16.5-36.8,45-59.7,84.4-68.9c46.8-10.8,99.4,11.5,124.9,52.2C504.9,342.8,511.4,363.6,511.7,392.9z M341.8,388
		c0.3,28.1,23.6,51.2,51.3,50.8c28-0.4,50.5-23.2,50.6-51c0-27.9-23.2-51.2-51-51C364.6,336.8,341.5,360.2,341.8,388z"/>
	<path class="st0" d="M325.9,558.6c9.1,10.7,17.5,20.7,26.1,30.5c23.3,26.9,58.1,26.7,81.6-0.3c30.7-35.3,59.3-72,82.4-112.7
		c1.6-2.9,3.6-3.2,6.4-3.2c49.3,0,98.6,0,147.9,0c10.3,0,16.7,4,19.2,12c2.5,7.7-0.5,14.9-9.1,20.8
		c-81.6,56.5-163.3,113-244.8,169.5c-40.6,28.1-81.3,56.2-121.9,84.5c-8.5,5.9-15.7,6.4-22.1,1.6c-6.5-4.9-8.1-11.6-6.4-19.5
		c12-54,24-107.8,35.8-161.8C322.6,573.1,324.2,566.2,325.9,558.6z"/>
	<path class="st0" d="M808.4,751.6c0.1,12.7-11.3,21.1-22.4,17.2c-1.6-0.5-3.3-1.3-4.8-2.1c-69.8-36.9-139.5-73.8-209.4-110.9
		c-9.9-5.2-14-13.6-10.3-22.1c1.6-3.5,4.4-6.9,7.6-9.2C622.6,587.1,676.3,550.1,730,513c12.3-8.4,24.9-3.2,28.3,11.3
		c16.5,74.1,33.1,148.2,49.4,222.4C808.1,748.5,808.2,750.5,808.4,751.6z"/>
</g>
</svg>
