<svg width="377" height="439" viewBox="0 0 377 439" fill="none" xmlns="http://www.w3.org/2000/svg">
<g clip-path="url(#clip0_293_1705)">
<path opacity="0.6" d="M362.59 439H14.2154C6.42614 439 0 432.57 0 424.776V14.2241C0 6.43009 6.42614 0 14.2154 0H362.59C370.379 0 376.805 6.43009 376.805 14.2241V424.776C377 432.57 370.574 439 362.59 439Z" fill="#FBC108"/>
<path d="M315.855 201.281H61.1465V244.928H315.855V201.281Z" fill="white"/>
<g opacity="0.4">
<path d="M83.9309 227.391V228.561H75.168V216.09H83.7362V217.259H76.5311V221.741H82.9572V222.91H76.5311V227.586H83.9309V227.391Z" fill="#263238"/>
<path d="M85.6836 223.105H90.3572V224.274H85.6836V223.105Z" fill="#263238"/>
<path d="M108.662 223.105V228.561H107.299V223.3C107.299 221.351 106.325 220.377 104.573 220.377C102.625 220.377 101.457 221.546 101.457 223.689V228.561H100.094V223.3C100.094 221.351 99.1201 220.377 97.3675 220.377C95.4202 220.377 94.2518 221.546 94.2518 223.689V228.561H92.8887V219.208H94.0571V220.961C94.6413 219.792 96.0044 219.208 97.5622 219.208C99.1201 219.208 100.288 219.792 100.873 221.156C101.457 219.987 102.82 219.208 104.573 219.208C107.104 219.013 108.662 220.377 108.662 223.105Z" fill="#263238"/>
<path d="M119.177 222.715V228.561H118.009V227.002C117.425 227.976 116.256 228.561 114.699 228.561C112.556 228.561 111.193 227.391 111.193 225.833C111.193 224.469 112.167 223.105 114.893 223.105H117.814V222.52C117.814 220.961 116.841 219.987 115.088 219.987C113.92 219.987 112.751 220.377 111.972 221.156L111.388 220.182C112.362 219.403 113.725 218.818 115.283 218.818C117.814 219.013 119.177 220.377 119.177 222.715ZM118.009 225.638V224.079H114.893C113.141 224.079 112.556 224.858 112.556 225.833C112.556 227.002 113.335 227.586 114.893 227.586C116.451 227.586 117.425 227.002 118.009 225.638Z" fill="#263238"/>
<path d="M122.293 216.09C122.293 215.7 122.682 215.116 123.267 215.116C123.851 215.116 124.24 215.506 124.24 215.895C124.24 216.48 123.851 216.87 123.267 216.87C122.682 217.064 122.293 216.675 122.293 216.09ZM122.682 219.208H124.046V228.561H122.682V219.208Z" fill="#263238"/>
<path d="M127.355 215.311H128.719V228.561H127.355V215.311Z" fill="#263238"/>
</g>
<path d="M315.855 260.906H61.1465V304.553H315.855V260.906Z" fill="white"/>
<g opacity="0.4">
<path d="M84.7092 280.001C84.7092 282.729 82.7619 284.288 79.6462 284.288H76.3358V288.185H74.9727V275.715H79.6462C82.9566 275.715 84.7092 277.273 84.7092 280.001ZM83.5408 280.001C83.5408 278.053 82.1777 276.884 79.6462 276.884H76.3358V283.119H79.6462C82.1777 283.119 83.5408 281.95 83.5408 280.001Z" fill="#263238"/>
<path d="M94.4449 282.34V288.185H93.2765V286.626C92.6923 287.601 91.524 288.185 89.9661 288.185C87.8241 288.185 86.4609 287.016 86.4609 285.457C86.4609 284.093 87.4346 282.729 90.1608 282.729H93.0818V282.145C93.0818 280.586 92.1081 279.612 90.3556 279.612C89.1872 279.612 88.0188 280.001 87.2399 280.781L86.6557 279.806C87.6293 279.027 88.9924 278.443 90.5503 278.443C93.0818 278.832 94.4449 280.001 94.4449 282.34ZM93.0818 285.457V283.898H90.1608C88.4082 283.898 87.8241 284.678 87.8241 285.652C87.8241 286.821 88.603 287.406 90.1608 287.406C91.5239 287.406 92.6923 286.626 93.0818 285.457Z" fill="#263238"/>
<path d="M96.5879 287.211L97.1721 286.237C97.951 286.821 99.1194 287.211 100.483 287.211C102.235 287.211 103.014 286.626 103.014 285.652C103.014 283.119 96.9774 285.067 96.9774 281.365C96.9774 279.806 98.3405 278.637 100.677 278.637C101.846 278.637 103.209 279.027 103.988 279.417L103.403 280.391C102.625 279.806 101.651 279.612 100.677 279.612C98.9247 279.612 98.1457 280.196 98.1457 281.17C98.1457 283.703 104.182 281.755 104.182 285.457C104.182 287.016 102.819 288.185 100.288 288.185C98.7299 288.38 97.3668 287.795 96.5879 287.211Z" fill="#263238"/>
<path d="M105.352 287.211L105.936 286.237C106.715 286.821 107.883 287.211 109.246 287.211C110.999 287.211 111.778 286.626 111.778 285.652C111.778 283.119 105.741 285.067 105.741 281.365C105.741 279.806 107.104 278.637 109.441 278.637C110.609 278.637 111.972 279.027 112.751 279.417L112.167 280.391C111.388 279.806 110.415 279.612 109.441 279.612C107.688 279.612 106.909 280.196 106.909 281.17C106.909 283.703 112.946 281.755 112.946 285.457C112.946 287.016 111.583 288.185 109.051 288.185C107.494 288.38 105.936 287.795 105.352 287.211Z" fill="#263238"/>
<path d="M128.914 278.832L125.408 288.185H124.24L121.319 280.391L118.398 288.185H117.23L113.725 278.832H114.893L117.814 286.821L120.735 278.832H121.903L124.824 286.821L127.745 278.832H128.914Z" fill="#263238"/>
<path d="M129.691 283.509C129.691 280.781 131.639 278.832 134.56 278.832C137.286 278.832 139.233 280.781 139.233 283.509C139.233 286.237 137.286 288.38 134.56 288.38C131.639 288.38 129.691 286.237 129.691 283.509ZM137.87 283.509C137.87 281.365 136.312 279.806 134.365 279.806C132.418 279.806 130.86 281.365 130.86 283.509C130.86 285.652 132.418 287.211 134.365 287.211C136.312 287.211 137.87 285.652 137.87 283.509Z" fill="#263238"/>
<path d="M146.439 278.832V280.001C146.244 280.001 146.244 280.001 146.049 280.001C144.102 280.001 142.933 281.17 142.933 283.509V288.38H141.57V279.027H142.739V280.781C143.518 279.417 144.686 278.832 146.439 278.832Z" fill="#263238"/>
<path d="M157.345 274.935V288.185H156.176V286.237C155.397 287.6 154.034 288.185 152.476 288.185C149.75 288.185 147.803 286.237 147.803 283.314C147.803 280.391 149.75 278.637 152.476 278.637C154.034 278.637 155.203 279.222 155.981 280.586V274.935H157.345ZM155.981 283.509C155.981 281.365 154.424 279.806 152.476 279.806C150.529 279.806 148.971 281.365 148.971 283.509C148.971 285.652 150.529 287.211 152.476 287.211C154.424 287.211 155.981 285.652 155.981 283.509Z" fill="#263238"/>
</g>
<path opacity="0.2" d="M315.855 349.174H61.1465V392.82H315.855V349.174Z" fill="black"/>
<g opacity="0.5">
<path d="M123.07 329.104H118.786L117.812 331.052H117.033L120.538 323.648H121.317L124.822 331.052H124.044L123.07 329.104ZM122.68 328.519L120.928 324.427L119.175 328.519H122.68Z" fill="black"/>
<path d="M125.797 323.063H126.576V331.052H125.797V323.063Z" fill="black"/>
<path d="M131.442 325.402V326.181H131.248C130.079 326.181 129.3 326.96 129.3 328.324V331.247H128.521V325.402H129.3V326.571C129.69 325.791 130.469 325.402 131.442 325.402Z" fill="black"/>
<path d="M137.675 328.519H133.002C133.002 329.688 133.975 330.468 135.144 330.468C135.923 330.468 136.507 330.273 136.896 329.688L137.286 330.273C136.701 330.858 135.923 331.247 135.144 331.247C133.391 331.247 132.223 330.078 132.223 328.324C132.223 326.571 133.391 325.402 134.949 325.402C136.507 325.402 137.675 326.571 137.675 328.324C137.675 328.324 137.675 328.324 137.675 328.519ZM133.002 327.935H136.896C136.896 326.766 135.923 325.986 134.949 325.986C133.975 325.986 133.196 326.766 133.002 327.935Z" fill="black"/>
<path d="M143.321 327.545V331.052H142.542V330.273C142.153 330.858 141.569 331.247 140.595 331.247C139.232 331.247 138.453 330.663 138.453 329.688C138.453 328.909 139.037 328.13 140.595 328.13H142.348V327.74C142.348 326.766 141.764 326.181 140.79 326.181C140.011 326.181 139.427 326.376 138.843 326.766L138.453 326.181C139.037 325.791 139.816 325.402 140.79 325.402C142.542 325.402 143.321 326.181 143.321 327.545ZM142.542 329.299V328.324H140.79C139.622 328.324 139.427 328.714 139.427 329.299C139.427 329.883 140.011 330.273 140.79 330.273C141.764 330.468 142.348 330.078 142.542 329.299Z" fill="black"/>
<path d="M150.527 323.063V331.052H149.943V329.883C149.553 330.663 148.774 331.052 147.8 331.052C146.243 331.052 145.074 329.883 145.074 328.13C145.074 326.376 146.243 325.207 147.8 325.207C148.774 325.207 149.553 325.597 149.943 326.376V323.063H150.527ZM149.748 328.324C149.748 326.96 148.774 326.181 147.606 326.181C146.437 326.181 145.464 326.96 145.464 328.324C145.464 329.688 146.437 330.468 147.606 330.468C148.969 330.468 149.748 329.494 149.748 328.324Z" fill="black"/>
<path d="M157.343 325.402L154.617 331.637C154.228 332.806 153.643 333.001 152.67 333.001C152.086 333.001 151.696 332.806 151.307 332.416L151.696 331.832C151.891 332.027 152.28 332.221 152.67 332.221C153.254 332.221 153.449 332.027 153.838 331.247L154.033 330.663L151.501 325.012H152.28L154.422 329.688L156.564 325.012H157.343V325.402Z" fill="black"/>
<path d="M165.521 327.545V331.052H164.742V330.273C164.352 330.858 163.768 331.247 162.794 331.247C161.431 331.247 160.652 330.663 160.652 329.688C160.652 328.909 161.237 328.13 162.794 328.13H164.547V327.74C164.547 326.766 163.963 326.181 162.989 326.181C162.21 326.181 161.626 326.376 161.042 326.766L160.652 326.181C161.237 325.791 162.015 325.402 162.989 325.402C164.742 325.402 165.521 326.181 165.521 327.545ZM164.742 329.299V328.324H162.989C161.821 328.324 161.626 328.714 161.626 329.299C161.626 329.883 162.21 330.273 162.989 330.273C163.768 330.468 164.547 330.078 164.742 329.299Z" fill="black"/>
<path d="M179.542 327.74V331.052H178.763V327.935C178.763 326.766 178.179 326.181 177.206 326.181C176.037 326.181 175.258 326.96 175.258 328.13V331.052H174.479V327.935C174.479 326.766 173.895 326.181 172.922 326.181C171.753 326.181 170.974 326.96 170.974 328.13V331.052H170.195V325.402H170.974V326.376C171.364 325.791 172.143 325.402 173.116 325.402C174.09 325.402 174.674 325.791 175.064 326.571C175.453 325.791 176.232 325.402 177.206 325.402C178.763 325.402 179.542 326.181 179.542 327.74Z" fill="black"/>
<path d="M186.552 328.519H181.879C181.879 329.688 182.852 330.468 184.021 330.468C184.8 330.468 185.384 330.273 185.773 329.688L186.163 330.273C185.578 330.858 184.8 331.247 184.021 331.247C182.268 331.247 181.1 330.078 181.1 328.324C181.1 326.571 182.268 325.402 183.826 325.402C185.384 325.402 186.552 326.571 186.552 328.324C186.552 328.324 186.552 328.324 186.552 328.519ZM181.879 327.935H185.773C185.773 326.766 184.8 325.986 183.826 325.986C182.852 325.986 182.073 326.766 181.879 327.935Z" fill="black"/>
<path d="M197.456 327.74V331.052H196.678V327.935C196.678 326.766 196.093 326.181 195.12 326.181C193.951 326.181 193.172 326.96 193.172 328.13V331.052H192.393V327.935C192.393 326.766 191.809 326.181 190.836 326.181C189.667 326.181 188.888 326.96 188.888 328.13V331.052H188.109V325.402H188.888V326.376C189.278 325.791 190.057 325.402 191.03 325.402C192.004 325.402 192.588 325.791 192.978 326.571C193.367 325.791 194.146 325.402 195.12 325.402C196.483 325.402 197.456 326.181 197.456 327.74Z" fill="black"/>
<path d="M205.247 328.324C205.247 330.078 204.078 331.247 202.521 331.247C201.547 331.247 200.768 330.858 200.379 330.078V331.247H199.6V323.258H200.379V326.571C200.768 325.791 201.547 325.402 202.521 325.402C203.884 325.402 205.247 326.571 205.247 328.324ZM204.468 328.324C204.468 326.96 203.494 326.181 202.326 326.181C201.157 326.181 200.184 326.96 200.184 328.324C200.184 329.688 201.157 330.468 202.326 330.468C203.494 330.468 204.468 329.494 204.468 328.324Z" fill="black"/>
<path d="M211.673 328.519H207C207 329.688 207.973 330.468 209.142 330.468C209.921 330.468 210.505 330.273 210.894 329.688L211.284 330.273C210.7 330.858 209.921 331.247 209.142 331.247C207.389 331.247 206.221 330.078 206.221 328.324C206.221 326.571 207.389 325.402 208.947 325.402C210.505 325.402 211.673 326.571 211.673 328.324C211.673 328.324 211.673 328.324 211.673 328.519ZM207 327.935H210.894C210.894 326.766 209.921 325.986 208.947 325.986C207.779 325.986 207 326.766 207 327.935Z" fill="black"/>
<path d="M215.956 325.402V326.181H215.761C214.593 326.181 213.814 326.96 213.814 328.324V331.247H213.035V325.402H213.814V326.571C214.204 325.791 214.982 325.402 215.956 325.402Z" fill="black"/>
<path d="M220.825 325.597C220.825 324.817 220.241 324.233 219.073 324.233C218.099 324.233 217.515 324.622 217.125 325.012L216.541 324.622C217.125 323.843 218.099 323.453 219.267 323.453C220.825 323.453 221.799 324.233 221.799 325.402C221.799 327.155 219.851 327.35 219.851 328.909H219.073C218.878 327.155 220.825 326.961 220.825 325.597ZM218.878 330.468C218.878 330.078 219.073 329.883 219.462 329.883C219.851 329.883 220.046 330.078 220.046 330.468C220.046 330.858 219.851 331.052 219.462 331.052C219.073 331.052 218.878 330.858 218.878 330.468Z" fill="black"/>
<path d="M226.277 323.648H228.03V329.688H231.73V331.052H226.277V323.648Z" fill="black"/>
<path d="M232.119 328.13C232.119 326.376 233.482 325.207 235.235 325.207C236.987 325.207 238.351 326.376 238.351 328.13C238.351 329.883 236.987 331.052 235.235 331.052C233.288 331.247 232.119 329.883 232.119 328.13ZM236.598 328.13C236.598 327.155 236.014 326.571 235.04 326.571C234.261 326.571 233.482 327.155 233.482 328.13C233.482 329.104 234.066 329.688 235.04 329.688C236.014 329.883 236.598 329.104 236.598 328.13Z" fill="black"/>
<path d="M245.362 325.402V330.273C245.362 332.416 244.193 333.391 242.051 333.391C240.883 333.391 239.909 333.196 239.325 332.611L239.909 331.442C240.493 331.832 241.272 332.027 241.857 332.027C243.025 332.027 243.609 331.442 243.609 330.468V330.273C243.22 330.663 242.635 331.052 241.857 331.052C240.299 331.052 238.936 329.883 238.936 328.324C238.936 326.571 240.299 325.597 241.857 325.597C242.635 325.597 243.414 325.791 243.804 326.376V325.402H245.362ZM243.804 327.935C243.804 327.155 243.22 326.571 242.246 326.571C241.467 326.571 240.688 327.155 240.688 327.935C240.688 328.714 241.272 329.299 242.246 329.299C243.025 329.494 243.804 328.909 243.804 327.935Z" fill="black"/>
<path d="M249.84 323.648C249.84 323.063 250.229 322.674 250.814 322.674C251.398 322.674 251.787 323.063 251.787 323.648C251.787 324.233 251.398 324.622 250.814 324.622C250.229 324.427 249.84 324.038 249.84 323.648ZM250.035 325.402H251.787V331.052H250.035V325.402Z" fill="black"/>
<path d="M258.992 327.74V331.052H257.24V327.935C257.24 326.961 256.85 326.571 256.071 326.571C255.292 326.571 254.708 327.155 254.708 328.13V331.052H253.15V325.402H254.708V325.986C255.098 325.402 255.877 325.207 256.656 325.207C258.019 325.207 258.992 325.986 258.992 327.74Z" fill="black"/>
</g>
<path d="M315.855 346.446H61.1465V390.092H315.855V346.446Z" fill="#3B4045"/>
<path d="M155.591 375.089L152.28 370.412C151.891 370.412 151.696 370.412 151.307 370.412H147.607V374.894H145.465V359.89H151.307C155.201 359.89 157.538 361.839 157.538 365.151C157.538 367.49 156.37 369.048 154.228 369.828L157.733 374.894H155.591V375.089ZM155.396 365.346C155.396 363.203 154.033 362.034 151.307 362.034H147.607V368.854H151.307C154.033 368.659 155.396 367.49 155.396 365.346Z" fill="white"/>
<path d="M170.975 370.023H161.822C162.017 371.971 163.77 373.335 165.912 373.335C167.275 373.335 168.248 372.945 169.222 371.971L170.39 373.335C169.417 374.504 167.859 375.089 165.912 375.089C162.212 375.089 159.875 372.751 159.875 369.243C159.875 365.931 162.212 363.398 165.522 363.398C168.833 363.398 171.169 365.736 171.169 369.243C170.975 369.633 170.975 369.828 170.975 370.023ZM161.822 368.659H169.027C168.833 366.71 167.47 365.346 165.327 365.346C163.38 365.346 162.017 366.71 161.822 368.659Z" fill="white"/>
<path d="M184.605 363.787V373.53C184.605 377.427 182.658 379.376 178.763 379.376C176.621 379.376 174.674 378.791 173.311 377.622L174.284 376.063C175.258 377.037 177.011 377.622 178.569 377.622C181.295 377.622 182.463 376.453 182.463 373.725V372.751C181.489 373.92 179.932 374.504 178.374 374.504C175.063 374.504 172.727 372.361 172.727 369.048C172.727 365.736 175.258 363.593 178.374 363.593C180.126 363.593 181.684 364.177 182.463 365.541V363.787H184.605ZM182.658 369.048C182.658 366.905 181.1 365.346 178.763 365.346C176.426 365.346 174.869 366.905 174.869 369.048C174.869 371.192 176.426 372.751 178.763 372.751C181.1 372.751 182.658 371.387 182.658 369.048Z" fill="white"/>
<path d="M188.307 360.28C188.307 359.501 188.891 358.916 189.67 358.916C190.449 358.916 191.033 359.501 191.033 360.28C191.033 361.059 190.449 361.644 189.67 361.644C188.891 361.644 188.307 361.059 188.307 360.28ZM188.501 363.787H190.643V375.089H188.501V363.787Z" fill="white"/>
<path d="M193.174 373.92L193.953 372.361C194.926 373.14 196.484 373.53 197.847 373.53C199.795 373.53 200.574 372.945 200.574 371.971C200.574 369.438 193.369 371.581 193.369 367.1C193.369 365.151 195.121 363.787 198.042 363.787C199.6 363.787 201.158 364.177 202.131 364.762L201.353 366.32C200.379 365.736 199.211 365.346 198.042 365.346C196.29 365.346 195.316 365.931 195.316 366.905C195.316 369.633 202.521 367.49 202.521 371.776C202.521 373.92 200.574 375.089 197.653 375.089C195.9 375.284 194.147 374.699 193.174 373.92Z" fill="white"/>
<path d="M211.673 374.309C211.089 374.894 210.116 375.089 209.142 375.089C206.805 375.089 205.637 373.92 205.637 371.581V365.346H203.689V363.593H205.637V361.06H207.779V363.593H211.089V365.346H207.779V371.387C207.779 372.556 208.363 373.335 209.531 373.335C210.116 373.335 210.7 373.14 211.089 372.751L211.673 374.309Z" fill="white"/>
<path d="M223.941 370.023H214.789C214.984 371.971 216.736 373.335 218.878 373.335C220.242 373.335 221.215 372.945 222.189 371.971L223.357 373.335C222.384 374.504 220.826 375.089 218.878 375.089C215.179 375.089 212.842 372.751 212.842 369.243C212.842 365.931 215.179 363.398 218.489 363.398C221.799 363.398 224.136 365.736 224.136 369.243C223.941 369.633 223.941 369.828 223.941 370.023ZM214.789 368.659H221.994C221.799 366.71 220.436 365.346 218.294 365.346C216.347 365.346 214.984 366.71 214.789 368.659Z" fill="white"/>
<path d="M232.9 363.593V365.541C232.705 365.541 232.51 365.541 232.51 365.541C230.368 365.541 229.005 366.905 229.005 369.438V375.089H226.863V363.787H228.811V365.736C229.395 364.372 230.953 363.593 232.9 363.593Z" fill="white"/>
<g opacity="0.6">
<path d="M143.906 48.3231L144.685 46.5695C145.854 47.7386 147.996 48.518 150.138 48.518C153.059 48.518 154.227 47.3489 154.227 45.9849C154.227 41.893 144.296 44.4261 144.296 38.3857C144.296 35.8527 146.243 33.7093 150.527 33.7093C152.474 33.7093 154.422 34.2938 155.785 35.0733L155.006 37.0218C153.643 36.0475 151.89 35.6578 150.527 35.6578C147.801 35.6578 146.632 36.8269 146.632 38.1909C146.632 42.2827 156.564 39.7497 156.564 45.7901C156.564 48.3231 154.616 50.4665 150.332 50.4665C147.606 50.2717 145.075 49.4922 143.906 48.3231Z" fill="#263238"/>
<path d="M159.096 33.9041C159.096 33.1247 159.68 32.3453 160.654 32.3453C161.432 32.3453 162.211 32.9299 162.211 33.7093C162.211 34.4887 161.627 35.2681 160.654 35.2681C159.875 35.463 159.096 34.6836 159.096 33.9041ZM159.485 37.8012H161.822V50.2717H159.485V37.8012Z" fill="#263238"/>
<path d="M177.985 37.8011V48.518C177.985 52.8047 175.843 54.9481 171.559 54.9481C169.222 54.9481 167.08 54.3635 165.717 53.1944L166.885 51.4407C168.054 52.415 169.806 52.9996 171.559 52.9996C174.48 52.9996 175.843 51.6356 175.843 48.9077V47.9334C174.675 49.2974 173.117 49.8819 171.364 49.8819C167.859 49.8819 165.133 47.5437 165.133 43.8415C165.133 40.3342 167.859 37.8011 171.364 37.8011C173.117 37.8011 174.869 38.3857 176.038 39.7497V37.8011H177.985ZM175.648 43.6467C175.648 41.3085 173.896 39.5548 171.364 39.5548C168.833 39.5548 167.08 41.1136 167.08 43.6467C167.08 45.9849 168.833 47.7386 171.364 47.7386C173.896 47.7386 175.648 45.9849 175.648 43.6467Z" fill="#263238"/>
<path d="M193.953 43.0622V50.2717H191.616V43.4519C191.616 41.1136 190.448 39.7497 188.306 39.7497C185.969 39.7497 184.411 41.1136 184.411 43.8416V50.2717H182.074V37.8012H184.216V39.7497C185.19 38.5806 186.748 37.8012 188.695 37.8012C191.811 37.6063 193.953 39.36 193.953 43.0622Z" fill="#263238"/>
<path d="M215.957 37.8012V50.2717H213.815V48.3231C212.842 49.6871 211.284 50.2717 209.531 50.2717C206.415 50.2717 204.273 48.518 204.273 44.8158V37.6063H206.61V44.4261C206.61 46.7643 207.779 48.1283 209.921 48.1283C212.257 48.1283 213.815 46.7643 213.815 44.0364V37.6063H215.957V37.8012Z" fill="#263238"/>
<path d="M233.093 44.0364C233.093 47.9334 230.366 50.2717 226.861 50.2717C225.109 50.2717 223.551 49.6871 222.577 48.3231V54.7532H220.24V37.8012H222.382V39.7497C223.356 38.3857 224.914 37.6063 226.861 37.6063C230.366 37.6063 233.093 40.1394 233.093 44.0364ZM230.756 44.0364C230.756 41.5034 229.003 39.7497 226.666 39.7497C224.33 39.7497 222.577 41.5034 222.577 44.0364C222.577 46.7643 224.33 48.3231 226.666 48.3231C229.003 48.3231 230.756 46.5695 230.756 44.0364Z" fill="#263238"/>
</g>
<path d="M315.855 141.657H61.1465V185.304H315.855V141.657Z" fill="white"/>
<g opacity="0.4">
<path d="M74.9727 156.466H76.3358V167.767H83.3461V168.936H74.9727V156.466Z" fill="#263238"/>
<path d="M92.3043 163.091V168.936H91.1359V167.377C90.5517 168.352 89.3833 168.936 87.8255 168.936C85.6834 168.936 84.3203 167.767 84.3203 166.208C84.3203 164.844 85.294 163.48 88.0202 163.48H90.9412V162.896C90.9412 161.337 89.9675 160.363 88.2149 160.363C87.0466 160.363 85.8782 160.752 85.0992 161.532L84.515 160.557C85.4887 159.778 86.8518 159.193 88.4097 159.193C90.9412 159.388 92.3043 160.752 92.3043 163.091ZM91.1359 166.013V164.454H88.2149C86.4624 164.454 85.8782 165.234 85.8782 166.208C85.8782 167.377 86.6571 167.962 88.2149 167.962C89.5781 167.962 90.5517 167.377 91.1359 166.013Z" fill="#263238"/>
<path d="M94.4453 167.767L95.0295 166.793C95.8084 167.377 96.9768 167.767 98.3399 167.767C100.093 167.767 100.871 167.182 100.871 166.208C100.871 163.675 94.8348 165.624 94.8348 161.921C94.8348 160.363 96.1979 159.193 98.5347 159.193C99.7031 159.193 101.066 159.583 101.845 159.973L101.261 161.337C100.482 160.752 99.5083 160.557 98.5347 160.557C96.7821 160.557 96.0032 161.142 96.0032 162.116C96.0032 164.649 102.04 162.701 102.04 166.403C102.04 167.962 100.677 169.131 98.1452 169.131C96.7821 168.936 95.2242 168.546 94.4453 167.767Z" fill="#263238"/>
<path d="M109.44 168.351C108.856 168.741 108.271 168.936 107.492 168.936C105.74 168.936 104.766 167.962 104.766 166.208V160.557H103.014V159.583H104.766V157.44H106.129V159.583H109.05V160.557H106.129V166.208C106.129 167.377 106.714 167.962 107.687 167.962C108.271 167.962 108.661 167.767 109.05 167.572L109.44 168.351Z" fill="#263238"/>
<path d="M127.161 156.466V168.936H125.992L118.008 158.804V168.936H116.84V156.466H118.008L125.992 166.598V156.466H127.161Z" fill="#263238"/>
<path d="M138.066 163.091V168.936H136.898V167.377C136.313 168.352 135.145 168.936 133.587 168.936C131.445 168.936 130.082 167.767 130.082 166.208C130.082 164.844 131.056 163.48 133.782 163.48H136.703V162.896C136.703 161.337 135.729 160.363 133.977 160.363C132.808 160.363 131.64 160.752 130.861 161.532L130.471 160.752C131.445 159.973 132.808 159.388 134.366 159.388C136.703 159.388 138.066 160.752 138.066 163.091ZM136.898 166.013V164.454H133.977C132.224 164.454 131.64 165.234 131.64 166.208C131.64 167.377 132.419 167.962 133.977 167.962C135.34 167.962 136.313 167.377 136.898 166.013Z" fill="#263238"/>
<path d="M156.955 163.48V168.936H155.787V163.675C155.787 161.727 154.813 160.752 153.061 160.752C151.114 160.752 149.945 161.921 149.945 164.065V168.936H148.582V163.675C148.582 161.727 147.608 160.752 145.856 160.752C143.908 160.752 142.74 161.921 142.74 164.065V168.936H141.377V159.583H142.545V161.337C143.13 160.168 144.493 159.583 146.051 159.583C147.608 159.583 148.777 160.168 149.361 161.532C149.945 160.363 151.308 159.583 153.061 159.583C155.592 159.388 156.955 160.752 156.955 163.48Z" fill="#263238"/>
<path d="M168.639 164.649H160.85C161.045 166.598 162.408 167.962 164.55 167.962C165.718 167.962 166.692 167.572 167.471 166.793L168.25 167.572C167.471 168.546 166.108 169.131 164.55 169.131C161.629 169.131 159.682 167.182 159.682 164.26C159.682 161.532 161.629 159.583 164.355 159.583C167.081 159.583 168.834 161.532 168.834 164.26C168.639 164.26 168.639 164.454 168.639 164.649ZM160.85 163.675H167.471C167.276 161.921 165.913 160.557 164.16 160.557C162.408 160.557 161.045 161.727 160.85 163.675Z" fill="#263238"/>
</g>
<path d="M315.855 82.0324H61.1465V125.679H315.855V82.0324Z" fill="white"/>
<g opacity="0.4">
<path d="M76.3358 98.0102V102.882H82.7619V104.051H76.3358V109.312H74.9727V96.8411H83.5408V98.0102H76.3358Z" fill="#263238"/>
<path d="M85.4883 96.8411C85.4883 96.4514 85.8777 95.8669 86.4619 95.8669C87.0461 95.8669 87.4356 96.2566 87.4356 96.6463C87.4356 97.2308 87.0461 97.6205 86.4619 97.6205C86.0725 97.8154 85.4883 97.4257 85.4883 96.8411ZM85.8777 99.9588H87.2409V109.312H85.8777V99.9588Z" fill="#263238"/>
<path d="M95.4191 99.7639V100.933C95.2243 100.933 95.2243 100.933 95.0296 100.933C93.0823 100.933 91.9139 102.102 91.9139 104.44V109.312H90.5508V99.9588H91.7192V101.712C92.4981 100.543 93.6665 99.7639 95.4191 99.7639Z" fill="#263238"/>
<path d="M96.3926 108.142L96.9768 107.168C97.7557 107.753 98.9241 108.142 100.287 108.142C102.04 108.142 102.819 107.558 102.819 106.584C102.819 104.051 96.782 105.999 96.782 102.297C96.782 100.738 98.1452 99.569 100.482 99.569C101.65 99.569 103.013 99.9587 103.792 100.348L103.208 101.712C102.429 101.128 101.456 100.933 100.482 100.933C98.7294 100.933 97.9504 101.518 97.9504 102.492C97.9504 105.025 103.987 103.076 103.987 106.779C103.987 108.337 102.624 109.506 100.092 109.506C98.7294 109.312 97.1715 108.922 96.3926 108.142Z" fill="#263238"/>
<path d="M111.387 108.727C110.803 109.117 110.219 109.312 109.44 109.312C107.687 109.312 106.714 108.337 106.714 106.584V100.933H104.961V99.7639H106.714V97.6205H108.077V99.7639H110.998V100.933H108.077V106.584C108.077 107.753 108.661 108.337 109.634 108.337C110.219 108.337 110.608 108.143 110.998 107.948L111.387 108.727Z" fill="#263238"/>
<path d="M129.107 96.8411V109.312H127.939L119.955 99.1793V109.312H118.592V96.8411H119.76L127.744 106.973V96.8411H129.107Z" fill="#263238"/>
<path d="M140.013 103.466V109.312H138.845V107.753C138.261 108.727 137.092 109.312 135.534 109.312C133.392 109.312 132.029 108.143 132.029 106.584C132.029 105.22 133.003 103.856 135.729 103.856H138.65V103.271C138.65 101.712 137.677 100.738 135.924 100.738C134.756 100.738 133.587 101.128 132.808 101.907L132.419 101.128C133.392 100.348 134.756 99.7639 136.313 99.7639C138.65 99.7639 140.013 100.933 140.013 103.466ZM138.845 106.389V104.83H135.924C134.171 104.83 133.587 105.609 133.587 106.584C133.587 107.753 134.366 108.337 135.924 108.337C137.287 108.337 138.261 107.753 138.845 106.389Z" fill="#263238"/>
<path d="M158.903 103.856V109.312H157.734V104.051C157.734 102.102 156.761 101.128 155.008 101.128C153.061 101.128 151.892 102.297 151.892 104.44V109.312H150.529V104.051C150.529 102.102 149.556 101.128 147.803 101.128C145.856 101.128 144.687 102.297 144.687 104.44V109.312H143.324V99.9587H144.493V101.712C145.077 100.543 146.44 99.9587 147.998 99.9587C149.556 99.9587 150.724 100.543 151.308 101.907C151.892 100.738 153.256 99.9587 155.008 99.9587C157.54 99.7639 158.903 101.128 158.903 103.856Z" fill="#263238"/>
<path d="M170.587 105.025H162.797C162.992 106.973 164.355 108.337 166.497 108.337C167.666 108.337 168.639 107.948 169.418 107.168L170.197 107.948C169.418 108.922 168.055 109.506 166.497 109.506C163.576 109.506 161.629 107.558 161.629 104.635C161.629 101.907 163.576 99.9587 166.302 99.9587C169.029 99.9587 170.781 101.907 170.781 104.635C170.587 104.635 170.587 104.83 170.587 105.025ZM162.797 104.051H169.418C169.223 102.297 167.86 100.933 166.108 100.933C164.355 100.933 162.992 102.102 162.797 104.051Z" fill="#263238"/>
</g>
</g>
<defs>
<clipPath id="clip0_293_1705">
<rect width="377" height="439" fill="white"/>
</clipPath>
</defs>
</svg>
