<?xml version="1.0" encoding="utf-8"?>
<!-- Generator: Adobe Illustrator 24.3.0, SVG Export Plug-In . SVG Version: 6.00 Build 0)  -->
<svg version="1.1" id="Layer_1" xmlns="http://www.w3.org/2000/svg" xmlns:xlink="http://www.w3.org/1999/xlink" x="0px" y="0px"
	 viewBox="0 0 1080 1080" style="enable-background:new 0 0 1080 1080;" xml:space="preserve">
<style type="text/css">
	.st0{fill:#FFFFFF;}
</style>
<g>
	<path class="st0" d="M672.7,745.4c-87.8,0-175.7,0-263.5,0c-2.4-0.8-4.9-1.5-7.1-2.6c-9.9-5-14.5-13.3-14.5-24.2
		c0-101.3,0-202.5,0-303.8c0-2,0.1-4,0.5-6c2.2-10.6,8.4-18.5,19.1-20c10.2-1.5,20.8-0.3,31.5-0.3c0,11.9-0.1,24.2,0,36.4
		c0.2,22.4,16.3,39.2,38.6,39.4c42.4,0.3,84.9,0.3,127.3,0c20.4-0.1,35.9-14.1,37.9-34.3c1.2-12.5,0.5-25.2,0.6-37.9
		c0-1.4,0-2.8,0-4.3c9.4,0,18.2-0.3,26.9,0.1c13.4,0.6,23.3,10.7,24.1,24.1c0.2,3.8,0.1,7.7,0.1,11.6c0,97.8,0,195.6-0.1,293.4
		c0,4.8-1,9.8-2.8,14.3C688.1,739.4,680.9,743.2,672.7,745.4z M477,536c-5.6-5.7-10.7-11-16-16.2c-3.4-3.4-7.5-5.1-12.3-3.9
		c-10,2.4-13.3,14-5.9,21.6c7.9,8.1,15.9,16,23.9,24c6.9,6.9,13.8,6.9,20.8-0.1c11.9-11.8,23.7-23.7,35.5-35.5
		c4.8-4.8,9.7-9.4,14.3-14.4c6.8-7.4,3.3-18.7-6.4-21.1c-5.2-1.3-9.3,0.7-12.9,4.4C504.7,508.3,491.2,521.8,477,536z M477.3,638.5
		c-5.9-6-10.9-11.3-16.1-16.4c-5.7-5.6-13.3-5.8-18.5-0.7c-5.3,5.2-5.2,13,0.6,18.8c7.9,8,15.9,16,24,24c6.3,6.2,13.4,6.3,19.7,0.1
		c16.6-16.5,33.1-33.1,49.6-49.6c5.8-5.8,5.9-13.6,0.6-18.8c-5.2-5.1-12.8-4.9-18.5,0.7c-11.6,11.5-23.2,23.1-34.7,34.7
		C481.7,633.4,479.8,635.7,477.3,638.5z M604.9,541c8,0,16,0,23.9,0c8.5,0,14.3-5.2,14.3-12.7c0.1-7.5-5.7-12.8-14.2-12.8
		c-16.1,0-32.2,0-48.3,0c-8.4,0-14.2,5.3-14.2,12.9c0.1,7.4,5.8,12.6,14,12.6C588.7,541,596.8,541,604.9,541z M604.9,617.6
		c-8,0-16,0-23.9,0c-8.5,0-14.3,5.2-14.4,12.7c-0.1,7.5,5.7,12.8,14.2,12.9c16.1,0,32.2,0,48.3,0c8.4,0,14.2-5.3,14.2-12.9
		c-0.1-7.5-5.8-12.6-14.4-12.7C620.8,617.6,612.8,617.6,604.9,617.6z"/>
	<path class="st0" d="M504.8,362.1c3.5-8.8,9.1-15.6,17.2-20.4c18.7-11,44.3-3.3,53.2,16.5c1.5,3.2,3.2,4.1,6.5,4
		c7.4-0.3,14.9-0.1,22.3-0.1c8.2,0.1,13.5,5.3,13.5,13.5c0.1,16.5,0.1,33,0,49.5c0,8.3-5.3,13.6-13.4,13.6
		c-42.2,0.1-84.3,0.1-126.5,0c-8,0-13.3-5.4-13.3-13.3c-0.1-16.6-0.1-33.3,0-49.9c0-8.2,5.4-13.3,13.6-13.4
		C486.9,362.1,495.8,362.1,504.8,362.1z"/>
</g>
</svg>
