<svg width="934" height="506" viewBox="0 0 934 506" fill="none" xmlns="http://www.w3.org/2000/svg">
<path d="M647.637 238.62L599.476 230.395L538.275 248.49L512.192 238.826C508.598 239.751 505.312 240.676 502.334 241.499C502.334 241.499 407.964 256.612 419.362 340.198L472.041 341.534C473.479 346.058 473.581 344.927 474.711 347.703L493.606 410.212H648.15L649.588 359.218L696.516 389.444C702.267 393.145 709.968 389.444 710.584 382.556C712.535 360.863 715 322.617 715 321.692C717.464 252.191 647.637 238.62 647.637 238.62Z" fill="#FBC108"/>
<path d="M477.073 356.647C476.662 356.647 476.149 356.339 476.046 355.825L466.701 319.224C466.599 318.71 466.907 318.093 467.42 317.99C467.934 317.888 468.55 318.196 468.652 318.71L477.997 355.311C478.1 355.825 477.792 356.442 477.278 356.545C477.278 356.647 477.175 356.647 477.073 356.647Z" fill="#FBC108"/>
<path d="M657.392 363.33C657.187 363.33 656.981 363.227 656.776 363.125L627.921 340.917C624.429 338.553 622.068 334.749 621.657 330.431L618.679 301.335C618.576 300.821 618.987 300.307 619.603 300.204C620.116 300.204 620.63 300.513 620.733 301.129L623.711 330.225C624.121 333.926 626.072 337.216 629.153 339.17L658.008 361.377C658.419 361.685 658.522 362.405 658.214 362.816C658.008 363.125 657.7 363.33 657.392 363.33Z" fill="#FBC108"/>
<path d="M578.613 141.758L578.618 141.758L586.422 141.963L586.423 141.963C590.502 142.063 594.286 143.757 597.076 146.45L597.081 146.454C600.371 149.549 602.462 154.141 602.263 159.024L602.263 159.034V159.044V160.371C601.858 170.27 593.465 178.07 583.576 177.77L580.29 177.667L579.635 177.647L579.788 178.284L593.854 236.774C595.559 245.378 592.677 253.005 587.148 258.945C581.611 264.893 573.425 269.14 564.581 270.924L563.876 271.025L563.862 271.027L563.849 271.029C546.143 274.575 528.953 263.228 525.416 245.922L520.59 222.071L520.521 221.733L520.181 221.677C499.807 218.328 484.983 199.342 486.506 177.585L486.506 177.584L490.614 117.44L490.615 117.423V117.406V117.405V117.403V117.402V117.401V117.4V117.399V117.397V117.396V117.395V117.394V117.393V117.391V117.39V117.389V117.388V117.387V117.386V117.384V117.383V117.382V117.381V117.38V117.379V117.377V117.376V117.375V117.374V117.373V117.372V117.371V117.369V117.368V117.367V117.366V117.365V117.364V117.363V117.362V117.36V117.359V117.358V117.357V117.356V117.355V117.354V117.353V117.352V117.35V117.349V117.348V117.347V117.346V117.345V117.344V117.343V117.342V117.341V117.339V117.338V117.337V117.336V117.335V117.334V117.333V117.332V117.331V117.33V117.329V117.328V117.327V117.326V117.324V117.323V117.322V117.321V117.32V117.319V117.318V117.317V117.316V117.315V117.314V117.313V117.312V117.311V117.31V117.309V117.308V117.307V117.306V117.305V117.304V117.303V117.302V117.301V117.3V117.299V117.297V117.296V117.295V117.294V117.293V117.292V117.291V117.29V117.289V117.288V117.287V117.286V117.285V117.284V117.283V117.282V117.281V117.28V117.279V117.278V117.277V117.276V117.275V117.274V117.273V117.272V117.271V117.27V117.27V117.269V117.268V117.267V117.266V117.265V117.264V117.263V117.262V117.261V117.26V117.259V117.258V117.257V117.256V117.255V117.254V117.253V117.252V117.251V117.25V117.249V117.248V117.247V117.246V117.245V117.244V117.243V117.242V117.242V117.241V117.24V117.239V117.238V117.237V117.236V117.235V117.234V117.233V117.232V117.231V117.23V117.229V117.228V117.227V117.226V117.225V117.225V117.224V117.223V117.222V117.221V117.22V117.219V117.218V117.217V117.216V117.215V117.214V117.213V117.212V117.212V117.211V117.21V117.209V117.208V117.207V117.206V117.205V117.204V117.203V117.202V117.201V117.2V117.2V117.199V117.198V117.197V117.196V117.195V117.194V117.193V117.192V117.191V117.19V117.189V117.189V117.188V117.187V117.186V117.185V117.184V117.183V117.182V117.181V117.18V117.179V117.179V117.178V117.177V117.176V117.175V117.174V117.173V117.172V117.171V117.17V117.169V117.169V117.168V117.167V117.166V117.165V117.164V117.163V117.162V117.161V117.16V117.16V117.159V117.158V117.157V117.156V117.155V117.154V117.153V117.152V117.151V117.15V117.15V117.149V117.148V117.147V117.146V117.145V117.144V117.143V117.142V117.141V117.141V117.14V117.139V117.138V117.137V117.136V117.135V117.134V117.133V117.132V117.132V117.131V117.13V117.129V117.128V117.127V117.126V117.125V117.124V117.123V117.122V117.122V117.121V117.12V117.119V117.118V117.117V117.116V117.115V117.114V117.113V117.112V117.112V117.111V117.11V117.109V117.108V117.107V117.106V117.105V117.104V117.103V117.102V117.101V117.101V117.1V117.099V117.098V117.097V117.096V117.095V117.094V117.093V117.092V117.091V117.09V117.09V117.089V117.088V117.087V117.086V117.085V117.084V117.083V117.082V117.081V117.08V117.079V117.078V117.077V117.077V117.076V117.075V117.074V117.073V117.072V117.071V117.07V117.069V117.068V117.067V117.066V117.065V117.064V117.063V117.062V117.062V117.061V117.06V117.059V117.058V117.057V117.056V117.055V117.054V117.053V117.052V117.051V117.05V117.049V117.048V117.047V117.046V117.045V117.044V117.043V117.042V117.041V117.041V117.04V117.039V117.038V117.037V117.036V117.035V117.034V117.033V117.032V117.031V117.03V117.029V117.028V117.027V117.026V117.025V117.024V117.023V117.022V117.021V117.02V117.019V117.018V117.017V117.016V117.015V117.014V117.013V117.012V117.011V117.01V117.009V117.008V117.007V117.006V117.005V117.004V117.003V117.002V117.001V117V116.999V116.998V116.997V116.996V116.995V116.994V116.993V116.992V116.991C493.915 109.037 500.716 106.744 506.8 106.455C509.854 106.309 512.707 106.673 514.8 107.074C515.846 107.275 516.698 107.484 517.288 107.643C517.583 107.723 517.812 107.79 517.967 107.836C518.044 107.859 518.102 107.878 518.141 107.89L518.15 107.893C527.579 113.325 535.912 113.98 541.903 113.263C544.9 112.904 547.307 112.203 548.968 111.589C549.723 111.31 550.324 111.048 550.758 110.846L548.045 150.477L548.997 150.722C551.687 144.937 557.666 141.045 564.444 141.244C564.445 141.244 564.445 141.244 564.446 141.244L578.613 141.758Z" fill="white" stroke="black"/>
<path d="M523.974 240.795L520.889 223.422C521.149 223.387 521.5 223.338 521.933 223.275C522.931 223.13 524.36 222.906 526.086 222.595C529.537 221.973 534.183 220.999 538.956 219.591C543.723 218.185 548.64 216.34 552.619 213.967C555.825 212.055 558.478 209.767 559.92 207.043C559.914 207.369 559.896 207.731 559.858 208.127C559.669 210.133 558.996 213.01 557.043 216.435C553.173 223.222 544.247 232.207 523.974 240.795Z" fill="white" stroke="black"/>
<path d="M584.856 179.054C583.647 181.879 583.02 184.508 582.694 186.477C582.53 187.471 582.442 188.298 582.395 188.899L571.23 178.608L584.856 179.054Z" fill="#121936" stroke="black"/>
<path d="M579.224 98.7543L579.224 98.7547L550.964 109.673L550.963 109.673L550.958 109.677L550.93 109.692C550.906 109.705 550.867 109.726 550.815 109.754C550.712 109.808 550.555 109.888 550.348 109.987C549.934 110.185 549.318 110.458 548.518 110.754C546.919 111.345 544.589 112.025 541.681 112.373C535.873 113.068 527.742 112.441 518.501 107.103L518.458 107.078L518.41 107.062L518.251 107.536C518.41 107.062 518.41 107.062 518.409 107.062L518.408 107.061L518.405 107.06L518.391 107.056L518.342 107.04C518.299 107.026 518.236 107.006 518.155 106.981C517.991 106.931 517.753 106.86 517.448 106.777C516.837 106.61 515.96 106.391 514.888 106.181C512.745 105.761 509.808 105.376 506.65 105.52C500.335 105.807 493.049 108.225 489.556 116.788C489.387 117.129 489.248 117.468 489.124 117.817C488.967 117.581 488.781 117.299 488.57 116.973C487.87 115.89 486.905 114.329 485.844 112.423C483.72 108.609 481.225 103.43 479.712 97.9442C478.197 92.4507 477.683 86.7071 479.454 81.7274C481.213 76.7784 485.258 72.5015 493.042 69.9711C508.754 64.8636 517.231 67.6102 521.778 71.4704C524.067 73.4131 525.4 75.6689 526.161 77.4422C526.541 78.3283 526.777 79.0913 526.918 79.63C526.988 79.8992 527.034 80.112 527.063 80.2556C527.077 80.3274 527.087 80.3818 527.093 80.4174C527.096 80.4352 527.098 80.4482 527.099 80.4563L527.101 80.4647L527.101 80.4656L527.101 80.4661L527.361 82.2543L528.057 80.5864L528.057 80.5862L528.058 80.584L528.062 80.5736L528.082 80.5287C528.1 80.4882 528.127 80.4271 528.164 80.3469C528.238 80.1867 528.351 79.9508 528.505 79.6535C528.813 79.0588 529.283 78.2193 529.928 77.2486C531.219 75.3052 533.203 72.8468 535.982 70.77C538.756 68.6957 542.323 67.0019 546.791 66.5781C551.259 66.1543 556.663 66.9976 563.117 70.0504C576.046 76.166 579.988 83.3941 580.78 88.997C581.179 91.8165 580.787 94.2637 580.294 96.0069C580.047 96.878 579.776 97.5711 579.569 98.0437C579.465 98.28 579.377 98.4609 579.316 98.5812C579.285 98.6413 579.261 98.6862 579.245 98.7153L579.228 98.747L579.224 98.7537L579.224 98.7543ZM551.777 109.205L550.964 109.673L578.776 99.5388L579.678 99.502L579.658 99.0024L579.678 99.502L579.679 99.502L579.683 99.5019L579.698 99.5013L579.76 99.4993C579.795 99.4982 579.842 99.4969 579.898 99.4955C579.931 99.4948 579.968 99.494 580.007 99.4932C580.225 99.4889 580.545 99.4851 580.951 99.487C581.765 99.4908 582.926 99.5174 584.31 99.609C587.082 99.7924 590.733 100.235 594.28 101.269C597.833 102.304 601.233 103.919 603.552 106.413C605.85 108.883 607.123 112.254 606.377 116.914C605.28 123.605 601.431 134.456 597.021 145.638C594.134 143.074 590.424 141.476 586.246 141.375C586.245 141.375 586.243 141.375 586.242 141.375L578.651 141.067L578.649 141.067L564.376 140.553L564.367 140.552H564.358H564.355H564.352H564.349H564.346H564.343H564.34H564.337H564.334H564.331H564.328H564.325H564.322H564.319H564.316H564.313H564.31H564.307H564.304H564.3H564.297H564.294H564.291H564.288H564.285H564.282H564.279H564.276H564.273H564.27H564.267H564.264H564.261H564.258H564.255H564.252H564.249H564.246H564.243H564.24H564.237H564.234H564.231H564.228H564.225H564.222H564.219H564.216H564.213H564.21H564.207H564.204H564.201H564.198H564.195H564.192H564.189H564.186H564.183H564.18H564.177H564.174H564.171H564.168H564.165H564.162H564.159H564.156H564.153H564.15H564.147H564.144H564.141H564.138H564.135H564.132H564.129H564.126H564.123H564.12H564.117H564.114H564.111H564.108H564.105H564.102H564.099H564.096H564.093H564.09H564.087H564.084H564.081H564.078H564.075H564.072H564.069H564.066H564.063H564.06H564.057H564.054H564.051H564.048H564.045H564.042H564.039H564.036H564.033H564.03H564.027H564.024H564.021H564.018H564.015H564.012H564.009H564.006H564.003H564H563.997H563.994H563.991H563.988H563.985H563.982H563.979H563.976H563.973H563.97H563.967H563.964H563.961H563.958H563.955H563.952H563.949H563.946H563.942H563.939H563.936H563.933H563.93H563.927H563.924H563.921H563.918H563.915H563.912H563.909H563.906H563.903H563.9H563.897H563.894H563.891H563.888H563.885H563.882H563.879H563.876H563.873H563.87H563.867H563.864H563.861H563.858H563.855H563.852H563.849H563.846H563.843H563.84H563.837H563.834H563.831H563.828H563.825H563.822H563.819H563.816H563.813H563.81H563.807H563.804H563.801H563.798H563.795H563.792H563.789H563.786H563.783H563.78H563.777H563.774H563.771H563.768H563.765H563.762H563.759H563.756H563.753H563.75H563.747H563.744H563.741H563.738H563.735H563.732H563.729H563.726H563.723H563.72H563.717H563.714H563.711H563.708H563.705H563.702H563.699H563.696H563.693H563.69H563.687H563.684H563.681H563.678H563.675H563.672H563.669H563.666H563.663H563.66H563.657H563.654H563.651H563.648H563.645H563.642H563.639H563.636H563.633H563.63H563.627H563.624H563.621H563.618H563.615H563.612H563.609H563.606H563.603H563.6H563.597H563.594H563.591H563.588H563.584H563.581H563.578H563.575H563.572H563.569H563.566H563.563H563.56H563.557H563.554H563.551H563.548H563.545H563.542H563.539H563.536H563.533H563.53H563.527H563.524H563.521H563.518H563.515H563.512H563.509H563.506H563.503H563.5H563.497H563.494H563.491H563.488H563.485H563.482H563.479H563.476H563.473H563.47H563.467H563.464H563.461H563.458H563.455H563.452H563.449H563.446H563.443H563.44H563.437H563.434H563.431H563.428H563.425H563.422H563.419H563.416H563.413H563.41H563.407H563.404H563.401H563.398H563.395H563.392H563.389H563.386H563.383H563.38H563.377H563.374H563.371H563.368H563.365H563.362H563.359H563.356H563.353H563.35H563.347H563.344H563.341H563.338H563.335H563.332H563.329H563.326H563.323H563.32H563.317H563.314H563.311H563.308H563.305H563.302H563.299H563.296H563.293H563.29H563.287H563.284H563.281H563.278H563.275H563.272H563.269H563.266H563.263H563.26H563.257H563.254H563.251H563.248H563.245H563.242H563.239H563.236H563.233H563.229H563.226H563.223H563.22H563.217H563.214H563.211H563.208H563.205H563.202H563.199H563.196H563.193H563.19H563.187H563.184H563.181H563.178H563.175H563.172H563.169H563.166H563.163H563.16H563.157H563.154H563.151H563.148H563.145H563.142H563.139H563.136H563.133H563.13H563.127H563.124H563.121H563.118H563.115H563.112H563.109H563.106H563.103H563.1H563.097H563.094H563.091H563.088H563.085H563.082H563.079H563.076H563.073H563.07H563.067H563.064H563.061H563.058H563.055H563.052H563.049H563.046H563.043H563.04H563.037H563.034H563.031H563.028H563.025H563.022H563.019H563.016H563.013H563.01H563.007H563.004H563.001H562.998H562.995H562.992H562.989H562.986H562.983H562.98H562.977H562.974H562.971H562.968H562.965H562.962H562.959H562.956H562.953H562.95H562.947H562.944H562.941H562.938H562.935H562.932H562.929H562.926H562.923H562.92H562.917H562.914H562.911H562.908H562.905H562.902H562.899H562.896H562.893H562.89H562.887H562.884H562.881H562.878H562.875H562.871H562.868H562.865H562.862H562.859H562.856H562.853H562.85H562.847H562.844H562.841H562.838H562.835H562.832H562.829H562.826H562.823H562.82H562.817H562.227L562.324 141.134C562.425 141.743 562.522 142.425 562.523 143.099L561.497 169.298C561.389 170.832 561.82 172.47 562.794 173.794C573.08 196.905 557.081 223.232 531.884 224.652C531.882 224.653 531.881 224.653 531.88 224.653L529.423 224.755L529.353 224.758L529.286 224.78C528.722 224.968 528.159 225.063 527.493 225.063L527.483 225.063L517.522 225.269L517.521 225.269C498.819 225.674 483.757 209.783 485.273 191.059L485.273 191.057L486.608 173.888L486.608 173.888L486.609 173.88C486.798 170.842 489.171 168.456 492.13 168.073L509.996 165.812L510.009 165.81L510.023 165.808C511.031 165.624 512.063 165.802 513.143 166.194L535.726 175.341L535.727 175.341C540.125 177.103 545.088 174.354 545.753 169.603C545.836 169.051 545.922 168.481 546.011 167.895C547.011 161.293 548.301 152.773 549.244 146.161L549.247 146.142L549.248 146.124L551.713 110.14L551.777 109.205Z" fill="#121936" stroke="black"/>
<path d="M587.61 165.476L587.575 165.44L587.532 165.412L581.619 161.533C581.531 161.444 581.475 161.384 581.435 161.325C581.399 161.27 581.391 161.236 581.391 161.203C581.391 161.018 581.448 160.815 581.517 160.66L587.825 153.632C588.037 153.427 588.349 153.416 588.571 153.563C588.764 153.78 588.766 154.09 588.614 154.308L583.086 160.458L582.694 160.894L583.186 161.212L588.115 164.399L588.122 164.404L588.129 164.408C588.369 164.551 588.456 164.845 588.266 165.161L588.245 165.196L588.231 165.233C588.156 165.419 588.089 165.47 588.058 165.488C588.016 165.512 587.942 165.535 587.771 165.535C587.749 165.535 587.713 165.529 587.673 165.512C587.654 165.503 587.638 165.495 587.625 165.487C587.615 165.48 587.611 165.476 587.61 165.476Z" fill="#FF6A48" stroke="black"/>
<path d="M495.564 151.565C493.768 151.109 492.611 149.307 492.967 147.524C493.32 145.758 495.091 144.579 496.99 144.933C498.781 145.389 499.936 147.184 499.587 148.962C499.133 150.757 497.34 151.914 495.564 151.565Z" fill="#121936" stroke="black"/>
<path d="M524.105 151.553H524.093L524.081 151.554C522.225 151.642 520.703 150.137 520.703 148.249C520.703 146.357 522.234 144.842 524.003 144.842H524.014L524.026 144.842C525.883 144.753 527.405 146.258 527.405 148.146V148.158L527.405 148.17C527.494 150.03 525.99 151.553 524.105 151.553Z" fill="#121936" stroke="black"/>
<mask id="path-11-inside-1_666_2148" fill="white">
<path d="M527.802 152.567C527.802 152.567 524.516 149.894 521.024 152.567Z"/>
</mask>
<path d="M527.802 152.567C527.802 152.567 524.516 149.894 521.024 152.567Z" fill="#FFA386"/>
<path d="M527.802 152.567C528.433 151.791 528.432 151.791 528.432 151.791C528.432 151.791 528.431 151.79 528.431 151.79C528.431 151.79 528.43 151.789 528.429 151.788C528.428 151.787 528.426 151.786 528.424 151.785C528.42 151.782 528.416 151.778 528.411 151.774C528.4 151.765 528.386 151.754 528.369 151.741C528.335 151.715 528.287 151.681 528.228 151.639C528.11 151.556 527.943 151.446 527.733 151.325C527.315 151.084 526.713 150.793 525.979 150.598C524.484 150.201 522.455 150.213 520.417 151.773L521.632 153.361C523.085 152.249 524.445 152.26 525.466 152.531C525.99 152.67 526.428 152.881 526.735 153.058C526.887 153.146 527.004 153.223 527.079 153.276C527.117 153.302 527.144 153.322 527.159 153.334C527.167 153.34 527.172 153.344 527.174 153.345C527.175 153.346 527.175 153.346 527.175 153.346C527.174 153.346 527.174 153.345 527.173 153.345C527.173 153.345 527.173 153.344 527.172 153.344C527.172 153.344 527.172 153.344 527.171 153.344C527.171 153.343 527.171 153.343 527.802 152.567Z" fill="black" mask="url(#path-11-inside-1_666_2148)"/>
<path d="M520.611 152.895L520.619 152.907C520.706 153.038 520.831 153.095 521.024 153.095C521.079 153.095 521.107 153.095 521.131 153.093L520.611 152.895ZM520.611 152.895L520.603 152.884M520.611 152.895L520.603 152.884M520.603 152.884C520.527 152.783 520.48 152.626 520.495 152.473C520.508 152.33 520.57 152.231 520.665 152.173L520.692 152.157M520.603 152.884L520.692 152.157M520.692 152.157L520.716 152.138M520.692 152.157L520.716 152.138M520.716 152.138C523.735 149.777 526.941 151.075 528.18 152.112C528.306 152.243 528.37 152.39 528.382 152.514C528.394 152.632 528.362 152.738 528.269 152.831L528.244 152.856M520.716 152.138L528.244 152.856M528.244 152.856L528.223 152.884M528.244 152.856L528.223 152.884M528.223 152.884C528.166 152.96 528.048 153.032 527.895 153.046C527.748 153.06 527.622 153.016 527.539 152.933C527.492 152.886 527.406 152.821 527.318 152.759C527.217 152.689 527.08 152.599 526.911 152.504C526.573 152.314 526.102 152.095 525.535 151.954C524.389 151.667 522.863 151.701 521.333 152.892L521.269 152.942M528.223 152.884L521.269 152.942M521.269 152.942L521.224 153.01M521.269 152.942L521.224 153.01M521.224 153.01C521.194 153.055 521.173 153.075 521.163 153.083M521.224 153.01L521.163 153.083M521.163 153.083C521.159 153.086 521.157 153.088 521.156 153.089M521.163 153.083L521.156 153.089M521.156 153.089C521.156 153.089 521.156 153.089 521.156 153.089C521.156 153.089 521.156 153.089 521.156 153.089C521.155 153.089 521.155 153.089 521.155 153.089L521.156 153.089Z" fill="#FF6A48" stroke="black"/>
<path d="M499.463 152.655L499.463 152.655L499.468 152.659C499.543 152.715 499.621 152.839 499.645 153.01C499.67 153.182 499.63 153.323 499.573 153.398C499.517 153.474 499.393 153.551 499.222 153.576C499.051 153.6 498.911 153.56 498.836 153.504L498.825 153.496L498.813 153.488C498.808 153.484 498.802 153.48 498.795 153.476C498.604 153.347 497.875 152.858 496.872 152.691C495.833 152.517 494.529 152.695 493.254 153.864C493.138 153.895 493.037 153.927 492.956 153.952C492.925 153.961 492.897 153.97 492.872 153.977C492.746 154.015 492.705 154.021 492.682 154.021C492.587 154.021 492.53 154.005 492.488 153.987C492.444 153.967 492.391 153.932 492.317 153.859C492.225 153.766 492.193 153.66 492.204 153.542C492.217 153.416 492.283 153.265 492.414 153.132C495.145 150.593 498.24 151.713 499.463 152.655Z" fill="#FF6A48" stroke="black"/>
<path d="M505.634 145.679H505.634L505.634 145.685C505.734 153.793 500.049 160.086 493.195 160.086C486.349 160.086 480.757 153.698 480.757 145.679C480.757 137.662 486.449 131.271 493.195 131.271C499.942 131.271 505.634 137.662 505.634 145.679ZM493.195 132.43C486.785 132.43 481.811 138.494 481.811 145.781C481.811 153.078 486.895 159.03 493.195 159.03C499.606 159.03 504.58 152.966 504.58 145.679C504.58 138.386 499.601 132.43 493.195 132.43Z" fill="white" stroke="black"/>
<mask id="path-16-inside-2_666_2148" fill="white">
<path d="M508.599 139.407V152.875H501.616C499.87 152.875 498.33 154.315 498.33 156.165V157.502C498.33 160.998 501.205 163.876 504.697 163.876H511.063"/>
</mask>
<path d="M508.599 139.407V152.875H501.616C499.87 152.875 498.33 154.315 498.33 156.165V157.502C498.33 160.998 501.205 163.876 504.697 163.876H511.063" fill="white"/>
<path d="M508.599 152.875V153.875H509.599V152.875H508.599ZM507.599 139.407V152.875H509.599V139.407H507.599ZM508.599 151.875H501.616V153.875H508.599V151.875ZM501.616 151.875C499.337 151.875 497.33 153.744 497.33 156.165H499.33C499.33 154.886 500.403 153.875 501.616 153.875V151.875ZM497.33 156.165V157.502H499.33V156.165H497.33ZM497.33 157.502C497.33 161.549 500.652 164.876 504.697 164.876V162.876C501.759 162.876 499.33 160.446 499.33 157.502H497.33ZM504.697 164.876H511.063V162.876H504.697V164.876Z" fill="black" mask="url(#path-16-inside-2_666_2148)"/>
<path d="M507.571 152.245H508.071V151.745V139.407C508.071 139.212 508.134 139.089 508.208 139.015C508.281 138.942 508.404 138.879 508.598 138.879C508.793 138.879 508.916 138.942 508.989 139.015C509.062 139.089 509.125 139.212 509.125 139.407V153.404H501.616C500.107 153.404 498.856 154.656 498.856 156.165V157.502C498.856 160.759 501.442 163.348 504.696 163.348H511.063C511.257 163.348 511.38 163.411 511.454 163.484C511.527 163.558 511.59 163.681 511.59 163.876C511.59 164.186 511.333 164.404 511.063 164.404H504.696C500.865 164.404 497.803 161.339 497.803 157.502V156.063C497.803 153.974 499.53 152.245 501.616 152.245H507.571Z" fill="white" stroke="black"/>
<path d="M524.515 159.161C517.668 159.161 512.076 152.772 512.076 144.753C512.076 136.737 517.768 130.346 524.515 130.346C531.261 130.346 536.953 136.737 536.953 144.753C536.953 152.772 531.361 159.161 524.515 159.161ZM524.515 131.505C518.104 131.505 513.13 137.569 513.13 144.856C513.13 152.147 518.21 158.208 524.515 158.208C530.925 158.208 535.9 152.144 535.9 144.856C535.9 137.569 530.925 131.505 524.515 131.505Z" fill="white" stroke="black"/>
<path d="M531.132 129.779L531.132 129.779L531.122 129.776C530.496 129.597 529.889 129.398 529.292 129.202C529.215 129.177 529.138 129.151 529.061 129.126C528.394 128.908 527.737 128.697 527.101 128.538C525.861 128.228 524.416 127.918 522.983 127.61L522.977 127.609C522.783 127.567 522.593 127.528 522.406 127.49C521.879 127.382 521.382 127.28 520.906 127.142C520.269 126.958 519.724 126.724 519.283 126.371L519.283 126.371L519.277 126.367C518.941 126.105 518.768 125.729 518.813 125.31C518.858 124.884 519.14 124.329 519.886 123.768L519.893 123.764L519.899 123.759C521.285 122.648 524.703 121.723 528.695 122.822C532.674 123.918 535.098 126.286 535.857 127.97C536.127 128.794 536.058 129.389 535.864 129.776C535.671 130.163 535.324 130.406 534.903 130.484C534.381 130.57 533.788 130.508 533.136 130.36C532.61 130.241 532.078 130.075 531.535 129.905C531.401 129.863 531.267 129.821 531.132 129.779Z" fill="#121936" stroke="black"/>
<path d="M487.854 126.305L487.84 126.298L487.826 126.293C487.402 126.134 486.836 125.31 487.575 123.919C488.305 122.646 490.502 120.977 493.645 120.68C496.802 120.485 499.29 121.779 500.192 122.954L500.199 122.963L500.207 122.972C500.709 123.566 500.849 124.084 500.822 124.464C500.795 124.841 500.602 125.135 500.324 125.309C500.004 125.51 499.575 125.626 499.055 125.686C498.537 125.747 497.976 125.747 497.406 125.747H497.391C496.272 125.747 495.122 125.747 494.07 125.853C493.977 125.862 493.883 125.871 493.788 125.881C492.847 125.974 491.807 126.077 490.766 126.265C490.504 126.29 490.243 126.325 489.996 126.357C489.972 126.361 489.948 126.364 489.924 126.367C489.644 126.404 489.382 126.437 489.129 126.455C488.621 126.492 488.205 126.461 487.854 126.305Z" fill="#121936" stroke="black"/>
<path d="M512.603 144.15H507.263C507.069 144.15 506.946 144.088 506.872 144.014C506.799 143.941 506.736 143.817 506.736 143.622C506.736 143.427 506.799 143.304 506.872 143.23C506.946 143.157 507.069 143.094 507.263 143.094H512.603C512.797 143.094 512.92 143.157 512.994 143.23C513.067 143.304 513.13 143.427 513.13 143.622C513.13 143.717 513.078 143.853 512.955 143.976C512.833 144.098 512.697 144.15 512.603 144.15Z" fill="white" stroke="black"/>
<path d="M536.408 143.636C536.19 143.626 535.955 143.439 535.89 143.113C535.879 143.055 535.894 142.95 536.007 142.82C536.115 142.698 536.266 142.608 536.401 142.575L567.766 139.599C568.039 139.61 568.332 139.851 568.386 140.122C568.397 140.18 568.382 140.285 568.269 140.415C568.161 140.537 568.01 140.627 567.875 140.66L536.408 143.636Z" fill="white" stroke="black"/>
<path d="M506.964 182.396L506.964 182.396H506.956C506.648 182.396 506.429 182.14 506.429 181.868C506.429 181.774 506.481 181.637 506.603 181.515C506.724 181.394 506.859 181.341 506.953 181.34L519.27 181.546L519.27 181.546H519.278C522.714 181.546 525.964 179.266 526.931 175.901L527.916 176.16C526.867 179.903 523.303 182.602 519.381 182.602H519.282L506.964 182.396Z" fill="#FF6A48" stroke="black"/>
<path d="M505.213 241.096L520.463 227.91L538.7 248.551L510.011 274.128L510.011 274.128L510.006 274.133C509.093 274.971 507.634 274.372 507.557 273.134L507.557 273.128L505.213 241.096Z" fill="white" stroke="black"/>
<path d="M612.9 241.374L563.11 283.579L563.108 283.581C561.888 284.627 560.004 284.341 559.248 282.995L559.248 282.995L559.242 282.985L538.758 248.567L589.647 219.192L612.9 241.374Z" fill="white" stroke="black"/>
<path d="M556.895 281.011L528.215 298.16L514.863 271.126L538.464 250.089L556.895 281.011Z" fill="#121936" stroke="black"/>
<path d="M355.594 128.304L323.658 128.509H281.864L281.967 112.985C281.967 110.929 281.762 108.872 281.454 106.919C275.909 76.2812 231.137 76.1784 225.181 106.713C224.77 108.77 224.565 110.826 224.565 112.985V131.594L224.667 145.473C224.77 160.175 215.323 172.718 203 175.494C202.692 175.597 204.335 175.597 205.978 175.597C208.237 175.7 209.983 175.597 209.983 175.597L329.203 175.802C343.888 175.7 355.697 162.129 355.594 145.576V128.304Z" fill="#121936"/>
<path d="M452.031 128.098V128.598H452.134V324.996H452.031V325.496V449.5H309.282C294.356 449.5 282.365 437.588 282.365 422.858V114.424V114.409L282.364 114.395C281.499 99.7716 271.159 87.6313 257.3 84.1836L311.233 84.1836L311.234 84.1836L410.322 84.0808C414.977 84.1829 419.427 85.1964 423.471 87.0182L423.486 87.0251L423.502 87.0309C440.153 93.2319 452.031 109.294 452.031 128.098Z" fill="white" stroke="black"/>
<path d="M427.784 249.635H311.439C311.245 249.635 311.122 249.572 311.048 249.499C310.975 249.425 310.912 249.302 310.912 249.107C310.912 248.912 310.975 248.788 311.048 248.715C311.122 248.641 311.245 248.579 311.439 248.579H427.784C427.978 248.579 428.101 248.641 428.175 248.715C428.248 248.788 428.311 248.912 428.311 249.107C428.311 249.201 428.259 249.338 428.136 249.46C428.014 249.583 427.878 249.635 427.784 249.635Z" fill="#121936" stroke="black"/>
<path d="M393.192 232.657V232.706L393.202 232.755C393.214 232.815 393.196 232.915 393.095 233.023C392.994 233.132 392.863 233.185 392.768 233.185H343.683C343.489 233.185 343.366 233.122 343.292 233.049C343.219 232.976 343.156 232.852 343.156 232.657C343.156 232.462 343.219 232.338 343.292 232.265C343.366 232.192 343.489 232.129 343.683 232.129H392.665C392.859 232.129 392.982 232.192 393.056 232.265C393.129 232.338 393.192 232.462 393.192 232.657Z" fill="#121936" stroke="black"/>
<path d="M427.784 273.693H311.439C311.245 273.693 311.122 273.63 311.048 273.557C310.975 273.483 310.912 273.36 310.912 273.165C310.912 272.97 310.975 272.846 311.048 272.773C311.122 272.699 311.245 272.636 311.439 272.636H427.784C427.978 272.636 428.101 272.699 428.175 272.773C428.248 272.846 428.311 272.97 428.311 273.165C428.311 273.474 428.054 273.693 427.784 273.693Z" fill="#121936" stroke="black"/>
<path d="M427.784 297.853H311.439C311.245 297.853 311.122 297.791 311.048 297.717C310.975 297.644 310.912 297.52 310.912 297.325C310.912 297.13 310.975 297.007 311.048 296.933C311.122 296.86 311.245 296.797 311.439 296.797H427.784C427.978 296.797 428.101 296.86 428.175 296.933C428.248 297.007 428.311 297.13 428.311 297.325C428.311 297.635 428.054 297.853 427.784 297.853Z" fill="#121936" stroke="black"/>
<path d="M427.784 320.472H311.439C311.245 320.472 311.122 320.409 311.048 320.336C310.975 320.262 310.912 320.139 310.912 319.944C310.912 319.749 310.975 319.625 311.048 319.552C311.122 319.478 311.245 319.416 311.439 319.416H427.784C427.978 319.416 428.101 319.478 428.175 319.552C428.248 319.625 428.311 319.749 428.311 319.944C428.311 320.253 428.054 320.472 427.784 320.472Z" fill="#121936" stroke="black"/>
<path d="M348.925 124.484L348.927 124.487C351.466 127.954 357.018 126.226 357.018 121.827C357.018 117.882 362.581 116.962 363.846 120.745C365.13 124.932 371.019 124.886 372.396 120.751C373.657 116.961 379.226 117.88 379.226 121.827C379.226 126.195 384.765 128.085 387.32 124.482C389.646 121.262 394.682 123.841 393.423 127.63C392.026 131.715 396.899 135.148 400.352 132.615C403.584 130.28 407.536 134.224 405.199 137.467C402.553 141.043 406.013 145.795 410.177 144.405C413.955 143.145 416.546 148.184 413.32 150.517L413.317 150.519C409.856 153.06 411.577 158.619 415.974 158.619C419.912 158.619 420.836 164.194 417.048 165.458C412.896 166.844 412.896 172.629 417.048 174.015C420.836 175.279 419.912 180.854 415.974 180.854C411.608 180.854 409.725 186.4 413.321 188.957C416.545 191.29 413.955 196.327 410.178 195.069C406.094 193.669 402.671 198.552 405.198 202.005C407.536 205.249 403.585 209.193 400.353 206.859C396.778 204.207 392.036 207.677 393.422 211.842C394.684 215.632 389.644 218.213 387.319 214.99L387.317 214.987C384.778 211.52 379.226 213.248 379.226 217.647C379.226 221.593 373.657 222.512 372.396 218.722C371.012 214.565 365.232 214.565 363.848 218.722C362.587 222.512 357.018 221.593 357.018 217.647C357.018 213.278 351.479 211.389 348.924 214.991C346.598 218.211 341.562 215.633 342.821 211.843C344.218 207.758 339.345 204.325 335.892 206.859C332.66 209.193 328.708 205.25 331.045 202.006C333.691 198.43 330.231 193.678 326.067 195.068C322.289 196.329 319.698 191.289 322.924 188.956L322.927 188.954C326.388 186.413 324.666 180.854 320.27 180.854C316.332 180.854 315.408 175.279 319.196 174.015C323.348 172.629 323.348 166.844 319.196 165.458C315.408 164.194 316.332 158.619 320.27 158.619C324.636 158.619 326.518 153.073 322.923 150.516C319.699 148.183 322.289 143.146 326.065 144.405C330.15 145.805 333.573 140.922 331.046 137.468C328.708 134.225 332.659 130.281 335.891 132.614C339.466 135.266 344.208 131.796 342.822 127.632C341.56 123.841 346.599 121.26 348.925 124.484Z" fill="#FBC108" stroke="black"/>
<path d="M309.183 125.137L309.177 125.133L309.171 125.128C309.096 125.072 309.018 124.948 308.994 124.776C308.969 124.604 309.009 124.464 309.066 124.388C309.122 124.313 309.245 124.235 309.417 124.211C309.584 124.187 309.722 124.225 309.798 124.28L319.444 131.984L319.449 131.989L319.455 131.994C319.531 132.05 319.608 132.174 319.633 132.346C319.655 132.501 319.624 132.631 319.576 132.71C319.456 132.827 319.38 132.88 319.327 132.907C319.28 132.931 319.231 132.944 319.14 132.944C319.08 132.944 318.994 132.914 318.794 132.815L309.183 125.137Z" fill="#121936" stroke="black"/>
<path d="M297.674 168.685L297.683 168.683L297.692 168.681L309.696 165.805C309.825 165.781 309.983 165.807 310.117 165.881C310.252 165.957 310.316 166.053 310.332 166.133C310.358 166.265 310.332 166.427 310.257 166.564C310.181 166.7 310.085 166.763 310.005 166.779L309.996 166.781L309.987 166.783L297.972 169.662L297.7 169.727C297.511 169.674 297.388 169.534 297.347 169.33C297.321 169.199 297.346 169.036 297.422 168.9C297.497 168.764 297.594 168.701 297.674 168.685Z" fill="#121936" stroke="black"/>
<path d="M299.557 146.945L299.54 146.94L299.522 146.936C299.442 146.92 299.346 146.857 299.271 146.721C299.195 146.585 299.169 146.422 299.196 146.291C299.212 146.21 299.275 146.114 299.41 146.039C299.542 145.966 299.697 145.939 299.825 145.961L311.716 149.245L311.733 149.25L311.751 149.254C311.831 149.27 311.927 149.333 312.002 149.469C312.076 149.601 312.102 149.758 312.08 149.887C312.029 150.065 311.827 150.217 311.644 150.217H311.643H311.643H311.642H311.641H311.641H311.64H311.64H311.639H311.638H311.638H311.637H311.637H311.636H311.635H311.635H311.634H311.634H311.633H311.632H311.632H311.631H311.631H311.63H311.629H311.629H311.628H311.628H311.627H311.626H311.626H311.625H311.625H311.624H311.623H311.623H311.622H311.622H311.621H311.62H311.62H311.619H311.619H311.618H311.617H311.617H311.616H311.616H311.615H311.614H311.614H311.613H311.613H311.612H311.611H311.611H311.61H311.61H311.609H311.608H311.608H311.607H311.607H311.606H311.605H311.605H311.604H311.604H311.603H311.602H311.602H311.601H311.601H311.6H311.599H311.599H311.598H311.598H311.597H311.596H311.596H311.595H311.595H311.594H311.593H311.593H311.592H311.592H311.591H311.59H311.59H311.589H311.589H311.588H311.587H311.587H311.586H311.585H311.585H311.584H311.584H311.583H311.582H311.582H311.581H311.581H311.58H311.579H311.579H311.578H311.578H311.577H311.576H311.576H311.575H311.575H311.574H311.573H311.573H311.572H311.572H311.571H311.57H311.57H311.569H311.569H311.568H311.567H311.567H311.566H311.566H311.565H311.564H311.564H311.563H311.563H311.562H311.561H311.561H311.56H311.56H311.559H311.558H311.558H311.557H311.557H311.556H311.555H311.555H311.554H311.554H311.553H311.552H311.552H311.551H311.551H311.55H311.549H311.549H311.548H311.548H311.547H311.546H311.546H311.545H311.545H311.544H311.543H311.543H311.542H311.542H311.541H311.54H311.54H311.539H311.539H311.538H311.537H311.537H311.536H311.536H311.535H311.534H311.534H311.533H311.533H311.532H311.531H311.531H311.53H311.53H311.529H311.528H311.528H311.527H311.527H311.526H311.525H311.525H311.524H311.524H311.523H311.522H311.522H311.521H311.521H311.52H311.519H311.519H311.518H311.518H311.517H311.516H311.516H311.515H311.514H311.514H311.513H311.513H311.512H311.511H311.511H311.51H311.51H311.509H311.508H311.508H311.507H311.507H311.506H311.505H311.505H311.504H311.504H311.503H311.502H311.502H311.501H311.501H311.5H311.499H311.499H311.498H311.498H311.497H311.496H311.496H311.495H311.495H311.494H311.493H311.493H311.492H311.492H311.491H311.49H311.49H311.489H311.489H311.488H311.487H311.487H311.486H311.486H311.485H311.484H311.484H311.483H311.483H311.482H311.481H311.481H311.48H311.48H311.479H311.478H311.478H311.477H311.477H311.476H311.475H311.475H311.474H311.474H311.473H311.472H311.472H311.471H311.471H311.47H311.469H311.469H311.468H311.468H311.467H311.466H311.466H311.465H311.465H311.464H311.463H311.463H311.462H311.462H311.461H311.46H311.46H311.459H311.459H311.458H311.457H311.457H311.456H311.456H311.455H311.454H311.454H311.453H311.453H311.452H311.451H311.451H311.45H311.45H311.449H311.448H311.448H311.447H311.447H311.446H311.445H311.445H311.444H311.443H311.443H311.442H311.442H311.441H311.44H311.44H311.439H311.439H311.438H311.437H311.437H311.436H311.436H311.435H311.434H311.434H311.433H311.433H311.432H311.431H311.431H311.43H311.43H311.429H311.428H311.428H311.427H311.427H311.426H311.425H311.425H311.424H311.424H311.423H311.422H311.422H311.421H311.421H311.42H311.419H311.419H311.418H311.418H311.417H311.416H311.416H311.415H311.415H311.414H311.413H311.413H311.412H311.412H311.411H311.41H311.41H311.409H311.409H311.408H311.407H311.407H311.406H311.406H311.405H311.404H311.404H311.404L299.557 146.945Z" fill="#121936" stroke="black"/>
<path d="M437.26 167.802L424.891 168.825C424.767 168.821 424.633 168.768 424.529 168.678C424.423 168.585 424.381 168.484 424.381 168.4C424.381 168.054 424.589 167.833 424.879 167.765L437.146 166.741C437.471 166.748 437.683 166.943 437.756 167.216C437.737 167.534 437.535 167.737 437.26 167.802Z" fill="#121936" stroke="black"/>
<path d="M423.158 149.254L423.176 149.25L423.193 149.245L435.084 145.961C435.212 145.939 435.367 145.966 435.499 146.039C435.634 146.114 435.697 146.21 435.713 146.291C435.74 146.422 435.714 146.585 435.638 146.721C435.563 146.857 435.467 146.92 435.387 146.936L435.369 146.94L435.352 146.945L423.505 150.217H423.505H423.505H423.504H423.503H423.503H423.502H423.502H423.501H423.501H423.5H423.499H423.499H423.498H423.498H423.497H423.497H423.496H423.496H423.495H423.494H423.494H423.493H423.493H423.492H423.492H423.491H423.491H423.49H423.489H423.489H423.488H423.488H423.487H423.487H423.486H423.486H423.485H423.484H423.484H423.483H423.483H423.482H423.482H423.481H423.481H423.48H423.48H423.479H423.478H423.478H423.477H423.477H423.476H423.476H423.475H423.475H423.474H423.474H423.473H423.473H423.472H423.471H423.471H423.47H423.47H423.469H423.469H423.468H423.468H423.467H423.467H423.466H423.466H423.465H423.465H423.464H423.464H423.463H423.463H423.462H423.462H423.461H423.461H423.46H423.46H423.459H423.458H423.458H423.457H423.457H423.456H423.456H423.455H423.455H423.454H423.454H423.453H423.453H423.452H423.452H423.451H423.451H423.45H423.45H423.449H423.449H423.448H423.448H423.448H423.447H423.447H423.446H423.446H423.445H423.445H423.444H423.444H423.443H423.443H423.442H423.442H423.441H423.441H423.44H423.44H423.439H423.439H423.438H423.438H423.438H423.437H423.437H423.436H423.436H423.435H423.435H423.434H423.434H423.433H423.433H423.432H423.432H423.432H423.431H423.431H423.43H423.43H423.429H423.429H423.428H423.428H423.428H423.427H423.427H423.426H423.426H423.425H423.425H423.425H423.424H423.424H423.423H423.423H423.422H423.422H423.422H423.421H423.421H423.42H423.42H423.419H423.419H423.419H423.418H423.418H423.417H423.417H423.417H423.416H423.416H423.415H423.415H423.415H423.414H423.414H423.413H423.413H423.413H423.412H423.412H423.411H423.411H423.411H423.41H423.41H423.409H423.409H423.409H423.408H423.408H423.408H423.407H423.407H423.406H423.406H423.406H423.405H423.405H423.405H423.404H423.404H423.404H423.403H423.403H423.403H423.402H423.402H423.401H423.401H423.401H423.4H423.4H423.4H423.399H423.399H423.399H423.398H423.398H423.398H423.397H423.397H423.397H423.396H423.396H423.396H423.395H423.395H423.395H423.394H423.394H423.394H423.394H423.393H423.393H423.393H423.392H423.392H423.392H423.391H423.391H423.391H423.391H423.39H423.39H423.39H423.389H423.389H423.389H423.388H423.388H423.388H423.388H423.387H423.387H423.387H423.387H423.386H423.386H423.386H423.385H423.385H423.385H423.385H423.384H423.384H423.384H423.384H423.383H423.383H423.383H423.383H423.382H423.382H423.382H423.382H423.382H423.381H423.381H423.381H423.381H423.38H423.38H423.38H423.38H423.379H423.379H423.379H423.379H423.379H423.378H423.378H423.378H423.378H423.378H423.377H423.377H423.377H423.377H423.377H423.376H423.376H423.376H423.376H423.376H423.375H423.375H423.375H423.375H423.375H423.375H423.374H423.374H423.374H423.374H423.374H423.374H423.373H423.373H423.373H423.373H423.373H423.373H423.373H423.372H423.372H423.372H423.372H423.372H423.372H423.372H423.372H423.371H423.371H423.371H423.371H423.371H423.371H423.371H423.371H423.37H423.37H423.37H423.37H423.37H423.37H423.37H423.37H423.37H423.37H423.369H423.369H423.369H423.369H423.369H423.369H423.369H423.369H423.369H423.369H423.369H423.369H423.369H423.369H423.369H423.368H423.368H423.368H423.368H423.368H423.368H423.368H423.368H423.368H423.368H423.368H423.368H423.368H423.368H423.368H423.368H423.368H423.368H423.368H423.368H423.368H423.368H423.368C423.209 150.217 422.973 150.087 422.823 149.837C422.814 149.719 422.842 149.584 422.907 149.469C422.982 149.333 423.078 149.27 423.158 149.254Z" fill="#121936" stroke="black"/>
<path d="M421.2 182.888L421.216 182.867L421.229 182.845C421.324 182.686 421.459 182.589 421.58 182.551C421.696 182.514 421.779 182.535 421.835 182.577L421.867 182.601L421.903 182.62L432.876 188.37C433.028 188.464 433.122 188.596 433.159 188.714C433.196 188.832 433.175 188.915 433.133 188.971L433.084 189.036L433.059 189.113C433.038 189.174 432.956 189.285 432.712 189.285C432.599 189.285 432.566 189.284 432.537 189.279C432.522 189.276 432.493 189.27 432.426 189.237L421.457 183.489C421.305 183.395 421.211 183.263 421.174 183.145C421.137 183.027 421.158 182.944 421.2 182.888Z" fill="#121936" stroke="black"/>
<path d="M526.171 381.555C523.958 380.861 521.66 380.514 519.277 380.514H507.982C492.507 380.514 479.961 393.075 479.961 408.567C479.961 429.984 462.626 447.238 441.337 447.238H435.279C417.585 447.238 403.227 432.863 403.227 415.147V369.704C403.227 356.739 394.454 345.761 382.511 342.445H505.004C516.844 342.445 526.479 352.091 526.479 363.947V380.514H526.171V381.014V381.555Z" fill="white" stroke="black"/>
<path d="M676.916 420.602L676.916 420.603C677.106 433.915 685.68 445.412 698.075 449.5H576.988C558.267 449.5 543.088 434.303 543.088 415.558V404.455C543.088 393.975 536.331 385.139 527.068 381.89V381.514H655.236C667.076 381.514 676.711 391.159 676.711 403.015L676.711 403.021L676.916 420.602Z" fill="white" stroke="black"/>
<path d="M281.864 423.064C281.864 424.811 282.07 426.559 282.378 428.204C282.07 426.456 281.864 424.709 281.864 422.755V423.064Z" fill="#121936"/>
<path d="M542.485 415.455V404.352C542.485 393.968 535.81 385.229 526.465 382.145C524.104 381.322 521.639 380.911 519.072 380.911H507.776C492.578 380.911 480.256 393.248 480.256 408.464C480.256 430.055 462.799 447.635 441.132 447.635H435.073C417.103 447.635 402.522 433.036 402.522 415.044V369.602C402.522 354.694 390.712 342.459 376.028 341.843C375.617 341.843 375.207 341.843 374.796 341.843C356.004 341.843 340.909 357.059 340.909 375.77V412.988C340.909 432.111 325.403 447.635 306.303 447.635C294.494 447.635 284.636 439.308 282.274 428.204C284.636 440.85 295.418 449.897 308.973 449.897H526.363H576.782C557.99 450 542.485 434.578 542.485 415.455Z" fill="#121936"/>
<path d="M280.65 292.428L280.518 293.428L281.394 292.927C284.268 291.283 287.246 289.535 290.532 287.479C291.315 287.076 292.137 286.631 292.988 286.172C296.098 284.49 299.582 282.607 302.895 281.785C304.992 281.265 306.956 281.19 308.665 281.831C310.356 282.464 311.87 283.823 313.032 286.315C313.695 288.033 313.512 289.33 312.896 290.361C312.26 291.425 311.125 292.271 309.77 292.975L310.119 293.904C312.193 293.398 314.288 293.218 316.001 293.802C317.667 294.37 319.048 295.685 319.68 298.366L319.688 298.399L319.701 298.431C320.164 299.627 320.265 300.615 320.126 301.44C319.988 302.262 319.604 302.963 319.031 303.577C317.865 304.828 315.944 305.696 313.844 306.414L314.079 307.381C315.423 307.182 316.676 307.219 317.709 307.667C318.718 308.105 319.578 308.961 320.103 310.54L320.112 310.565L320.123 310.59C320.76 311.99 320.955 313.204 320.844 314.254C320.733 315.303 320.315 316.22 319.674 317.023C318.379 318.644 316.18 319.787 313.86 320.494L314.006 321.472C315.073 321.472 315.8 321.917 316.259 322.617C316.734 323.339 316.948 324.378 316.857 325.573C316.675 327.965 315.284 330.772 312.81 332.376L312.8 332.382L312.79 332.389L285.167 352.232L285.152 352.242L285.138 352.254C284.002 353.202 282.355 353.798 280.329 354.204L280.323 354.205C264.271 357.62 248.924 342.225 251.143 325.355L251.143 325.355L251.144 325.35C251.855 319.45 253.582 313.546 256.02 308.25L256.044 308.209L256.155 308.022C256.253 307.858 256.397 307.617 256.582 307.308C256.952 306.688 257.488 305.796 258.149 304.706C259.472 302.524 261.296 299.549 263.303 296.371C267.327 290 272.053 282.869 274.945 279.669L274.945 279.669L274.953 279.659C275.56 278.95 276.226 278.294 276.954 277.93L276.975 277.919L276.995 277.907C277.691 277.471 278.612 277.412 279.237 277.804L279.25 277.812L279.263 277.819C279.71 278.063 280.061 278.485 280.343 279.025C280.623 279.562 280.816 280.182 280.966 280.782C281.718 284.369 281.23 288.053 280.738 291.759C280.709 291.982 280.679 292.205 280.65 292.428Z" fill="white" stroke="black"/>
<path d="M283.863 290.149L283.863 290.149L283.868 290.146C284.107 290.002 284.43 290.07 284.619 290.386C284.763 290.626 284.695 290.949 284.382 291.138C284.381 291.139 284.38 291.139 284.38 291.139L269.494 299.876L269.447 299.903C269.428 299.906 269.403 299.907 269.37 299.908C269.33 299.91 269.287 299.91 269.234 299.91C269.181 299.91 269.083 299.889 268.971 299.828C268.865 299.772 268.782 299.698 268.732 299.628C268.597 299.389 268.667 299.073 268.976 298.886L283.863 290.149Z" fill="white" stroke="black"/>
<path d="M308.466 293.391C309.621 292.79 310.504 292.379 310.934 292.261C311.062 292.239 311.218 292.266 311.35 292.339C311.485 292.414 311.549 292.511 311.565 292.591C311.591 292.722 311.565 292.885 311.489 293.022C311.414 293.157 311.318 293.221 311.238 293.237L311.226 293.239L311.215 293.242C311.013 293.292 310.74 293.403 310.433 293.541C310.117 293.684 309.736 293.872 309.307 294.092C308.449 294.533 307.384 295.115 306.239 295.759C303.949 297.047 301.325 298.592 299.371 299.777L299.161 299.904C299.107 299.894 299.035 299.871 298.956 299.828C298.85 299.771 298.767 299.698 298.718 299.628C298.576 299.379 298.658 299.053 298.886 298.87C299.453 298.529 301.978 297.013 304.614 295.511C305.953 294.747 307.317 293.99 308.466 293.391Z" fill="white" stroke="black"/>
<path d="M313.847 306.496L313.847 306.496L313.853 306.493C314.092 306.349 314.415 306.417 314.604 306.733C314.748 306.973 314.68 307.295 314.367 307.485L305.109 312.884C305.088 312.888 305.07 312.893 305.057 312.896C305.025 312.904 304.985 312.916 304.953 312.926C304.941 312.929 304.93 312.932 304.922 312.935C304.837 312.959 304.792 312.967 304.764 312.967C304.712 312.967 304.613 312.946 304.501 312.885C304.396 312.828 304.312 312.755 304.263 312.685C304.127 312.446 304.197 312.13 304.506 311.943L313.847 306.496Z" fill="white" stroke="black"/>
<path d="M312.395 321.309L312.405 321.303L312.415 321.298C312.655 321.154 312.977 321.222 313.166 321.537C313.309 321.776 313.243 322.096 312.936 322.286L307.812 325.056L307.748 325.09L307.746 325.092C307.728 325.094 307.704 325.096 307.673 325.097C307.633 325.098 307.59 325.098 307.537 325.098C307.324 325.098 307.163 325.004 307.036 324.818C306.9 324.58 306.969 324.266 307.272 324.079L312.395 321.309Z" fill="white" stroke="black"/>
<path d="M544.436 283.839L544.452 283.852L544.468 283.863L648.064 352.427L696.513 390.11L689.284 405.891L689.279 405.904L689.274 405.917C679.905 429.774 655.777 444.95 630.447 441.793L630.446 441.793C617.83 440.265 605.621 434.461 596.053 424.173L515.658 327.13L515.658 327.13L515.65 327.121L502.3 311.802L502.163 311.644L501.955 311.631L489.017 310.809L489.017 310.809L489.01 310.808C485.092 310.607 481.267 309.4 477.841 307.382C477.841 307.381 477.84 307.381 477.84 307.381L456.79 294.941L456.145 295.685L462.409 303.498C465.13 306.903 464.932 311.861 461.93 314.967C460.784 316.111 458.969 316.089 457.942 314.889L457.942 314.889L457.936 314.882L437.604 292.058L437.604 292.058L437.6 292.053C435.579 289.838 435.095 286.654 436.252 283.951L437.177 281.792L437.217 281.698V281.595V276.146C437.217 273.36 438.849 270.757 441.452 269.503L441.452 269.503L441.459 269.499L442.486 268.985L442.783 268.837L442.761 268.505L442.659 266.969C442.566 264.785 443.707 262.72 445.566 261.788L445.566 261.789L445.571 261.786L458.612 255.104L458.613 255.103C462.119 253.298 466.026 252.596 469.833 252.997L469.835 252.997L497.355 255.773L497.357 255.773C505.784 256.586 513.806 259.84 520.406 265.025L520.407 265.025L544.436 283.839Z" fill="white" stroke="black"/>
<path d="M458.024 263.257L458.04 263.251L458.056 263.245C458.28 263.155 458.624 263.292 458.741 263.583C458.83 263.806 458.697 264.143 458.416 264.264L442.827 269.296L442.712 269.333L442.67 269.375C442.503 269.374 442.25 269.229 442.103 268.952C442.028 268.73 442.16 268.406 442.434 268.288L458.024 263.257Z" fill="white" stroke="black"/>
<path d="M437.354 280.64L456.747 275.709C456.876 275.686 457.033 275.713 457.166 275.786C457.301 275.862 457.364 275.958 457.381 276.038C457.407 276.17 457.381 276.332 457.305 276.469C457.23 276.605 457.134 276.668 457.054 276.684L457.041 276.687L457.029 276.69L437.621 281.625L437.488 281.659L437.445 281.701C437.371 281.684 437.285 281.649 437.206 281.591C437.095 281.509 437.025 281.405 437.002 281.292C436.976 281.16 437.002 280.998 437.077 280.861C437.153 280.725 437.249 280.662 437.329 280.646L437.341 280.644L437.354 280.64Z" fill="white" stroke="black"/>
<path d="M452.392 291.031L452.382 291.02L452.371 291.009C452.278 290.916 452.246 290.81 452.258 290.692C452.271 290.564 452.339 290.411 452.474 290.276C452.566 290.184 452.672 290.152 452.789 290.163C452.913 290.176 453.062 290.241 453.194 290.369L457.085 294.777L457.095 294.789L457.106 294.8C457.199 294.893 457.231 294.999 457.219 295.117C457.206 295.245 457.138 295.398 457.003 295.533C456.993 295.543 456.967 295.562 456.9 295.576C456.827 295.59 456.746 295.592 456.638 295.592C456.543 295.592 456.485 295.576 456.444 295.558C456.402 295.539 456.351 295.506 456.283 295.44L452.392 291.031Z" fill="white" stroke="black"/>
<path d="M501.923 311.294H501.933L501.944 311.293L517.232 310.677C517.499 310.681 517.751 310.899 517.751 311.205C517.751 311.4 517.688 311.523 517.615 311.597C517.541 311.67 517.418 311.733 517.224 311.733H517.214L517.204 311.733L501.915 312.35C501.648 312.345 501.396 312.128 501.396 311.822C501.396 311.627 501.459 311.503 501.533 311.43C501.606 311.356 501.729 311.294 501.923 311.294Z" fill="white" stroke="black"/>
</svg>
