<svg width="9" height="9" viewBox="0 0 9 9" fill="none" xmlns="http://www.w3.org/2000/svg">
<g clip-path="url(#clip0_866_192)">
<path d="M4.21635 8.99996C4.05219 8.9761 3.88658 8.96131 3.72412 8.9284C2.17542 8.62497 1.04281 7.78196 0.396129 6.36072C-0.412045 4.58715 0.0433254 2.55452 1.51637 1.26257C2.22755 0.639016 3.06555 0.280485 4.01388 0.173857C4.75925 0.0898893 5.47916 0.193179 6.17507 0.465356C6.19665 0.473944 6.2192 0.480385 6.24563 0.489211C6.32129 0.363737 6.39476 0.24041 6.46992 0.117799C6.48715 0.0871433 6.50816 0.0587001 6.53248 0.033116C6.58389 -0.0172167 6.63432 -0.0086291 6.67433 0.0483827C6.69059 0.0728683 6.70355 0.0993298 6.71288 0.127102C6.84479 0.490642 6.97581 0.854341 7.10594 1.2182C7.16438 1.38208 7.10279 1.49205 6.93063 1.52043C6.53765 1.58548 6.14403 1.64694 5.74977 1.70483C5.70127 1.71175 5.6215 1.7022 5.60695 1.67453C5.58707 1.6366 5.60283 1.56719 5.62635 1.52306C5.69909 1.38613 5.78347 1.25493 5.87561 1.1006C5.63071 1.03691 5.39939 0.962242 5.16225 0.918589C4.74583 0.842092 4.31891 0.838942 3.90137 0.909285C3.2251 1.02069 2.61891 1.28165 2.09395 1.71318C1.36652 2.30953 0.922545 3.07287 0.776089 3.98936C0.606356 5.0597 0.870413 6.03176 1.55201 6.88265C2.15142 7.63239 2.94431 8.08252 3.89846 8.23734C5.65593 8.5224 7.37969 7.54699 8.01401 5.9311C8.21706 5.41952 8.30395 4.87045 8.26861 4.32236C8.24501 3.97158 8.16962 3.62604 8.04481 3.29663C8.00092 3.17879 7.99171 3.06142 8.06251 2.95026C8.1401 2.82813 8.25528 2.76754 8.40198 2.7797C8.55595 2.79258 8.667 2.87679 8.71356 3.01968C8.78776 3.24773 8.86753 3.47625 8.91239 3.71145C9.17451 5.08594 8.85371 6.32326 7.958 7.40458C7.29095 8.2099 6.41876 8.69892 5.38775 8.91098C5.20783 8.94796 5.02404 8.96179 4.84048 8.9866C4.81745 8.9897 4.79465 8.99614 4.77186 9.00115L4.21635 8.99996Z" fill="black"/>
<path d="M4.05371 3.42187C4.05371 2.96219 4.05249 2.50228 4.05371 2.04261C4.05371 1.84939 4.18246 1.72415 4.36262 1.73393C4.42865 1.73648 4.49167 1.76176 4.54068 1.80536C4.5897 1.84896 4.62159 1.90811 4.6308 1.97248C4.63635 2.01599 4.63886 2.05982 4.63832 2.10368C4.63832 2.8799 4.64001 3.65588 4.63638 4.4321C4.63638 4.51487 4.66499 4.55423 4.73725 4.59073C5.47268 4.96166 6.20593 5.33689 6.94039 5.70973C7.02792 5.7541 7.10212 5.80706 7.13292 5.90486C7.14848 5.9546 7.14997 6.00757 7.13723 6.05807C7.12448 6.10858 7.09798 6.15471 7.06058 6.19151C7.02317 6.22831 6.97628 6.25438 6.92494 6.26692C6.8736 6.27946 6.81976 6.27799 6.7692 6.26268C6.72991 6.2494 6.69186 6.2328 6.65548 6.21306C5.81489 5.78623 4.97471 5.35971 4.13494 4.93351C4.07432 4.90298 4.05007 4.8703 4.0508 4.80065C4.0554 4.34145 4.05371 3.88178 4.05371 3.42187Z" fill="black"/>
</g>
<defs>
<clipPath id="clip0_866_192">
<rect width="9" height="9" fill="white"/>
</clipPath>
</defs>
</svg>
