<svg width="41" height="41" viewBox="0 0 41 41" fill="none" xmlns="http://www.w3.org/2000/svg">
<path d="M19.6596 0C19.87 0 20.0805 0 20.2909 0C20.4487 0.0350723 20.589 0.0701447 20.7468 0.0876808C21.799 0.210434 22.8863 0.245506 23.9209 0.45594C28.603 1.42043 32.4785 3.75274 35.4948 7.47041C37.9674 10.5217 39.4229 13.9939 39.8262 17.9044C39.8963 18.5182 39.949 19.1144 40.0016 19.7282C40.0016 19.9386 40.0016 20.1491 40.0016 20.3595C39.9665 20.5524 39.9314 20.7453 39.9139 20.9382C39.7911 21.9728 39.7561 23.025 39.5456 24.0245C38.6337 28.4612 36.4768 32.1964 33.0397 35.1425C28.3751 39.1232 22.9564 40.6488 16.9064 39.7896C12.9432 39.2284 9.45355 37.5625 6.54255 34.8093C1.12387 29.6887 -0.980469 23.3757 0.422424 16.0807C1.56228 10.1359 4.96429 5.64665 10.2076 2.61289C12.9432 1.03463 15.9244 0.192898 19.0809 0.0876808C19.2913 0.0701447 19.4842 0.0350723 19.6596 0ZM19.9753 36.3349C28.9187 36.4051 36.2839 28.9873 36.3014 20.0614C36.319 11.1004 28.9362 3.7352 20.0454 3.71767C11.0669 3.6826 3.68415 11.0829 3.66662 19.9912C3.64908 28.9522 11.0318 36.3875 19.9753 36.3349Z" fill="#E2574C"/>
<path d="M17.502 16.3087C17.502 14.5726 17.502 12.8365 17.502 11.118C17.502 9.82032 18.0105 9.15395 19.2906 8.90844C20.0798 8.75062 20.8689 8.82076 21.5879 9.25917C22.149 9.60989 22.4472 10.1184 22.4472 10.7848C22.4472 14.4499 22.4472 18.0974 22.4472 21.7625C22.4472 22.5691 22.0263 23.1127 21.3248 23.4459C20.448 23.8317 19.5537 23.8493 18.6769 23.481C17.9053 23.1653 17.502 22.5516 17.502 21.7098C17.502 19.9036 17.502 18.1149 17.502 16.3087Z" fill="#E2574C"/>
<path d="M20.0456 31.2144C18.6953 31.2495 17.573 30.1798 17.5379 28.812C17.5029 27.4967 18.5901 26.3569 19.9579 26.3394C21.3257 26.3394 22.3955 27.3214 22.4305 28.7769C22.4656 30.0921 21.3784 31.1793 20.0456 31.2144Z" fill="#E2574C"/>
</svg>
