<svg width="177" height="139" viewBox="0 0 177 139" fill="none" xmlns="http://www.w3.org/2000/svg">
<rect width="177" height="139" rx="12" fill="#FBC108"/>
<rect x="16" y="13" width="145" height="113" rx="12" fill="white"/>
<path d="M57 94.9774V104H119V94.9774C119 90.2065 117.144 85.8738 114.089 82.5958C116.109 81.752 117.39 80.9893 117.505 80.9081C117.686 80.8108 117.785 80.616 117.768 80.4213C117.752 80.2266 117.637 80.0643 117.44 79.9669C117.374 79.9345 112.299 77.5328 110.952 74.2873C112.726 75.8938 114.845 76.5429 117.62 77.0135C117.834 77.046 118.047 76.981 118.195 76.8188C118.327 76.6727 118.376 76.4618 118.277 76.267C116.421 72.1452 114.401 66.9524 113.268 62.1003C113.514 61.8569 113.761 61.5973 113.941 61.3052C114.483 60.5262 114.795 59.6013 114.795 58.6114V56.9886C114.795 55.6255 114.204 54.3922 113.235 53.4997C113.055 38.8462 101.722 27 87.7783 27C86.3658 27 84.9698 27.1298 83.6066 27.3732C80.1576 27.9737 76.9221 29.3043 74.0808 31.2192C72.5698 32.063 71.3052 33.134 70.2212 34.416C70.2212 34.416 70.2212 34.416 70.2048 34.416C66.3944 38.2944 63.7009 43.3899 62.7155 49.1345C62.4527 50.6923 62.3049 52.2826 62.3049 53.9216V53.9541C61.5987 54.7979 61.1717 55.8689 61.1717 57.0211V58.6438C61.1717 60.3153 62.0585 61.7758 63.4053 62.7007C63.8159 68.2993 65.0148 74.3359 66.2795 79.0744C60.7282 82.3199 57 88.2105 57 94.9774ZM100.343 80.6485C100.063 81.1515 93.658 86.8799 93.658 86.8799L97.9611 90.9855L87.9918 101.647L78.0225 90.9692L82.3256 86.8637C82.3256 86.8637 75.9367 81.1353 75.6411 80.6322C75.1319 79.756 79.5828 76.7863 79.5828 76.7863L87.9918 101.647L96.4008 76.8188C96.4008 76.8188 100.852 79.7722 100.343 80.6485ZM76.1995 76.3806H76.2159H77.7762H76.1995ZM82.4405 82.9852L93.5595 82.9041L88.0246 99.1642H87.8768L82.4405 82.9852ZM98.2074 76.3806H99.7677H99.7841H98.2074ZM109.868 57.3943C109.885 56.6154 109.868 55.8202 109.803 54.9926C110.837 55.1549 111.642 55.9987 111.642 57.0048V58.6276C111.642 59.6662 110.821 60.5262 109.737 60.6723C109.836 59.8771 109.901 59.0658 109.901 58.2544C109.918 57.9623 109.885 57.6864 109.868 57.3943ZM69.4657 55.6417C69.6135 54.7492 69.827 53.8892 70.1062 53.0615C70.3033 53.0615 70.5004 53.0453 70.7303 53.0291C78.3181 52.4936 99.1436 47.7389 99.1436 47.7389C100.408 49.9134 103.709 52.6883 106.272 54.4733C106.354 54.8628 106.452 55.2523 106.518 55.6417C106.649 56.5018 106.748 57.3619 106.748 58.2544C106.748 58.8873 106.699 59.5201 106.633 60.1368C106.518 61.1916 106.288 62.2301 105.976 63.22C103.677 70.4738 96.4829 75.7964 87.9918 75.7964C79.4842 75.7964 72.307 70.4738 70.0077 63.22C69.6956 62.2301 69.4657 61.1916 69.3507 60.1368C69.285 59.5201 69.2358 58.8873 69.2358 58.2544C69.2193 57.3619 69.3179 56.4856 69.4657 55.6417ZM66.2466 55.9176C66.1481 56.6803 66.066 57.4592 66.066 58.2544C66.066 59.0658 66.1317 59.8771 66.2302 60.6723C65.1627 60.5262 64.3415 59.6662 64.3415 58.6276V57.0048C64.3415 56.0474 65.4254 55.1711 66.3616 54.9439C66.2795 55.5281 66.2795 55.5281 66.2466 55.9176Z" fill="#3B3E43"/>
<path d="M119 104.5V104L117 102L114.5 103.5L115 105L119 104.5Z" fill="#3B3E43"/>
<path d="M119 104.362C97.2244 118.195 68.5935 110.126 57 104.362L63.5528 101H105.894L119 104.362Z" fill="#3B3E43"/>
</svg>
